;TYPE=PLATED
;Layer: PTH_Through_Via
;EasyEDA Pro v3.2.148, 2026-07-18 15:47:37
;Gerber Generator version 0.3
M48
METRIC,LZ,0000.00000
;Hole size 1 = 0.30500 METRIC
T01C0.30500
;Hole size 2 = 0.30500 METRIC
T02C0.30500
%
G05
G90
T01
X13.49224Y-46.81616
X62.103Y-13.319
X52.52094Y-13.41877
X65.405Y-21.27402
X65.405Y-19.87398
X55.88Y-20.12798
X75.30945Y-20.23876
X75.30946Y-23.80633
X75.30948Y-27.33226
X75.30947Y-30.99147
X75.30946Y-34.6444
X75.30946Y-38.17032
X75.31099Y-41.68901
X75.31099Y-45.11801
X75.311Y-48.37836
X79.52689Y-49.9832
X75.31105Y-51.6804
X72.48399Y-60.19799
X61.722Y-26.71249
X48.402Y-33.782
X13.31145Y-70.14864
X21.844Y-45.212
X21.82045Y-43.82762
X13.56547Y-41.70064
X50.74294Y-21.52467
X60.452Y-21.4249
X55.88Y-21.52802
X17.28579Y-36.38384
X17.24845Y-46.49767
X27.559Y-37.719
X13.05747Y-54.90864
X16.61345Y-59.57867
X13.18445Y-60.03028
X16.77779Y-64.67292
X13.31147Y-65.06864
X16.86745Y-69.86567
X16.86745Y-74.94567
X21.94745Y-67.45267
X21.94746Y-66.05267
X13.6193Y-31.54393
X13.61929Y-36.716
X17.28579Y-41.43461
X17.28579Y-51.52907
X15.69644Y-3.302
X39.116Y-12.827
X54.55294Y-26.93487
X60.96Y-76.24508
X62.23Y-76.24508
X63.5Y-76.24508
X66.04Y-76.24508
X47.05198Y-33.782
X43.053Y-72.04201
X54.73699Y-72.04201
X48.895Y-67.16351
X47.09184Y-35.57414
X48.49393Y-35.57618
X22.2951Y-5.52704
X30.702Y-6.477
X25.162Y-10.16
X27.162Y-10.16
X18.29105Y-15.367
X44.196Y-12.827
X30.734Y-40.132
X55.89206Y-51.95506
X62.23Y-72.34491
T02
X44.41249Y-43.27911
X76.38067Y-41.75512
X44.37674Y-41.73207
X40.24955Y-45.974
X44.37497Y-40.76292
X37.29605Y-42.01761
X39.83226Y-40.18129
X39.0715Y-43.07311
X29.41951Y-41.51712
X23.70453Y-40.24712
X44.41249Y-39.77099
X33.86602Y-53.77919
X40.17591Y-38.28075
X28.99994Y-61.86528
X23.49499Y-60.96
X29.464Y-39.497
X20.84176Y-37.52382
X24.79675Y-39.82782
X20.67746Y-60.97268
X26.37545Y-64.63867
X20.15626Y-63.33857
X26.50625Y-63.33857
X49.0339Y-42.06312
X52.84389Y-38.25312
X18.38286Y-43.25762
X48.895Y-69.44706
X50.7872Y-72.42796
X58.41996Y-65.97798
X45.72001Y-39.68902
M30