G04 Layer: TopSolderMaskLayer*
G04 EasyEDA Pro v3.2.148, 2026-07-18 15:47:37*
G04 Gerber Generator version 0.3*
G04 Scale: 100 percent, Rotated: No, Reflected: No*
G04 Dimensions in millimeters*
G04 Leading zeros omitted, absolute positions, 4 integers and 5 decimals*
G04 Generated by one-click*
G04 Object Configs: Pad,Via,Track,Text,Image,Dimension,BoardOutline,BoardCutout,CopperFilled,SolidRegion,FPCStiffener,Line,PlaneZone,ComponentProperty,ComponentSilkscreen,TearDrop*
G04 Layer Configs: 1,15,16,2,3,4,5,6,7,8,9,10,11,13,14,56*
G04 Copper Areas: 0*
%FSLAX45Y45*%
%MOMM*%
%AMRoundRect*1,1,$1,$2,$3*1,1,$1,$4,$5*1,1,$1,0-$2,0-$3*1,1,$1,0-$4,0-$5*20,1,$1,$2,$3,$4,$5,0*20,1,$1,$4,$5,0-$2,0-$3,0*20,1,$1,0-$2,0-$3,0-$4,0-$5,0*20,1,$1,0-$4,0-$5,$2,$3,0*4,1,4,$2,$3,$4,$5,0-$2,0-$3,0-$4,0-$5,$2,$3,0*%
%ADD10C,4.1656*%
%ADD11RoundRect,0.1016X-0.4X0.45X0.4X0.45*%
%ADD12RoundRect,0.1016X-0.45X-0.4X-0.45X0.4*%
%ADD13RoundRect,0.1016X-1.75X0.6X1.75X0.6*%
%ADD14RoundRect,0.1016X-0.75X0.67945X0.75X0.67945*%
%ADD15RoundRect,0.1016X-0.705X0.67501X0.705X0.67501*%
%ADD16C,2.40002*%
%ADD17RoundRect,0.1016X-1.0X0.9X1.0X0.9*%
%ADD18RoundRect,0.1020X-0.32501X-0.5X-0.32501X0.5*%
%ADD19RoundRect,0.1016X-0.32501X-0.5X-0.32501X0.5*%
%ADD20RoundRect,0.1016X-0.266X0.536X0.266X0.536*%
%ADD21RoundRect,0.1016X-0.70334X1.7496X0.70334X1.7496*%
%ADD22RoundRect,0.10003X-1.15X-1.15X-1.15X1.15*%
%ADD23RoundRect,0.10003X-0.27501X0.55X0.27501X0.55*%
%ADD24RoundRect,0.10003X-0.15X0.55X0.15X0.55*%
%ADD25O,1.20002X2.10002*%
%ADD26O,1.30002X1.90002*%
%ADD27RoundRect,0.1016X-0.37X1.2X0.37X1.2*%
%ADD28RoundRect,0.1016X-1.062X2.11X1.062X2.11*%
%ADD29RoundRect,0.1016X-0.4X0.4X0.4X0.4*%
%ADD30RoundRect,0.1016X-0.432X-0.40324X-0.432X0.40324*%
%ADD31RoundRect,0.1016X-0.40324X0.432X0.40324X0.432*%
%ADD32RoundRect,0.1016X-0.5X0.37501X0.5X0.37501*%
%ADD33RoundRect,0.1016X-0.37501X-0.5X-0.37501X0.5*%
%ADD34O,0.37003X1.60002*%
%ADD35O,1.60002X0.37003*%
%ADD36O,0.67X2.05181*%
%ADD37RoundRect,0.10003X-0.55X-0.27501X-0.55X0.27501*%
%ADD38RoundRect,0.1016X-0.85X-0.2X-0.85X0.2*%
G75*


G04 Pad Start*
G54D10*
G01X2590800Y-1841500D03*
G01X7912100Y-406400D03*
G01X7912100Y-7518400D03*
G01X4318000Y-5448300D03*
G01X2349500Y-7505700D03*
G54D11*
G01X4845202Y-3378200D03*
G01X4705198Y-3378200D03*
G54D12*
G01X1724845Y-4509762D03*
G01X1724845Y-4649767D03*
G01X6540500Y-1987398D03*
G01X6540500Y-2127402D03*
G54D11*
G01X2177898Y-1016000D03*
G01X2317902Y-1016000D03*
G01X4849189Y-3557414D03*
G01X4709184Y-3557414D03*
G54D13*
G01X1295095Y-1536700D03*
G01X1829105Y-1536700D03*
G54D14*
G01X2736190Y-1219200D03*
G01X2496210Y-1219200D03*
G54D11*
G01X2431898Y-355600D03*
G01X2571902Y-355600D03*
G54D12*
G01X1661345Y-5817862D03*
G01X1661345Y-5957867D03*
G01X1677779Y-6332290D03*
G01X1677779Y-6472295D03*
G01X1686745Y-6846562D03*
G01X1686745Y-6986567D03*
G01X1686745Y-7354562D03*
G01X1686745Y-7494567D03*
G01X1728579Y-3498379D03*
G01X1728579Y-3638384D03*
G01X1728579Y-4008459D03*
G01X1728579Y-4148464D03*
G54D15*
G01X2716200Y-1016000D03*
G01X2516200Y-1016000D03*
G54D12*
G01X1728579Y-5012902D03*
G01X1728579Y-5152907D03*
G01X5588000Y-2012798D03*
G01X5588000Y-2152802D03*
G01X2194745Y-6745267D03*
G01X2194745Y-6605262D03*
G01X2182045Y-4522767D03*
G01X2182045Y-4382762D03*
G54D16*
G01X6445894Y-518786D03*
G01X5937894Y-518786D03*
G01X5429894Y-518786D03*
G01X4921894Y-518786D03*
G01X4413894Y-518786D03*
G01X3905894Y-518786D03*
G54D17*
G01X346090Y-330200D03*
G01X746089Y-330200D03*
G54D19*
G01X6305296Y-1131900D03*
G01X6115304Y-1131900D03*
G01X6210300Y-1331900D03*
G01X5347090Y-1141877D03*
G01X5157098Y-1141877D03*
G01X5252094Y-1341877D03*
G54D20*
G01X4984496Y-6717690D03*
G01X4889500Y-6717690D03*
G01X4794504Y-6717690D03*
G01X4794504Y-6947510D03*
G01X4889500Y-6947510D03*
G01X4984496Y-6947510D03*
G54D21*
G01X1569644Y-330200D03*
G01X1198956Y-330200D03*
G54D22*
G01X558800Y-1028700D03*
G54D16*
G01X558800Y-1536700D03*
G01X594545Y-5646565D03*
G01X594545Y-6154565D03*
G01X594545Y-6662565D03*
G01X594545Y-7170565D03*
G01X594545Y-3322465D03*
G01X594545Y-3830465D03*
G01X594545Y-4338465D03*
G01X594545Y-4846465D03*
G54D22*
G01X546100Y-2197100D03*
G54D16*
G01X546100Y-2705100D03*
G54D23*
G01X4569498Y-7141197D03*
G01X4649508Y-7141197D03*
G54D24*
G01X4714507Y-7141197D03*
G01X4764519Y-7141197D03*
G01X4814507Y-7141197D03*
G01X4864494Y-7141197D03*
G01X4914506Y-7141197D03*
G01X4964494Y-7141197D03*
G01X5014506Y-7141197D03*
G01X5064519Y-7141197D03*
G54D23*
G01X5129517Y-7141197D03*
G01X5209502Y-7141197D03*
G54D25*
G01X4457002Y-7196188D03*
G01X5321999Y-7196188D03*
G54D26*
G01X4457002Y-7616203D03*
G01X5321999Y-7616203D03*
G54D27*
G01X6604000Y-7234491D03*
G01X6604000Y-7624508D03*
G01X6477000Y-7234491D03*
G01X6477000Y-7624508D03*
G01X6350000Y-7234491D03*
G01X6350000Y-7624508D03*
G01X6223000Y-7234491D03*
G01X6223000Y-7624508D03*
G01X6096000Y-7234491D03*
G01X6096000Y-7624508D03*
G54D28*
G01X2670200Y-647700D03*
G01X3070200Y-647700D03*
G54D29*
G01X7952013Y-4838481D03*
G01X7952699Y-4998374D03*
G01X7940319Y-4642647D03*
G01X7940293Y-4492848D03*
G01X7928957Y-4160637D03*
G01X7929643Y-4320530D03*
G01X7927263Y-3820745D03*
G01X7927949Y-3980638D03*
G01X7927263Y-3467085D03*
G01X7927949Y-3626978D03*
G01X7924457Y-3120453D03*
G01X7925143Y-3280346D03*
G01X7924457Y-2764853D03*
G01X7925143Y-2924746D03*
G01X7927263Y-2408679D03*
G01X7927949Y-2568572D03*
G01X7927263Y-2056086D03*
G01X7927949Y-2215979D03*
G01X7927263Y-1703493D03*
G01X7927949Y-1863386D03*
G54D30*
G01X1305745Y-5495028D03*
G01X1305745Y-5645701D03*
G54D31*
G01X1660482Y-5646565D03*
G01X1509809Y-5646565D03*
G54D30*
G01X1318445Y-6003028D03*
G01X1318445Y-6153701D03*
G54D31*
G01X1634625Y-6156062D03*
G01X1483952Y-6156062D03*
G54D30*
G01X1331145Y-6511028D03*
G01X1331145Y-6661701D03*
G54D31*
G01X1672725Y-6668698D03*
G01X1522052Y-6668698D03*
G54D30*
G01X1331145Y-7019028D03*
G01X1331145Y-7169701D03*
G54D31*
G01X1685882Y-7170565D03*
G01X1535209Y-7170565D03*
G54D30*
G01X1361928Y-3158557D03*
G01X1361928Y-3309230D03*
G54D31*
G01X1723982Y-3309765D03*
G01X1573309Y-3309765D03*
G54D30*
G01X1361928Y-3675765D03*
G01X1361928Y-3826438D03*
G54D31*
G01X1711282Y-3830465D03*
G01X1560609Y-3830465D03*
G54D30*
G01X1356545Y-4174228D03*
G01X1356545Y-4324901D03*
G54D31*
G01X1711282Y-4325765D03*
G01X1560609Y-4325765D03*
G54D30*
G01X1349228Y-4685781D03*
G01X1349228Y-4836453D03*
G54D31*
G01X1723982Y-4833765D03*
G01X1573309Y-4833765D03*
G54D30*
G01X7531100Y-4507636D03*
G01X7531100Y-4356964D03*
G01X7531100Y-4164736D03*
G01X7531100Y-4014064D03*
G01X7530947Y-3812868D03*
G01X7530947Y-3662195D03*
G01X7530947Y-3460276D03*
G01X7530947Y-3309603D03*
G01X7530947Y-3094983D03*
G01X7530947Y-2944310D03*
G01X7530947Y-2729062D03*
G01X7530947Y-2578389D03*
G01X7530947Y-2376469D03*
G01X7530947Y-2225796D03*
G01X7530947Y-2023876D03*
G01X7530947Y-1873204D03*
G01X7531100Y-5017364D03*
G01X7531100Y-5168036D03*
G54D31*
G01X5182464Y-1663700D03*
G01X5333136Y-1663700D03*
G54D30*
G01X7531100Y-4837836D03*
G01X7531100Y-4687164D03*
G01X4965700Y-6590436D03*
G01X4965700Y-6439764D03*
G01X4813300Y-6590436D03*
G01X4813300Y-6439764D03*
G54D31*
G01X7252564Y-6019800D03*
G01X7403236Y-6019800D03*
G54D30*
G01X4305300Y-7049364D03*
G01X4305300Y-7200036D03*
G01X5473700Y-7049364D03*
G01X5473700Y-7200036D03*
G54D32*
G01X8059699Y-6613700D03*
G01X7459701Y-6613700D03*
G01X8059699Y-6238700D03*
G01X7459701Y-6238700D03*
G54D33*
G01X7959900Y-5415001D03*
G01X7959900Y-6014999D03*
G01X7584900Y-5415001D03*
G01X7584900Y-6014999D03*
G54D34*
G01X4999406Y-3727907D03*
G01X4949393Y-3727907D03*
G01X4899406Y-3727907D03*
G01X4849393Y-3727907D03*
G01X4799406Y-3727907D03*
G01X4749394Y-3727907D03*
G01X4699406Y-3727907D03*
G01X4649394Y-3727907D03*
G01X4599407Y-3727907D03*
G01X4549394Y-3727907D03*
G01X4499407Y-3727907D03*
G01X4449394Y-3727907D03*
G54D35*
G01X4299407Y-3877894D03*
G01X4299407Y-3927907D03*
G01X4299407Y-3977894D03*
G01X4299407Y-4027907D03*
G01X4299407Y-4077894D03*
G01X4299407Y-4127906D03*
G01X4299407Y-4177894D03*
G01X4299407Y-4227906D03*
G01X4299407Y-4277893D03*
G01X4299407Y-4327906D03*
G01X4299407Y-4377893D03*
G01X4299407Y-4427906D03*
G54D34*
G01X4449394Y-4577893D03*
G01X4499407Y-4577893D03*
G01X4549394Y-4577893D03*
G01X4599407Y-4577893D03*
G01X4649394Y-4577893D03*
G01X4699406Y-4577893D03*
G01X4749394Y-4577893D03*
G01X4799406Y-4577893D03*
G01X4849393Y-4577893D03*
G01X4899406Y-4577893D03*
G01X4949393Y-4577893D03*
G01X4999406Y-4577893D03*
G54D35*
G01X5149393Y-4427906D03*
G01X5149393Y-4377893D03*
G01X5149393Y-4327906D03*
G01X5149393Y-4277893D03*
G01X5149393Y-4227906D03*
G01X5149393Y-4177894D03*
G01X5149393Y-4127906D03*
G01X5149393Y-4077894D03*
G01X5149393Y-4027907D03*
G01X5149393Y-3977894D03*
G01X5149393Y-3927907D03*
G01X5149393Y-3877894D03*
G54D36*
G01X6045200Y-2683510D03*
G01X6172200Y-2683510D03*
G01X6299200Y-2683510D03*
G01X6426200Y-2683510D03*
G01X6045200Y-2142490D03*
G01X6172200Y-2142490D03*
G01X6299200Y-2142490D03*
G01X6426200Y-2142490D03*
G01X5074294Y-2693487D03*
G01X5201294Y-2693487D03*
G01X5328294Y-2693487D03*
G01X5455294Y-2693487D03*
G01X5074294Y-2152467D03*
G01X5201294Y-2152467D03*
G01X5328294Y-2152467D03*
G01X5455294Y-2152467D03*
G54D37*
G01X2469490Y-552704D03*
G01X2469490Y-647700D03*
G01X2469490Y-742696D03*
G01X2229510Y-742696D03*
G01X2229510Y-647700D03*
G01X2229510Y-552704D03*
G54D38*
G01X2766855Y-6463861D03*
G01X2766855Y-6398862D03*
G01X2766855Y-6333863D03*
G01X2766855Y-6268865D03*
G01X2766855Y-6203866D03*
G01X2766855Y-6138868D03*
G01X2766855Y-6073869D03*
G01X2206836Y-6073869D03*
G01X2206836Y-6138868D03*
G01X2206836Y-6203866D03*
G01X2206836Y-6268865D03*
G01X2206836Y-6333863D03*
G01X2206836Y-6398862D03*
G01X2206836Y-6463861D03*
G01X2754155Y-4266761D03*
G01X2754155Y-4201762D03*
G01X2754155Y-4136763D03*
G01X2754155Y-4071765D03*
G01X2754155Y-4006766D03*
G01X2754155Y-3941768D03*
G01X2754155Y-3876769D03*
G01X2194136Y-3876769D03*
G01X2194136Y-3941768D03*
G01X2194136Y-4006766D03*
G01X2194136Y-4071765D03*
G01X2194136Y-4136763D03*
G01X2194136Y-4201762D03*
G01X2194136Y-4266761D03*
G54D12*
G01X7315200Y-6610502D03*
G01X7315200Y-6470498D03*
G04 Pad End*

M02*

