G04 Layer: DrillDrawingLayer*
G04 EasyEDA Pro v3.2.148, 2026-07-18 15:47:37*
G04 Gerber Generator version 0.3*
G04 Scale: 100 percent, Rotated: No, Reflected: No*
G04 Dimensions in millimeters*
G04 Leading zeros omitted, absolute positions, 4 integers and 5 decimals*
G04 Generated by one-click*
G04 Object Configs: Pad,Via,Track,Text,Image,Dimension,BoardOutline,BoardCutout,CopperFilled,SolidRegion,FPCStiffener,Line,PlaneZone,ComponentProperty,ComponentSilkscreen,TearDrop*
G04 Layer Configs: 1,15,16,2,3,4,5,6,7,8,9,10,11,13,14,56*
G04 Copper Areas: 0*
%FSLAX45Y45*%
%MOMM*%
%AMIconRect*4,1,4,0.28,-0.28,-0.28,-0.28,-0.28,0.28,0.28,0.28,0.28,-0.28,0*4,0,4,0.233333,-0.233333,0.233333,0.233333,-0.233333,0.233333,-0.233333,-0.233333,0.233333,-0.233333,0*%
%AMIconTriangle*4,1,3,-0.339593,0.240473,0.339593,0.240473,0,-0.37884,-0.339593,0.240473,0*4,0,3,-0.265673,0.19404,0,-0.27342,0.266233,0.19404,-0.265673,0.19404,0*%
%AMIconStar6*4,1,12,0.12068,0.20888,0.298527,0.172713,0.241313,0,0.298527,-0.17206,0.12068,-0.208227,0,-0.344073,-0.120073,-0.208227,-0.298573,-0.17206,-0.240707,0,-0.298573,0.17206,-0.120073,0.20888,0,0.344073,0.12068,0.20888,0*4,0,12,-0.000467,0.273467,-0.090067,0.171733,-0.237533,0.136733,-0.193667,-0.007467,-0.237533,-0.1372,-0.090067,-0.171733,-0.000467,-0.273933,0.090067,-0.171733,0.237533,-0.1372,0.194133,0.007,0.237533,0.1372,0.090067,0.171267,-0.000467,0.273467,0*%
%AMIconStar4*4,1,8,-0.311733,0.311733,0,0.202533,0.311733,0.311733,0.202533,0,0.311733,-0.311733,0,-0.202533,-0.304407,-0.311733,-0.202533,0,-0.311733,0.311733,0*4,0,8,0.233333,-0.233333,0.1512,0,0.233333,0.233333,0,0.1512,-0.233333,0.233333,-0.1512,0,-0.233333,-0.233333,0,-0.1512,0.233333,-0.233333,0*%
%AMIconPlus*4,1,12,0.1736,-0.28,-0.1736,-0.28,-0.1736,-0.1736,-0.28,-0.1736,-0.28,0.1736,-0.1736,0.1736,-0.1736,0.28,0.1736,0.28,0.1736,0.1736,0.28,0.1736,0.28,-0.1736,0.1736,-0.1736,0.1736,-0.28,0*4,0,12,0.126933,-0.233333,0.126933,-0.126933,0.233333,-0.126933,0.233333,0.126933,0.126933,0.126933,0.126933,0.233333,-0.126933,0.233333,-0.126933,0.126933,-0.233333,0.126933,-0.233333,-0.126933,-0.126933,-0.126933,-0.126933,-0.233333,0.126933,-0.233333,0*%
%ADD10IconRect*%
%ADD11C,0.616X0.522667*%
%ADD12IconTriangle*%
%ADD13IconStar6*%
%ADD14IconStar4*%
%ADD15IconPlus*%
%ADD16C,0.2032*%
%ADD17C,0.254*%
G75*


G04 Drill Drawing Start*
G54D10*
G01X4457007Y-7196196D03*
G01X5322009Y-7196198D03*
G54D11*
G01X4457002Y-7616203D03*
G01X5321999Y-7616203D03*
G54D12*
G01X4600512Y-7248207D03*
G01X5178514Y-7248207D03*
G54D13*
G01X2349500Y-7505700D03*
G01X2590800Y-1841500D03*
G01X4318000Y-5448300D03*
G01X7912100Y-7518400D03*
G01X7912100Y-406400D03*
G54D14*
G01X546100Y-2705100D03*
G01X546100Y-2197100D03*
G01X558800Y-1536700D03*
G01X558800Y-1028700D03*
G01X594545Y-7170565D03*
G01X594545Y-4846465D03*
G01X594545Y-6662565D03*
G01X594545Y-4338465D03*
G01X594545Y-6154565D03*
G01X594545Y-3830465D03*
G01X594545Y-5646565D03*
G01X594545Y-3322465D03*
G01X3905894Y-518786D03*
G01X4413894Y-518786D03*
G01X4921894Y-518786D03*
G01X5429894Y-518786D03*
G01X5937894Y-518786D03*
G01X6445894Y-518786D03*
G54D15*
G01X1305747Y-5490864D03*
G01X1318445Y-6003028D03*
G01X1331145Y-7014864D03*
G01X1331147Y-6506864D03*
G01X1349224Y-4681616D03*
G01X1356547Y-4170064D03*
G01X1361929Y-3671600D03*
G01X1361930Y-3154393D03*
G01X1569644Y-330200D03*
G01X1661345Y-5957867D03*
G01X1677779Y-6467292D03*
G01X1686745Y-7494567D03*
G01X1686745Y-6986567D03*
G01X1724845Y-4649767D03*
G01X1728579Y-5152907D03*
G01X1728579Y-4143461D03*
G01X1728579Y-3638384D03*
G01X1829105Y-1536700D03*
G01X1838286Y-4325762D03*
G01X2015626Y-6333857D03*
G01X2067746Y-6097268D03*
G01X2084176Y-3752382D03*
G01X2182045Y-4382762D03*
G01X2184400Y-4521200D03*
G01X2194745Y-6745267D03*
G01X2194746Y-6605267D03*
G01X2229510Y-552704D03*
G01X2349499Y-6096000D03*
G01X2370453Y-4024712D03*
G01X2479675Y-3982782D03*
G01X2516200Y-1016000D03*
G01X2637545Y-6463867D03*
G01X2650625Y-6333857D03*
G01X2716200Y-1016000D03*
G01X2755900Y-3771900D03*
G01X2899994Y-6186528D03*
G01X2941951Y-4151712D03*
G01X2946400Y-3949700D03*
G01X3070200Y-647700D03*
G01X3073400Y-4013200D03*
G01X3386602Y-5377919D03*
G01X3729605Y-4201761D03*
G01X3907150Y-4307311D03*
G01X3911600Y-1282700D03*
G01X3983226Y-4018129D03*
G01X4017591Y-3828075D03*
G01X4024955Y-4597400D03*
G01X4305300Y-7204201D03*
G01X4419600Y-1282700D03*
G01X4437497Y-4076292D03*
G01X4437674Y-4173207D03*
G01X4441249Y-4327911D03*
G01X4441249Y-3977099D03*
G01X4572001Y-3968902D03*
G01X4705198Y-3378200D03*
G01X4709184Y-3557414D03*
G01X4840200Y-3378200D03*
G01X4849393Y-3557618D03*
G01X4889500Y-6716351D03*
G01X4889500Y-6944706D03*
G01X4903390Y-4206312D03*
G01X5074294Y-2152467D03*
G01X5078720Y-7242796D03*
G01X5252094Y-1341877D03*
G01X5284389Y-3825312D03*
G01X5455294Y-2693487D03*
G01X5473699Y-7204201D03*
G01X5588000Y-2152802D03*
G01X5588000Y-2012798D03*
G01X5589207Y-5195506D03*
G01X5841996Y-6597798D03*
G01X6045200Y-2142490D03*
G01X6096000Y-7624508D03*
G01X6172200Y-2671249D03*
G01X6210300Y-1331900D03*
G01X6223000Y-7624508D03*
G01X6223000Y-7234491D03*
G01X6350000Y-7624508D03*
G01X6540500Y-2127402D03*
G01X6540500Y-1987398D03*
G01X6604000Y-7624508D03*
G01X7248399Y-6019799D03*
G01X7530945Y-2023876D03*
G01X7530946Y-3817032D03*
G01X7530946Y-3464440D03*
G01X7530946Y-2380633D03*
G01X7530947Y-3099147D03*
G01X7530948Y-2733226D03*
G01X7531099Y-4511801D03*
G01X7531099Y-4168901D03*
G01X7531100Y-4837836D03*
G01X7531105Y-5168040D03*
G01X7638067Y-4175512D03*
G01X7952689Y-4998320D03*
G04 Drill Drawing End*

G04 Text Start*
G54D16*
G01X10606246Y-221706D02*
G01X10606246Y-341848D01*
G01X10606246Y-221706D02*
G01X10651966Y-341848D01*
G01X10697686Y-221706D02*
G01X10651966Y-341848D01*
G01X10697686Y-221706D02*
G01X10697686Y-341848D01*
G01X10814018Y-261838D02*
G01X10814018Y-341848D01*
G01X10814018Y-278856D02*
G01X10802588Y-267426D01*
G01X10791158Y-261838D01*
G01X10774140Y-261838D01*
G01X10762710Y-267426D01*
G01X10751280Y-278856D01*
G01X10745438Y-296128D01*
G01X10745438Y-307558D01*
G01X10751280Y-324576D01*
G01X10762710Y-336006D01*
G01X10774140Y-341848D01*
G01X10791158Y-341848D01*
G01X10802588Y-336006D01*
G01X10814018Y-324576D01*
G01X10861770Y-261838D02*
G01X10861770Y-341848D01*
G01X10861770Y-296128D02*
G01X10867612Y-278856D01*
G01X10879042Y-267426D01*
G01X10890472Y-261838D01*
G01X10907490Y-261838D01*
G01X10955242Y-221706D02*
G01X10955242Y-341848D01*
G01X11012392Y-261838D02*
G01X10955242Y-318988D01*
G01X10978102Y-296128D02*
G01X11018234Y-341848D01*
G01X12143526Y-250408D02*
G01X12137684Y-238978D01*
G01X12126254Y-227548D01*
G01X12114824Y-221706D01*
G01X12091964Y-221706D01*
G01X12080534Y-227548D01*
G01X12069104Y-238978D01*
G01X12063516Y-250408D01*
G01X12057674Y-267426D01*
G01X12057674Y-296128D01*
G01X12063516Y-313146D01*
G01X12069104Y-324576D01*
G01X12080534Y-336006D01*
G01X12091964Y-341848D01*
G01X12114824Y-341848D01*
G01X12126254Y-336006D01*
G01X12137684Y-324576D01*
G01X12143526Y-313146D01*
G01X12219980Y-261838D02*
G01X12208550Y-267426D01*
G01X12197120Y-278856D01*
G01X12191278Y-296128D01*
G01X12191278Y-307558D01*
G01X12197120Y-324576D01*
G01X12208550Y-336006D01*
G01X12219980Y-341848D01*
G01X12236998Y-341848D01*
G01X12248428Y-336006D01*
G01X12259858Y-324576D01*
G01X12265700Y-307558D01*
G01X12265700Y-296128D01*
G01X12259858Y-278856D01*
G01X12248428Y-267426D01*
G01X12236998Y-261838D01*
G01X12219980Y-261838D01*
G01X12313452Y-261838D02*
G01X12313452Y-318988D01*
G01X12319294Y-336006D01*
G01X12330724Y-341848D01*
G01X12347742Y-341848D01*
G01X12359172Y-336006D01*
G01X12376444Y-318988D01*
G01X12376444Y-261838D02*
G01X12376444Y-341848D01*
G01X12424196Y-261838D02*
G01X12424196Y-341848D01*
G01X12424196Y-284698D02*
G01X12441468Y-267426D01*
G01X12452898Y-261838D01*
G01X12469916Y-261838D01*
G01X12481346Y-267426D01*
G01X12487188Y-284698D01*
G01X12487188Y-341848D01*
G01X12552212Y-221706D02*
G01X12552212Y-318988D01*
G01X12557800Y-336006D01*
G01X12569230Y-341848D01*
G01X12580660Y-341848D01*
G01X12534940Y-261838D02*
G01X12575072Y-261838D01*
G01X13551847Y-238978D02*
G01X13540417Y-227548D01*
G01X13523399Y-221706D01*
G01X13500539Y-221706D01*
G01X13483267Y-227548D01*
G01X13471837Y-238978D01*
G01X13471837Y-250408D01*
G01X13477679Y-261838D01*
G01X13483267Y-267426D01*
G01X13494697Y-273268D01*
G01X13528987Y-284698D01*
G01X13540417Y-290286D01*
G01X13546259Y-296128D01*
G01X13551847Y-307558D01*
G01X13551847Y-324576D01*
G01X13540417Y-336006D01*
G01X13523399Y-341848D01*
G01X13500539Y-341848D01*
G01X13483267Y-336006D01*
G01X13471837Y-324576D01*
G01X13599599Y-221706D02*
G01X13605441Y-227548D01*
G01X13611029Y-221706D01*
G01X13605441Y-216118D01*
G01X13599599Y-221706D01*
G01X13605441Y-261838D02*
G01X13605441Y-341848D01*
G01X13721773Y-261838D02*
G01X13658781Y-341848D01*
G01X13658781Y-261838D02*
G01X13721773Y-261838D01*
G01X13658781Y-341848D02*
G01X13721773Y-341848D01*
G01X13769525Y-296128D02*
G01X13838105Y-296128D01*
G01X13838105Y-284698D01*
G01X13832517Y-273268D01*
G01X13826675Y-267426D01*
G01X13815245Y-261838D01*
G01X13798227Y-261838D01*
G01X13786797Y-267426D01*
G01X13775367Y-278856D01*
G01X13769525Y-296128D01*
G01X13769525Y-307558D01*
G01X13775367Y-324576D01*
G01X13786797Y-336006D01*
G01X13798227Y-341848D01*
G01X13815245Y-341848D01*
G01X13826675Y-336006D01*
G01X13838105Y-324576D01*
G01X17529887Y-221706D02*
G01X17529887Y-341848D01*
G01X17529887Y-221706D02*
G01X17581449Y-221706D01*
G01X17598467Y-227548D01*
G01X17604309Y-233136D01*
G01X17609897Y-244566D01*
G01X17609897Y-261838D01*
G01X17604309Y-273268D01*
G01X17598467Y-278856D01*
G01X17581449Y-284698D01*
G01X17529887Y-284698D01*
G01X17657649Y-221706D02*
G01X17657649Y-341848D01*
G01X17773981Y-261838D02*
G01X17773981Y-341848D01*
G01X17773981Y-278856D02*
G01X17762551Y-267426D01*
G01X17751121Y-261838D01*
G01X17734103Y-261838D01*
G01X17722673Y-267426D01*
G01X17711243Y-278856D01*
G01X17705401Y-296128D01*
G01X17705401Y-307558D01*
G01X17711243Y-324576D01*
G01X17722673Y-336006D01*
G01X17734103Y-341848D01*
G01X17751121Y-341848D01*
G01X17762551Y-336006D01*
G01X17773981Y-324576D01*
G01X17839005Y-221706D02*
G01X17839005Y-318988D01*
G01X17844593Y-336006D01*
G01X17856023Y-341848D01*
G01X17867453Y-341848D01*
G01X17821733Y-261838D02*
G01X17861865Y-261838D01*
G01X17915205Y-296128D02*
G01X17983785Y-296128D01*
G01X17983785Y-284698D01*
G01X17978197Y-273268D01*
G01X17972355Y-267426D01*
G01X17960925Y-261838D01*
G01X17943907Y-261838D01*
G01X17932477Y-267426D01*
G01X17921047Y-278856D01*
G01X17915205Y-296128D01*
G01X17915205Y-307558D01*
G01X17921047Y-324576D01*
G01X17932477Y-336006D01*
G01X17943907Y-341848D01*
G01X17960925Y-341848D01*
G01X17972355Y-336006D01*
G01X17983785Y-324576D01*
G01X18100117Y-221706D02*
G01X18100117Y-341848D01*
G01X18100117Y-278856D02*
G01X18088687Y-267426D01*
G01X18077257Y-261838D01*
G01X18060239Y-261838D01*
G01X18048809Y-267426D01*
G01X18037379Y-278856D01*
G01X18031537Y-296128D01*
G01X18031537Y-307558D01*
G01X18037379Y-324576D01*
G01X18048809Y-336006D01*
G01X18060239Y-341848D01*
G01X18077257Y-341848D01*
G01X18088687Y-336006D01*
G01X18100117Y-324576D01*
G01X19071304Y-238978D02*
G01X19059874Y-227548D01*
G01X19042856Y-221706D01*
G01X19019996Y-221706D01*
G01X19002724Y-227548D01*
G01X18991294Y-238978D01*
G01X18991294Y-250408D01*
G01X18997136Y-261838D01*
G01X19002724Y-267426D01*
G01X19014154Y-273268D01*
G01X19048444Y-284698D01*
G01X19059874Y-290286D01*
G01X19065716Y-296128D01*
G01X19071304Y-307558D01*
G01X19071304Y-324576D01*
G01X19059874Y-336006D01*
G01X19042856Y-341848D01*
G01X19019996Y-341848D01*
G01X19002724Y-336006D01*
G01X18991294Y-324576D01*
G01X19119056Y-221706D02*
G01X19119056Y-341848D01*
G01X19119056Y-284698D02*
G01X19136328Y-267426D01*
G01X19147758Y-261838D01*
G01X19164776Y-261838D01*
G01X19176206Y-267426D01*
G01X19182048Y-284698D01*
G01X19182048Y-341848D01*
G01X19298380Y-261838D02*
G01X19298380Y-341848D01*
G01X19298380Y-278856D02*
G01X19286950Y-267426D01*
G01X19275520Y-261838D01*
G01X19258502Y-261838D01*
G01X19247072Y-267426D01*
G01X19235642Y-278856D01*
G01X19229800Y-296128D01*
G01X19229800Y-307558D01*
G01X19235642Y-324576D01*
G01X19247072Y-336006D01*
G01X19258502Y-341848D01*
G01X19275520Y-341848D01*
G01X19286950Y-336006D01*
G01X19298380Y-324576D01*
G01X19346132Y-261838D02*
G01X19346132Y-381726D01*
G01X19346132Y-278856D02*
G01X19357562Y-267426D01*
G01X19368992Y-261838D01*
G01X19386264Y-261838D01*
G01X19397694Y-267426D01*
G01X19409124Y-278856D01*
G01X19414712Y-296128D01*
G01X19414712Y-307558D01*
G01X19409124Y-324576D01*
G01X19397694Y-336006D01*
G01X19386264Y-341848D01*
G01X19368992Y-341848D01*
G01X19357562Y-336006D01*
G01X19346132Y-324576D01*
G01X19462464Y-296128D02*
G01X19531044Y-296128D01*
G01X19531044Y-284698D01*
G01X19525456Y-273268D01*
G01X19519614Y-267426D01*
G01X19508184Y-261838D01*
G01X19491166Y-261838D01*
G01X19479736Y-267426D01*
G01X19468306Y-278856D01*
G01X19462464Y-296128D01*
G01X19462464Y-307558D01*
G01X19468306Y-324576D01*
G01X19479736Y-336006D01*
G01X19491166Y-341848D01*
G01X19508184Y-341848D01*
G01X19519614Y-336006D01*
G01X19531044Y-324576D01*
G01X20422475Y-221706D02*
G01X20468195Y-341848D01*
G01X20513915Y-221706D02*
G01X20468195Y-341848D01*
G01X20561667Y-221706D02*
G01X20567509Y-227548D01*
G01X20573097Y-221706D01*
G01X20567509Y-216118D01*
G01X20561667Y-221706D01*
G01X20567509Y-261838D02*
G01X20567509Y-341848D01*
G01X20689429Y-261838D02*
G01X20689429Y-341848D01*
G01X20689429Y-278856D02*
G01X20677999Y-267426D01*
G01X20666569Y-261838D01*
G01X20649551Y-261838D01*
G01X20638121Y-267426D01*
G01X20626691Y-278856D01*
G01X20620849Y-296128D01*
G01X20620849Y-307558D01*
G01X20626691Y-324576D01*
G01X20638121Y-336006D01*
G01X20649551Y-341848D01*
G01X20666569Y-341848D01*
G01X20677999Y-336006D01*
G01X20689429Y-324576D01*
G01X20840051Y-198846D02*
G01X20737181Y-381726D01*
G01X20887803Y-221706D02*
G01X20887803Y-341848D01*
G01X20887803Y-221706D02*
G01X20939365Y-221706D01*
G01X20956383Y-227548D01*
G01X20962225Y-233136D01*
G01X20967813Y-244566D01*
G01X20967813Y-261838D01*
G01X20962225Y-273268D01*
G01X20956383Y-278856D01*
G01X20939365Y-284698D01*
G01X20887803Y-284698D01*
G01X21084145Y-261838D02*
G01X21084145Y-341848D01*
G01X21084145Y-278856D02*
G01X21072715Y-267426D01*
G01X21061285Y-261838D01*
G01X21044267Y-261838D01*
G01X21032837Y-267426D01*
G01X21021407Y-278856D01*
G01X21015565Y-296128D01*
G01X21015565Y-307558D01*
G01X21021407Y-324576D01*
G01X21032837Y-336006D01*
G01X21044267Y-341848D01*
G01X21061285Y-341848D01*
G01X21072715Y-336006D01*
G01X21084145Y-324576D01*
G01X21200477Y-221706D02*
G01X21200477Y-341848D01*
G01X21200477Y-278856D02*
G01X21189047Y-267426D01*
G01X21177617Y-261838D01*
G01X21160599Y-261838D01*
G01X21149169Y-267426D01*
G01X21137739Y-278856D01*
G01X21131897Y-296128D01*
G01X21131897Y-307558D01*
G01X21137739Y-324576D01*
G01X21149169Y-336006D01*
G01X21160599Y-341848D01*
G01X21177617Y-341848D01*
G01X21189047Y-336006D01*
G01X21200477Y-324576D01*
G01X22091654Y-221706D02*
G01X22091654Y-341848D01*
G01X22091654Y-221706D02*
G01X22143216Y-221706D01*
G01X22160234Y-227548D01*
G01X22166076Y-233136D01*
G01X22171664Y-244566D01*
G01X22171664Y-261838D01*
G01X22166076Y-273268D01*
G01X22160234Y-278856D01*
G01X22143216Y-284698D01*
G01X22091654Y-284698D01*
G01X22287996Y-261838D02*
G01X22287996Y-341848D01*
G01X22287996Y-278856D02*
G01X22276566Y-267426D01*
G01X22265136Y-261838D01*
G01X22248118Y-261838D01*
G01X22236688Y-267426D01*
G01X22225258Y-278856D01*
G01X22219416Y-296128D01*
G01X22219416Y-307558D01*
G01X22225258Y-324576D01*
G01X22236688Y-336006D01*
G01X22248118Y-341848D01*
G01X22265136Y-341848D01*
G01X22276566Y-336006D01*
G01X22287996Y-324576D01*
G01X22404328Y-221706D02*
G01X22404328Y-341848D01*
G01X22404328Y-278856D02*
G01X22392898Y-267426D01*
G01X22381468Y-261838D01*
G01X22364450Y-261838D01*
G01X22353020Y-267426D01*
G01X22341590Y-278856D01*
G01X22335748Y-296128D01*
G01X22335748Y-307558D01*
G01X22341590Y-324576D01*
G01X22353020Y-336006D01*
G01X22364450Y-341848D01*
G01X22381468Y-341848D01*
G01X22392898Y-336006D01*
G01X22404328Y-324576D01*
G01X22660106Y-238978D02*
G01X22648676Y-227548D01*
G01X22631658Y-221706D01*
G01X22608798Y-221706D01*
G01X22591526Y-227548D01*
G01X22580096Y-238978D01*
G01X22580096Y-250408D01*
G01X22585938Y-261838D01*
G01X22591526Y-267426D01*
G01X22602956Y-273268D01*
G01X22637246Y-284698D01*
G01X22648676Y-290286D01*
G01X22654518Y-296128D01*
G01X22660106Y-307558D01*
G01X22660106Y-324576D01*
G01X22648676Y-336006D01*
G01X22631658Y-341848D01*
G01X22608798Y-341848D01*
G01X22591526Y-336006D01*
G01X22580096Y-324576D01*
G01X22707858Y-221706D02*
G01X22707858Y-341848D01*
G01X22707858Y-284698D02*
G01X22725130Y-267426D01*
G01X22736560Y-261838D01*
G01X22753578Y-261838D01*
G01X22765008Y-267426D01*
G01X22770850Y-284698D01*
G01X22770850Y-341848D01*
G01X22887182Y-261838D02*
G01X22887182Y-341848D01*
G01X22887182Y-278856D02*
G01X22875752Y-267426D01*
G01X22864322Y-261838D01*
G01X22847304Y-261838D01*
G01X22835874Y-267426D01*
G01X22824444Y-278856D01*
G01X22818602Y-296128D01*
G01X22818602Y-307558D01*
G01X22824444Y-324576D01*
G01X22835874Y-336006D01*
G01X22847304Y-341848D01*
G01X22864322Y-341848D01*
G01X22875752Y-336006D01*
G01X22887182Y-324576D01*
G01X22934934Y-261838D02*
G01X22934934Y-381726D01*
G01X22934934Y-278856D02*
G01X22946364Y-267426D01*
G01X22957794Y-261838D01*
G01X22975066Y-261838D01*
G01X22986496Y-267426D01*
G01X22997926Y-278856D01*
G01X23003514Y-296128D01*
G01X23003514Y-307558D01*
G01X22997926Y-324576D01*
G01X22986496Y-336006D01*
G01X22975066Y-341848D01*
G01X22957794Y-341848D01*
G01X22946364Y-336006D01*
G01X22934934Y-324576D01*
G01X23051266Y-296128D02*
G01X23119846Y-296128D01*
G01X23119846Y-284698D01*
G01X23114258Y-273268D01*
G01X23108416Y-267426D01*
G01X23096986Y-261838D01*
G01X23079968Y-261838D01*
G01X23068538Y-267426D01*
G01X23057108Y-278856D01*
G01X23051266Y-296128D01*
G01X23051266Y-307558D01*
G01X23057108Y-324576D01*
G01X23068538Y-336006D01*
G01X23079968Y-341848D01*
G01X23096986Y-341848D01*
G01X23108416Y-336006D01*
G01X23119846Y-324576D01*
G01X24011023Y-221706D02*
G01X24011023Y-341848D01*
G01X24011023Y-341848D02*
G01X24079603Y-341848D01*
G01X24195935Y-261838D02*
G01X24195935Y-341848D01*
G01X24195935Y-278856D02*
G01X24184505Y-267426D01*
G01X24173075Y-261838D01*
G01X24156057Y-261838D01*
G01X24144627Y-267426D01*
G01X24133197Y-278856D01*
G01X24127355Y-296128D01*
G01X24127355Y-307558D01*
G01X24133197Y-324576D01*
G01X24144627Y-336006D01*
G01X24156057Y-341848D01*
G01X24173075Y-341848D01*
G01X24184505Y-336006D01*
G01X24195935Y-324576D01*
G01X24249529Y-261838D02*
G01X24283819Y-341848D01*
G01X24318109Y-261838D02*
G01X24283819Y-341848D01*
G01X24272389Y-364708D01*
G01X24260959Y-376138D01*
G01X24249529Y-381726D01*
G01X24243687Y-381726D01*
G01X24365861Y-296128D02*
G01X24434441Y-296128D01*
G01X24434441Y-284698D01*
G01X24428853Y-273268D01*
G01X24423011Y-267426D01*
G01X24411581Y-261838D01*
G01X24394563Y-261838D01*
G01X24383133Y-267426D01*
G01X24371703Y-278856D01*
G01X24365861Y-296128D01*
G01X24365861Y-307558D01*
G01X24371703Y-324576D01*
G01X24383133Y-336006D01*
G01X24394563Y-341848D01*
G01X24411581Y-341848D01*
G01X24423011Y-336006D01*
G01X24434441Y-324576D01*
G01X24482193Y-261838D02*
G01X24482193Y-341848D01*
G01X24482193Y-296128D02*
G01X24488035Y-278856D01*
G01X24499465Y-267426D01*
G01X24510895Y-261838D01*
G01X24527913Y-261838D01*
G01X24703681Y-221706D02*
G01X24703681Y-341848D01*
G01X24703681Y-221706D02*
G01X24755243Y-221706D01*
G01X24772261Y-227548D01*
G01X24778103Y-233136D01*
G01X24783691Y-244566D01*
G01X24783691Y-261838D01*
G01X24778103Y-273268D01*
G01X24772261Y-278856D01*
G01X24755243Y-284698D01*
G01X24703681Y-284698D01*
G01X24900023Y-261838D02*
G01X24900023Y-341848D01*
G01X24900023Y-278856D02*
G01X24888593Y-267426D01*
G01X24877163Y-261838D01*
G01X24860145Y-261838D01*
G01X24848715Y-267426D01*
G01X24837285Y-278856D01*
G01X24831443Y-296128D01*
G01X24831443Y-307558D01*
G01X24837285Y-324576D01*
G01X24848715Y-336006D01*
G01X24860145Y-341848D01*
G01X24877163Y-341848D01*
G01X24888593Y-336006D01*
G01X24900023Y-324576D01*
G01X24947775Y-221706D02*
G01X24953617Y-227548D01*
G01X24959205Y-221706D01*
G01X24953617Y-216118D01*
G01X24947775Y-221706D01*
G01X24953617Y-261838D02*
G01X24953617Y-341848D01*
G01X25006957Y-261838D02*
G01X25006957Y-341848D01*
G01X25006957Y-296128D02*
G01X25012799Y-278856D01*
G01X25024229Y-267426D01*
G01X25035659Y-261838D01*
G01X25052677Y-261838D01*
G01X12063516Y-830979D02*
G01X12063516Y-825137D01*
G01X12069104Y-813707D01*
G01X12074946Y-808119D01*
G01X12086376Y-802277D01*
G01X12109236Y-802277D01*
G01X12120666Y-808119D01*
G01X12126254Y-813707D01*
G01X12132096Y-825137D01*
G01X12132096Y-836567D01*
G01X12126254Y-847997D01*
G01X12114824Y-865269D01*
G01X12057674Y-922419D01*
G01X12137684Y-922419D01*
G01X13477679Y-830979D02*
G01X13477679Y-825137D01*
G01X13483267Y-813707D01*
G01X13489109Y-808119D01*
G01X13500539Y-802277D01*
G01X13523399Y-802277D01*
G01X13534829Y-808119D01*
G01X13540417Y-813707D01*
G01X13546259Y-825137D01*
G01X13546259Y-836567D01*
G01X13540417Y-847997D01*
G01X13528987Y-865269D01*
G01X13471837Y-922419D01*
G01X13551847Y-922419D01*
G01X13611029Y-802277D02*
G01X13674021Y-802277D01*
G01X13639731Y-847997D01*
G01X13656749Y-847997D01*
G01X13668179Y-853839D01*
G01X13674021Y-859427D01*
G01X13679609Y-876699D01*
G01X13679609Y-888129D01*
G01X13674021Y-905147D01*
G01X13662591Y-916577D01*
G01X13645319Y-922419D01*
G01X13628301Y-922419D01*
G01X13611029Y-916577D01*
G01X13605441Y-910989D01*
G01X13599599Y-899559D01*
G01X13733203Y-893717D02*
G01X13727361Y-899559D01*
G01X13733203Y-905147D01*
G01X13738791Y-899559D01*
G01X13733203Y-893717D01*
G01X13855123Y-819549D02*
G01X13849535Y-808119D01*
G01X13832263Y-802277D01*
G01X13820833Y-802277D01*
G01X13803815Y-808119D01*
G01X13792385Y-825137D01*
G01X13786543Y-853839D01*
G01X13786543Y-882287D01*
G01X13792385Y-905147D01*
G01X13803815Y-916577D01*
G01X13820833Y-922419D01*
G01X13826675Y-922419D01*
G01X13843693Y-916577D01*
G01X13855123Y-905147D01*
G01X13860965Y-888129D01*
G01X13860965Y-882287D01*
G01X13855123Y-865269D01*
G01X13843693Y-853839D01*
G01X13826675Y-847997D01*
G01X13820833Y-847997D01*
G01X13803815Y-853839D01*
G01X13792385Y-865269D01*
G01X13786543Y-882287D01*
G01X13908717Y-842409D02*
G01X13971709Y-922419D01*
G01X13971709Y-842409D02*
G01X13908717Y-922419D01*
G01X14088041Y-802277D02*
G01X14030891Y-802277D01*
G01X14025303Y-853839D01*
G01X14030891Y-847997D01*
G01X14048163Y-842409D01*
G01X14065181Y-842409D01*
G01X14082453Y-847997D01*
G01X14093883Y-859427D01*
G01X14099471Y-876699D01*
G01X14099471Y-888129D01*
G01X14093883Y-905147D01*
G01X14082453Y-916577D01*
G01X14065181Y-922419D01*
G01X14048163Y-922419D01*
G01X14030891Y-916577D01*
G01X14025303Y-910989D01*
G01X14019461Y-899559D01*
G01X14221645Y-842409D02*
G01X14215803Y-859427D01*
G01X14204373Y-870857D01*
G01X14187355Y-876699D01*
G01X14181513Y-876699D01*
G01X14164495Y-870857D01*
G01X14153065Y-859427D01*
G01X14147223Y-842409D01*
G01X14147223Y-836567D01*
G01X14153065Y-819549D01*
G01X14164495Y-808119D01*
G01X14181513Y-802277D01*
G01X14187355Y-802277D01*
G01X14204373Y-808119D01*
G01X14215803Y-819549D01*
G01X14221645Y-842409D01*
G01X14221645Y-870857D01*
G01X14215803Y-899559D01*
G01X14204373Y-916577D01*
G01X14187355Y-922419D01*
G01X14175925Y-922419D01*
G01X14158653Y-916577D01*
G01X14153065Y-905147D01*
G01X14275239Y-893717D02*
G01X14269397Y-899559D01*
G01X14275239Y-905147D01*
G01X14280827Y-899559D01*
G01X14275239Y-893717D01*
G01X14328579Y-825137D02*
G01X14340009Y-819549D01*
G01X14357281Y-802277D01*
G01X14357281Y-922419D01*
G01X14405033Y-842409D02*
G01X14405033Y-922419D01*
G01X14405033Y-865269D02*
G01X14422305Y-847997D01*
G01X14433735Y-842409D01*
G01X14450753Y-842409D01*
G01X14462183Y-847997D01*
G01X14468025Y-865269D01*
G01X14468025Y-922419D01*
G01X14468025Y-865269D02*
G01X14485043Y-847997D01*
G01X14496473Y-842409D01*
G01X14513745Y-842409D01*
G01X14525175Y-847997D01*
G01X14530763Y-865269D01*
G01X14530763Y-922419D01*
G01X14578515Y-802277D02*
G01X14584357Y-808119D01*
G01X14589945Y-802277D01*
G01X14584357Y-796689D01*
G01X14578515Y-802277D01*
G01X14584357Y-842409D02*
G01X14584357Y-922419D01*
G01X14637697Y-802277D02*
G01X14637697Y-922419D01*
G01X14725581Y-779417D02*
G01X14714151Y-790847D01*
G01X14702721Y-808119D01*
G01X14691291Y-830979D01*
G01X14685449Y-859427D01*
G01X14685449Y-882287D01*
G01X14691291Y-910989D01*
G01X14702721Y-933849D01*
G01X14714151Y-950867D01*
G01X14725581Y-962297D01*
G01X14807623Y-802277D02*
G01X14790605Y-808119D01*
G01X14779175Y-825137D01*
G01X14773333Y-853839D01*
G01X14773333Y-870857D01*
G01X14779175Y-899559D01*
G01X14790605Y-916577D01*
G01X14807623Y-922419D01*
G01X14819053Y-922419D01*
G01X14836325Y-916577D01*
G01X14847755Y-899559D01*
G01X14853343Y-870857D01*
G01X14853343Y-853839D01*
G01X14847755Y-825137D01*
G01X14836325Y-808119D01*
G01X14819053Y-802277D01*
G01X14807623Y-802277D01*
G01X14906937Y-893717D02*
G01X14901095Y-899559D01*
G01X14906937Y-905147D01*
G01X14912525Y-899559D01*
G01X14906937Y-893717D01*
G01X15028857Y-819549D02*
G01X15023269Y-808119D01*
G01X15005997Y-802277D01*
G01X14994567Y-802277D01*
G01X14977549Y-808119D01*
G01X14966119Y-825137D01*
G01X14960277Y-853839D01*
G01X14960277Y-882287D01*
G01X14966119Y-905147D01*
G01X14977549Y-916577D01*
G01X14994567Y-922419D01*
G01X15000409Y-922419D01*
G01X15017427Y-916577D01*
G01X15028857Y-905147D01*
G01X15034699Y-888129D01*
G01X15034699Y-882287D01*
G01X15028857Y-865269D01*
G01X15017427Y-853839D01*
G01X15000409Y-847997D01*
G01X14994567Y-847997D01*
G01X14977549Y-853839D01*
G01X14966119Y-865269D01*
G01X14960277Y-882287D01*
G01X15116741Y-802277D02*
G01X15099723Y-808119D01*
G01X15088293Y-825137D01*
G01X15082451Y-853839D01*
G01X15082451Y-870857D01*
G01X15088293Y-899559D01*
G01X15099723Y-916577D01*
G01X15116741Y-922419D01*
G01X15128171Y-922419D01*
G01X15145443Y-916577D01*
G01X15156873Y-899559D01*
G01X15162461Y-870857D01*
G01X15162461Y-853839D01*
G01X15156873Y-825137D01*
G01X15145443Y-808119D01*
G01X15128171Y-802277D01*
G01X15116741Y-802277D01*
G01X15244503Y-802277D02*
G01X15227485Y-808119D01*
G01X15216055Y-825137D01*
G01X15210213Y-853839D01*
G01X15210213Y-870857D01*
G01X15216055Y-899559D01*
G01X15227485Y-916577D01*
G01X15244503Y-922419D01*
G01X15255933Y-922419D01*
G01X15273205Y-916577D01*
G01X15284635Y-899559D01*
G01X15290223Y-870857D01*
G01X15290223Y-853839D01*
G01X15284635Y-825137D01*
G01X15273205Y-808119D01*
G01X15255933Y-802277D01*
G01X15244503Y-802277D01*
G01X15337975Y-842409D02*
G01X15400967Y-922419D01*
G01X15400967Y-842409D02*
G01X15337975Y-922419D01*
G01X15448719Y-825137D02*
G01X15460149Y-819549D01*
G01X15477421Y-802277D01*
G01X15477421Y-922419D01*
G01X15531015Y-893717D02*
G01X15525173Y-899559D01*
G01X15531015Y-905147D01*
G01X15536603Y-899559D01*
G01X15531015Y-893717D01*
G01X15652935Y-802277D02*
G01X15595785Y-802277D01*
G01X15590197Y-853839D01*
G01X15595785Y-847997D01*
G01X15613057Y-842409D01*
G01X15630075Y-842409D01*
G01X15647347Y-847997D01*
G01X15658777Y-859427D01*
G01X15664365Y-876699D01*
G01X15664365Y-888129D01*
G01X15658777Y-905147D01*
G01X15647347Y-916577D01*
G01X15630075Y-922419D01*
G01X15613057Y-922419D01*
G01X15595785Y-916577D01*
G01X15590197Y-910989D01*
G01X15584355Y-899559D01*
G01X15746407Y-802277D02*
G01X15729389Y-808119D01*
G01X15717959Y-825137D01*
G01X15712117Y-853839D01*
G01X15712117Y-870857D01*
G01X15717959Y-899559D01*
G01X15729389Y-916577D01*
G01X15746407Y-922419D01*
G01X15757837Y-922419D01*
G01X15775109Y-916577D01*
G01X15786539Y-899559D01*
G01X15792127Y-870857D01*
G01X15792127Y-853839D01*
G01X15786539Y-825137D01*
G01X15775109Y-808119D01*
G01X15757837Y-802277D01*
G01X15746407Y-802277D01*
G01X15874169Y-802277D02*
G01X15857151Y-808119D01*
G01X15845721Y-825137D01*
G01X15839879Y-853839D01*
G01X15839879Y-870857D01*
G01X15845721Y-899559D01*
G01X15857151Y-916577D01*
G01X15874169Y-922419D01*
G01X15885599Y-922419D01*
G01X15902871Y-916577D01*
G01X15914301Y-899559D01*
G01X15919889Y-870857D01*
G01X15919889Y-853839D01*
G01X15914301Y-825137D01*
G01X15902871Y-808119D01*
G01X15885599Y-802277D01*
G01X15874169Y-802277D01*
G01X15967641Y-842409D02*
G01X15967641Y-922419D01*
G01X15967641Y-865269D02*
G01X15984913Y-847997D01*
G01X15996343Y-842409D01*
G01X16013361Y-842409D01*
G01X16024791Y-847997D01*
G01X16030633Y-865269D01*
G01X16030633Y-922419D01*
G01X16030633Y-865269D02*
G01X16047651Y-847997D01*
G01X16059081Y-842409D01*
G01X16076353Y-842409D01*
G01X16087783Y-847997D01*
G01X16093371Y-865269D01*
G01X16093371Y-922419D01*
G01X16141123Y-842409D02*
G01X16141123Y-922419D01*
G01X16141123Y-865269D02*
G01X16158395Y-847997D01*
G01X16169825Y-842409D01*
G01X16186843Y-842409D01*
G01X16198273Y-847997D01*
G01X16204115Y-865269D01*
G01X16204115Y-922419D01*
G01X16204115Y-865269D02*
G01X16221133Y-847997D01*
G01X16232563Y-842409D01*
G01X16249835Y-842409D01*
G01X16261265Y-847997D01*
G01X16266853Y-865269D01*
G01X16266853Y-922419D01*
G01X16314605Y-779417D02*
G01X16326035Y-790847D01*
G01X16337465Y-808119D01*
G01X16348895Y-830979D01*
G01X16354737Y-859427D01*
G01X16354737Y-882287D01*
G01X16348895Y-910989D01*
G01X16337465Y-933849D01*
G01X16326035Y-950867D01*
G01X16314605Y-962297D01*
G01X17529887Y-802277D02*
G01X17529887Y-922419D01*
G01X17529887Y-802277D02*
G01X17581449Y-802277D01*
G01X17598467Y-808119D01*
G01X17604309Y-813707D01*
G01X17609897Y-825137D01*
G01X17609897Y-842409D01*
G01X17604309Y-853839D01*
G01X17598467Y-859427D01*
G01X17581449Y-865269D01*
G01X17529887Y-865269D01*
G01X17697781Y-802277D02*
G01X17697781Y-922419D01*
G01X17657649Y-802277D02*
G01X17737659Y-802277D01*
G01X17785411Y-802277D02*
G01X17785411Y-922419D01*
G01X17865421Y-802277D02*
G01X17865421Y-922419D01*
G01X17785411Y-859427D02*
G01X17865421Y-859427D01*
G01X19071304Y-819549D02*
G01X19059874Y-808119D01*
G01X19042856Y-802277D01*
G01X19019996Y-802277D01*
G01X19002724Y-808119D01*
G01X18991294Y-819549D01*
G01X18991294Y-830979D01*
G01X18997136Y-842409D01*
G01X19002724Y-847997D01*
G01X19014154Y-853839D01*
G01X19048444Y-865269D01*
G01X19059874Y-870857D01*
G01X19065716Y-876699D01*
G01X19071304Y-888129D01*
G01X19071304Y-905147D01*
G01X19059874Y-916577D01*
G01X19042856Y-922419D01*
G01X19019996Y-922419D01*
G01X19002724Y-916577D01*
G01X18991294Y-905147D01*
G01X19119056Y-802277D02*
G01X19119056Y-922419D01*
G01X19195510Y-842409D02*
G01X19184080Y-847997D01*
G01X19172650Y-859427D01*
G01X19166808Y-876699D01*
G01X19166808Y-888129D01*
G01X19172650Y-905147D01*
G01X19184080Y-916577D01*
G01X19195510Y-922419D01*
G01X19212528Y-922419D01*
G01X19223958Y-916577D01*
G01X19235388Y-905147D01*
G01X19241230Y-888129D01*
G01X19241230Y-876699D01*
G01X19235388Y-859427D01*
G01X19223958Y-847997D01*
G01X19212528Y-842409D01*
G01X19195510Y-842409D01*
G01X19306254Y-802277D02*
G01X19306254Y-899559D01*
G01X19311842Y-916577D01*
G01X19323272Y-922419D01*
G01X19334702Y-922419D01*
G01X19288982Y-842409D02*
G01X19329114Y-842409D01*
G01X20422475Y-802277D02*
G01X20422475Y-922419D01*
G01X20422475Y-802277D02*
G01X20474037Y-802277D01*
G01X20491055Y-808119D01*
G01X20496897Y-813707D01*
G01X20502485Y-825137D01*
G01X20502485Y-842409D01*
G01X20496897Y-853839D01*
G01X20491055Y-859427D01*
G01X20474037Y-865269D01*
G01X20422475Y-865269D01*
G01X20618817Y-842409D02*
G01X20618817Y-922419D01*
G01X20618817Y-859427D02*
G01X20607387Y-847997D01*
G01X20595957Y-842409D01*
G01X20578939Y-842409D01*
G01X20567509Y-847997D01*
G01X20556079Y-859427D01*
G01X20550237Y-876699D01*
G01X20550237Y-888129D01*
G01X20556079Y-905147D01*
G01X20567509Y-916577D01*
G01X20578939Y-922419D01*
G01X20595957Y-922419D01*
G01X20607387Y-916577D01*
G01X20618817Y-905147D01*
G01X20735149Y-802277D02*
G01X20735149Y-922419D01*
G01X20735149Y-859427D02*
G01X20723719Y-847997D01*
G01X20712289Y-842409D01*
G01X20695271Y-842409D01*
G01X20683841Y-847997D01*
G01X20672411Y-859427D01*
G01X20666569Y-876699D01*
G01X20666569Y-888129D01*
G01X20672411Y-905147D01*
G01X20683841Y-916577D01*
G01X20695271Y-922419D01*
G01X20712289Y-922419D01*
G01X20723719Y-916577D01*
G01X20735149Y-905147D01*
G01X22125944Y-802277D02*
G01X22114514Y-808119D01*
G01X22103084Y-819549D01*
G01X22097496Y-830979D01*
G01X22091654Y-847997D01*
G01X22091654Y-876699D01*
G01X22097496Y-893717D01*
G01X22103084Y-905147D01*
G01X22114514Y-916577D01*
G01X22125944Y-922419D01*
G01X22148804Y-922419D01*
G01X22160234Y-916577D01*
G01X22171664Y-905147D01*
G01X22177506Y-893717D01*
G01X22183094Y-876699D01*
G01X22183094Y-847997D01*
G01X22177506Y-830979D01*
G01X22171664Y-819549D01*
G01X22160234Y-808119D01*
G01X22148804Y-802277D01*
G01X22125944Y-802277D01*
G01X22230846Y-842409D02*
G01X22265136Y-922419D01*
G01X22299426Y-842409D02*
G01X22265136Y-922419D01*
G01X22415758Y-842409D02*
G01X22415758Y-922419D01*
G01X22415758Y-859427D02*
G01X22404328Y-847997D01*
G01X22392898Y-842409D01*
G01X22375880Y-842409D01*
G01X22364450Y-847997D01*
G01X22353020Y-859427D01*
G01X22347178Y-876699D01*
G01X22347178Y-888129D01*
G01X22353020Y-905147D01*
G01X22364450Y-916577D01*
G01X22375880Y-922419D01*
G01X22392898Y-922419D01*
G01X22404328Y-916577D01*
G01X22415758Y-905147D01*
G01X22463510Y-802277D02*
G01X22463510Y-922419D01*
G01X24051155Y-802277D02*
G01X24051155Y-922419D01*
G01X24011023Y-802277D02*
G01X24091033Y-802277D01*
G01X24167487Y-842409D02*
G01X24156057Y-847997D01*
G01X24144627Y-859427D01*
G01X24138785Y-876699D01*
G01X24138785Y-888129D01*
G01X24144627Y-905147D01*
G01X24156057Y-916577D01*
G01X24167487Y-922419D01*
G01X24184505Y-922419D01*
G01X24195935Y-916577D01*
G01X24207365Y-905147D01*
G01X24213207Y-888129D01*
G01X24213207Y-876699D01*
G01X24207365Y-859427D01*
G01X24195935Y-847997D01*
G01X24184505Y-842409D01*
G01X24167487Y-842409D01*
G01X24260959Y-842409D02*
G01X24260959Y-962297D01*
G01X24260959Y-859427D02*
G01X24272389Y-847997D01*
G01X24283819Y-842409D01*
G01X24301091Y-842409D01*
G01X24312521Y-847997D01*
G01X24323951Y-859427D01*
G01X24329539Y-876699D01*
G01X24329539Y-888129D01*
G01X24323951Y-905147D01*
G01X24312521Y-916577D01*
G01X24301091Y-922419D01*
G01X24283819Y-922419D01*
G01X24272389Y-916577D01*
G01X24260959Y-905147D01*
G01X24505307Y-802277D02*
G01X24505307Y-922419D01*
G01X24505307Y-922419D02*
G01X24573887Y-922419D01*
G01X24690219Y-842409D02*
G01X24690219Y-922419D01*
G01X24690219Y-859427D02*
G01X24678789Y-847997D01*
G01X24667359Y-842409D01*
G01X24650341Y-842409D01*
G01X24638911Y-847997D01*
G01X24627481Y-859427D01*
G01X24621639Y-876699D01*
G01X24621639Y-888129D01*
G01X24627481Y-905147D01*
G01X24638911Y-916577D01*
G01X24650341Y-922419D01*
G01X24667359Y-922419D01*
G01X24678789Y-916577D01*
G01X24690219Y-905147D01*
G01X24743813Y-842409D02*
G01X24778103Y-922419D01*
G01X24812393Y-842409D02*
G01X24778103Y-922419D01*
G01X24766673Y-945279D01*
G01X24755243Y-956709D01*
G01X24743813Y-962297D01*
G01X24737971Y-962297D01*
G01X24860145Y-876699D02*
G01X24928725Y-876699D01*
G01X24928725Y-865269D01*
G01X24923137Y-853839D01*
G01X24917295Y-847997D01*
G01X24905865Y-842409D01*
G01X24888847Y-842409D01*
G01X24877417Y-847997D01*
G01X24865987Y-859427D01*
G01X24860145Y-876699D01*
G01X24860145Y-888129D01*
G01X24865987Y-905147D01*
G01X24877417Y-916577D01*
G01X24888847Y-922419D01*
G01X24905865Y-922419D01*
G01X24917295Y-916577D01*
G01X24928725Y-905147D01*
G01X24976477Y-842409D02*
G01X24976477Y-922419D01*
G01X24976477Y-876699D02*
G01X24982319Y-859427D01*
G01X24993749Y-847997D01*
G01X25005179Y-842409D01*
G01X25022197Y-842409D01*
G01X25069949Y-870857D02*
G01X25172819Y-870857D01*
G01X25220571Y-802277D02*
G01X25220571Y-922419D01*
G01X25220571Y-802277D02*
G01X25272133Y-802277D01*
G01X25289151Y-808119D01*
G01X25294993Y-813707D01*
G01X25300581Y-825137D01*
G01X25300581Y-836567D01*
G01X25294993Y-847997D01*
G01X25289151Y-853839D01*
G01X25272133Y-859427D01*
G01X25220571Y-859427D02*
G01X25272133Y-859427D01*
G01X25289151Y-865269D01*
G01X25294993Y-870857D01*
G01X25300581Y-882287D01*
G01X25300581Y-899559D01*
G01X25294993Y-910989D01*
G01X25289151Y-916577D01*
G01X25272133Y-922419D01*
G01X25220571Y-922419D01*
G01X25377035Y-842409D02*
G01X25365605Y-847997D01*
G01X25354175Y-859427D01*
G01X25348333Y-876699D01*
G01X25348333Y-888129D01*
G01X25354175Y-905147D01*
G01X25365605Y-916577D01*
G01X25377035Y-922419D01*
G01X25394053Y-922419D01*
G01X25405483Y-916577D01*
G01X25416913Y-905147D01*
G01X25422755Y-888129D01*
G01X25422755Y-876699D01*
G01X25416913Y-859427D01*
G01X25405483Y-847997D01*
G01X25394053Y-842409D01*
G01X25377035Y-842409D01*
G01X25487779Y-802277D02*
G01X25487779Y-899559D01*
G01X25493367Y-916577D01*
G01X25504797Y-922419D01*
G01X25516227Y-922419D01*
G01X25470507Y-842409D02*
G01X25510639Y-842409D01*
G01X25581251Y-802277D02*
G01X25581251Y-899559D01*
G01X25586839Y-916577D01*
G01X25598269Y-922419D01*
G01X25609699Y-922419D01*
G01X25563979Y-842409D02*
G01X25604111Y-842409D01*
G01X25686153Y-842409D02*
G01X25674723Y-847997D01*
G01X25663293Y-859427D01*
G01X25657451Y-876699D01*
G01X25657451Y-888129D01*
G01X25663293Y-905147D01*
G01X25674723Y-916577D01*
G01X25686153Y-922419D01*
G01X25703171Y-922419D01*
G01X25714601Y-916577D01*
G01X25726031Y-905147D01*
G01X25731873Y-888129D01*
G01X25731873Y-876699D01*
G01X25726031Y-859427D01*
G01X25714601Y-847997D01*
G01X25703171Y-842409D01*
G01X25686153Y-842409D01*
G01X25779625Y-842409D02*
G01X25779625Y-922419D01*
G01X25779625Y-865269D02*
G01X25796897Y-847997D01*
G01X25808327Y-842409D01*
G01X25825345Y-842409D01*
G01X25836775Y-847997D01*
G01X25842617Y-865269D01*
G01X25842617Y-922419D01*
G01X25842617Y-865269D02*
G01X25859635Y-847997D01*
G01X25871065Y-842409D01*
G01X25888337Y-842409D01*
G01X25899767Y-847997D01*
G01X25905355Y-865269D01*
G01X25905355Y-922419D01*
G01X26081123Y-802277D02*
G01X26081123Y-922419D01*
G01X26081123Y-922419D02*
G01X26149703Y-922419D01*
G01X26266035Y-842409D02*
G01X26266035Y-922419D01*
G01X26266035Y-859427D02*
G01X26254605Y-847997D01*
G01X26243175Y-842409D01*
G01X26226157Y-842409D01*
G01X26214727Y-847997D01*
G01X26203297Y-859427D01*
G01X26197455Y-876699D01*
G01X26197455Y-888129D01*
G01X26203297Y-905147D01*
G01X26214727Y-916577D01*
G01X26226157Y-922419D01*
G01X26243175Y-922419D01*
G01X26254605Y-916577D01*
G01X26266035Y-905147D01*
G01X26319629Y-842409D02*
G01X26353919Y-922419D01*
G01X26388209Y-842409D02*
G01X26353919Y-922419D01*
G01X26342489Y-945279D01*
G01X26331059Y-956709D01*
G01X26319629Y-962297D01*
G01X26313787Y-962297D01*
G01X26435961Y-876699D02*
G01X26504541Y-876699D01*
G01X26504541Y-865269D01*
G01X26498953Y-853839D01*
G01X26493111Y-847997D01*
G01X26481681Y-842409D01*
G01X26464663Y-842409D01*
G01X26453233Y-847997D01*
G01X26441803Y-859427D01*
G01X26435961Y-876699D01*
G01X26435961Y-888129D01*
G01X26441803Y-905147D01*
G01X26453233Y-916577D01*
G01X26464663Y-922419D01*
G01X26481681Y-922419D01*
G01X26493111Y-916577D01*
G01X26504541Y-905147D01*
G01X26552293Y-842409D02*
G01X26552293Y-922419D01*
G01X26552293Y-876699D02*
G01X26558135Y-859427D01*
G01X26569565Y-847997D01*
G01X26580995Y-842409D01*
G01X26598013Y-842409D01*
G01X12063516Y-1411551D02*
G01X12063516Y-1405709D01*
G01X12069104Y-1394279D01*
G01X12074946Y-1388691D01*
G01X12086376Y-1382849D01*
G01X12109236Y-1382849D01*
G01X12120666Y-1388691D01*
G01X12126254Y-1394279D01*
G01X12132096Y-1405709D01*
G01X12132096Y-1417139D01*
G01X12126254Y-1428569D01*
G01X12114824Y-1445841D01*
G01X12057674Y-1502991D01*
G01X12137684Y-1502991D01*
G01X13477679Y-1411551D02*
G01X13477679Y-1405709D01*
G01X13483267Y-1394279D01*
G01X13489109Y-1388691D01*
G01X13500539Y-1382849D01*
G01X13523399Y-1382849D01*
G01X13534829Y-1388691D01*
G01X13540417Y-1394279D01*
G01X13546259Y-1405709D01*
G01X13546259Y-1417139D01*
G01X13540417Y-1428569D01*
G01X13528987Y-1445841D01*
G01X13471837Y-1502991D01*
G01X13551847Y-1502991D01*
G01X13611029Y-1382849D02*
G01X13674021Y-1382849D01*
G01X13639731Y-1428569D01*
G01X13656749Y-1428569D01*
G01X13668179Y-1434411D01*
G01X13674021Y-1439999D01*
G01X13679609Y-1457271D01*
G01X13679609Y-1468701D01*
G01X13674021Y-1485719D01*
G01X13662591Y-1497149D01*
G01X13645319Y-1502991D01*
G01X13628301Y-1502991D01*
G01X13611029Y-1497149D01*
G01X13605441Y-1491561D01*
G01X13599599Y-1480131D01*
G01X13733203Y-1474289D02*
G01X13727361Y-1480131D01*
G01X13733203Y-1485719D01*
G01X13738791Y-1480131D01*
G01X13733203Y-1474289D01*
G01X13855123Y-1400121D02*
G01X13849535Y-1388691D01*
G01X13832263Y-1382849D01*
G01X13820833Y-1382849D01*
G01X13803815Y-1388691D01*
G01X13792385Y-1405709D01*
G01X13786543Y-1434411D01*
G01X13786543Y-1462859D01*
G01X13792385Y-1485719D01*
G01X13803815Y-1497149D01*
G01X13820833Y-1502991D01*
G01X13826675Y-1502991D01*
G01X13843693Y-1497149D01*
G01X13855123Y-1485719D01*
G01X13860965Y-1468701D01*
G01X13860965Y-1462859D01*
G01X13855123Y-1445841D01*
G01X13843693Y-1434411D01*
G01X13826675Y-1428569D01*
G01X13820833Y-1428569D01*
G01X13803815Y-1434411D01*
G01X13792385Y-1445841D01*
G01X13786543Y-1462859D01*
G01X13908717Y-1422981D02*
G01X13971709Y-1502991D01*
G01X13971709Y-1422981D02*
G01X13908717Y-1502991D01*
G01X14076611Y-1382849D02*
G01X14019461Y-1462859D01*
G01X14105313Y-1462859D01*
G01X14076611Y-1382849D02*
G01X14076611Y-1502991D01*
G01X14233075Y-1382849D02*
G01X14175925Y-1502991D01*
G01X14153065Y-1382849D02*
G01X14233075Y-1382849D01*
G01X14286669Y-1474289D02*
G01X14280827Y-1480131D01*
G01X14286669Y-1485719D01*
G01X14292257Y-1480131D01*
G01X14286669Y-1474289D01*
G01X14345851Y-1411551D02*
G01X14345851Y-1405709D01*
G01X14351439Y-1394279D01*
G01X14357281Y-1388691D01*
G01X14368711Y-1382849D01*
G01X14391571Y-1382849D01*
G01X14403001Y-1388691D01*
G01X14408589Y-1394279D01*
G01X14414431Y-1405709D01*
G01X14414431Y-1417139D01*
G01X14408589Y-1428569D01*
G01X14397159Y-1445841D01*
G01X14340009Y-1502991D01*
G01X14420019Y-1502991D01*
G01X14467771Y-1422981D02*
G01X14467771Y-1502991D01*
G01X14467771Y-1445841D02*
G01X14485043Y-1428569D01*
G01X14496473Y-1422981D01*
G01X14513491Y-1422981D01*
G01X14524921Y-1428569D01*
G01X14530763Y-1445841D01*
G01X14530763Y-1502991D01*
G01X14530763Y-1445841D02*
G01X14547781Y-1428569D01*
G01X14559211Y-1422981D01*
G01X14576483Y-1422981D01*
G01X14587913Y-1428569D01*
G01X14593501Y-1445841D01*
G01X14593501Y-1502991D01*
G01X14641253Y-1382849D02*
G01X14647095Y-1388691D01*
G01X14652683Y-1382849D01*
G01X14647095Y-1377261D01*
G01X14641253Y-1382849D01*
G01X14647095Y-1422981D02*
G01X14647095Y-1502991D01*
G01X14700435Y-1382849D02*
G01X14700435Y-1502991D01*
G01X14788319Y-1359989D02*
G01X14776889Y-1371419D01*
G01X14765459Y-1388691D01*
G01X14754029Y-1411551D01*
G01X14748187Y-1439999D01*
G01X14748187Y-1462859D01*
G01X14754029Y-1491561D01*
G01X14765459Y-1514421D01*
G01X14776889Y-1531439D01*
G01X14788319Y-1542869D01*
G01X14870361Y-1382849D02*
G01X14853343Y-1388691D01*
G01X14841913Y-1405709D01*
G01X14836071Y-1434411D01*
G01X14836071Y-1451429D01*
G01X14841913Y-1480131D01*
G01X14853343Y-1497149D01*
G01X14870361Y-1502991D01*
G01X14881791Y-1502991D01*
G01X14899063Y-1497149D01*
G01X14910493Y-1480131D01*
G01X14916081Y-1451429D01*
G01X14916081Y-1434411D01*
G01X14910493Y-1405709D01*
G01X14899063Y-1388691D01*
G01X14881791Y-1382849D01*
G01X14870361Y-1382849D01*
G01X14969675Y-1474289D02*
G01X14963833Y-1480131D01*
G01X14969675Y-1485719D01*
G01X14975263Y-1480131D01*
G01X14969675Y-1474289D01*
G01X15091595Y-1400121D02*
G01X15086007Y-1388691D01*
G01X15068735Y-1382849D01*
G01X15057305Y-1382849D01*
G01X15040287Y-1388691D01*
G01X15028857Y-1405709D01*
G01X15023015Y-1434411D01*
G01X15023015Y-1462859D01*
G01X15028857Y-1485719D01*
G01X15040287Y-1497149D01*
G01X15057305Y-1502991D01*
G01X15063147Y-1502991D01*
G01X15080165Y-1497149D01*
G01X15091595Y-1485719D01*
G01X15097437Y-1468701D01*
G01X15097437Y-1462859D01*
G01X15091595Y-1445841D01*
G01X15080165Y-1434411D01*
G01X15063147Y-1428569D01*
G01X15057305Y-1428569D01*
G01X15040287Y-1434411D01*
G01X15028857Y-1445841D01*
G01X15023015Y-1462859D01*
G01X15179479Y-1382849D02*
G01X15162461Y-1388691D01*
G01X15151031Y-1405709D01*
G01X15145189Y-1434411D01*
G01X15145189Y-1451429D01*
G01X15151031Y-1480131D01*
G01X15162461Y-1497149D01*
G01X15179479Y-1502991D01*
G01X15190909Y-1502991D01*
G01X15208181Y-1497149D01*
G01X15219611Y-1480131D01*
G01X15225199Y-1451429D01*
G01X15225199Y-1434411D01*
G01X15219611Y-1405709D01*
G01X15208181Y-1388691D01*
G01X15190909Y-1382849D01*
G01X15179479Y-1382849D01*
G01X15307241Y-1382849D02*
G01X15290223Y-1388691D01*
G01X15278793Y-1405709D01*
G01X15272951Y-1434411D01*
G01X15272951Y-1451429D01*
G01X15278793Y-1480131D01*
G01X15290223Y-1497149D01*
G01X15307241Y-1502991D01*
G01X15318671Y-1502991D01*
G01X15335943Y-1497149D01*
G01X15347373Y-1480131D01*
G01X15352961Y-1451429D01*
G01X15352961Y-1434411D01*
G01X15347373Y-1405709D01*
G01X15335943Y-1388691D01*
G01X15318671Y-1382849D01*
G01X15307241Y-1382849D01*
G01X15400713Y-1422981D02*
G01X15463705Y-1502991D01*
G01X15463705Y-1422981D02*
G01X15400713Y-1502991D01*
G01X15511457Y-1405709D02*
G01X15522887Y-1400121D01*
G01X15540159Y-1382849D01*
G01X15540159Y-1502991D01*
G01X15593753Y-1474289D02*
G01X15587911Y-1480131D01*
G01X15593753Y-1485719D01*
G01X15599341Y-1480131D01*
G01X15593753Y-1474289D01*
G01X15652935Y-1411551D02*
G01X15652935Y-1405709D01*
G01X15658523Y-1394279D01*
G01X15664365Y-1388691D01*
G01X15675795Y-1382849D01*
G01X15698655Y-1382849D01*
G01X15710085Y-1388691D01*
G01X15715673Y-1394279D01*
G01X15721515Y-1405709D01*
G01X15721515Y-1417139D01*
G01X15715673Y-1428569D01*
G01X15704243Y-1445841D01*
G01X15647093Y-1502991D01*
G01X15727103Y-1502991D01*
G01X15809145Y-1382849D02*
G01X15792127Y-1388691D01*
G01X15780697Y-1405709D01*
G01X15774855Y-1434411D01*
G01X15774855Y-1451429D01*
G01X15780697Y-1480131D01*
G01X15792127Y-1497149D01*
G01X15809145Y-1502991D01*
G01X15820575Y-1502991D01*
G01X15837847Y-1497149D01*
G01X15849277Y-1480131D01*
G01X15854865Y-1451429D01*
G01X15854865Y-1434411D01*
G01X15849277Y-1405709D01*
G01X15837847Y-1388691D01*
G01X15820575Y-1382849D01*
G01X15809145Y-1382849D01*
G01X15936907Y-1382849D02*
G01X15919889Y-1388691D01*
G01X15908459Y-1405709D01*
G01X15902617Y-1434411D01*
G01X15902617Y-1451429D01*
G01X15908459Y-1480131D01*
G01X15919889Y-1497149D01*
G01X15936907Y-1502991D01*
G01X15948337Y-1502991D01*
G01X15965609Y-1497149D01*
G01X15977039Y-1480131D01*
G01X15982627Y-1451429D01*
G01X15982627Y-1434411D01*
G01X15977039Y-1405709D01*
G01X15965609Y-1388691D01*
G01X15948337Y-1382849D01*
G01X15936907Y-1382849D01*
G01X16030379Y-1422981D02*
G01X16030379Y-1502991D01*
G01X16030379Y-1445841D02*
G01X16047651Y-1428569D01*
G01X16059081Y-1422981D01*
G01X16076099Y-1422981D01*
G01X16087529Y-1428569D01*
G01X16093371Y-1445841D01*
G01X16093371Y-1502991D01*
G01X16093371Y-1445841D02*
G01X16110389Y-1428569D01*
G01X16121819Y-1422981D01*
G01X16139091Y-1422981D01*
G01X16150521Y-1428569D01*
G01X16156109Y-1445841D01*
G01X16156109Y-1502991D01*
G01X16203861Y-1422981D02*
G01X16203861Y-1502991D01*
G01X16203861Y-1445841D02*
G01X16221133Y-1428569D01*
G01X16232563Y-1422981D01*
G01X16249581Y-1422981D01*
G01X16261011Y-1428569D01*
G01X16266853Y-1445841D01*
G01X16266853Y-1502991D01*
G01X16266853Y-1445841D02*
G01X16283871Y-1428569D01*
G01X16295301Y-1422981D01*
G01X16312573Y-1422981D01*
G01X16324003Y-1428569D01*
G01X16329591Y-1445841D01*
G01X16329591Y-1502991D01*
G01X16377343Y-1359989D02*
G01X16388773Y-1371419D01*
G01X16400203Y-1388691D01*
G01X16411633Y-1411551D01*
G01X16417475Y-1439999D01*
G01X16417475Y-1462859D01*
G01X16411633Y-1491561D01*
G01X16400203Y-1514421D01*
G01X16388773Y-1531439D01*
G01X16377343Y-1542869D01*
G01X17529887Y-1382849D02*
G01X17529887Y-1502991D01*
G01X17529887Y-1382849D02*
G01X17581449Y-1382849D01*
G01X17598467Y-1388691D01*
G01X17604309Y-1394279D01*
G01X17609897Y-1405709D01*
G01X17609897Y-1422981D01*
G01X17604309Y-1434411D01*
G01X17598467Y-1439999D01*
G01X17581449Y-1445841D01*
G01X17529887Y-1445841D01*
G01X17697781Y-1382849D02*
G01X17697781Y-1502991D01*
G01X17657649Y-1382849D02*
G01X17737659Y-1382849D01*
G01X17785411Y-1382849D02*
G01X17785411Y-1502991D01*
G01X17865421Y-1382849D02*
G01X17865421Y-1502991D01*
G01X17785411Y-1439999D02*
G01X17865421Y-1439999D01*
G01X19071304Y-1400121D02*
G01X19059874Y-1388691D01*
G01X19042856Y-1382849D01*
G01X19019996Y-1382849D01*
G01X19002724Y-1388691D01*
G01X18991294Y-1400121D01*
G01X18991294Y-1411551D01*
G01X18997136Y-1422981D01*
G01X19002724Y-1428569D01*
G01X19014154Y-1434411D01*
G01X19048444Y-1445841D01*
G01X19059874Y-1451429D01*
G01X19065716Y-1457271D01*
G01X19071304Y-1468701D01*
G01X19071304Y-1485719D01*
G01X19059874Y-1497149D01*
G01X19042856Y-1502991D01*
G01X19019996Y-1502991D01*
G01X19002724Y-1497149D01*
G01X18991294Y-1485719D01*
G01X19119056Y-1382849D02*
G01X19119056Y-1502991D01*
G01X19195510Y-1422981D02*
G01X19184080Y-1428569D01*
G01X19172650Y-1439999D01*
G01X19166808Y-1457271D01*
G01X19166808Y-1468701D01*
G01X19172650Y-1485719D01*
G01X19184080Y-1497149D01*
G01X19195510Y-1502991D01*
G01X19212528Y-1502991D01*
G01X19223958Y-1497149D01*
G01X19235388Y-1485719D01*
G01X19241230Y-1468701D01*
G01X19241230Y-1457271D01*
G01X19235388Y-1439999D01*
G01X19223958Y-1428569D01*
G01X19212528Y-1422981D01*
G01X19195510Y-1422981D01*
G01X19306254Y-1382849D02*
G01X19306254Y-1480131D01*
G01X19311842Y-1497149D01*
G01X19323272Y-1502991D01*
G01X19334702Y-1502991D01*
G01X19288982Y-1422981D02*
G01X19329114Y-1422981D01*
G01X20422475Y-1382849D02*
G01X20422475Y-1502991D01*
G01X20422475Y-1382849D02*
G01X20474037Y-1382849D01*
G01X20491055Y-1388691D01*
G01X20496897Y-1394279D01*
G01X20502485Y-1405709D01*
G01X20502485Y-1422981D01*
G01X20496897Y-1434411D01*
G01X20491055Y-1439999D01*
G01X20474037Y-1445841D01*
G01X20422475Y-1445841D01*
G01X20618817Y-1422981D02*
G01X20618817Y-1502991D01*
G01X20618817Y-1439999D02*
G01X20607387Y-1428569D01*
G01X20595957Y-1422981D01*
G01X20578939Y-1422981D01*
G01X20567509Y-1428569D01*
G01X20556079Y-1439999D01*
G01X20550237Y-1457271D01*
G01X20550237Y-1468701D01*
G01X20556079Y-1485719D01*
G01X20567509Y-1497149D01*
G01X20578939Y-1502991D01*
G01X20595957Y-1502991D01*
G01X20607387Y-1497149D01*
G01X20618817Y-1485719D01*
G01X20735149Y-1382849D02*
G01X20735149Y-1502991D01*
G01X20735149Y-1439999D02*
G01X20723719Y-1428569D01*
G01X20712289Y-1422981D01*
G01X20695271Y-1422981D01*
G01X20683841Y-1428569D01*
G01X20672411Y-1439999D01*
G01X20666569Y-1457271D01*
G01X20666569Y-1468701D01*
G01X20672411Y-1485719D01*
G01X20683841Y-1497149D01*
G01X20695271Y-1502991D01*
G01X20712289Y-1502991D01*
G01X20723719Y-1497149D01*
G01X20735149Y-1485719D01*
G01X22125944Y-1382849D02*
G01X22114514Y-1388691D01*
G01X22103084Y-1400121D01*
G01X22097496Y-1411551D01*
G01X22091654Y-1428569D01*
G01X22091654Y-1457271D01*
G01X22097496Y-1474289D01*
G01X22103084Y-1485719D01*
G01X22114514Y-1497149D01*
G01X22125944Y-1502991D01*
G01X22148804Y-1502991D01*
G01X22160234Y-1497149D01*
G01X22171664Y-1485719D01*
G01X22177506Y-1474289D01*
G01X22183094Y-1457271D01*
G01X22183094Y-1428569D01*
G01X22177506Y-1411551D01*
G01X22171664Y-1400121D01*
G01X22160234Y-1388691D01*
G01X22148804Y-1382849D01*
G01X22125944Y-1382849D01*
G01X22230846Y-1422981D02*
G01X22265136Y-1502991D01*
G01X22299426Y-1422981D02*
G01X22265136Y-1502991D01*
G01X22415758Y-1422981D02*
G01X22415758Y-1502991D01*
G01X22415758Y-1439999D02*
G01X22404328Y-1428569D01*
G01X22392898Y-1422981D01*
G01X22375880Y-1422981D01*
G01X22364450Y-1428569D01*
G01X22353020Y-1439999D01*
G01X22347178Y-1457271D01*
G01X22347178Y-1468701D01*
G01X22353020Y-1485719D01*
G01X22364450Y-1497149D01*
G01X22375880Y-1502991D01*
G01X22392898Y-1502991D01*
G01X22404328Y-1497149D01*
G01X22415758Y-1485719D01*
G01X22463510Y-1382849D02*
G01X22463510Y-1502991D01*
G01X24051155Y-1382849D02*
G01X24051155Y-1502991D01*
G01X24011023Y-1382849D02*
G01X24091033Y-1382849D01*
G01X24167487Y-1422981D02*
G01X24156057Y-1428569D01*
G01X24144627Y-1439999D01*
G01X24138785Y-1457271D01*
G01X24138785Y-1468701D01*
G01X24144627Y-1485719D01*
G01X24156057Y-1497149D01*
G01X24167487Y-1502991D01*
G01X24184505Y-1502991D01*
G01X24195935Y-1497149D01*
G01X24207365Y-1485719D01*
G01X24213207Y-1468701D01*
G01X24213207Y-1457271D01*
G01X24207365Y-1439999D01*
G01X24195935Y-1428569D01*
G01X24184505Y-1422981D01*
G01X24167487Y-1422981D01*
G01X24260959Y-1422981D02*
G01X24260959Y-1542869D01*
G01X24260959Y-1439999D02*
G01X24272389Y-1428569D01*
G01X24283819Y-1422981D01*
G01X24301091Y-1422981D01*
G01X24312521Y-1428569D01*
G01X24323951Y-1439999D01*
G01X24329539Y-1457271D01*
G01X24329539Y-1468701D01*
G01X24323951Y-1485719D01*
G01X24312521Y-1497149D01*
G01X24301091Y-1502991D01*
G01X24283819Y-1502991D01*
G01X24272389Y-1497149D01*
G01X24260959Y-1485719D01*
G01X24505307Y-1382849D02*
G01X24505307Y-1502991D01*
G01X24505307Y-1502991D02*
G01X24573887Y-1502991D01*
G01X24690219Y-1422981D02*
G01X24690219Y-1502991D01*
G01X24690219Y-1439999D02*
G01X24678789Y-1428569D01*
G01X24667359Y-1422981D01*
G01X24650341Y-1422981D01*
G01X24638911Y-1428569D01*
G01X24627481Y-1439999D01*
G01X24621639Y-1457271D01*
G01X24621639Y-1468701D01*
G01X24627481Y-1485719D01*
G01X24638911Y-1497149D01*
G01X24650341Y-1502991D01*
G01X24667359Y-1502991D01*
G01X24678789Y-1497149D01*
G01X24690219Y-1485719D01*
G01X24743813Y-1422981D02*
G01X24778103Y-1502991D01*
G01X24812393Y-1422981D02*
G01X24778103Y-1502991D01*
G01X24766673Y-1525851D01*
G01X24755243Y-1537281D01*
G01X24743813Y-1542869D01*
G01X24737971Y-1542869D01*
G01X24860145Y-1457271D02*
G01X24928725Y-1457271D01*
G01X24928725Y-1445841D01*
G01X24923137Y-1434411D01*
G01X24917295Y-1428569D01*
G01X24905865Y-1422981D01*
G01X24888847Y-1422981D01*
G01X24877417Y-1428569D01*
G01X24865987Y-1439999D01*
G01X24860145Y-1457271D01*
G01X24860145Y-1468701D01*
G01X24865987Y-1485719D01*
G01X24877417Y-1497149D01*
G01X24888847Y-1502991D01*
G01X24905865Y-1502991D01*
G01X24917295Y-1497149D01*
G01X24928725Y-1485719D01*
G01X24976477Y-1422981D02*
G01X24976477Y-1502991D01*
G01X24976477Y-1457271D02*
G01X24982319Y-1439999D01*
G01X24993749Y-1428569D01*
G01X25005179Y-1422981D01*
G01X25022197Y-1422981D01*
G01X25069949Y-1451429D02*
G01X25172819Y-1451429D01*
G01X25220571Y-1382849D02*
G01X25220571Y-1502991D01*
G01X25220571Y-1382849D02*
G01X25272133Y-1382849D01*
G01X25289151Y-1388691D01*
G01X25294993Y-1394279D01*
G01X25300581Y-1405709D01*
G01X25300581Y-1417139D01*
G01X25294993Y-1428569D01*
G01X25289151Y-1434411D01*
G01X25272133Y-1439999D01*
G01X25220571Y-1439999D02*
G01X25272133Y-1439999D01*
G01X25289151Y-1445841D01*
G01X25294993Y-1451429D01*
G01X25300581Y-1462859D01*
G01X25300581Y-1480131D01*
G01X25294993Y-1491561D01*
G01X25289151Y-1497149D01*
G01X25272133Y-1502991D01*
G01X25220571Y-1502991D01*
G01X25377035Y-1422981D02*
G01X25365605Y-1428569D01*
G01X25354175Y-1439999D01*
G01X25348333Y-1457271D01*
G01X25348333Y-1468701D01*
G01X25354175Y-1485719D01*
G01X25365605Y-1497149D01*
G01X25377035Y-1502991D01*
G01X25394053Y-1502991D01*
G01X25405483Y-1497149D01*
G01X25416913Y-1485719D01*
G01X25422755Y-1468701D01*
G01X25422755Y-1457271D01*
G01X25416913Y-1439999D01*
G01X25405483Y-1428569D01*
G01X25394053Y-1422981D01*
G01X25377035Y-1422981D01*
G01X25487779Y-1382849D02*
G01X25487779Y-1480131D01*
G01X25493367Y-1497149D01*
G01X25504797Y-1502991D01*
G01X25516227Y-1502991D01*
G01X25470507Y-1422981D02*
G01X25510639Y-1422981D01*
G01X25581251Y-1382849D02*
G01X25581251Y-1480131D01*
G01X25586839Y-1497149D01*
G01X25598269Y-1502991D01*
G01X25609699Y-1502991D01*
G01X25563979Y-1422981D02*
G01X25604111Y-1422981D01*
G01X25686153Y-1422981D02*
G01X25674723Y-1428569D01*
G01X25663293Y-1439999D01*
G01X25657451Y-1457271D01*
G01X25657451Y-1468701D01*
G01X25663293Y-1485719D01*
G01X25674723Y-1497149D01*
G01X25686153Y-1502991D01*
G01X25703171Y-1502991D01*
G01X25714601Y-1497149D01*
G01X25726031Y-1485719D01*
G01X25731873Y-1468701D01*
G01X25731873Y-1457271D01*
G01X25726031Y-1439999D01*
G01X25714601Y-1428569D01*
G01X25703171Y-1422981D01*
G01X25686153Y-1422981D01*
G01X25779625Y-1422981D02*
G01X25779625Y-1502991D01*
G01X25779625Y-1445841D02*
G01X25796897Y-1428569D01*
G01X25808327Y-1422981D01*
G01X25825345Y-1422981D01*
G01X25836775Y-1428569D01*
G01X25842617Y-1445841D01*
G01X25842617Y-1502991D01*
G01X25842617Y-1445841D02*
G01X25859635Y-1428569D01*
G01X25871065Y-1422981D01*
G01X25888337Y-1422981D01*
G01X25899767Y-1428569D01*
G01X25905355Y-1445841D01*
G01X25905355Y-1502991D01*
G01X26081123Y-1382849D02*
G01X26081123Y-1502991D01*
G01X26081123Y-1502991D02*
G01X26149703Y-1502991D01*
G01X26266035Y-1422981D02*
G01X26266035Y-1502991D01*
G01X26266035Y-1439999D02*
G01X26254605Y-1428569D01*
G01X26243175Y-1422981D01*
G01X26226157Y-1422981D01*
G01X26214727Y-1428569D01*
G01X26203297Y-1439999D01*
G01X26197455Y-1457271D01*
G01X26197455Y-1468701D01*
G01X26203297Y-1485719D01*
G01X26214727Y-1497149D01*
G01X26226157Y-1502991D01*
G01X26243175Y-1502991D01*
G01X26254605Y-1497149D01*
G01X26266035Y-1485719D01*
G01X26319629Y-1422981D02*
G01X26353919Y-1502991D01*
G01X26388209Y-1422981D02*
G01X26353919Y-1502991D01*
G01X26342489Y-1525851D01*
G01X26331059Y-1537281D01*
G01X26319629Y-1542869D01*
G01X26313787Y-1542869D01*
G01X26435961Y-1457271D02*
G01X26504541Y-1457271D01*
G01X26504541Y-1445841D01*
G01X26498953Y-1434411D01*
G01X26493111Y-1428569D01*
G01X26481681Y-1422981D01*
G01X26464663Y-1422981D01*
G01X26453233Y-1428569D01*
G01X26441803Y-1439999D01*
G01X26435961Y-1457271D01*
G01X26435961Y-1468701D01*
G01X26441803Y-1485719D01*
G01X26453233Y-1497149D01*
G01X26464663Y-1502991D01*
G01X26481681Y-1502991D01*
G01X26493111Y-1497149D01*
G01X26504541Y-1485719D01*
G01X26552293Y-1422981D02*
G01X26552293Y-1502991D01*
G01X26552293Y-1457271D02*
G01X26558135Y-1439999D01*
G01X26569565Y-1428569D01*
G01X26580995Y-1422981D01*
G01X26598013Y-1422981D01*
G01X12063516Y-1992122D02*
G01X12063516Y-1986280D01*
G01X12069104Y-1974850D01*
G01X12074946Y-1969262D01*
G01X12086376Y-1963420D01*
G01X12109236Y-1963420D01*
G01X12120666Y-1969262D01*
G01X12126254Y-1974850D01*
G01X12132096Y-1986280D01*
G01X12132096Y-1997710D01*
G01X12126254Y-2009140D01*
G01X12114824Y-2026412D01*
G01X12057674Y-2083562D01*
G01X12137684Y-2083562D01*
G01X13477679Y-1992122D02*
G01X13477679Y-1986280D01*
G01X13483267Y-1974850D01*
G01X13489109Y-1969262D01*
G01X13500539Y-1963420D01*
G01X13523399Y-1963420D01*
G01X13534829Y-1969262D01*
G01X13540417Y-1974850D01*
G01X13546259Y-1986280D01*
G01X13546259Y-1997710D01*
G01X13540417Y-2009140D01*
G01X13528987Y-2026412D01*
G01X13471837Y-2083562D01*
G01X13551847Y-2083562D01*
G01X13679609Y-1963420D02*
G01X13622459Y-2083562D01*
G01X13599599Y-1963420D02*
G01X13679609Y-1963420D01*
G01X13733203Y-2054860D02*
G01X13727361Y-2060702D01*
G01X13733203Y-2066290D01*
G01X13738791Y-2060702D01*
G01X13733203Y-2054860D01*
G01X13855123Y-1980692D02*
G01X13849535Y-1969262D01*
G01X13832263Y-1963420D01*
G01X13820833Y-1963420D01*
G01X13803815Y-1969262D01*
G01X13792385Y-1986280D01*
G01X13786543Y-2014982D01*
G01X13786543Y-2043430D01*
G01X13792385Y-2066290D01*
G01X13803815Y-2077720D01*
G01X13820833Y-2083562D01*
G01X13826675Y-2083562D01*
G01X13843693Y-2077720D01*
G01X13855123Y-2066290D01*
G01X13860965Y-2049272D01*
G01X13860965Y-2043430D01*
G01X13855123Y-2026412D01*
G01X13843693Y-2014982D01*
G01X13826675Y-2009140D01*
G01X13820833Y-2009140D01*
G01X13803815Y-2014982D01*
G01X13792385Y-2026412D01*
G01X13786543Y-2043430D01*
G01X13908717Y-2003552D02*
G01X13908717Y-2083562D01*
G01X13908717Y-2026412D02*
G01X13925989Y-2009140D01*
G01X13937419Y-2003552D01*
G01X13954437Y-2003552D01*
G01X13965867Y-2009140D01*
G01X13971709Y-2026412D01*
G01X13971709Y-2083562D01*
G01X13971709Y-2026412D02*
G01X13988727Y-2009140D01*
G01X14000157Y-2003552D01*
G01X14017429Y-2003552D01*
G01X14028859Y-2009140D01*
G01X14034447Y-2026412D01*
G01X14034447Y-2083562D01*
G01X14082199Y-1963420D02*
G01X14088041Y-1969262D01*
G01X14093629Y-1963420D01*
G01X14088041Y-1957832D01*
G01X14082199Y-1963420D01*
G01X14088041Y-2003552D02*
G01X14088041Y-2083562D01*
G01X14141381Y-1963420D02*
G01X14141381Y-2083562D01*
G01X14229265Y-1940560D02*
G01X14217835Y-1951990D01*
G01X14206405Y-1969262D01*
G01X14194975Y-1992122D01*
G01X14189133Y-2020570D01*
G01X14189133Y-2043430D01*
G01X14194975Y-2072132D01*
G01X14206405Y-2094992D01*
G01X14217835Y-2112010D01*
G01X14229265Y-2123440D01*
G01X14311307Y-1963420D02*
G01X14294289Y-1969262D01*
G01X14282859Y-1986280D01*
G01X14277017Y-2014982D01*
G01X14277017Y-2032000D01*
G01X14282859Y-2060702D01*
G01X14294289Y-2077720D01*
G01X14311307Y-2083562D01*
G01X14322737Y-2083562D01*
G01X14340009Y-2077720D01*
G01X14351439Y-2060702D01*
G01X14357027Y-2032000D01*
G01X14357027Y-2014982D01*
G01X14351439Y-1986280D01*
G01X14340009Y-1969262D01*
G01X14322737Y-1963420D01*
G01X14311307Y-1963420D01*
G01X14410621Y-2054860D02*
G01X14404779Y-2060702D01*
G01X14410621Y-2066290D01*
G01X14416209Y-2060702D01*
G01X14410621Y-2054860D01*
G01X14543971Y-1963420D02*
G01X14486821Y-2083562D01*
G01X14463961Y-1963420D02*
G01X14543971Y-1963420D01*
G01X14626013Y-1963420D02*
G01X14608995Y-1969262D01*
G01X14597565Y-1986280D01*
G01X14591723Y-2014982D01*
G01X14591723Y-2032000D01*
G01X14597565Y-2060702D01*
G01X14608995Y-2077720D01*
G01X14626013Y-2083562D01*
G01X14637443Y-2083562D01*
G01X14654715Y-2077720D01*
G01X14666145Y-2060702D01*
G01X14671733Y-2032000D01*
G01X14671733Y-2014982D01*
G01X14666145Y-1986280D01*
G01X14654715Y-1969262D01*
G01X14637443Y-1963420D01*
G01X14626013Y-1963420D01*
G01X14753775Y-1963420D02*
G01X14736757Y-1969262D01*
G01X14725327Y-1986280D01*
G01X14719485Y-2014982D01*
G01X14719485Y-2032000D01*
G01X14725327Y-2060702D01*
G01X14736757Y-2077720D01*
G01X14753775Y-2083562D01*
G01X14765205Y-2083562D01*
G01X14782477Y-2077720D01*
G01X14793907Y-2060702D01*
G01X14799495Y-2032000D01*
G01X14799495Y-2014982D01*
G01X14793907Y-1986280D01*
G01X14782477Y-1969262D01*
G01X14765205Y-1963420D01*
G01X14753775Y-1963420D01*
G01X14847247Y-2003552D02*
G01X14847247Y-2083562D01*
G01X14847247Y-2026412D02*
G01X14864519Y-2009140D01*
G01X14875949Y-2003552D01*
G01X14892967Y-2003552D01*
G01X14904397Y-2009140D01*
G01X14910239Y-2026412D01*
G01X14910239Y-2083562D01*
G01X14910239Y-2026412D02*
G01X14927257Y-2009140D01*
G01X14938687Y-2003552D01*
G01X14955959Y-2003552D01*
G01X14967389Y-2009140D01*
G01X14972977Y-2026412D01*
G01X14972977Y-2083562D01*
G01X15020729Y-2003552D02*
G01X15020729Y-2083562D01*
G01X15020729Y-2026412D02*
G01X15038001Y-2009140D01*
G01X15049431Y-2003552D01*
G01X15066449Y-2003552D01*
G01X15077879Y-2009140D01*
G01X15083721Y-2026412D01*
G01X15083721Y-2083562D01*
G01X15083721Y-2026412D02*
G01X15100739Y-2009140D01*
G01X15112169Y-2003552D01*
G01X15129441Y-2003552D01*
G01X15140871Y-2009140D01*
G01X15146459Y-2026412D01*
G01X15146459Y-2083562D01*
G01X15194211Y-1940560D02*
G01X15205641Y-1951990D01*
G01X15217071Y-1969262D01*
G01X15228501Y-1992122D01*
G01X15234343Y-2020570D01*
G01X15234343Y-2043430D01*
G01X15228501Y-2072132D01*
G01X15217071Y-2094992D01*
G01X15205641Y-2112010D01*
G01X15194211Y-2123440D01*
G01X17529887Y-1963420D02*
G01X17529887Y-2083562D01*
G01X17529887Y-1963420D02*
G01X17609897Y-2083562D01*
G01X17609897Y-1963420D02*
G01X17609897Y-2083562D01*
G01X17657649Y-1963420D02*
G01X17657649Y-2083562D01*
G01X17657649Y-1963420D02*
G01X17709211Y-1963420D01*
G01X17726229Y-1969262D01*
G01X17732071Y-1974850D01*
G01X17737659Y-1986280D01*
G01X17737659Y-2003552D01*
G01X17732071Y-2014982D01*
G01X17726229Y-2020570D01*
G01X17709211Y-2026412D01*
G01X17657649Y-2026412D01*
G01X17825543Y-1963420D02*
G01X17825543Y-2083562D01*
G01X17785411Y-1963420D02*
G01X17865421Y-1963420D01*
G01X17913173Y-1963420D02*
G01X17913173Y-2083562D01*
G01X17993183Y-1963420D02*
G01X17993183Y-2083562D01*
G01X17913173Y-2020570D02*
G01X17993183Y-2020570D01*
G01X18991294Y-1963420D02*
G01X18991294Y-2083562D01*
G01X18991294Y-1963420D02*
G01X19042856Y-1963420D01*
G01X19059874Y-1969262D01*
G01X19065716Y-1974850D01*
G01X19071304Y-1986280D01*
G01X19071304Y-1997710D01*
G01X19065716Y-2009140D01*
G01X19059874Y-2014982D01*
G01X19042856Y-2020570D01*
G01X18991294Y-2020570D01*
G01X19031426Y-2020570D02*
G01X19071304Y-2083562D01*
G01X19147758Y-2003552D02*
G01X19136328Y-2009140D01*
G01X19124898Y-2020570D01*
G01X19119056Y-2037842D01*
G01X19119056Y-2049272D01*
G01X19124898Y-2066290D01*
G01X19136328Y-2077720D01*
G01X19147758Y-2083562D01*
G01X19164776Y-2083562D01*
G01X19176206Y-2077720D01*
G01X19187636Y-2066290D01*
G01X19193478Y-2049272D01*
G01X19193478Y-2037842D01*
G01X19187636Y-2020570D01*
G01X19176206Y-2009140D01*
G01X19164776Y-2003552D01*
G01X19147758Y-2003552D01*
G01X19241230Y-2003552D02*
G01X19241230Y-2060702D01*
G01X19247072Y-2077720D01*
G01X19258502Y-2083562D01*
G01X19275520Y-2083562D01*
G01X19286950Y-2077720D01*
G01X19304222Y-2060702D01*
G01X19304222Y-2003552D02*
G01X19304222Y-2083562D01*
G01X19351974Y-2003552D02*
G01X19351974Y-2083562D01*
G01X19351974Y-2026412D02*
G01X19369246Y-2009140D01*
G01X19380676Y-2003552D01*
G01X19397694Y-2003552D01*
G01X19409124Y-2009140D01*
G01X19414966Y-2026412D01*
G01X19414966Y-2083562D01*
G01X19531298Y-1963420D02*
G01X19531298Y-2083562D01*
G01X19531298Y-2020570D02*
G01X19519868Y-2009140D01*
G01X19508438Y-2003552D01*
G01X19491420Y-2003552D01*
G01X19479990Y-2009140D01*
G01X19468560Y-2020570D01*
G01X19462718Y-2037842D01*
G01X19462718Y-2049272D01*
G01X19468560Y-2066290D01*
G01X19479990Y-2077720D01*
G01X19491420Y-2083562D01*
G01X19508438Y-2083562D01*
G01X19519868Y-2077720D01*
G01X19531298Y-2066290D01*
G01X20422475Y-1963420D02*
G01X20468195Y-2083562D01*
G01X20513915Y-1963420D02*
G01X20468195Y-2083562D01*
G01X20561667Y-1963420D02*
G01X20567509Y-1969262D01*
G01X20573097Y-1963420D01*
G01X20567509Y-1957832D01*
G01X20561667Y-1963420D01*
G01X20567509Y-2003552D02*
G01X20567509Y-2083562D01*
G01X20689429Y-2003552D02*
G01X20689429Y-2083562D01*
G01X20689429Y-2020570D02*
G01X20677999Y-2009140D01*
G01X20666569Y-2003552D01*
G01X20649551Y-2003552D01*
G01X20638121Y-2009140D01*
G01X20626691Y-2020570D01*
G01X20620849Y-2037842D01*
G01X20620849Y-2049272D01*
G01X20626691Y-2066290D01*
G01X20638121Y-2077720D01*
G01X20649551Y-2083562D01*
G01X20666569Y-2083562D01*
G01X20677999Y-2077720D01*
G01X20689429Y-2066290D01*
G01X24051155Y-1963420D02*
G01X24051155Y-2083562D01*
G01X24011023Y-1963420D02*
G01X24091033Y-1963420D01*
G01X24167487Y-2003552D02*
G01X24156057Y-2009140D01*
G01X24144627Y-2020570D01*
G01X24138785Y-2037842D01*
G01X24138785Y-2049272D01*
G01X24144627Y-2066290D01*
G01X24156057Y-2077720D01*
G01X24167487Y-2083562D01*
G01X24184505Y-2083562D01*
G01X24195935Y-2077720D01*
G01X24207365Y-2066290D01*
G01X24213207Y-2049272D01*
G01X24213207Y-2037842D01*
G01X24207365Y-2020570D01*
G01X24195935Y-2009140D01*
G01X24184505Y-2003552D01*
G01X24167487Y-2003552D01*
G01X24260959Y-2003552D02*
G01X24260959Y-2123440D01*
G01X24260959Y-2020570D02*
G01X24272389Y-2009140D01*
G01X24283819Y-2003552D01*
G01X24301091Y-2003552D01*
G01X24312521Y-2009140D01*
G01X24323951Y-2020570D01*
G01X24329539Y-2037842D01*
G01X24329539Y-2049272D01*
G01X24323951Y-2066290D01*
G01X24312521Y-2077720D01*
G01X24301091Y-2083562D01*
G01X24283819Y-2083562D01*
G01X24272389Y-2077720D01*
G01X24260959Y-2066290D01*
G01X24505307Y-1963420D02*
G01X24505307Y-2083562D01*
G01X24505307Y-2083562D02*
G01X24573887Y-2083562D01*
G01X24690219Y-2003552D02*
G01X24690219Y-2083562D01*
G01X24690219Y-2020570D02*
G01X24678789Y-2009140D01*
G01X24667359Y-2003552D01*
G01X24650341Y-2003552D01*
G01X24638911Y-2009140D01*
G01X24627481Y-2020570D01*
G01X24621639Y-2037842D01*
G01X24621639Y-2049272D01*
G01X24627481Y-2066290D01*
G01X24638911Y-2077720D01*
G01X24650341Y-2083562D01*
G01X24667359Y-2083562D01*
G01X24678789Y-2077720D01*
G01X24690219Y-2066290D01*
G01X24743813Y-2003552D02*
G01X24778103Y-2083562D01*
G01X24812393Y-2003552D02*
G01X24778103Y-2083562D01*
G01X24766673Y-2106422D01*
G01X24755243Y-2117852D01*
G01X24743813Y-2123440D01*
G01X24737971Y-2123440D01*
G01X24860145Y-2037842D02*
G01X24928725Y-2037842D01*
G01X24928725Y-2026412D01*
G01X24923137Y-2014982D01*
G01X24917295Y-2009140D01*
G01X24905865Y-2003552D01*
G01X24888847Y-2003552D01*
G01X24877417Y-2009140D01*
G01X24865987Y-2020570D01*
G01X24860145Y-2037842D01*
G01X24860145Y-2049272D01*
G01X24865987Y-2066290D01*
G01X24877417Y-2077720D01*
G01X24888847Y-2083562D01*
G01X24905865Y-2083562D01*
G01X24917295Y-2077720D01*
G01X24928725Y-2066290D01*
G01X24976477Y-2003552D02*
G01X24976477Y-2083562D01*
G01X24976477Y-2037842D02*
G01X24982319Y-2020570D01*
G01X24993749Y-2009140D01*
G01X25005179Y-2003552D01*
G01X25022197Y-2003552D01*
G01X25069949Y-2032000D02*
G01X25172819Y-2032000D01*
G01X25220571Y-1963420D02*
G01X25220571Y-2083562D01*
G01X25220571Y-1963420D02*
G01X25272133Y-1963420D01*
G01X25289151Y-1969262D01*
G01X25294993Y-1974850D01*
G01X25300581Y-1986280D01*
G01X25300581Y-1997710D01*
G01X25294993Y-2009140D01*
G01X25289151Y-2014982D01*
G01X25272133Y-2020570D01*
G01X25220571Y-2020570D02*
G01X25272133Y-2020570D01*
G01X25289151Y-2026412D01*
G01X25294993Y-2032000D01*
G01X25300581Y-2043430D01*
G01X25300581Y-2060702D01*
G01X25294993Y-2072132D01*
G01X25289151Y-2077720D01*
G01X25272133Y-2083562D01*
G01X25220571Y-2083562D01*
G01X25377035Y-2003552D02*
G01X25365605Y-2009140D01*
G01X25354175Y-2020570D01*
G01X25348333Y-2037842D01*
G01X25348333Y-2049272D01*
G01X25354175Y-2066290D01*
G01X25365605Y-2077720D01*
G01X25377035Y-2083562D01*
G01X25394053Y-2083562D01*
G01X25405483Y-2077720D01*
G01X25416913Y-2066290D01*
G01X25422755Y-2049272D01*
G01X25422755Y-2037842D01*
G01X25416913Y-2020570D01*
G01X25405483Y-2009140D01*
G01X25394053Y-2003552D01*
G01X25377035Y-2003552D01*
G01X25487779Y-1963420D02*
G01X25487779Y-2060702D01*
G01X25493367Y-2077720D01*
G01X25504797Y-2083562D01*
G01X25516227Y-2083562D01*
G01X25470507Y-2003552D02*
G01X25510639Y-2003552D01*
G01X25581251Y-1963420D02*
G01X25581251Y-2060702D01*
G01X25586839Y-2077720D01*
G01X25598269Y-2083562D01*
G01X25609699Y-2083562D01*
G01X25563979Y-2003552D02*
G01X25604111Y-2003552D01*
G01X25686153Y-2003552D02*
G01X25674723Y-2009140D01*
G01X25663293Y-2020570D01*
G01X25657451Y-2037842D01*
G01X25657451Y-2049272D01*
G01X25663293Y-2066290D01*
G01X25674723Y-2077720D01*
G01X25686153Y-2083562D01*
G01X25703171Y-2083562D01*
G01X25714601Y-2077720D01*
G01X25726031Y-2066290D01*
G01X25731873Y-2049272D01*
G01X25731873Y-2037842D01*
G01X25726031Y-2020570D01*
G01X25714601Y-2009140D01*
G01X25703171Y-2003552D01*
G01X25686153Y-2003552D01*
G01X25779625Y-2003552D02*
G01X25779625Y-2083562D01*
G01X25779625Y-2026412D02*
G01X25796897Y-2009140D01*
G01X25808327Y-2003552D01*
G01X25825345Y-2003552D01*
G01X25836775Y-2009140D01*
G01X25842617Y-2026412D01*
G01X25842617Y-2083562D01*
G01X25842617Y-2026412D02*
G01X25859635Y-2009140D01*
G01X25871065Y-2003552D01*
G01X25888337Y-2003552D01*
G01X25899767Y-2009140D01*
G01X25905355Y-2026412D01*
G01X25905355Y-2083562D01*
G01X26081123Y-1963420D02*
G01X26081123Y-2083562D01*
G01X26081123Y-2083562D02*
G01X26149703Y-2083562D01*
G01X26266035Y-2003552D02*
G01X26266035Y-2083562D01*
G01X26266035Y-2020570D02*
G01X26254605Y-2009140D01*
G01X26243175Y-2003552D01*
G01X26226157Y-2003552D01*
G01X26214727Y-2009140D01*
G01X26203297Y-2020570D01*
G01X26197455Y-2037842D01*
G01X26197455Y-2049272D01*
G01X26203297Y-2066290D01*
G01X26214727Y-2077720D01*
G01X26226157Y-2083562D01*
G01X26243175Y-2083562D01*
G01X26254605Y-2077720D01*
G01X26266035Y-2066290D01*
G01X26319629Y-2003552D02*
G01X26353919Y-2083562D01*
G01X26388209Y-2003552D02*
G01X26353919Y-2083562D01*
G01X26342489Y-2106422D01*
G01X26331059Y-2117852D01*
G01X26319629Y-2123440D01*
G01X26313787Y-2123440D01*
G01X26435961Y-2037842D02*
G01X26504541Y-2037842D01*
G01X26504541Y-2026412D01*
G01X26498953Y-2014982D01*
G01X26493111Y-2009140D01*
G01X26481681Y-2003552D01*
G01X26464663Y-2003552D01*
G01X26453233Y-2009140D01*
G01X26441803Y-2020570D01*
G01X26435961Y-2037842D01*
G01X26435961Y-2049272D01*
G01X26441803Y-2066290D01*
G01X26453233Y-2077720D01*
G01X26464663Y-2083562D01*
G01X26481681Y-2083562D01*
G01X26493111Y-2077720D01*
G01X26504541Y-2066290D01*
G01X26552293Y-2003552D02*
G01X26552293Y-2083562D01*
G01X26552293Y-2037842D02*
G01X26558135Y-2020570D01*
G01X26569565Y-2009140D01*
G01X26580995Y-2003552D01*
G01X26598013Y-2003552D01*
G01X12126254Y-2543991D02*
G01X12069104Y-2543991D01*
G01X12063516Y-2595553D01*
G01X12069104Y-2589711D01*
G01X12086376Y-2584123D01*
G01X12103394Y-2584123D01*
G01X12120666Y-2589711D01*
G01X12132096Y-2601141D01*
G01X12137684Y-2618413D01*
G01X12137684Y-2629843D01*
G01X12132096Y-2646861D01*
G01X12120666Y-2658291D01*
G01X12103394Y-2664133D01*
G01X12086376Y-2664133D01*
G01X12069104Y-2658291D01*
G01X12063516Y-2652703D01*
G01X12057674Y-2641273D01*
G01X13471837Y-2566851D02*
G01X13483267Y-2561263D01*
G01X13500539Y-2543991D01*
G01X13500539Y-2664133D01*
G01X13582581Y-2543991D02*
G01X13565563Y-2549833D01*
G01X13554133Y-2566851D01*
G01X13548291Y-2595553D01*
G01X13548291Y-2612571D01*
G01X13554133Y-2641273D01*
G01X13565563Y-2658291D01*
G01X13582581Y-2664133D01*
G01X13594011Y-2664133D01*
G01X13611283Y-2658291D01*
G01X13622713Y-2641273D01*
G01X13628301Y-2612571D01*
G01X13628301Y-2595553D01*
G01X13622713Y-2566851D01*
G01X13611283Y-2549833D01*
G01X13594011Y-2543991D01*
G01X13582581Y-2543991D01*
G01X13710343Y-2543991D02*
G01X13693325Y-2549833D01*
G01X13681895Y-2566851D01*
G01X13676053Y-2595553D01*
G01X13676053Y-2612571D01*
G01X13681895Y-2641273D01*
G01X13693325Y-2658291D01*
G01X13710343Y-2664133D01*
G01X13721773Y-2664133D01*
G01X13739045Y-2658291D01*
G01X13750475Y-2641273D01*
G01X13756063Y-2612571D01*
G01X13756063Y-2595553D01*
G01X13750475Y-2566851D01*
G01X13739045Y-2549833D01*
G01X13721773Y-2543991D01*
G01X13710343Y-2543991D01*
G01X13809657Y-2635431D02*
G01X13803815Y-2641273D01*
G01X13809657Y-2646861D01*
G01X13815245Y-2641273D01*
G01X13809657Y-2635431D01*
G01X13897287Y-2543991D02*
G01X13880269Y-2549833D01*
G01X13868839Y-2566851D01*
G01X13862997Y-2595553D01*
G01X13862997Y-2612571D01*
G01X13868839Y-2641273D01*
G01X13880269Y-2658291D01*
G01X13897287Y-2664133D01*
G01X13908717Y-2664133D01*
G01X13925989Y-2658291D01*
G01X13937419Y-2641273D01*
G01X13943007Y-2612571D01*
G01X13943007Y-2595553D01*
G01X13937419Y-2566851D01*
G01X13925989Y-2549833D01*
G01X13908717Y-2543991D01*
G01X13897287Y-2543991D01*
G01X13990759Y-2584123D02*
G01X14053751Y-2664133D01*
G01X14053751Y-2584123D02*
G01X13990759Y-2664133D01*
G01X14101503Y-2566851D02*
G01X14112933Y-2561263D01*
G01X14130205Y-2543991D01*
G01X14130205Y-2664133D01*
G01X14212247Y-2543991D02*
G01X14195229Y-2549833D01*
G01X14183799Y-2566851D01*
G01X14177957Y-2595553D01*
G01X14177957Y-2612571D01*
G01X14183799Y-2641273D01*
G01X14195229Y-2658291D01*
G01X14212247Y-2664133D01*
G01X14223677Y-2664133D01*
G01X14240949Y-2658291D01*
G01X14252379Y-2641273D01*
G01X14257967Y-2612571D01*
G01X14257967Y-2595553D01*
G01X14252379Y-2566851D01*
G01X14240949Y-2549833D01*
G01X14223677Y-2543991D01*
G01X14212247Y-2543991D01*
G01X14340009Y-2543991D02*
G01X14322991Y-2549833D01*
G01X14311561Y-2566851D01*
G01X14305719Y-2595553D01*
G01X14305719Y-2612571D01*
G01X14311561Y-2641273D01*
G01X14322991Y-2658291D01*
G01X14340009Y-2664133D01*
G01X14351439Y-2664133D01*
G01X14368711Y-2658291D01*
G01X14380141Y-2641273D01*
G01X14385729Y-2612571D01*
G01X14385729Y-2595553D01*
G01X14380141Y-2566851D01*
G01X14368711Y-2549833D01*
G01X14351439Y-2543991D01*
G01X14340009Y-2543991D01*
G01X14439323Y-2635431D02*
G01X14433481Y-2641273D01*
G01X14439323Y-2646861D01*
G01X14444911Y-2641273D01*
G01X14439323Y-2635431D01*
G01X14526953Y-2543991D02*
G01X14509935Y-2549833D01*
G01X14498505Y-2566851D01*
G01X14492663Y-2595553D01*
G01X14492663Y-2612571D01*
G01X14498505Y-2641273D01*
G01X14509935Y-2658291D01*
G01X14526953Y-2664133D01*
G01X14538383Y-2664133D01*
G01X14555655Y-2658291D01*
G01X14567085Y-2641273D01*
G01X14572673Y-2612571D01*
G01X14572673Y-2595553D01*
G01X14567085Y-2566851D01*
G01X14555655Y-2549833D01*
G01X14538383Y-2543991D01*
G01X14526953Y-2543991D01*
G01X14620425Y-2584123D02*
G01X14620425Y-2664133D01*
G01X14620425Y-2606983D02*
G01X14637697Y-2589711D01*
G01X14649127Y-2584123D01*
G01X14666145Y-2584123D01*
G01X14677575Y-2589711D01*
G01X14683417Y-2606983D01*
G01X14683417Y-2664133D01*
G01X14683417Y-2606983D02*
G01X14700435Y-2589711D01*
G01X14711865Y-2584123D01*
G01X14729137Y-2584123D01*
G01X14740567Y-2589711D01*
G01X14746155Y-2606983D01*
G01X14746155Y-2664133D01*
G01X14793907Y-2543991D02*
G01X14799749Y-2549833D01*
G01X14805337Y-2543991D01*
G01X14799749Y-2538403D01*
G01X14793907Y-2543991D01*
G01X14799749Y-2584123D02*
G01X14799749Y-2664133D01*
G01X14853089Y-2543991D02*
G01X14853089Y-2664133D01*
G01X14940973Y-2521131D02*
G01X14929543Y-2532561D01*
G01X14918113Y-2549833D01*
G01X14906683Y-2572693D01*
G01X14900841Y-2601141D01*
G01X14900841Y-2624001D01*
G01X14906683Y-2652703D01*
G01X14918113Y-2675563D01*
G01X14929543Y-2692581D01*
G01X14940973Y-2704011D01*
G01X14994567Y-2572693D02*
G01X14994567Y-2566851D01*
G01X15000155Y-2555421D01*
G01X15005997Y-2549833D01*
G01X15017427Y-2543991D01*
G01X15040287Y-2543991D01*
G01X15051717Y-2549833D01*
G01X15057305Y-2555421D01*
G01X15063147Y-2566851D01*
G01X15063147Y-2578281D01*
G01X15057305Y-2589711D01*
G01X15045875Y-2606983D01*
G01X14988725Y-2664133D01*
G01X15068735Y-2664133D01*
G01X15122329Y-2635431D02*
G01X15116487Y-2641273D01*
G01X15122329Y-2646861D01*
G01X15127917Y-2641273D01*
G01X15122329Y-2635431D01*
G01X15244249Y-2543991D02*
G01X15187099Y-2543991D01*
G01X15181511Y-2595553D01*
G01X15187099Y-2589711D01*
G01X15204371Y-2584123D01*
G01X15221389Y-2584123D01*
G01X15238661Y-2589711D01*
G01X15250091Y-2601141D01*
G01X15255679Y-2618413D01*
G01X15255679Y-2629843D01*
G01X15250091Y-2646861D01*
G01X15238661Y-2658291D01*
G01X15221389Y-2664133D01*
G01X15204371Y-2664133D01*
G01X15187099Y-2658291D01*
G01X15181511Y-2652703D01*
G01X15175669Y-2641273D01*
G01X15360581Y-2543991D02*
G01X15303431Y-2624001D01*
G01X15389283Y-2624001D01*
G01X15360581Y-2543991D02*
G01X15360581Y-2664133D01*
G01X15471325Y-2543991D02*
G01X15454307Y-2549833D01*
G01X15442877Y-2566851D01*
G01X15437035Y-2595553D01*
G01X15437035Y-2612571D01*
G01X15442877Y-2641273D01*
G01X15454307Y-2658291D01*
G01X15471325Y-2664133D01*
G01X15482755Y-2664133D01*
G01X15500027Y-2658291D01*
G01X15511457Y-2641273D01*
G01X15517045Y-2612571D01*
G01X15517045Y-2595553D01*
G01X15511457Y-2566851D01*
G01X15500027Y-2549833D01*
G01X15482755Y-2543991D01*
G01X15471325Y-2543991D01*
G01X15564797Y-2584123D02*
G01X15627789Y-2664133D01*
G01X15627789Y-2584123D02*
G01X15564797Y-2664133D01*
G01X15681383Y-2572693D02*
G01X15681383Y-2566851D01*
G01X15686971Y-2555421D01*
G01X15692813Y-2549833D01*
G01X15704243Y-2543991D01*
G01X15727103Y-2543991D01*
G01X15738533Y-2549833D01*
G01X15744121Y-2555421D01*
G01X15749963Y-2566851D01*
G01X15749963Y-2578281D01*
G01X15744121Y-2589711D01*
G01X15732691Y-2606983D01*
G01X15675541Y-2664133D01*
G01X15755551Y-2664133D01*
G01X15809145Y-2635431D02*
G01X15803303Y-2641273D01*
G01X15809145Y-2646861D01*
G01X15814733Y-2641273D01*
G01X15809145Y-2635431D01*
G01X15931065Y-2543991D02*
G01X15873915Y-2543991D01*
G01X15868327Y-2595553D01*
G01X15873915Y-2589711D01*
G01X15891187Y-2584123D01*
G01X15908205Y-2584123D01*
G01X15925477Y-2589711D01*
G01X15936907Y-2601141D01*
G01X15942495Y-2618413D01*
G01X15942495Y-2629843D01*
G01X15936907Y-2646861D01*
G01X15925477Y-2658291D01*
G01X15908205Y-2664133D01*
G01X15891187Y-2664133D01*
G01X15873915Y-2658291D01*
G01X15868327Y-2652703D01*
G01X15862485Y-2641273D01*
G01X16047397Y-2543991D02*
G01X15990247Y-2624001D01*
G01X16076099Y-2624001D01*
G01X16047397Y-2543991D02*
G01X16047397Y-2664133D01*
G01X16158141Y-2543991D02*
G01X16141123Y-2549833D01*
G01X16129693Y-2566851D01*
G01X16123851Y-2595553D01*
G01X16123851Y-2612571D01*
G01X16129693Y-2641273D01*
G01X16141123Y-2658291D01*
G01X16158141Y-2664133D01*
G01X16169571Y-2664133D01*
G01X16186843Y-2658291D01*
G01X16198273Y-2641273D01*
G01X16203861Y-2612571D01*
G01X16203861Y-2595553D01*
G01X16198273Y-2566851D01*
G01X16186843Y-2549833D01*
G01X16169571Y-2543991D01*
G01X16158141Y-2543991D01*
G01X16251613Y-2584123D02*
G01X16251613Y-2664133D01*
G01X16251613Y-2606983D02*
G01X16268885Y-2589711D01*
G01X16280315Y-2584123D01*
G01X16297333Y-2584123D01*
G01X16308763Y-2589711D01*
G01X16314605Y-2606983D01*
G01X16314605Y-2664133D01*
G01X16314605Y-2606983D02*
G01X16331623Y-2589711D01*
G01X16343053Y-2584123D01*
G01X16360325Y-2584123D01*
G01X16371755Y-2589711D01*
G01X16377343Y-2606983D01*
G01X16377343Y-2664133D01*
G01X16425095Y-2584123D02*
G01X16425095Y-2664133D01*
G01X16425095Y-2606983D02*
G01X16442367Y-2589711D01*
G01X16453797Y-2584123D01*
G01X16470815Y-2584123D01*
G01X16482245Y-2589711D01*
G01X16488087Y-2606983D01*
G01X16488087Y-2664133D01*
G01X16488087Y-2606983D02*
G01X16505105Y-2589711D01*
G01X16516535Y-2584123D01*
G01X16533807Y-2584123D01*
G01X16545237Y-2589711D01*
G01X16550825Y-2606983D01*
G01X16550825Y-2664133D01*
G01X16598577Y-2521131D02*
G01X16610007Y-2532561D01*
G01X16621437Y-2549833D01*
G01X16632867Y-2572693D01*
G01X16638709Y-2601141D01*
G01X16638709Y-2624001D01*
G01X16632867Y-2652703D01*
G01X16621437Y-2675563D01*
G01X16610007Y-2692581D01*
G01X16598577Y-2704011D01*
G01X17529887Y-2543991D02*
G01X17529887Y-2664133D01*
G01X17529887Y-2543991D02*
G01X17581449Y-2543991D01*
G01X17598467Y-2549833D01*
G01X17604309Y-2555421D01*
G01X17609897Y-2566851D01*
G01X17609897Y-2584123D01*
G01X17604309Y-2595553D01*
G01X17598467Y-2601141D01*
G01X17581449Y-2606983D01*
G01X17529887Y-2606983D01*
G01X17697781Y-2543991D02*
G01X17697781Y-2664133D01*
G01X17657649Y-2543991D02*
G01X17737659Y-2543991D01*
G01X17785411Y-2543991D02*
G01X17785411Y-2664133D01*
G01X17865421Y-2543991D02*
G01X17865421Y-2664133D01*
G01X17785411Y-2601141D02*
G01X17865421Y-2601141D01*
G01X18991294Y-2543991D02*
G01X18991294Y-2664133D01*
G01X18991294Y-2543991D02*
G01X19042856Y-2543991D01*
G01X19059874Y-2549833D01*
G01X19065716Y-2555421D01*
G01X19071304Y-2566851D01*
G01X19071304Y-2578281D01*
G01X19065716Y-2589711D01*
G01X19059874Y-2595553D01*
G01X19042856Y-2601141D01*
G01X18991294Y-2601141D01*
G01X19031426Y-2601141D02*
G01X19071304Y-2664133D01*
G01X19147758Y-2584123D02*
G01X19136328Y-2589711D01*
G01X19124898Y-2601141D01*
G01X19119056Y-2618413D01*
G01X19119056Y-2629843D01*
G01X19124898Y-2646861D01*
G01X19136328Y-2658291D01*
G01X19147758Y-2664133D01*
G01X19164776Y-2664133D01*
G01X19176206Y-2658291D01*
G01X19187636Y-2646861D01*
G01X19193478Y-2629843D01*
G01X19193478Y-2618413D01*
G01X19187636Y-2601141D01*
G01X19176206Y-2589711D01*
G01X19164776Y-2584123D01*
G01X19147758Y-2584123D01*
G01X19241230Y-2584123D02*
G01X19241230Y-2641273D01*
G01X19247072Y-2658291D01*
G01X19258502Y-2664133D01*
G01X19275520Y-2664133D01*
G01X19286950Y-2658291D01*
G01X19304222Y-2641273D01*
G01X19304222Y-2584123D02*
G01X19304222Y-2664133D01*
G01X19351974Y-2584123D02*
G01X19351974Y-2664133D01*
G01X19351974Y-2606983D02*
G01X19369246Y-2589711D01*
G01X19380676Y-2584123D01*
G01X19397694Y-2584123D01*
G01X19409124Y-2589711D01*
G01X19414966Y-2606983D01*
G01X19414966Y-2664133D01*
G01X19531298Y-2543991D02*
G01X19531298Y-2664133D01*
G01X19531298Y-2601141D02*
G01X19519868Y-2589711D01*
G01X19508438Y-2584123D01*
G01X19491420Y-2584123D01*
G01X19479990Y-2589711D01*
G01X19468560Y-2601141D01*
G01X19462718Y-2618413D01*
G01X19462718Y-2629843D01*
G01X19468560Y-2646861D01*
G01X19479990Y-2658291D01*
G01X19491420Y-2664133D01*
G01X19508438Y-2664133D01*
G01X19519868Y-2658291D01*
G01X19531298Y-2646861D01*
G01X20422475Y-2543991D02*
G01X20422475Y-2664133D01*
G01X20422475Y-2543991D02*
G01X20474037Y-2543991D01*
G01X20491055Y-2549833D01*
G01X20496897Y-2555421D01*
G01X20502485Y-2566851D01*
G01X20502485Y-2584123D01*
G01X20496897Y-2595553D01*
G01X20491055Y-2601141D01*
G01X20474037Y-2606983D01*
G01X20422475Y-2606983D01*
G01X20618817Y-2584123D02*
G01X20618817Y-2664133D01*
G01X20618817Y-2601141D02*
G01X20607387Y-2589711D01*
G01X20595957Y-2584123D01*
G01X20578939Y-2584123D01*
G01X20567509Y-2589711D01*
G01X20556079Y-2601141D01*
G01X20550237Y-2618413D01*
G01X20550237Y-2629843D01*
G01X20556079Y-2646861D01*
G01X20567509Y-2658291D01*
G01X20578939Y-2664133D01*
G01X20595957Y-2664133D01*
G01X20607387Y-2658291D01*
G01X20618817Y-2646861D01*
G01X20735149Y-2543991D02*
G01X20735149Y-2664133D01*
G01X20735149Y-2601141D02*
G01X20723719Y-2589711D01*
G01X20712289Y-2584123D01*
G01X20695271Y-2584123D01*
G01X20683841Y-2589711D01*
G01X20672411Y-2601141D01*
G01X20666569Y-2618413D01*
G01X20666569Y-2629843D01*
G01X20672411Y-2646861D01*
G01X20683841Y-2658291D01*
G01X20695271Y-2664133D01*
G01X20712289Y-2664133D01*
G01X20723719Y-2658291D01*
G01X20735149Y-2646861D01*
G01X22091654Y-2543991D02*
G01X22091654Y-2664133D01*
G01X22091654Y-2543991D02*
G01X22143216Y-2543991D01*
G01X22160234Y-2549833D01*
G01X22166076Y-2555421D01*
G01X22171664Y-2566851D01*
G01X22171664Y-2578281D01*
G01X22166076Y-2589711D01*
G01X22160234Y-2595553D01*
G01X22143216Y-2601141D01*
G01X22091654Y-2601141D01*
G01X22131786Y-2601141D02*
G01X22171664Y-2664133D01*
G01X22248118Y-2584123D02*
G01X22236688Y-2589711D01*
G01X22225258Y-2601141D01*
G01X22219416Y-2618413D01*
G01X22219416Y-2629843D01*
G01X22225258Y-2646861D01*
G01X22236688Y-2658291D01*
G01X22248118Y-2664133D01*
G01X22265136Y-2664133D01*
G01X22276566Y-2658291D01*
G01X22287996Y-2646861D01*
G01X22293838Y-2629843D01*
G01X22293838Y-2618413D01*
G01X22287996Y-2601141D01*
G01X22276566Y-2589711D01*
G01X22265136Y-2584123D01*
G01X22248118Y-2584123D01*
G01X22341590Y-2584123D02*
G01X22341590Y-2641273D01*
G01X22347432Y-2658291D01*
G01X22358862Y-2664133D01*
G01X22375880Y-2664133D01*
G01X22387310Y-2658291D01*
G01X22404582Y-2641273D01*
G01X22404582Y-2584123D02*
G01X22404582Y-2664133D01*
G01X22452334Y-2584123D02*
G01X22452334Y-2664133D01*
G01X22452334Y-2606983D02*
G01X22469606Y-2589711D01*
G01X22481036Y-2584123D01*
G01X22498054Y-2584123D01*
G01X22509484Y-2589711D01*
G01X22515326Y-2606983D01*
G01X22515326Y-2664133D01*
G01X22631658Y-2543991D02*
G01X22631658Y-2664133D01*
G01X22631658Y-2601141D02*
G01X22620228Y-2589711D01*
G01X22608798Y-2584123D01*
G01X22591780Y-2584123D01*
G01X22580350Y-2589711D01*
G01X22568920Y-2601141D01*
G01X22563078Y-2618413D01*
G01X22563078Y-2629843D01*
G01X22568920Y-2646861D01*
G01X22580350Y-2658291D01*
G01X22591780Y-2664133D01*
G01X22608798Y-2664133D01*
G01X22620228Y-2658291D01*
G01X22631658Y-2646861D01*
G01X24051155Y-2543991D02*
G01X24051155Y-2664133D01*
G01X24011023Y-2543991D02*
G01X24091033Y-2543991D01*
G01X24167487Y-2584123D02*
G01X24156057Y-2589711D01*
G01X24144627Y-2601141D01*
G01X24138785Y-2618413D01*
G01X24138785Y-2629843D01*
G01X24144627Y-2646861D01*
G01X24156057Y-2658291D01*
G01X24167487Y-2664133D01*
G01X24184505Y-2664133D01*
G01X24195935Y-2658291D01*
G01X24207365Y-2646861D01*
G01X24213207Y-2629843D01*
G01X24213207Y-2618413D01*
G01X24207365Y-2601141D01*
G01X24195935Y-2589711D01*
G01X24184505Y-2584123D01*
G01X24167487Y-2584123D01*
G01X24260959Y-2584123D02*
G01X24260959Y-2704011D01*
G01X24260959Y-2601141D02*
G01X24272389Y-2589711D01*
G01X24283819Y-2584123D01*
G01X24301091Y-2584123D01*
G01X24312521Y-2589711D01*
G01X24323951Y-2601141D01*
G01X24329539Y-2618413D01*
G01X24329539Y-2629843D01*
G01X24323951Y-2646861D01*
G01X24312521Y-2658291D01*
G01X24301091Y-2664133D01*
G01X24283819Y-2664133D01*
G01X24272389Y-2658291D01*
G01X24260959Y-2646861D01*
G01X24505307Y-2543991D02*
G01X24505307Y-2664133D01*
G01X24505307Y-2664133D02*
G01X24573887Y-2664133D01*
G01X24690219Y-2584123D02*
G01X24690219Y-2664133D01*
G01X24690219Y-2601141D02*
G01X24678789Y-2589711D01*
G01X24667359Y-2584123D01*
G01X24650341Y-2584123D01*
G01X24638911Y-2589711D01*
G01X24627481Y-2601141D01*
G01X24621639Y-2618413D01*
G01X24621639Y-2629843D01*
G01X24627481Y-2646861D01*
G01X24638911Y-2658291D01*
G01X24650341Y-2664133D01*
G01X24667359Y-2664133D01*
G01X24678789Y-2658291D01*
G01X24690219Y-2646861D01*
G01X24743813Y-2584123D02*
G01X24778103Y-2664133D01*
G01X24812393Y-2584123D02*
G01X24778103Y-2664133D01*
G01X24766673Y-2686993D01*
G01X24755243Y-2698423D01*
G01X24743813Y-2704011D01*
G01X24737971Y-2704011D01*
G01X24860145Y-2618413D02*
G01X24928725Y-2618413D01*
G01X24928725Y-2606983D01*
G01X24923137Y-2595553D01*
G01X24917295Y-2589711D01*
G01X24905865Y-2584123D01*
G01X24888847Y-2584123D01*
G01X24877417Y-2589711D01*
G01X24865987Y-2601141D01*
G01X24860145Y-2618413D01*
G01X24860145Y-2629843D01*
G01X24865987Y-2646861D01*
G01X24877417Y-2658291D01*
G01X24888847Y-2664133D01*
G01X24905865Y-2664133D01*
G01X24917295Y-2658291D01*
G01X24928725Y-2646861D01*
G01X24976477Y-2584123D02*
G01X24976477Y-2664133D01*
G01X24976477Y-2618413D02*
G01X24982319Y-2601141D01*
G01X24993749Y-2589711D01*
G01X25005179Y-2584123D01*
G01X25022197Y-2584123D01*
G01X25069949Y-2612571D02*
G01X25172819Y-2612571D01*
G01X25220571Y-2543991D02*
G01X25220571Y-2664133D01*
G01X25220571Y-2543991D02*
G01X25272133Y-2543991D01*
G01X25289151Y-2549833D01*
G01X25294993Y-2555421D01*
G01X25300581Y-2566851D01*
G01X25300581Y-2578281D01*
G01X25294993Y-2589711D01*
G01X25289151Y-2595553D01*
G01X25272133Y-2601141D01*
G01X25220571Y-2601141D02*
G01X25272133Y-2601141D01*
G01X25289151Y-2606983D01*
G01X25294993Y-2612571D01*
G01X25300581Y-2624001D01*
G01X25300581Y-2641273D01*
G01X25294993Y-2652703D01*
G01X25289151Y-2658291D01*
G01X25272133Y-2664133D01*
G01X25220571Y-2664133D01*
G01X25377035Y-2584123D02*
G01X25365605Y-2589711D01*
G01X25354175Y-2601141D01*
G01X25348333Y-2618413D01*
G01X25348333Y-2629843D01*
G01X25354175Y-2646861D01*
G01X25365605Y-2658291D01*
G01X25377035Y-2664133D01*
G01X25394053Y-2664133D01*
G01X25405483Y-2658291D01*
G01X25416913Y-2646861D01*
G01X25422755Y-2629843D01*
G01X25422755Y-2618413D01*
G01X25416913Y-2601141D01*
G01X25405483Y-2589711D01*
G01X25394053Y-2584123D01*
G01X25377035Y-2584123D01*
G01X25487779Y-2543991D02*
G01X25487779Y-2641273D01*
G01X25493367Y-2658291D01*
G01X25504797Y-2664133D01*
G01X25516227Y-2664133D01*
G01X25470507Y-2584123D02*
G01X25510639Y-2584123D01*
G01X25581251Y-2543991D02*
G01X25581251Y-2641273D01*
G01X25586839Y-2658291D01*
G01X25598269Y-2664133D01*
G01X25609699Y-2664133D01*
G01X25563979Y-2584123D02*
G01X25604111Y-2584123D01*
G01X25686153Y-2584123D02*
G01X25674723Y-2589711D01*
G01X25663293Y-2601141D01*
G01X25657451Y-2618413D01*
G01X25657451Y-2629843D01*
G01X25663293Y-2646861D01*
G01X25674723Y-2658291D01*
G01X25686153Y-2664133D01*
G01X25703171Y-2664133D01*
G01X25714601Y-2658291D01*
G01X25726031Y-2646861D01*
G01X25731873Y-2629843D01*
G01X25731873Y-2618413D01*
G01X25726031Y-2601141D01*
G01X25714601Y-2589711D01*
G01X25703171Y-2584123D01*
G01X25686153Y-2584123D01*
G01X25779625Y-2584123D02*
G01X25779625Y-2664133D01*
G01X25779625Y-2606983D02*
G01X25796897Y-2589711D01*
G01X25808327Y-2584123D01*
G01X25825345Y-2584123D01*
G01X25836775Y-2589711D01*
G01X25842617Y-2606983D01*
G01X25842617Y-2664133D01*
G01X25842617Y-2606983D02*
G01X25859635Y-2589711D01*
G01X25871065Y-2584123D01*
G01X25888337Y-2584123D01*
G01X25899767Y-2589711D01*
G01X25905355Y-2606983D01*
G01X25905355Y-2664133D01*
G01X26081123Y-2543991D02*
G01X26081123Y-2664133D01*
G01X26081123Y-2664133D02*
G01X26149703Y-2664133D01*
G01X26266035Y-2584123D02*
G01X26266035Y-2664133D01*
G01X26266035Y-2601141D02*
G01X26254605Y-2589711D01*
G01X26243175Y-2584123D01*
G01X26226157Y-2584123D01*
G01X26214727Y-2589711D01*
G01X26203297Y-2601141D01*
G01X26197455Y-2618413D01*
G01X26197455Y-2629843D01*
G01X26203297Y-2646861D01*
G01X26214727Y-2658291D01*
G01X26226157Y-2664133D01*
G01X26243175Y-2664133D01*
G01X26254605Y-2658291D01*
G01X26266035Y-2646861D01*
G01X26319629Y-2584123D02*
G01X26353919Y-2664133D01*
G01X26388209Y-2584123D02*
G01X26353919Y-2664133D01*
G01X26342489Y-2686993D01*
G01X26331059Y-2698423D01*
G01X26319629Y-2704011D01*
G01X26313787Y-2704011D01*
G01X26435961Y-2618413D02*
G01X26504541Y-2618413D01*
G01X26504541Y-2606983D01*
G01X26498953Y-2595553D01*
G01X26493111Y-2589711D01*
G01X26481681Y-2584123D01*
G01X26464663Y-2584123D01*
G01X26453233Y-2589711D01*
G01X26441803Y-2601141D01*
G01X26435961Y-2618413D01*
G01X26435961Y-2629843D01*
G01X26441803Y-2646861D01*
G01X26453233Y-2658291D01*
G01X26464663Y-2664133D01*
G01X26481681Y-2664133D01*
G01X26493111Y-2658291D01*
G01X26504541Y-2646861D01*
G01X26552293Y-2584123D02*
G01X26552293Y-2664133D01*
G01X26552293Y-2618413D02*
G01X26558135Y-2601141D01*
G01X26569565Y-2589711D01*
G01X26580995Y-2584123D01*
G01X26598013Y-2584123D01*
G01X12057674Y-3147423D02*
G01X12069104Y-3141835D01*
G01X12086376Y-3124563D01*
G01X12086376Y-3244705D01*
G01X12162830Y-3124563D02*
G01X12145558Y-3130405D01*
G01X12139970Y-3141835D01*
G01X12139970Y-3153265D01*
G01X12145558Y-3164695D01*
G01X12156988Y-3170283D01*
G01X12179848Y-3176125D01*
G01X12197120Y-3181713D01*
G01X12208550Y-3193143D01*
G01X12214138Y-3204573D01*
G01X12214138Y-3221845D01*
G01X12208550Y-3233275D01*
G01X12202708Y-3238863D01*
G01X12185690Y-3244705D01*
G01X12162830Y-3244705D01*
G01X12145558Y-3238863D01*
G01X12139970Y-3233275D01*
G01X12134128Y-3221845D01*
G01X12134128Y-3204573D01*
G01X12139970Y-3193143D01*
G01X12151400Y-3181713D01*
G01X12168418Y-3176125D01*
G01X12191278Y-3170283D01*
G01X12202708Y-3164695D01*
G01X12208550Y-3153265D01*
G01X12208550Y-3141835D01*
G01X12202708Y-3130405D01*
G01X12185690Y-3124563D01*
G01X12162830Y-3124563D01*
G01X13540417Y-3124563D02*
G01X13483267Y-3124563D01*
G01X13477679Y-3176125D01*
G01X13483267Y-3170283D01*
G01X13500539Y-3164695D01*
G01X13517557Y-3164695D01*
G01X13534829Y-3170283D01*
G01X13546259Y-3181713D01*
G01X13551847Y-3198985D01*
G01X13551847Y-3210415D01*
G01X13546259Y-3227433D01*
G01X13534829Y-3238863D01*
G01X13517557Y-3244705D01*
G01X13500539Y-3244705D01*
G01X13483267Y-3238863D01*
G01X13477679Y-3233275D01*
G01X13471837Y-3221845D01*
G01X13674021Y-3164695D02*
G01X13668179Y-3181713D01*
G01X13656749Y-3193143D01*
G01X13639731Y-3198985D01*
G01X13633889Y-3198985D01*
G01X13616871Y-3193143D01*
G01X13605441Y-3181713D01*
G01X13599599Y-3164695D01*
G01X13599599Y-3158853D01*
G01X13605441Y-3141835D01*
G01X13616871Y-3130405D01*
G01X13633889Y-3124563D01*
G01X13639731Y-3124563D01*
G01X13656749Y-3130405D01*
G01X13668179Y-3141835D01*
G01X13674021Y-3164695D01*
G01X13674021Y-3193143D01*
G01X13668179Y-3221845D01*
G01X13656749Y-3238863D01*
G01X13639731Y-3244705D01*
G01X13628301Y-3244705D01*
G01X13611029Y-3238863D01*
G01X13605441Y-3227433D01*
G01X13727615Y-3216003D02*
G01X13721773Y-3221845D01*
G01X13727615Y-3227433D01*
G01X13733203Y-3221845D01*
G01X13727615Y-3216003D01*
G01X13780955Y-3147423D02*
G01X13792385Y-3141835D01*
G01X13809657Y-3124563D01*
G01X13809657Y-3244705D01*
G01X13857409Y-3164695D02*
G01X13920401Y-3244705D01*
G01X13920401Y-3164695D02*
G01X13857409Y-3244705D01*
G01X14036733Y-3124563D02*
G01X13979583Y-3124563D01*
G01X13973995Y-3176125D01*
G01X13979583Y-3170283D01*
G01X13996855Y-3164695D01*
G01X14013873Y-3164695D01*
G01X14031145Y-3170283D01*
G01X14042575Y-3181713D01*
G01X14048163Y-3198985D01*
G01X14048163Y-3210415D01*
G01X14042575Y-3227433D01*
G01X14031145Y-3238863D01*
G01X14013873Y-3244705D01*
G01X13996855Y-3244705D01*
G01X13979583Y-3238863D01*
G01X13973995Y-3233275D01*
G01X13968153Y-3221845D01*
G01X14170337Y-3164695D02*
G01X14164495Y-3181713D01*
G01X14153065Y-3193143D01*
G01X14136047Y-3198985D01*
G01X14130205Y-3198985D01*
G01X14113187Y-3193143D01*
G01X14101757Y-3181713D01*
G01X14095915Y-3164695D01*
G01X14095915Y-3158853D01*
G01X14101757Y-3141835D01*
G01X14113187Y-3130405D01*
G01X14130205Y-3124563D01*
G01X14136047Y-3124563D01*
G01X14153065Y-3130405D01*
G01X14164495Y-3141835D01*
G01X14170337Y-3164695D01*
G01X14170337Y-3193143D01*
G01X14164495Y-3221845D01*
G01X14153065Y-3238863D01*
G01X14136047Y-3244705D01*
G01X14124617Y-3244705D01*
G01X14107345Y-3238863D01*
G01X14101757Y-3227433D01*
G01X14223931Y-3216003D02*
G01X14218089Y-3221845D01*
G01X14223931Y-3227433D01*
G01X14229519Y-3221845D01*
G01X14223931Y-3216003D01*
G01X14277271Y-3147423D02*
G01X14288701Y-3141835D01*
G01X14305973Y-3124563D01*
G01X14305973Y-3244705D01*
G01X14353725Y-3164695D02*
G01X14353725Y-3244705D01*
G01X14353725Y-3187555D02*
G01X14370997Y-3170283D01*
G01X14382427Y-3164695D01*
G01X14399445Y-3164695D01*
G01X14410875Y-3170283D01*
G01X14416717Y-3187555D01*
G01X14416717Y-3244705D01*
G01X14416717Y-3187555D02*
G01X14433735Y-3170283D01*
G01X14445165Y-3164695D01*
G01X14462437Y-3164695D01*
G01X14473867Y-3170283D01*
G01X14479455Y-3187555D01*
G01X14479455Y-3244705D01*
G01X14527207Y-3124563D02*
G01X14533049Y-3130405D01*
G01X14538637Y-3124563D01*
G01X14533049Y-3118975D01*
G01X14527207Y-3124563D01*
G01X14533049Y-3164695D02*
G01X14533049Y-3244705D01*
G01X14586389Y-3124563D02*
G01X14586389Y-3244705D01*
G01X14674273Y-3101703D02*
G01X14662843Y-3113133D01*
G01X14651413Y-3130405D01*
G01X14639983Y-3153265D01*
G01X14634141Y-3181713D01*
G01X14634141Y-3204573D01*
G01X14639983Y-3233275D01*
G01X14651413Y-3256135D01*
G01X14662843Y-3273153D01*
G01X14674273Y-3284583D01*
G01X14722025Y-3147423D02*
G01X14733455Y-3141835D01*
G01X14750727Y-3124563D01*
G01X14750727Y-3244705D01*
G01X14804321Y-3216003D02*
G01X14798479Y-3221845D01*
G01X14804321Y-3227433D01*
G01X14809909Y-3221845D01*
G01X14804321Y-3216003D01*
G01X14926241Y-3124563D02*
G01X14869091Y-3124563D01*
G01X14863503Y-3176125D01*
G01X14869091Y-3170283D01*
G01X14886363Y-3164695D01*
G01X14903381Y-3164695D01*
G01X14920653Y-3170283D01*
G01X14932083Y-3181713D01*
G01X14937671Y-3198985D01*
G01X14937671Y-3210415D01*
G01X14932083Y-3227433D01*
G01X14920653Y-3238863D01*
G01X14903381Y-3244705D01*
G01X14886363Y-3244705D01*
G01X14869091Y-3238863D01*
G01X14863503Y-3233275D01*
G01X14857661Y-3221845D01*
G01X15019713Y-3124563D02*
G01X15002695Y-3130405D01*
G01X14991265Y-3147423D01*
G01X14985423Y-3176125D01*
G01X14985423Y-3193143D01*
G01X14991265Y-3221845D01*
G01X15002695Y-3238863D01*
G01X15019713Y-3244705D01*
G01X15031143Y-3244705D01*
G01X15048415Y-3238863D01*
G01X15059845Y-3221845D01*
G01X15065433Y-3193143D01*
G01X15065433Y-3176125D01*
G01X15059845Y-3147423D01*
G01X15048415Y-3130405D01*
G01X15031143Y-3124563D01*
G01X15019713Y-3124563D01*
G01X15147475Y-3124563D02*
G01X15130457Y-3130405D01*
G01X15119027Y-3147423D01*
G01X15113185Y-3176125D01*
G01X15113185Y-3193143D01*
G01X15119027Y-3221845D01*
G01X15130457Y-3238863D01*
G01X15147475Y-3244705D01*
G01X15158905Y-3244705D01*
G01X15176177Y-3238863D01*
G01X15187607Y-3221845D01*
G01X15193195Y-3193143D01*
G01X15193195Y-3176125D01*
G01X15187607Y-3147423D01*
G01X15176177Y-3130405D01*
G01X15158905Y-3124563D01*
G01X15147475Y-3124563D01*
G01X15240947Y-3164695D02*
G01X15303939Y-3244705D01*
G01X15303939Y-3164695D02*
G01X15240947Y-3244705D01*
G01X15351691Y-3147423D02*
G01X15363121Y-3141835D01*
G01X15380393Y-3124563D01*
G01X15380393Y-3244705D01*
G01X15433987Y-3216003D02*
G01X15428145Y-3221845D01*
G01X15433987Y-3227433D01*
G01X15439575Y-3221845D01*
G01X15433987Y-3216003D01*
G01X15555907Y-3124563D02*
G01X15498757Y-3124563D01*
G01X15493169Y-3176125D01*
G01X15498757Y-3170283D01*
G01X15516029Y-3164695D01*
G01X15533047Y-3164695D01*
G01X15550319Y-3170283D01*
G01X15561749Y-3181713D01*
G01X15567337Y-3198985D01*
G01X15567337Y-3210415D01*
G01X15561749Y-3227433D01*
G01X15550319Y-3238863D01*
G01X15533047Y-3244705D01*
G01X15516029Y-3244705D01*
G01X15498757Y-3238863D01*
G01X15493169Y-3233275D01*
G01X15487327Y-3221845D01*
G01X15649379Y-3124563D02*
G01X15632361Y-3130405D01*
G01X15620931Y-3147423D01*
G01X15615089Y-3176125D01*
G01X15615089Y-3193143D01*
G01X15620931Y-3221845D01*
G01X15632361Y-3238863D01*
G01X15649379Y-3244705D01*
G01X15660809Y-3244705D01*
G01X15678081Y-3238863D01*
G01X15689511Y-3221845D01*
G01X15695099Y-3193143D01*
G01X15695099Y-3176125D01*
G01X15689511Y-3147423D01*
G01X15678081Y-3130405D01*
G01X15660809Y-3124563D01*
G01X15649379Y-3124563D01*
G01X15777141Y-3124563D02*
G01X15760123Y-3130405D01*
G01X15748693Y-3147423D01*
G01X15742851Y-3176125D01*
G01X15742851Y-3193143D01*
G01X15748693Y-3221845D01*
G01X15760123Y-3238863D01*
G01X15777141Y-3244705D01*
G01X15788571Y-3244705D01*
G01X15805843Y-3238863D01*
G01X15817273Y-3221845D01*
G01X15822861Y-3193143D01*
G01X15822861Y-3176125D01*
G01X15817273Y-3147423D01*
G01X15805843Y-3130405D01*
G01X15788571Y-3124563D01*
G01X15777141Y-3124563D01*
G01X15870613Y-3164695D02*
G01X15870613Y-3244705D01*
G01X15870613Y-3187555D02*
G01X15887885Y-3170283D01*
G01X15899315Y-3164695D01*
G01X15916333Y-3164695D01*
G01X15927763Y-3170283D01*
G01X15933605Y-3187555D01*
G01X15933605Y-3244705D01*
G01X15933605Y-3187555D02*
G01X15950623Y-3170283D01*
G01X15962053Y-3164695D01*
G01X15979325Y-3164695D01*
G01X15990755Y-3170283D01*
G01X15996343Y-3187555D01*
G01X15996343Y-3244705D01*
G01X16044095Y-3164695D02*
G01X16044095Y-3244705D01*
G01X16044095Y-3187555D02*
G01X16061367Y-3170283D01*
G01X16072797Y-3164695D01*
G01X16089815Y-3164695D01*
G01X16101245Y-3170283D01*
G01X16107087Y-3187555D01*
G01X16107087Y-3244705D01*
G01X16107087Y-3187555D02*
G01X16124105Y-3170283D01*
G01X16135535Y-3164695D01*
G01X16152807Y-3164695D01*
G01X16164237Y-3170283D01*
G01X16169825Y-3187555D01*
G01X16169825Y-3244705D01*
G01X16217577Y-3101703D02*
G01X16229007Y-3113133D01*
G01X16240437Y-3130405D01*
G01X16251867Y-3153265D01*
G01X16257709Y-3181713D01*
G01X16257709Y-3204573D01*
G01X16251867Y-3233275D01*
G01X16240437Y-3256135D01*
G01X16229007Y-3273153D01*
G01X16217577Y-3284583D01*
G01X17529887Y-3124563D02*
G01X17529887Y-3244705D01*
G01X17529887Y-3124563D02*
G01X17581449Y-3124563D01*
G01X17598467Y-3130405D01*
G01X17604309Y-3135993D01*
G01X17609897Y-3147423D01*
G01X17609897Y-3164695D01*
G01X17604309Y-3176125D01*
G01X17598467Y-3181713D01*
G01X17581449Y-3187555D01*
G01X17529887Y-3187555D01*
G01X17697781Y-3124563D02*
G01X17697781Y-3244705D01*
G01X17657649Y-3124563D02*
G01X17737659Y-3124563D01*
G01X17785411Y-3124563D02*
G01X17785411Y-3244705D01*
G01X17865421Y-3124563D02*
G01X17865421Y-3244705D01*
G01X17785411Y-3181713D02*
G01X17865421Y-3181713D01*
G01X18991294Y-3124563D02*
G01X18991294Y-3244705D01*
G01X18991294Y-3124563D02*
G01X19042856Y-3124563D01*
G01X19059874Y-3130405D01*
G01X19065716Y-3135993D01*
G01X19071304Y-3147423D01*
G01X19071304Y-3158853D01*
G01X19065716Y-3170283D01*
G01X19059874Y-3176125D01*
G01X19042856Y-3181713D01*
G01X18991294Y-3181713D01*
G01X19031426Y-3181713D02*
G01X19071304Y-3244705D01*
G01X19147758Y-3164695D02*
G01X19136328Y-3170283D01*
G01X19124898Y-3181713D01*
G01X19119056Y-3198985D01*
G01X19119056Y-3210415D01*
G01X19124898Y-3227433D01*
G01X19136328Y-3238863D01*
G01X19147758Y-3244705D01*
G01X19164776Y-3244705D01*
G01X19176206Y-3238863D01*
G01X19187636Y-3227433D01*
G01X19193478Y-3210415D01*
G01X19193478Y-3198985D01*
G01X19187636Y-3181713D01*
G01X19176206Y-3170283D01*
G01X19164776Y-3164695D01*
G01X19147758Y-3164695D01*
G01X19241230Y-3164695D02*
G01X19241230Y-3221845D01*
G01X19247072Y-3238863D01*
G01X19258502Y-3244705D01*
G01X19275520Y-3244705D01*
G01X19286950Y-3238863D01*
G01X19304222Y-3221845D01*
G01X19304222Y-3164695D02*
G01X19304222Y-3244705D01*
G01X19351974Y-3164695D02*
G01X19351974Y-3244705D01*
G01X19351974Y-3187555D02*
G01X19369246Y-3170283D01*
G01X19380676Y-3164695D01*
G01X19397694Y-3164695D01*
G01X19409124Y-3170283D01*
G01X19414966Y-3187555D01*
G01X19414966Y-3244705D01*
G01X19531298Y-3124563D02*
G01X19531298Y-3244705D01*
G01X19531298Y-3181713D02*
G01X19519868Y-3170283D01*
G01X19508438Y-3164695D01*
G01X19491420Y-3164695D01*
G01X19479990Y-3170283D01*
G01X19468560Y-3181713D01*
G01X19462718Y-3198985D01*
G01X19462718Y-3210415D01*
G01X19468560Y-3227433D01*
G01X19479990Y-3238863D01*
G01X19491420Y-3244705D01*
G01X19508438Y-3244705D01*
G01X19519868Y-3238863D01*
G01X19531298Y-3227433D01*
G01X20422475Y-3124563D02*
G01X20422475Y-3244705D01*
G01X20422475Y-3124563D02*
G01X20474037Y-3124563D01*
G01X20491055Y-3130405D01*
G01X20496897Y-3135993D01*
G01X20502485Y-3147423D01*
G01X20502485Y-3164695D01*
G01X20496897Y-3176125D01*
G01X20491055Y-3181713D01*
G01X20474037Y-3187555D01*
G01X20422475Y-3187555D01*
G01X20618817Y-3164695D02*
G01X20618817Y-3244705D01*
G01X20618817Y-3181713D02*
G01X20607387Y-3170283D01*
G01X20595957Y-3164695D01*
G01X20578939Y-3164695D01*
G01X20567509Y-3170283D01*
G01X20556079Y-3181713D01*
G01X20550237Y-3198985D01*
G01X20550237Y-3210415D01*
G01X20556079Y-3227433D01*
G01X20567509Y-3238863D01*
G01X20578939Y-3244705D01*
G01X20595957Y-3244705D01*
G01X20607387Y-3238863D01*
G01X20618817Y-3227433D01*
G01X20735149Y-3124563D02*
G01X20735149Y-3244705D01*
G01X20735149Y-3181713D02*
G01X20723719Y-3170283D01*
G01X20712289Y-3164695D01*
G01X20695271Y-3164695D01*
G01X20683841Y-3170283D01*
G01X20672411Y-3181713D01*
G01X20666569Y-3198985D01*
G01X20666569Y-3210415D01*
G01X20672411Y-3227433D01*
G01X20683841Y-3238863D01*
G01X20695271Y-3244705D01*
G01X20712289Y-3244705D01*
G01X20723719Y-3238863D01*
G01X20735149Y-3227433D01*
G01X22131786Y-3101703D02*
G01X22120356Y-3113133D01*
G01X22108926Y-3130405D01*
G01X22097496Y-3153265D01*
G01X22091654Y-3181713D01*
G01X22091654Y-3204573D01*
G01X22097496Y-3233275D01*
G01X22108926Y-3256135D01*
G01X22120356Y-3273153D01*
G01X22131786Y-3284583D01*
G01X22179538Y-3124563D02*
G01X22179538Y-3244705D01*
G01X22179538Y-3124563D02*
G01X22225258Y-3244705D01*
G01X22270978Y-3124563D02*
G01X22225258Y-3244705D01*
G01X22270978Y-3124563D02*
G01X22270978Y-3244705D01*
G01X22318730Y-3124563D02*
G01X22324572Y-3130405D01*
G01X22330160Y-3124563D01*
G01X22324572Y-3118975D01*
G01X22318730Y-3124563D01*
G01X22324572Y-3164695D02*
G01X22324572Y-3244705D01*
G01X22377912Y-3164695D02*
G01X22440904Y-3244705D01*
G01X22440904Y-3164695D02*
G01X22377912Y-3244705D01*
G01X22488656Y-3198985D02*
G01X22557236Y-3198985D01*
G01X22557236Y-3187555D01*
G01X22551648Y-3176125D01*
G01X22545806Y-3170283D01*
G01X22534376Y-3164695D01*
G01X22517358Y-3164695D01*
G01X22505928Y-3170283D01*
G01X22494498Y-3181713D01*
G01X22488656Y-3198985D01*
G01X22488656Y-3210415D01*
G01X22494498Y-3227433D01*
G01X22505928Y-3238863D01*
G01X22517358Y-3244705D01*
G01X22534376Y-3244705D01*
G01X22545806Y-3238863D01*
G01X22557236Y-3227433D01*
G01X22673568Y-3124563D02*
G01X22673568Y-3244705D01*
G01X22673568Y-3181713D02*
G01X22662138Y-3170283D01*
G01X22650708Y-3164695D01*
G01X22633690Y-3164695D01*
G01X22622260Y-3170283D01*
G01X22610830Y-3181713D01*
G01X22604988Y-3198985D01*
G01X22604988Y-3210415D01*
G01X22610830Y-3227433D01*
G01X22622260Y-3238863D01*
G01X22633690Y-3244705D01*
G01X22650708Y-3244705D01*
G01X22662138Y-3238863D01*
G01X22673568Y-3227433D01*
G01X22721320Y-3101703D02*
G01X22732750Y-3113133D01*
G01X22744180Y-3130405D01*
G01X22755610Y-3153265D01*
G01X22761452Y-3181713D01*
G01X22761452Y-3204573D01*
G01X22755610Y-3233275D01*
G01X22744180Y-3256135D01*
G01X22732750Y-3273153D01*
G01X22721320Y-3284583D01*
G01X24051155Y-3124563D02*
G01X24051155Y-3244705D01*
G01X24011023Y-3124563D02*
G01X24091033Y-3124563D01*
G01X24167487Y-3164695D02*
G01X24156057Y-3170283D01*
G01X24144627Y-3181713D01*
G01X24138785Y-3198985D01*
G01X24138785Y-3210415D01*
G01X24144627Y-3227433D01*
G01X24156057Y-3238863D01*
G01X24167487Y-3244705D01*
G01X24184505Y-3244705D01*
G01X24195935Y-3238863D01*
G01X24207365Y-3227433D01*
G01X24213207Y-3210415D01*
G01X24213207Y-3198985D01*
G01X24207365Y-3181713D01*
G01X24195935Y-3170283D01*
G01X24184505Y-3164695D01*
G01X24167487Y-3164695D01*
G01X24260959Y-3164695D02*
G01X24260959Y-3284583D01*
G01X24260959Y-3181713D02*
G01X24272389Y-3170283D01*
G01X24283819Y-3164695D01*
G01X24301091Y-3164695D01*
G01X24312521Y-3170283D01*
G01X24323951Y-3181713D01*
G01X24329539Y-3198985D01*
G01X24329539Y-3210415D01*
G01X24323951Y-3227433D01*
G01X24312521Y-3238863D01*
G01X24301091Y-3244705D01*
G01X24283819Y-3244705D01*
G01X24272389Y-3238863D01*
G01X24260959Y-3227433D01*
G01X24505307Y-3124563D02*
G01X24505307Y-3244705D01*
G01X24505307Y-3244705D02*
G01X24573887Y-3244705D01*
G01X24690219Y-3164695D02*
G01X24690219Y-3244705D01*
G01X24690219Y-3181713D02*
G01X24678789Y-3170283D01*
G01X24667359Y-3164695D01*
G01X24650341Y-3164695D01*
G01X24638911Y-3170283D01*
G01X24627481Y-3181713D01*
G01X24621639Y-3198985D01*
G01X24621639Y-3210415D01*
G01X24627481Y-3227433D01*
G01X24638911Y-3238863D01*
G01X24650341Y-3244705D01*
G01X24667359Y-3244705D01*
G01X24678789Y-3238863D01*
G01X24690219Y-3227433D01*
G01X24743813Y-3164695D02*
G01X24778103Y-3244705D01*
G01X24812393Y-3164695D02*
G01X24778103Y-3244705D01*
G01X24766673Y-3267565D01*
G01X24755243Y-3278995D01*
G01X24743813Y-3284583D01*
G01X24737971Y-3284583D01*
G01X24860145Y-3198985D02*
G01X24928725Y-3198985D01*
G01X24928725Y-3187555D01*
G01X24923137Y-3176125D01*
G01X24917295Y-3170283D01*
G01X24905865Y-3164695D01*
G01X24888847Y-3164695D01*
G01X24877417Y-3170283D01*
G01X24865987Y-3181713D01*
G01X24860145Y-3198985D01*
G01X24860145Y-3210415D01*
G01X24865987Y-3227433D01*
G01X24877417Y-3238863D01*
G01X24888847Y-3244705D01*
G01X24905865Y-3244705D01*
G01X24917295Y-3238863D01*
G01X24928725Y-3227433D01*
G01X24976477Y-3164695D02*
G01X24976477Y-3244705D01*
G01X24976477Y-3198985D02*
G01X24982319Y-3181713D01*
G01X24993749Y-3170283D01*
G01X25005179Y-3164695D01*
G01X25022197Y-3164695D01*
G01X25069949Y-3193143D02*
G01X25172819Y-3193143D01*
G01X25220571Y-3124563D02*
G01X25220571Y-3244705D01*
G01X25220571Y-3124563D02*
G01X25272133Y-3124563D01*
G01X25289151Y-3130405D01*
G01X25294993Y-3135993D01*
G01X25300581Y-3147423D01*
G01X25300581Y-3158853D01*
G01X25294993Y-3170283D01*
G01X25289151Y-3176125D01*
G01X25272133Y-3181713D01*
G01X25220571Y-3181713D02*
G01X25272133Y-3181713D01*
G01X25289151Y-3187555D01*
G01X25294993Y-3193143D01*
G01X25300581Y-3204573D01*
G01X25300581Y-3221845D01*
G01X25294993Y-3233275D01*
G01X25289151Y-3238863D01*
G01X25272133Y-3244705D01*
G01X25220571Y-3244705D01*
G01X25377035Y-3164695D02*
G01X25365605Y-3170283D01*
G01X25354175Y-3181713D01*
G01X25348333Y-3198985D01*
G01X25348333Y-3210415D01*
G01X25354175Y-3227433D01*
G01X25365605Y-3238863D01*
G01X25377035Y-3244705D01*
G01X25394053Y-3244705D01*
G01X25405483Y-3238863D01*
G01X25416913Y-3227433D01*
G01X25422755Y-3210415D01*
G01X25422755Y-3198985D01*
G01X25416913Y-3181713D01*
G01X25405483Y-3170283D01*
G01X25394053Y-3164695D01*
G01X25377035Y-3164695D01*
G01X25487779Y-3124563D02*
G01X25487779Y-3221845D01*
G01X25493367Y-3238863D01*
G01X25504797Y-3244705D01*
G01X25516227Y-3244705D01*
G01X25470507Y-3164695D02*
G01X25510639Y-3164695D01*
G01X25581251Y-3124563D02*
G01X25581251Y-3221845D01*
G01X25586839Y-3238863D01*
G01X25598269Y-3244705D01*
G01X25609699Y-3244705D01*
G01X25563979Y-3164695D02*
G01X25604111Y-3164695D01*
G01X25686153Y-3164695D02*
G01X25674723Y-3170283D01*
G01X25663293Y-3181713D01*
G01X25657451Y-3198985D01*
G01X25657451Y-3210415D01*
G01X25663293Y-3227433D01*
G01X25674723Y-3238863D01*
G01X25686153Y-3244705D01*
G01X25703171Y-3244705D01*
G01X25714601Y-3238863D01*
G01X25726031Y-3227433D01*
G01X25731873Y-3210415D01*
G01X25731873Y-3198985D01*
G01X25726031Y-3181713D01*
G01X25714601Y-3170283D01*
G01X25703171Y-3164695D01*
G01X25686153Y-3164695D01*
G01X25779625Y-3164695D02*
G01X25779625Y-3244705D01*
G01X25779625Y-3187555D02*
G01X25796897Y-3170283D01*
G01X25808327Y-3164695D01*
G01X25825345Y-3164695D01*
G01X25836775Y-3170283D01*
G01X25842617Y-3187555D01*
G01X25842617Y-3244705D01*
G01X25842617Y-3187555D02*
G01X25859635Y-3170283D01*
G01X25871065Y-3164695D01*
G01X25888337Y-3164695D01*
G01X25899767Y-3170283D01*
G01X25905355Y-3187555D01*
G01X25905355Y-3244705D01*
G01X26081123Y-3124563D02*
G01X26081123Y-3244705D01*
G01X26081123Y-3244705D02*
G01X26149703Y-3244705D01*
G01X26266035Y-3164695D02*
G01X26266035Y-3244705D01*
G01X26266035Y-3181713D02*
G01X26254605Y-3170283D01*
G01X26243175Y-3164695D01*
G01X26226157Y-3164695D01*
G01X26214727Y-3170283D01*
G01X26203297Y-3181713D01*
G01X26197455Y-3198985D01*
G01X26197455Y-3210415D01*
G01X26203297Y-3227433D01*
G01X26214727Y-3238863D01*
G01X26226157Y-3244705D01*
G01X26243175Y-3244705D01*
G01X26254605Y-3238863D01*
G01X26266035Y-3227433D01*
G01X26319629Y-3164695D02*
G01X26353919Y-3244705D01*
G01X26388209Y-3164695D02*
G01X26353919Y-3244705D01*
G01X26342489Y-3267565D01*
G01X26331059Y-3278995D01*
G01X26319629Y-3284583D01*
G01X26313787Y-3284583D01*
G01X26435961Y-3198985D02*
G01X26504541Y-3198985D01*
G01X26504541Y-3187555D01*
G01X26498953Y-3176125D01*
G01X26493111Y-3170283D01*
G01X26481681Y-3164695D01*
G01X26464663Y-3164695D01*
G01X26453233Y-3170283D01*
G01X26441803Y-3181713D01*
G01X26435961Y-3198985D01*
G01X26435961Y-3210415D01*
G01X26441803Y-3227433D01*
G01X26453233Y-3238863D01*
G01X26464663Y-3244705D01*
G01X26481681Y-3244705D01*
G01X26493111Y-3238863D01*
G01X26504541Y-3227433D01*
G01X26552293Y-3164695D02*
G01X26552293Y-3244705D01*
G01X26552293Y-3198985D02*
G01X26558135Y-3181713D01*
G01X26569565Y-3170283D01*
G01X26580995Y-3164695D01*
G01X26598013Y-3164695D01*
G01X12132096Y-3745266D02*
G01X12126254Y-3762284D01*
G01X12114824Y-3773714D01*
G01X12097806Y-3779556D01*
G01X12091964Y-3779556D01*
G01X12074946Y-3773714D01*
G01X12063516Y-3762284D01*
G01X12057674Y-3745266D01*
G01X12057674Y-3739424D01*
G01X12063516Y-3722406D01*
G01X12074946Y-3710976D01*
G01X12091964Y-3705134D01*
G01X12097806Y-3705134D01*
G01X12114824Y-3710976D01*
G01X12126254Y-3722406D01*
G01X12132096Y-3745266D01*
G01X12132096Y-3773714D01*
G01X12126254Y-3802416D01*
G01X12114824Y-3819434D01*
G01X12097806Y-3825276D01*
G01X12086376Y-3825276D01*
G01X12069104Y-3819434D01*
G01X12063516Y-3808004D01*
G01X12236998Y-3705134D02*
G01X12179848Y-3785144D01*
G01X12265700Y-3785144D01*
G01X12236998Y-3705134D02*
G01X12236998Y-3825276D01*
G01X13471837Y-3727994D02*
G01X13483267Y-3722406D01*
G01X13500539Y-3705134D01*
G01X13500539Y-3825276D01*
G01X13554133Y-3733836D02*
G01X13554133Y-3727994D01*
G01X13559721Y-3716564D01*
G01X13565563Y-3710976D01*
G01X13576993Y-3705134D01*
G01X13599853Y-3705134D01*
G01X13611283Y-3710976D01*
G01X13616871Y-3716564D01*
G01X13622713Y-3727994D01*
G01X13622713Y-3739424D01*
G01X13616871Y-3750854D01*
G01X13605441Y-3768126D01*
G01X13548291Y-3825276D01*
G01X13628301Y-3825276D01*
G01X13681895Y-3796574D02*
G01X13676053Y-3802416D01*
G01X13681895Y-3808004D01*
G01X13687483Y-3802416D01*
G01X13681895Y-3796574D01*
G01X13769525Y-3705134D02*
G01X13752507Y-3710976D01*
G01X13741077Y-3727994D01*
G01X13735235Y-3756696D01*
G01X13735235Y-3773714D01*
G01X13741077Y-3802416D01*
G01X13752507Y-3819434D01*
G01X13769525Y-3825276D01*
G01X13780955Y-3825276D01*
G01X13798227Y-3819434D01*
G01X13809657Y-3802416D01*
G01X13815245Y-3773714D01*
G01X13815245Y-3756696D01*
G01X13809657Y-3727994D01*
G01X13798227Y-3710976D01*
G01X13780955Y-3705134D01*
G01X13769525Y-3705134D01*
G01X13862997Y-3745266D02*
G01X13862997Y-3825276D01*
G01X13862997Y-3768126D02*
G01X13880269Y-3750854D01*
G01X13891699Y-3745266D01*
G01X13908717Y-3745266D01*
G01X13920147Y-3750854D01*
G01X13925989Y-3768126D01*
G01X13925989Y-3825276D01*
G01X13925989Y-3768126D02*
G01X13943007Y-3750854D01*
G01X13954437Y-3745266D01*
G01X13971709Y-3745266D01*
G01X13983139Y-3750854D01*
G01X13988727Y-3768126D01*
G01X13988727Y-3825276D01*
G01X14036479Y-3705134D02*
G01X14042321Y-3710976D01*
G01X14047909Y-3705134D01*
G01X14042321Y-3699546D01*
G01X14036479Y-3705134D01*
G01X14042321Y-3745266D02*
G01X14042321Y-3825276D01*
G01X14095661Y-3705134D02*
G01X14095661Y-3825276D01*
G01X14183545Y-3682274D02*
G01X14172115Y-3693704D01*
G01X14160685Y-3710976D01*
G01X14149255Y-3733836D01*
G01X14143413Y-3762284D01*
G01X14143413Y-3785144D01*
G01X14149255Y-3813846D01*
G01X14160685Y-3836706D01*
G01X14172115Y-3853724D01*
G01X14183545Y-3865154D01*
G01X14265587Y-3705134D02*
G01X14248569Y-3710976D01*
G01X14237139Y-3727994D01*
G01X14231297Y-3756696D01*
G01X14231297Y-3773714D01*
G01X14237139Y-3802416D01*
G01X14248569Y-3819434D01*
G01X14265587Y-3825276D01*
G01X14277017Y-3825276D01*
G01X14294289Y-3819434D01*
G01X14305719Y-3802416D01*
G01X14311307Y-3773714D01*
G01X14311307Y-3756696D01*
G01X14305719Y-3727994D01*
G01X14294289Y-3710976D01*
G01X14277017Y-3705134D01*
G01X14265587Y-3705134D01*
G01X14364901Y-3796574D02*
G01X14359059Y-3802416D01*
G01X14364901Y-3808004D01*
G01X14370489Y-3802416D01*
G01X14364901Y-3796574D01*
G01X14429671Y-3705134D02*
G01X14492663Y-3705134D01*
G01X14458373Y-3750854D01*
G01X14475391Y-3750854D01*
G01X14486821Y-3756696D01*
G01X14492663Y-3762284D01*
G01X14498251Y-3779556D01*
G01X14498251Y-3790986D01*
G01X14492663Y-3808004D01*
G01X14481233Y-3819434D01*
G01X14463961Y-3825276D01*
G01X14446943Y-3825276D01*
G01X14429671Y-3819434D01*
G01X14424083Y-3813846D01*
G01X14418241Y-3802416D01*
G01X14580293Y-3705134D02*
G01X14563275Y-3710976D01*
G01X14551845Y-3727994D01*
G01X14546003Y-3756696D01*
G01X14546003Y-3773714D01*
G01X14551845Y-3802416D01*
G01X14563275Y-3819434D01*
G01X14580293Y-3825276D01*
G01X14591723Y-3825276D01*
G01X14608995Y-3819434D01*
G01X14620425Y-3802416D01*
G01X14626013Y-3773714D01*
G01X14626013Y-3756696D01*
G01X14620425Y-3727994D01*
G01X14608995Y-3710976D01*
G01X14591723Y-3705134D01*
G01X14580293Y-3705134D01*
G01X14742345Y-3705134D02*
G01X14685195Y-3705134D01*
G01X14679607Y-3756696D01*
G01X14685195Y-3750854D01*
G01X14702467Y-3745266D01*
G01X14719485Y-3745266D01*
G01X14736757Y-3750854D01*
G01X14748187Y-3762284D01*
G01X14753775Y-3779556D01*
G01X14753775Y-3790986D01*
G01X14748187Y-3808004D01*
G01X14736757Y-3819434D01*
G01X14719485Y-3825276D01*
G01X14702467Y-3825276D01*
G01X14685195Y-3819434D01*
G01X14679607Y-3813846D01*
G01X14673765Y-3802416D01*
G01X14801527Y-3745266D02*
G01X14801527Y-3825276D01*
G01X14801527Y-3768126D02*
G01X14818799Y-3750854D01*
G01X14830229Y-3745266D01*
G01X14847247Y-3745266D01*
G01X14858677Y-3750854D01*
G01X14864519Y-3768126D01*
G01X14864519Y-3825276D01*
G01X14864519Y-3768126D02*
G01X14881537Y-3750854D01*
G01X14892967Y-3745266D01*
G01X14910239Y-3745266D01*
G01X14921669Y-3750854D01*
G01X14927257Y-3768126D01*
G01X14927257Y-3825276D01*
G01X14975009Y-3745266D02*
G01X14975009Y-3825276D01*
G01X14975009Y-3768126D02*
G01X14992281Y-3750854D01*
G01X15003711Y-3745266D01*
G01X15020729Y-3745266D01*
G01X15032159Y-3750854D01*
G01X15038001Y-3768126D01*
G01X15038001Y-3825276D01*
G01X15038001Y-3768126D02*
G01X15055019Y-3750854D01*
G01X15066449Y-3745266D01*
G01X15083721Y-3745266D01*
G01X15095151Y-3750854D01*
G01X15100739Y-3768126D01*
G01X15100739Y-3825276D01*
G01X15148491Y-3682274D02*
G01X15159921Y-3693704D01*
G01X15171351Y-3710976D01*
G01X15182781Y-3733836D01*
G01X15188623Y-3762284D01*
G01X15188623Y-3785144D01*
G01X15182781Y-3813846D01*
G01X15171351Y-3836706D01*
G01X15159921Y-3853724D01*
G01X15148491Y-3865154D01*
G01X17529887Y-3705134D02*
G01X17529887Y-3825276D01*
G01X17529887Y-3705134D02*
G01X17581449Y-3705134D01*
G01X17598467Y-3710976D01*
G01X17604309Y-3716564D01*
G01X17609897Y-3727994D01*
G01X17609897Y-3745266D01*
G01X17604309Y-3756696D01*
G01X17598467Y-3762284D01*
G01X17581449Y-3768126D01*
G01X17529887Y-3768126D01*
G01X17697781Y-3705134D02*
G01X17697781Y-3825276D01*
G01X17657649Y-3705134D02*
G01X17737659Y-3705134D01*
G01X17785411Y-3705134D02*
G01X17785411Y-3825276D01*
G01X17865421Y-3705134D02*
G01X17865421Y-3825276D01*
G01X17785411Y-3762284D02*
G01X17865421Y-3762284D01*
G01X18991294Y-3705134D02*
G01X18991294Y-3825276D01*
G01X18991294Y-3705134D02*
G01X19042856Y-3705134D01*
G01X19059874Y-3710976D01*
G01X19065716Y-3716564D01*
G01X19071304Y-3727994D01*
G01X19071304Y-3739424D01*
G01X19065716Y-3750854D01*
G01X19059874Y-3756696D01*
G01X19042856Y-3762284D01*
G01X18991294Y-3762284D01*
G01X19031426Y-3762284D02*
G01X19071304Y-3825276D01*
G01X19147758Y-3745266D02*
G01X19136328Y-3750854D01*
G01X19124898Y-3762284D01*
G01X19119056Y-3779556D01*
G01X19119056Y-3790986D01*
G01X19124898Y-3808004D01*
G01X19136328Y-3819434D01*
G01X19147758Y-3825276D01*
G01X19164776Y-3825276D01*
G01X19176206Y-3819434D01*
G01X19187636Y-3808004D01*
G01X19193478Y-3790986D01*
G01X19193478Y-3779556D01*
G01X19187636Y-3762284D01*
G01X19176206Y-3750854D01*
G01X19164776Y-3745266D01*
G01X19147758Y-3745266D01*
G01X19241230Y-3745266D02*
G01X19241230Y-3802416D01*
G01X19247072Y-3819434D01*
G01X19258502Y-3825276D01*
G01X19275520Y-3825276D01*
G01X19286950Y-3819434D01*
G01X19304222Y-3802416D01*
G01X19304222Y-3745266D02*
G01X19304222Y-3825276D01*
G01X19351974Y-3745266D02*
G01X19351974Y-3825276D01*
G01X19351974Y-3768126D02*
G01X19369246Y-3750854D01*
G01X19380676Y-3745266D01*
G01X19397694Y-3745266D01*
G01X19409124Y-3750854D01*
G01X19414966Y-3768126D01*
G01X19414966Y-3825276D01*
G01X19531298Y-3705134D02*
G01X19531298Y-3825276D01*
G01X19531298Y-3762284D02*
G01X19519868Y-3750854D01*
G01X19508438Y-3745266D01*
G01X19491420Y-3745266D01*
G01X19479990Y-3750854D01*
G01X19468560Y-3762284D01*
G01X19462718Y-3779556D01*
G01X19462718Y-3790986D01*
G01X19468560Y-3808004D01*
G01X19479990Y-3819434D01*
G01X19491420Y-3825276D01*
G01X19508438Y-3825276D01*
G01X19519868Y-3819434D01*
G01X19531298Y-3808004D01*
G01X20422475Y-3705134D02*
G01X20468195Y-3825276D01*
G01X20513915Y-3705134D02*
G01X20468195Y-3825276D01*
G01X20561667Y-3705134D02*
G01X20567509Y-3710976D01*
G01X20573097Y-3705134D01*
G01X20567509Y-3699546D01*
G01X20561667Y-3705134D01*
G01X20567509Y-3745266D02*
G01X20567509Y-3825276D01*
G01X20689429Y-3745266D02*
G01X20689429Y-3825276D01*
G01X20689429Y-3762284D02*
G01X20677999Y-3750854D01*
G01X20666569Y-3745266D01*
G01X20649551Y-3745266D01*
G01X20638121Y-3750854D01*
G01X20626691Y-3762284D01*
G01X20620849Y-3779556D01*
G01X20620849Y-3790986D01*
G01X20626691Y-3808004D01*
G01X20638121Y-3819434D01*
G01X20649551Y-3825276D01*
G01X20666569Y-3825276D01*
G01X20677999Y-3819434D01*
G01X20689429Y-3808004D01*
G01X24051155Y-3705134D02*
G01X24051155Y-3825276D01*
G01X24011023Y-3705134D02*
G01X24091033Y-3705134D01*
G01X24167487Y-3745266D02*
G01X24156057Y-3750854D01*
G01X24144627Y-3762284D01*
G01X24138785Y-3779556D01*
G01X24138785Y-3790986D01*
G01X24144627Y-3808004D01*
G01X24156057Y-3819434D01*
G01X24167487Y-3825276D01*
G01X24184505Y-3825276D01*
G01X24195935Y-3819434D01*
G01X24207365Y-3808004D01*
G01X24213207Y-3790986D01*
G01X24213207Y-3779556D01*
G01X24207365Y-3762284D01*
G01X24195935Y-3750854D01*
G01X24184505Y-3745266D01*
G01X24167487Y-3745266D01*
G01X24260959Y-3745266D02*
G01X24260959Y-3865154D01*
G01X24260959Y-3762284D02*
G01X24272389Y-3750854D01*
G01X24283819Y-3745266D01*
G01X24301091Y-3745266D01*
G01X24312521Y-3750854D01*
G01X24323951Y-3762284D01*
G01X24329539Y-3779556D01*
G01X24329539Y-3790986D01*
G01X24323951Y-3808004D01*
G01X24312521Y-3819434D01*
G01X24301091Y-3825276D01*
G01X24283819Y-3825276D01*
G01X24272389Y-3819434D01*
G01X24260959Y-3808004D01*
G01X24505307Y-3705134D02*
G01X24505307Y-3825276D01*
G01X24505307Y-3825276D02*
G01X24573887Y-3825276D01*
G01X24690219Y-3745266D02*
G01X24690219Y-3825276D01*
G01X24690219Y-3762284D02*
G01X24678789Y-3750854D01*
G01X24667359Y-3745266D01*
G01X24650341Y-3745266D01*
G01X24638911Y-3750854D01*
G01X24627481Y-3762284D01*
G01X24621639Y-3779556D01*
G01X24621639Y-3790986D01*
G01X24627481Y-3808004D01*
G01X24638911Y-3819434D01*
G01X24650341Y-3825276D01*
G01X24667359Y-3825276D01*
G01X24678789Y-3819434D01*
G01X24690219Y-3808004D01*
G01X24743813Y-3745266D02*
G01X24778103Y-3825276D01*
G01X24812393Y-3745266D02*
G01X24778103Y-3825276D01*
G01X24766673Y-3848136D01*
G01X24755243Y-3859566D01*
G01X24743813Y-3865154D01*
G01X24737971Y-3865154D01*
G01X24860145Y-3779556D02*
G01X24928725Y-3779556D01*
G01X24928725Y-3768126D01*
G01X24923137Y-3756696D01*
G01X24917295Y-3750854D01*
G01X24905865Y-3745266D01*
G01X24888847Y-3745266D01*
G01X24877417Y-3750854D01*
G01X24865987Y-3762284D01*
G01X24860145Y-3779556D01*
G01X24860145Y-3790986D01*
G01X24865987Y-3808004D01*
G01X24877417Y-3819434D01*
G01X24888847Y-3825276D01*
G01X24905865Y-3825276D01*
G01X24917295Y-3819434D01*
G01X24928725Y-3808004D01*
G01X24976477Y-3745266D02*
G01X24976477Y-3825276D01*
G01X24976477Y-3779556D02*
G01X24982319Y-3762284D01*
G01X24993749Y-3750854D01*
G01X25005179Y-3745266D01*
G01X25022197Y-3745266D01*
G01X25069949Y-3773714D02*
G01X25172819Y-3773714D01*
G01X25220571Y-3705134D02*
G01X25220571Y-3825276D01*
G01X25220571Y-3705134D02*
G01X25272133Y-3705134D01*
G01X25289151Y-3710976D01*
G01X25294993Y-3716564D01*
G01X25300581Y-3727994D01*
G01X25300581Y-3739424D01*
G01X25294993Y-3750854D01*
G01X25289151Y-3756696D01*
G01X25272133Y-3762284D01*
G01X25220571Y-3762284D02*
G01X25272133Y-3762284D01*
G01X25289151Y-3768126D01*
G01X25294993Y-3773714D01*
G01X25300581Y-3785144D01*
G01X25300581Y-3802416D01*
G01X25294993Y-3813846D01*
G01X25289151Y-3819434D01*
G01X25272133Y-3825276D01*
G01X25220571Y-3825276D01*
G01X25377035Y-3745266D02*
G01X25365605Y-3750854D01*
G01X25354175Y-3762284D01*
G01X25348333Y-3779556D01*
G01X25348333Y-3790986D01*
G01X25354175Y-3808004D01*
G01X25365605Y-3819434D01*
G01X25377035Y-3825276D01*
G01X25394053Y-3825276D01*
G01X25405483Y-3819434D01*
G01X25416913Y-3808004D01*
G01X25422755Y-3790986D01*
G01X25422755Y-3779556D01*
G01X25416913Y-3762284D01*
G01X25405483Y-3750854D01*
G01X25394053Y-3745266D01*
G01X25377035Y-3745266D01*
G01X25487779Y-3705134D02*
G01X25487779Y-3802416D01*
G01X25493367Y-3819434D01*
G01X25504797Y-3825276D01*
G01X25516227Y-3825276D01*
G01X25470507Y-3745266D02*
G01X25510639Y-3745266D01*
G01X25581251Y-3705134D02*
G01X25581251Y-3802416D01*
G01X25586839Y-3819434D01*
G01X25598269Y-3825276D01*
G01X25609699Y-3825276D01*
G01X25563979Y-3745266D02*
G01X25604111Y-3745266D01*
G01X25686153Y-3745266D02*
G01X25674723Y-3750854D01*
G01X25663293Y-3762284D01*
G01X25657451Y-3779556D01*
G01X25657451Y-3790986D01*
G01X25663293Y-3808004D01*
G01X25674723Y-3819434D01*
G01X25686153Y-3825276D01*
G01X25703171Y-3825276D01*
G01X25714601Y-3819434D01*
G01X25726031Y-3808004D01*
G01X25731873Y-3790986D01*
G01X25731873Y-3779556D01*
G01X25726031Y-3762284D01*
G01X25714601Y-3750854D01*
G01X25703171Y-3745266D01*
G01X25686153Y-3745266D01*
G01X25779625Y-3745266D02*
G01X25779625Y-3825276D01*
G01X25779625Y-3768126D02*
G01X25796897Y-3750854D01*
G01X25808327Y-3745266D01*
G01X25825345Y-3745266D01*
G01X25836775Y-3750854D01*
G01X25842617Y-3768126D01*
G01X25842617Y-3825276D01*
G01X25842617Y-3768126D02*
G01X25859635Y-3750854D01*
G01X25871065Y-3745266D01*
G01X25888337Y-3745266D01*
G01X25899767Y-3750854D01*
G01X25905355Y-3768126D01*
G01X25905355Y-3825276D01*
G01X26081123Y-3705134D02*
G01X26081123Y-3825276D01*
G01X26081123Y-3825276D02*
G01X26149703Y-3825276D01*
G01X26266035Y-3745266D02*
G01X26266035Y-3825276D01*
G01X26266035Y-3762284D02*
G01X26254605Y-3750854D01*
G01X26243175Y-3745266D01*
G01X26226157Y-3745266D01*
G01X26214727Y-3750854D01*
G01X26203297Y-3762284D01*
G01X26197455Y-3779556D01*
G01X26197455Y-3790986D01*
G01X26203297Y-3808004D01*
G01X26214727Y-3819434D01*
G01X26226157Y-3825276D01*
G01X26243175Y-3825276D01*
G01X26254605Y-3819434D01*
G01X26266035Y-3808004D01*
G01X26319629Y-3745266D02*
G01X26353919Y-3825276D01*
G01X26388209Y-3745266D02*
G01X26353919Y-3825276D01*
G01X26342489Y-3848136D01*
G01X26331059Y-3859566D01*
G01X26319629Y-3865154D01*
G01X26313787Y-3865154D01*
G01X26435961Y-3779556D02*
G01X26504541Y-3779556D01*
G01X26504541Y-3768126D01*
G01X26498953Y-3756696D01*
G01X26493111Y-3750854D01*
G01X26481681Y-3745266D01*
G01X26464663Y-3745266D01*
G01X26453233Y-3750854D01*
G01X26441803Y-3762284D01*
G01X26435961Y-3779556D01*
G01X26435961Y-3790986D01*
G01X26441803Y-3808004D01*
G01X26453233Y-3819434D01*
G01X26464663Y-3825276D01*
G01X26481681Y-3825276D01*
G01X26493111Y-3819434D01*
G01X26504541Y-3808004D01*
G01X26552293Y-3745266D02*
G01X26552293Y-3825276D01*
G01X26552293Y-3779556D02*
G01X26558135Y-3762284D01*
G01X26569565Y-3750854D01*
G01X26580995Y-3745266D01*
G01X26598013Y-3745266D01*

G04 Image Start*
G36*
G01X10893063Y-2724604D02*
G01X10787449Y-2713123D01*
G01X10744574Y-2810329D01*
G01X10701699Y-2713123D01*
G01X10596086Y-2724604D01*
G01X10658849Y-2638879D01*
G01X10619127Y-2584624D01*
G01X10650620Y-2584624D01*
G01X10690320Y-2638879D01*
G01X10650620Y-2693133D01*
G01X10717447Y-2685869D01*
G01X10717447Y-2685869D01*
G01X10744574Y-2747362D01*
G01X10771701Y-2685869D01*
G01X10838529Y-2693133D01*
G01X10798829Y-2638879D01*
G01X10838503Y-2584650D01*
G01X10771676Y-2591914D01*
G01X10744574Y-2530395D01*
G01X10717447Y-2591889D01*
G01X10650620Y-2584624D01*
G01X10619127Y-2584624D01*
G01X10596086Y-2553154D01*
G01X10701724Y-2564634D01*
G01X10744574Y-2467429D01*
G01X10787449Y-2564634D01*
G01X10893063Y-2553154D01*
G01X10830299Y-2638879D01*
G01X10893063Y-2724604D01*
G37*
G36*
G01X10764069Y-1610299D02*
G01X10756329Y-1610887D01*
G01X10748486Y-1611086D01*
G01X10740643Y-1610887D01*
G01X10732902Y-1610299D01*
G01X10725275Y-1609330D01*
G01X10717770Y-1607990D01*
G01X10703164Y-1604235D01*
G01X10689162Y-1599110D01*
G01X10675840Y-1592693D01*
G01X10663274Y-1585060D01*
G01X10651542Y-1576287D01*
G01X10640720Y-1566452D01*
G01X10630884Y-1555629D01*
G01X10622111Y-1543897D01*
G01X10614478Y-1531332D01*
G01X10608061Y-1518010D01*
G01X10602937Y-1504008D01*
G01X10599182Y-1489402D01*
G01X10597842Y-1481896D01*
G01X10596872Y-1474269D01*
G01X10596284Y-1466529D01*
G01X10596086Y-1458686D01*
G01X10621486Y-1458686D01*
G01X10622143Y-1471652D01*
G01X10624070Y-1484248D01*
G01X10627205Y-1496410D01*
G01X10631482Y-1508072D01*
G01X10636837Y-1519172D01*
G01X10643205Y-1529643D01*
G01X10650523Y-1539423D01*
G01X10658725Y-1548446D01*
G01X10667749Y-1556649D01*
G01X10677528Y-1563966D01*
G01X10688000Y-1570335D01*
G01X10699099Y-1575690D01*
G01X10710762Y-1579966D01*
G01X10722923Y-1583101D01*
G01X10722923Y-1583101D01*
G01X10735519Y-1585029D01*
G01X10748486Y-1585686D01*
G01X10761452Y-1585029D01*
G01X10774048Y-1583101D01*
G01X10786210Y-1579966D01*
G01X10797872Y-1575690D01*
G01X10808972Y-1570335D01*
G01X10819443Y-1563966D01*
G01X10829223Y-1556649D01*
G01X10838246Y-1548446D01*
G01X10846449Y-1539423D01*
G01X10853766Y-1529643D01*
G01X10860135Y-1519172D01*
G01X10865490Y-1508072D01*
G01X10869766Y-1496410D01*
G01X10872901Y-1484248D01*
G01X10874829Y-1471652D01*
G01X10875486Y-1458686D01*
G01X10874829Y-1445719D01*
G01X10872901Y-1433123D01*
G01X10869766Y-1420962D01*
G01X10865490Y-1409299D01*
G01X10860135Y-1398200D01*
G01X10853766Y-1387728D01*
G01X10846449Y-1377949D01*
G01X10838246Y-1368925D01*
G01X10829223Y-1360723D01*
G01X10819443Y-1353405D01*
G01X10808972Y-1347037D01*
G01X10797872Y-1341682D01*
G01X10786210Y-1337405D01*
G01X10774048Y-1334271D01*
G01X10761452Y-1332343D01*
G01X10748486Y-1331686D01*
G01X10735519Y-1332343D01*
G01X10722923Y-1334271D01*
G01X10710762Y-1337405D01*
G01X10699099Y-1341682D01*
G01X10688000Y-1347037D01*
G01X10677528Y-1353405D01*
G01X10667749Y-1360723D01*
G01X10658725Y-1368925D01*
G01X10650523Y-1377949D01*
G01X10643205Y-1387728D01*
G01X10636837Y-1398200D01*
G01X10631482Y-1409299D01*
G01X10627205Y-1420962D01*
G01X10624070Y-1433123D01*
G01X10622143Y-1445719D01*
G01X10621486Y-1458686D01*
G01X10596086Y-1458686D01*
G01X10596284Y-1450843D01*
G01X10596872Y-1443102D01*
G01X10597842Y-1435475D01*
G01X10599182Y-1427970D01*
G01X10602937Y-1413364D01*
G01X10608061Y-1399362D01*
G01X10614478Y-1386040D01*
G01X10622111Y-1373474D01*
G01X10630884Y-1361742D01*
G01X10640720Y-1350920D01*
G01X10651542Y-1341084D01*
G01X10663274Y-1332311D01*
G01X10675840Y-1324678D01*
G01X10689162Y-1318261D01*
G01X10703164Y-1313137D01*
G01X10717770Y-1309382D01*
G01X10725275Y-1308042D01*
G01X10732902Y-1307072D01*
G01X10740643Y-1306484D01*
G01X10748486Y-1306286D01*
G01X10756329Y-1306484D01*
G01X10764069Y-1307072D01*
G01X10771696Y-1308042D01*
G01X10779202Y-1309382D01*
G01X10793808Y-1313137D01*
G01X10807810Y-1318261D01*
G01X10821132Y-1324678D01*
G01X10833697Y-1332311D01*
G01X10845429Y-1341084D01*
G01X10856252Y-1350920D01*
G01X10866087Y-1361742D01*
G01X10874860Y-1373474D01*
G01X10882493Y-1386040D01*
G01X10888910Y-1399362D01*
G01X10894035Y-1413364D01*
G01X10897790Y-1427970D01*
G01X10899130Y-1435475D01*
G01X10900099Y-1443102D01*
G01X10900687Y-1450843D01*
G01X10900886Y-1458686D01*
G01X10900687Y-1466529D01*
G01X10900099Y-1474269D01*
G01X10899130Y-1481896D01*
G01X10897790Y-1489402D01*
G01X10894035Y-1504008D01*
G01X10888910Y-1518010D01*
G01X10882493Y-1531332D01*
G01X10874860Y-1543897D01*
G01X10866087Y-1555629D01*
G01X10856252Y-1566452D01*
G01X10845429Y-1576287D01*
G01X10833697Y-1585060D01*
G01X10821132Y-1592693D01*
G01X10807810Y-1599110D01*
G01X10793808Y-1604235D01*
G01X10779202Y-1607990D01*
G01X10771696Y-1609330D01*
G01X10764069Y-1610299D01*
G37*
G36*
G01X10900886Y-3850237D02*
G01X10817777Y-3850237D01*
G01X10817777Y-3933371D01*
G01X10679220Y-3933371D01*
G01X10679220Y-3850263D01*
G01X10596086Y-3850263D01*
G01X10596086Y-3737106D01*
G01X10621486Y-3737106D01*
G01X10621486Y-3824837D01*
G01X10704620Y-3824837D01*
G01X10704620Y-3907971D01*
G01X10704620Y-3907971D01*
G01X10792352Y-3907971D01*
G01X10792352Y-3824863D01*
G01X10875486Y-3824863D01*
G01X10875486Y-3737106D01*
G01X10792352Y-3737106D01*
G01X10792352Y-3653971D01*
G01X10704620Y-3653971D01*
G01X10704620Y-3737106D01*
G01X10621486Y-3737106D01*
G01X10596086Y-3737106D01*
G01X10596086Y-3711706D01*
G01X10679220Y-3711706D01*
G01X10679220Y-3628571D01*
G01X10817752Y-3628571D01*
G01X10817752Y-3711706D01*
G01X10900886Y-3711706D01*
G01X10900886Y-3850237D01*
G37*
G36*
G01X10900886Y-3048000D02*
G01X10830858Y-3200400D01*
G01X10900886Y-3352800D01*
G01X10748486Y-3282772D01*
G01X10596086Y-3352800D01*
G01X10619848Y-3301086D01*
G01X10647800Y-3301086D01*
G01X10737869Y-3259684D01*
G01X10748486Y-3254807D01*
G01X10759103Y-3259684D01*
G01X10849171Y-3301086D01*
G01X10807769Y-3211017D01*
G01X10802893Y-3200400D01*
G01X10807769Y-3189783D01*
G01X10849171Y-3099714D01*
G01X10759103Y-3141116D01*
G01X10748486Y-3145993D01*
G01X10737869Y-3141116D01*
G01X10647800Y-3099714D01*
G01X10689202Y-3189783D01*
G01X10694079Y-3200400D01*
G01X10694079Y-3200400D01*
G01X10689202Y-3211017D01*
G01X10647800Y-3301086D01*
G01X10619848Y-3301086D01*
G01X10666114Y-3200400D01*
G01X10596086Y-3048000D01*
G01X10748486Y-3118028D01*
G01X10900886Y-3048000D01*
G37*
G36*
G01X10596086Y-1886857D02*
G01X10900886Y-1886857D01*
G01X10748486Y-2150814D01*
G01X10610751Y-1912257D01*
G01X10640079Y-1912257D01*
G01X10748486Y-2100014D01*
G01X10856893Y-1912257D01*
G01X10856893Y-1912257D01*
G01X10640079Y-1912257D01*
G01X10610751Y-1912257D01*
G01X10596086Y-1886857D01*
G37*
G36*
G01X10596086Y-725714D02*
G01X10875486Y-725714D01*
G01X10875486Y-1005114D01*
G01X10596086Y-1005114D01*
G01X10596086Y-751114D01*
G01X10621486Y-751114D01*
G01X10621486Y-979714D01*
G01X10850086Y-979714D01*
G01X10850086Y-751114D01*
G01X10850086Y-751114D01*
G01X10621486Y-751114D01*
G01X10596086Y-751114D01*
G01X10596086Y-725714D01*
G37*

G04 PolygonModel Start*
G54D17*
G01X10305800Y-4064000D02*
G01X27188745Y-4064000D01*
G01X10305800Y-3483429D02*
G01X27188745Y-3483429D01*
G01X10305800Y-2902857D02*
G01X27188745Y-2902857D01*
G01X10305800Y-2322286D02*
G01X27188745Y-2322286D01*
G01X10305800Y-1741714D02*
G01X27188745Y-1741714D01*
G01X10305800Y-1161143D02*
G01X27188745Y-1161143D01*
G01X10305800Y-580571D02*
G01X27188745Y-580571D01*
G01X10305800Y0D02*
G01X27188745Y0D01*
G01X10305800Y0D02*
G01X10305800Y-4038600D01*
G01X11757229Y0D02*
G01X11757229Y-4038600D01*
G01X13171392Y0D02*
G01X13171392Y-4038600D01*
G01X17229441Y0D02*
G01X17229441Y-4038600D01*
G01X18690848Y0D02*
G01X18690848Y-4038600D01*
G01X20122029Y0D02*
G01X20122029Y-4038600D01*
G01X21791208Y0D02*
G01X21791208Y-4038600D01*
G01X23710577Y0D02*
G01X23710577Y-4038600D01*
G01X27188745Y0D02*
G01X27188745Y-4038600D01*

M02*

