G04 Layer: InnerLayer1*
G04 EasyEDA Pro v3.2.148, 2026-07-18 15:47:37*
G04 Gerber Generator version 0.3*
G04 Scale: 100 percent, Rotated: No, Reflected: No*
G04 Dimensions in millimeters*
G04 Leading zeros omitted, absolute positions, 4 integers and 5 decimals*
G04 Generated by one-click*
G04 Object Configs: Pad,Via,Track,Text,Image,Dimension,BoardOutline,BoardCutout,CopperFilled,SolidRegion,FPCStiffener,Line,PlaneZone,ComponentProperty,ComponentSilkscreen,TearDrop*
G04 Layer Configs: 1,15,16,2,3,4,5,6,7,8,9,10,11,13,14,56*
G04 Copper Areas: 37*
%FSLAX45Y45*%
%MOMM*%
%ADD10C,0.2032*%
%ADD11C,0.254*%
%ADD12C,4.064*%
%ADD13C,2.3*%
%ADD14R,2.3X2.3*%
%ADD15O,1.1X2.0*%
%ADD16O,1.2X1.8*%
%ADD17C,0.61*%
%ADD18C,0.7605*%
%ADD19C,0.762*%
G75*


G04 Copper Start*
G36*
G01X48514Y-254000D02*
G01X50381Y-225521D01*
G01X55949Y-197529D01*
G01X65122Y-170504D01*
G01X77745Y-144907D01*
G01X93601Y-121177D01*
G01X112419Y-99719D01*
G01X133877Y-80901D01*
G01X157607Y-65045D01*
G01X183204Y-52422D01*
G01X210229Y-43249D01*
G01X238221Y-37681D01*
G01X266700Y-35814D01*
G01X8051800Y-35814D01*
G01X8080279Y-37681D01*
G01X8108271Y-43249D01*
G01X8135296Y-52422D01*
G01X8160893Y-65045D01*
G01X8184623Y-80901D01*
G01X8206081Y-99719D01*
G01X8224899Y-121177D01*
G01X8240755Y-144907D01*
G01X8253378Y-170504D01*
G01X8262551Y-197529D01*
G01X8268119Y-225521D01*
G01X8269986Y-254000D01*
G01X8269986Y-7645400D01*
G01X8268119Y-7673879D01*
G01X8262551Y-7701871D01*
G01X8253378Y-7728896D01*
G01X8240755Y-7754493D01*
G01X8224899Y-7778223D01*
G01X8206081Y-7799681D01*
G01X8184623Y-7818499D01*
G01X8160893Y-7834355D01*
G01X8135296Y-7846978D01*
G01X8108271Y-7856151D01*
G01X8080279Y-7861719D01*
G01X8051800Y-7863586D01*
G01X266700Y-7863586D01*
G01X238221Y-7861719D01*
G01X210229Y-7856151D01*
G01X183204Y-7846978D01*
G01X157607Y-7834355D01*
G01X133877Y-7818499D01*
G01X112419Y-7799681D01*
G01X93601Y-7778223D01*
G01X77745Y-7754493D01*
G01X65122Y-7728896D01*
G01X55949Y-7701871D01*
G01X50381Y-7673879D01*
G01X48514Y-7645400D01*
G01X48514Y-7505700D01*
G01X2110486Y-7505700D01*
G01X2112371Y-7535656D01*
G01X2117995Y-7565140D01*
G01X2127270Y-7593687D01*
G01X2140050Y-7620846D01*
G01X2156134Y-7646189D01*
G01X2175266Y-7669316D01*
G01X2197147Y-7689863D01*
G01X2221430Y-7707506D01*
G01X2247733Y-7721966D01*
G01X2275641Y-7733016D01*
G01X2304713Y-7740480D01*
G01X2334492Y-7744242D01*
G01X2364508Y-7744242D01*
G01X2394287Y-7740480D01*
G01X2423359Y-7733016D01*
G01X2451267Y-7721966D01*
G01X2477570Y-7707506D01*
G01X2501853Y-7689863D01*
G01X2523734Y-7669316D01*
G01X2542866Y-7646189D01*
G01X2558950Y-7620846D01*
G01X2571730Y-7593687D01*
G01X2574161Y-7586203D01*
G01X4361188Y-7586203D01*
G01X4361188Y-7646203D01*
G01X4363029Y-7664895D01*
G01X4368481Y-7682869D01*
G01X4377335Y-7699434D01*
G01X4389251Y-7713953D01*
G01X4403770Y-7725869D01*
G01X4420335Y-7734723D01*
G01X4438309Y-7740175D01*
G01X4457002Y-7742017D01*
G01X4475694Y-7740175D01*
G01X4493668Y-7734723D01*
G01X4510233Y-7725869D01*
G01X4524752Y-7713953D01*
G01X4536668Y-7699434D01*
G01X4545522Y-7682869D01*
G01X4550974Y-7664895D01*
G01X4552815Y-7646203D01*
G01X4552815Y-7586203D01*
G01X5226185Y-7586203D01*
G01X5226185Y-7646203D01*
G01X5228026Y-7664895D01*
G01X5233478Y-7682869D01*
G01X5242332Y-7699434D01*
G01X5254248Y-7713953D01*
G01X5268767Y-7725869D01*
G01X5285332Y-7734723D01*
G01X5303306Y-7740175D01*
G01X5321999Y-7742017D01*
G01X5340691Y-7740175D01*
G01X5358665Y-7734723D01*
G01X5375230Y-7725869D01*
G01X5389749Y-7713953D01*
G01X5401665Y-7699434D01*
G01X5410519Y-7682869D01*
G01X5415971Y-7664895D01*
G01X5417812Y-7646203D01*
G01X5417812Y-7624508D01*
G01X6029686Y-7624508D01*
G01X6031613Y-7640378D01*
G01X6037282Y-7655326D01*
G01X6046363Y-7668483D01*
G01X6058329Y-7679084D01*
G01X6072485Y-7686513D01*
G01X6088007Y-7690339D01*
G01X6103993Y-7690339D01*
G01X6119515Y-7686513D01*
G01X6133671Y-7679084D01*
G01X6145637Y-7668483D01*
G01X6154718Y-7655326D01*
G01X6160387Y-7640378D01*
G01X6162314Y-7624508D01*
G01X6160387Y-7608639D01*
G01X6154718Y-7593691D01*
G01X6145637Y-7580534D01*
G01X6133671Y-7569933D01*
G01X6119515Y-7562504D01*
G01X6103993Y-7558678D01*
G01X6088007Y-7558678D01*
G01X6072485Y-7562504D01*
G01X6058329Y-7569933D01*
G01X6046363Y-7580534D01*
G01X6037282Y-7593691D01*
G01X6031613Y-7608639D01*
G01X6029686Y-7624508D01*
G01X6029686Y-7624508D01*
G01X5417812Y-7624508D01*
G01X5417812Y-7586203D01*
G01X5415971Y-7567510D01*
G01X5410519Y-7549536D01*
G01X5401665Y-7532971D01*
G01X5389749Y-7518452D01*
G01X5389686Y-7518400D01*
G01X7673086Y-7518400D01*
G01X7674971Y-7548356D01*
G01X7680595Y-7577840D01*
G01X7689870Y-7606387D01*
G01X7702650Y-7633546D01*
G01X7718734Y-7658889D01*
G01X7737866Y-7682016D01*
G01X7759747Y-7702563D01*
G01X7784030Y-7720206D01*
G01X7810333Y-7734666D01*
G01X7838241Y-7745716D01*
G01X7867313Y-7753180D01*
G01X7897092Y-7756942D01*
G01X7927108Y-7756942D01*
G01X7956887Y-7753180D01*
G01X7985959Y-7745716D01*
G01X8013867Y-7734666D01*
G01X8040170Y-7720206D01*
G01X8064453Y-7702563D01*
G01X8086334Y-7682016D01*
G01X8105466Y-7658889D01*
G01X8121550Y-7633546D01*
G01X8134330Y-7606387D01*
G01X8143605Y-7577840D01*
G01X8149229Y-7548356D01*
G01X8151114Y-7518400D01*
G01X8149229Y-7488444D01*
G01X8143605Y-7458960D01*
G01X8134330Y-7430413D01*
G01X8121550Y-7403254D01*
G01X8105466Y-7377911D01*
G01X8086334Y-7354784D01*
G01X8064453Y-7334237D01*
G01X8040170Y-7316594D01*
G01X8013867Y-7302134D01*
G01X7985959Y-7291084D01*
G01X7956887Y-7283620D01*
G01X7927108Y-7279858D01*
G01X7897092Y-7279858D01*
G01X7867313Y-7283620D01*
G01X7838241Y-7291084D01*
G01X7810333Y-7302134D01*
G01X7784030Y-7316594D01*
G01X7759747Y-7334237D01*
G01X7737866Y-7354784D01*
G01X7718734Y-7377911D01*
G01X7702650Y-7403254D01*
G01X7689870Y-7430413D01*
G01X7680595Y-7458960D01*
G01X7674971Y-7488444D01*
G01X7673086Y-7518400D01*
G01X7673086Y-7518400D01*
G01X5389686Y-7518400D01*
G01X5375230Y-7506536D01*
G01X5358665Y-7497682D01*
G01X5340691Y-7492230D01*
G01X5321999Y-7490389D01*
G01X5303306Y-7492230D01*
G01X5285332Y-7497682D01*
G01X5268767Y-7506536D01*
G01X5254248Y-7518452D01*
G01X5242332Y-7532971D01*
G01X5233478Y-7549536D01*
G01X5228026Y-7567510D01*
G01X5226185Y-7586203D01*
G01X5226185Y-7586203D01*
G01X4552815Y-7586203D01*
G01X4550974Y-7567510D01*
G01X4545522Y-7549536D01*
G01X4536668Y-7532971D01*
G01X4524752Y-7518452D01*
G01X4510233Y-7506536D01*
G01X4493668Y-7497682D01*
G01X4475694Y-7492230D01*
G01X4457002Y-7490389D01*
G01X4438309Y-7492230D01*
G01X4420335Y-7497682D01*
G01X4403770Y-7506536D01*
G01X4389251Y-7518452D01*
G01X4377335Y-7532971D01*
G01X4368481Y-7549536D01*
G01X4363029Y-7567510D01*
G01X4361188Y-7586203D01*
G01X4361188Y-7586203D01*
G01X2574161Y-7586203D01*
G01X2581005Y-7565140D01*
G01X2586629Y-7535656D01*
G01X2588514Y-7505700D01*
G01X2586629Y-7475744D01*
G01X2581005Y-7446260D01*
G01X2571730Y-7417713D01*
G01X2558950Y-7390554D01*
G01X2542866Y-7365211D01*
G01X2523734Y-7342084D01*
G01X2501853Y-7321537D01*
G01X2477570Y-7303894D01*
G01X2451267Y-7289434D01*
G01X2423359Y-7278384D01*
G01X2394287Y-7270920D01*
G01X2364508Y-7267158D01*
G01X2334492Y-7267158D01*
G01X2304713Y-7270920D01*
G01X2275641Y-7278384D01*
G01X2247733Y-7289434D01*
G01X2221430Y-7303894D01*
G01X2197147Y-7321537D01*
G01X2175266Y-7342084D01*
G01X2156134Y-7365211D01*
G01X2140050Y-7390554D01*
G01X2127270Y-7417713D01*
G01X2117995Y-7446260D01*
G01X2112371Y-7475744D01*
G01X2110486Y-7505700D01*
G01X2110486Y-7505700D01*
G01X48514Y-7505700D01*
G01X48514Y-7170565D01*
G01X443732Y-7170565D01*
G01X445588Y-7194157D01*
G01X451113Y-7217169D01*
G01X460169Y-7239033D01*
G01X472535Y-7259211D01*
G01X487904Y-7277206D01*
G01X505899Y-7292576D01*
G01X526077Y-7304941D01*
G01X547941Y-7313997D01*
G01X570953Y-7319522D01*
G01X594545Y-7321379D01*
G01X618138Y-7319522D01*
G01X641149Y-7313997D01*
G01X663013Y-7304941D01*
G01X683192Y-7292576D01*
G01X701187Y-7277206D01*
G01X716556Y-7259211D01*
G01X728921Y-7239033D01*
G01X737978Y-7217169D01*
G01X743502Y-7194157D01*
G01X745359Y-7170565D01*
G01X743834Y-7151188D01*
G01X4366188Y-7151188D01*
G01X4366188Y-7241188D01*
G01X4368107Y-7259759D01*
G01X4373783Y-7277545D01*
G01X4382976Y-7293794D01*
G01X4395298Y-7307820D01*
G01X4410227Y-7319030D01*
G01X4427134Y-7326950D01*
G01X4445302Y-7331245D01*
G01X4463966Y-7331735D01*
G01X4482334Y-7328397D01*
G01X4499633Y-7321374D01*
G01X4515129Y-7310962D01*
G01X4528169Y-7297601D01*
G01X4538201Y-7281855D01*
G01X4547505Y-7295166D01*
G01X4559597Y-7306007D01*
G01X4573841Y-7313809D01*
G01X4589488Y-7318159D01*
G01X4605715Y-7318831D01*
G01X4621668Y-7315789D01*
G01X4636508Y-7309192D01*
G01X4649455Y-7299387D01*
G01X4659827Y-7286891D01*
G01X4667081Y-7272360D01*
G01X4670833Y-7256559D01*
G01X4670886Y-7240319D01*
G01X4670629Y-7239204D01*
G01X5012503Y-7239204D01*
G01X5013494Y-7254760D01*
G01X5018089Y-7269655D01*
G01X5026034Y-7283066D01*
G01X5036890Y-7294252D01*
G01X5050057Y-7302595D01*
G01X5064807Y-7307634D01*
G01X5080326Y-7309090D01*
G01X5095757Y-7306884D01*
G01X5110246Y-7301136D01*
G01X5122994Y-7292165D01*
G01X5133903Y-7303204D01*
G01X5146954Y-7311601D01*
G01X5161522Y-7316954D01*
G01X5176905Y-7319004D01*
G01X5192366Y-7317655D01*
G01X5207161Y-7312969D01*
G01X5220581Y-7305174D01*
G01X5231980Y-7294642D01*
G01X5240811Y-7281880D01*
G01X5250847Y-7297620D01*
G01X5263889Y-7310976D01*
G01X5279386Y-7321384D01*
G01X5296684Y-7328402D01*
G01X5315051Y-7331736D01*
G01X5333712Y-7331243D01*
G01X5351878Y-7326946D01*
G01X5368782Y-7319025D01*
G01X5383708Y-7307814D01*
G01X5396028Y-7293789D01*
G01X5405219Y-7277541D01*
G01X5410894Y-7259757D01*
G01X5412812Y-7241188D01*
G01X5412812Y-7234491D01*
G01X6156686Y-7234491D01*
G01X6158613Y-7250361D01*
G01X6164282Y-7265309D01*
G01X6173363Y-7278466D01*
G01X6185329Y-7289067D01*
G01X6199485Y-7296496D01*
G01X6215007Y-7300322D01*
G01X6230993Y-7300322D01*
G01X6246515Y-7296496D01*
G01X6260671Y-7289067D01*
G01X6272637Y-7278466D01*
G01X6281718Y-7265309D01*
G01X6287387Y-7250361D01*
G01X6289314Y-7234491D01*
G01X6287387Y-7218622D01*
G01X6281718Y-7203674D01*
G01X6272637Y-7190517D01*
G01X6260671Y-7179916D01*
G01X6246515Y-7172487D01*
G01X6230993Y-7168661D01*
G01X6215007Y-7168661D01*
G01X6199485Y-7172487D01*
G01X6185329Y-7179916D01*
G01X6173363Y-7190517D01*
G01X6164282Y-7203674D01*
G01X6158613Y-7218622D01*
G01X6156686Y-7234491D01*
G01X6156686Y-7234491D01*
G01X5412812Y-7234491D01*
G01X5412812Y-7151188D01*
G01X5410828Y-7132307D01*
G01X5404961Y-7114251D01*
G01X5395468Y-7097809D01*
G01X5382765Y-7083701D01*
G01X5367405Y-7072541D01*
G01X5350062Y-7064819D01*
G01X5331491Y-7060872D01*
G01X5312506Y-7060872D01*
G01X5293935Y-7064819D01*
G01X5276592Y-7072541D01*
G01X5261232Y-7083701D01*
G01X5248529Y-7097809D01*
G01X5239036Y-7114251D01*
G01X5233169Y-7132307D01*
G01X5231185Y-7151188D01*
G01X5231185Y-7200873D01*
G01X5218828Y-7189988D01*
G01X5204292Y-7182251D01*
G01X5188361Y-7178080D01*
G01X5171898Y-7177702D01*
G01X5155793Y-7181136D01*
G01X5140917Y-7188197D01*
G01X5128073Y-7198503D01*
G01X5128073Y-7198503D01*
G01X5116371Y-7188207D01*
G01X5102588Y-7180926D01*
G01X5087486Y-7177064D01*
G01X5071901Y-7176833D01*
G01X5056692Y-7180247D01*
G01X5042700Y-7187117D01*
G01X5030698Y-7197063D01*
G01X5021349Y-7209536D01*
G01X5015171Y-7223847D01*
G01X5012503Y-7239204D01*
G01X4670629Y-7239204D01*
G01X4667238Y-7224493D01*
G01X4660081Y-7209915D01*
G01X4649790Y-7197351D01*
G01X4636908Y-7187462D01*
G01X4622112Y-7180767D01*
G01X4606179Y-7177619D01*
G01X4589949Y-7178184D01*
G01X4574274Y-7182432D01*
G01X4559979Y-7190140D01*
G01X4547815Y-7200901D01*
G01X4547815Y-7151188D01*
G01X4547815Y-7151188D01*
G01X4545831Y-7132307D01*
G01X4539964Y-7114251D01*
G01X4530471Y-7097809D01*
G01X4517768Y-7083701D01*
G01X4502408Y-7072541D01*
G01X4485065Y-7064819D01*
G01X4466494Y-7060872D01*
G01X4447509Y-7060872D01*
G01X4428938Y-7064819D01*
G01X4411595Y-7072541D01*
G01X4396235Y-7083701D01*
G01X4383532Y-7097809D01*
G01X4374039Y-7114251D01*
G01X4368172Y-7132307D01*
G01X4366188Y-7151188D01*
G01X743834Y-7151188D01*
G01X743502Y-7146972D01*
G01X737978Y-7123961D01*
G01X728921Y-7102097D01*
G01X716556Y-7081919D01*
G01X701187Y-7063923D01*
G01X683192Y-7048554D01*
G01X663013Y-7036189D01*
G01X641149Y-7027132D01*
G01X618138Y-7021608D01*
G01X594545Y-7019751D01*
G01X594545Y-7019751D01*
G01X570953Y-7021608D01*
G01X547941Y-7027132D01*
G01X526077Y-7036189D01*
G01X505899Y-7048554D01*
G01X487904Y-7063923D01*
G01X472535Y-7081919D01*
G01X460169Y-7102097D01*
G01X451113Y-7123961D01*
G01X445588Y-7146972D01*
G01X443732Y-7170565D01*
G01X48514Y-7170565D01*
G01X48514Y-7014864D01*
G01X1264831Y-7014864D01*
G01X1266758Y-7030734D01*
G01X1272427Y-7045682D01*
G01X1281509Y-7058838D01*
G01X1293475Y-7069439D01*
G01X1307630Y-7076869D01*
G01X1323152Y-7080695D01*
G01X1339139Y-7080695D01*
G01X1354661Y-7076869D01*
G01X1368816Y-7069439D01*
G01X1380782Y-7058838D01*
G01X1389864Y-7045682D01*
G01X1395533Y-7030734D01*
G01X1397459Y-7014864D01*
G01X1395533Y-6998994D01*
G01X1389864Y-6984046D01*
G01X1380782Y-6970890D01*
G01X1368816Y-6960289D01*
G01X1354661Y-6952859D01*
G01X1339139Y-6949033D01*
G01X1323152Y-6949033D01*
G01X1307630Y-6952859D01*
G01X1293475Y-6960289D01*
G01X1281509Y-6970890D01*
G01X1272427Y-6984046D01*
G01X1266758Y-6998994D01*
G01X1264831Y-7014864D01*
G01X1264831Y-7014864D01*
G01X48514Y-7014864D01*
G01X48514Y-6944706D01*
G01X4823186Y-6944706D01*
G01X4825113Y-6960576D01*
G01X4830782Y-6975524D01*
G01X4839864Y-6988680D01*
G01X4851830Y-6999281D01*
G01X4865985Y-7006711D01*
G01X4881507Y-7010536D01*
G01X4897494Y-7010536D01*
G01X4913016Y-7006711D01*
G01X4927171Y-6999281D01*
G01X4939137Y-6988680D01*
G01X4948218Y-6975524D01*
G01X4953887Y-6960576D01*
G01X4955814Y-6944706D01*
G01X4953887Y-6928836D01*
G01X4948218Y-6913888D01*
G01X4939137Y-6900732D01*
G01X4927171Y-6890131D01*
G01X4913016Y-6882701D01*
G01X4897494Y-6878876D01*
G01X4881507Y-6878876D01*
G01X4865985Y-6882701D01*
G01X4851830Y-6890131D01*
G01X4839864Y-6900732D01*
G01X4830782Y-6913888D01*
G01X4825113Y-6928836D01*
G01X4823186Y-6944706D01*
G01X4823186Y-6944706D01*
G01X48514Y-6944706D01*
G01X48514Y-6662565D01*
G01X443732Y-6662565D01*
G01X445588Y-6686157D01*
G01X451113Y-6709169D01*
G01X460169Y-6731033D01*
G01X472535Y-6751211D01*
G01X487904Y-6769206D01*
G01X505899Y-6784576D01*
G01X526077Y-6796941D01*
G01X547941Y-6805997D01*
G01X570953Y-6811522D01*
G01X594545Y-6813379D01*
G01X618138Y-6811522D01*
G01X641149Y-6805997D01*
G01X663013Y-6796941D01*
G01X683192Y-6784576D01*
G01X701187Y-6769206D01*
G01X716556Y-6751211D01*
G01X728921Y-6731033D01*
G01X737978Y-6709169D01*
G01X743502Y-6686157D01*
G01X745359Y-6662565D01*
G01X743502Y-6638972D01*
G01X737978Y-6615961D01*
G01X733548Y-6605267D01*
G01X2128432Y-6605267D01*
G01X2130359Y-6621137D01*
G01X2136027Y-6636084D01*
G01X2145109Y-6649241D01*
G01X2157075Y-6659842D01*
G01X2171230Y-6667271D01*
G01X2186752Y-6671097D01*
G01X2202739Y-6671097D01*
G01X2218261Y-6667271D01*
G01X2232416Y-6659842D01*
G01X2244382Y-6649241D01*
G01X2253464Y-6636084D01*
G01X2259133Y-6621137D01*
G01X2261060Y-6605267D01*
G01X2260153Y-6597798D01*
G01X5775683Y-6597798D01*
G01X5777609Y-6613668D01*
G01X5783278Y-6628616D01*
G01X5792360Y-6641772D01*
G01X5804326Y-6652373D01*
G01X5818481Y-6659803D01*
G01X5834003Y-6663629D01*
G01X5849990Y-6663629D01*
G01X5865512Y-6659803D01*
G01X5879667Y-6652373D01*
G01X5891633Y-6641772D01*
G01X5900715Y-6628616D01*
G01X5906383Y-6613668D01*
G01X5908310Y-6597798D01*
G01X5906383Y-6581928D01*
G01X5900715Y-6566980D01*
G01X5891633Y-6553824D01*
G01X5879667Y-6543223D01*
G01X5865512Y-6535793D01*
G01X5849990Y-6531968D01*
G01X5834003Y-6531968D01*
G01X5818481Y-6535793D01*
G01X5804326Y-6543223D01*
G01X5792360Y-6553824D01*
G01X5783278Y-6566980D01*
G01X5777609Y-6581928D01*
G01X5775683Y-6597798D01*
G01X5775683Y-6597798D01*
G01X2260153Y-6597798D01*
G01X2259133Y-6589397D01*
G01X2253464Y-6574449D01*
G01X2244382Y-6561292D01*
G01X2232416Y-6550691D01*
G01X2218261Y-6543262D01*
G01X2202739Y-6539436D01*
G01X2186752Y-6539436D01*
G01X2171230Y-6543262D01*
G01X2157075Y-6550691D01*
G01X2145109Y-6561292D01*
G01X2136027Y-6574449D01*
G01X2130359Y-6589397D01*
G01X2128432Y-6605267D01*
G01X2128432Y-6605267D01*
G01X733548Y-6605267D01*
G01X728921Y-6594097D01*
G01X716556Y-6573919D01*
G01X701187Y-6555923D01*
G01X683192Y-6540554D01*
G01X663013Y-6528189D01*
G01X641149Y-6519132D01*
G01X618138Y-6513608D01*
G01X594545Y-6511751D01*
G01X594545Y-6511751D01*
G01X570953Y-6513608D01*
G01X547941Y-6519132D01*
G01X526077Y-6528189D01*
G01X505899Y-6540554D01*
G01X487904Y-6555923D01*
G01X472535Y-6573919D01*
G01X460169Y-6594097D01*
G01X451113Y-6615961D01*
G01X445588Y-6638972D01*
G01X443732Y-6662565D01*
G01X48514Y-6662565D01*
G01X48514Y-6506864D01*
G01X1264833Y-6506864D01*
G01X1266760Y-6522734D01*
G01X1272429Y-6537682D01*
G01X1281510Y-6550838D01*
G01X1293476Y-6561439D01*
G01X1307631Y-6568869D01*
G01X1323153Y-6572695D01*
G01X1339140Y-6572695D01*
G01X1354662Y-6568869D01*
G01X1368817Y-6561439D01*
G01X1380783Y-6550838D01*
G01X1389865Y-6537682D01*
G01X1395534Y-6522734D01*
G01X1397461Y-6506864D01*
G01X1395534Y-6490994D01*
G01X1389865Y-6476046D01*
G01X1380810Y-6462928D01*
G01X2571237Y-6462928D01*
G01X2573027Y-6479197D01*
G01X2578747Y-6494533D01*
G01X2588049Y-6508000D01*
G01X2600366Y-6518779D01*
G01X2614948Y-6526212D01*
G01X2630906Y-6529848D01*
G01X2630906Y-6529848D01*
G01X2647269Y-6529464D01*
G01X2663040Y-6525084D01*
G01X2677257Y-6516975D01*
G01X2689056Y-6505630D01*
G01X2697716Y-6491742D01*
G01X2702710Y-6476155D01*
G01X2703735Y-6459820D01*
G01X2700727Y-6443731D01*
G01X2693871Y-6428869D01*
G01X2683583Y-6416139D01*
G01X2670490Y-6406316D01*
G01X2655391Y-6400000D01*
G01X2671446Y-6396818D01*
G01X2686233Y-6389800D01*
G01X2698850Y-6379375D01*
G01X2708530Y-6366176D01*
G01X2714682Y-6351009D01*
G01X2716932Y-6334797D01*
G01X2715142Y-6318527D01*
G01X2709422Y-6303192D01*
G01X2700121Y-6289725D01*
G01X2687803Y-6278946D01*
G01X2673221Y-6271512D01*
G01X2657263Y-6267876D01*
G01X2640900Y-6268260D01*
G01X2625129Y-6272640D01*
G01X2610912Y-6280750D01*
G01X2599114Y-6292094D01*
G01X2590454Y-6305983D01*
G01X2585459Y-6321570D01*
G01X2584434Y-6337905D01*
G01X2587442Y-6353994D01*
G01X2594298Y-6368856D01*
G01X2604586Y-6381586D01*
G01X2617679Y-6391408D01*
G01X2632778Y-6397725D01*
G01X2616723Y-6400907D01*
G01X2601937Y-6407924D01*
G01X2589319Y-6418350D01*
G01X2579639Y-6431548D01*
G01X2573487Y-6446716D01*
G01X2571237Y-6462928D01*
G01X1380810Y-6462928D01*
G01X1380783Y-6462890D01*
G01X1368817Y-6452289D01*
G01X1354662Y-6444859D01*
G01X1339140Y-6441033D01*
G01X1323153Y-6441033D01*
G01X1307631Y-6444859D01*
G01X1293476Y-6452289D01*
G01X1281510Y-6462890D01*
G01X1272429Y-6476046D01*
G01X1266760Y-6490994D01*
G01X1264833Y-6506864D01*
G01X1264833Y-6506864D01*
G01X48514Y-6506864D01*
G01X48514Y-6333857D01*
G01X1949312Y-6333857D01*
G01X1951239Y-6349727D01*
G01X1956908Y-6364675D01*
G01X1965989Y-6377832D01*
G01X1977955Y-6388433D01*
G01X1992111Y-6395862D01*
G01X2007633Y-6399688D01*
G01X2023619Y-6399688D01*
G01X2039141Y-6395862D01*
G01X2053297Y-6388433D01*
G01X2065263Y-6377832D01*
G01X2074344Y-6364675D01*
G01X2080013Y-6349727D01*
G01X2081940Y-6333857D01*
G01X2080013Y-6317987D01*
G01X2074344Y-6303040D01*
G01X2065263Y-6289883D01*
G01X2053297Y-6279282D01*
G01X2039141Y-6271853D01*
G01X2023619Y-6268027D01*
G01X2007633Y-6268027D01*
G01X1992111Y-6271853D01*
G01X1977955Y-6279282D01*
G01X1965989Y-6289883D01*
G01X1956908Y-6303040D01*
G01X1951239Y-6317987D01*
G01X1949312Y-6333857D01*
G01X1949312Y-6333857D01*
G01X48514Y-6333857D01*
G01X48514Y-6154565D01*
G01X443732Y-6154565D01*
G01X445588Y-6178157D01*
G01X451113Y-6201169D01*
G01X460169Y-6223033D01*
G01X472535Y-6243211D01*
G01X487904Y-6261206D01*
G01X505899Y-6276576D01*
G01X526077Y-6288941D01*
G01X547941Y-6297997D01*
G01X570953Y-6303522D01*
G01X594545Y-6305379D01*
G01X618138Y-6303522D01*
G01X641149Y-6297997D01*
G01X663013Y-6288941D01*
G01X683192Y-6276576D01*
G01X701187Y-6261206D01*
G01X716556Y-6243211D01*
G01X728921Y-6223033D01*
G01X737978Y-6201169D01*
G01X741493Y-6186528D01*
G01X2833680Y-6186528D01*
G01X2835607Y-6202398D01*
G01X2841276Y-6217345D01*
G01X2850358Y-6230502D01*
G01X2862324Y-6241103D01*
G01X2876479Y-6248532D01*
G01X2892001Y-6252358D01*
G01X2907987Y-6252358D01*
G01X2923509Y-6248532D01*
G01X2937665Y-6241103D01*
G01X2949631Y-6230502D01*
G01X2958712Y-6217345D01*
G01X2964381Y-6202398D01*
G01X2966308Y-6186528D01*
G01X2964381Y-6170658D01*
G01X2958712Y-6155710D01*
G01X2949631Y-6142553D01*
G01X2937665Y-6131952D01*
G01X2923509Y-6124523D01*
G01X2907987Y-6120697D01*
G01X2892001Y-6120697D01*
G01X2876479Y-6124523D01*
G01X2862324Y-6131952D01*
G01X2850358Y-6142553D01*
G01X2841276Y-6155710D01*
G01X2835607Y-6170658D01*
G01X2833680Y-6186528D01*
G01X2833680Y-6186528D01*
G01X741493Y-6186528D01*
G01X743502Y-6178157D01*
G01X745359Y-6154565D01*
G01X743502Y-6130972D01*
G01X737978Y-6107961D01*
G01X733549Y-6097268D01*
G01X2001432Y-6097268D01*
G01X2003359Y-6113138D01*
G01X2009028Y-6128085D01*
G01X2018109Y-6141242D01*
G01X2030075Y-6151843D01*
G01X2044231Y-6159272D01*
G01X2059753Y-6163098D01*
G01X2075739Y-6163098D01*
G01X2091261Y-6159272D01*
G01X2105417Y-6151843D01*
G01X2117383Y-6141242D01*
G01X2126464Y-6128085D01*
G01X2132133Y-6113138D01*
G01X2134060Y-6097268D01*
G01X2132133Y-6081398D01*
G01X2126464Y-6066450D01*
G01X2117383Y-6053293D01*
G01X2105417Y-6042692D01*
G01X2091261Y-6035263D01*
G01X2075739Y-6031437D01*
G01X2059753Y-6031437D01*
G01X2044231Y-6035263D01*
G01X2030075Y-6042692D01*
G01X2018109Y-6053293D01*
G01X2009028Y-6066450D01*
G01X2003359Y-6081398D01*
G01X2001432Y-6097268D01*
G01X2001432Y-6097268D01*
G01X733549Y-6097268D01*
G01X728921Y-6086097D01*
G01X716556Y-6065919D01*
G01X701187Y-6047923D01*
G01X683192Y-6032554D01*
G01X663013Y-6020189D01*
G01X641149Y-6011132D01*
G01X618138Y-6005608D01*
G01X594545Y-6003751D01*
G01X594545Y-6003751D01*
G01X570953Y-6005608D01*
G01X547941Y-6011132D01*
G01X526077Y-6020189D01*
G01X505899Y-6032554D01*
G01X487904Y-6047923D01*
G01X472535Y-6065919D01*
G01X460169Y-6086097D01*
G01X451113Y-6107961D01*
G01X445588Y-6130972D01*
G01X443732Y-6154565D01*
G01X48514Y-6154565D01*
G01X48514Y-6003028D01*
G01X1252131Y-6003028D01*
G01X1254058Y-6018898D01*
G01X1259727Y-6033846D01*
G01X1268809Y-6047003D01*
G01X1280775Y-6057604D01*
G01X1294930Y-6065033D01*
G01X1310452Y-6068859D01*
G01X1326439Y-6068859D01*
G01X1341961Y-6065033D01*
G01X1356116Y-6057604D01*
G01X1368082Y-6047003D01*
G01X1377164Y-6033846D01*
G01X1382833Y-6018898D01*
G01X1384759Y-6003028D01*
G01X1382833Y-5987158D01*
G01X1377164Y-5972211D01*
G01X1368082Y-5959054D01*
G01X1356116Y-5948453D01*
G01X1341961Y-5941024D01*
G01X1326439Y-5937198D01*
G01X1310452Y-5937198D01*
G01X1294930Y-5941024D01*
G01X1280775Y-5948453D01*
G01X1268809Y-5959054D01*
G01X1259727Y-5972211D01*
G01X1254058Y-5987158D01*
G01X1252131Y-6003028D01*
G01X1252131Y-6003028D01*
G01X48514Y-6003028D01*
G01X48514Y-5646565D01*
G01X443732Y-5646565D01*
G01X445588Y-5670157D01*
G01X451113Y-5693169D01*
G01X460169Y-5715033D01*
G01X472535Y-5735211D01*
G01X487904Y-5753206D01*
G01X505899Y-5768576D01*
G01X526077Y-5780941D01*
G01X547941Y-5789997D01*
G01X570953Y-5795522D01*
G01X594545Y-5797379D01*
G01X618138Y-5795522D01*
G01X641149Y-5789997D01*
G01X663013Y-5780941D01*
G01X683192Y-5768576D01*
G01X701187Y-5753206D01*
G01X716556Y-5735211D01*
G01X728921Y-5715033D01*
G01X737978Y-5693169D01*
G01X743502Y-5670157D01*
G01X745359Y-5646565D01*
G01X743502Y-5622972D01*
G01X737978Y-5599961D01*
G01X728921Y-5578097D01*
G01X716556Y-5557919D01*
G01X701187Y-5539923D01*
G01X683192Y-5524554D01*
G01X663013Y-5512189D01*
G01X641149Y-5503132D01*
G01X618138Y-5497608D01*
G01X594545Y-5495751D01*
G01X594545Y-5495751D01*
G01X570953Y-5497608D01*
G01X547941Y-5503132D01*
G01X526077Y-5512189D01*
G01X505899Y-5524554D01*
G01X487904Y-5539923D01*
G01X472535Y-5557919D01*
G01X460169Y-5578097D01*
G01X451113Y-5599961D01*
G01X445588Y-5622972D01*
G01X443732Y-5646565D01*
G01X48514Y-5646565D01*
G01X48514Y-5490864D01*
G01X1239433Y-5490864D01*
G01X1241360Y-5506734D01*
G01X1247029Y-5521682D01*
G01X1256110Y-5534838D01*
G01X1268076Y-5545439D01*
G01X1282231Y-5552869D01*
G01X1297753Y-5556695D01*
G01X1313740Y-5556695D01*
G01X1329262Y-5552869D01*
G01X1343417Y-5545439D01*
G01X1355383Y-5534838D01*
G01X1364465Y-5521682D01*
G01X1370134Y-5506734D01*
G01X1372061Y-5490864D01*
G01X1370134Y-5474994D01*
G01X1364465Y-5460046D01*
G01X1356357Y-5448300D01*
G01X4078986Y-5448300D01*
G01X4080871Y-5478256D01*
G01X4086495Y-5507740D01*
G01X4095770Y-5536287D01*
G01X4108550Y-5563446D01*
G01X4124634Y-5588789D01*
G01X4143766Y-5611916D01*
G01X4165647Y-5632463D01*
G01X4189930Y-5650106D01*
G01X4216233Y-5664566D01*
G01X4244141Y-5675616D01*
G01X4273213Y-5683080D01*
G01X4302992Y-5686842D01*
G01X4333008Y-5686842D01*
G01X4362787Y-5683080D01*
G01X4391859Y-5675616D01*
G01X4419767Y-5664566D01*
G01X4446070Y-5650106D01*
G01X4470353Y-5632463D01*
G01X4492234Y-5611916D01*
G01X4511366Y-5588789D01*
G01X4527450Y-5563446D01*
G01X4540230Y-5536287D01*
G01X4549505Y-5507740D01*
G01X4555129Y-5478256D01*
G01X4557014Y-5448300D01*
G01X4555129Y-5418344D01*
G01X4549505Y-5388860D01*
G01X4540230Y-5360313D01*
G01X4527450Y-5333154D01*
G01X4511366Y-5307811D01*
G01X4492234Y-5284684D01*
G01X4470353Y-5264137D01*
G01X4446070Y-5246494D01*
G01X4419767Y-5232034D01*
G01X4391859Y-5220984D01*
G01X4362787Y-5213520D01*
G01X4333008Y-5209758D01*
G01X4302992Y-5209758D01*
G01X4273213Y-5213520D01*
G01X4244141Y-5220984D01*
G01X4216233Y-5232034D01*
G01X4189930Y-5246494D01*
G01X4165647Y-5264137D01*
G01X4143766Y-5284684D01*
G01X4124634Y-5307811D01*
G01X4108550Y-5333154D01*
G01X4095770Y-5360313D01*
G01X4086495Y-5388860D01*
G01X4080871Y-5418344D01*
G01X4078986Y-5448300D01*
G01X4078986Y-5448300D01*
G01X1356357Y-5448300D01*
G01X1355383Y-5446890D01*
G01X1343417Y-5436289D01*
G01X1329262Y-5428859D01*
G01X1313740Y-5425033D01*
G01X1297753Y-5425033D01*
G01X1282231Y-5428859D01*
G01X1268076Y-5436289D01*
G01X1256110Y-5446890D01*
G01X1247029Y-5460046D01*
G01X1241360Y-5474994D01*
G01X1239433Y-5490864D01*
G01X1239433Y-5490864D01*
G01X48514Y-5490864D01*
G01X48514Y-5377919D01*
G01X3320288Y-5377919D01*
G01X3322215Y-5393789D01*
G01X3327883Y-5408736D01*
G01X3336965Y-5421893D01*
G01X3348931Y-5432494D01*
G01X3363086Y-5439923D01*
G01X3378608Y-5443749D01*
G01X3394595Y-5443749D01*
G01X3410117Y-5439923D01*
G01X3424272Y-5432494D01*
G01X3436238Y-5421893D01*
G01X3445320Y-5408736D01*
G01X3450989Y-5393789D01*
G01X3452915Y-5377919D01*
G01X3450989Y-5362049D01*
G01X3445320Y-5347101D01*
G01X3436238Y-5333944D01*
G01X3424272Y-5323343D01*
G01X3410117Y-5315914D01*
G01X3394595Y-5312088D01*
G01X3378608Y-5312088D01*
G01X3363086Y-5315914D01*
G01X3348931Y-5323343D01*
G01X3336965Y-5333944D01*
G01X3327883Y-5347101D01*
G01X3322215Y-5362049D01*
G01X3320288Y-5377919D01*
G01X3320288Y-5377919D01*
G01X48514Y-5377919D01*
G01X48514Y-5195506D01*
G01X5522892Y-5195506D01*
G01X5524819Y-5211376D01*
G01X5530488Y-5226324D01*
G01X5539570Y-5239481D01*
G01X5551536Y-5250082D01*
G01X5565691Y-5257511D01*
G01X5581213Y-5261337D01*
G01X5597200Y-5261337D01*
G01X5612722Y-5257511D01*
G01X5626877Y-5250082D01*
G01X5638843Y-5239481D01*
G01X5647925Y-5226324D01*
G01X5653594Y-5211376D01*
G01X5655521Y-5195506D01*
G01X5653594Y-5179637D01*
G01X5647925Y-5164689D01*
G01X5638843Y-5151532D01*
G01X5626877Y-5140931D01*
G01X5612722Y-5133502D01*
G01X5597200Y-5129676D01*
G01X5581213Y-5129676D01*
G01X5565691Y-5133502D01*
G01X5551536Y-5140931D01*
G01X5539570Y-5151532D01*
G01X5530488Y-5164689D01*
G01X5524819Y-5179637D01*
G01X5522892Y-5195506D01*
G01X5522892Y-5195506D01*
G01X48514Y-5195506D01*
G01X48514Y-4998320D01*
G01X7886375Y-4998320D01*
G01X7888302Y-5014190D01*
G01X7893971Y-5029138D01*
G01X7903052Y-5042295D01*
G01X7915018Y-5052896D01*
G01X7929173Y-5060325D01*
G01X7944695Y-5064151D01*
G01X7960682Y-5064151D01*
G01X7976204Y-5060325D01*
G01X7990359Y-5052896D01*
G01X8002325Y-5042295D01*
G01X8011407Y-5029138D01*
G01X8017076Y-5014190D01*
G01X8019003Y-4998320D01*
G01X8017076Y-4982450D01*
G01X8011407Y-4967503D01*
G01X8002325Y-4954346D01*
G01X7990359Y-4943745D01*
G01X7976204Y-4936316D01*
G01X7960682Y-4932490D01*
G01X7944695Y-4932490D01*
G01X7929173Y-4936316D01*
G01X7915018Y-4943745D01*
G01X7903052Y-4954346D01*
G01X7893971Y-4967503D01*
G01X7888302Y-4982450D01*
G01X7886375Y-4998320D01*
G01X7886375Y-4998320D01*
G01X48514Y-4998320D01*
G01X48514Y-4846465D01*
G01X443732Y-4846465D01*
G01X445588Y-4870057D01*
G01X451113Y-4893069D01*
G01X460169Y-4914933D01*
G01X472535Y-4935111D01*
G01X487904Y-4953106D01*
G01X505899Y-4968476D01*
G01X526077Y-4980841D01*
G01X547941Y-4989897D01*
G01X570953Y-4995422D01*
G01X594545Y-4997279D01*
G01X618138Y-4995422D01*
G01X641149Y-4989897D01*
G01X663013Y-4980841D01*
G01X683192Y-4968476D01*
G01X701187Y-4953106D01*
G01X716556Y-4935111D01*
G01X728921Y-4914933D01*
G01X737978Y-4893069D01*
G01X743502Y-4870057D01*
G01X745359Y-4846465D01*
G01X744680Y-4837836D01*
G01X7464786Y-4837836D01*
G01X7466713Y-4853706D01*
G01X7472382Y-4868654D01*
G01X7481463Y-4881811D01*
G01X7493429Y-4892412D01*
G01X7507585Y-4899841D01*
G01X7523107Y-4903667D01*
G01X7539093Y-4903667D01*
G01X7554615Y-4899841D01*
G01X7568771Y-4892412D01*
G01X7580737Y-4881811D01*
G01X7589818Y-4868654D01*
G01X7595487Y-4853706D01*
G01X7597414Y-4837836D01*
G01X7595487Y-4821966D01*
G01X7589818Y-4807019D01*
G01X7580737Y-4793862D01*
G01X7568771Y-4783261D01*
G01X7554615Y-4775832D01*
G01X7539093Y-4772006D01*
G01X7523107Y-4772006D01*
G01X7507585Y-4775832D01*
G01X7493429Y-4783261D01*
G01X7481463Y-4793862D01*
G01X7472382Y-4807019D01*
G01X7466713Y-4821966D01*
G01X7464786Y-4837836D01*
G01X7464786Y-4837836D01*
G01X744680Y-4837836D01*
G01X743502Y-4822872D01*
G01X737978Y-4799861D01*
G01X728921Y-4777997D01*
G01X716556Y-4757819D01*
G01X701187Y-4739823D01*
G01X683192Y-4724454D01*
G01X663013Y-4712089D01*
G01X641149Y-4703032D01*
G01X618138Y-4697508D01*
G01X594545Y-4695651D01*
G01X594545Y-4695651D01*
G01X570953Y-4697508D01*
G01X547941Y-4703032D01*
G01X526077Y-4712089D01*
G01X505899Y-4724454D01*
G01X487904Y-4739823D01*
G01X472535Y-4757819D01*
G01X460169Y-4777997D01*
G01X451113Y-4799861D01*
G01X445588Y-4822872D01*
G01X443732Y-4846465D01*
G01X48514Y-4846465D01*
G01X48514Y-4681616D01*
G01X1282910Y-4681616D01*
G01X1284837Y-4697486D01*
G01X1290506Y-4712434D01*
G01X1299587Y-4725591D01*
G01X1311553Y-4736192D01*
G01X1325709Y-4743621D01*
G01X1341231Y-4747447D01*
G01X1357217Y-4747447D01*
G01X1372739Y-4743621D01*
G01X1386895Y-4736192D01*
G01X1398861Y-4725591D01*
G01X1407942Y-4712434D01*
G01X1413611Y-4697486D01*
G01X1415538Y-4681616D01*
G01X1413611Y-4665746D01*
G01X1407942Y-4650799D01*
G01X1398861Y-4637642D01*
G01X1386895Y-4627041D01*
G01X1372739Y-4619612D01*
G01X1357217Y-4615786D01*
G01X1341231Y-4615786D01*
G01X1325709Y-4619612D01*
G01X1311553Y-4627041D01*
G01X1299587Y-4637642D01*
G01X1290506Y-4650799D01*
G01X1284837Y-4665746D01*
G01X1282910Y-4681616D01*
G01X1282910Y-4681616D01*
G01X48514Y-4681616D01*
G01X48514Y-4597400D01*
G01X3958641Y-4597400D01*
G01X3960568Y-4613270D01*
G01X3966237Y-4628218D01*
G01X3975318Y-4641374D01*
G01X3987284Y-4651975D01*
G01X4001439Y-4659405D01*
G01X4016961Y-4663230D01*
G01X4032948Y-4663230D01*
G01X4048470Y-4659405D01*
G01X4062625Y-4651975D01*
G01X4074591Y-4641374D01*
G01X4083673Y-4628218D01*
G01X4089342Y-4613270D01*
G01X4091269Y-4597400D01*
G01X4089342Y-4581530D01*
G01X4083673Y-4566582D01*
G01X4074591Y-4553426D01*
G01X4062625Y-4542825D01*
G01X4048470Y-4535395D01*
G01X4032948Y-4531570D01*
G01X4016961Y-4531570D01*
G01X4001439Y-4535395D01*
G01X3987284Y-4542825D01*
G01X3975318Y-4553426D01*
G01X3966237Y-4566582D01*
G01X3960568Y-4581530D01*
G01X3958641Y-4597400D01*
G01X3958641Y-4597400D01*
G01X48514Y-4597400D01*
G01X48514Y-4511801D01*
G01X7464785Y-4511801D01*
G01X7466712Y-4527671D01*
G01X7472381Y-4542618D01*
G01X7481462Y-4555775D01*
G01X7493428Y-4566376D01*
G01X7507583Y-4573805D01*
G01X7523105Y-4577631D01*
G01X7539092Y-4577631D01*
G01X7554614Y-4573805D01*
G01X7568769Y-4566376D01*
G01X7580736Y-4555775D01*
G01X7589817Y-4542618D01*
G01X7595486Y-4527671D01*
G01X7597413Y-4511801D01*
G01X7595486Y-4495931D01*
G01X7589817Y-4480983D01*
G01X7580736Y-4467826D01*
G01X7568769Y-4457225D01*
G01X7554614Y-4449796D01*
G01X7539092Y-4445970D01*
G01X7523105Y-4445970D01*
G01X7507583Y-4449796D01*
G01X7493428Y-4457225D01*
G01X7481462Y-4467826D01*
G01X7472381Y-4480983D01*
G01X7466712Y-4495931D01*
G01X7464785Y-4511801D01*
G01X7464785Y-4511801D01*
G01X48514Y-4511801D01*
G01X48514Y-4338465D01*
G01X443732Y-4338465D01*
G01X445588Y-4362057D01*
G01X451113Y-4385069D01*
G01X460169Y-4406933D01*
G01X472535Y-4427111D01*
G01X487904Y-4445106D01*
G01X505899Y-4460476D01*
G01X526077Y-4472841D01*
G01X547941Y-4481897D01*
G01X570953Y-4487422D01*
G01X594545Y-4489279D01*
G01X618138Y-4487422D01*
G01X641149Y-4481897D01*
G01X663013Y-4472841D01*
G01X683192Y-4460476D01*
G01X701187Y-4445106D01*
G01X716556Y-4427111D01*
G01X728921Y-4406933D01*
G01X737978Y-4385069D01*
G01X743502Y-4362057D01*
G01X745359Y-4338465D01*
G01X744359Y-4325762D01*
G01X1771972Y-4325762D01*
G01X1773899Y-4341632D01*
G01X1779568Y-4356579D01*
G01X1788649Y-4369736D01*
G01X1800615Y-4380337D01*
G01X1814771Y-4387766D01*
G01X1830293Y-4391592D01*
G01X1846279Y-4391592D01*
G01X1861801Y-4387766D01*
G01X1871335Y-4382762D01*
G01X2115731Y-4382762D01*
G01X2117658Y-4398632D01*
G01X2123327Y-4413580D01*
G01X2132409Y-4426737D01*
G01X2144375Y-4437338D01*
G01X2158530Y-4444767D01*
G01X2174052Y-4448593D01*
G01X2190039Y-4448593D01*
G01X2205561Y-4444767D01*
G01X2219716Y-4437338D01*
G01X2231682Y-4426737D01*
G01X2240764Y-4413580D01*
G01X2246433Y-4398632D01*
G01X2248359Y-4382762D01*
G01X2246433Y-4366892D01*
G01X2240764Y-4351945D01*
G01X2231682Y-4338788D01*
G01X2219716Y-4328187D01*
G01X2205561Y-4320758D01*
G01X2190039Y-4316932D01*
G01X2174052Y-4316932D01*
G01X2158530Y-4320758D01*
G01X2144375Y-4328187D01*
G01X2132409Y-4338788D01*
G01X2123327Y-4351945D01*
G01X2117658Y-4366892D01*
G01X2115731Y-4382762D01*
G01X2115731Y-4382762D01*
G01X1871335Y-4382762D01*
G01X1875956Y-4380337D01*
G01X1887923Y-4369736D01*
G01X1897004Y-4356579D01*
G01X1902673Y-4341632D01*
G01X1904600Y-4325762D01*
G01X1902673Y-4309892D01*
G01X1901694Y-4307311D01*
G01X3840836Y-4307311D01*
G01X3842763Y-4323181D01*
G01X3848432Y-4338129D01*
G01X3857513Y-4351286D01*
G01X3869479Y-4361887D01*
G01X3883634Y-4369316D01*
G01X3899156Y-4373142D01*
G01X3915143Y-4373142D01*
G01X3930665Y-4369316D01*
G01X3944820Y-4361887D01*
G01X3956786Y-4351286D01*
G01X3965868Y-4338129D01*
G01X3969743Y-4327911D01*
G01X4374935Y-4327911D01*
G01X4376862Y-4343781D01*
G01X4382530Y-4358729D01*
G01X4391612Y-4371886D01*
G01X4403578Y-4382487D01*
G01X4417733Y-4389916D01*
G01X4433255Y-4393742D01*
G01X4449242Y-4393742D01*
G01X4464764Y-4389916D01*
G01X4478919Y-4382487D01*
G01X4490885Y-4371886D01*
G01X4499967Y-4358729D01*
G01X4505636Y-4343781D01*
G01X4507562Y-4327911D01*
G01X4505636Y-4312041D01*
G01X4499967Y-4297094D01*
G01X4490885Y-4283937D01*
G01X4478919Y-4273336D01*
G01X4464764Y-4265907D01*
G01X4449242Y-4262081D01*
G01X4433255Y-4262081D01*
G01X4417733Y-4265907D01*
G01X4403578Y-4273336D01*
G01X4391612Y-4283937D01*
G01X4382530Y-4297094D01*
G01X4376862Y-4312041D01*
G01X4374935Y-4327911D01*
G01X4374935Y-4327911D01*
G01X3969743Y-4327911D01*
G01X3971537Y-4323181D01*
G01X3973464Y-4307311D01*
G01X3971537Y-4291441D01*
G01X3965868Y-4276494D01*
G01X3956786Y-4263337D01*
G01X3944820Y-4252736D01*
G01X3930665Y-4245307D01*
G01X3915143Y-4241481D01*
G01X3899156Y-4241481D01*
G01X3883634Y-4245307D01*
G01X3869479Y-4252736D01*
G01X3857513Y-4263337D01*
G01X3848432Y-4276494D01*
G01X3842763Y-4291441D01*
G01X3840836Y-4307311D01*
G01X3840836Y-4307311D01*
G01X1901694Y-4307311D01*
G01X1897004Y-4294944D01*
G01X1887923Y-4281787D01*
G01X1875956Y-4271186D01*
G01X1861801Y-4263757D01*
G01X1846279Y-4259931D01*
G01X1830293Y-4259931D01*
G01X1814771Y-4263757D01*
G01X1800615Y-4271186D01*
G01X1788649Y-4281787D01*
G01X1779568Y-4294944D01*
G01X1773899Y-4309892D01*
G01X1771972Y-4325762D01*
G01X1771972Y-4325762D01*
G01X744359Y-4325762D01*
G01X743502Y-4314872D01*
G01X737978Y-4291861D01*
G01X728921Y-4269997D01*
G01X716556Y-4249819D01*
G01X701187Y-4231823D01*
G01X683192Y-4216454D01*
G01X663013Y-4204089D01*
G01X641149Y-4195032D01*
G01X618138Y-4189508D01*
G01X594545Y-4187651D01*
G01X594545Y-4187651D01*
G01X570953Y-4189508D01*
G01X547941Y-4195032D01*
G01X526077Y-4204089D01*
G01X505899Y-4216454D01*
G01X487904Y-4231823D01*
G01X472535Y-4249819D01*
G01X460169Y-4269997D01*
G01X451113Y-4291861D01*
G01X445588Y-4314872D01*
G01X443732Y-4338465D01*
G01X48514Y-4338465D01*
G01X48514Y-4170064D01*
G01X1290233Y-4170064D01*
G01X1292160Y-4185934D01*
G01X1297829Y-4200882D01*
G01X1306910Y-4214038D01*
G01X1318876Y-4224639D01*
G01X1333031Y-4232069D01*
G01X1348553Y-4235895D01*
G01X1364540Y-4235895D01*
G01X1380062Y-4232069D01*
G01X1394217Y-4224639D01*
G01X1406183Y-4214038D01*
G01X1415265Y-4200882D01*
G01X1420934Y-4185934D01*
G01X1422861Y-4170064D01*
G01X1420934Y-4154194D01*
G01X1419992Y-4151712D01*
G01X2875638Y-4151712D01*
G01X2877564Y-4167582D01*
G01X2883233Y-4182529D01*
G01X2892315Y-4195686D01*
G01X2904281Y-4206287D01*
G01X2918436Y-4213716D01*
G01X2933958Y-4217542D01*
G01X2949945Y-4217542D01*
G01X2965467Y-4213716D01*
G01X2979622Y-4206287D01*
G01X2984730Y-4201761D01*
G01X3663291Y-4201761D01*
G01X3665218Y-4217631D01*
G01X3670887Y-4232579D01*
G01X3679968Y-4245736D01*
G01X3691935Y-4256337D01*
G01X3706090Y-4263766D01*
G01X3721612Y-4267592D01*
G01X3737598Y-4267592D01*
G01X3753120Y-4263766D01*
G01X3767276Y-4256337D01*
G01X3779242Y-4245736D01*
G01X3788323Y-4232579D01*
G01X3793992Y-4217631D01*
G01X3795919Y-4201761D01*
G01X3793992Y-4185892D01*
G01X3788323Y-4170944D01*
G01X3779242Y-4157787D01*
G01X3767276Y-4147186D01*
G01X3753120Y-4139757D01*
G01X3737598Y-4135931D01*
G01X3721612Y-4135931D01*
G01X3706090Y-4139757D01*
G01X3691935Y-4147186D01*
G01X3679968Y-4157787D01*
G01X3670887Y-4170944D01*
G01X3665218Y-4185892D01*
G01X3663291Y-4201761D01*
G01X3663291Y-4201761D01*
G01X2984730Y-4201761D01*
G01X2991588Y-4195686D01*
G01X3000670Y-4182529D01*
G01X3006338Y-4167582D01*
G01X3008265Y-4151712D01*
G01X3006338Y-4135842D01*
G01X3000670Y-4120894D01*
G01X2991588Y-4107738D01*
G01X2979622Y-4097136D01*
G01X2965467Y-4089707D01*
G01X2949945Y-4085881D01*
G01X2933958Y-4085881D01*
G01X2918436Y-4089707D01*
G01X2904281Y-4097136D01*
G01X2892315Y-4107738D01*
G01X2883233Y-4120894D01*
G01X2877564Y-4135842D01*
G01X2875638Y-4151712D01*
G01X2875638Y-4151712D01*
G01X1419992Y-4151712D01*
G01X1415265Y-4139246D01*
G01X1406183Y-4126090D01*
G01X1394217Y-4115489D01*
G01X1380062Y-4108059D01*
G01X1364540Y-4104233D01*
G01X1348553Y-4104233D01*
G01X1333031Y-4108059D01*
G01X1318876Y-4115489D01*
G01X1306910Y-4126090D01*
G01X1297829Y-4139246D01*
G01X1292160Y-4154194D01*
G01X1290233Y-4170064D01*
G01X1290233Y-4170064D01*
G01X48514Y-4170064D01*
G01X48514Y-4017071D01*
G01X2304580Y-4017071D01*
G01X2304661Y-4033015D01*
G01X2308544Y-4048479D01*
G01X2308544Y-4048479D01*
G01X2316006Y-4062569D01*
G01X2326616Y-4074470D01*
G01X2339759Y-4083495D01*
G01X2354677Y-4089122D01*
G01X2370507Y-4091026D01*
G01X2386334Y-4089096D01*
G01X2401242Y-4083445D01*
G01X2414371Y-4074398D01*
G01X2424961Y-4062479D01*
G01X2432400Y-4048377D01*
G01X2436258Y-4032907D01*
G01X2449477Y-4041821D01*
G01X2464442Y-4047323D01*
G01X2480287Y-4049093D01*
G01X2496097Y-4047030D01*
G01X2510958Y-4041253D01*
G01X2524010Y-4032096D01*
G01X2534499Y-4020089D01*
G01X2541819Y-4005925D01*
G01X2545547Y-3990423D01*
G01X2545467Y-3974479D01*
G01X2541584Y-3959015D01*
G01X2536650Y-3949700D01*
G01X2880086Y-3949700D01*
G01X2882013Y-3965570D01*
G01X2887682Y-3980518D01*
G01X2896763Y-3993674D01*
G01X2908729Y-4004275D01*
G01X2922885Y-4011705D01*
G01X2938407Y-4015530D01*
G01X2954393Y-4015530D01*
G01X2963848Y-4013200D01*
G01X3007086Y-4013200D01*
G01X3009013Y-4029070D01*
G01X3014682Y-4044018D01*
G01X3023763Y-4057174D01*
G01X3035729Y-4067775D01*
G01X3049885Y-4075205D01*
G01X3065407Y-4079031D01*
G01X3081393Y-4079031D01*
G01X3096915Y-4075205D01*
G01X3111071Y-4067775D01*
G01X3123037Y-4057174D01*
G01X3132118Y-4044018D01*
G01X3137787Y-4029070D01*
G01X3139116Y-4018129D01*
G01X3916913Y-4018129D01*
G01X3918839Y-4033999D01*
G01X3924508Y-4048947D01*
G01X3933590Y-4062103D01*
G01X3945556Y-4072704D01*
G01X3959711Y-4080134D01*
G01X3975233Y-4083959D01*
G01X3991220Y-4083959D01*
G01X3997980Y-4082293D01*
G01X4371455Y-4082293D01*
G01X4374851Y-4098041D01*
G01X4381944Y-4112505D01*
G01X4392316Y-4124832D01*
G01X4382152Y-4136946D01*
G01X4375146Y-4151122D01*
G01X4371695Y-4166553D01*
G01X4371995Y-4182363D01*
G01X4376030Y-4197652D01*
G01X4383569Y-4211551D01*
G01X4394186Y-4223270D01*
G01X4407274Y-4232143D01*
G01X4422092Y-4237665D01*
G01X4437795Y-4239521D01*
G01X4453491Y-4237607D01*
G01X4468288Y-4232032D01*
G01X4481345Y-4223111D01*
G01X4491918Y-4211354D01*
G01X4494629Y-4206312D01*
G01X4837076Y-4206312D01*
G01X4839003Y-4222182D01*
G01X4844672Y-4237129D01*
G01X4853754Y-4250286D01*
G01X4865720Y-4260887D01*
G01X4879875Y-4268316D01*
G01X4895397Y-4272142D01*
G01X4911384Y-4272142D01*
G01X4926905Y-4268316D01*
G01X4941061Y-4260887D01*
G01X4953027Y-4250286D01*
G01X4962108Y-4237129D01*
G01X4967777Y-4222182D01*
G01X4969704Y-4206312D01*
G01X4967777Y-4190442D01*
G01X4962108Y-4175494D01*
G01X4954734Y-4164810D01*
G01X7464911Y-4164810D01*
G01X7465703Y-4179898D01*
G01X7469890Y-4194415D01*
G01X7477254Y-4207608D01*
G01X7487413Y-4218792D01*
G01X7499840Y-4227385D01*
G01X7513889Y-4232943D01*
G01X7528832Y-4235176D01*
G01X7543893Y-4233969D01*
G01X7558289Y-4229384D01*
G01X7571274Y-4221660D01*
G01X7582173Y-4211197D01*
G01X7591702Y-4222922D01*
G01X7603637Y-4232187D01*
G01X7617359Y-4238509D01*
G01X7632156Y-4241562D01*
G01X7647260Y-4241185D01*
G01X7661887Y-4237400D01*
G01X7675277Y-4230402D01*
G01X7686736Y-4220554D01*
G01X7695669Y-4208369D01*
G01X7701611Y-4194478D01*
G01X7704255Y-4179602D01*
G01X7703463Y-4164514D01*
G01X7699276Y-4149997D01*
G01X7691912Y-4136804D01*
G01X7681753Y-4125621D01*
G01X7669326Y-4117027D01*
G01X7655277Y-4111470D01*
G01X7640334Y-4109236D01*
G01X7625274Y-4110443D01*
G01X7610877Y-4115028D01*
G01X7597892Y-4122753D01*
G01X7586993Y-4133216D01*
G01X7577465Y-4121490D01*
G01X7565530Y-4112226D01*
G01X7551807Y-4105903D01*
G01X7537010Y-4102851D01*
G01X7521906Y-4103227D01*
G01X7507279Y-4107012D01*
G01X7493888Y-4114010D01*
G01X7482430Y-4123858D01*
G01X7473497Y-4136043D01*
G01X7467555Y-4149934D01*
G01X7464911Y-4164810D01*
G01X7464911Y-4164810D01*
G01X4954734Y-4164810D01*
G01X4953027Y-4162337D01*
G01X4941061Y-4151736D01*
G01X4926905Y-4144307D01*
G01X4911384Y-4140481D01*
G01X4895397Y-4140481D01*
G01X4879875Y-4144307D01*
G01X4865720Y-4151736D01*
G01X4853754Y-4162337D01*
G01X4844672Y-4175494D01*
G01X4839003Y-4190442D01*
G01X4837076Y-4206312D01*
G01X4837076Y-4206312D01*
G01X4494629Y-4206312D01*
G01X4499407Y-4197427D01*
G01X4503386Y-4182123D01*
G01X4503628Y-4166312D01*
G01X4500121Y-4150894D01*
G01X4493063Y-4136744D01*
G01X4482855Y-4124667D01*
G01X4492770Y-4112930D01*
G01X4499719Y-4099227D01*
G01X4503327Y-4084292D01*
G01X4503401Y-4068928D01*
G01X4499938Y-4053959D01*
G01X4493122Y-4040189D01*
G01X4483321Y-4028357D01*
G01X4483321Y-4028357D01*
G01X4492558Y-4019109D01*
G01X4499801Y-4008229D01*
G01X4504770Y-3996139D01*
G01X4507271Y-3983310D01*
G01X4512250Y-3997666D01*
G01X4520365Y-4010511D01*
G01X4531191Y-4021172D01*
G01X4544160Y-4029089D01*
G01X4558590Y-4033846D01*
G01X4573724Y-4035194D01*
G01X4588768Y-4033061D01*
G01X4602932Y-4027561D01*
G01X4615472Y-4018980D01*
G01X4625729Y-4007771D01*
G01X4633166Y-3994521D01*
G01X4637392Y-3979927D01*
G01X4638185Y-3964753D01*
G01X4635503Y-3949798D01*
G01X4629488Y-3935845D01*
G01X4620454Y-3923628D01*
G01X4608877Y-3913787D01*
G01X4595364Y-3906840D01*
G01X4580625Y-3903151D01*
G01X4565432Y-3902914D01*
G01X4550585Y-3906142D01*
G01X4536861Y-3912664D01*
G01X4524983Y-3922138D01*
G01X4515573Y-3934068D01*
G01X4509125Y-3947826D01*
G01X4505978Y-3962691D01*
G01X4500898Y-3948125D01*
G01X4492590Y-3935127D01*
G01X4481503Y-3924400D01*
G01X4468238Y-3916526D01*
G01X4453512Y-3911929D01*
G01X4438123Y-3910858D01*
G01X4422903Y-3913373D01*
G01X4408676Y-3919336D01*
G01X4396211Y-3928425D01*
G01X4386184Y-3940148D01*
G01X4379136Y-3953870D01*
G01X4375450Y-3968850D01*
G01X4375324Y-3984276D01*
G01X4378766Y-3999313D01*
G01X4385589Y-4013148D01*
G01X4395425Y-4025033D01*
G01X4384306Y-4036691D01*
G01X4376326Y-4050685D01*
G01X4371957Y-4066191D01*
G01X4371455Y-4082293D01*
G01X3997980Y-4082293D01*
G01X4006742Y-4080134D01*
G01X4020897Y-4072704D01*
G01X4032863Y-4062103D01*
G01X4041945Y-4048947D01*
G01X4047613Y-4033999D01*
G01X4049540Y-4018129D01*
G01X4047613Y-4002259D01*
G01X4041945Y-3987311D01*
G01X4032863Y-3974155D01*
G01X4020897Y-3963554D01*
G01X4006742Y-3956124D01*
G01X3991220Y-3952299D01*
G01X3975233Y-3952299D01*
G01X3959711Y-3956124D01*
G01X3945556Y-3963554D01*
G01X3933590Y-3974155D01*
G01X3924508Y-3987311D01*
G01X3918839Y-4002259D01*
G01X3916913Y-4018129D01*
G01X3916913Y-4018129D01*
G01X3139116Y-4018129D01*
G01X3139714Y-4013200D01*
G01X3137787Y-3997330D01*
G01X3132118Y-3982382D01*
G01X3123037Y-3969226D01*
G01X3111071Y-3958625D01*
G01X3096915Y-3951195D01*
G01X3081393Y-3947369D01*
G01X3065407Y-3947369D01*
G01X3049885Y-3951195D01*
G01X3035729Y-3958625D01*
G01X3023763Y-3969226D01*
G01X3014682Y-3982382D01*
G01X3009013Y-3997330D01*
G01X3007086Y-4013200D01*
G01X3007086Y-4013200D01*
G01X2963848Y-4013200D01*
G01X2969915Y-4011705D01*
G01X2984071Y-4004275D01*
G01X2996037Y-3993674D01*
G01X3005118Y-3980518D01*
G01X3010787Y-3965570D01*
G01X3012714Y-3949700D01*
G01X3010787Y-3933830D01*
G01X3005118Y-3918882D01*
G01X2996037Y-3905726D01*
G01X2984071Y-3895125D01*
G01X2969915Y-3887695D01*
G01X2954393Y-3883870D01*
G01X2938407Y-3883870D01*
G01X2922885Y-3887695D01*
G01X2908729Y-3895125D01*
G01X2896763Y-3905726D01*
G01X2887682Y-3918882D01*
G01X2882013Y-3933830D01*
G01X2880086Y-3949700D01*
G01X2880086Y-3949700D01*
G01X2536650Y-3949700D01*
G01X2534121Y-3944925D01*
G01X2523512Y-3933024D01*
G01X2510368Y-3923999D01*
G01X2495450Y-3918372D01*
G01X2479621Y-3916468D01*
G01X2463794Y-3918398D01*
G01X2448885Y-3924049D01*
G01X2435756Y-3933096D01*
G01X2425166Y-3945015D01*
G01X2417727Y-3959117D01*
G01X2413869Y-3974587D01*
G01X2400650Y-3965673D01*
G01X2385685Y-3960171D01*
G01X2369840Y-3958401D01*
G01X2354030Y-3960464D01*
G01X2339170Y-3966241D01*
G01X2326117Y-3975397D01*
G01X2315628Y-3987405D01*
G01X2308308Y-4001569D01*
G01X2304580Y-4017071D01*
G01X48514Y-4017071D01*
G01X48514Y-3830465D01*
G01X443732Y-3830465D01*
G01X445588Y-3854057D01*
G01X451113Y-3877069D01*
G01X460169Y-3898933D01*
G01X472535Y-3919111D01*
G01X487904Y-3937106D01*
G01X505899Y-3952476D01*
G01X526077Y-3964841D01*
G01X547941Y-3973897D01*
G01X570953Y-3979422D01*
G01X594545Y-3981279D01*
G01X618138Y-3979422D01*
G01X641149Y-3973897D01*
G01X663013Y-3964841D01*
G01X683192Y-3952476D01*
G01X701187Y-3937106D01*
G01X716556Y-3919111D01*
G01X728921Y-3898933D01*
G01X737978Y-3877069D01*
G01X743502Y-3854057D01*
G01X745359Y-3830465D01*
G01X745171Y-3828075D01*
G01X3951277Y-3828075D01*
G01X3953204Y-3843945D01*
G01X3958873Y-3858893D01*
G01X3967954Y-3872049D01*
G01X3979921Y-3882650D01*
G01X3994076Y-3890080D01*
G01X4009598Y-3893905D01*
G01X4025584Y-3893905D01*
G01X4041106Y-3890080D01*
G01X4055262Y-3882650D01*
G01X4067228Y-3872049D01*
G01X4076309Y-3858893D01*
G01X4081978Y-3843945D01*
G01X4083905Y-3828075D01*
G01X4083570Y-3825312D01*
G01X5218076Y-3825312D01*
G01X5220003Y-3841182D01*
G01X5225671Y-3856130D01*
G01X5234753Y-3869287D01*
G01X5246719Y-3879888D01*
G01X5260874Y-3887317D01*
G01X5276396Y-3891143D01*
G01X5292383Y-3891143D01*
G01X5307905Y-3887317D01*
G01X5322060Y-3879888D01*
G01X5334026Y-3869287D01*
G01X5343108Y-3856130D01*
G01X5348776Y-3841182D01*
G01X5350703Y-3825312D01*
G01X5349698Y-3817032D01*
G01X7464632Y-3817032D01*
G01X7466559Y-3832902D01*
G01X7472228Y-3847850D01*
G01X7481309Y-3861007D01*
G01X7493275Y-3871608D01*
G01X7507431Y-3879037D01*
G01X7522953Y-3882863D01*
G01X7538939Y-3882863D01*
G01X7554461Y-3879037D01*
G01X7568617Y-3871608D01*
G01X7580583Y-3861007D01*
G01X7589664Y-3847850D01*
G01X7595333Y-3832902D01*
G01X7597260Y-3817032D01*
G01X7595333Y-3801163D01*
G01X7589664Y-3786215D01*
G01X7580583Y-3773058D01*
G01X7568617Y-3762457D01*
G01X7554461Y-3755028D01*
G01X7538939Y-3751202D01*
G01X7522953Y-3751202D01*
G01X7507431Y-3755028D01*
G01X7493275Y-3762457D01*
G01X7481309Y-3773058D01*
G01X7472228Y-3786215D01*
G01X7466559Y-3801163D01*
G01X7464632Y-3817032D01*
G01X7464632Y-3817032D01*
G01X5349698Y-3817032D01*
G01X5348776Y-3809442D01*
G01X5343108Y-3794495D01*
G01X5334026Y-3781338D01*
G01X5322060Y-3770737D01*
G01X5307905Y-3763308D01*
G01X5292383Y-3759482D01*
G01X5276396Y-3759482D01*
G01X5260874Y-3763308D01*
G01X5246719Y-3770737D01*
G01X5234753Y-3781338D01*
G01X5225671Y-3794495D01*
G01X5220003Y-3809442D01*
G01X5218076Y-3825312D01*
G01X5218076Y-3825312D01*
G01X4083570Y-3825312D01*
G01X4081978Y-3812205D01*
G01X4076309Y-3797257D01*
G01X4067228Y-3784101D01*
G01X4055262Y-3773500D01*
G01X4041106Y-3766070D01*
G01X4025584Y-3762244D01*
G01X4009598Y-3762244D01*
G01X3994076Y-3766070D01*
G01X3979921Y-3773500D01*
G01X3967954Y-3784101D01*
G01X3958873Y-3797257D01*
G01X3953204Y-3812205D01*
G01X3951277Y-3828075D01*
G01X3951277Y-3828075D01*
G01X745171Y-3828075D01*
G01X743502Y-3806872D01*
G01X737978Y-3783861D01*
G01X728921Y-3761997D01*
G01X723030Y-3752382D01*
G01X2017862Y-3752382D01*
G01X2019789Y-3768252D01*
G01X2025458Y-3783200D01*
G01X2034539Y-3796357D01*
G01X2046505Y-3806958D01*
G01X2060661Y-3814387D01*
G01X2076183Y-3818213D01*
G01X2092169Y-3818213D01*
G01X2107691Y-3814387D01*
G01X2121847Y-3806958D01*
G01X2133813Y-3796357D01*
G01X2142894Y-3783200D01*
G01X2148563Y-3768252D01*
G01X2150490Y-3752382D01*
G01X2148563Y-3736512D01*
G01X2142894Y-3721565D01*
G01X2133813Y-3708408D01*
G01X2121847Y-3697807D01*
G01X2107691Y-3690378D01*
G01X2092169Y-3686552D01*
G01X2076183Y-3686552D01*
G01X2060661Y-3690378D01*
G01X2046505Y-3697807D01*
G01X2034539Y-3708408D01*
G01X2025458Y-3721565D01*
G01X2019789Y-3736512D01*
G01X2017862Y-3752382D01*
G01X2017862Y-3752382D01*
G01X723030Y-3752382D01*
G01X716556Y-3741819D01*
G01X701187Y-3723823D01*
G01X683192Y-3708454D01*
G01X663013Y-3696089D01*
G01X641149Y-3687032D01*
G01X618138Y-3681508D01*
G01X594545Y-3679651D01*
G01X594545Y-3679651D01*
G01X570953Y-3681508D01*
G01X547941Y-3687032D01*
G01X526077Y-3696089D01*
G01X505899Y-3708454D01*
G01X487904Y-3723823D01*
G01X472535Y-3741819D01*
G01X460169Y-3761997D01*
G01X451113Y-3783861D01*
G01X445588Y-3806872D01*
G01X443732Y-3830465D01*
G01X48514Y-3830465D01*
G01X48514Y-3671600D01*
G01X1295615Y-3671600D01*
G01X1297542Y-3687470D01*
G01X1303211Y-3702418D01*
G01X1312292Y-3715575D01*
G01X1324258Y-3726176D01*
G01X1338414Y-3733605D01*
G01X1353936Y-3737431D01*
G01X1369922Y-3737431D01*
G01X1385444Y-3733605D01*
G01X1399600Y-3726176D01*
G01X1411566Y-3715575D01*
G01X1420647Y-3702418D01*
G01X1426316Y-3687470D01*
G01X1428243Y-3671600D01*
G01X1426316Y-3655730D01*
G01X1420647Y-3640783D01*
G01X1411566Y-3627626D01*
G01X1399600Y-3617025D01*
G01X1385444Y-3609596D01*
G01X1369922Y-3605770D01*
G01X1353936Y-3605770D01*
G01X1338414Y-3609596D01*
G01X1324258Y-3617025D01*
G01X1312292Y-3627626D01*
G01X1303211Y-3640783D01*
G01X1297542Y-3655730D01*
G01X1295615Y-3671600D01*
G01X1295615Y-3671600D01*
G01X48514Y-3671600D01*
G01X48514Y-3557618D01*
G01X4783079Y-3557618D01*
G01X4785006Y-3573488D01*
G01X4790675Y-3588436D01*
G01X4799757Y-3601592D01*
G01X4811723Y-3612193D01*
G01X4825878Y-3619623D01*
G01X4841400Y-3623449D01*
G01X4857387Y-3623449D01*
G01X4872909Y-3619623D01*
G01X4887064Y-3612193D01*
G01X4899030Y-3601592D01*
G01X4908112Y-3588436D01*
G01X4913780Y-3573488D01*
G01X4915707Y-3557618D01*
G01X4913780Y-3541748D01*
G01X4908112Y-3526800D01*
G01X4899030Y-3513644D01*
G01X4887064Y-3503043D01*
G01X4872909Y-3495613D01*
G01X4857387Y-3491787D01*
G01X4841400Y-3491787D01*
G01X4825878Y-3495613D01*
G01X4811723Y-3503043D01*
G01X4799757Y-3513644D01*
G01X4790675Y-3526800D01*
G01X4785006Y-3541748D01*
G01X4783079Y-3557618D01*
G01X4783079Y-3557618D01*
G01X48514Y-3557618D01*
G01X48514Y-3322465D01*
G01X443732Y-3322465D01*
G01X445588Y-3346057D01*
G01X451113Y-3369069D01*
G01X460169Y-3390933D01*
G01X472535Y-3411111D01*
G01X487904Y-3429106D01*
G01X505899Y-3444476D01*
G01X526077Y-3456841D01*
G01X547941Y-3465897D01*
G01X570953Y-3471422D01*
G01X594545Y-3473279D01*
G01X618138Y-3471422D01*
G01X641149Y-3465897D01*
G01X644668Y-3464440D01*
G01X7464632Y-3464440D01*
G01X7466559Y-3480310D01*
G01X7472228Y-3495258D01*
G01X7481309Y-3508414D01*
G01X7493275Y-3519015D01*
G01X7507431Y-3526445D01*
G01X7522953Y-3530270D01*
G01X7538939Y-3530270D01*
G01X7554461Y-3526445D01*
G01X7568617Y-3519015D01*
G01X7580583Y-3508414D01*
G01X7589664Y-3495258D01*
G01X7595333Y-3480310D01*
G01X7597260Y-3464440D01*
G01X7595333Y-3448570D01*
G01X7589664Y-3433622D01*
G01X7580583Y-3420465D01*
G01X7568617Y-3409864D01*
G01X7554461Y-3402435D01*
G01X7538939Y-3398609D01*
G01X7522953Y-3398609D01*
G01X7507431Y-3402435D01*
G01X7493275Y-3409864D01*
G01X7481309Y-3420465D01*
G01X7472228Y-3433622D01*
G01X7466559Y-3448570D01*
G01X7464632Y-3464440D01*
G01X7464632Y-3464440D01*
G01X644668Y-3464440D01*
G01X663013Y-3456841D01*
G01X683192Y-3444476D01*
G01X701187Y-3429106D01*
G01X716556Y-3411111D01*
G01X728921Y-3390933D01*
G01X734196Y-3378200D01*
G01X4773886Y-3378200D01*
G01X4775813Y-3394070D01*
G01X4781482Y-3409018D01*
G01X4790563Y-3422174D01*
G01X4802529Y-3432775D01*
G01X4816685Y-3440205D01*
G01X4832207Y-3444031D01*
G01X4848193Y-3444031D01*
G01X4863715Y-3440205D01*
G01X4877871Y-3432775D01*
G01X4889837Y-3422174D01*
G01X4898918Y-3409018D01*
G01X4904587Y-3394070D01*
G01X4906514Y-3378200D01*
G01X4904587Y-3362330D01*
G01X4898918Y-3347382D01*
G01X4889837Y-3334226D01*
G01X4877871Y-3323625D01*
G01X4863715Y-3316195D01*
G01X4848193Y-3312369D01*
G01X4832207Y-3312369D01*
G01X4816685Y-3316195D01*
G01X4802529Y-3323625D01*
G01X4790563Y-3334226D01*
G01X4781482Y-3347382D01*
G01X4775813Y-3362330D01*
G01X4773886Y-3378200D01*
G01X4773886Y-3378200D01*
G01X734196Y-3378200D01*
G01X737978Y-3369069D01*
G01X743502Y-3346057D01*
G01X745359Y-3322465D01*
G01X743502Y-3298872D01*
G01X737978Y-3275861D01*
G01X728921Y-3253997D01*
G01X716556Y-3233819D01*
G01X701187Y-3215823D01*
G01X683192Y-3200454D01*
G01X663013Y-3188089D01*
G01X641149Y-3179032D01*
G01X618138Y-3173508D01*
G01X594545Y-3171651D01*
G01X594545Y-3171651D01*
G01X570953Y-3173508D01*
G01X547941Y-3179032D01*
G01X526077Y-3188089D01*
G01X505899Y-3200454D01*
G01X487904Y-3215823D01*
G01X472535Y-3233819D01*
G01X460169Y-3253997D01*
G01X451113Y-3275861D01*
G01X445588Y-3298872D01*
G01X443732Y-3322465D01*
G01X48514Y-3322465D01*
G01X48514Y-3154393D01*
G01X1295616Y-3154393D01*
G01X1297543Y-3170263D01*
G01X1303212Y-3185211D01*
G01X1312293Y-3198367D01*
G01X1324260Y-3208968D01*
G01X1338415Y-3216398D01*
G01X1353937Y-3220224D01*
G01X1369923Y-3220224D01*
G01X1385446Y-3216398D01*
G01X1399601Y-3208968D01*
G01X1411567Y-3198367D01*
G01X1420648Y-3185211D01*
G01X1426317Y-3170263D01*
G01X1428244Y-3154393D01*
G01X1426317Y-3138523D01*
G01X1420648Y-3123575D01*
G01X1411567Y-3110419D01*
G01X1399601Y-3099818D01*
G01X1398324Y-3099147D01*
G01X7464633Y-3099147D01*
G01X7466560Y-3115017D01*
G01X7472229Y-3129965D01*
G01X7481310Y-3143122D01*
G01X7493276Y-3153723D01*
G01X7507432Y-3161152D01*
G01X7522954Y-3164978D01*
G01X7538940Y-3164978D01*
G01X7554462Y-3161152D01*
G01X7568618Y-3153723D01*
G01X7580584Y-3143122D01*
G01X7589665Y-3129965D01*
G01X7595334Y-3115017D01*
G01X7597261Y-3099147D01*
G01X7595334Y-3083277D01*
G01X7589665Y-3068330D01*
G01X7580584Y-3055173D01*
G01X7568618Y-3044572D01*
G01X7554462Y-3037142D01*
G01X7538940Y-3033317D01*
G01X7522954Y-3033317D01*
G01X7507432Y-3037142D01*
G01X7493276Y-3044572D01*
G01X7481310Y-3055173D01*
G01X7472229Y-3068330D01*
G01X7466560Y-3083277D01*
G01X7464633Y-3099147D01*
G01X7464633Y-3099147D01*
G01X1398324Y-3099147D01*
G01X1385446Y-3092388D01*
G01X1369923Y-3088562D01*
G01X1353937Y-3088562D01*
G01X1338415Y-3092388D01*
G01X1324260Y-3099818D01*
G01X1312293Y-3110419D01*
G01X1303212Y-3123575D01*
G01X1297543Y-3138523D01*
G01X1295616Y-3154393D01*
G01X1295616Y-3154393D01*
G01X48514Y-3154393D01*
G01X48514Y-2705100D01*
G01X395286Y-2705100D01*
G01X397143Y-2728692D01*
G01X402668Y-2751704D01*
G01X411724Y-2773568D01*
G01X424089Y-2793746D01*
G01X439459Y-2811741D01*
G01X457454Y-2827111D01*
G01X477632Y-2839476D01*
G01X499496Y-2848532D01*
G01X522508Y-2854057D01*
G01X546100Y-2855914D01*
G01X569692Y-2854057D01*
G01X592704Y-2848532D01*
G01X614568Y-2839476D01*
G01X634746Y-2827111D01*
G01X652741Y-2811741D01*
G01X668111Y-2793746D01*
G01X680476Y-2773568D01*
G01X689532Y-2751704D01*
G01X695057Y-2728692D01*
G01X696914Y-2705100D01*
G01X695057Y-2681508D01*
G01X692594Y-2671249D01*
G01X6105886Y-2671249D01*
G01X6107813Y-2687119D01*
G01X6113482Y-2702067D01*
G01X6122563Y-2715224D01*
G01X6134529Y-2725825D01*
G01X6148685Y-2733254D01*
G01X6164207Y-2737080D01*
G01X6180193Y-2737080D01*
G01X6195715Y-2733254D01*
G01X6195769Y-2733226D01*
G01X7464634Y-2733226D01*
G01X7466561Y-2749096D01*
G01X7472230Y-2764044D01*
G01X7481312Y-2777200D01*
G01X7493278Y-2787801D01*
G01X7507433Y-2795231D01*
G01X7522955Y-2799056D01*
G01X7538942Y-2799056D01*
G01X7554464Y-2795231D01*
G01X7568619Y-2787801D01*
G01X7580585Y-2777200D01*
G01X7589667Y-2764044D01*
G01X7595335Y-2749096D01*
G01X7597262Y-2733226D01*
G01X7595335Y-2717356D01*
G01X7589667Y-2702408D01*
G01X7580585Y-2689252D01*
G01X7568619Y-2678651D01*
G01X7554464Y-2671221D01*
G01X7538942Y-2667395D01*
G01X7522955Y-2667395D01*
G01X7507433Y-2671221D01*
G01X7493278Y-2678651D01*
G01X7481312Y-2689252D01*
G01X7472230Y-2702408D01*
G01X7466561Y-2717356D01*
G01X7464634Y-2733226D01*
G01X7464634Y-2733226D01*
G01X6195769Y-2733226D01*
G01X6209871Y-2725825D01*
G01X6221837Y-2715224D01*
G01X6230918Y-2702067D01*
G01X6236587Y-2687119D01*
G01X6238514Y-2671249D01*
G01X6236587Y-2655379D01*
G01X6230918Y-2640432D01*
G01X6221837Y-2627275D01*
G01X6209871Y-2616674D01*
G01X6195715Y-2609245D01*
G01X6180193Y-2605419D01*
G01X6164207Y-2605419D01*
G01X6148685Y-2609245D01*
G01X6134529Y-2616674D01*
G01X6122563Y-2627275D01*
G01X6113482Y-2640432D01*
G01X6107813Y-2655379D01*
G01X6105886Y-2671249D01*
G01X6105886Y-2671249D01*
G01X692594Y-2671249D01*
G01X689532Y-2658496D01*
G01X680476Y-2636632D01*
G01X668111Y-2616454D01*
G01X652741Y-2598459D01*
G01X634746Y-2583089D01*
G01X614568Y-2570724D01*
G01X592704Y-2561668D01*
G01X569692Y-2556143D01*
G01X546100Y-2554286D01*
G01X546100Y-2554286D01*
G01X522508Y-2556143D01*
G01X499496Y-2561668D01*
G01X477632Y-2570724D01*
G01X457454Y-2583089D01*
G01X439459Y-2598459D01*
G01X424089Y-2616454D01*
G01X411724Y-2636632D01*
G01X402668Y-2658496D01*
G01X397143Y-2681508D01*
G01X395286Y-2705100D01*
G01X48514Y-2705100D01*
G01X48514Y-2380633D01*
G01X7464632Y-2380633D01*
G01X7466559Y-2396503D01*
G01X7472228Y-2411451D01*
G01X7481309Y-2424608D01*
G01X7493275Y-2435209D01*
G01X7507431Y-2442638D01*
G01X7522953Y-2446464D01*
G01X7538939Y-2446464D01*
G01X7554461Y-2442638D01*
G01X7568617Y-2435209D01*
G01X7580583Y-2424608D01*
G01X7589664Y-2411451D01*
G01X7595333Y-2396503D01*
G01X7597260Y-2380633D01*
G01X7595333Y-2364763D01*
G01X7589664Y-2349816D01*
G01X7580583Y-2336659D01*
G01X7568617Y-2326058D01*
G01X7554461Y-2318629D01*
G01X7538939Y-2314803D01*
G01X7522953Y-2314803D01*
G01X7507431Y-2318629D01*
G01X7493275Y-2326058D01*
G01X7481309Y-2336659D01*
G01X7472228Y-2349816D01*
G01X7466559Y-2364763D01*
G01X7464632Y-2380633D01*
G01X7464632Y-2380633D01*
G01X48514Y-2380633D01*
G01X48514Y-2312100D01*
G01X395286Y-2312100D01*
G01X397039Y-2323167D01*
G01X402126Y-2333151D01*
G01X410049Y-2341074D01*
G01X420033Y-2346161D01*
G01X431100Y-2347914D01*
G01X661100Y-2347914D01*
G01X672167Y-2346161D01*
G01X682151Y-2341074D01*
G01X690074Y-2333151D01*
G01X695161Y-2323167D01*
G01X696914Y-2312100D01*
G01X696914Y-2152467D01*
G01X5007980Y-2152467D01*
G01X5009907Y-2168337D01*
G01X5015576Y-2183285D01*
G01X5024657Y-2196441D01*
G01X5036623Y-2207043D01*
G01X5050779Y-2214472D01*
G01X5066301Y-2218298D01*
G01X5082287Y-2218298D01*
G01X5097809Y-2214472D01*
G01X5111965Y-2207043D01*
G01X5123931Y-2196441D01*
G01X5133012Y-2183285D01*
G01X5138681Y-2168337D01*
G01X5140608Y-2152467D01*
G01X5139397Y-2142490D01*
G01X5978886Y-2142490D01*
G01X5980813Y-2158360D01*
G01X5986482Y-2173308D01*
G01X5995563Y-2186464D01*
G01X6007529Y-2197065D01*
G01X6021685Y-2204495D01*
G01X6037207Y-2208321D01*
G01X6053193Y-2208321D01*
G01X6068715Y-2204495D01*
G01X6082871Y-2197065D01*
G01X6094837Y-2186464D01*
G01X6103918Y-2173308D01*
G01X6109587Y-2158360D01*
G01X6111514Y-2142490D01*
G01X6109587Y-2126620D01*
G01X6103918Y-2111672D01*
G01X6094837Y-2098516D01*
G01X6082871Y-2087915D01*
G01X6068715Y-2080485D01*
G01X6053193Y-2076659D01*
G01X6037207Y-2076659D01*
G01X6021685Y-2080485D01*
G01X6007529Y-2087915D01*
G01X5995563Y-2098516D01*
G01X5986482Y-2111672D01*
G01X5980813Y-2126620D01*
G01X5978886Y-2142490D01*
G01X5978886Y-2142490D01*
G01X5139397Y-2142490D01*
G01X5138681Y-2136597D01*
G01X5133012Y-2121649D01*
G01X5123931Y-2108493D01*
G01X5111965Y-2097892D01*
G01X5097809Y-2090462D01*
G01X5082287Y-2086637D01*
G01X5066301Y-2086637D01*
G01X5050779Y-2090462D01*
G01X5036623Y-2097892D01*
G01X5024657Y-2108493D01*
G01X5015576Y-2121649D01*
G01X5009907Y-2136597D01*
G01X5007980Y-2152467D01*
G01X5007980Y-2152467D01*
G01X696914Y-2152467D01*
G01X696914Y-2082100D01*
G01X695161Y-2071033D01*
G01X690074Y-2061049D01*
G01X682151Y-2053126D01*
G01X672167Y-2048039D01*
G01X661100Y-2046286D01*
G01X431100Y-2046286D01*
G01X420033Y-2048039D01*
G01X410049Y-2053126D01*
G01X402126Y-2061049D01*
G01X397039Y-2071033D01*
G01X395286Y-2082100D01*
G01X395286Y-2312100D01*
G01X395286Y-2312100D01*
G01X48514Y-2312100D01*
G01X48514Y-1841500D01*
G01X2351786Y-1841500D01*
G01X2353671Y-1871456D01*
G01X2359295Y-1900940D01*
G01X2368570Y-1929487D01*
G01X2381350Y-1956646D01*
G01X2397434Y-1981989D01*
G01X2416566Y-2005116D01*
G01X2438447Y-2025663D01*
G01X2462730Y-2043306D01*
G01X2489033Y-2057766D01*
G01X2516941Y-2068816D01*
G01X2546013Y-2076280D01*
G01X2575792Y-2080042D01*
G01X2605808Y-2080042D01*
G01X2635587Y-2076280D01*
G01X2664659Y-2068816D01*
G01X2692567Y-2057766D01*
G01X2718870Y-2043306D01*
G01X2743153Y-2025663D01*
G01X2756854Y-2012798D01*
G01X5521686Y-2012798D01*
G01X5523613Y-2028668D01*
G01X5529282Y-2043615D01*
G01X5538363Y-2056772D01*
G01X5550329Y-2067373D01*
G01X5564485Y-2074802D01*
G01X5580007Y-2078628D01*
G01X5595993Y-2078628D01*
G01X5611515Y-2074802D01*
G01X5625671Y-2067373D01*
G01X5637637Y-2056772D01*
G01X5646718Y-2043615D01*
G01X5652387Y-2028668D01*
G01X5654314Y-2012798D01*
G01X5652387Y-1996928D01*
G01X5648773Y-1987398D01*
G01X6474186Y-1987398D01*
G01X6476113Y-2003268D01*
G01X6481782Y-2018215D01*
G01X6490863Y-2031372D01*
G01X6502829Y-2041973D01*
G01X6516985Y-2049402D01*
G01X6532507Y-2053228D01*
G01X6548493Y-2053228D01*
G01X6564015Y-2049402D01*
G01X6578171Y-2041973D01*
G01X6590137Y-2031372D01*
G01X6595311Y-2023876D01*
G01X7464631Y-2023876D01*
G01X7466558Y-2039746D01*
G01X7472227Y-2054694D01*
G01X7481308Y-2067850D01*
G01X7493274Y-2078451D01*
G01X7507430Y-2085881D01*
G01X7522952Y-2089707D01*
G01X7538938Y-2089707D01*
G01X7554460Y-2085881D01*
G01X7568616Y-2078451D01*
G01X7580582Y-2067850D01*
G01X7589663Y-2054694D01*
G01X7595332Y-2039746D01*
G01X7597259Y-2023876D01*
G01X7595332Y-2008006D01*
G01X7589663Y-1993058D01*
G01X7580582Y-1979902D01*
G01X7568616Y-1969301D01*
G01X7554460Y-1961871D01*
G01X7538938Y-1958046D01*
G01X7522952Y-1958046D01*
G01X7507430Y-1961871D01*
G01X7493274Y-1969301D01*
G01X7481308Y-1979902D01*
G01X7472227Y-1993058D01*
G01X7466558Y-2008006D01*
G01X7464631Y-2023876D01*
G01X7464631Y-2023876D01*
G01X6595311Y-2023876D01*
G01X6599218Y-2018215D01*
G01X6604887Y-2003268D01*
G01X6606814Y-1987398D01*
G01X6604887Y-1971528D01*
G01X6599218Y-1956580D01*
G01X6590137Y-1943423D01*
G01X6578171Y-1932822D01*
G01X6564015Y-1925393D01*
G01X6548493Y-1921567D01*
G01X6532507Y-1921567D01*
G01X6516985Y-1925393D01*
G01X6502829Y-1932822D01*
G01X6490863Y-1943423D01*
G01X6481782Y-1956580D01*
G01X6476113Y-1971528D01*
G01X6474186Y-1987398D01*
G01X6474186Y-1987398D01*
G01X5648773Y-1987398D01*
G01X5646718Y-1981980D01*
G01X5637637Y-1968823D01*
G01X5625671Y-1958222D01*
G01X5611515Y-1950793D01*
G01X5595993Y-1946967D01*
G01X5580007Y-1946967D01*
G01X5564485Y-1950793D01*
G01X5550329Y-1958222D01*
G01X5538363Y-1968823D01*
G01X5529282Y-1981980D01*
G01X5523613Y-1996928D01*
G01X5521686Y-2012798D01*
G01X5521686Y-2012798D01*
G01X2756854Y-2012798D01*
G01X2765034Y-2005116D01*
G01X2784166Y-1981989D01*
G01X2800250Y-1956646D01*
G01X2813030Y-1929487D01*
G01X2822305Y-1900940D01*
G01X2827929Y-1871456D01*
G01X2829814Y-1841500D01*
G01X2827929Y-1811544D01*
G01X2822305Y-1782060D01*
G01X2813030Y-1753513D01*
G01X2800250Y-1726354D01*
G01X2784166Y-1701011D01*
G01X2765034Y-1677884D01*
G01X2743153Y-1657337D01*
G01X2718870Y-1639694D01*
G01X2692567Y-1625234D01*
G01X2664659Y-1614184D01*
G01X2635587Y-1606720D01*
G01X2605808Y-1602958D01*
G01X2575792Y-1602958D01*
G01X2546013Y-1606720D01*
G01X2516941Y-1614184D01*
G01X2489033Y-1625234D01*
G01X2462730Y-1639694D01*
G01X2438447Y-1657337D01*
G01X2416566Y-1677884D01*
G01X2397434Y-1701011D01*
G01X2381350Y-1726354D01*
G01X2368570Y-1753513D01*
G01X2359295Y-1782060D01*
G01X2353671Y-1811544D01*
G01X2351786Y-1841500D01*
G01X2351786Y-1841500D01*
G01X48514Y-1841500D01*
G01X48514Y-1536700D01*
G01X407986Y-1536700D01*
G01X409843Y-1560292D01*
G01X415368Y-1583304D01*
G01X424424Y-1605168D01*
G01X436789Y-1625346D01*
G01X452159Y-1643341D01*
G01X470154Y-1658711D01*
G01X490332Y-1671076D01*
G01X512196Y-1680132D01*
G01X535208Y-1685657D01*
G01X558800Y-1687514D01*
G01X582392Y-1685657D01*
G01X605404Y-1680132D01*
G01X627268Y-1671076D01*
G01X647446Y-1658711D01*
G01X665441Y-1643341D01*
G01X680811Y-1625346D01*
G01X693176Y-1605168D01*
G01X702232Y-1583304D01*
G01X707757Y-1560292D01*
G01X709614Y-1536700D01*
G01X1762791Y-1536700D01*
G01X1764718Y-1552570D01*
G01X1770387Y-1567518D01*
G01X1779468Y-1580674D01*
G01X1791434Y-1591275D01*
G01X1805590Y-1598705D01*
G01X1821112Y-1602531D01*
G01X1837098Y-1602531D01*
G01X1852620Y-1598705D01*
G01X1866775Y-1591275D01*
G01X1878742Y-1580674D01*
G01X1887823Y-1567518D01*
G01X1893492Y-1552570D01*
G01X1895419Y-1536700D01*
G01X1893492Y-1520830D01*
G01X1887823Y-1505882D01*
G01X1878742Y-1492726D01*
G01X1866775Y-1482125D01*
G01X1852620Y-1474695D01*
G01X1837098Y-1470869D01*
G01X1821112Y-1470869D01*
G01X1805590Y-1474695D01*
G01X1791434Y-1482125D01*
G01X1779468Y-1492726D01*
G01X1770387Y-1505882D01*
G01X1764718Y-1520830D01*
G01X1762791Y-1536700D01*
G01X1762791Y-1536700D01*
G01X709614Y-1536700D01*
G01X707757Y-1513108D01*
G01X702232Y-1490096D01*
G01X693176Y-1468232D01*
G01X680811Y-1448054D01*
G01X665441Y-1430059D01*
G01X647446Y-1414689D01*
G01X627268Y-1402324D01*
G01X605404Y-1393268D01*
G01X582392Y-1387743D01*
G01X558800Y-1385886D01*
G01X558800Y-1385886D01*
G01X535208Y-1387743D01*
G01X512196Y-1393268D01*
G01X490332Y-1402324D01*
G01X470154Y-1414689D01*
G01X452159Y-1430059D01*
G01X436789Y-1448054D01*
G01X424424Y-1468232D01*
G01X415368Y-1490096D01*
G01X409843Y-1513108D01*
G01X407986Y-1536700D01*
G01X48514Y-1536700D01*
G01X48514Y-1143700D01*
G01X407986Y-1143700D01*
G01X409739Y-1154767D01*
G01X414826Y-1164751D01*
G01X422749Y-1172674D01*
G01X432733Y-1177761D01*
G01X443800Y-1179514D01*
G01X673800Y-1179514D01*
G01X684867Y-1177761D01*
G01X694851Y-1172674D01*
G01X702774Y-1164751D01*
G01X707861Y-1154767D01*
G01X709614Y-1143700D01*
G01X709614Y-1016000D01*
G01X2649886Y-1016000D01*
G01X2651813Y-1031870D01*
G01X2657482Y-1046818D01*
G01X2666563Y-1059974D01*
G01X2678529Y-1070575D01*
G01X2692685Y-1078005D01*
G01X2708207Y-1081831D01*
G01X2724193Y-1081831D01*
G01X2739715Y-1078005D01*
G01X2753870Y-1070575D01*
G01X2765837Y-1059974D01*
G01X2774918Y-1046818D01*
G01X2780587Y-1031870D01*
G01X2782514Y-1016000D01*
G01X2780587Y-1000130D01*
G01X2774918Y-985182D01*
G01X2765837Y-972026D01*
G01X2753870Y-961425D01*
G01X2739715Y-953995D01*
G01X2724193Y-950169D01*
G01X2708207Y-950169D01*
G01X2692685Y-953995D01*
G01X2678529Y-961425D01*
G01X2666563Y-972026D01*
G01X2657482Y-985182D01*
G01X2651813Y-1000130D01*
G01X2649886Y-1016000D01*
G01X2649886Y-1016000D01*
G01X709614Y-1016000D01*
G01X709614Y-913700D01*
G01X707861Y-902633D01*
G01X702774Y-892649D01*
G01X694851Y-884726D01*
G01X684867Y-879639D01*
G01X673800Y-877886D01*
G01X443800Y-877886D01*
G01X432733Y-879639D01*
G01X422749Y-884726D01*
G01X414826Y-892649D01*
G01X409739Y-902633D01*
G01X407986Y-913700D01*
G01X407986Y-1143700D01*
G01X407986Y-1143700D01*
G01X48514Y-1143700D01*
G01X48514Y-647700D01*
G01X3003886Y-647700D01*
G01X3005813Y-663570D01*
G01X3011481Y-678518D01*
G01X3020563Y-691674D01*
G01X3032529Y-702275D01*
G01X3046684Y-709705D01*
G01X3062206Y-713531D01*
G01X3078193Y-713531D01*
G01X3093715Y-709705D01*
G01X3107870Y-702275D01*
G01X3119836Y-691674D01*
G01X3128918Y-678518D01*
G01X3134587Y-663570D01*
G01X3136514Y-647700D01*
G01X3134587Y-631830D01*
G01X3128918Y-616882D01*
G01X3119836Y-603726D01*
G01X3107870Y-593125D01*
G01X3093715Y-585695D01*
G01X3078193Y-581869D01*
G01X3062206Y-581869D01*
G01X3046684Y-585695D01*
G01X3032529Y-593125D01*
G01X3020563Y-603726D01*
G01X3011481Y-616882D01*
G01X3005813Y-631830D01*
G01X3003886Y-647700D01*
G01X3003886Y-647700D01*
G01X48514Y-647700D01*
G01X48514Y-552704D01*
G01X2163196Y-552704D01*
G01X2165123Y-568574D01*
G01X2170792Y-583522D01*
G01X2179874Y-596678D01*
G01X2191840Y-607279D01*
G01X2205995Y-614709D01*
G01X2221517Y-618535D01*
G01X2237504Y-618535D01*
G01X2253026Y-614709D01*
G01X2267181Y-607279D01*
G01X2279147Y-596678D01*
G01X2288229Y-583522D01*
G01X2293897Y-568574D01*
G01X2295824Y-552704D01*
G01X2293897Y-536834D01*
G01X2288229Y-521886D01*
G01X2286089Y-518786D01*
G01X3755080Y-518786D01*
G01X3756937Y-542379D01*
G01X3762461Y-565390D01*
G01X3771518Y-587254D01*
G01X3783883Y-607432D01*
G01X3799252Y-625428D01*
G01X3817248Y-640797D01*
G01X3837426Y-653162D01*
G01X3859290Y-662219D01*
G01X3882301Y-667743D01*
G01X3905894Y-669600D01*
G01X3929486Y-667743D01*
G01X3952498Y-662219D01*
G01X3974362Y-653162D01*
G01X3994540Y-640797D01*
G01X4012535Y-625428D01*
G01X4027905Y-607432D01*
G01X4040270Y-587254D01*
G01X4049326Y-565390D01*
G01X4054851Y-542379D01*
G01X4056708Y-518786D01*
G01X4263080Y-518786D01*
G01X4264937Y-542379D01*
G01X4270461Y-565390D01*
G01X4279518Y-587254D01*
G01X4291883Y-607432D01*
G01X4307252Y-625428D01*
G01X4325248Y-640797D01*
G01X4345426Y-653162D01*
G01X4367290Y-662219D01*
G01X4390301Y-667743D01*
G01X4413894Y-669600D01*
G01X4437486Y-667743D01*
G01X4460498Y-662219D01*
G01X4482362Y-653162D01*
G01X4502540Y-640797D01*
G01X4520535Y-625428D01*
G01X4535905Y-607432D01*
G01X4548270Y-587254D01*
G01X4557326Y-565390D01*
G01X4562851Y-542379D01*
G01X4564708Y-518786D01*
G01X4771080Y-518786D01*
G01X4772937Y-542379D01*
G01X4778461Y-565390D01*
G01X4787518Y-587254D01*
G01X4799883Y-607432D01*
G01X4815252Y-625428D01*
G01X4833248Y-640797D01*
G01X4853426Y-653162D01*
G01X4875290Y-662219D01*
G01X4898301Y-667743D01*
G01X4921894Y-669600D01*
G01X4945486Y-667743D01*
G01X4968498Y-662219D01*
G01X4990362Y-653162D01*
G01X5010540Y-640797D01*
G01X5028535Y-625428D01*
G01X5043905Y-607432D01*
G01X5056270Y-587254D01*
G01X5065326Y-565390D01*
G01X5070851Y-542379D01*
G01X5072708Y-518786D01*
G01X5072708Y-518786D01*
G01X5279080Y-518786D01*
G01X5280937Y-542379D01*
G01X5286461Y-565390D01*
G01X5295518Y-587254D01*
G01X5307883Y-607432D01*
G01X5323252Y-625428D01*
G01X5341248Y-640797D01*
G01X5361426Y-653162D01*
G01X5383290Y-662219D01*
G01X5406301Y-667743D01*
G01X5429894Y-669600D01*
G01X5453486Y-667743D01*
G01X5476498Y-662219D01*
G01X5498362Y-653162D01*
G01X5518540Y-640797D01*
G01X5536535Y-625428D01*
G01X5551905Y-607432D01*
G01X5564270Y-587254D01*
G01X5573326Y-565390D01*
G01X5578851Y-542379D01*
G01X5580708Y-518786D01*
G01X5787080Y-518786D01*
G01X5788937Y-542379D01*
G01X5794461Y-565390D01*
G01X5803518Y-587254D01*
G01X5815883Y-607432D01*
G01X5831252Y-625428D01*
G01X5849248Y-640797D01*
G01X5869426Y-653162D01*
G01X5891290Y-662219D01*
G01X5914301Y-667743D01*
G01X5937894Y-669600D01*
G01X5961486Y-667743D01*
G01X5984498Y-662219D01*
G01X6006362Y-653162D01*
G01X6026540Y-640797D01*
G01X6044535Y-625428D01*
G01X6059905Y-607432D01*
G01X6072270Y-587254D01*
G01X6081326Y-565390D01*
G01X6086851Y-542379D01*
G01X6088708Y-518786D01*
G01X6295080Y-518786D01*
G01X6296937Y-542379D01*
G01X6302461Y-565390D01*
G01X6311518Y-587254D01*
G01X6323883Y-607432D01*
G01X6339252Y-625428D01*
G01X6357248Y-640797D01*
G01X6377426Y-653162D01*
G01X6399290Y-662219D01*
G01X6422301Y-667743D01*
G01X6445894Y-669600D01*
G01X6469486Y-667743D01*
G01X6492498Y-662219D01*
G01X6514362Y-653162D01*
G01X6534540Y-640797D01*
G01X6552535Y-625428D01*
G01X6567905Y-607432D01*
G01X6580270Y-587254D01*
G01X6589326Y-565390D01*
G01X6594851Y-542379D01*
G01X6596708Y-518786D01*
G01X6596708Y-518786D01*
G01X6594851Y-495194D01*
G01X6589326Y-472182D01*
G01X6580270Y-450318D01*
G01X6567905Y-430140D01*
G01X6552535Y-412145D01*
G01X6545809Y-406400D01*
G01X7673086Y-406400D01*
G01X7674971Y-436356D01*
G01X7680595Y-465840D01*
G01X7689870Y-494387D01*
G01X7702650Y-521546D01*
G01X7718734Y-546889D01*
G01X7737866Y-570016D01*
G01X7759747Y-590563D01*
G01X7784030Y-608206D01*
G01X7810333Y-622666D01*
G01X7838241Y-633716D01*
G01X7867313Y-641180D01*
G01X7897092Y-644942D01*
G01X7927108Y-644942D01*
G01X7956887Y-641180D01*
G01X7985959Y-633716D01*
G01X8013867Y-622666D01*
G01X8040170Y-608206D01*
G01X8064453Y-590563D01*
G01X8086334Y-570016D01*
G01X8105466Y-546889D01*
G01X8121550Y-521546D01*
G01X8134330Y-494387D01*
G01X8143605Y-465840D01*
G01X8149229Y-436356D01*
G01X8151114Y-406400D01*
G01X8149229Y-376444D01*
G01X8143605Y-346960D01*
G01X8134330Y-318413D01*
G01X8121550Y-291254D01*
G01X8105466Y-265911D01*
G01X8086334Y-242784D01*
G01X8064453Y-222237D01*
G01X8040170Y-204594D01*
G01X8013867Y-190134D01*
G01X7985959Y-179084D01*
G01X7956887Y-171620D01*
G01X7927108Y-167858D01*
G01X7897092Y-167858D01*
G01X7867313Y-171620D01*
G01X7838241Y-179084D01*
G01X7810333Y-190134D01*
G01X7784030Y-204594D01*
G01X7759747Y-222237D01*
G01X7737866Y-242784D01*
G01X7718734Y-265911D01*
G01X7702650Y-291254D01*
G01X7689870Y-318413D01*
G01X7680595Y-346960D01*
G01X7674971Y-376444D01*
G01X7673086Y-406400D01*
G01X7673086Y-406400D01*
G01X6545809Y-406400D01*
G01X6534540Y-396775D01*
G01X6514362Y-384410D01*
G01X6492498Y-375354D01*
G01X6469486Y-369829D01*
G01X6445894Y-367972D01*
G01X6422301Y-369829D01*
G01X6399290Y-375354D01*
G01X6377426Y-384410D01*
G01X6357248Y-396775D01*
G01X6339252Y-412145D01*
G01X6323883Y-430140D01*
G01X6311518Y-450318D01*
G01X6302461Y-472182D01*
G01X6296937Y-495194D01*
G01X6295080Y-518786D01*
G01X6088708Y-518786D01*
G01X6088708Y-518786D01*
G01X6088708Y-518786D01*
G01X6086851Y-495194D01*
G01X6081326Y-472182D01*
G01X6072270Y-450318D01*
G01X6059905Y-430140D01*
G01X6044535Y-412145D01*
G01X6026540Y-396775D01*
G01X6006362Y-384410D01*
G01X5984498Y-375354D01*
G01X5961486Y-369829D01*
G01X5937894Y-367972D01*
G01X5914301Y-369829D01*
G01X5891290Y-375354D01*
G01X5869426Y-384410D01*
G01X5849248Y-396775D01*
G01X5831252Y-412145D01*
G01X5815883Y-430140D01*
G01X5803518Y-450318D01*
G01X5794461Y-472182D01*
G01X5788937Y-495194D01*
G01X5787080Y-518786D01*
G01X5580708Y-518786D01*
G01X5580708Y-518786D01*
G01X5580708Y-518786D01*
G01X5578851Y-495194D01*
G01X5573326Y-472182D01*
G01X5564270Y-450318D01*
G01X5551905Y-430140D01*
G01X5536535Y-412145D01*
G01X5518540Y-396775D01*
G01X5498362Y-384410D01*
G01X5476498Y-375354D01*
G01X5453486Y-369829D01*
G01X5429894Y-367972D01*
G01X5406301Y-369829D01*
G01X5383290Y-375354D01*
G01X5361426Y-384410D01*
G01X5341248Y-396775D01*
G01X5323252Y-412145D01*
G01X5307883Y-430140D01*
G01X5295518Y-450318D01*
G01X5286461Y-472182D01*
G01X5280937Y-495194D01*
G01X5279080Y-518786D01*
G01X5072708Y-518786D01*
G01X5070851Y-495194D01*
G01X5065326Y-472182D01*
G01X5056270Y-450318D01*
G01X5043905Y-430140D01*
G01X5028535Y-412145D01*
G01X5010540Y-396775D01*
G01X4990362Y-384410D01*
G01X4968498Y-375354D01*
G01X4945486Y-369829D01*
G01X4921894Y-367972D01*
G01X4898301Y-369829D01*
G01X4875290Y-375354D01*
G01X4853426Y-384410D01*
G01X4833248Y-396775D01*
G01X4815252Y-412145D01*
G01X4799883Y-430140D01*
G01X4787518Y-450318D01*
G01X4778461Y-472182D01*
G01X4772937Y-495194D01*
G01X4771080Y-518786D01*
G01X4564708Y-518786D01*
G01X4564708Y-518786D01*
G01X4564708Y-518786D01*
G01X4562851Y-495194D01*
G01X4557326Y-472182D01*
G01X4548270Y-450318D01*
G01X4535905Y-430140D01*
G01X4520535Y-412145D01*
G01X4502540Y-396775D01*
G01X4482362Y-384410D01*
G01X4460498Y-375354D01*
G01X4437486Y-369829D01*
G01X4413894Y-367972D01*
G01X4390301Y-369829D01*
G01X4367290Y-375354D01*
G01X4345426Y-384410D01*
G01X4325248Y-396775D01*
G01X4307252Y-412145D01*
G01X4291883Y-430140D01*
G01X4279518Y-450318D01*
G01X4270461Y-472182D01*
G01X4264937Y-495194D01*
G01X4263080Y-518786D01*
G01X4056708Y-518786D01*
G01X4056708Y-518786D01*
G01X4056708Y-518786D01*
G01X4054851Y-495194D01*
G01X4049326Y-472182D01*
G01X4040270Y-450318D01*
G01X4027905Y-430140D01*
G01X4012535Y-412145D01*
G01X3994540Y-396775D01*
G01X3974362Y-384410D01*
G01X3952498Y-375354D01*
G01X3929486Y-369829D01*
G01X3905894Y-367972D01*
G01X3882301Y-369829D01*
G01X3859290Y-375354D01*
G01X3837426Y-384410D01*
G01X3817248Y-396775D01*
G01X3799252Y-412145D01*
G01X3783883Y-430140D01*
G01X3771518Y-450318D01*
G01X3762461Y-472182D01*
G01X3756937Y-495194D01*
G01X3755080Y-518786D01*
G01X2286089Y-518786D01*
G01X2279147Y-508730D01*
G01X2267181Y-498129D01*
G01X2253026Y-490699D01*
G01X2237504Y-486873D01*
G01X2221517Y-486873D01*
G01X2205995Y-490699D01*
G01X2191840Y-498129D01*
G01X2179874Y-508730D01*
G01X2170792Y-521886D01*
G01X2165123Y-536834D01*
G01X2163196Y-552704D01*
G01X2163196Y-552704D01*
G01X48514Y-552704D01*
G01X48514Y-330200D01*
G01X1503330Y-330200D01*
G01X1505257Y-346070D01*
G01X1510926Y-361018D01*
G01X1520007Y-374174D01*
G01X1531973Y-384775D01*
G01X1546129Y-392205D01*
G01X1561651Y-396031D01*
G01X1577637Y-396031D01*
G01X1593159Y-392205D01*
G01X1607314Y-384775D01*
G01X1619281Y-374174D01*
G01X1628362Y-361018D01*
G01X1634031Y-346070D01*
G01X1635958Y-330200D01*
G01X1634031Y-314330D01*
G01X1628362Y-299382D01*
G01X1619281Y-286226D01*
G01X1607314Y-275625D01*
G01X1593159Y-268195D01*
G01X1577637Y-264369D01*
G01X1561651Y-264369D01*
G01X1546129Y-268195D01*
G01X1531973Y-275625D01*
G01X1520007Y-286226D01*
G01X1510926Y-299382D01*
G01X1505257Y-314330D01*
G01X1503330Y-330200D01*
G01X1503330Y-330200D01*
G01X48514Y-330200D01*
G01X48514Y-254000D01*
G37*
G54D10*
G01X48514Y-254000D02*
G02X266700Y-35814I218186J0D01*
G01X8051800Y-35814D01*
G02X8269986Y-254000I0J-218186D01*
G01X8269986Y-7645400D01*
G02X8051800Y-7863586I-218186J0D01*
G01X266700Y-7863586D01*
G02X48514Y-7645400I0J218186D01*
G01X48514Y-254000D01*
G01X546100Y-2554286D02*
G03X546100Y-2855914I0J-150814D01*
G03X546100Y-2554286I0J150814D01*
G01X395286Y-2312100D02*
G03X431100Y-2347914I35814J0D01*
G01X661100Y-2347914D01*
G03X696914Y-2312100I0J35814D01*
G01X696914Y-2082100D01*
G03X661100Y-2046286I-35814J0D01*
G01X431100Y-2046286D01*
G03X395286Y-2082100I0J-35814D01*
G01X395286Y-2312100D01*
G01X558800Y-1385886D02*
G03X558800Y-1687514I0J-150814D01*
G03X558800Y-1385886I0J150814D01*
G01X407986Y-1143700D02*
G03X443800Y-1179514I35814J0D01*
G01X673800Y-1179514D01*
G03X709614Y-1143700I0J35814D01*
G01X709614Y-913700D01*
G03X673800Y-877886I-35814J0D01*
G01X443800Y-877886D01*
G03X407986Y-913700I0J-35814D01*
G01X407986Y-1143700D01*
G01X594545Y-4695651D02*
G03X594545Y-4997279I0J-150814D01*
G03X594545Y-4695651I0J150814D01*
G01X594545Y-7019751D02*
G03X594545Y-7321379I0J-150814D01*
G03X594545Y-7019751I0J150814D01*
G01X594545Y-4187651D02*
G03X594545Y-4489279I0J-150814D01*
G03X594545Y-4187651I0J150814D01*
G01X594545Y-6511751D02*
G03X594545Y-6813379I0J-150814D01*
G03X594545Y-6511751I0J150814D01*
G01X594545Y-3171651D02*
G03X594545Y-3473279I0J-150814D01*
G03X594545Y-3171651I0J150814D01*
G01X594545Y-5495751D02*
G03X594545Y-5797379I0J-150814D01*
G03X594545Y-5495751I0J150814D01*
G01X594545Y-6003751D02*
G03X594545Y-6305379I0J-150814D01*
G03X594545Y-6003751I0J150814D01*
G01X594545Y-3679651D02*
G03X594545Y-3981279I0J-150814D01*
G03X594545Y-3679651I0J150814D01*
G01X1239433Y-5490864D02*
G03X1372061Y-5490864I66314J0D01*
G03X1239433Y-5490864I-66314J0D01*
G01X1252131Y-6003028D02*
G03X1384759Y-6003028I66314J0D01*
G03X1252131Y-6003028I-66314J0D01*
G01X1264831Y-7014864D02*
G03X1397459Y-7014864I66314J0D01*
G03X1264831Y-7014864I-66314J0D01*
G01X1264833Y-6506864D02*
G03X1397461Y-6506864I66314J0D01*
G03X1264833Y-6506864I-66314J0D01*
G01X1282910Y-4681616D02*
G03X1415538Y-4681616I66314J0D01*
G03X1282910Y-4681616I-66314J0D01*
G01X1290233Y-4170064D02*
G03X1422861Y-4170064I66314J0D01*
G03X1290233Y-4170064I-66314J0D01*
G01X1295615Y-3671600D02*
G03X1428243Y-3671600I66314J0D01*
G03X1295615Y-3671600I-66314J0D01*
G01X1295616Y-3154393D02*
G03X1428244Y-3154393I66314J0D01*
G03X1295616Y-3154393I-66314J0D01*
G01X1503330Y-330200D02*
G03X1635958Y-330200I66314J0D01*
G03X1503330Y-330200I-66314J0D01*
G01X1762791Y-1536700D02*
G03X1895419Y-1536700I66314J0D01*
G03X1762791Y-1536700I-66314J0D01*
G01X1771972Y-4325762D02*
G03X1904600Y-4325762I66314J0D01*
G03X1771972Y-4325762I-66314J0D01*
G01X1949312Y-6333857D02*
G03X2081940Y-6333857I66314J0D01*
G03X1949312Y-6333857I-66314J0D01*
G01X2001432Y-6097268D02*
G03X2134060Y-6097268I66314J0D01*
G03X2001432Y-6097268I-66314J0D01*
G01X2017862Y-3752382D02*
G03X2150490Y-3752382I66314J0D01*
G03X2017862Y-3752382I-66314J0D01*
G01X2110486Y-7505700D02*
G03X2588514Y-7505700I239014J0D01*
G03X2110486Y-7505700I-239014J0D01*
G01X2115731Y-4382762D02*
G03X2248359Y-4382762I66314J0D01*
G03X2115731Y-4382762I-66314J0D01*
G01X2128432Y-6605267D02*
G03X2261060Y-6605267I66314J0D01*
G03X2128432Y-6605267I-66314J0D01*
G01X2163196Y-552704D02*
G03X2295824Y-552704I66314J0D01*
G03X2163196Y-552704I-66314J0D01*
G01X2308544Y-4048479D02*
G03X2436258Y-4032907I61909J23767D01*
G03X2541584Y-3959015I43417J50125D01*
G03X2413869Y-3974587I-61909J-23767D01*
G03X2308544Y-4048479I-43417J-50125D01*
G01X2351786Y-1841500D02*
G03X2829814Y-1841500I239014J0D01*
G03X2351786Y-1841500I-239014J0D01*
G01X2630906Y-6529848D02*
G03X2655391Y-6400000I6638J65981D01*
G03X2657263Y-6267876I-4766J66142D01*
G03X2632778Y-6397725I-6638J-65981D01*
G03X2630906Y-6529848I4766J-66142D01*
G01X2649886Y-1016000D02*
G03X2782514Y-1016000I66314J0D01*
G03X2649886Y-1016000I-66314J0D01*
G01X2833680Y-6186528D02*
G03X2966308Y-6186528I66314J0D01*
G03X2833680Y-6186528I-66314J0D01*
G01X2875638Y-4151712D02*
G03X3008265Y-4151712I66314J0D01*
G03X2875638Y-4151712I-66314J0D01*
G01X2880086Y-3949700D02*
G03X3012714Y-3949700I66314J0D01*
G03X2880086Y-3949700I-66314J0D01*
G01X3003886Y-647700D02*
G03X3136514Y-647700I66314J0D01*
G03X3003886Y-647700I-66314J0D01*
G01X3007086Y-4013200D02*
G03X3139714Y-4013200I66314J0D01*
G03X3007086Y-4013200I-66314J0D01*
G01X3320288Y-5377919D02*
G03X3452915Y-5377919I66314J0D01*
G03X3320288Y-5377919I-66314J0D01*
G01X3663291Y-4201761D02*
G03X3795919Y-4201761I66314J0D01*
G03X3663291Y-4201761I-66314J0D01*
G01X4056708Y-518786D02*
G03X3755080Y-518786I-150814J0D01*
G03X4056708Y-518786I150814J0D01*
G01X3840836Y-4307311D02*
G03X3973464Y-4307311I66314J0D01*
G03X3840836Y-4307311I-66314J0D01*
G01X3916913Y-4018129D02*
G03X4049540Y-4018129I66314J0D01*
G03X3916913Y-4018129I-66314J0D01*
G01X3951277Y-3828075D02*
G03X4083905Y-3828075I66314J0D01*
G03X3951277Y-3828075I-66314J0D01*
G01X3958641Y-4597400D02*
G03X4091269Y-4597400I66314J0D01*
G03X3958641Y-4597400I-66314J0D01*
G01X4078986Y-5448300D02*
G03X4557014Y-5448300I239014J0D01*
G03X4078986Y-5448300I-239014J0D01*
G01X4564708Y-518786D02*
G03X4263080Y-518786I-150814J0D01*
G03X4564708Y-518786I150814J0D01*
G01X4361188Y-7586203D02*
G01X4361188Y-7646203D01*
G03X4552815Y-7646203I95814J0D01*
G01X4552815Y-7586203D01*
G03X4361188Y-7586203I-95814J0D01*
G01X4547815Y-7151188D02*
G03X4366188Y-7151188I-90814J0D01*
G01X4366188Y-7241188D01*
G03X4538201Y-7281855I90814J0D01*
G03X4670833Y-7256559I62311J33648D01*
G03X4547815Y-7200901I-70321J8352D01*
G01X4547815Y-7151188D01*
G01X4483321Y-4028357D02*
G03X4507271Y-3983310I-42073J51259D01*
G03X4638185Y-3964753I64730J14408D01*
G03X4505978Y-3962691I-66184J-4149D01*
G03X4408676Y-3919336I-64730J-14408D01*
G03X4395425Y-4025033I32573J-57763D01*
G03X4392316Y-4124832I42073J-51259D01*
G03X4437795Y-4239521I45358J-48375D01*
G03X4482855Y-4124667I-121J66314D01*
G03X4483321Y-4028357I-45358J48375D01*
G01X4374935Y-4327911D02*
G03X4507562Y-4327911I66314J0D01*
G03X4374935Y-4327911I-66314J0D01*
G01X5072708Y-518786D02*
G03X4771080Y-518786I-150814J0D01*
G03X5072708Y-518786I150814J0D01*
G01X4773886Y-3378200D02*
G03X4906514Y-3378200I66314J0D01*
G03X4773886Y-3378200I-66314J0D01*
G01X4783079Y-3557618D02*
G03X4915707Y-3557618I66314J0D01*
G03X4783079Y-3557618I-66314J0D01*
G01X4823186Y-6944706D02*
G03X4955814Y-6944706I66314J0D01*
G03X4823186Y-6944706I-66314J0D01*
G01X4837076Y-4206312D02*
G03X4969704Y-4206312I66314J0D01*
G03X4837076Y-4206312I-66314J0D01*
G01X5007980Y-2152467D02*
G03X5140608Y-2152467I66314J0D01*
G03X5007980Y-2152467I-66314J0D01*
G01X5128073Y-7198503D02*
G03X5012503Y-7239204I-49353J-44292D01*
G03X5122994Y-7292165I66217J-3591D01*
G03X5240811Y-7281880I55520J43958D01*
G03X5412812Y-7241188I81187J40692D01*
G01X5412812Y-7151188D01*
G03X5231185Y-7151188I-90814J0D01*
G01X5231185Y-7200873D01*
G03X5128073Y-7198503I-52671J-47335D01*
G01X5218076Y-3825312D02*
G03X5350703Y-3825312I66314J0D01*
G03X5218076Y-3825312I-66314J0D01*
G01X5226185Y-7586203D02*
G01X5226185Y-7646203D01*
G03X5417812Y-7646203I95814J0D01*
G01X5417812Y-7586203D01*
G03X5226185Y-7586203I-95814J0D01*
G01X5580708Y-518786D02*
G03X5279080Y-518786I-150814J0D01*
G03X5580708Y-518786I150814J0D01*
G01X5521686Y-2012798D02*
G03X5654314Y-2012798I66314J0D01*
G03X5521686Y-2012798I-66314J0D01*
G01X5522892Y-5195506D02*
G03X5655521Y-5195506I66314J0D01*
G03X5522892Y-5195506I-66314J0D01*
G01X5775683Y-6597798D02*
G03X5908310Y-6597798I66314J0D01*
G03X5775683Y-6597798I-66314J0D01*
G01X6088708Y-518786D02*
G03X5787080Y-518786I-150814J0D01*
G03X6088708Y-518786I150814J0D01*
G01X5978886Y-2142490D02*
G03X6111514Y-2142490I66314J0D01*
G03X5978886Y-2142490I-66314J0D01*
G01X6029686Y-7624508D02*
G03X6162314Y-7624508I66314J0D01*
G03X6029686Y-7624508I-66314J0D01*
G01X6105886Y-2671249D02*
G03X6238514Y-2671249I66314J0D01*
G03X6105886Y-2671249I-66314J0D01*
G01X6156686Y-7234491D02*
G03X6289314Y-7234491I66314J0D01*
G03X6156686Y-7234491I-66314J0D01*
G01X6596708Y-518786D02*
G03X6295080Y-518786I-150814J0D01*
G03X6596708Y-518786I150814J0D01*
G01X6474186Y-1987398D02*
G03X6606814Y-1987398I66314J0D01*
G03X6474186Y-1987398I-66314J0D01*
G01X7464631Y-2023876D02*
G03X7597259Y-2023876I66314J0D01*
G03X7464631Y-2023876I-66314J0D01*
G01X7464632Y-2380633D02*
G03X7597260Y-2380633I66314J0D01*
G03X7464632Y-2380633I-66314J0D01*
G01X7464632Y-3464440D02*
G03X7597260Y-3464440I66314J0D01*
G03X7464632Y-3464440I-66314J0D01*
G01X7464632Y-3817032D02*
G03X7597260Y-3817032I66314J0D01*
G03X7464632Y-3817032I-66314J0D01*
G01X7464633Y-3099147D02*
G03X7597261Y-3099147I66314J0D01*
G03X7464633Y-3099147I-66314J0D01*
G01X7464634Y-2733226D02*
G03X7597262Y-2733226I66314J0D01*
G03X7464634Y-2733226I-66314J0D01*
G01X7464911Y-4164810D02*
G03X7582173Y-4211197I66188J-4091D01*
G03X7704255Y-4179602I55894J35685D01*
G03X7586993Y-4133216I-66188J4091D01*
G03X7464911Y-4164810I-55894J-35685D01*
G01X7464785Y-4511801D02*
G03X7597413Y-4511801I66314J0D01*
G03X7464785Y-4511801I-66314J0D01*
G01X7464786Y-4837836D02*
G03X7597414Y-4837836I66314J0D01*
G03X7464786Y-4837836I-66314J0D01*
G01X7673086Y-406400D02*
G03X8151114Y-406400I239014J0D01*
G03X7673086Y-406400I-239014J0D01*
G01X7673086Y-7518400D02*
G03X8151114Y-7518400I239014J0D01*
G03X7673086Y-7518400I-239014J0D01*
G01X7886375Y-4998320D02*
G03X8019003Y-4998320I66314J0D01*
G03X7886375Y-4998320I-66314J0D01*
G54D11*
G01X546100Y-2197100D02*
G01X546100Y-2056446D01*
G01X546100Y-2197100D02*
G01X546100Y-2337754D01*
G01X546100Y-2197100D02*
G01X686754Y-2197100D01*
G01X546100Y-2197100D02*
G01X405446Y-2197100D01*
G01X546100Y-2705100D02*
G01X546100Y-2564446D01*
G01X546100Y-2705100D02*
G01X546100Y-2845754D01*
G01X546100Y-2705100D02*
G01X686754Y-2705100D01*
G01X546100Y-2705100D02*
G01X405446Y-2705100D01*
G01X558800Y-1536700D02*
G01X558800Y-1396046D01*
G01X558800Y-1536700D02*
G01X558800Y-1677354D01*
G01X558800Y-1536700D02*
G01X699454Y-1536700D01*
G01X558800Y-1536700D02*
G01X418146Y-1536700D01*
G01X3905894Y-518786D02*
G01X4046548Y-518786D01*
G01X3905894Y-518786D02*
G01X3765240Y-518786D01*
G01X3905894Y-518786D02*
G01X3905894Y-659440D01*
G01X3905894Y-518786D02*
G01X3905894Y-378132D01*
G01X4413894Y-518786D02*
G01X4554548Y-518786D01*
G01X4413894Y-518786D02*
G01X4273240Y-518786D01*
G01X4413894Y-518786D02*
G01X4413894Y-659440D01*
G01X4413894Y-518786D02*
G01X4413894Y-378132D01*
G01X4457002Y-7196188D02*
G01X4376348Y-7196188D01*
G01X4457002Y-7196188D02*
G01X4537655Y-7196188D01*
G01X4457002Y-7196188D02*
G01X4457002Y-7070534D01*
G01X4457002Y-7196188D02*
G01X4457002Y-7321842D01*
G01X4457002Y-7616203D02*
G01X4371348Y-7616203D01*
G01X4457002Y-7616203D02*
G01X4542655Y-7616203D01*
G01X4457002Y-7616203D02*
G01X4457002Y-7500549D01*
G01X4457002Y-7616203D02*
G01X4457002Y-7731857D01*
G01X5321999Y-7616203D02*
G01X5236345Y-7616203D01*
G01X5321999Y-7616203D02*
G01X5407652Y-7616203D01*
G01X5321999Y-7616203D02*
G01X5321999Y-7500549D01*
G01X5321999Y-7616203D02*
G01X5321999Y-7731857D01*
G01X5321999Y-7196188D02*
G01X5241345Y-7196188D01*
G01X5321999Y-7196188D02*
G01X5402652Y-7196188D01*
G01X5321999Y-7196188D02*
G01X5321999Y-7070534D01*
G01X5321999Y-7196188D02*
G01X5321999Y-7321842D01*
G04 Copper End*

G04 Pad Start*
G54D12*
G01X2590800Y-1841500D03*
G01X7912100Y-406400D03*
G01X7912100Y-7518400D03*
G01X4318000Y-5448300D03*
G01X2349500Y-7505700D03*
G54D13*
G01X6445894Y-518786D03*
G01X5937894Y-518786D03*
G01X5429894Y-518786D03*
G01X4921894Y-518786D03*
G01X4413894Y-518786D03*
G01X3905894Y-518786D03*
G54D14*
G01X558800Y-1028700D03*
G54D13*
G01X558800Y-1536700D03*
G01X594545Y-5646565D03*
G01X594545Y-6154565D03*
G01X594545Y-6662565D03*
G01X594545Y-7170565D03*
G01X594545Y-3322465D03*
G01X594545Y-3830465D03*
G01X594545Y-4338465D03*
G01X594545Y-4846465D03*
G54D14*
G01X546100Y-2197100D03*
G54D13*
G01X546100Y-2705100D03*
G54D15*
G01X4457002Y-7196188D03*
G01X5321999Y-7196188D03*
G54D16*
G01X4457002Y-7616203D03*
G01X5321999Y-7616203D03*
G04 Pad End*

G04 Via Start*
G54D17*
G01X4441249Y-4327911D03*
G01X7638067Y-4175512D03*
G01X4437674Y-4173207D03*
G01X4024955Y-4597400D03*
G01X4437497Y-4076292D03*
G01X3729605Y-4201761D03*
G01X3983226Y-4018129D03*
G01X3907150Y-4307311D03*
G01X2941951Y-4151712D03*
G01X2370453Y-4024712D03*
G01X4441249Y-3977099D03*
G01X3386602Y-5377919D03*
G01X4017591Y-3828075D03*
G01X2899994Y-6186528D03*
G01X2349499Y-6096000D03*
G01X2946400Y-3949700D03*
G01X1349224Y-4681616D03*
G01X6210300Y-1331900D03*
G01X5252094Y-1341877D03*
G01X6540500Y-2127402D03*
G01X6540500Y-1987398D03*
G01X5588000Y-2012798D03*
G01X7530945Y-2023876D03*
G01X7530946Y-2380633D03*
G01X7530948Y-2733226D03*
G01X7530947Y-3099147D03*
G01X7530946Y-3464440D03*
G01X7530946Y-3817032D03*
G01X7531099Y-4168901D03*
G01X7531099Y-4511801D03*
G01X7531100Y-4837836D03*
G01X7952689Y-4998320D03*
G01X7531105Y-5168040D03*
G01X7248399Y-6019799D03*
G01X6172200Y-2671249D03*
G01X4840200Y-3378200D03*
G01X1331145Y-7014864D03*
G01X2184400Y-4521200D03*
G01X2182045Y-4382762D03*
G01X1356547Y-4170064D03*
G01X5074294Y-2152467D03*
G01X6045200Y-2142490D03*
G01X5588000Y-2152802D03*
G01X1728579Y-3638384D03*
G01X1724845Y-4649767D03*
G01X2755900Y-3771900D03*
G01X1305747Y-5490864D03*
G01X1661345Y-5957867D03*
G01X1318445Y-6003028D03*
G01X1677779Y-6467292D03*
G01X1331147Y-6506864D03*
G01X1686745Y-6986567D03*
G01X1686745Y-7494567D03*
G01X2194745Y-6745267D03*
G01X2194746Y-6605267D03*
G01X1361930Y-3154393D03*
G01X1361929Y-3671600D03*
G01X1728579Y-4143461D03*
G01X1728579Y-5152907D03*
G01X2084176Y-3752382D03*
G01X2479675Y-3982782D03*
G01X2067746Y-6097268D03*
G01X2637545Y-6463867D03*
G01X2015626Y-6333857D03*
G01X2650625Y-6333857D03*
G01X4903390Y-4206312D03*
G01X5284389Y-3825312D03*
G01X1838286Y-4325762D03*
G01X1569644Y-330200D03*
G01X3911600Y-1282700D03*
G01X5455294Y-2693487D03*
G01X6096000Y-7624508D03*
G01X6223000Y-7624508D03*
G01X6350000Y-7624508D03*
G01X6604000Y-7624508D03*
G01X4889500Y-6944706D03*
G01X5078720Y-7242796D03*
G01X4705198Y-3378200D03*
G01X5841996Y-6597798D03*
G01X4572001Y-3968902D03*
G01X4305300Y-7204201D03*
G01X5473699Y-7204201D03*
G01X4889500Y-6716351D03*
G01X4709184Y-3557414D03*
G01X4849393Y-3557618D03*
G01X2229510Y-552704D03*
G01X3070200Y-647700D03*
G01X2516200Y-1016000D03*
G01X2716200Y-1016000D03*
G01X1829105Y-1536700D03*
G01X4419600Y-1282700D03*
G01X3073400Y-4013200D03*
G01X5589207Y-5195506D03*
G01X6223000Y-7234491D03*
G04 Via End*

G04 Track Start*
G54D19*
G01X546100Y-2705100D02*
G01X546100Y-2197100D01*
G01X558800Y-1536700D02*
G01X558800Y-2184400D01*
G01X546100Y-2197100D01*
G04 Track End*

M02*

