G04 Layer: InnerLayer2*
G04 EasyEDA Pro v3.2.148, 2026-07-18 15:47:37*
G04 Gerber Generator version 0.3*
G04 Scale: 100 percent, Rotated: No, Reflected: No*
G04 Dimensions in millimeters*
G04 Leading zeros omitted, absolute positions, 4 integers and 5 decimals*
G04 Generated by one-click*
G04 Object Configs: Pad,Via,Track,Text,Image,Dimension,BoardOutline,BoardCutout,CopperFilled,SolidRegion,FPCStiffener,Line,PlaneZone,ComponentProperty,ComponentSilkscreen,TearDrop*
G04 Layer Configs: 1,15,16,2,3,4,5,6,7,8,9,10,11,13,14,56*
G04 Copper Areas: 1*
%FSLAX45Y45*%
%MOMM*%
%ADD10C,0.2032*%
%ADD11C,4.064*%
%ADD12C,2.3*%
%ADD13R,2.3X2.3*%
%ADD14O,1.1X2.0*%
%ADD15O,1.2X1.8*%
%ADD16C,0.61*%
%ADD17C,0.254*%
%ADD18C,0.2572*%
%ADD19C,0.24925*%
G75*


G04 Copper Start*
G36*
G01X63217Y-175260D02*
G01X7851256Y-175260D01*
G01X7822825Y-184685D01*
G01X7795796Y-197592D01*
G01X7770593Y-213778D01*
G01X7747612Y-232989D01*
G01X7727215Y-254923D01*
G01X7709721Y-279236D01*
G01X7695406Y-305547D01*
G01X7684494Y-333441D01*
G01X7677156Y-362481D01*
G01X7673508Y-392210D01*
G01X7673606Y-422163D01*
G01X7677451Y-451868D01*
G01X7684980Y-480859D01*
G01X7696076Y-508680D01*
G01X7710565Y-534896D01*
G01X7728218Y-559093D01*
G01X7748760Y-580892D01*
G01X7771866Y-599952D01*
G01X7797175Y-615971D01*
G01X7824289Y-628699D01*
G01X7852782Y-637936D01*
G01X7882206Y-643537D01*
G01X7912100Y-645414D01*
G01X7941994Y-643537D01*
G01X7971418Y-637936D01*
G01X7999911Y-628699D01*
G01X8027025Y-615971D01*
G01X8052334Y-599952D01*
G01X8075440Y-580892D01*
G01X8095982Y-559093D01*
G01X8113635Y-534896D01*
G01X8128124Y-508680D01*
G01X8139220Y-480859D01*
G01X8146749Y-451868D01*
G01X8150594Y-422163D01*
G01X8150692Y-392210D01*
G01X8147044Y-362481D01*
G01X8139706Y-333441D01*
G01X8128794Y-305547D01*
G01X8114479Y-279236D01*
G01X8096985Y-254923D01*
G01X8076588Y-232989D01*
G01X8053607Y-213778D01*
G01X8028404Y-197592D01*
G01X8001375Y-184685D01*
G01X7972944Y-175260D01*
G01X8232140Y-175260D01*
G01X8232140Y-7768211D01*
G01X8215909Y-7789183D01*
G01X8197253Y-7808030D01*
G01X8176449Y-7824475D01*
G01X8153803Y-7838274D01*
G01X8129651Y-7849224D01*
G01X8104349Y-7857163D01*
G01X8078270Y-7861974D01*
G01X8051800Y-7863586D01*
G01X266700Y-7863586D01*
G01X238221Y-7861719D01*
G01X210229Y-7856151D01*
G01X183204Y-7846978D01*
G01X157607Y-7834355D01*
G01X133877Y-7818499D01*
G01X112419Y-7799681D01*
G01X93601Y-7778223D01*
G01X77745Y-7754493D01*
G01X65122Y-7728896D01*
G01X55949Y-7701871D01*
G01X50381Y-7673879D01*
G01X48514Y-7645400D01*
G01X48514Y-7494567D01*
G01X1620431Y-7494567D01*
G01X1622358Y-7510437D01*
G01X1628027Y-7525385D01*
G01X1637109Y-7538542D01*
G01X1649075Y-7549143D01*
G01X1663230Y-7556572D01*
G01X1678752Y-7560398D01*
G01X1694739Y-7560398D01*
G01X1710261Y-7556572D01*
G01X1724416Y-7549143D01*
G01X1736382Y-7538542D01*
G01X1745464Y-7525385D01*
G01X1751133Y-7510437D01*
G01X1751708Y-7505700D01*
G01X2110486Y-7505700D01*
G01X2112371Y-7535656D01*
G01X2117995Y-7565140D01*
G01X2127270Y-7593687D01*
G01X2140050Y-7620846D01*
G01X2156134Y-7646189D01*
G01X2175266Y-7669316D01*
G01X2197147Y-7689863D01*
G01X2221430Y-7707506D01*
G01X2247733Y-7721966D01*
G01X2275641Y-7733016D01*
G01X2304713Y-7740480D01*
G01X2334492Y-7744242D01*
G01X2364508Y-7744242D01*
G01X2394287Y-7740480D01*
G01X2423359Y-7733016D01*
G01X2451267Y-7721966D01*
G01X2477570Y-7707506D01*
G01X2501853Y-7689863D01*
G01X2523734Y-7669316D01*
G01X2542866Y-7646189D01*
G01X2558950Y-7620846D01*
G01X2571730Y-7593687D01*
G01X2574161Y-7586203D01*
G01X4361188Y-7586203D01*
G01X4361188Y-7646203D01*
G01X4363029Y-7664895D01*
G01X4368481Y-7682869D01*
G01X4377335Y-7699434D01*
G01X4389251Y-7713953D01*
G01X4403770Y-7725869D01*
G01X4420335Y-7734723D01*
G01X4438309Y-7740175D01*
G01X4457002Y-7742017D01*
G01X4475694Y-7740175D01*
G01X4493668Y-7734723D01*
G01X4510233Y-7725869D01*
G01X4524752Y-7713953D01*
G01X4536668Y-7699434D01*
G01X4545522Y-7682869D01*
G01X4550974Y-7664895D01*
G01X4552815Y-7646203D01*
G01X4552815Y-7586203D01*
G01X5226185Y-7586203D01*
G01X5226185Y-7646203D01*
G01X5228026Y-7664895D01*
G01X5233478Y-7682869D01*
G01X5242332Y-7699434D01*
G01X5254248Y-7713953D01*
G01X5268767Y-7725869D01*
G01X5285332Y-7734723D01*
G01X5303306Y-7740175D01*
G01X5321999Y-7742017D01*
G01X5340691Y-7740175D01*
G01X5358665Y-7734723D01*
G01X5375230Y-7725869D01*
G01X5389749Y-7713953D01*
G01X5401665Y-7699434D01*
G01X5410519Y-7682869D01*
G01X5415971Y-7664895D01*
G01X5417812Y-7646203D01*
G01X5417812Y-7624508D01*
G01X6156686Y-7624508D01*
G01X6158546Y-7640106D01*
G01X6164023Y-7654829D01*
G01X6172810Y-7667850D01*
G01X6184412Y-7678439D01*
G01X6198180Y-7686003D01*
G01X6213340Y-7690115D01*
G01X6229043Y-7690547D01*
G01X6244406Y-7687273D01*
G01X6258569Y-7680477D01*
G01X6270735Y-7670540D01*
G01X6280223Y-7658021D01*
G01X6286500Y-7643621D01*
G01X6292777Y-7658021D01*
G01X6302265Y-7670540D01*
G01X6314431Y-7680477D01*
G01X6328594Y-7687273D01*
G01X6343957Y-7690547D01*
G01X6359660Y-7690115D01*
G01X6374820Y-7686003D01*
G01X6388588Y-7678439D01*
G01X6400190Y-7667850D01*
G01X6408977Y-7654829D01*
G01X6414454Y-7640106D01*
G01X6416314Y-7624508D01*
G01X6537686Y-7624508D01*
G01X6539613Y-7640378D01*
G01X6545282Y-7655326D01*
G01X6554363Y-7668483D01*
G01X6566329Y-7679084D01*
G01X6580485Y-7686513D01*
G01X6596007Y-7690339D01*
G01X6611993Y-7690339D01*
G01X6627515Y-7686513D01*
G01X6641671Y-7679084D01*
G01X6653637Y-7668483D01*
G01X6662718Y-7655326D01*
G01X6668387Y-7640378D01*
G01X6670314Y-7624508D01*
G01X6668387Y-7608639D01*
G01X6662718Y-7593691D01*
G01X6653637Y-7580534D01*
G01X6641671Y-7569933D01*
G01X6627515Y-7562504D01*
G01X6611993Y-7558678D01*
G01X6596007Y-7558678D01*
G01X6580485Y-7562504D01*
G01X6566329Y-7569933D01*
G01X6554363Y-7580534D01*
G01X6545282Y-7593691D01*
G01X6539613Y-7608639D01*
G01X6537686Y-7624508D01*
G01X6537686Y-7624508D01*
G01X6416314Y-7624508D01*
G01X6414454Y-7608911D01*
G01X6408977Y-7594188D01*
G01X6400190Y-7581167D01*
G01X6388588Y-7570578D01*
G01X6374820Y-7563014D01*
G01X6359660Y-7558902D01*
G01X6343957Y-7558470D01*
G01X6328594Y-7561744D01*
G01X6314431Y-7568540D01*
G01X6302265Y-7578477D01*
G01X6292777Y-7590996D01*
G01X6286500Y-7605396D01*
G01X6280223Y-7590996D01*
G01X6270735Y-7578477D01*
G01X6258569Y-7568540D01*
G01X6244406Y-7561744D01*
G01X6229043Y-7558470D01*
G01X6213340Y-7558902D01*
G01X6198180Y-7563014D01*
G01X6184412Y-7570578D01*
G01X6172810Y-7581167D01*
G01X6164023Y-7594188D01*
G01X6158546Y-7608911D01*
G01X6156686Y-7624508D01*
G01X6156686Y-7624508D01*
G01X5417812Y-7624508D01*
G01X5417812Y-7586203D01*
G01X5415971Y-7567510D01*
G01X5410519Y-7549536D01*
G01X5401665Y-7532971D01*
G01X5389749Y-7518452D01*
G01X5389686Y-7518400D01*
G01X7673086Y-7518400D01*
G01X7674971Y-7548356D01*
G01X7680595Y-7577840D01*
G01X7689870Y-7606387D01*
G01X7702650Y-7633546D01*
G01X7718734Y-7658889D01*
G01X7737866Y-7682016D01*
G01X7759747Y-7702563D01*
G01X7784030Y-7720206D01*
G01X7810333Y-7734666D01*
G01X7838241Y-7745716D01*
G01X7867313Y-7753180D01*
G01X7897092Y-7756942D01*
G01X7927108Y-7756942D01*
G01X7956887Y-7753180D01*
G01X7985959Y-7745716D01*
G01X8013867Y-7734666D01*
G01X8040170Y-7720206D01*
G01X8064453Y-7702563D01*
G01X8086334Y-7682016D01*
G01X8105466Y-7658889D01*
G01X8121550Y-7633546D01*
G01X8134330Y-7606387D01*
G01X8143605Y-7577840D01*
G01X8149229Y-7548356D01*
G01X8151114Y-7518400D01*
G01X8149229Y-7488444D01*
G01X8143605Y-7458960D01*
G01X8134330Y-7430413D01*
G01X8121550Y-7403254D01*
G01X8105466Y-7377911D01*
G01X8086334Y-7354784D01*
G01X8064453Y-7334237D01*
G01X8040170Y-7316594D01*
G01X8013867Y-7302134D01*
G01X7985959Y-7291084D01*
G01X7956887Y-7283620D01*
G01X7927108Y-7279858D01*
G01X7897092Y-7279858D01*
G01X7867313Y-7283620D01*
G01X7838241Y-7291084D01*
G01X7810333Y-7302134D01*
G01X7784030Y-7316594D01*
G01X7759747Y-7334237D01*
G01X7737866Y-7354784D01*
G01X7718734Y-7377911D01*
G01X7702650Y-7403254D01*
G01X7689870Y-7430413D01*
G01X7680595Y-7458960D01*
G01X7674971Y-7488444D01*
G01X7673086Y-7518400D01*
G01X7673086Y-7518400D01*
G01X5389686Y-7518400D01*
G01X5375230Y-7506536D01*
G01X5358665Y-7497682D01*
G01X5340691Y-7492230D01*
G01X5321999Y-7490389D01*
G01X5303306Y-7492230D01*
G01X5285332Y-7497682D01*
G01X5268767Y-7506536D01*
G01X5254248Y-7518452D01*
G01X5242332Y-7532971D01*
G01X5233478Y-7549536D01*
G01X5228026Y-7567510D01*
G01X5226185Y-7586203D01*
G01X5226185Y-7586203D01*
G01X4552815Y-7586203D01*
G01X4550974Y-7567510D01*
G01X4545522Y-7549536D01*
G01X4536668Y-7532971D01*
G01X4524752Y-7518452D01*
G01X4510233Y-7506536D01*
G01X4493668Y-7497682D01*
G01X4475694Y-7492230D01*
G01X4457002Y-7490389D01*
G01X4438309Y-7492230D01*
G01X4420335Y-7497682D01*
G01X4403770Y-7506536D01*
G01X4389251Y-7518452D01*
G01X4377335Y-7532971D01*
G01X4368481Y-7549536D01*
G01X4363029Y-7567510D01*
G01X4361188Y-7586203D01*
G01X4361188Y-7586203D01*
G01X2574161Y-7586203D01*
G01X2581005Y-7565140D01*
G01X2586629Y-7535656D01*
G01X2588514Y-7505700D01*
G01X2586629Y-7475744D01*
G01X2581005Y-7446260D01*
G01X2571730Y-7417713D01*
G01X2558950Y-7390554D01*
G01X2542866Y-7365211D01*
G01X2523734Y-7342084D01*
G01X2501853Y-7321537D01*
G01X2477570Y-7303894D01*
G01X2451267Y-7289434D01*
G01X2423359Y-7278384D01*
G01X2394287Y-7270920D01*
G01X2364508Y-7267158D01*
G01X2334492Y-7267158D01*
G01X2304713Y-7270920D01*
G01X2275641Y-7278384D01*
G01X2247733Y-7289434D01*
G01X2221430Y-7303894D01*
G01X2197147Y-7321537D01*
G01X2175266Y-7342084D01*
G01X2156134Y-7365211D01*
G01X2140050Y-7390554D01*
G01X2127270Y-7417713D01*
G01X2117995Y-7446260D01*
G01X2112371Y-7475744D01*
G01X2110486Y-7505700D01*
G01X2110486Y-7505700D01*
G01X1751708Y-7505700D01*
G01X1753059Y-7494567D01*
G01X1751133Y-7478697D01*
G01X1745464Y-7463749D01*
G01X1736382Y-7450593D01*
G01X1724416Y-7439992D01*
G01X1710261Y-7432562D01*
G01X1694739Y-7428737D01*
G01X1678752Y-7428737D01*
G01X1663230Y-7432562D01*
G01X1649075Y-7439992D01*
G01X1637109Y-7450593D01*
G01X1628027Y-7463749D01*
G01X1622358Y-7478697D01*
G01X1620431Y-7494567D01*
G01X1620431Y-7494567D01*
G01X48514Y-7494567D01*
G01X48514Y-7170565D01*
G01X443732Y-7170565D01*
G01X445588Y-7194157D01*
G01X451113Y-7217169D01*
G01X460169Y-7239033D01*
G01X472535Y-7259211D01*
G01X487904Y-7277206D01*
G01X505899Y-7292576D01*
G01X526077Y-7304941D01*
G01X547941Y-7313997D01*
G01X570953Y-7319522D01*
G01X594545Y-7321379D01*
G01X618138Y-7319522D01*
G01X641149Y-7313997D01*
G01X663013Y-7304941D01*
G01X683192Y-7292576D01*
G01X701187Y-7277206D01*
G01X716556Y-7259211D01*
G01X728921Y-7239033D01*
G01X737978Y-7217169D01*
G01X741091Y-7204201D01*
G01X4238986Y-7204201D01*
G01X4240700Y-7219180D01*
G01X4245753Y-7233385D01*
G01X4253885Y-7246082D01*
G01X4264674Y-7256613D01*
G01X4277563Y-7264436D01*
G01X4291886Y-7269144D01*
G01X4306903Y-7270495D01*
G01X4321837Y-7268420D01*
G01X4335915Y-7263025D01*
G01X4348412Y-7254589D01*
G01X4358679Y-7243548D01*
G01X4366188Y-7230473D01*
G01X4366188Y-7241188D01*
G01X4368107Y-7259759D01*
G01X4373783Y-7277545D01*
G01X4382976Y-7293794D01*
G01X4395298Y-7307820D01*
G01X4410227Y-7319030D01*
G01X4427134Y-7326950D01*
G01X4445302Y-7331245D01*
G01X4463966Y-7331735D01*
G01X4482334Y-7328397D01*
G01X4499633Y-7321374D01*
G01X4515129Y-7310962D01*
G01X4528169Y-7297601D01*
G01X4538201Y-7281855D01*
G01X4547505Y-7295166D01*
G01X4559597Y-7306007D01*
G01X4573841Y-7313809D01*
G01X4589488Y-7318159D01*
G01X4605715Y-7318831D01*
G01X4621668Y-7315789D01*
G01X4636508Y-7309192D01*
G01X4649455Y-7299387D01*
G01X4659827Y-7286891D01*
G01X4667081Y-7272360D01*
G01X4670833Y-7256559D01*
G01X4670886Y-7240319D01*
G01X4670629Y-7239204D01*
G01X5012503Y-7239204D01*
G01X5013494Y-7254760D01*
G01X5018089Y-7269655D01*
G01X5026034Y-7283066D01*
G01X5036890Y-7294252D01*
G01X5050057Y-7302595D01*
G01X5064807Y-7307634D01*
G01X5080326Y-7309090D01*
G01X5095757Y-7306884D01*
G01X5110246Y-7301136D01*
G01X5122994Y-7292165D01*
G01X5133903Y-7303204D01*
G01X5146954Y-7311601D01*
G01X5161522Y-7316954D01*
G01X5176905Y-7319004D01*
G01X5192366Y-7317655D01*
G01X5207161Y-7312969D01*
G01X5220581Y-7305174D01*
G01X5231980Y-7294642D01*
G01X5240811Y-7281880D01*
G01X5250847Y-7297620D01*
G01X5263889Y-7310976D01*
G01X5279386Y-7321384D01*
G01X5296684Y-7328402D01*
G01X5315051Y-7331736D01*
G01X5333712Y-7331243D01*
G01X5351878Y-7326946D01*
G01X5368782Y-7319025D01*
G01X5383708Y-7307814D01*
G01X5396028Y-7293789D01*
G01X5405219Y-7277541D01*
G01X5410894Y-7259757D01*
G01X5412812Y-7241188D01*
G01X5412812Y-7230476D01*
G01X5420321Y-7243550D01*
G01X5430589Y-7254590D01*
G01X5443086Y-7263026D01*
G01X5457164Y-7268420D01*
G01X5472098Y-7270495D01*
G01X5487114Y-7269144D01*
G01X5501437Y-7264435D01*
G01X5514326Y-7256613D01*
G01X5525115Y-7246081D01*
G01X5532537Y-7234491D01*
G01X6156686Y-7234491D01*
G01X6158613Y-7250361D01*
G01X6164282Y-7265309D01*
G01X6173363Y-7278466D01*
G01X6185329Y-7289067D01*
G01X6199485Y-7296496D01*
G01X6215007Y-7300322D01*
G01X6230993Y-7300322D01*
G01X6246515Y-7296496D01*
G01X6260671Y-7289067D01*
G01X6272637Y-7278466D01*
G01X6281718Y-7265309D01*
G01X6287387Y-7250361D01*
G01X6289314Y-7234491D01*
G01X6287387Y-7218622D01*
G01X6281718Y-7203674D01*
G01X6272637Y-7190517D01*
G01X6260671Y-7179916D01*
G01X6246515Y-7172487D01*
G01X6230993Y-7168661D01*
G01X6215007Y-7168661D01*
G01X6199485Y-7172487D01*
G01X6185329Y-7179916D01*
G01X6173363Y-7190517D01*
G01X6164282Y-7203674D01*
G01X6158613Y-7218622D01*
G01X6156686Y-7234491D01*
G01X6156686Y-7234491D01*
G01X5532537Y-7234491D01*
G01X5533246Y-7233385D01*
G01X5538299Y-7219180D01*
G01X5540013Y-7204201D01*
G01X5538299Y-7189222D01*
G01X5533246Y-7175017D01*
G01X5525115Y-7162320D01*
G01X5514326Y-7151789D01*
G01X5501437Y-7143967D01*
G01X5487114Y-7139258D01*
G01X5472098Y-7137906D01*
G01X5457164Y-7139981D01*
G01X5443086Y-7145376D01*
G01X5430589Y-7153811D01*
G01X5420321Y-7164851D01*
G01X5412812Y-7177925D01*
G01X5412812Y-7151188D01*
G01X5410828Y-7132307D01*
G01X5404961Y-7114251D01*
G01X5395468Y-7097809D01*
G01X5382765Y-7083701D01*
G01X5367405Y-7072541D01*
G01X5350062Y-7064819D01*
G01X5331491Y-7060872D01*
G01X5312506Y-7060872D01*
G01X5293935Y-7064819D01*
G01X5276592Y-7072541D01*
G01X5261232Y-7083701D01*
G01X5248529Y-7097809D01*
G01X5239036Y-7114251D01*
G01X5233169Y-7132307D01*
G01X5231185Y-7151188D01*
G01X5231185Y-7200873D01*
G01X5218828Y-7189988D01*
G01X5204292Y-7182251D01*
G01X5188361Y-7178080D01*
G01X5171898Y-7177702D01*
G01X5155793Y-7181136D01*
G01X5140917Y-7188197D01*
G01X5128073Y-7198503D01*
G01X5128073Y-7198503D01*
G01X5116371Y-7188207D01*
G01X5102588Y-7180926D01*
G01X5087486Y-7177064D01*
G01X5071901Y-7176833D01*
G01X5056692Y-7180247D01*
G01X5042700Y-7187117D01*
G01X5030698Y-7197063D01*
G01X5021349Y-7209536D01*
G01X5015171Y-7223847D01*
G01X5012503Y-7239204D01*
G01X4670629Y-7239204D01*
G01X4667238Y-7224493D01*
G01X4660081Y-7209915D01*
G01X4649790Y-7197351D01*
G01X4636908Y-7187462D01*
G01X4622112Y-7180767D01*
G01X4606179Y-7177619D01*
G01X4589949Y-7178184D01*
G01X4574274Y-7182432D01*
G01X4559979Y-7190140D01*
G01X4547815Y-7200901D01*
G01X4547815Y-7151188D01*
G01X4547815Y-7151188D01*
G01X4545831Y-7132307D01*
G01X4539964Y-7114251D01*
G01X4530471Y-7097809D01*
G01X4517768Y-7083701D01*
G01X4502408Y-7072541D01*
G01X4485065Y-7064819D01*
G01X4466494Y-7060872D01*
G01X4447509Y-7060872D01*
G01X4428938Y-7064819D01*
G01X4411595Y-7072541D01*
G01X4396235Y-7083701D01*
G01X4383532Y-7097809D01*
G01X4374039Y-7114251D01*
G01X4368172Y-7132307D01*
G01X4366188Y-7151188D01*
G01X4366188Y-7177928D01*
G01X4358679Y-7164853D01*
G01X4348412Y-7153813D01*
G01X4335915Y-7145377D01*
G01X4321837Y-7139982D01*
G01X4306903Y-7137906D01*
G01X4291886Y-7139257D01*
G01X4277563Y-7143966D01*
G01X4264674Y-7151788D01*
G01X4253885Y-7162320D01*
G01X4245753Y-7175016D01*
G01X4240700Y-7189221D01*
G01X4238986Y-7204201D01*
G01X741091Y-7204201D01*
G01X743502Y-7194157D01*
G01X745359Y-7170565D01*
G01X743502Y-7146972D01*
G01X737978Y-7123961D01*
G01X728921Y-7102097D01*
G01X716556Y-7081919D01*
G01X701187Y-7063923D01*
G01X683192Y-7048554D01*
G01X663013Y-7036189D01*
G01X641149Y-7027132D01*
G01X618138Y-7021608D01*
G01X594545Y-7019751D01*
G01X594545Y-7019751D01*
G01X570953Y-7021608D01*
G01X547941Y-7027132D01*
G01X526077Y-7036189D01*
G01X505899Y-7048554D01*
G01X487904Y-7063923D01*
G01X472535Y-7081919D01*
G01X460169Y-7102097D01*
G01X451113Y-7123961D01*
G01X445588Y-7146972D01*
G01X443732Y-7170565D01*
G01X48514Y-7170565D01*
G01X48514Y-6986567D01*
G01X1620431Y-6986567D01*
G01X1622358Y-7002437D01*
G01X1628027Y-7017385D01*
G01X1637109Y-7030542D01*
G01X1649075Y-7041143D01*
G01X1663230Y-7048572D01*
G01X1678752Y-7052398D01*
G01X1694739Y-7052398D01*
G01X1710261Y-7048572D01*
G01X1724416Y-7041143D01*
G01X1736382Y-7030542D01*
G01X1745464Y-7017385D01*
G01X1751133Y-7002437D01*
G01X1753059Y-6986567D01*
G01X1751133Y-6970697D01*
G01X1745464Y-6955749D01*
G01X1737841Y-6944706D01*
G01X4823186Y-6944706D01*
G01X4825113Y-6960576D01*
G01X4830782Y-6975524D01*
G01X4839864Y-6988680D01*
G01X4851830Y-6999281D01*
G01X4865985Y-7006711D01*
G01X4881507Y-7010536D01*
G01X4897494Y-7010536D01*
G01X4913016Y-7006711D01*
G01X4927171Y-6999281D01*
G01X4939137Y-6988680D01*
G01X4948218Y-6975524D01*
G01X4953887Y-6960576D01*
G01X4955814Y-6944706D01*
G01X4953887Y-6928836D01*
G01X4948218Y-6913888D01*
G01X4939137Y-6900732D01*
G01X4927171Y-6890131D01*
G01X4913016Y-6882701D01*
G01X4897494Y-6878876D01*
G01X4881507Y-6878876D01*
G01X4865985Y-6882701D01*
G01X4851830Y-6890131D01*
G01X4839864Y-6900732D01*
G01X4830782Y-6913888D01*
G01X4825113Y-6928836D01*
G01X4823186Y-6944706D01*
G01X4823186Y-6944706D01*
G01X1737841Y-6944706D01*
G01X1736382Y-6942593D01*
G01X1724416Y-6931992D01*
G01X1710261Y-6924562D01*
G01X1694739Y-6920737D01*
G01X1678752Y-6920737D01*
G01X1663230Y-6924562D01*
G01X1649075Y-6931992D01*
G01X1637109Y-6942593D01*
G01X1628027Y-6955749D01*
G01X1622358Y-6970697D01*
G01X1620431Y-6986567D01*
G01X1620431Y-6986567D01*
G01X48514Y-6986567D01*
G01X48514Y-6662565D01*
G01X443732Y-6662565D01*
G01X445588Y-6686157D01*
G01X451113Y-6709169D01*
G01X460169Y-6731033D01*
G01X472535Y-6751211D01*
G01X487904Y-6769206D01*
G01X505899Y-6784576D01*
G01X526077Y-6796941D01*
G01X547941Y-6805997D01*
G01X570953Y-6811522D01*
G01X594545Y-6813379D01*
G01X618138Y-6811522D01*
G01X641149Y-6805997D01*
G01X663013Y-6796941D01*
G01X683192Y-6784576D01*
G01X701187Y-6769206D01*
G01X716556Y-6751211D01*
G01X720199Y-6745267D01*
G01X2128431Y-6745267D01*
G01X2130358Y-6761137D01*
G01X2136027Y-6776085D01*
G01X2145109Y-6789242D01*
G01X2157075Y-6799843D01*
G01X2171230Y-6807272D01*
G01X2186752Y-6811098D01*
G01X2202739Y-6811098D01*
G01X2218261Y-6807272D01*
G01X2232416Y-6799843D01*
G01X2244382Y-6789242D01*
G01X2253464Y-6776085D01*
G01X2259133Y-6761137D01*
G01X2261059Y-6745267D01*
G01X2259133Y-6729397D01*
G01X2254185Y-6716351D01*
G01X4823186Y-6716351D01*
G01X4825113Y-6732221D01*
G01X4830782Y-6747168D01*
G01X4839863Y-6760325D01*
G01X4851829Y-6770926D01*
G01X4865985Y-6778355D01*
G01X4881507Y-6782181D01*
G01X4897493Y-6782181D01*
G01X4913015Y-6778355D01*
G01X4927171Y-6770926D01*
G01X4939137Y-6760325D01*
G01X4948218Y-6747168D01*
G01X4953887Y-6732221D01*
G01X4955814Y-6716351D01*
G01X4953887Y-6700481D01*
G01X4948218Y-6685533D01*
G01X4939137Y-6672376D01*
G01X4927171Y-6661775D01*
G01X4913015Y-6654346D01*
G01X4897493Y-6650520D01*
G01X4881507Y-6650520D01*
G01X4865985Y-6654346D01*
G01X4851829Y-6661775D01*
G01X4839863Y-6672376D01*
G01X4830782Y-6685533D01*
G01X4825113Y-6700481D01*
G01X4823186Y-6716351D01*
G01X4823186Y-6716351D01*
G01X2254185Y-6716351D01*
G01X2253464Y-6714449D01*
G01X2244382Y-6701293D01*
G01X2232416Y-6690692D01*
G01X2218261Y-6683262D01*
G01X2202739Y-6679437D01*
G01X2186752Y-6679437D01*
G01X2171230Y-6683262D01*
G01X2157075Y-6690692D01*
G01X2145109Y-6701293D01*
G01X2136027Y-6714449D01*
G01X2130358Y-6729397D01*
G01X2128431Y-6745267D01*
G01X2128431Y-6745267D01*
G01X720199Y-6745267D01*
G01X728921Y-6731033D01*
G01X737978Y-6709169D01*
G01X743502Y-6686157D01*
G01X745359Y-6662565D01*
G01X743502Y-6638972D01*
G01X737978Y-6615961D01*
G01X728921Y-6594097D01*
G01X716556Y-6573919D01*
G01X701187Y-6555923D01*
G01X683192Y-6540554D01*
G01X663013Y-6528189D01*
G01X641149Y-6519132D01*
G01X618138Y-6513608D01*
G01X594545Y-6511751D01*
G01X594545Y-6511751D01*
G01X570953Y-6513608D01*
G01X547941Y-6519132D01*
G01X526077Y-6528189D01*
G01X505899Y-6540554D01*
G01X487904Y-6555923D01*
G01X472535Y-6573919D01*
G01X460169Y-6594097D01*
G01X451113Y-6615961D01*
G01X445588Y-6638972D01*
G01X443732Y-6662565D01*
G01X48514Y-6662565D01*
G01X48514Y-6467292D01*
G01X1611465Y-6467292D01*
G01X1613392Y-6483162D01*
G01X1619061Y-6498110D01*
G01X1628142Y-6511266D01*
G01X1640109Y-6521868D01*
G01X1654264Y-6529297D01*
G01X1669786Y-6533123D01*
G01X1685772Y-6533123D01*
G01X1701295Y-6529297D01*
G01X1715450Y-6521868D01*
G01X1727416Y-6511266D01*
G01X1736497Y-6498110D01*
G01X1742166Y-6483162D01*
G01X1744093Y-6467292D01*
G01X1742166Y-6451422D01*
G01X1736497Y-6436474D01*
G01X1727416Y-6423318D01*
G01X1715450Y-6412717D01*
G01X1701295Y-6405287D01*
G01X1685772Y-6401462D01*
G01X1669786Y-6401462D01*
G01X1654264Y-6405287D01*
G01X1640109Y-6412717D01*
G01X1628142Y-6423318D01*
G01X1619061Y-6436474D01*
G01X1613392Y-6451422D01*
G01X1611465Y-6467292D01*
G01X1611465Y-6467292D01*
G01X48514Y-6467292D01*
G01X48514Y-6333857D01*
G01X1949312Y-6333857D01*
G01X1951239Y-6349727D01*
G01X1956908Y-6364675D01*
G01X1965989Y-6377832D01*
G01X1977955Y-6388433D01*
G01X1992111Y-6395862D01*
G01X2007633Y-6399688D01*
G01X2023619Y-6399688D01*
G01X2039141Y-6395862D01*
G01X2053297Y-6388433D01*
G01X2065263Y-6377832D01*
G01X2074344Y-6364675D01*
G01X2080013Y-6349727D01*
G01X2081940Y-6333857D01*
G01X2080013Y-6317987D01*
G01X2074344Y-6303040D01*
G01X2065263Y-6289883D01*
G01X2053297Y-6279282D01*
G01X2039141Y-6271853D01*
G01X2023619Y-6268027D01*
G01X2007633Y-6268027D01*
G01X1992111Y-6271853D01*
G01X1977955Y-6279282D01*
G01X1965989Y-6289883D01*
G01X1956908Y-6303040D01*
G01X1951239Y-6317987D01*
G01X1949312Y-6333857D01*
G01X1949312Y-6333857D01*
G01X48514Y-6333857D01*
G01X48514Y-6154565D01*
G01X443732Y-6154565D01*
G01X445588Y-6178157D01*
G01X451113Y-6201169D01*
G01X460169Y-6223033D01*
G01X472535Y-6243211D01*
G01X487904Y-6261206D01*
G01X505899Y-6276576D01*
G01X526077Y-6288941D01*
G01X547941Y-6297997D01*
G01X570953Y-6303522D01*
G01X594545Y-6305379D01*
G01X618138Y-6303522D01*
G01X641149Y-6297997D01*
G01X663013Y-6288941D01*
G01X683192Y-6276576D01*
G01X701187Y-6261206D01*
G01X716556Y-6243211D01*
G01X728921Y-6223033D01*
G01X737978Y-6201169D01*
G01X743502Y-6178157D01*
G01X745359Y-6154565D01*
G01X743502Y-6130972D01*
G01X737978Y-6107961D01*
G01X731104Y-6091366D01*
G01X2001695Y-6091366D01*
G01X2002109Y-6106717D01*
G01X2006042Y-6121562D01*
G01X2013285Y-6135103D01*
G01X2023448Y-6146616D01*
G01X2035986Y-6155482D01*
G01X2050228Y-6161226D01*
G01X2065410Y-6163540D01*
G01X2400041Y-6498172D01*
G01X2410088Y-6505882D01*
G01X2421789Y-6510728D01*
G01X2434345Y-6512381D01*
G01X2592335Y-6512381D01*
G01X2604367Y-6521285D01*
G01X2618090Y-6527263D01*
G01X2632804Y-6530011D01*
G01X2647760Y-6529390D01*
G01X2662195Y-6525429D01*
G01X2675374Y-6518332D01*
G01X2686626Y-6508460D01*
G01X2695377Y-6496316D01*
G01X2701181Y-6482519D01*
G01X2703744Y-6467771D01*
G01X2702933Y-6452825D01*
G01X2698790Y-6438441D01*
G01X2691527Y-6425352D01*
G01X2681514Y-6414226D01*
G01X2669260Y-6405629D01*
G01X2655391Y-6400000D01*
G01X2671446Y-6396818D01*
G01X2686233Y-6389800D01*
G01X2698850Y-6379375D01*
G01X2708530Y-6366176D01*
G01X2714682Y-6351009D01*
G01X2716932Y-6334797D01*
G01X2715142Y-6318527D01*
G01X2709422Y-6303192D01*
G01X2700121Y-6289725D01*
G01X2687803Y-6278946D01*
G01X2673221Y-6271512D01*
G01X2657263Y-6267876D01*
G01X2640900Y-6268260D01*
G01X2625129Y-6272640D01*
G01X2610912Y-6280750D01*
G01X2599114Y-6292094D01*
G01X2590454Y-6305983D01*
G01X2585459Y-6321570D01*
G01X2584434Y-6337905D01*
G01X2587442Y-6353994D01*
G01X2594298Y-6368856D01*
G01X2604586Y-6381586D01*
G01X2617679Y-6391408D01*
G01X2632778Y-6397725D01*
G01X2618074Y-6400476D01*
G01X2604360Y-6406454D01*
G01X2592335Y-6415353D01*
G01X2454440Y-6415353D01*
G01X2225615Y-6186528D01*
G01X2833680Y-6186528D01*
G01X2835607Y-6202398D01*
G01X2841276Y-6217345D01*
G01X2850358Y-6230502D01*
G01X2862324Y-6241103D01*
G01X2876479Y-6248532D01*
G01X2892001Y-6252358D01*
G01X2907987Y-6252358D01*
G01X2923509Y-6248532D01*
G01X2937665Y-6241103D01*
G01X2949631Y-6230502D01*
G01X2958712Y-6217345D01*
G01X2964381Y-6202398D01*
G01X2966308Y-6186528D01*
G01X2964381Y-6170658D01*
G01X2958712Y-6155710D01*
G01X2949631Y-6142553D01*
G01X2937665Y-6131952D01*
G01X2923509Y-6124523D01*
G01X2907987Y-6120697D01*
G01X2892001Y-6120697D01*
G01X2876479Y-6124523D01*
G01X2862324Y-6131952D01*
G01X2850358Y-6142553D01*
G01X2841276Y-6155710D01*
G01X2835607Y-6170658D01*
G01X2833680Y-6186528D01*
G01X2833680Y-6186528D01*
G01X2225615Y-6186528D01*
G01X2135088Y-6096000D01*
G01X2283185Y-6096000D01*
G01X2285112Y-6111870D01*
G01X2290781Y-6126818D01*
G01X2299863Y-6139975D01*
G01X2311829Y-6150576D01*
G01X2325984Y-6158005D01*
G01X2341506Y-6161831D01*
G01X2357493Y-6161831D01*
G01X2373014Y-6158005D01*
G01X2387170Y-6150576D01*
G01X2399136Y-6139975D01*
G01X2408217Y-6126818D01*
G01X2413886Y-6111870D01*
G01X2415813Y-6096000D01*
G01X2413886Y-6080130D01*
G01X2408217Y-6065183D01*
G01X2399136Y-6052026D01*
G01X2387170Y-6041425D01*
G01X2373014Y-6033996D01*
G01X2357493Y-6030170D01*
G01X2341506Y-6030170D01*
G01X2325984Y-6033996D01*
G01X2311829Y-6041425D01*
G01X2299863Y-6052026D01*
G01X2290781Y-6065183D01*
G01X2285112Y-6080130D01*
G01X2283185Y-6096000D01*
G01X2283185Y-6096000D01*
G01X2135088Y-6096000D01*
G01X2134019Y-6094931D01*
G01X2134019Y-6094931D01*
G01X2131704Y-6079750D01*
G01X2125960Y-6065508D01*
G01X2117094Y-6052970D01*
G01X2105581Y-6042807D01*
G01X2092040Y-6035564D01*
G01X2077195Y-6031630D01*
G01X2061844Y-6031217D01*
G01X2046810Y-6034345D01*
G01X2032898Y-6040848D01*
G01X2020855Y-6050377D01*
G01X2011326Y-6062420D01*
G01X2004824Y-6076332D01*
G01X2001695Y-6091366D01*
G01X731104Y-6091366D01*
G01X728921Y-6086097D01*
G01X716556Y-6065919D01*
G01X701187Y-6047923D01*
G01X683192Y-6032554D01*
G01X663013Y-6020189D01*
G01X641149Y-6011132D01*
G01X618138Y-6005608D01*
G01X594545Y-6003751D01*
G01X594545Y-6003751D01*
G01X570953Y-6005608D01*
G01X547941Y-6011132D01*
G01X526077Y-6020189D01*
G01X505899Y-6032554D01*
G01X487904Y-6047923D01*
G01X472535Y-6065919D01*
G01X460169Y-6086097D01*
G01X451113Y-6107961D01*
G01X445588Y-6130972D01*
G01X443732Y-6154565D01*
G01X48514Y-6154565D01*
G01X48514Y-5957867D01*
G01X1595031Y-5957867D01*
G01X1596958Y-5973737D01*
G01X1602627Y-5988685D01*
G01X1611709Y-6001842D01*
G01X1623675Y-6012443D01*
G01X1637830Y-6019872D01*
G01X1653352Y-6023698D01*
G01X1669339Y-6023698D01*
G01X1684861Y-6019872D01*
G01X1699016Y-6012443D01*
G01X1710982Y-6001842D01*
G01X1720064Y-5988685D01*
G01X1725733Y-5973737D01*
G01X1727659Y-5957867D01*
G01X1725733Y-5941997D01*
G01X1720064Y-5927049D01*
G01X1710982Y-5913893D01*
G01X1699016Y-5903292D01*
G01X1684861Y-5895862D01*
G01X1669339Y-5892037D01*
G01X1653352Y-5892037D01*
G01X1637830Y-5895862D01*
G01X1623675Y-5903292D01*
G01X1611709Y-5913893D01*
G01X1602627Y-5927049D01*
G01X1596958Y-5941997D01*
G01X1595031Y-5957867D01*
G01X1595031Y-5957867D01*
G01X48514Y-5957867D01*
G01X48514Y-5646565D01*
G01X443732Y-5646565D01*
G01X445588Y-5670157D01*
G01X451113Y-5693169D01*
G01X460169Y-5715033D01*
G01X472535Y-5735211D01*
G01X487904Y-5753206D01*
G01X505899Y-5768576D01*
G01X526077Y-5780941D01*
G01X547941Y-5789997D01*
G01X570953Y-5795522D01*
G01X594545Y-5797379D01*
G01X618138Y-5795522D01*
G01X641149Y-5789997D01*
G01X663013Y-5780941D01*
G01X683192Y-5768576D01*
G01X701187Y-5753206D01*
G01X716556Y-5735211D01*
G01X728921Y-5715033D01*
G01X737978Y-5693169D01*
G01X743502Y-5670157D01*
G01X745359Y-5646565D01*
G01X743502Y-5622972D01*
G01X737978Y-5599961D01*
G01X728921Y-5578097D01*
G01X716556Y-5557919D01*
G01X701187Y-5539923D01*
G01X683192Y-5524554D01*
G01X663013Y-5512189D01*
G01X641149Y-5503132D01*
G01X618138Y-5497608D01*
G01X594545Y-5495751D01*
G01X594545Y-5495751D01*
G01X570953Y-5497608D01*
G01X547941Y-5503132D01*
G01X526077Y-5512189D01*
G01X505899Y-5524554D01*
G01X487904Y-5539923D01*
G01X472535Y-5557919D01*
G01X460169Y-5578097D01*
G01X451113Y-5599961D01*
G01X445588Y-5622972D01*
G01X443732Y-5646565D01*
G01X48514Y-5646565D01*
G01X48514Y-5448300D01*
G01X4078986Y-5448300D01*
G01X4080871Y-5478256D01*
G01X4086495Y-5507740D01*
G01X4095770Y-5536287D01*
G01X4108550Y-5563446D01*
G01X4124634Y-5588789D01*
G01X4143766Y-5611916D01*
G01X4165647Y-5632463D01*
G01X4189930Y-5650106D01*
G01X4216233Y-5664566D01*
G01X4244141Y-5675616D01*
G01X4273213Y-5683080D01*
G01X4302992Y-5686842D01*
G01X4333008Y-5686842D01*
G01X4362787Y-5683080D01*
G01X4391859Y-5675616D01*
G01X4419767Y-5664566D01*
G01X4446070Y-5650106D01*
G01X4470353Y-5632463D01*
G01X4492234Y-5611916D01*
G01X4511366Y-5588789D01*
G01X4527450Y-5563446D01*
G01X4540230Y-5536287D01*
G01X4549505Y-5507740D01*
G01X4555129Y-5478256D01*
G01X4557014Y-5448300D01*
G01X4555129Y-5418344D01*
G01X4549505Y-5388860D01*
G01X4540230Y-5360313D01*
G01X4527450Y-5333154D01*
G01X4511366Y-5307811D01*
G01X4492234Y-5284684D01*
G01X4470353Y-5264137D01*
G01X4446070Y-5246494D01*
G01X4419767Y-5232034D01*
G01X4391859Y-5220984D01*
G01X4362787Y-5213520D01*
G01X4333008Y-5209758D01*
G01X4302992Y-5209758D01*
G01X4273213Y-5213520D01*
G01X4244141Y-5220984D01*
G01X4216233Y-5232034D01*
G01X4189930Y-5246494D01*
G01X4165647Y-5264137D01*
G01X4143766Y-5284684D01*
G01X4124634Y-5307811D01*
G01X4108550Y-5333154D01*
G01X4095770Y-5360313D01*
G01X4086495Y-5388860D01*
G01X4080871Y-5418344D01*
G01X4078986Y-5448300D01*
G01X4078986Y-5448300D01*
G01X48514Y-5448300D01*
G01X48514Y-5377919D01*
G01X3320288Y-5377919D01*
G01X3322215Y-5393789D01*
G01X3327883Y-5408736D01*
G01X3336965Y-5421893D01*
G01X3348931Y-5432494D01*
G01X3363086Y-5439923D01*
G01X3378608Y-5443749D01*
G01X3394595Y-5443749D01*
G01X3410117Y-5439923D01*
G01X3424272Y-5432494D01*
G01X3436238Y-5421893D01*
G01X3445320Y-5408736D01*
G01X3450989Y-5393789D01*
G01X3452915Y-5377919D01*
G01X3450989Y-5362049D01*
G01X3445320Y-5347101D01*
G01X3436238Y-5333944D01*
G01X3424272Y-5323343D01*
G01X3410117Y-5315914D01*
G01X3394595Y-5312088D01*
G01X3378608Y-5312088D01*
G01X3363086Y-5315914D01*
G01X3348931Y-5323343D01*
G01X3336965Y-5333944D01*
G01X3327883Y-5347101D01*
G01X3322215Y-5362049D01*
G01X3320288Y-5377919D01*
G01X3320288Y-5377919D01*
G01X48514Y-5377919D01*
G01X48514Y-5152907D01*
G01X1662265Y-5152907D01*
G01X1664192Y-5168777D01*
G01X1669861Y-5183725D01*
G01X1678942Y-5196881D01*
G01X1690909Y-5207482D01*
G01X1705064Y-5214912D01*
G01X1720586Y-5218737D01*
G01X1736572Y-5218737D01*
G01X1752095Y-5214912D01*
G01X1766250Y-5207482D01*
G01X1778216Y-5196881D01*
G01X1787297Y-5183725D01*
G01X1792966Y-5168777D01*
G01X1794893Y-5152907D01*
G01X1792966Y-5137037D01*
G01X1787297Y-5122089D01*
G01X1778216Y-5108933D01*
G01X1766250Y-5098331D01*
G01X1752095Y-5090902D01*
G01X1736572Y-5087076D01*
G01X1720586Y-5087076D01*
G01X1705064Y-5090902D01*
G01X1690909Y-5098331D01*
G01X1678942Y-5108933D01*
G01X1669861Y-5122089D01*
G01X1664192Y-5137037D01*
G01X1662265Y-5152907D01*
G01X1662265Y-5152907D01*
G01X48514Y-5152907D01*
G01X48514Y-4846465D01*
G01X443732Y-4846465D01*
G01X445588Y-4870057D01*
G01X451113Y-4893069D01*
G01X460169Y-4914933D01*
G01X472535Y-4935111D01*
G01X487904Y-4953106D01*
G01X505899Y-4968476D01*
G01X526077Y-4980841D01*
G01X547941Y-4989897D01*
G01X570953Y-4995422D01*
G01X594545Y-4997279D01*
G01X618138Y-4995422D01*
G01X641149Y-4989897D01*
G01X663013Y-4980841D01*
G01X683192Y-4968476D01*
G01X701187Y-4953106D01*
G01X716556Y-4935111D01*
G01X728921Y-4914933D01*
G01X737978Y-4893069D01*
G01X743502Y-4870057D01*
G01X745359Y-4846465D01*
G01X743502Y-4822872D01*
G01X737978Y-4799861D01*
G01X728921Y-4777997D01*
G01X716556Y-4757819D01*
G01X701187Y-4739823D01*
G01X683192Y-4724454D01*
G01X663013Y-4712089D01*
G01X641149Y-4703032D01*
G01X618138Y-4697508D01*
G01X594545Y-4695651D01*
G01X594545Y-4695651D01*
G01X570953Y-4697508D01*
G01X547941Y-4703032D01*
G01X526077Y-4712089D01*
G01X505899Y-4724454D01*
G01X487904Y-4739823D01*
G01X472535Y-4757819D01*
G01X460169Y-4777997D01*
G01X451113Y-4799861D01*
G01X445588Y-4822872D01*
G01X443732Y-4846465D01*
G01X48514Y-4846465D01*
G01X48514Y-4649767D01*
G01X1658531Y-4649767D01*
G01X1660458Y-4665637D01*
G01X1666127Y-4680585D01*
G01X1675209Y-4693742D01*
G01X1687175Y-4704343D01*
G01X1701330Y-4711772D01*
G01X1716852Y-4715598D01*
G01X1732839Y-4715598D01*
G01X1748361Y-4711772D01*
G01X1762516Y-4704343D01*
G01X1774482Y-4693742D01*
G01X1783564Y-4680585D01*
G01X1789233Y-4665637D01*
G01X1791159Y-4649767D01*
G01X1789233Y-4633897D01*
G01X1783564Y-4618949D01*
G01X1774482Y-4605793D01*
G01X1762516Y-4595192D01*
G01X1748361Y-4587762D01*
G01X1732839Y-4583937D01*
G01X1716852Y-4583937D01*
G01X1701330Y-4587762D01*
G01X1687175Y-4595192D01*
G01X1675209Y-4605793D01*
G01X1666127Y-4618949D01*
G01X1660458Y-4633897D01*
G01X1658531Y-4649767D01*
G01X1658531Y-4649767D01*
G01X48514Y-4649767D01*
G01X48514Y-4521200D01*
G01X2118086Y-4521200D01*
G01X2120013Y-4537070D01*
G01X2125682Y-4552018D01*
G01X2134763Y-4565174D01*
G01X2146729Y-4575775D01*
G01X2160885Y-4583205D01*
G01X2176407Y-4587031D01*
G01X2192393Y-4587031D01*
G01X2207915Y-4583205D01*
G01X2222071Y-4575775D01*
G01X2234037Y-4565174D01*
G01X2243118Y-4552018D01*
G01X2248787Y-4537070D01*
G01X2250714Y-4521200D01*
G01X2248787Y-4505330D01*
G01X2243118Y-4490382D01*
G01X2234037Y-4477226D01*
G01X2222071Y-4466625D01*
G01X2207915Y-4459195D01*
G01X2192393Y-4455369D01*
G01X2176407Y-4455369D01*
G01X2160885Y-4459195D01*
G01X2146729Y-4466625D01*
G01X2134763Y-4477226D01*
G01X2125682Y-4490382D01*
G01X2120013Y-4505330D01*
G01X2118086Y-4521200D01*
G01X2118086Y-4521200D01*
G01X48514Y-4521200D01*
G01X48514Y-4338465D01*
G01X443732Y-4338465D01*
G01X445588Y-4362057D01*
G01X451113Y-4385069D01*
G01X460169Y-4406933D01*
G01X472535Y-4427111D01*
G01X487904Y-4445106D01*
G01X505899Y-4460476D01*
G01X526077Y-4472841D01*
G01X547941Y-4481897D01*
G01X570953Y-4487422D01*
G01X594545Y-4489279D01*
G01X618138Y-4487422D01*
G01X641149Y-4481897D01*
G01X663013Y-4472841D01*
G01X683192Y-4460476D01*
G01X701187Y-4445106D01*
G01X716556Y-4427111D01*
G01X728921Y-4406933D01*
G01X737978Y-4385069D01*
G01X743502Y-4362057D01*
G01X745359Y-4338465D01*
G01X744359Y-4325762D01*
G01X1771972Y-4325762D01*
G01X1773750Y-4341015D01*
G01X1778989Y-4355450D01*
G01X1787408Y-4368294D01*
G01X1798555Y-4378856D01*
G01X1811833Y-4386571D01*
G01X1826530Y-4391025D01*
G01X1841857Y-4391979D01*
G01X1856992Y-4389383D01*
G01X1871124Y-4383374D01*
G01X1883496Y-4374276D01*
G01X2156456Y-4374276D01*
G01X2169012Y-4372623D01*
G01X2180713Y-4367776D01*
G01X2190760Y-4360066D01*
G01X2409001Y-4141826D01*
G01X2876379Y-4141826D01*
G01X2875788Y-4156175D01*
G01X2878301Y-4170315D01*
G01X2883799Y-4183583D01*
G01X2892024Y-4195356D01*
G01X2902592Y-4205082D01*
G01X2915005Y-4212304D01*
G01X2928682Y-4216685D01*
G01X2942982Y-4218018D01*
G01X2957233Y-4216241D01*
G01X2970768Y-4211437D01*
G01X2982951Y-4203833D01*
G01X2993211Y-4193783D01*
G01X3001067Y-4181760D01*
G01X3006150Y-4168328D01*
G01X3008222Y-4154117D01*
G01X3007185Y-4139793D01*
G01X3018146Y-4134973D01*
G01X3027593Y-4127616D01*
G01X3075736Y-4079473D01*
G01X3090171Y-4077358D01*
G01X3103794Y-4072139D01*
G01X3115946Y-4064067D01*
G01X3126039Y-4053533D01*
G01X3133584Y-4041047D01*
G01X3138217Y-4027213D01*
G01X3139712Y-4012702D01*
G01X3137999Y-3998214D01*
G01X3167605Y-3998214D01*
G01X3801095Y-4631705D01*
G01X3811143Y-4639414D01*
G01X3822844Y-4644261D01*
G01X3835400Y-4645914D01*
G01X3979745Y-4645914D01*
G01X3992116Y-4655012D01*
G01X4006249Y-4661021D01*
G01X4021384Y-4663618D01*
G01X4036711Y-4662664D01*
G01X4051407Y-4658209D01*
G01X4064685Y-4650494D01*
G01X4075833Y-4639932D01*
G01X4084252Y-4627089D01*
G01X4089491Y-4612653D01*
G01X4091269Y-4597400D01*
G01X4089491Y-4582147D01*
G01X4084252Y-4567711D01*
G01X4075833Y-4554868D01*
G01X4064685Y-4544306D01*
G01X4051407Y-4536591D01*
G01X4036711Y-4532136D01*
G01X4021384Y-4531182D01*
G01X4006249Y-4533779D01*
G01X3992116Y-4539788D01*
G01X3979745Y-4548886D01*
G01X3855495Y-4548886D01*
G01X3613921Y-4307311D01*
G01X3840836Y-4307311D01*
G01X3842763Y-4323181D01*
G01X3848432Y-4338129D01*
G01X3857513Y-4351286D01*
G01X3869479Y-4361887D01*
G01X3883634Y-4369316D01*
G01X3899156Y-4373142D01*
G01X3915143Y-4373142D01*
G01X3930665Y-4369316D01*
G01X3944820Y-4361887D01*
G01X3956786Y-4351286D01*
G01X3965868Y-4338129D01*
G01X3969743Y-4327911D01*
G01X4374935Y-4327911D01*
G01X4376862Y-4343781D01*
G01X4382530Y-4358729D01*
G01X4391612Y-4371886D01*
G01X4403578Y-4382487D01*
G01X4417733Y-4389916D01*
G01X4433255Y-4393742D01*
G01X4449242Y-4393742D01*
G01X4464764Y-4389916D01*
G01X4478919Y-4382487D01*
G01X4490885Y-4371886D01*
G01X4499967Y-4358729D01*
G01X4505636Y-4343781D01*
G01X4507562Y-4327911D01*
G01X4505636Y-4312041D01*
G01X4499967Y-4297094D01*
G01X4490885Y-4283937D01*
G01X4478919Y-4273336D01*
G01X4464764Y-4265907D01*
G01X4449242Y-4262081D01*
G01X4433255Y-4262081D01*
G01X4417733Y-4265907D01*
G01X4403578Y-4273336D01*
G01X4391612Y-4283937D01*
G01X4382530Y-4297094D01*
G01X4376862Y-4312041D01*
G01X4374935Y-4327911D01*
G01X4374935Y-4327911D01*
G01X3969743Y-4327911D01*
G01X3971537Y-4323181D01*
G01X3973464Y-4307311D01*
G01X3971537Y-4291441D01*
G01X3965868Y-4276494D01*
G01X3956786Y-4263337D01*
G01X3944820Y-4252736D01*
G01X3930665Y-4245307D01*
G01X3915143Y-4241481D01*
G01X3899156Y-4241481D01*
G01X3883634Y-4245307D01*
G01X3869479Y-4252736D01*
G01X3857513Y-4263337D01*
G01X3848432Y-4276494D01*
G01X3842763Y-4291441D01*
G01X3840836Y-4307311D01*
G01X3840836Y-4307311D01*
G01X3613921Y-4307311D01*
G01X3514168Y-4207559D01*
G01X3663545Y-4207559D01*
G01X3666661Y-4222632D01*
G01X3673167Y-4236580D01*
G01X3682714Y-4248653D01*
G01X3694787Y-4258199D01*
G01X3708735Y-4264706D01*
G01X3723807Y-4267821D01*
G01X3739192Y-4267379D01*
G01X3754061Y-4263401D01*
G01X3767612Y-4256103D01*
G01X3779115Y-4245878D01*
G01X3787952Y-4233277D01*
G01X3793645Y-4218977D01*
G01X3795889Y-4203751D01*
G01X3875072Y-4124568D01*
G01X4392034Y-4124568D01*
G01X4392316Y-4124832D01*
G01X4382152Y-4136946D01*
G01X4375146Y-4151122D01*
G01X4371695Y-4166553D01*
G01X4371995Y-4182363D01*
G01X4376030Y-4197652D01*
G01X4383569Y-4211551D01*
G01X4394186Y-4223270D01*
G01X4407274Y-4232143D01*
G01X4422092Y-4237665D01*
G01X4437795Y-4239521D01*
G01X4453491Y-4237607D01*
G01X4468288Y-4232032D01*
G01X4481345Y-4223111D01*
G01X4491918Y-4211354D01*
G01X4499407Y-4197427D01*
G01X4503386Y-4182123D01*
G01X4503628Y-4166312D01*
G01X4500121Y-4150894D01*
G01X4493063Y-4136744D01*
G01X4482855Y-4124667D01*
G01X4492770Y-4112930D01*
G01X4499719Y-4099227D01*
G01X4503327Y-4084292D01*
G01X4503401Y-4068928D01*
G01X4499938Y-4053959D01*
G01X4493122Y-4040189D01*
G01X4483321Y-4028357D01*
G01X4492558Y-4019109D01*
G01X4499801Y-4008229D01*
G01X4504770Y-3996139D01*
G01X4507271Y-3983310D01*
G01X4511984Y-3997107D01*
G01X4519597Y-4009540D01*
G01X4529744Y-4020009D01*
G01X4541933Y-4028008D01*
G01X4555575Y-4033150D01*
G01X4570012Y-4035186D01*
G01X5222223Y-4687398D01*
G01X5222223Y-6026302D01*
G01X5223868Y-6038797D01*
G01X5228691Y-6050440D01*
G01X5236363Y-6060438D01*
G01X5775712Y-6599787D01*
G01X5777956Y-6615014D01*
G01X5783650Y-6629313D01*
G01X5792486Y-6641915D01*
G01X5803990Y-6652140D01*
G01X5817541Y-6659438D01*
G01X5832409Y-6663415D01*
G01X5847794Y-6663858D01*
G01X5862867Y-6660742D01*
G01X5876815Y-6654236D01*
G01X5888887Y-6644689D01*
G01X5898434Y-6632616D01*
G01X5904941Y-6618668D01*
G01X5908056Y-6603596D01*
G01X5907614Y-6588211D01*
G01X5903636Y-6573343D01*
G01X5896338Y-6559792D01*
G01X5886113Y-6548288D01*
G01X5873512Y-6539451D01*
G01X5859212Y-6533758D01*
G01X5843986Y-6531514D01*
G01X5332270Y-6019799D01*
G01X7182085Y-6019799D01*
G01X7184012Y-6035669D01*
G01X7189681Y-6050616D01*
G01X7198762Y-6063773D01*
G01X7210729Y-6074374D01*
G01X7224884Y-6081803D01*
G01X7240406Y-6085629D01*
G01X7256393Y-6085629D01*
G01X7271915Y-6081803D01*
G01X7286070Y-6074374D01*
G01X7298036Y-6063773D01*
G01X7307117Y-6050616D01*
G01X7312786Y-6035669D01*
G01X7314713Y-6019799D01*
G01X7312786Y-6003929D01*
G01X7307117Y-5988981D01*
G01X7298036Y-5975824D01*
G01X7286070Y-5965223D01*
G01X7271915Y-5957794D01*
G01X7256393Y-5953968D01*
G01X7240406Y-5953968D01*
G01X7224884Y-5957794D01*
G01X7210729Y-5965223D01*
G01X7198762Y-5975824D01*
G01X7189681Y-5988981D01*
G01X7184012Y-6003929D01*
G01X7182085Y-6019799D01*
G01X7182085Y-6019799D01*
G01X5332270Y-6019799D01*
G01X5318777Y-6006305D01*
G01X5318777Y-5195506D01*
G01X5522892Y-5195506D01*
G01X5524819Y-5211376D01*
G01X5530488Y-5226324D01*
G01X5539570Y-5239481D01*
G01X5551536Y-5250082D01*
G01X5565691Y-5257511D01*
G01X5581213Y-5261337D01*
G01X5597200Y-5261337D01*
G01X5612722Y-5257511D01*
G01X5626877Y-5250082D01*
G01X5638843Y-5239481D01*
G01X5647925Y-5226324D01*
G01X5653594Y-5211376D01*
G01X5655521Y-5195506D01*
G01X5653594Y-5179637D01*
G01X5649196Y-5168040D01*
G01X7464791Y-5168040D01*
G01X7466718Y-5183910D01*
G01X7472387Y-5198857D01*
G01X7481468Y-5212014D01*
G01X7493434Y-5222615D01*
G01X7507590Y-5230044D01*
G01X7523112Y-5233870D01*
G01X7539098Y-5233870D01*
G01X7554620Y-5230044D01*
G01X7568776Y-5222615D01*
G01X7580742Y-5212014D01*
G01X7589823Y-5198857D01*
G01X7595492Y-5183910D01*
G01X7597419Y-5168040D01*
G01X7595492Y-5152170D01*
G01X7589823Y-5137222D01*
G01X7580742Y-5124065D01*
G01X7568776Y-5113464D01*
G01X7554620Y-5106035D01*
G01X7539098Y-5102209D01*
G01X7523112Y-5102209D01*
G01X7507590Y-5106035D01*
G01X7493434Y-5113464D01*
G01X7481468Y-5124065D01*
G01X7472387Y-5137222D01*
G01X7466718Y-5152170D01*
G01X7464791Y-5168040D01*
G01X7464791Y-5168040D01*
G01X5649196Y-5168040D01*
G01X5647925Y-5164689D01*
G01X5638843Y-5151532D01*
G01X5626877Y-5140931D01*
G01X5612722Y-5133502D01*
G01X5597200Y-5129676D01*
G01X5581213Y-5129676D01*
G01X5565691Y-5133502D01*
G01X5551536Y-5140931D01*
G01X5539570Y-5151532D01*
G01X5530488Y-5164689D01*
G01X5524819Y-5179637D01*
G01X5522892Y-5195506D01*
G01X5522892Y-5195506D01*
G01X5318777Y-5195506D01*
G01X5318777Y-4667401D01*
G01X5317132Y-4654906D01*
G01X5312309Y-4643263D01*
G01X5304637Y-4633264D01*
G01X4935632Y-4264260D01*
G01X4946834Y-4256413D01*
G01X4956188Y-4246435D01*
G01X4963296Y-4234751D01*
G01X4967857Y-4221856D01*
G01X4969674Y-4208301D01*
G01X5002464Y-4175512D01*
G01X7571753Y-4175512D01*
G01X7573680Y-4191382D01*
G01X7579349Y-4206329D01*
G01X7588431Y-4219486D01*
G01X7600397Y-4230087D01*
G01X7614552Y-4237516D01*
G01X7630074Y-4241342D01*
G01X7646061Y-4241342D01*
G01X7661583Y-4237516D01*
G01X7675738Y-4230087D01*
G01X7687704Y-4219486D01*
G01X7696785Y-4206329D01*
G01X7702454Y-4191382D01*
G01X7704381Y-4175512D01*
G01X7702454Y-4159642D01*
G01X7696785Y-4144694D01*
G01X7687704Y-4131537D01*
G01X7675738Y-4120936D01*
G01X7661583Y-4113507D01*
G01X7646061Y-4109681D01*
G01X7630074Y-4109681D01*
G01X7614552Y-4113507D01*
G01X7600397Y-4120936D01*
G01X7588431Y-4131537D01*
G01X7579349Y-4144694D01*
G01X7573680Y-4159642D01*
G01X7571753Y-4175512D01*
G01X7571753Y-4175512D01*
G01X5002464Y-4175512D01*
G01X5286379Y-3891596D01*
G01X5301605Y-3889353D01*
G01X5315905Y-3883659D01*
G01X5328506Y-3874822D01*
G01X5338731Y-3863319D01*
G01X5346029Y-3849768D01*
G01X5350007Y-3834899D01*
G01X5350449Y-3819515D01*
G01X5347334Y-3804442D01*
G01X5340827Y-3790494D01*
G01X5331281Y-3778421D01*
G01X5319208Y-3768875D01*
G01X5305260Y-3762368D01*
G01X5290187Y-3759252D01*
G01X5274802Y-3759695D01*
G01X5259934Y-3763673D01*
G01X5246383Y-3770970D01*
G01X5234879Y-3781196D01*
G01X5226043Y-3793797D01*
G01X5220349Y-3808096D01*
G01X5218105Y-3823323D01*
G01X4901401Y-4140028D01*
G01X4901401Y-4140028D01*
G01X4887845Y-4141845D01*
G01X4874951Y-4146405D01*
G01X4863267Y-4153514D01*
G01X4853289Y-4162868D01*
G01X4845442Y-4174070D01*
G01X4638285Y-3966913D01*
G01X4636325Y-3952781D01*
G01X4631389Y-3939396D01*
G01X4623703Y-3927376D01*
G01X4613625Y-3917279D01*
G01X4601620Y-3909570D01*
G01X4588244Y-3904608D01*
G01X4574116Y-3902622D01*
G01X4559890Y-3903703D01*
G01X4546225Y-3907803D01*
G01X4533753Y-3914730D01*
G01X4523051Y-3924164D01*
G01X4514615Y-3935670D01*
G01X4508835Y-3948713D01*
G01X4505978Y-3962691D01*
G01X4500898Y-3948125D01*
G01X4492590Y-3935127D01*
G01X4481503Y-3924400D01*
G01X4468238Y-3916526D01*
G01X4453512Y-3911929D01*
G01X4438123Y-3910858D01*
G01X4422903Y-3913373D01*
G01X4408676Y-3919336D01*
G01X4396211Y-3928425D01*
G01X4386184Y-3940148D01*
G01X4379136Y-3953870D01*
G01X4375450Y-3968850D01*
G01X4375324Y-3984276D01*
G01X4378766Y-3999313D01*
G01X4385589Y-4013148D01*
G01X4395425Y-4025033D01*
G01X4392034Y-4028015D01*
G01X4048799Y-4028015D01*
G01X4049234Y-4011763D01*
G01X4045702Y-3995894D01*
G01X4038414Y-3981362D01*
G01X4027810Y-3969039D01*
G01X4014526Y-3959667D01*
G01X3999361Y-3953808D01*
G01X3983226Y-3951815D01*
G01X3967092Y-3953808D01*
G01X3951927Y-3959667D01*
G01X3938643Y-3969039D01*
G01X3928038Y-3981362D01*
G01X3920751Y-3995894D01*
G01X3917219Y-4011763D01*
G01X3917654Y-4028015D01*
G01X3855075Y-4028015D01*
G01X3842580Y-4029660D01*
G01X3830937Y-4034483D01*
G01X3820938Y-4042155D01*
G01X3727616Y-4135477D01*
G01X3712389Y-4137721D01*
G01X3698090Y-4143415D01*
G01X3685488Y-4152251D01*
G01X3675263Y-4163755D01*
G01X3667965Y-4177306D01*
G01X3663988Y-4192174D01*
G01X3663545Y-4207559D01*
G01X3514168Y-4207559D01*
G01X3222005Y-3915395D01*
G01X3211957Y-3907686D01*
G01X3200256Y-3902839D01*
G01X3187700Y-3901186D01*
G01X2991610Y-3901186D01*
G01X2979239Y-3892088D01*
G01X2965106Y-3886079D01*
G01X2949971Y-3883482D01*
G01X2934644Y-3884436D01*
G01X2919947Y-3888891D01*
G01X2906669Y-3896606D01*
G01X2895522Y-3907168D01*
G01X2887103Y-3920011D01*
G01X2881864Y-3934447D01*
G01X2880086Y-3949700D01*
G01X2881864Y-3964953D01*
G01X2887103Y-3979389D01*
G01X2895522Y-3992232D01*
G01X2906669Y-4002794D01*
G01X2919947Y-4010509D01*
G01X2934644Y-4014964D01*
G01X2949971Y-4015918D01*
G01X2965106Y-4013321D01*
G01X2979239Y-4007312D01*
G01X2991610Y-3998214D01*
G01X3008801Y-3998214D01*
G01X3007127Y-4010864D01*
G01X3007127Y-4010864D01*
G01X2973193Y-4044798D01*
G01X2503160Y-4044798D01*
G01X2516944Y-4037632D01*
G01X2528682Y-4027456D01*
G01X2537731Y-4014829D01*
G01X2543594Y-4000442D01*
G01X2545949Y-3985087D01*
G01X2544666Y-3969605D01*
G01X2539817Y-3954846D01*
G01X2531668Y-3941620D01*
G01X2520664Y-3930653D01*
G01X2507412Y-3922547D01*
G01X2492637Y-3917747D01*
G01X2477151Y-3916516D01*
G01X2461803Y-3918922D01*
G01X2447436Y-3924832D01*
G01X2434839Y-3933922D01*
G01X2424702Y-3945694D01*
G01X2417582Y-3959502D01*
G01X2413869Y-3974587D01*
G01X2401097Y-3965903D01*
G01X2386663Y-3960410D01*
G01X2371350Y-3958404D01*
G01X2355988Y-3959995D01*
G01X2341410Y-3965096D01*
G01X2328408Y-3973431D01*
G01X2317686Y-3984547D01*
G01X2309827Y-3997842D01*
G01X2305255Y-4012594D01*
G01X2304221Y-4028003D01*
G01X2306778Y-4043234D01*
G01X2312789Y-4057461D01*
G01X2321928Y-4069911D01*
G01X2333699Y-4079909D01*
G01X2136361Y-4277248D01*
G01X1883496Y-4277248D01*
G01X1871124Y-4268150D01*
G01X1856992Y-4262141D01*
G01X1841857Y-4259544D01*
G01X1826530Y-4260498D01*
G01X1811833Y-4264952D01*
G01X1798555Y-4272667D01*
G01X1787408Y-4283230D01*
G01X1778989Y-4296073D01*
G01X1773750Y-4310508D01*
G01X1771972Y-4325762D01*
G01X744359Y-4325762D01*
G01X743502Y-4314872D01*
G01X737978Y-4291861D01*
G01X728921Y-4269997D01*
G01X716556Y-4249819D01*
G01X701187Y-4231823D01*
G01X683192Y-4216454D01*
G01X663013Y-4204089D01*
G01X641149Y-4195032D01*
G01X618138Y-4189508D01*
G01X594545Y-4187651D01*
G01X594545Y-4187651D01*
G01X570953Y-4189508D01*
G01X547941Y-4195032D01*
G01X526077Y-4204089D01*
G01X505899Y-4216454D01*
G01X487904Y-4231823D01*
G01X472535Y-4249819D01*
G01X460169Y-4269997D01*
G01X451113Y-4291861D01*
G01X445588Y-4314872D01*
G01X443732Y-4338465D01*
G01X48514Y-4338465D01*
G01X48514Y-4143461D01*
G01X1662265Y-4143461D01*
G01X1664192Y-4159331D01*
G01X1669861Y-4174279D01*
G01X1678942Y-4187436D01*
G01X1690909Y-4198037D01*
G01X1705064Y-4205466D01*
G01X1720586Y-4209292D01*
G01X1736572Y-4209292D01*
G01X1752095Y-4205466D01*
G01X1766250Y-4198037D01*
G01X1778216Y-4187436D01*
G01X1787297Y-4174279D01*
G01X1792966Y-4159331D01*
G01X1794893Y-4143461D01*
G01X1792966Y-4127591D01*
G01X1787297Y-4112644D01*
G01X1778216Y-4099487D01*
G01X1766250Y-4088886D01*
G01X1752095Y-4081457D01*
G01X1736572Y-4077631D01*
G01X1720586Y-4077631D01*
G01X1705064Y-4081457D01*
G01X1690909Y-4088886D01*
G01X1678942Y-4099487D01*
G01X1669861Y-4112644D01*
G01X1664192Y-4127591D01*
G01X1662265Y-4143461D01*
G01X1662265Y-4143461D01*
G01X48514Y-4143461D01*
G01X48514Y-3830465D01*
G01X443732Y-3830465D01*
G01X445588Y-3854057D01*
G01X451113Y-3877069D01*
G01X460169Y-3898933D01*
G01X472535Y-3919111D01*
G01X487904Y-3937106D01*
G01X505899Y-3952476D01*
G01X526077Y-3964841D01*
G01X547941Y-3973897D01*
G01X570953Y-3979422D01*
G01X594545Y-3981279D01*
G01X618138Y-3979422D01*
G01X641149Y-3973897D01*
G01X663013Y-3964841D01*
G01X683192Y-3952476D01*
G01X701187Y-3937106D01*
G01X716556Y-3919111D01*
G01X728921Y-3898933D01*
G01X737978Y-3877069D01*
G01X743502Y-3854057D01*
G01X745359Y-3830465D01*
G01X743502Y-3806872D01*
G01X737978Y-3783861D01*
G01X728921Y-3761997D01*
G01X723030Y-3752382D01*
G01X2017862Y-3752382D01*
G01X2019789Y-3768252D01*
G01X2025458Y-3783200D01*
G01X2034539Y-3796357D01*
G01X2046505Y-3806958D01*
G01X2060661Y-3814387D01*
G01X2076183Y-3818213D01*
G01X2092169Y-3818213D01*
G01X2107691Y-3814387D01*
G01X2121847Y-3806958D01*
G01X2133813Y-3796357D01*
G01X2142894Y-3783200D01*
G01X2147180Y-3771900D01*
G01X2689586Y-3771900D01*
G01X2691513Y-3787770D01*
G01X2697182Y-3802718D01*
G01X2706263Y-3815874D01*
G01X2718229Y-3826475D01*
G01X2732385Y-3833905D01*
G01X2747907Y-3837731D01*
G01X2763893Y-3837731D01*
G01X2779415Y-3833905D01*
G01X2790523Y-3828075D01*
G01X3951277Y-3828075D01*
G01X3953204Y-3843945D01*
G01X3958873Y-3858893D01*
G01X3967954Y-3872049D01*
G01X3979921Y-3882650D01*
G01X3994076Y-3890080D01*
G01X4009598Y-3893905D01*
G01X4025584Y-3893905D01*
G01X4041106Y-3890080D01*
G01X4055262Y-3882650D01*
G01X4067228Y-3872049D01*
G01X4076309Y-3858893D01*
G01X4081978Y-3843945D01*
G01X4083905Y-3828075D01*
G01X4081978Y-3812205D01*
G01X4076309Y-3797257D01*
G01X4067228Y-3784101D01*
G01X4055262Y-3773500D01*
G01X4041106Y-3766070D01*
G01X4025584Y-3762244D01*
G01X4009598Y-3762244D01*
G01X3994076Y-3766070D01*
G01X3979921Y-3773500D01*
G01X3967954Y-3784101D01*
G01X3958873Y-3797257D01*
G01X3953204Y-3812205D01*
G01X3951277Y-3828075D01*
G01X3951277Y-3828075D01*
G01X2790523Y-3828075D01*
G01X2793571Y-3826475D01*
G01X2805537Y-3815874D01*
G01X2814618Y-3802718D01*
G01X2820287Y-3787770D01*
G01X2822214Y-3771900D01*
G01X2820287Y-3756030D01*
G01X2814618Y-3741082D01*
G01X2805537Y-3727926D01*
G01X2793571Y-3717325D01*
G01X2779415Y-3709895D01*
G01X2763893Y-3706069D01*
G01X2747907Y-3706069D01*
G01X2732385Y-3709895D01*
G01X2718229Y-3717325D01*
G01X2706263Y-3727926D01*
G01X2697182Y-3741082D01*
G01X2691513Y-3756030D01*
G01X2689586Y-3771900D01*
G01X2689586Y-3771900D01*
G01X2147180Y-3771900D01*
G01X2148563Y-3768252D01*
G01X2150490Y-3752382D01*
G01X2148563Y-3736512D01*
G01X2142894Y-3721565D01*
G01X2133813Y-3708408D01*
G01X2121847Y-3697807D01*
G01X2107691Y-3690378D01*
G01X2092169Y-3686552D01*
G01X2076183Y-3686552D01*
G01X2060661Y-3690378D01*
G01X2046505Y-3697807D01*
G01X2034539Y-3708408D01*
G01X2025458Y-3721565D01*
G01X2019789Y-3736512D01*
G01X2017862Y-3752382D01*
G01X2017862Y-3752382D01*
G01X723030Y-3752382D01*
G01X716556Y-3741819D01*
G01X701187Y-3723823D01*
G01X683192Y-3708454D01*
G01X663013Y-3696089D01*
G01X641149Y-3687032D01*
G01X618138Y-3681508D01*
G01X594545Y-3679651D01*
G01X594545Y-3679651D01*
G01X570953Y-3681508D01*
G01X547941Y-3687032D01*
G01X526077Y-3696089D01*
G01X505899Y-3708454D01*
G01X487904Y-3723823D01*
G01X472535Y-3741819D01*
G01X460169Y-3761997D01*
G01X451113Y-3783861D01*
G01X445588Y-3806872D01*
G01X443732Y-3830465D01*
G01X48514Y-3830465D01*
G01X48514Y-3638384D01*
G01X1662265Y-3638384D01*
G01X1664192Y-3654254D01*
G01X1669861Y-3669201D01*
G01X1678942Y-3682358D01*
G01X1690909Y-3692959D01*
G01X1705064Y-3700388D01*
G01X1720586Y-3704214D01*
G01X1736572Y-3704214D01*
G01X1752095Y-3700388D01*
G01X1766250Y-3692959D01*
G01X1778216Y-3682358D01*
G01X1787297Y-3669201D01*
G01X1792966Y-3654254D01*
G01X1794893Y-3638384D01*
G01X1792966Y-3622514D01*
G01X1787297Y-3607566D01*
G01X1778216Y-3594409D01*
G01X1766250Y-3583808D01*
G01X1752095Y-3576379D01*
G01X1736572Y-3572553D01*
G01X1720586Y-3572553D01*
G01X1705064Y-3576379D01*
G01X1690909Y-3583808D01*
G01X1678942Y-3594409D01*
G01X1669861Y-3607566D01*
G01X1664192Y-3622514D01*
G01X1662265Y-3638384D01*
G01X1662265Y-3638384D01*
G01X48514Y-3638384D01*
G01X48514Y-3557414D01*
G01X4642870Y-3557414D01*
G01X4644797Y-3573284D01*
G01X4650466Y-3588231D01*
G01X4659547Y-3601388D01*
G01X4671513Y-3611989D01*
G01X4685669Y-3619418D01*
G01X4701191Y-3623244D01*
G01X4717177Y-3623244D01*
G01X4732699Y-3619418D01*
G01X4746855Y-3611989D01*
G01X4758821Y-3601388D01*
G01X4767902Y-3588231D01*
G01X4773571Y-3573284D01*
G01X4775498Y-3557414D01*
G01X4773571Y-3541544D01*
G01X4767902Y-3526596D01*
G01X4758821Y-3513439D01*
G01X4746855Y-3502838D01*
G01X4732699Y-3495409D01*
G01X4717177Y-3491583D01*
G01X4701191Y-3491583D01*
G01X4685669Y-3495409D01*
G01X4671513Y-3502838D01*
G01X4659547Y-3513439D01*
G01X4650466Y-3526596D01*
G01X4644797Y-3541544D01*
G01X4642870Y-3557414D01*
G01X4642870Y-3557414D01*
G01X48514Y-3557414D01*
G01X48514Y-3322465D01*
G01X443732Y-3322465D01*
G01X445588Y-3346057D01*
G01X451113Y-3369069D01*
G01X460169Y-3390933D01*
G01X472535Y-3411111D01*
G01X487904Y-3429106D01*
G01X505899Y-3444476D01*
G01X526077Y-3456841D01*
G01X547941Y-3465897D01*
G01X570953Y-3471422D01*
G01X594545Y-3473279D01*
G01X618138Y-3471422D01*
G01X641149Y-3465897D01*
G01X663013Y-3456841D01*
G01X683192Y-3444476D01*
G01X701187Y-3429106D01*
G01X716556Y-3411111D01*
G01X728921Y-3390933D01*
G01X734196Y-3378200D01*
G01X4638884Y-3378200D01*
G01X4640811Y-3394070D01*
G01X4646479Y-3409018D01*
G01X4655561Y-3422174D01*
G01X4667527Y-3432775D01*
G01X4681682Y-3440205D01*
G01X4697204Y-3444031D01*
G01X4713191Y-3444031D01*
G01X4728713Y-3440205D01*
G01X4742868Y-3432775D01*
G01X4754834Y-3422174D01*
G01X4763916Y-3409018D01*
G01X4769585Y-3394070D01*
G01X4771512Y-3378200D01*
G01X4769585Y-3362330D01*
G01X4763916Y-3347382D01*
G01X4754834Y-3334226D01*
G01X4742868Y-3323625D01*
G01X4728713Y-3316195D01*
G01X4713191Y-3312369D01*
G01X4697204Y-3312369D01*
G01X4681682Y-3316195D01*
G01X4667527Y-3323625D01*
G01X4655561Y-3334226D01*
G01X4646479Y-3347382D01*
G01X4640811Y-3362330D01*
G01X4638884Y-3378200D01*
G01X4638884Y-3378200D01*
G01X734196Y-3378200D01*
G01X737978Y-3369069D01*
G01X743502Y-3346057D01*
G01X745359Y-3322465D01*
G01X743502Y-3298872D01*
G01X737978Y-3275861D01*
G01X728921Y-3253997D01*
G01X716556Y-3233819D01*
G01X701187Y-3215823D01*
G01X683192Y-3200454D01*
G01X663013Y-3188089D01*
G01X641149Y-3179032D01*
G01X618138Y-3173508D01*
G01X594545Y-3171651D01*
G01X594545Y-3171651D01*
G01X570953Y-3173508D01*
G01X547941Y-3179032D01*
G01X526077Y-3188089D01*
G01X505899Y-3200454D01*
G01X487904Y-3215823D01*
G01X472535Y-3233819D01*
G01X460169Y-3253997D01*
G01X451113Y-3275861D01*
G01X445588Y-3298872D01*
G01X443732Y-3322465D01*
G01X48514Y-3322465D01*
G01X48514Y-2705100D01*
G01X395286Y-2705100D01*
G01X397143Y-2728692D01*
G01X402668Y-2751704D01*
G01X411724Y-2773568D01*
G01X424089Y-2793746D01*
G01X439459Y-2811741D01*
G01X457454Y-2827111D01*
G01X477632Y-2839476D01*
G01X499496Y-2848532D01*
G01X522508Y-2854057D01*
G01X546100Y-2855914D01*
G01X569692Y-2854057D01*
G01X592704Y-2848532D01*
G01X614568Y-2839476D01*
G01X634746Y-2827111D01*
G01X652741Y-2811741D01*
G01X668111Y-2793746D01*
G01X680476Y-2773568D01*
G01X689532Y-2751704D01*
G01X695057Y-2728692D01*
G01X696914Y-2705100D01*
G01X696000Y-2693487D01*
G01X5388980Y-2693487D01*
G01X5390907Y-2709357D01*
G01X5396576Y-2724305D01*
G01X5405657Y-2737461D01*
G01X5417623Y-2748063D01*
G01X5431779Y-2755492D01*
G01X5447301Y-2759318D01*
G01X5463287Y-2759318D01*
G01X5478809Y-2755492D01*
G01X5492965Y-2748063D01*
G01X5504931Y-2737461D01*
G01X5514012Y-2724305D01*
G01X5519681Y-2709357D01*
G01X5521608Y-2693487D01*
G01X5519681Y-2677617D01*
G01X5514012Y-2662669D01*
G01X5504931Y-2649513D01*
G01X5492965Y-2638912D01*
G01X5478809Y-2631482D01*
G01X5463287Y-2627657D01*
G01X5447301Y-2627657D01*
G01X5431779Y-2631482D01*
G01X5417623Y-2638912D01*
G01X5405657Y-2649513D01*
G01X5396576Y-2662669D01*
G01X5390907Y-2677617D01*
G01X5388980Y-2693487D01*
G01X5388980Y-2693487D01*
G01X696000Y-2693487D01*
G01X695057Y-2681508D01*
G01X689532Y-2658496D01*
G01X680476Y-2636632D01*
G01X668111Y-2616454D01*
G01X652741Y-2598459D01*
G01X634746Y-2583089D01*
G01X614568Y-2570724D01*
G01X592704Y-2561668D01*
G01X569692Y-2556143D01*
G01X546100Y-2554286D01*
G01X546100Y-2554286D01*
G01X522508Y-2556143D01*
G01X499496Y-2561668D01*
G01X477632Y-2570724D01*
G01X457454Y-2583089D01*
G01X439459Y-2598459D01*
G01X424089Y-2616454D01*
G01X411724Y-2636632D01*
G01X402668Y-2658496D01*
G01X397143Y-2681508D01*
G01X395286Y-2705100D01*
G01X48514Y-2705100D01*
G01X48514Y-2312100D01*
G01X395286Y-2312100D01*
G01X397039Y-2323167D01*
G01X402126Y-2333151D01*
G01X410049Y-2341074D01*
G01X420033Y-2346161D01*
G01X431100Y-2347914D01*
G01X661100Y-2347914D01*
G01X672167Y-2346161D01*
G01X682151Y-2341074D01*
G01X690074Y-2333151D01*
G01X695161Y-2323167D01*
G01X696914Y-2312100D01*
G01X696914Y-2152802D01*
G01X5521686Y-2152802D01*
G01X5523613Y-2168672D01*
G01X5529282Y-2183620D01*
G01X5538363Y-2196777D01*
G01X5550329Y-2207378D01*
G01X5564485Y-2214807D01*
G01X5580007Y-2218633D01*
G01X5595993Y-2218633D01*
G01X5611515Y-2214807D01*
G01X5625671Y-2207378D01*
G01X5637637Y-2196777D01*
G01X5646718Y-2183620D01*
G01X5652387Y-2168672D01*
G01X5654314Y-2152802D01*
G01X5652387Y-2136932D01*
G01X5648773Y-2127402D01*
G01X6474186Y-2127402D01*
G01X6476113Y-2143272D01*
G01X6481782Y-2158220D01*
G01X6490863Y-2171377D01*
G01X6502829Y-2181978D01*
G01X6516985Y-2189407D01*
G01X6532507Y-2193233D01*
G01X6548493Y-2193233D01*
G01X6564015Y-2189407D01*
G01X6578171Y-2181978D01*
G01X6590137Y-2171377D01*
G01X6599218Y-2158220D01*
G01X6604887Y-2143272D01*
G01X6606814Y-2127402D01*
G01X6604887Y-2111532D01*
G01X6599218Y-2096585D01*
G01X6590137Y-2083428D01*
G01X6578171Y-2072827D01*
G01X6564015Y-2065398D01*
G01X6548493Y-2061572D01*
G01X6532507Y-2061572D01*
G01X6516985Y-2065398D01*
G01X6502829Y-2072827D01*
G01X6490863Y-2083428D01*
G01X6481782Y-2096585D01*
G01X6476113Y-2111532D01*
G01X6474186Y-2127402D01*
G01X6474186Y-2127402D01*
G01X5648773Y-2127402D01*
G01X5646718Y-2121985D01*
G01X5637637Y-2108828D01*
G01X5625671Y-2098227D01*
G01X5611515Y-2090798D01*
G01X5595993Y-2086972D01*
G01X5580007Y-2086972D01*
G01X5564485Y-2090798D01*
G01X5550329Y-2098227D01*
G01X5538363Y-2108828D01*
G01X5529282Y-2121985D01*
G01X5523613Y-2136932D01*
G01X5521686Y-2152802D01*
G01X5521686Y-2152802D01*
G01X696914Y-2152802D01*
G01X696914Y-2082100D01*
G01X695161Y-2071033D01*
G01X690074Y-2061049D01*
G01X682151Y-2053126D01*
G01X672167Y-2048039D01*
G01X661100Y-2046286D01*
G01X431100Y-2046286D01*
G01X420033Y-2048039D01*
G01X410049Y-2053126D01*
G01X402126Y-2061049D01*
G01X397039Y-2071033D01*
G01X395286Y-2082100D01*
G01X395286Y-2312100D01*
G01X395286Y-2312100D01*
G01X48514Y-2312100D01*
G01X48514Y-1841500D01*
G01X2351786Y-1841500D01*
G01X2353671Y-1871456D01*
G01X2359295Y-1900940D01*
G01X2368570Y-1929487D01*
G01X2381350Y-1956646D01*
G01X2397434Y-1981989D01*
G01X2416566Y-2005116D01*
G01X2438447Y-2025663D01*
G01X2462730Y-2043306D01*
G01X2489033Y-2057766D01*
G01X2516941Y-2068816D01*
G01X2546013Y-2076280D01*
G01X2575792Y-2080042D01*
G01X2605808Y-2080042D01*
G01X2635587Y-2076280D01*
G01X2664659Y-2068816D01*
G01X2692567Y-2057766D01*
G01X2718870Y-2043306D01*
G01X2743153Y-2025663D01*
G01X2765034Y-2005116D01*
G01X2784166Y-1981989D01*
G01X2800250Y-1956646D01*
G01X2813030Y-1929487D01*
G01X2822305Y-1900940D01*
G01X2827929Y-1871456D01*
G01X2829814Y-1841500D01*
G01X2827929Y-1811544D01*
G01X2822305Y-1782060D01*
G01X2813030Y-1753513D01*
G01X2800250Y-1726354D01*
G01X2784166Y-1701011D01*
G01X2765034Y-1677884D01*
G01X2743153Y-1657337D01*
G01X2718870Y-1639694D01*
G01X2692567Y-1625234D01*
G01X2664659Y-1614184D01*
G01X2635587Y-1606720D01*
G01X2605808Y-1602958D01*
G01X2575792Y-1602958D01*
G01X2546013Y-1606720D01*
G01X2516941Y-1614184D01*
G01X2489033Y-1625234D01*
G01X2462730Y-1639694D01*
G01X2438447Y-1657337D01*
G01X2416566Y-1677884D01*
G01X2397434Y-1701011D01*
G01X2381350Y-1726354D01*
G01X2368570Y-1753513D01*
G01X2359295Y-1782060D01*
G01X2353671Y-1811544D01*
G01X2351786Y-1841500D01*
G01X2351786Y-1841500D01*
G01X48514Y-1841500D01*
G01X48514Y-1536700D01*
G01X407986Y-1536700D01*
G01X409843Y-1560292D01*
G01X415368Y-1583304D01*
G01X424424Y-1605168D01*
G01X436789Y-1625346D01*
G01X452159Y-1643341D01*
G01X470154Y-1658711D01*
G01X490332Y-1671076D01*
G01X512196Y-1680132D01*
G01X535208Y-1685657D01*
G01X558800Y-1687514D01*
G01X582392Y-1685657D01*
G01X605404Y-1680132D01*
G01X627268Y-1671076D01*
G01X647446Y-1658711D01*
G01X665441Y-1643341D01*
G01X680811Y-1625346D01*
G01X693176Y-1605168D01*
G01X702232Y-1583304D01*
G01X707757Y-1560292D01*
G01X709614Y-1536700D01*
G01X1762791Y-1536700D01*
G01X1764718Y-1552570D01*
G01X1770387Y-1567518D01*
G01X1779468Y-1580674D01*
G01X1791434Y-1591275D01*
G01X1805590Y-1598705D01*
G01X1821112Y-1602531D01*
G01X1837098Y-1602531D01*
G01X1852620Y-1598705D01*
G01X1866775Y-1591275D01*
G01X1878742Y-1580674D01*
G01X1887823Y-1567518D01*
G01X1893492Y-1552570D01*
G01X1895419Y-1536700D01*
G01X1893492Y-1520830D01*
G01X1887823Y-1505882D01*
G01X1878742Y-1492726D01*
G01X1866775Y-1482125D01*
G01X1852620Y-1474695D01*
G01X1837098Y-1470869D01*
G01X1821112Y-1470869D01*
G01X1805590Y-1474695D01*
G01X1791434Y-1482125D01*
G01X1779468Y-1492726D01*
G01X1770387Y-1505882D01*
G01X1764718Y-1520830D01*
G01X1762791Y-1536700D01*
G01X1762791Y-1536700D01*
G01X709614Y-1536700D01*
G01X707757Y-1513108D01*
G01X702232Y-1490096D01*
G01X693176Y-1468232D01*
G01X680811Y-1448054D01*
G01X665441Y-1430059D01*
G01X647446Y-1414689D01*
G01X627268Y-1402324D01*
G01X605404Y-1393268D01*
G01X582392Y-1387743D01*
G01X558800Y-1385886D01*
G01X558800Y-1385886D01*
G01X535208Y-1387743D01*
G01X512196Y-1393268D01*
G01X490332Y-1402324D01*
G01X470154Y-1414689D01*
G01X452159Y-1430059D01*
G01X436789Y-1448054D01*
G01X424424Y-1468232D01*
G01X415368Y-1490096D01*
G01X409843Y-1513108D01*
G01X407986Y-1536700D01*
G01X48514Y-1536700D01*
G01X48514Y-1282700D01*
G01X3845286Y-1282700D01*
G01X3847213Y-1298570D01*
G01X3852882Y-1313518D01*
G01X3861963Y-1326674D01*
G01X3873929Y-1337275D01*
G01X3888085Y-1344705D01*
G01X3903607Y-1348531D01*
G01X3919593Y-1348531D01*
G01X3935115Y-1344705D01*
G01X3949271Y-1337275D01*
G01X3961237Y-1326674D01*
G01X3970318Y-1313518D01*
G01X3975987Y-1298570D01*
G01X3977914Y-1282700D01*
G01X4353286Y-1282700D01*
G01X4355213Y-1298570D01*
G01X4360882Y-1313518D01*
G01X4369963Y-1326674D01*
G01X4381929Y-1337275D01*
G01X4396085Y-1344705D01*
G01X4411607Y-1348531D01*
G01X4427593Y-1348531D01*
G01X4443115Y-1344705D01*
G01X4448503Y-1341877D01*
G01X5185780Y-1341877D01*
G01X5187707Y-1357747D01*
G01X5193376Y-1372695D01*
G01X5202457Y-1385851D01*
G01X5214423Y-1396452D01*
G01X5228579Y-1403882D01*
G01X5244101Y-1407707D01*
G01X5260087Y-1407707D01*
G01X5275609Y-1403882D01*
G01X5289765Y-1396452D01*
G01X5301731Y-1385851D01*
G01X5310812Y-1372695D01*
G01X5316481Y-1357747D01*
G01X5318408Y-1341877D01*
G01X5317197Y-1331900D01*
G01X6143986Y-1331900D01*
G01X6145913Y-1347770D01*
G01X6151582Y-1362717D01*
G01X6160663Y-1375874D01*
G01X6172629Y-1386475D01*
G01X6186785Y-1393905D01*
G01X6202307Y-1397730D01*
G01X6218293Y-1397730D01*
G01X6233815Y-1393905D01*
G01X6247971Y-1386475D01*
G01X6259937Y-1375874D01*
G01X6269018Y-1362717D01*
G01X6274687Y-1347770D01*
G01X6276614Y-1331900D01*
G01X6274687Y-1316030D01*
G01X6269018Y-1301082D01*
G01X6259937Y-1287925D01*
G01X6247971Y-1277324D01*
G01X6233815Y-1269895D01*
G01X6218293Y-1266069D01*
G01X6202307Y-1266069D01*
G01X6186785Y-1269895D01*
G01X6172629Y-1277324D01*
G01X6160663Y-1287925D01*
G01X6151582Y-1301082D01*
G01X6145913Y-1316030D01*
G01X6143986Y-1331900D01*
G01X6143986Y-1331900D01*
G01X5317197Y-1331900D01*
G01X5316481Y-1326007D01*
G01X5310812Y-1311059D01*
G01X5301731Y-1297903D01*
G01X5289765Y-1287302D01*
G01X5275609Y-1279872D01*
G01X5260087Y-1276046D01*
G01X5244101Y-1276046D01*
G01X5228579Y-1279872D01*
G01X5214423Y-1287302D01*
G01X5202457Y-1297903D01*
G01X5193376Y-1311059D01*
G01X5187707Y-1326007D01*
G01X5185780Y-1341877D01*
G01X5185780Y-1341877D01*
G01X4448503Y-1341877D01*
G01X4457271Y-1337275D01*
G01X4469237Y-1326674D01*
G01X4478318Y-1313518D01*
G01X4483987Y-1298570D01*
G01X4485914Y-1282700D01*
G01X4483987Y-1266830D01*
G01X4478318Y-1251882D01*
G01X4469237Y-1238726D01*
G01X4457271Y-1228125D01*
G01X4443115Y-1220695D01*
G01X4427593Y-1216869D01*
G01X4411607Y-1216869D01*
G01X4396085Y-1220695D01*
G01X4381929Y-1228125D01*
G01X4369963Y-1238726D01*
G01X4360882Y-1251882D01*
G01X4355213Y-1266830D01*
G01X4353286Y-1282700D01*
G01X4353286Y-1282700D01*
G01X3977914Y-1282700D01*
G01X3977914Y-1282700D01*
G01X3975987Y-1266830D01*
G01X3970318Y-1251882D01*
G01X3961237Y-1238726D01*
G01X3949271Y-1228125D01*
G01X3935115Y-1220695D01*
G01X3919593Y-1216869D01*
G01X3903607Y-1216869D01*
G01X3888085Y-1220695D01*
G01X3873929Y-1228125D01*
G01X3861963Y-1238726D01*
G01X3852882Y-1251882D01*
G01X3847213Y-1266830D01*
G01X3845286Y-1282700D01*
G01X3845286Y-1282700D01*
G01X48514Y-1282700D01*
G01X48514Y-1143700D01*
G01X407986Y-1143700D01*
G01X409739Y-1154767D01*
G01X414826Y-1164751D01*
G01X422749Y-1172674D01*
G01X432733Y-1177761D01*
G01X443800Y-1179514D01*
G01X673800Y-1179514D01*
G01X684867Y-1177761D01*
G01X694851Y-1172674D01*
G01X702774Y-1164751D01*
G01X707861Y-1154767D01*
G01X709614Y-1143700D01*
G01X709614Y-1016000D01*
G01X2449886Y-1016000D01*
G01X2451813Y-1031870D01*
G01X2457482Y-1046818D01*
G01X2466563Y-1059974D01*
G01X2478530Y-1070575D01*
G01X2492685Y-1078005D01*
G01X2508207Y-1081831D01*
G01X2524193Y-1081831D01*
G01X2539715Y-1078005D01*
G01X2553871Y-1070575D01*
G01X2565837Y-1059974D01*
G01X2574918Y-1046818D01*
G01X2580587Y-1031870D01*
G01X2582514Y-1016000D01*
G01X2580587Y-1000130D01*
G01X2574918Y-985182D01*
G01X2565837Y-972026D01*
G01X2553871Y-961425D01*
G01X2539715Y-953995D01*
G01X2524193Y-950169D01*
G01X2508207Y-950169D01*
G01X2492685Y-953995D01*
G01X2478530Y-961425D01*
G01X2466563Y-972026D01*
G01X2457482Y-985182D01*
G01X2451813Y-1000130D01*
G01X2449886Y-1016000D01*
G01X2449886Y-1016000D01*
G01X709614Y-1016000D01*
G01X709614Y-913700D01*
G01X707861Y-902633D01*
G01X702774Y-892649D01*
G01X694851Y-884726D01*
G01X684867Y-879639D01*
G01X673800Y-877886D01*
G01X443800Y-877886D01*
G01X432733Y-879639D01*
G01X422749Y-884726D01*
G01X414826Y-892649D01*
G01X409739Y-902633D01*
G01X407986Y-913700D01*
G01X407986Y-1143700D01*
G01X407986Y-1143700D01*
G01X48514Y-1143700D01*
G01X48514Y-518786D01*
G01X3755080Y-518786D01*
G01X3756937Y-542379D01*
G01X3762461Y-565390D01*
G01X3771518Y-587254D01*
G01X3783883Y-607432D01*
G01X3799252Y-625428D01*
G01X3817248Y-640797D01*
G01X3837426Y-653162D01*
G01X3859290Y-662219D01*
G01X3882301Y-667743D01*
G01X3905894Y-669600D01*
G01X3929486Y-667743D01*
G01X3952498Y-662219D01*
G01X3974362Y-653162D01*
G01X3994540Y-640797D01*
G01X4012535Y-625428D01*
G01X4027905Y-607432D01*
G01X4040270Y-587254D01*
G01X4049326Y-565390D01*
G01X4054851Y-542379D01*
G01X4056708Y-518786D01*
G01X4263080Y-518786D01*
G01X4264937Y-542379D01*
G01X4270461Y-565390D01*
G01X4279518Y-587254D01*
G01X4291883Y-607432D01*
G01X4307252Y-625428D01*
G01X4325248Y-640797D01*
G01X4345426Y-653162D01*
G01X4367290Y-662219D01*
G01X4390301Y-667743D01*
G01X4413894Y-669600D01*
G01X4437486Y-667743D01*
G01X4460498Y-662219D01*
G01X4482362Y-653162D01*
G01X4502540Y-640797D01*
G01X4520535Y-625428D01*
G01X4535905Y-607432D01*
G01X4548270Y-587254D01*
G01X4557326Y-565390D01*
G01X4562851Y-542379D01*
G01X4564708Y-518786D01*
G01X4771080Y-518786D01*
G01X4772937Y-542379D01*
G01X4778461Y-565390D01*
G01X4787518Y-587254D01*
G01X4799883Y-607432D01*
G01X4815252Y-625428D01*
G01X4833248Y-640797D01*
G01X4853426Y-653162D01*
G01X4875290Y-662219D01*
G01X4898301Y-667743D01*
G01X4921894Y-669600D01*
G01X4945486Y-667743D01*
G01X4968498Y-662219D01*
G01X4990362Y-653162D01*
G01X5010540Y-640797D01*
G01X5028535Y-625428D01*
G01X5043905Y-607432D01*
G01X5056270Y-587254D01*
G01X5065326Y-565390D01*
G01X5070851Y-542379D01*
G01X5072708Y-518786D01*
G01X5072708Y-518786D01*
G01X5279080Y-518786D01*
G01X5280937Y-542379D01*
G01X5286461Y-565390D01*
G01X5295518Y-587254D01*
G01X5307883Y-607432D01*
G01X5323252Y-625428D01*
G01X5341248Y-640797D01*
G01X5361426Y-653162D01*
G01X5383290Y-662219D01*
G01X5406301Y-667743D01*
G01X5429894Y-669600D01*
G01X5453486Y-667743D01*
G01X5476498Y-662219D01*
G01X5498362Y-653162D01*
G01X5518540Y-640797D01*
G01X5536535Y-625428D01*
G01X5551905Y-607432D01*
G01X5564270Y-587254D01*
G01X5573326Y-565390D01*
G01X5578851Y-542379D01*
G01X5580708Y-518786D01*
G01X5787080Y-518786D01*
G01X5788937Y-542379D01*
G01X5794461Y-565390D01*
G01X5803518Y-587254D01*
G01X5815883Y-607432D01*
G01X5831252Y-625428D01*
G01X5849248Y-640797D01*
G01X5869426Y-653162D01*
G01X5891290Y-662219D01*
G01X5914301Y-667743D01*
G01X5937894Y-669600D01*
G01X5961486Y-667743D01*
G01X5984498Y-662219D01*
G01X6006362Y-653162D01*
G01X6026540Y-640797D01*
G01X6044535Y-625428D01*
G01X6059905Y-607432D01*
G01X6072270Y-587254D01*
G01X6081326Y-565390D01*
G01X6086851Y-542379D01*
G01X6088708Y-518786D01*
G01X6295080Y-518786D01*
G01X6296937Y-542379D01*
G01X6302461Y-565390D01*
G01X6311518Y-587254D01*
G01X6323883Y-607432D01*
G01X6339252Y-625428D01*
G01X6357248Y-640797D01*
G01X6377426Y-653162D01*
G01X6399290Y-662219D01*
G01X6422301Y-667743D01*
G01X6445894Y-669600D01*
G01X6469486Y-667743D01*
G01X6492498Y-662219D01*
G01X6514362Y-653162D01*
G01X6534540Y-640797D01*
G01X6552535Y-625428D01*
G01X6567905Y-607432D01*
G01X6580270Y-587254D01*
G01X6589326Y-565390D01*
G01X6594851Y-542379D01*
G01X6596708Y-518786D01*
G01X6596708Y-518786D01*
G01X6594851Y-495194D01*
G01X6589326Y-472182D01*
G01X6580270Y-450318D01*
G01X6567905Y-430140D01*
G01X6552535Y-412145D01*
G01X6534540Y-396775D01*
G01X6514362Y-384410D01*
G01X6492498Y-375354D01*
G01X6469486Y-369829D01*
G01X6445894Y-367972D01*
G01X6422301Y-369829D01*
G01X6399290Y-375354D01*
G01X6377426Y-384410D01*
G01X6357248Y-396775D01*
G01X6339252Y-412145D01*
G01X6323883Y-430140D01*
G01X6311518Y-450318D01*
G01X6302461Y-472182D01*
G01X6296937Y-495194D01*
G01X6295080Y-518786D01*
G01X6088708Y-518786D01*
G01X6088708Y-518786D01*
G01X6088708Y-518786D01*
G01X6086851Y-495194D01*
G01X6081326Y-472182D01*
G01X6072270Y-450318D01*
G01X6059905Y-430140D01*
G01X6044535Y-412145D01*
G01X6026540Y-396775D01*
G01X6006362Y-384410D01*
G01X5984498Y-375354D01*
G01X5961486Y-369829D01*
G01X5937894Y-367972D01*
G01X5914301Y-369829D01*
G01X5891290Y-375354D01*
G01X5869426Y-384410D01*
G01X5849248Y-396775D01*
G01X5831252Y-412145D01*
G01X5815883Y-430140D01*
G01X5803518Y-450318D01*
G01X5794461Y-472182D01*
G01X5788937Y-495194D01*
G01X5787080Y-518786D01*
G01X5580708Y-518786D01*
G01X5580708Y-518786D01*
G01X5580708Y-518786D01*
G01X5578851Y-495194D01*
G01X5573326Y-472182D01*
G01X5564270Y-450318D01*
G01X5551905Y-430140D01*
G01X5536535Y-412145D01*
G01X5518540Y-396775D01*
G01X5498362Y-384410D01*
G01X5476498Y-375354D01*
G01X5453486Y-369829D01*
G01X5429894Y-367972D01*
G01X5406301Y-369829D01*
G01X5383290Y-375354D01*
G01X5361426Y-384410D01*
G01X5341248Y-396775D01*
G01X5323252Y-412145D01*
G01X5307883Y-430140D01*
G01X5295518Y-450318D01*
G01X5286461Y-472182D01*
G01X5280937Y-495194D01*
G01X5279080Y-518786D01*
G01X5072708Y-518786D01*
G01X5070851Y-495194D01*
G01X5065326Y-472182D01*
G01X5056270Y-450318D01*
G01X5043905Y-430140D01*
G01X5028535Y-412145D01*
G01X5010540Y-396775D01*
G01X4990362Y-384410D01*
G01X4968498Y-375354D01*
G01X4945486Y-369829D01*
G01X4921894Y-367972D01*
G01X4898301Y-369829D01*
G01X4875290Y-375354D01*
G01X4853426Y-384410D01*
G01X4833248Y-396775D01*
G01X4815252Y-412145D01*
G01X4799883Y-430140D01*
G01X4787518Y-450318D01*
G01X4778461Y-472182D01*
G01X4772937Y-495194D01*
G01X4771080Y-518786D01*
G01X4564708Y-518786D01*
G01X4564708Y-518786D01*
G01X4564708Y-518786D01*
G01X4562851Y-495194D01*
G01X4557326Y-472182D01*
G01X4548270Y-450318D01*
G01X4535905Y-430140D01*
G01X4520535Y-412145D01*
G01X4502540Y-396775D01*
G01X4482362Y-384410D01*
G01X4460498Y-375354D01*
G01X4437486Y-369829D01*
G01X4413894Y-367972D01*
G01X4390301Y-369829D01*
G01X4367290Y-375354D01*
G01X4345426Y-384410D01*
G01X4325248Y-396775D01*
G01X4307252Y-412145D01*
G01X4291883Y-430140D01*
G01X4279518Y-450318D01*
G01X4270461Y-472182D01*
G01X4264937Y-495194D01*
G01X4263080Y-518786D01*
G01X4056708Y-518786D01*
G01X4056708Y-518786D01*
G01X4056708Y-518786D01*
G01X4054851Y-495194D01*
G01X4049326Y-472182D01*
G01X4040270Y-450318D01*
G01X4027905Y-430140D01*
G01X4012535Y-412145D01*
G01X3994540Y-396775D01*
G01X3974362Y-384410D01*
G01X3952498Y-375354D01*
G01X3929486Y-369829D01*
G01X3905894Y-367972D01*
G01X3882301Y-369829D01*
G01X3859290Y-375354D01*
G01X3837426Y-384410D01*
G01X3817248Y-396775D01*
G01X3799252Y-412145D01*
G01X3783883Y-430140D01*
G01X3771518Y-450318D01*
G01X3762461Y-472182D01*
G01X3756937Y-495194D01*
G01X3755080Y-518786D01*
G01X48514Y-518786D01*
G01X48514Y-330200D01*
G01X1503330Y-330200D01*
G01X1505257Y-346070D01*
G01X1510926Y-361018D01*
G01X1520007Y-374174D01*
G01X1531973Y-384775D01*
G01X1546129Y-392205D01*
G01X1561651Y-396031D01*
G01X1577637Y-396031D01*
G01X1593159Y-392205D01*
G01X1607314Y-384775D01*
G01X1619281Y-374174D01*
G01X1628362Y-361018D01*
G01X1634031Y-346070D01*
G01X1635958Y-330200D01*
G01X1634031Y-314330D01*
G01X1628362Y-299382D01*
G01X1619281Y-286226D01*
G01X1607314Y-275625D01*
G01X1593159Y-268195D01*
G01X1577637Y-264369D01*
G01X1561651Y-264369D01*
G01X1546129Y-268195D01*
G01X1531973Y-275625D01*
G01X1520007Y-286226D01*
G01X1510926Y-299382D01*
G01X1505257Y-314330D01*
G01X1503330Y-330200D01*
G01X1503330Y-330200D01*
G01X48514Y-330200D01*
G01X48514Y-254000D01*
G01X50164Y-227215D01*
G01X55090Y-200835D01*
G01X63217Y-175260D01*
G37*
G54D10*
G01X63217Y-175260D02*
G01X7851256Y-175260D01*
G03X7912100Y-645414I60844J-231140D01*
G03X7972944Y-175260I0J239014D01*
G01X8232140Y-175260D01*
G01X8232140Y-7768211D01*
G02X8051800Y-7863586I-180340J122811D01*
G01X266700Y-7863586D01*
G02X48514Y-7645400I0J218186D01*
G01X48514Y-254000D01*
G02X63217Y-175260I218186J0D01*
G01X546100Y-2554286D02*
G03X546100Y-2855914I0J-150814D01*
G03X546100Y-2554286I0J150814D01*
G01X395286Y-2312100D02*
G03X431100Y-2347914I35814J0D01*
G01X661100Y-2347914D01*
G03X696914Y-2312100I0J35814D01*
G01X696914Y-2082100D01*
G03X661100Y-2046286I-35814J0D01*
G01X431100Y-2046286D01*
G03X395286Y-2082100I0J-35814D01*
G01X395286Y-2312100D01*
G01X558800Y-1385886D02*
G03X558800Y-1687514I0J-150814D01*
G03X558800Y-1385886I0J150814D01*
G01X407986Y-1143700D02*
G03X443800Y-1179514I35814J0D01*
G01X673800Y-1179514D01*
G03X709614Y-1143700I0J35814D01*
G01X709614Y-913700D01*
G03X673800Y-877886I-35814J0D01*
G01X443800Y-877886D01*
G03X407986Y-913700I0J-35814D01*
G01X407986Y-1143700D01*
G01X594545Y-4695651D02*
G03X594545Y-4997279I0J-150814D01*
G03X594545Y-4695651I0J150814D01*
G01X594545Y-7019751D02*
G03X594545Y-7321379I0J-150814D01*
G03X594545Y-7019751I0J150814D01*
G01X594545Y-4187651D02*
G03X594545Y-4489279I0J-150814D01*
G03X594545Y-4187651I0J150814D01*
G01X594545Y-6511751D02*
G03X594545Y-6813379I0J-150814D01*
G03X594545Y-6511751I0J150814D01*
G01X594545Y-3171651D02*
G03X594545Y-3473279I0J-150814D01*
G03X594545Y-3171651I0J150814D01*
G01X594545Y-5495751D02*
G03X594545Y-5797379I0J-150814D01*
G03X594545Y-5495751I0J150814D01*
G01X594545Y-6003751D02*
G03X594545Y-6305379I0J-150814D01*
G03X594545Y-6003751I0J150814D01*
G01X594545Y-3679651D02*
G03X594545Y-3981279I0J-150814D01*
G03X594545Y-3679651I0J150814D01*
G01X1503330Y-330200D02*
G03X1635958Y-330200I66314J0D01*
G03X1503330Y-330200I-66314J0D01*
G01X1595031Y-5957867D02*
G03X1727659Y-5957867I66314J0D01*
G03X1595031Y-5957867I-66314J0D01*
G01X1611465Y-6467292D02*
G03X1744093Y-6467292I66314J0D01*
G03X1611465Y-6467292I-66314J0D01*
G01X1620431Y-7494567D02*
G03X1753059Y-7494567I66314J0D01*
G03X1620431Y-7494567I-66314J0D01*
G01X1620431Y-6986567D02*
G03X1753059Y-6986567I66314J0D01*
G03X1620431Y-6986567I-66314J0D01*
G01X1658531Y-4649767D02*
G03X1791159Y-4649767I66314J0D01*
G03X1658531Y-4649767I-66314J0D01*
G01X1662265Y-3638384D02*
G03X1794893Y-3638384I66314J0D01*
G03X1662265Y-3638384I-66314J0D01*
G01X1662265Y-4143461D02*
G03X1794893Y-4143461I66314J0D01*
G03X1662265Y-4143461I-66314J0D01*
G01X1662265Y-5152907D02*
G03X1794893Y-5152907I66314J0D01*
G03X1662265Y-5152907I-66314J0D01*
G01X1762791Y-1536700D02*
G03X1895419Y-1536700I66314J0D01*
G03X1762791Y-1536700I-66314J0D01*
G01X3007127Y-4010864D02*
G01X2973193Y-4044798D01*
G01X2503160Y-4044798D01*
G03X2520664Y-3930653I-23485J62016D01*
G03X2413869Y-3974587I-40990J-52129D01*
G03X2317686Y-3984547I-43417J-50125D01*
G03X2333699Y-4079909I52766J-40165D01*
G01X2136361Y-4277248D01*
G01X1883496Y-4277248D01*
G03X1771972Y-4325762I-45210J-48514D01*
G03X1883496Y-4374276I66314J0D01*
G01X2156456Y-4374276D01*
G03X2190760Y-4360066I0J48514D01*
G01X2409001Y-4141826D01*
G01X2876379Y-4141826D01*
G03X2942982Y-4218018I65573J-9886D01*
G03X3007185Y-4139793I-1031J66306D01*
G03X3027593Y-4127616I-13897J46481D01*
G01X3075736Y-4079473D01*
G03X3137999Y-3998214I-2336J66273D01*
G01X3167605Y-3998214D01*
G01X3801095Y-4631705D01*
G03X3835400Y-4645914I34305J34305D01*
G01X3979745Y-4645914D01*
G03X4091269Y-4597400I45210J48514D01*
G03X3979745Y-4548886I-66314J0D01*
G01X3855495Y-4548886D01*
G01X3222005Y-3915395D01*
G03X3187700Y-3901186I-34305J-34305D01*
G01X2991610Y-3901186D01*
G03X2880086Y-3949700I-45210J-48514D01*
G03X2991610Y-3998214I66314J0D01*
G01X3008801Y-3998214D01*
G03X3007127Y-4010864I64599J-14986D01*
G01X1949312Y-6333857D02*
G03X2081940Y-6333857I66314J0D01*
G03X1949312Y-6333857I-66314J0D01*
G01X2134019Y-6094931D02*
G03X2020855Y-6050377I-66273J-2336D01*
G03X2065410Y-6163540I46891J-46891D01*
G01X2400041Y-6498172D01*
G03X2434345Y-6512381I34305J34305D01*
G01X2592335Y-6512381D01*
G03X2695377Y-6496316I45210J48514D01*
G03X2655391Y-6400000I-57832J32449D01*
G03X2657263Y-6267876I-4766J66142D01*
G03X2632778Y-6397725I-6638J-65981D01*
G03X2592335Y-6415353I4766J-66142D01*
G01X2454440Y-6415353D01*
G01X2134019Y-6094931D01*
G01X2017862Y-3752382D02*
G03X2150490Y-3752382I66314J0D01*
G03X2017862Y-3752382I-66314J0D01*
G01X2110486Y-7505700D02*
G03X2588514Y-7505700I239014J0D01*
G03X2110486Y-7505700I-239014J0D01*
G01X2118086Y-4521200D02*
G03X2250714Y-4521200I66314J0D01*
G03X2118086Y-4521200I-66314J0D01*
G01X2128431Y-6745267D02*
G03X2261059Y-6745267I66314J0D01*
G03X2128431Y-6745267I-66314J0D01*
G01X2283185Y-6096000D02*
G03X2415813Y-6096000I66314J0D01*
G03X2283185Y-6096000I-66314J0D01*
G01X2351786Y-1841500D02*
G03X2829814Y-1841500I239014J0D01*
G03X2351786Y-1841500I-239014J0D01*
G01X2449886Y-1016000D02*
G03X2582514Y-1016000I66314J0D01*
G03X2449886Y-1016000I-66314J0D01*
G01X2689586Y-3771900D02*
G03X2822214Y-3771900I66314J0D01*
G03X2689586Y-3771900I-66314J0D01*
G01X2833680Y-6186528D02*
G03X2966308Y-6186528I66314J0D01*
G03X2833680Y-6186528I-66314J0D01*
G01X3320288Y-5377919D02*
G03X3452915Y-5377919I66314J0D01*
G03X3320288Y-5377919I-66314J0D01*
G01X4901401Y-4140028D02*
G03X4845442Y-4174070I1989J-66284D01*
G01X4638285Y-3966913D01*
G03X4574116Y-3902622I-66284J-1989D01*
G03X4505978Y-3962691I-2115J-66280D01*
G03X4408676Y-3919336I-64730J-14408D01*
G03X4395425Y-4025033I32573J-57763D01*
G03X4392034Y-4028015I42073J-51259D01*
G01X4048799Y-4028015D01*
G03X3983226Y-3951815I-65573J9886D01*
G03X3917654Y-4028015I0J-66314D01*
G01X3855075Y-4028015D01*
G03X3820938Y-4042155I0J-48277D01*
G01X3727616Y-4135477D01*
G03X3682714Y-4248653I1989J-66284D01*
G03X3795889Y-4203751I46891J46891D01*
G01X3875072Y-4124568D01*
G01X4392034Y-4124568D01*
G01X4392316Y-4124832D01*
G03X4437795Y-4239521I45358J-48375D01*
G03X4482855Y-4124667I-121J66314D01*
G03X4483321Y-4028357I-45358J48375D01*
G03X4507271Y-3983310I-42073J51259D01*
G03X4570012Y-4035186I64730J14408D01*
G01X5222223Y-4687398D01*
G01X5222223Y-6026302D01*
G03X5236363Y-6060438I48277J0D01*
G01X5775712Y-6599787D01*
G03X5888887Y-6644689I66284J1989D01*
G03X5843986Y-6531514I-46891J46891D01*
G01X5318777Y-6006305D01*
G01X5318777Y-4667401D01*
G03X5304637Y-4633264I-48277J0D01*
G01X4935632Y-4264260D01*
G03X4969674Y-4208301I-32242J57948D01*
G01X5286379Y-3891596D01*
G03X5331281Y-3778421I-1989J66284D01*
G03X5218105Y-3823323I-46891J-46891D01*
G01X4901401Y-4140028D01*
G01X4056708Y-518786D02*
G03X3755080Y-518786I-150814J0D01*
G03X4056708Y-518786I150814J0D01*
G01X3840836Y-4307311D02*
G03X3973464Y-4307311I66314J0D01*
G03X3840836Y-4307311I-66314J0D01*
G01X3845286Y-1282700D02*
G03X3977914Y-1282700I66314J0D01*
G03X3845286Y-1282700I-66314J0D01*
G01X3951277Y-3828075D02*
G03X4083905Y-3828075I66314J0D01*
G03X3951277Y-3828075I-66314J0D01*
G01X4078986Y-5448300D02*
G03X4557014Y-5448300I239014J0D01*
G03X4078986Y-5448300I-239014J0D01*
G01X4547815Y-7151188D02*
G03X4366188Y-7151188I-90814J0D01*
G01X4366188Y-7177928D01*
G03X4238986Y-7204201I-60888J-26273D01*
G03X4366188Y-7230473I66314J0D01*
G01X4366188Y-7241188D01*
G03X4538201Y-7281855I90814J0D01*
G03X4670833Y-7256559I62311J33648D01*
G03X4547815Y-7200901I-70321J8352D01*
G01X4547815Y-7151188D01*
G01X4564708Y-518786D02*
G03X4263080Y-518786I-150814J0D01*
G03X4564708Y-518786I150814J0D01*
G01X4353286Y-1282700D02*
G03X4485914Y-1282700I66314J0D01*
G03X4353286Y-1282700I-66314J0D01*
G01X4361188Y-7586203D02*
G01X4361188Y-7646203D01*
G03X4552815Y-7646203I95814J0D01*
G01X4552815Y-7586203D01*
G03X4361188Y-7586203I-95814J0D01*
G01X4374935Y-4327911D02*
G03X4507562Y-4327911I66314J0D01*
G03X4374935Y-4327911I-66314J0D01*
G01X4638884Y-3378200D02*
G03X4771512Y-3378200I66314J0D01*
G03X4638884Y-3378200I-66314J0D01*
G01X4642870Y-3557414D02*
G03X4775498Y-3557414I66314J0D01*
G03X4642870Y-3557414I-66314J0D01*
G01X5072708Y-518786D02*
G03X4771080Y-518786I-150814J0D01*
G03X5072708Y-518786I150814J0D01*
G01X4823186Y-6716351D02*
G03X4955814Y-6716351I66314J0D01*
G03X4823186Y-6716351I-66314J0D01*
G01X4823186Y-6944706D02*
G03X4955814Y-6944706I66314J0D01*
G03X4823186Y-6944706I-66314J0D01*
G01X5128073Y-7198503D02*
G03X5012503Y-7239204I-49353J-44292D01*
G03X5122994Y-7292165I66217J-3591D01*
G03X5240811Y-7281880I55520J43958D01*
G03X5412812Y-7241188I81187J40692D01*
G01X5412812Y-7230476D01*
G03X5540013Y-7204201I60886J26276D01*
G03X5412812Y-7177925I-66314J0D01*
G01X5412812Y-7151188D01*
G03X5231185Y-7151188I-90814J0D01*
G01X5231185Y-7200873D01*
G03X5128073Y-7198503I-52671J-47335D01*
G01X5185780Y-1341877D02*
G03X5318408Y-1341877I66314J0D01*
G03X5185780Y-1341877I-66314J0D01*
G01X5226185Y-7586203D02*
G01X5226185Y-7646203D01*
G03X5417812Y-7646203I95814J0D01*
G01X5417812Y-7586203D01*
G03X5226185Y-7586203I-95814J0D01*
G01X5580708Y-518786D02*
G03X5279080Y-518786I-150814J0D01*
G03X5580708Y-518786I150814J0D01*
G01X5388980Y-2693487D02*
G03X5521608Y-2693487I66314J0D01*
G03X5388980Y-2693487I-66314J0D01*
G01X5521686Y-2152802D02*
G03X5654314Y-2152802I66314J0D01*
G03X5521686Y-2152802I-66314J0D01*
G01X5522892Y-5195506D02*
G03X5655521Y-5195506I66314J0D01*
G03X5522892Y-5195506I-66314J0D01*
G01X6088708Y-518786D02*
G03X5787080Y-518786I-150814J0D01*
G03X6088708Y-518786I150814J0D01*
G01X6143986Y-1331900D02*
G03X6276614Y-1331900I66314J0D01*
G03X6143986Y-1331900I-66314J0D01*
G01X6156686Y-7624508D02*
G03X6286500Y-7643621I66314J0D01*
G03X6416314Y-7624508I63500J19113D01*
G03X6286500Y-7605396I-66314J0D01*
G03X6156686Y-7624508I-63500J-19113D01*
G01X6156686Y-7234491D02*
G03X6289314Y-7234491I66314J0D01*
G03X6156686Y-7234491I-66314J0D01*
G01X6596708Y-518786D02*
G03X6295080Y-518786I-150814J0D01*
G03X6596708Y-518786I150814J0D01*
G01X6474186Y-2127402D02*
G03X6606814Y-2127402I66314J0D01*
G03X6474186Y-2127402I-66314J0D01*
G01X6537686Y-7624508D02*
G03X6670314Y-7624508I66314J0D01*
G03X6537686Y-7624508I-66314J0D01*
G01X7182085Y-6019799D02*
G03X7314713Y-6019799I66314J0D01*
G03X7182085Y-6019799I-66314J0D01*
G01X7464791Y-5168040D02*
G03X7597419Y-5168040I66314J0D01*
G03X7464791Y-5168040I-66314J0D01*
G01X7571753Y-4175512D02*
G03X7704381Y-4175512I66314J0D01*
G03X7571753Y-4175512I-66314J0D01*
G01X7673086Y-7518400D02*
G03X8151114Y-7518400I239014J0D01*
G03X7673086Y-7518400I-239014J0D01*
G04 Copper End*

G04 Pad Start*
G54D11*
G01X2590800Y-1841500D03*
G01X7912100Y-406400D03*
G01X7912100Y-7518400D03*
G01X4318000Y-5448300D03*
G01X2349500Y-7505700D03*
G54D12*
G01X6445894Y-518786D03*
G01X5937894Y-518786D03*
G01X5429894Y-518786D03*
G01X4921894Y-518786D03*
G01X4413894Y-518786D03*
G01X3905894Y-518786D03*
G54D13*
G01X558800Y-1028700D03*
G54D12*
G01X558800Y-1536700D03*
G01X594545Y-5646565D03*
G01X594545Y-6154565D03*
G01X594545Y-6662565D03*
G01X594545Y-7170565D03*
G01X594545Y-3322465D03*
G01X594545Y-3830465D03*
G01X594545Y-4338465D03*
G01X594545Y-4846465D03*
G54D13*
G01X546100Y-2197100D03*
G54D12*
G01X546100Y-2705100D03*
G54D14*
G01X4457002Y-7196188D03*
G01X5321999Y-7196188D03*
G54D15*
G01X4457002Y-7616203D03*
G01X5321999Y-7616203D03*
G04 Pad End*

G04 Via Start*
G54D16*
G01X4441249Y-4327911D03*
G01X7638067Y-4175512D03*
G01X4437674Y-4173207D03*
G01X4024955Y-4597400D03*
G01X4437497Y-4076292D03*
G01X3729605Y-4201761D03*
G01X3983226Y-4018129D03*
G01X3907150Y-4307311D03*
G01X2941951Y-4151712D03*
G01X2370453Y-4024712D03*
G01X4441249Y-3977099D03*
G01X3386602Y-5377919D03*
G01X4017591Y-3828075D03*
G01X2899994Y-6186528D03*
G01X2349499Y-6096000D03*
G01X2946400Y-3949700D03*
G01X1349224Y-4681616D03*
G01X6210300Y-1331900D03*
G01X5252094Y-1341877D03*
G01X6540500Y-2127402D03*
G01X6540500Y-1987398D03*
G01X5588000Y-2012798D03*
G01X7530945Y-2023876D03*
G01X7530946Y-2380633D03*
G01X7530948Y-2733226D03*
G01X7530947Y-3099147D03*
G01X7530946Y-3464440D03*
G01X7530946Y-3817032D03*
G01X7531099Y-4168901D03*
G01X7531099Y-4511801D03*
G01X7531100Y-4837836D03*
G01X7952689Y-4998320D03*
G01X7531105Y-5168040D03*
G01X7248399Y-6019799D03*
G01X6172200Y-2671249D03*
G01X4840200Y-3378200D03*
G01X1331145Y-7014864D03*
G01X2184400Y-4521200D03*
G01X2182045Y-4382762D03*
G01X1356547Y-4170064D03*
G01X5074294Y-2152467D03*
G01X6045200Y-2142490D03*
G01X5588000Y-2152802D03*
G01X1728579Y-3638384D03*
G01X1724845Y-4649767D03*
G01X2755900Y-3771900D03*
G01X1305747Y-5490864D03*
G01X1661345Y-5957867D03*
G01X1318445Y-6003028D03*
G01X1677779Y-6467292D03*
G01X1331147Y-6506864D03*
G01X1686745Y-6986567D03*
G01X1686745Y-7494567D03*
G01X2194745Y-6745267D03*
G01X2194746Y-6605267D03*
G01X1361930Y-3154393D03*
G01X1361929Y-3671600D03*
G01X1728579Y-4143461D03*
G01X1728579Y-5152907D03*
G01X2084176Y-3752382D03*
G01X2479675Y-3982782D03*
G01X2067746Y-6097268D03*
G01X2637545Y-6463867D03*
G01X2015626Y-6333857D03*
G01X2650625Y-6333857D03*
G01X4903390Y-4206312D03*
G01X5284389Y-3825312D03*
G01X1838286Y-4325762D03*
G01X1569644Y-330200D03*
G01X3911600Y-1282700D03*
G01X5455294Y-2693487D03*
G01X6096000Y-7624508D03*
G01X6223000Y-7624508D03*
G01X6350000Y-7624508D03*
G01X6604000Y-7624508D03*
G01X4889500Y-6944706D03*
G01X5078720Y-7242796D03*
G01X4705198Y-3378200D03*
G01X5841996Y-6597798D03*
G01X4572001Y-3968902D03*
G01X4305300Y-7204201D03*
G01X5473699Y-7204201D03*
G01X4889500Y-6716351D03*
G01X4709184Y-3557414D03*
G01X4849393Y-3557618D03*
G01X2229510Y-552704D03*
G01X3070200Y-647700D03*
G01X2516200Y-1016000D03*
G01X2716200Y-1016000D03*
G01X1829105Y-1536700D03*
G01X4419600Y-1282700D03*
G01X3073400Y-4013200D03*
G01X5589207Y-5195506D03*
G01X6223000Y-7234491D03*
G04 Via End*

G04 Track Start*
G54D17*
G01X2067746Y-6097268D02*
G01X2434345Y-6463867D01*
G01X2637545Y-6463867D01*
G54D19*
G01X4903390Y-4206312D02*
G01X5284389Y-3825312D01*
G01X5270500Y-4667401D02*
G01X4572001Y-3968902D01*
G01X5841996Y-6597798D02*
G01X5270500Y-6026302D01*
G01X5270500Y-4667401D01*
G54D17*
G01X4024955Y-4597400D02*
G01X3835400Y-4597400D01*
G01X3187700Y-3949700D01*
G01X2946400Y-3949700D01*
G54D19*
G01X4437497Y-4076292D02*
G01X3855075Y-4076292D01*
G01X3729605Y-4201761D01*
G54D17*
G01X3073400Y-4013200D02*
G01X2993288Y-4093312D01*
G01X2156456Y-4325762D02*
G01X1838286Y-4325762D01*
G01X2993288Y-4093312D02*
G01X2388906Y-4093312D01*
G01X2156456Y-4325762D01*
G04 Track End*

M02*

