;TYPE=PLATED
;Layer: PTH_Through
;EasyEDA Pro v3.2.148, 2026-07-18 15:48:02
;Gerber Generator version 0.3
M48
METRIC,LZ,0000.00000
;Hole size 1 = 0.30500 METRIC
T01C0.30500
;Hole size 2 = 0.91440 METRIC
T02C0.91440
;Hole size 3 = 1.01600 METRIC
T03C1.01600
;Hole size 4 = 2.54000 METRIC
T04C2.54000
%
G05
G90
T01
X18.08283Y-36.65403
X24.68683Y-36.65403
X31.499Y-36.60831
X37.84898Y-36.60831
X44.45298Y-36.60831
X50.8Y-36.64433
X56.896Y-36.64433
X62.992Y-36.64433
T02
X11.78497Y-13.99603
X62.93136Y-14.03064
T03
X11.811Y-33.528
X11.811Y-20.574
X7.59397Y-13.99603
X7.58825Y-6.50875
X11.77925Y-6.50875
X18.00225Y-6.50875
X24.86025Y-6.50875
X31.46425Y-6.50875
X37.846Y-6.477
X44.48175Y-6.50875
X50.83175Y-6.50875
X56.92775Y-6.50875
X18.00797Y-13.99603
X24.86597Y-13.99603
X31.46997Y-13.99603
X37.81996Y-13.99603
X44.50635Y-13.99603
X50.90096Y-13.99603
X56.92204Y-13.99603
X18.07983Y-29.00183
X18.034Y-20.574
X24.765Y-28.956
X24.892Y-20.574
X31.54183Y-29.00183
X31.54183Y-20.61983
X37.846Y-29.083
X37.89183Y-20.61983
X44.49583Y-29.00183
X44.577Y-20.574
X50.84583Y-29.00183
X50.84583Y-20.61983
X56.94183Y-29.00183
X56.94183Y-20.61983
X62.91083Y-29.00183
X62.91083Y-20.61983
X18.034Y-42.672
X24.765Y-42.672
X31.496Y-42.672
X37.846Y-42.672
X44.45Y-42.672
X50.8Y-42.672
X56.896Y-42.672
X62.992Y-42.672
X62.92564Y-6.54336
T04
X2.667Y-2.667
X68.199Y-2.794
X2.794Y-41.91
X68.072Y-41.91
M30