G04 Layer: TopSilkscreenLayer*
G04 EasyEDA Pro v3.2.148, 2026-07-18 15:48:02*
G04 Gerber Generator version 0.3*
G04 Scale: 100 percent, Rotated: No, Reflected: No*
G04 Dimensions in millimeters*
G04 Leading zeros omitted, absolute positions, 4 integers and 5 decimals*
G04 Generated by one-click*
G04 Object Configs: Pad,Via,Track,Text,Image,Dimension,BoardOutline,BoardCutout,CopperFilled,SolidRegion,FPCStiffener,Line,PlaneZone,ComponentProperty,ComponentSilkscreen,TearDrop*
G04 Layer Configs: 1,2,3,4,5,6,7,8,9,10,11,13,14,56*
G04 Copper Areas: 0*
%FSLAX45Y45*%
%MOMM*%
%ADD10C,0.2032*%
%ADD11C,0.1524*%
%ADD12C,0.152*%
%ADD13C,0.254*%
%ADD14C,0.2769*%
G75*


G04 Text Start*
G54D10*
G01X1137412Y-2604262D02*
G01X1224026Y-2637282D01*
G01X1137412Y-2604262D02*
G01X1224026Y-2571242D01*
G01X1195324Y-2624836D02*
G01X1195324Y-2583688D01*
G01X1137412Y-2531110D02*
G01X1224026Y-2531110D01*
G01X1224026Y-2531110D02*
G01X1224026Y-2481580D01*
G01X1137412Y-2441448D02*
G01X1224026Y-2441448D01*
G01X1224026Y-2441448D02*
G01X1224026Y-2391918D01*
G01X1747774Y-2599944D02*
G01X1834388Y-2599944D01*
G01X1747774Y-2559812D02*
G01X1834388Y-2559812D01*
G01X1747774Y-2559812D02*
G01X1834388Y-2501900D01*
G01X1747774Y-2501900D02*
G01X1834388Y-2501900D01*
G01X1747774Y-2436876D02*
G01X1751838Y-2449322D01*
G01X1764284Y-2457704D01*
G01X1784858Y-2461768D01*
G01X1797304Y-2461768D01*
G01X1817878Y-2457704D01*
G01X1830324Y-2449322D01*
G01X1834388Y-2436876D01*
G01X1834388Y-2428748D01*
G01X1830324Y-2416302D01*
G01X1817878Y-2408174D01*
G01X1797304Y-2403856D01*
G01X1784858Y-2403856D01*
G01X1764284Y-2408174D01*
G01X1751838Y-2416302D01*
G01X1747774Y-2428748D01*
G01X1747774Y-2436876D01*
G01X2421001Y-2581275D02*
G01X2507615Y-2581275D01*
G01X2421001Y-2541143D02*
G01X2507615Y-2541143D01*
G01X2421001Y-2541143D02*
G01X2507615Y-2483231D01*
G01X2421001Y-2483231D02*
G01X2507615Y-2483231D01*
G01X2437511Y-2443099D02*
G01X2433447Y-2434717D01*
G01X2421001Y-2422525D01*
G01X2507615Y-2422525D01*
G01X3087370Y-2599944D02*
G01X3173984Y-2599944D01*
G01X3087370Y-2559812D02*
G01X3173984Y-2559812D01*
G01X3087370Y-2559812D02*
G01X3173984Y-2501900D01*
G01X3087370Y-2501900D02*
G01X3173984Y-2501900D01*
G01X3107944Y-2457704D02*
G01X3103880Y-2457704D01*
G01X3095752Y-2453386D01*
G01X3091434Y-2449322D01*
G01X3087370Y-2441194D01*
G01X3087370Y-2424684D01*
G01X3091434Y-2416302D01*
G01X3095752Y-2412238D01*
G01X3103880Y-2408174D01*
G01X3112262Y-2408174D01*
G01X3120390Y-2412238D01*
G01X3132836Y-2420366D01*
G01X3173984Y-2461768D01*
G01X3173984Y-2403856D01*
G01X3722370Y-2599944D02*
G01X3808984Y-2599944D01*
G01X3722370Y-2559812D02*
G01X3808984Y-2559812D01*
G01X3722370Y-2559812D02*
G01X3808984Y-2501900D01*
G01X3722370Y-2501900D02*
G01X3808984Y-2501900D01*
G01X3722370Y-2453386D02*
G01X3722370Y-2408174D01*
G01X3755390Y-2432812D01*
G01X3755390Y-2420366D01*
G01X3759454Y-2412238D01*
G01X3763772Y-2408174D01*
G01X3775964Y-2403856D01*
G01X3784346Y-2403856D01*
G01X3796792Y-2408174D01*
G01X3804920Y-2416302D01*
G01X3808984Y-2428748D01*
G01X3808984Y-2441194D01*
G01X3804920Y-2453386D01*
G01X3800856Y-2457704D01*
G01X3792474Y-2461768D01*
G01X4397502Y-2601976D02*
G01X4484116Y-2601976D01*
G01X4397502Y-2561844D02*
G01X4484116Y-2561844D01*
G01X4397502Y-2561844D02*
G01X4484116Y-2503932D01*
G01X4397502Y-2503932D02*
G01X4484116Y-2503932D01*
G01X4397502Y-2422398D02*
G01X4455414Y-2463800D01*
G01X4455414Y-2401824D01*
G01X4397502Y-2422398D02*
G01X4484116Y-2422398D01*
G01X5030470Y-2599944D02*
G01X5117084Y-2599944D01*
G01X5030470Y-2559812D02*
G01X5117084Y-2559812D01*
G01X5030470Y-2559812D02*
G01X5117084Y-2501900D01*
G01X5030470Y-2501900D02*
G01X5117084Y-2501900D01*
G01X5030470Y-2412238D02*
G01X5030470Y-2453386D01*
G01X5067554Y-2457704D01*
G01X5063490Y-2453386D01*
G01X5059426Y-2441194D01*
G01X5059426Y-2428748D01*
G01X5063490Y-2416302D01*
G01X5071872Y-2408174D01*
G01X5084064Y-2403856D01*
G01X5092446Y-2403856D01*
G01X5104892Y-2408174D01*
G01X5113020Y-2416302D01*
G01X5117084Y-2428748D01*
G01X5117084Y-2441194D01*
G01X5113020Y-2453386D01*
G01X5108956Y-2457704D01*
G01X5100574Y-2461768D01*
G01X5637911Y-2597785D02*
G01X5724525Y-2597785D01*
G01X5637911Y-2557653D02*
G01X5724525Y-2557653D01*
G01X5637911Y-2557653D02*
G01X5724525Y-2499741D01*
G01X5637911Y-2499741D02*
G01X5724525Y-2499741D01*
G01X5650357Y-2410079D02*
G01X5641975Y-2414143D01*
G01X5637911Y-2426589D01*
G01X5637911Y-2434717D01*
G01X5641975Y-2447163D01*
G01X5654421Y-2455545D01*
G01X5674995Y-2459609D01*
G01X5695823Y-2459609D01*
G01X5712333Y-2455545D01*
G01X5720461Y-2447163D01*
G01X5724525Y-2434717D01*
G01X5724525Y-2430653D01*
G01X5720461Y-2418207D01*
G01X5712333Y-2410079D01*
G01X5699887Y-2406015D01*
G01X5695823Y-2406015D01*
G01X5683377Y-2410079D01*
G01X5674995Y-2418207D01*
G01X5670931Y-2430653D01*
G01X5670931Y-2434717D01*
G01X5674995Y-2447163D01*
G01X5683377Y-2455545D01*
G01X5695823Y-2459609D01*
G01X6236970Y-2599944D02*
G01X6323584Y-2599944D01*
G01X6236970Y-2559812D02*
G01X6323584Y-2559812D01*
G01X6236970Y-2559812D02*
G01X6323584Y-2501900D01*
G01X6236970Y-2501900D02*
G01X6323584Y-2501900D01*
G01X6236970Y-2403856D02*
G01X6323584Y-2445258D01*
G01X6236970Y-2461768D02*
G01X6236970Y-2403856D01*
G01X378460Y-610870D02*
G01X411480Y-697484D01*
G01X444500Y-610870D02*
G01X411480Y-697484D01*
G01X546608Y-631444D02*
G01X542544Y-623316D01*
G01X534162Y-614934D01*
G01X526034Y-610870D01*
G01X509524Y-610870D01*
G01X501142Y-614934D01*
G01X493014Y-623316D01*
G01X488696Y-631444D01*
G01X484632Y-643890D01*
G01X484632Y-664464D01*
G01X488696Y-676910D01*
G01X493014Y-685292D01*
G01X501142Y-693420D01*
G01X509524Y-697484D01*
G01X526034Y-697484D01*
G01X534162Y-693420D01*
G01X542544Y-685292D01*
G01X546608Y-676910D01*
G01X648716Y-631444D02*
G01X644652Y-623316D01*
G01X636270Y-614934D01*
G01X628142Y-610870D01*
G01X611632Y-610870D01*
G01X603250Y-614934D01*
G01X595122Y-623316D01*
G01X590804Y-631444D01*
G01X586740Y-643890D01*
G01X586740Y-664464D01*
G01X590804Y-676910D01*
G01X595122Y-685292D01*
G01X603250Y-693420D01*
G01X611632Y-697484D01*
G01X628142Y-697484D01*
G01X636270Y-693420D01*
G01X644652Y-685292D01*
G01X648716Y-676910D01*
G01X453136Y-1368044D02*
G01X449072Y-1359916D01*
G01X440690Y-1351534D01*
G01X432562Y-1347470D01*
G01X416052Y-1347470D01*
G01X407670Y-1351534D01*
G01X399542Y-1359916D01*
G01X395224Y-1368044D01*
G01X391160Y-1380490D01*
G01X391160Y-1401064D01*
G01X395224Y-1413510D01*
G01X399542Y-1421892D01*
G01X407670Y-1430020D01*
G01X416052Y-1434084D01*
G01X432562Y-1434084D01*
G01X440690Y-1430020D01*
G01X449072Y-1421892D01*
G01X453136Y-1413510D01*
G01X453136Y-1401064D01*
G01X432562Y-1401064D02*
G01X453136Y-1401064D01*
G01X493268Y-1347470D02*
G01X493268Y-1434084D01*
G01X493268Y-1347470D02*
G01X551180Y-1434084D01*
G01X551180Y-1347470D02*
G01X551180Y-1434084D01*
G01X591312Y-1347470D02*
G01X591312Y-1434084D01*
G01X591312Y-1347470D02*
G01X620268Y-1347470D01*
G01X632714Y-1351534D01*
G01X640842Y-1359916D01*
G01X644906Y-1368044D01*
G01X649224Y-1380490D01*
G01X649224Y-1401064D01*
G01X644906Y-1413510D01*
G01X640842Y-1421892D01*
G01X632714Y-1430020D01*
G01X620268Y-1434084D01*
G01X591312Y-1434084D01*
G01X2664460Y-204470D02*
G01X2664460Y-291084D01*
G01X2722372Y-204470D02*
G01X2722372Y-291084D01*
G01X2664460Y-245872D02*
G01X2722372Y-245872D01*
G01X2783078Y-233426D02*
G01X2774950Y-237490D01*
G01X2766568Y-245872D01*
G01X2762504Y-258064D01*
G01X2762504Y-266446D01*
G01X2766568Y-278892D01*
G01X2774950Y-287020D01*
G01X2783078Y-291084D01*
G01X2795524Y-291084D01*
G01X2803906Y-287020D01*
G01X2812034Y-278892D01*
G01X2816098Y-266446D01*
G01X2816098Y-258064D01*
G01X2812034Y-245872D01*
G01X2803906Y-237490D01*
G01X2795524Y-233426D01*
G01X2783078Y-233426D01*
G01X2868676Y-204470D02*
G01X2868676Y-274574D01*
G01X2872740Y-287020D01*
G01X2881122Y-291084D01*
G01X2889250Y-291084D01*
G01X2856230Y-233426D02*
G01X2885186Y-233426D01*
G01X2929382Y-204470D02*
G01X2929382Y-291084D01*
G01X2929382Y-204470D02*
G01X2966466Y-204470D01*
G01X2978912Y-208534D01*
G01X2982976Y-212852D01*
G01X2987294Y-220980D01*
G01X2987294Y-229362D01*
G01X2982976Y-237490D01*
G01X2978912Y-241554D01*
G01X2966466Y-245872D01*
G01X2929382Y-245872D02*
G01X2966466Y-245872D01*
G01X2978912Y-249936D01*
G01X2982976Y-254000D01*
G01X2987294Y-262382D01*
G01X2987294Y-274574D01*
G01X2982976Y-282956D01*
G01X2978912Y-287020D01*
G01X2966466Y-291084D01*
G01X2929382Y-291084D01*
G01X3048000Y-233426D02*
G01X3039872Y-237490D01*
G01X3031490Y-245872D01*
G01X3027426Y-258064D01*
G01X3027426Y-266446D01*
G01X3031490Y-278892D01*
G01X3039872Y-287020D01*
G01X3048000Y-291084D01*
G01X3060446Y-291084D01*
G01X3068828Y-287020D01*
G01X3076956Y-278892D01*
G01X3081020Y-266446D01*
G01X3081020Y-258064D01*
G01X3076956Y-245872D01*
G01X3068828Y-237490D01*
G01X3060446Y-233426D01*
G01X3048000Y-233426D01*
G01X3121152Y-233426D02*
G01X3166618Y-291084D01*
G01X3166618Y-233426D02*
G01X3121152Y-291084D01*
G01X3299206Y-204470D02*
G01X3299206Y-291084D01*
G01X3339338Y-233426D02*
G01X3339338Y-291084D01*
G01X3339338Y-249936D02*
G01X3351784Y-237490D01*
G01X3359912Y-233426D01*
G01X3372358Y-233426D01*
G01X3380740Y-237490D01*
G01X3384804Y-249936D01*
G01X3384804Y-291084D01*
G01X3424936Y-233426D02*
G01X3424936Y-320040D01*
G01X3424936Y-245872D02*
G01X3433318Y-237490D01*
G01X3441446Y-233426D01*
G01X3453892Y-233426D01*
G01X3462020Y-237490D01*
G01X3470402Y-245872D01*
G01X3474466Y-258064D01*
G01X3474466Y-266446D01*
G01X3470402Y-278892D01*
G01X3462020Y-287020D01*
G01X3453892Y-291084D01*
G01X3441446Y-291084D01*
G01X3433318Y-287020D01*
G01X3424936Y-278892D01*
G01X3514598Y-233426D02*
G01X3514598Y-274574D01*
G01X3518662Y-287020D01*
G01X3527044Y-291084D01*
G01X3539490Y-291084D01*
G01X3547618Y-287020D01*
G01X3560064Y-274574D01*
G01X3560064Y-233426D02*
G01X3560064Y-291084D01*
G01X3612642Y-204470D02*
G01X3612642Y-274574D01*
G01X3616706Y-287020D01*
G01X3625088Y-291084D01*
G01X3633216Y-291084D01*
G01X3600196Y-233426D02*
G01X3629152Y-233426D01*
G01X3765804Y-204470D02*
G01X3765804Y-291084D01*
G01X3765804Y-204470D02*
G01X3802888Y-204470D01*
G01X3815334Y-208534D01*
G01X3819398Y-212852D01*
G01X3823716Y-220980D01*
G01X3823716Y-229362D01*
G01X3819398Y-237490D01*
G01X3815334Y-241554D01*
G01X3802888Y-245872D01*
G01X3765804Y-245872D01*
G01X3794760Y-245872D02*
G01X3823716Y-291084D01*
G01X3884422Y-233426D02*
G01X3876294Y-237490D01*
G01X3867912Y-245872D01*
G01X3863848Y-258064D01*
G01X3863848Y-266446D01*
G01X3867912Y-278892D01*
G01X3876294Y-287020D01*
G01X3884422Y-291084D01*
G01X3896868Y-291084D01*
G01X3905250Y-287020D01*
G01X3913378Y-278892D01*
G01X3917442Y-266446D01*
G01X3917442Y-258064D01*
G01X3913378Y-245872D01*
G01X3905250Y-237490D01*
G01X3896868Y-233426D01*
G01X3884422Y-233426D01*
G01X3957574Y-233426D02*
G01X3957574Y-274574D01*
G01X3961638Y-287020D01*
G01X3970020Y-291084D01*
G01X3982466Y-291084D01*
G01X3990594Y-287020D01*
G01X4003040Y-274574D01*
G01X4003040Y-233426D02*
G01X4003040Y-291084D01*
G01X4055618Y-204470D02*
G01X4055618Y-274574D01*
G01X4059682Y-287020D01*
G01X4068064Y-291084D01*
G01X4076192Y-291084D01*
G01X4043172Y-233426D02*
G01X4072128Y-233426D01*
G01X4116324Y-204470D02*
G01X4120388Y-208534D01*
G01X4124706Y-204470D01*
G01X4120388Y-200406D01*
G01X4116324Y-204470D01*
G01X4120388Y-233426D02*
G01X4120388Y-291084D01*
G01X4164838Y-233426D02*
G01X4164838Y-291084D01*
G01X4164838Y-249936D02*
G01X4177284Y-237490D01*
G01X4185412Y-233426D01*
G01X4197858Y-233426D01*
G01X4206240Y-237490D01*
G01X4210304Y-249936D01*
G01X4210304Y-291084D01*
G01X4299966Y-233426D02*
G01X4299966Y-299466D01*
G01X4295902Y-311912D01*
G01X4291838Y-315976D01*
G01X4283456Y-320040D01*
G01X4271010Y-320040D01*
G01X4262882Y-315976D01*
G01X4299966Y-245872D02*
G01X4291838Y-237490D01*
G01X4283456Y-233426D01*
G01X4271010Y-233426D01*
G01X4262882Y-237490D01*
G01X4254500Y-245872D01*
G01X4250436Y-258064D01*
G01X4250436Y-266446D01*
G01X4254500Y-278892D01*
G01X4262882Y-287020D01*
G01X4271010Y-291084D01*
G01X4283456Y-291084D01*
G01X4291838Y-287020D01*
G01X4299966Y-278892D01*
G01X4432554Y-233426D02*
G01X4457446Y-291084D01*
G01X4482084Y-233426D02*
G01X4457446Y-291084D01*
G01X4522216Y-220980D02*
G01X4530598Y-216916D01*
G01X4542790Y-204470D01*
G01X4542790Y-291084D01*
G01X4586986Y-270510D02*
G01X4582922Y-274574D01*
G01X4586986Y-278892D01*
G01X4591304Y-274574D01*
G01X4586986Y-270510D01*
G01X4656328Y-204470D02*
G01X4643882Y-208534D01*
G01X4635500Y-220980D01*
G01X4631436Y-241554D01*
G01X4631436Y-254000D01*
G01X4635500Y-274574D01*
G01X4643882Y-287020D01*
G01X4656328Y-291084D01*
G01X4664456Y-291084D01*
G01X4676902Y-287020D01*
G01X4685030Y-274574D01*
G01X4689348Y-254000D01*
G01X4689348Y-241554D01*
G01X4685030Y-220980D01*
G01X4676902Y-208534D01*
G01X4664456Y-204470D01*
G01X4656328Y-204470D01*
G01X4733544Y-270510D02*
G01X4729480Y-274574D01*
G01X4733544Y-278892D01*
G01X4737862Y-274574D01*
G01X4733544Y-270510D01*
G01X4802886Y-204470D02*
G01X4790440Y-208534D01*
G01X4782058Y-220980D01*
G01X4777994Y-241554D01*
G01X4777994Y-254000D01*
G01X4782058Y-274574D01*
G01X4790440Y-287020D01*
G01X4802886Y-291084D01*
G01X4811014Y-291084D01*
G01X4823460Y-287020D01*
G01X4831588Y-274574D01*
G01X4835906Y-254000D01*
G01X4835906Y-241554D01*
G01X4831588Y-220980D01*
G01X4823460Y-208534D01*
G01X4811014Y-204470D01*
G01X4802886Y-204470D01*
G54D11*
G01X1935243Y-3399570D02*
G01X2000267Y-3399570D01*
G01X1935243Y-3399570D02*
G01X1935243Y-3377980D01*
G01X1938291Y-3368582D01*
G01X1944387Y-3362486D01*
G01X1950737Y-3359438D01*
G01X1959881Y-3356136D01*
G01X1975375Y-3356136D01*
G01X1984773Y-3359438D01*
G01X1990869Y-3362486D01*
G01X1997219Y-3368582D01*
G01X2000267Y-3377980D01*
G01X2000267Y-3399570D01*
G01X1947689Y-3325910D02*
G01X1944387Y-3319814D01*
G01X1935243Y-3310670D01*
G01X2000267Y-3310670D01*
G01X2598166Y-3421380D02*
G01X2663190Y-3421380D01*
G01X2598166Y-3421380D02*
G01X2598166Y-3399790D01*
G01X2601214Y-3390392D01*
G01X2607310Y-3384296D01*
G01X2613660Y-3381248D01*
G01X2622804Y-3377946D01*
G01X2638298Y-3377946D01*
G01X2647696Y-3381248D01*
G01X2653792Y-3384296D01*
G01X2660142Y-3390392D01*
G01X2663190Y-3399790D01*
G01X2663190Y-3421380D01*
G01X2613660Y-3344672D02*
G01X2610612Y-3344672D01*
G01X2604262Y-3341624D01*
G01X2601214Y-3338576D01*
G01X2598166Y-3332480D01*
G01X2598166Y-3320034D01*
G01X2601214Y-3313684D01*
G01X2604262Y-3310636D01*
G01X2610612Y-3307588D01*
G01X2616708Y-3307588D01*
G01X2622804Y-3310636D01*
G01X2632202Y-3316986D01*
G01X2663190Y-3347720D01*
G01X2663190Y-3304540D01*
G01X3276859Y-3422927D02*
G01X3341883Y-3422927D01*
G01X3276859Y-3422927D02*
G01X3276859Y-3401337D01*
G01X3279907Y-3391939D01*
G01X3286003Y-3385843D01*
G01X3292353Y-3382795D01*
G01X3301497Y-3379493D01*
G01X3316991Y-3379493D01*
G01X3326389Y-3382795D01*
G01X3332485Y-3385843D01*
G01X3338835Y-3391939D01*
G01X3341883Y-3401337D01*
G01X3341883Y-3422927D01*
G01X3276859Y-3343171D02*
G01X3276859Y-3309135D01*
G01X3301497Y-3327677D01*
G01X3301497Y-3318533D01*
G01X3304545Y-3312183D01*
G01X3307847Y-3309135D01*
G01X3316991Y-3306087D01*
G01X3323341Y-3306087D01*
G01X3332485Y-3309135D01*
G01X3338835Y-3315231D01*
G01X3341883Y-3324629D01*
G01X3341883Y-3334027D01*
G01X3338835Y-3343171D01*
G01X3335533Y-3346219D01*
G01X3329437Y-3349267D01*
G01X3911859Y-3425975D02*
G01X3976883Y-3425975D01*
G01X3911859Y-3425975D02*
G01X3911859Y-3404385D01*
G01X3914907Y-3394987D01*
G01X3921003Y-3388891D01*
G01X3927353Y-3385843D01*
G01X3936497Y-3382541D01*
G01X3951991Y-3382541D01*
G01X3961389Y-3385843D01*
G01X3967485Y-3388891D01*
G01X3973835Y-3394987D01*
G01X3976883Y-3404385D01*
G01X3976883Y-3425975D01*
G01X3911859Y-3321581D02*
G01X3955039Y-3352315D01*
G01X3955039Y-3306087D01*
G01X3911859Y-3321581D02*
G01X3976883Y-3321581D01*
G01X4572259Y-3422927D02*
G01X4637283Y-3422927D01*
G01X4572259Y-3422927D02*
G01X4572259Y-3401337D01*
G01X4575307Y-3391939D01*
G01X4581403Y-3385843D01*
G01X4587753Y-3382795D01*
G01X4596897Y-3379493D01*
G01X4612391Y-3379493D01*
G01X4621789Y-3382795D01*
G01X4627885Y-3385843D01*
G01X4634235Y-3391939D01*
G01X4637283Y-3401337D01*
G01X4637283Y-3422927D01*
G01X4572259Y-3312183D02*
G01X4572259Y-3343171D01*
G01X4599945Y-3346219D01*
G01X4596897Y-3343171D01*
G01X4593849Y-3334027D01*
G01X4593849Y-3324629D01*
G01X4596897Y-3315231D01*
G01X4603247Y-3309135D01*
G01X4612391Y-3306087D01*
G01X4618741Y-3306087D01*
G01X4627885Y-3309135D01*
G01X4634235Y-3315231D01*
G01X4637283Y-3324629D01*
G01X4637283Y-3334027D01*
G01X4634235Y-3343171D01*
G01X4630933Y-3346219D01*
G01X4624837Y-3349267D01*
G01X5207259Y-3419879D02*
G01X5272283Y-3419879D01*
G01X5207259Y-3419879D02*
G01X5207259Y-3398289D01*
G01X5210307Y-3388891D01*
G01X5216403Y-3382795D01*
G01X5222753Y-3379747D01*
G01X5231897Y-3376445D01*
G01X5247391Y-3376445D01*
G01X5256789Y-3379747D01*
G01X5262885Y-3382795D01*
G01X5269235Y-3388891D01*
G01X5272283Y-3398289D01*
G01X5272283Y-3419879D01*
G01X5216403Y-3309135D02*
G01X5210307Y-3312183D01*
G01X5207259Y-3321581D01*
G01X5207259Y-3327677D01*
G01X5210307Y-3337075D01*
G01X5219705Y-3343171D01*
G01X5234945Y-3346219D01*
G01X5250439Y-3346219D01*
G01X5262885Y-3343171D01*
G01X5269235Y-3337075D01*
G01X5272283Y-3327677D01*
G01X5272283Y-3324629D01*
G01X5269235Y-3315485D01*
G01X5262885Y-3309135D01*
G01X5253741Y-3306087D01*
G01X5250439Y-3306087D01*
G01X5241295Y-3309135D01*
G01X5234945Y-3315485D01*
G01X5231897Y-3324629D01*
G01X5231897Y-3327677D01*
G01X5234945Y-3337075D01*
G01X5241295Y-3343171D01*
G01X5250439Y-3346219D01*
G01X6070859Y-3422927D02*
G01X6135883Y-3422927D01*
G01X6070859Y-3422927D02*
G01X6070859Y-3401337D01*
G01X6073907Y-3391939D01*
G01X6080003Y-3385843D01*
G01X6086353Y-3382795D01*
G01X6095497Y-3379493D01*
G01X6110991Y-3379493D01*
G01X6120389Y-3382795D01*
G01X6126485Y-3385843D01*
G01X6132835Y-3391939D01*
G01X6135883Y-3401337D01*
G01X6135883Y-3422927D01*
G01X6070859Y-3306087D02*
G01X6135883Y-3337075D01*
G01X6070859Y-3349267D02*
G01X6070859Y-3306087D01*
G01X6426459Y-3422927D02*
G01X6491483Y-3422927D01*
G01X6426459Y-3422927D02*
G01X6426459Y-3401337D01*
G01X6429507Y-3391939D01*
G01X6435603Y-3385843D01*
G01X6441953Y-3382795D01*
G01X6451097Y-3379493D01*
G01X6466591Y-3379493D01*
G01X6475989Y-3382795D01*
G01X6482085Y-3385843D01*
G01X6488435Y-3391939D01*
G01X6491483Y-3401337D01*
G01X6491483Y-3422927D01*
G01X6426459Y-3334027D02*
G01X6429507Y-3343171D01*
G01X6435603Y-3346219D01*
G01X6441953Y-3346219D01*
G01X6448049Y-3343171D01*
G01X6451097Y-3337075D01*
G01X6454145Y-3324629D01*
G01X6457447Y-3315231D01*
G01X6463543Y-3309135D01*
G01X6469639Y-3306087D01*
G01X6479037Y-3306087D01*
G01X6485133Y-3309135D01*
G01X6488435Y-3312183D01*
G01X6491483Y-3321581D01*
G01X6491483Y-3334027D01*
G01X6488435Y-3343171D01*
G01X6485133Y-3346219D01*
G01X6479037Y-3349267D01*
G01X6469639Y-3349267D01*
G01X6463543Y-3346219D01*
G01X6457447Y-3340123D01*
G01X6454145Y-3330725D01*
G01X6451097Y-3318533D01*
G01X6448049Y-3312183D01*
G01X6441953Y-3309135D01*
G01X6435603Y-3309135D01*
G01X6429507Y-3312183D01*
G01X6426459Y-3321581D01*
G01X6426459Y-3334027D01*
G04 Text End*

G04 PolygonModel Start*
G54D12*
G01X1894603Y-3439141D02*
G01X1721364Y-3439141D01*
G54D11*
G01X1894603Y-3424853D02*
G01X1721364Y-3424853D01*
G01X1894603Y-3650400D02*
G01X1877803Y-3650400D01*
G01X1894603Y-3369166D02*
G01X1894603Y-3650400D01*
G01X1721364Y-3369166D02*
G01X1721364Y-3650400D01*
G01X1721364Y-3650400D02*
G01X1738164Y-3650400D01*
G36*
G01X1902223Y-3376784D02*
G01X1872723Y-3376784D01*
G01X1872723Y-3346304D01*
G01X1902223Y-3346304D01*
G01X1902223Y-3376784D01*
G37*
G36*
G01X1713744Y-3376784D02*
G01X1713744Y-3346304D01*
G01X1743244Y-3346304D01*
G01X1743244Y-3376784D01*
G01X1713744Y-3376784D01*
G37*
G54D12*
G01X2555003Y-3439141D02*
G01X2381764Y-3439141D01*
G54D11*
G01X2555003Y-3424853D02*
G01X2381764Y-3424853D01*
G01X2555003Y-3650400D02*
G01X2538203Y-3650400D01*
G01X2555003Y-3369166D02*
G01X2555003Y-3650400D01*
G01X2381764Y-3369166D02*
G01X2381764Y-3650400D01*
G01X2381764Y-3650400D02*
G01X2398564Y-3650400D01*
G36*
G01X2562623Y-3376784D02*
G01X2533123Y-3376784D01*
G01X2533123Y-3346304D01*
G01X2562623Y-3346304D01*
G01X2562623Y-3376784D01*
G37*
G36*
G01X2374144Y-3376784D02*
G01X2374144Y-3346304D01*
G01X2403644Y-3346304D01*
G01X2403644Y-3376784D01*
G01X2374144Y-3376784D01*
G37*
G54D12*
G01X3236219Y-3434558D02*
G01X3062981Y-3434558D01*
G54D11*
G01X3236219Y-3420270D02*
G01X3062981Y-3420270D01*
G01X3236219Y-3645817D02*
G01X3219420Y-3645817D01*
G01X3236219Y-3364583D02*
G01X3236219Y-3645817D01*
G01X3062981Y-3364583D02*
G01X3062981Y-3645817D01*
G01X3062981Y-3645817D02*
G01X3079780Y-3645817D01*
G36*
G01X3243839Y-3372201D02*
G01X3214340Y-3372201D01*
G01X3214340Y-3341721D01*
G01X3243839Y-3341721D01*
G01X3243839Y-3372201D01*
G37*
G36*
G01X3055361Y-3372201D02*
G01X3055361Y-3341721D01*
G01X3084860Y-3341721D01*
G01X3084860Y-3372201D01*
G01X3055361Y-3372201D01*
G37*
G54D12*
G01X3871219Y-3434558D02*
G01X3697981Y-3434558D01*
G54D11*
G01X3871219Y-3420270D02*
G01X3697981Y-3420270D01*
G01X3871219Y-3645817D02*
G01X3854420Y-3645817D01*
G01X3871219Y-3364583D02*
G01X3871219Y-3645817D01*
G01X3697981Y-3364583D02*
G01X3697981Y-3645817D01*
G01X3697981Y-3645817D02*
G01X3714780Y-3645817D01*
G36*
G01X3878839Y-3372201D02*
G01X3849340Y-3372201D01*
G01X3849340Y-3341721D01*
G01X3878839Y-3341721D01*
G01X3878839Y-3372201D01*
G37*
G36*
G01X3690361Y-3372201D02*
G01X3690361Y-3341721D01*
G01X3719860Y-3341721D01*
G01X3719860Y-3372201D01*
G01X3690361Y-3372201D01*
G37*
G54D12*
G01X4531619Y-3434558D02*
G01X4358381Y-3434558D01*
G54D11*
G01X4531619Y-3420270D02*
G01X4358381Y-3420270D01*
G01X4531619Y-3645817D02*
G01X4514820Y-3645817D01*
G01X4531619Y-3364583D02*
G01X4531619Y-3645817D01*
G01X4358381Y-3364583D02*
G01X4358381Y-3645817D01*
G01X4358381Y-3645817D02*
G01X4375180Y-3645817D01*
G36*
G01X4539239Y-3372201D02*
G01X4509740Y-3372201D01*
G01X4509740Y-3341721D01*
G01X4539239Y-3341721D01*
G01X4539239Y-3372201D01*
G37*
G36*
G01X4350761Y-3372201D02*
G01X4350761Y-3341721D01*
G01X4380260Y-3341721D01*
G01X4380260Y-3372201D01*
G01X4350761Y-3372201D01*
G37*
G54D12*
G01X5166619Y-3434558D02*
G01X4993381Y-3434558D01*
G54D11*
G01X5166619Y-3420270D02*
G01X4993381Y-3420270D01*
G01X5166619Y-3645817D02*
G01X5149820Y-3645817D01*
G01X5166619Y-3364583D02*
G01X5166619Y-3645817D01*
G01X4993381Y-3364583D02*
G01X4993381Y-3645817D01*
G01X4993381Y-3645817D02*
G01X5010180Y-3645817D01*
G36*
G01X5174239Y-3372201D02*
G01X5144740Y-3372201D01*
G01X5144740Y-3341721D01*
G01X5174239Y-3341721D01*
G01X5174239Y-3372201D01*
G37*
G36*
G01X4985761Y-3372201D02*
G01X4985761Y-3341721D01*
G01X5015260Y-3341721D01*
G01X5015260Y-3372201D01*
G01X4985761Y-3372201D01*
G37*
G54D12*
G01X5776219Y-3434558D02*
G01X5602981Y-3434558D01*
G54D11*
G01X5776219Y-3420270D02*
G01X5602981Y-3420270D01*
G01X5776219Y-3645817D02*
G01X5759420Y-3645817D01*
G01X5776219Y-3364583D02*
G01X5776219Y-3645817D01*
G01X5602981Y-3364583D02*
G01X5602981Y-3645817D01*
G01X5602981Y-3645817D02*
G01X5619780Y-3645817D01*
G36*
G01X5783839Y-3372201D02*
G01X5754340Y-3372201D01*
G01X5754340Y-3341721D01*
G01X5783839Y-3341721D01*
G01X5783839Y-3372201D01*
G37*
G36*
G01X5595361Y-3372201D02*
G01X5595361Y-3341721D01*
G01X5624860Y-3341721D01*
G01X5624860Y-3372201D01*
G01X5595361Y-3372201D01*
G37*
G54D12*
G01X6385819Y-3434558D02*
G01X6212581Y-3434558D01*
G54D11*
G01X6385819Y-3420270D02*
G01X6212581Y-3420270D01*
G01X6385819Y-3645817D02*
G01X6369020Y-3645817D01*
G01X6385819Y-3364583D02*
G01X6385819Y-3645817D01*
G01X6212581Y-3364583D02*
G01X6212581Y-3645817D01*
G01X6212581Y-3645817D02*
G01X6229380Y-3645817D01*
G36*
G01X6393439Y-3372201D02*
G01X6363940Y-3372201D01*
G01X6363940Y-3341721D01*
G01X6393439Y-3341721D01*
G01X6393439Y-3372201D01*
G37*
G36*
G01X6204961Y-3372201D02*
G01X6204961Y-3341721D01*
G01X6234460Y-3341721D01*
G01X6234460Y-3372201D01*
G01X6204961Y-3372201D01*
G37*

G04 Rect Start*
G54D13*
G01X1041400Y-3492500D02*
G01X1041400Y-520700D01*
G01X1333500Y-520700D01*
G01X1333500Y-3492500D01*
G01X1041400Y-3492500D01*
G01X1657350Y-3048000D02*
G01X1657350Y-520700D01*
G01X1949450Y-520700D01*
G01X1949450Y-3048000D01*
G01X1657350Y-3048000D01*
G01X2330450Y-3041650D02*
G01X2330450Y-514350D01*
G01X2622550Y-514350D01*
G01X2622550Y-3041650D01*
G01X2330450Y-3041650D01*
G01X3003550Y-3028950D02*
G01X3003550Y-501650D01*
G01X3295650Y-501650D01*
G01X3295650Y-3028950D01*
G01X3003550Y-3028950D01*
G01X3638550Y-3028950D02*
G01X3638550Y-501650D01*
G01X3930650Y-501650D01*
G01X3930650Y-3028950D01*
G01X3638550Y-3028950D01*
G01X4298950Y-3028950D02*
G01X4298950Y-501650D01*
G01X4591050Y-501650D01*
G01X4591050Y-3028950D01*
G01X4298950Y-3028950D01*
G01X4933950Y-3028950D02*
G01X4933950Y-501650D01*
G01X5226050Y-501650D01*
G01X5226050Y-3028950D01*
G01X4933950Y-3028950D01*
G01X5543550Y-3028950D02*
G01X5543550Y-501650D01*
G01X5835650Y-501650D01*
G01X5835650Y-3028950D01*
G01X5543550Y-3028950D01*
G01X6140450Y-3028950D02*
G01X6140450Y-501650D01*
G01X6432550Y-501650D01*
G01X6432550Y-3028950D01*
G01X6140450Y-3028950D01*
G04 Rect End*

M02*

