G04 Layer: BottomLayer*
G04 EasyEDA Pro v3.2.148, 2026-07-18 15:48:02*
G04 Gerber Generator version 0.3*
G04 Scale: 100 percent, Rotated: No, Reflected: No*
G04 Dimensions in millimeters*
G04 Leading zeros omitted, absolute positions, 4 integers and 5 decimals*
G04 Generated by one-click*
G04 Object Configs: Pad,Via,Track,Text,Image,Dimension,BoardOutline,BoardCutout,CopperFilled,SolidRegion,FPCStiffener,Line,PlaneZone,ComponentProperty,ComponentSilkscreen,TearDrop*
G04 Layer Configs: 1,2,3,4,5,6,7,8,9,10,11,13,14,56*
G04 Copper Areas: 0*
%FSLAX45Y45*%
%MOMM*%
%ADD10C,0.254*%
%ADD11C,1.778*%
%ADD12C,4.064*%
%ADD13C,0.61*%
%ADD14C,0.762*%
%ADD15C,0.9278*%
G75*


G04 Rect Start*
G54D10*
G01X1358900Y660400D02*
G01X1358900Y685800D01*
G01X1384300Y685800D01*
G01X1384300Y660400D01*
G01X1358900Y660400D01*
G04 Rect End*

G04 Pad Start*
G54D11*
G01X1181100Y-3352800D03*
G01X1181100Y-2057400D03*
G01X759397Y-1399603D03*
G01X758825Y-650875D03*
G01X1177925Y-650875D03*
G01X1800225Y-650875D03*
G01X2486025Y-650875D03*
G01X3146425Y-650875D03*
G01X3784600Y-647700D03*
G01X4448175Y-650875D03*
G01X5083175Y-650875D03*
G01X5692775Y-650875D03*
G01X1178497Y-1399603D03*
G01X1800797Y-1399603D03*
G01X2486597Y-1399603D03*
G01X3146997Y-1399603D03*
G01X3781997Y-1399603D03*
G01X4450635Y-1399603D03*
G01X5090097Y-1399603D03*
G01X5692204Y-1399603D03*
G01X1807983Y-2900183D03*
G01X1803400Y-2057400D03*
G01X2476500Y-2895600D03*
G01X2489200Y-2057400D03*
G01X3154183Y-2900183D03*
G01X3154183Y-2061983D03*
G01X3784600Y-2908300D03*
G01X3789183Y-2061983D03*
G01X4449583Y-2900183D03*
G01X4457700Y-2057400D03*
G01X5084583Y-2900183D03*
G01X5084583Y-2061983D03*
G01X5694183Y-2900183D03*
G01X5694183Y-2061983D03*
G01X6291083Y-2900183D03*
G01X6291083Y-2061983D03*
G01X1803400Y-4267200D03*
G01X2476500Y-4267200D03*
G01X3149600Y-4267200D03*
G01X3784600Y-4267200D03*
G01X4445000Y-4267200D03*
G01X5080000Y-4267200D03*
G01X5689600Y-4267200D03*
G01X6299200Y-4267200D03*
G54D12*
G01X266700Y-266700D03*
G01X6819900Y-279400D03*
G01X279400Y-4191000D03*
G01X6807200Y-4191000D03*
G54D11*
G01X6292564Y-654336D03*
G01X6293136Y-1403064D03*
G04 Pad End*

G04 Via Start*
G54D13*
G01X1808283Y-3665403D03*
G01X2468683Y-3665403D03*
G01X3149900Y-3660831D03*
G01X3784898Y-3660831D03*
G01X4445298Y-3660831D03*
G01X5080000Y-3664433D03*
G01X5689600Y-3664433D03*
G01X6299200Y-3664433D03*
G04 Via End*

G04 Track Start*
G54D14*
G01X2476500Y-2895600D02*
G01X2476500Y-3657586D01*
G01X2468683Y-3665403D01*
G01X3154183Y-2900183D02*
G01X3154183Y-3656547D01*
G01X3149900Y-3660831D01*
G01X3784600Y-2908300D02*
G01X3784600Y-3660532D01*
G01X3784898Y-3660831D01*
G01X4449583Y-2900183D02*
G01X4449583Y-3656546D01*
G01X4445298Y-3660831D01*
G01X5084583Y-2900183D02*
G01X5084583Y-3659849D01*
G01X5080000Y-3664433D01*
G01X5694183Y-2900183D02*
G01X5694183Y-3659849D01*
G01X5689600Y-3664433D01*
G01X6291083Y-2900183D02*
G01X6291083Y-3656316D01*
G01X6299200Y-3664433D01*
G01X1807983Y-2900183D02*
G01X1807983Y-3665103D01*
G01X1808283Y-3665403D01*
G04 Track End*

M02*

