;TYPE=PLATED
;Layer: PTH_Through_Via
;EasyEDA Pro v3.2.148, 2026-07-18 15:48:43
;Gerber Generator version 0.3
M48
METRIC,LZ,0000.00000
;Hole size 1 = 0.30500 METRIC
T01C0.30500
;Hole size 2 = 0.30500 METRIC
T02C0.30500
%
G05
G90
T01
X112.014Y-26.035
X109.49Y-42.545
X109.49Y-35.306
X105.537Y-39.17798
X105.664Y-31.93898
X103.7971Y-44.45
X105.537Y-40.57802
X105.664Y-33.33902
X103.8286Y-37.20763
X98.4184Y-37.20763
X98.3869Y-41.91
X100.70236Y-26.162
X95.71711Y-13.462
X88.60511Y-13.462
X81.62011Y-13.335
X74.63511Y-13.335
X67.01511Y-13.335
X59.64911Y-13.335
X52.41011Y-13.335
X45.29811Y-13.335
X50.70601Y-26.03501
X57.56401Y-26.03503
X64.80301Y-26.03501
X72.25436Y-26.035
X79.78901Y-26.03501
X86.77401Y-26.03501
X94.01301Y-26.16201
X13.08101Y-46.06799
X117.3696Y-54.53394
X117.21381Y-61.45228
X117.21381Y-64.97821
X117.21381Y-68.50414
X117.21331Y-72.03015
X117.21381Y-75.45906
X117.21381Y-78.98508
X117.23935Y-82.551
X117.1157Y-86.03047
X112.57001Y-96.55
X110.45699Y-93.97997
X114.19122Y-82.82664
X117.34081Y-57.97408
X66.7668Y-104.72772
X93.218Y-106.21708
X97.028Y-106.21708
X91.948Y-106.21708
X18.034Y-86.29802
X13.081Y-83.27898
X18.034Y-81.21802
X13.081Y-78.24064
X13.08101Y-73.62699
X18.034Y-76.64602
X18.034Y-71.05802
X13.10883Y-68.09283
X18.034Y-64.20002
X13.08101Y-61.30799
X13.081Y-56.26964
X18.034Y-59.24702
X18.034Y-54.16702
X13.08101Y-51.14799
X17.907Y-49.08702
X32.06902Y-50.419
X30.66898Y-50.419
X32.06902Y-72.39
X30.66898Y-72.39
X23.622Y-77.851
X18.58381Y-14.42274
X69.78796Y-47.49801
X68.38796Y-47.49801
X5.334Y-38.53627
X70.104Y-100.43751
X73.16684Y-104.7277
X70.104Y-102.76249
X71.755Y-106.172
X14.224Y-13.90498
X17.653Y-22.728
X14.17688Y-19.46806
X14.17695Y-17.06807
X68.38796Y-49.276
X69.78796Y-49.276
X35.43301Y-12.31899
X30.099Y-33.20186
X40.894Y-33.20186
X40.894Y-24.20214
X30.099Y-24.20214
X23.90107Y-24.52746
X93.2181Y-102.41704
X97.92388Y-87.93201
X30.64215Y-18.17601
X30.62972Y-17.42941
X30.64215Y-16.65201
X31.40415Y-16.65201
X31.40415Y-17.41401
X31.40415Y-18.17601
X30.63593Y-15.89001
X31.39793Y-15.89001
X26.10471Y-18.161
X26.09229Y-17.41441
X26.10471Y-16.637
X26.99371Y-16.637
X26.99371Y-17.399
X26.99371Y-18.161
X26.0985Y-15.875
X26.9875Y-15.875
X52.451Y-15.621
X52.451Y-16.383
X59.69Y-15.621
X59.69Y-16.383
X67.056Y-15.621
X67.056Y-16.383
X74.676Y-15.621
X74.676Y-16.383
X81.788Y-15.621
X81.788Y-16.383
X88.646Y-15.621
X88.646Y-16.383
X95.758Y-15.621
X95.758Y-16.383
X51.943Y-26.035
X51.943Y-26.797
X58.928Y-26.797
X58.928Y-26.035
X65.913Y-26.797
X65.913Y-26.035
X73.533Y-26.797
X73.533Y-26.035
X80.899Y-26.797
X80.899Y-26.035
X87.884Y-26.797
X87.884Y-26.035
X95.25Y-26.924
X95.25Y-26.162
X101.854Y-26.924
X101.854Y-26.162
X34.036Y-35.306
X35.179Y-35.306
X36.322Y-35.306
X34.036Y-36.195
X35.179Y-36.195
X36.322Y-36.195
X53.213Y-55.88
X26.73435Y-75.8117
X26.67Y-77.089
X54.356Y-57.023
X27.59199Y-74.58569
X51.816Y-54.483
T02
X17.77996Y-62.03798
X18.79596Y-61.02198
X69.08386Y-60.8775
X95.11882Y-79.41947
X69.48086Y-56.08026
X74.17985Y-51.76227
X70.85406Y-57.09626
X84.82403Y-43.12629
X69.21906Y-57.60426
X75.82305Y-51.00027
X31.95951Y-54.78089
X26.62552Y-54.78089
X60.96857Y-43.561
X65.66757Y-56.00699
X59.44457Y-44.45
X62.88361Y-56.52503
X58.04757Y-45.847
X65.66757Y-57.02299
X71.89066Y-46.73601
X65.71157Y-57.99508
X73.28766Y-42.29102
X65.82987Y-60.92478
X75.06565Y-46.73601
X62.87367Y-57.53098
X65.28657Y-41.402
X65.15957Y-51.689
X66.33007Y-49.1216
X66.33007Y-54.20159
M30