G04 Layer: DrillDrawingLayer*
G04 EasyEDA Pro v3.2.148, 2026-07-18 15:48:42*
G04 Gerber Generator version 0.3*
G04 Scale: 100 percent, Rotated: No, Reflected: No*
G04 Dimensions in millimeters*
G04 Leading zeros omitted, absolute positions, 4 integers and 5 decimals*
G04 Generated by one-click*
G04 Object Configs: Pad,Via,Track,Text,Image,Dimension,BoardOutline,BoardCutout,CopperFilled,SolidRegion,FPCStiffener,Line,PlaneZone,ComponentProperty,ComponentSilkscreen,TearDrop*
G04 Layer Configs: 1,15,16,2,3,4,5,6,7,8,9,10,11,13,14,56*
G04 Copper Areas: 0*
%FSLAX45Y45*%
%MOMM*%
%AMIconRect*4,1,4,0.28,-0.28,-0.28,-0.28,-0.28,0.28,0.28,0.28,0.28,-0.28,0*4,0,4,0.233333,-0.233333,0.233333,0.233333,-0.233333,0.233333,-0.233333,-0.233333,0.233333,-0.233333,0*%
%AMIconTriangle*4,1,3,-0.339593,0.240473,0.339593,0.240473,0,-0.37884,-0.339593,0.240473,0*4,0,3,-0.265673,0.19404,0,-0.27342,0.266233,0.19404,-0.265673,0.19404,0*%
%AMIconStar6*4,1,12,0.12068,0.20888,0.298527,0.172713,0.241313,0,0.298527,-0.17206,0.12068,-0.208227,0,-0.344073,-0.120073,-0.208227,-0.298573,-0.17206,-0.240707,0,-0.298573,0.17206,-0.120073,0.20888,0,0.344073,0.12068,0.20888,0*4,0,12,-0.000467,0.273467,-0.090067,0.171733,-0.237533,0.136733,-0.193667,-0.007467,-0.237533,-0.1372,-0.090067,-0.171733,-0.000467,-0.273933,0.090067,-0.171733,0.237533,-0.1372,0.194133,0.007,0.237533,0.1372,0.090067,0.171267,-0.000467,0.273467,0*%
%AMIconStar4*4,1,8,-0.311733,0.311733,0,0.202533,0.311733,0.311733,0.202533,0,0.311733,-0.311733,0,-0.202533,-0.304407,-0.311733,-0.202533,0,-0.311733,0.311733,0*4,0,8,0.233333,-0.233333,0.1512,0,0.233333,0.233333,0,0.1512,-0.233333,0.233333,-0.1512,0,-0.233333,-0.233333,0,-0.1512,0.233333,-0.233333,0*%
%AMIconPlus*4,1,12,0.1736,-0.28,-0.1736,-0.28,-0.1736,-0.1736,-0.28,-0.1736,-0.28,0.1736,-0.1736,0.1736,-0.1736,0.28,0.1736,0.28,0.1736,0.1736,0.28,0.1736,0.28,-0.1736,0.1736,-0.1736,0.1736,-0.28,0*4,0,12,0.126933,-0.233333,0.126933,-0.126933,0.233333,-0.126933,0.233333,0.126933,0.126933,0.126933,0.126933,0.233333,-0.126933,0.233333,-0.126933,0.126933,-0.233333,0.126933,-0.233333,-0.126933,-0.126933,-0.126933,-0.126933,-0.233333,0.126933,-0.233333,0*%
%AMIconX*4,1,16,0.28,-0.28,0.076347,-0.28,0,-0.203653,-0.076347,-0.28,-0.28,-0.28,-0.28,-0.076347,-0.203653,0,-0.28,0.076347,-0.28,0.28,-0.076347,0.28,0,0.203653,0.076347,0.28,0.28,0.28,0.28,0.076347,0.203653,0,0.28,-0.076347,0.28,-0.28,0*4,0,16,0.23352,-0.23296,0.23352,-0.095853,0.137107,0.000093,0.23352,0.095853,0.23352,0.2331,0.095853,0.2331,0,0.137107,-0.095853,0.2331,-0.23352,0.2331,-0.23352,0.095853,-0.137107,0.000093,-0.23352,-0.095853,-0.23352,-0.23296,-0.095853,-0.23296,0,-0.137107,0.095853,-0.23296,0.23352,-0.23296,0*%
%AMIconDiamond*4,1,4,0,-0.364,-0.364,0,0,0.364,0.364,0,0,-0.364,0*4,0,4,0,-0.284807,0.284807,0,0,0.28504,-0.284807,0,0,-0.284807,0*%
%ADD10IconRect*%
%ADD11C,0.616X0.522667*%
%ADD12IconTriangle*%
%ADD13IconStar6*%
%ADD14IconStar4*%
%ADD15IconPlus*%
%ADD16IconX*%
%ADD17IconDiamond*%
%ADD18C,0.2032*%
%ADD19C,0.254*%
G75*


G04 Drill Drawing Start*
G54D10*
G01X1054100Y-546113D03*
G54D11*
G01X6564189Y-10527770D03*
G01X7429191Y-10527773D03*
G54D12*
G01X6564183Y-10947777D03*
G01X7429180Y-10947777D03*
G54D13*
G01X6707693Y-10579782D03*
G01X7285696Y-10579782D03*
G54D14*
G01X546100Y-2368906D03*
G01X546100Y-1618905D03*
G01X3650894Y-520700D03*
G01X4400895Y-520700D03*
G54D15*
G01X363952Y-10795000D03*
G01X1790700Y-2819400D03*
G01X6451600Y-7607300D03*
G01X7685010Y-7607300D03*
G01X12077700Y-10795000D03*
G01X12077700Y-304800D03*
G54D16*
G01X414096Y-671106D03*
G01X414096Y-421094D03*
G01X520700Y-4762500D03*
G01X520700Y-5778500D03*
G01X520700Y-5270500D03*
G01X520700Y-6286500D03*
G01X533400Y-8483600D03*
G01X533400Y-7975600D03*
G01X533400Y-4102100D03*
G01X533400Y-3594100D03*
G01X533400Y-7467600D03*
G01X533400Y-6959600D03*
G01X764108Y-671106D03*
G01X764108Y-421094D03*
G01X1344092Y-658406D03*
G01X1344092Y-421094D03*
G01X1694104Y-671106D03*
G01X1694104Y-421094D03*
G01X5295900Y-533400D03*
G01X5803900Y-533400D03*
G01X6311900Y-533400D03*
G01X6819900Y-533400D03*
G01X8242300Y-520700D03*
G01X8750300Y-520700D03*
G01X9258300Y-520700D03*
G01X9766300Y-520700D03*
G01X11861800Y-4635500D03*
G01X11861800Y-4127500D03*
G01X11861800Y-3619500D03*
G01X11861800Y-3111500D03*
G01X11861800Y-2603500D03*
G01X11861800Y-2095500D03*
G54D17*
G01X533400Y-3853627D03*
G01X1308100Y-8327898D03*
G01X1308100Y-7824064D03*
G01X1308100Y-5626964D03*
G01X1308101Y-7362699D03*
G01X1308101Y-6130799D03*
G01X1308101Y-5114799D03*
G01X1308101Y-4606799D03*
G01X1310883Y-6809283D03*
G01X1417688Y-1946806D03*
G01X1417695Y-1706807D03*
G01X1422400Y-1390498D03*
G01X1765300Y-2272800D03*
G01X1777996Y-6203798D03*
G01X1790700Y-4908702D03*
G01X1803400Y-8629802D03*
G01X1803400Y-8121802D03*
G01X1803400Y-7664602D03*
G01X1803400Y-7105802D03*
G01X1803400Y-6420002D03*
G01X1803400Y-5924702D03*
G01X1803400Y-5416702D03*
G01X1858381Y-1442274D03*
G01X1879596Y-6102198D03*
G01X2362200Y-7785100D03*
G01X2390107Y-2452746D03*
G01X2609229Y-1741441D03*
G01X2609850Y-1587500D03*
G01X2610471Y-1816100D03*
G01X2610471Y-1663700D03*
G01X2662552Y-5478089D03*
G01X2667000Y-7708900D03*
G01X2673435Y-7581170D03*
G01X2698750Y-1587500D03*
G01X2699371Y-1816100D03*
G01X2699371Y-1739900D03*
G01X2699371Y-1663700D03*
G01X2759199Y-7458569D03*
G01X3009900Y-3320186D03*
G01X3009900Y-2420214D03*
G01X3062972Y-1742941D03*
G01X3063593Y-1589001D03*
G01X3064215Y-1817601D03*
G01X3064215Y-1665201D03*
G01X3066898Y-7239000D03*
G01X3066898Y-5041900D03*
G01X3139793Y-1589001D03*
G01X3140415Y-1817601D03*
G01X3140415Y-1741401D03*
G01X3140415Y-1665201D03*
G01X3195951Y-5478089D03*
G01X3206902Y-7239000D03*
G01X3206902Y-5041900D03*
G01X3403600Y-3619500D03*
G01X3403600Y-3530600D03*
G01X3517900Y-3619500D03*
G01X3517900Y-3530600D03*
G01X3543301Y-1231899D03*
G01X3632200Y-3619500D03*
G01X3632200Y-3530600D03*
G01X4089400Y-3320186D03*
G01X4089400Y-2420214D03*
G01X4529811Y-1333500D03*
G01X5070601Y-2603501D03*
G01X5181600Y-5448300D03*
G01X5194300Y-2679700D03*
G01X5194300Y-2603500D03*
G01X5241011Y-1333500D03*
G01X5245100Y-1638300D03*
G01X5245100Y-1562100D03*
G01X5321300Y-5588000D03*
G01X5435600Y-5702300D03*
G01X5756401Y-2603503D03*
G01X5804757Y-4584700D03*
G01X5892800Y-2679700D03*
G01X5892800Y-2603500D03*
G01X5944457Y-4445000D03*
G01X5964911Y-1333500D03*
G01X5969000Y-1638300D03*
G01X5969000Y-1562100D03*
G01X6096857Y-4356100D03*
G01X6287367Y-5753098D03*
G01X6288361Y-5652503D03*
G01X6480301Y-2603501D03*
G01X6515957Y-5168900D03*
G01X6528657Y-4140200D03*
G01X6566757Y-5702299D03*
G01X6566757Y-5600699D03*
G01X6571157Y-5799508D03*
G01X6582987Y-6092478D03*
G01X6591300Y-2679700D03*
G01X6591300Y-2603500D03*
G01X6633007Y-5420159D03*
G01X6633007Y-4912160D03*
G01X6676680Y-10472772D03*
G01X6701511Y-1333500D03*
G01X6705600Y-1638300D03*
G01X6705600Y-1562100D03*
G01X6838796Y-4927600D03*
G01X6838796Y-4749801D03*
G01X6908386Y-6087750D03*
G01X6921906Y-5760426D03*
G01X6948086Y-5608026D03*
G01X6978796Y-4927600D03*
G01X6978796Y-4749801D03*
G01X7010400Y-10276249D03*
G01X7010400Y-10043751D03*
G01X7085406Y-5709626D03*
G01X7175500Y-10617200D03*
G01X7189066Y-4673601D03*
G01X7225436Y-2603500D03*
G01X7316684Y-10472770D03*
G01X7328766Y-4229102D03*
G01X7353300Y-2679700D03*
G01X7353300Y-2603500D03*
G01X7417985Y-5176227D03*
G01X7463511Y-1333500D03*
G01X7467600Y-1638300D03*
G01X7467600Y-1562100D03*
G01X7506565Y-4673601D03*
G01X7582305Y-5100027D03*
G01X7978901Y-2603501D03*
G01X8089900Y-2679700D03*
G01X8089900Y-2603500D03*
G01X8162011Y-1333500D03*
G01X8178800Y-1638300D03*
G01X8178800Y-1562100D03*
G01X8482403Y-4312629D03*
G01X8677401Y-2603501D03*
G01X8788400Y-2679700D03*
G01X8788400Y-2603500D03*
G01X8860511Y-1346200D03*
G01X8864600Y-1638300D03*
G01X8864600Y-1562100D03*
G01X9194800Y-10621708D03*
G01X9321800Y-10621708D03*
G01X9321810Y-10241704D03*
G01X9401301Y-2616201D03*
G01X9511882Y-7941947D03*
G01X9525000Y-2692400D03*
G01X9525000Y-2616200D03*
G01X9571711Y-1346200D03*
G01X9575800Y-1638300D03*
G01X9575800Y-1562100D03*
G01X9702800Y-10621708D03*
G01X9792388Y-8793201D03*
G01X9838690Y-4191000D03*
G01X9841840Y-3720763D03*
G01X10070236Y-2616200D03*
G01X10185400Y-2692400D03*
G01X10185400Y-2616200D03*
G01X10379710Y-4445000D03*
G01X10382860Y-3720763D03*
G01X10553700Y-4057802D03*
G01X10553700Y-3917798D03*
G01X10566400Y-3333902D03*
G01X10566400Y-3193898D03*
G01X10949000Y-4254500D03*
G01X10949000Y-3530600D03*
G01X11045699Y-9397997D03*
G01X11201400Y-2603500D03*
G01X11257001Y-9655000D03*
G01X11419122Y-8282664D03*
G01X11711570Y-8603047D03*
G01X11721331Y-7203015D03*
G01X11721381Y-7898508D03*
G01X11721381Y-7545906D03*
G01X11721381Y-6850414D03*
G01X11721381Y-6497821D03*
G01X11721381Y-6145228D03*
G01X11723935Y-8255100D03*
G01X11734081Y-5797408D03*
G01X11736960Y-5453394D03*
G04 Drill Drawing End*

G04 Text Start*
G54D18*
G01X14695646Y-221706D02*
G01X14695646Y-341848D01*
G01X14695646Y-221706D02*
G01X14741366Y-341848D01*
G01X14787086Y-221706D02*
G01X14741366Y-341848D01*
G01X14787086Y-221706D02*
G01X14787086Y-341848D01*
G01X14903418Y-261838D02*
G01X14903418Y-341848D01*
G01X14903418Y-278856D02*
G01X14891988Y-267426D01*
G01X14880558Y-261838D01*
G01X14863540Y-261838D01*
G01X14852110Y-267426D01*
G01X14840680Y-278856D01*
G01X14834838Y-296128D01*
G01X14834838Y-307558D01*
G01X14840680Y-324576D01*
G01X14852110Y-336006D01*
G01X14863540Y-341848D01*
G01X14880558Y-341848D01*
G01X14891988Y-336006D01*
G01X14903418Y-324576D01*
G01X14951170Y-261838D02*
G01X14951170Y-341848D01*
G01X14951170Y-296128D02*
G01X14957012Y-278856D01*
G01X14968442Y-267426D01*
G01X14979872Y-261838D01*
G01X14996890Y-261838D01*
G01X15044642Y-221706D02*
G01X15044642Y-341848D01*
G01X15101792Y-261838D02*
G01X15044642Y-318988D01*
G01X15067502Y-296128D02*
G01X15107634Y-341848D01*
G01X16232926Y-250408D02*
G01X16227084Y-238978D01*
G01X16215654Y-227548D01*
G01X16204224Y-221706D01*
G01X16181364Y-221706D01*
G01X16169934Y-227548D01*
G01X16158504Y-238978D01*
G01X16152916Y-250408D01*
G01X16147074Y-267426D01*
G01X16147074Y-296128D01*
G01X16152916Y-313146D01*
G01X16158504Y-324576D01*
G01X16169934Y-336006D01*
G01X16181364Y-341848D01*
G01X16204224Y-341848D01*
G01X16215654Y-336006D01*
G01X16227084Y-324576D01*
G01X16232926Y-313146D01*
G01X16309380Y-261838D02*
G01X16297950Y-267426D01*
G01X16286520Y-278856D01*
G01X16280678Y-296128D01*
G01X16280678Y-307558D01*
G01X16286520Y-324576D01*
G01X16297950Y-336006D01*
G01X16309380Y-341848D01*
G01X16326398Y-341848D01*
G01X16337828Y-336006D01*
G01X16349258Y-324576D01*
G01X16355100Y-307558D01*
G01X16355100Y-296128D01*
G01X16349258Y-278856D01*
G01X16337828Y-267426D01*
G01X16326398Y-261838D01*
G01X16309380Y-261838D01*
G01X16402852Y-261838D02*
G01X16402852Y-318988D01*
G01X16408694Y-336006D01*
G01X16420124Y-341848D01*
G01X16437142Y-341848D01*
G01X16448572Y-336006D01*
G01X16465844Y-318988D01*
G01X16465844Y-261838D02*
G01X16465844Y-341848D01*
G01X16513596Y-261838D02*
G01X16513596Y-341848D01*
G01X16513596Y-284698D02*
G01X16530868Y-267426D01*
G01X16542298Y-261838D01*
G01X16559316Y-261838D01*
G01X16570746Y-267426D01*
G01X16576588Y-284698D01*
G01X16576588Y-341848D01*
G01X16641612Y-221706D02*
G01X16641612Y-318988D01*
G01X16647200Y-336006D01*
G01X16658630Y-341848D01*
G01X16670060Y-341848D01*
G01X16624340Y-261838D02*
G01X16664472Y-261838D01*
G01X17641247Y-238978D02*
G01X17629817Y-227548D01*
G01X17612799Y-221706D01*
G01X17589939Y-221706D01*
G01X17572667Y-227548D01*
G01X17561237Y-238978D01*
G01X17561237Y-250408D01*
G01X17567079Y-261838D01*
G01X17572667Y-267426D01*
G01X17584097Y-273268D01*
G01X17618387Y-284698D01*
G01X17629817Y-290286D01*
G01X17635659Y-296128D01*
G01X17641247Y-307558D01*
G01X17641247Y-324576D01*
G01X17629817Y-336006D01*
G01X17612799Y-341848D01*
G01X17589939Y-341848D01*
G01X17572667Y-336006D01*
G01X17561237Y-324576D01*
G01X17688999Y-221706D02*
G01X17694841Y-227548D01*
G01X17700429Y-221706D01*
G01X17694841Y-216118D01*
G01X17688999Y-221706D01*
G01X17694841Y-261838D02*
G01X17694841Y-341848D01*
G01X17811173Y-261838D02*
G01X17748181Y-341848D01*
G01X17748181Y-261838D02*
G01X17811173Y-261838D01*
G01X17748181Y-341848D02*
G01X17811173Y-341848D01*
G01X17858925Y-296128D02*
G01X17927505Y-296128D01*
G01X17927505Y-284698D01*
G01X17921917Y-273268D01*
G01X17916075Y-267426D01*
G01X17904645Y-261838D01*
G01X17887627Y-261838D01*
G01X17876197Y-267426D01*
G01X17864767Y-278856D01*
G01X17858925Y-296128D01*
G01X17858925Y-307558D01*
G01X17864767Y-324576D01*
G01X17876197Y-336006D01*
G01X17887627Y-341848D01*
G01X17904645Y-341848D01*
G01X17916075Y-336006D01*
G01X17927505Y-324576D01*
G01X21619287Y-221706D02*
G01X21619287Y-341848D01*
G01X21619287Y-221706D02*
G01X21670849Y-221706D01*
G01X21687867Y-227548D01*
G01X21693709Y-233136D01*
G01X21699297Y-244566D01*
G01X21699297Y-261838D01*
G01X21693709Y-273268D01*
G01X21687867Y-278856D01*
G01X21670849Y-284698D01*
G01X21619287Y-284698D01*
G01X21747049Y-221706D02*
G01X21747049Y-341848D01*
G01X21863381Y-261838D02*
G01X21863381Y-341848D01*
G01X21863381Y-278856D02*
G01X21851951Y-267426D01*
G01X21840521Y-261838D01*
G01X21823503Y-261838D01*
G01X21812073Y-267426D01*
G01X21800643Y-278856D01*
G01X21794801Y-296128D01*
G01X21794801Y-307558D01*
G01X21800643Y-324576D01*
G01X21812073Y-336006D01*
G01X21823503Y-341848D01*
G01X21840521Y-341848D01*
G01X21851951Y-336006D01*
G01X21863381Y-324576D01*
G01X21928405Y-221706D02*
G01X21928405Y-318988D01*
G01X21933993Y-336006D01*
G01X21945423Y-341848D01*
G01X21956853Y-341848D01*
G01X21911133Y-261838D02*
G01X21951265Y-261838D01*
G01X22004605Y-296128D02*
G01X22073185Y-296128D01*
G01X22073185Y-284698D01*
G01X22067597Y-273268D01*
G01X22061755Y-267426D01*
G01X22050325Y-261838D01*
G01X22033307Y-261838D01*
G01X22021877Y-267426D01*
G01X22010447Y-278856D01*
G01X22004605Y-296128D01*
G01X22004605Y-307558D01*
G01X22010447Y-324576D01*
G01X22021877Y-336006D01*
G01X22033307Y-341848D01*
G01X22050325Y-341848D01*
G01X22061755Y-336006D01*
G01X22073185Y-324576D01*
G01X22189517Y-221706D02*
G01X22189517Y-341848D01*
G01X22189517Y-278856D02*
G01X22178087Y-267426D01*
G01X22166657Y-261838D01*
G01X22149639Y-261838D01*
G01X22138209Y-267426D01*
G01X22126779Y-278856D01*
G01X22120937Y-296128D01*
G01X22120937Y-307558D01*
G01X22126779Y-324576D01*
G01X22138209Y-336006D01*
G01X22149639Y-341848D01*
G01X22166657Y-341848D01*
G01X22178087Y-336006D01*
G01X22189517Y-324576D01*
G01X23160704Y-238978D02*
G01X23149274Y-227548D01*
G01X23132256Y-221706D01*
G01X23109396Y-221706D01*
G01X23092124Y-227548D01*
G01X23080694Y-238978D01*
G01X23080694Y-250408D01*
G01X23086536Y-261838D01*
G01X23092124Y-267426D01*
G01X23103554Y-273268D01*
G01X23137844Y-284698D01*
G01X23149274Y-290286D01*
G01X23155116Y-296128D01*
G01X23160704Y-307558D01*
G01X23160704Y-324576D01*
G01X23149274Y-336006D01*
G01X23132256Y-341848D01*
G01X23109396Y-341848D01*
G01X23092124Y-336006D01*
G01X23080694Y-324576D01*
G01X23208456Y-221706D02*
G01X23208456Y-341848D01*
G01X23208456Y-284698D02*
G01X23225728Y-267426D01*
G01X23237158Y-261838D01*
G01X23254176Y-261838D01*
G01X23265606Y-267426D01*
G01X23271448Y-284698D01*
G01X23271448Y-341848D01*
G01X23387780Y-261838D02*
G01X23387780Y-341848D01*
G01X23387780Y-278856D02*
G01X23376350Y-267426D01*
G01X23364920Y-261838D01*
G01X23347902Y-261838D01*
G01X23336472Y-267426D01*
G01X23325042Y-278856D01*
G01X23319200Y-296128D01*
G01X23319200Y-307558D01*
G01X23325042Y-324576D01*
G01X23336472Y-336006D01*
G01X23347902Y-341848D01*
G01X23364920Y-341848D01*
G01X23376350Y-336006D01*
G01X23387780Y-324576D01*
G01X23435532Y-261838D02*
G01X23435532Y-381726D01*
G01X23435532Y-278856D02*
G01X23446962Y-267426D01*
G01X23458392Y-261838D01*
G01X23475664Y-261838D01*
G01X23487094Y-267426D01*
G01X23498524Y-278856D01*
G01X23504112Y-296128D01*
G01X23504112Y-307558D01*
G01X23498524Y-324576D01*
G01X23487094Y-336006D01*
G01X23475664Y-341848D01*
G01X23458392Y-341848D01*
G01X23446962Y-336006D01*
G01X23435532Y-324576D01*
G01X23551864Y-296128D02*
G01X23620444Y-296128D01*
G01X23620444Y-284698D01*
G01X23614856Y-273268D01*
G01X23609014Y-267426D01*
G01X23597584Y-261838D01*
G01X23580566Y-261838D01*
G01X23569136Y-267426D01*
G01X23557706Y-278856D01*
G01X23551864Y-296128D01*
G01X23551864Y-307558D01*
G01X23557706Y-324576D01*
G01X23569136Y-336006D01*
G01X23580566Y-341848D01*
G01X23597584Y-341848D01*
G01X23609014Y-336006D01*
G01X23620444Y-324576D01*
G01X24511875Y-221706D02*
G01X24557595Y-341848D01*
G01X24603315Y-221706D02*
G01X24557595Y-341848D01*
G01X24651067Y-221706D02*
G01X24656909Y-227548D01*
G01X24662497Y-221706D01*
G01X24656909Y-216118D01*
G01X24651067Y-221706D01*
G01X24656909Y-261838D02*
G01X24656909Y-341848D01*
G01X24778829Y-261838D02*
G01X24778829Y-341848D01*
G01X24778829Y-278856D02*
G01X24767399Y-267426D01*
G01X24755969Y-261838D01*
G01X24738951Y-261838D01*
G01X24727521Y-267426D01*
G01X24716091Y-278856D01*
G01X24710249Y-296128D01*
G01X24710249Y-307558D01*
G01X24716091Y-324576D01*
G01X24727521Y-336006D01*
G01X24738951Y-341848D01*
G01X24755969Y-341848D01*
G01X24767399Y-336006D01*
G01X24778829Y-324576D01*
G01X24929451Y-198846D02*
G01X24826581Y-381726D01*
G01X24977203Y-221706D02*
G01X24977203Y-341848D01*
G01X24977203Y-221706D02*
G01X25028765Y-221706D01*
G01X25045783Y-227548D01*
G01X25051625Y-233136D01*
G01X25057213Y-244566D01*
G01X25057213Y-261838D01*
G01X25051625Y-273268D01*
G01X25045783Y-278856D01*
G01X25028765Y-284698D01*
G01X24977203Y-284698D01*
G01X25173545Y-261838D02*
G01X25173545Y-341848D01*
G01X25173545Y-278856D02*
G01X25162115Y-267426D01*
G01X25150685Y-261838D01*
G01X25133667Y-261838D01*
G01X25122237Y-267426D01*
G01X25110807Y-278856D01*
G01X25104965Y-296128D01*
G01X25104965Y-307558D01*
G01X25110807Y-324576D01*
G01X25122237Y-336006D01*
G01X25133667Y-341848D01*
G01X25150685Y-341848D01*
G01X25162115Y-336006D01*
G01X25173545Y-324576D01*
G01X25289877Y-221706D02*
G01X25289877Y-341848D01*
G01X25289877Y-278856D02*
G01X25278447Y-267426D01*
G01X25267017Y-261838D01*
G01X25249999Y-261838D01*
G01X25238569Y-267426D01*
G01X25227139Y-278856D01*
G01X25221297Y-296128D01*
G01X25221297Y-307558D01*
G01X25227139Y-324576D01*
G01X25238569Y-336006D01*
G01X25249999Y-341848D01*
G01X25267017Y-341848D01*
G01X25278447Y-336006D01*
G01X25289877Y-324576D01*
G01X26181054Y-221706D02*
G01X26181054Y-341848D01*
G01X26181054Y-221706D02*
G01X26232616Y-221706D01*
G01X26249634Y-227548D01*
G01X26255476Y-233136D01*
G01X26261064Y-244566D01*
G01X26261064Y-261838D01*
G01X26255476Y-273268D01*
G01X26249634Y-278856D01*
G01X26232616Y-284698D01*
G01X26181054Y-284698D01*
G01X26377396Y-261838D02*
G01X26377396Y-341848D01*
G01X26377396Y-278856D02*
G01X26365966Y-267426D01*
G01X26354536Y-261838D01*
G01X26337518Y-261838D01*
G01X26326088Y-267426D01*
G01X26314658Y-278856D01*
G01X26308816Y-296128D01*
G01X26308816Y-307558D01*
G01X26314658Y-324576D01*
G01X26326088Y-336006D01*
G01X26337518Y-341848D01*
G01X26354536Y-341848D01*
G01X26365966Y-336006D01*
G01X26377396Y-324576D01*
G01X26493728Y-221706D02*
G01X26493728Y-341848D01*
G01X26493728Y-278856D02*
G01X26482298Y-267426D01*
G01X26470868Y-261838D01*
G01X26453850Y-261838D01*
G01X26442420Y-267426D01*
G01X26430990Y-278856D01*
G01X26425148Y-296128D01*
G01X26425148Y-307558D01*
G01X26430990Y-324576D01*
G01X26442420Y-336006D01*
G01X26453850Y-341848D01*
G01X26470868Y-341848D01*
G01X26482298Y-336006D01*
G01X26493728Y-324576D01*
G01X26749506Y-238978D02*
G01X26738076Y-227548D01*
G01X26721058Y-221706D01*
G01X26698198Y-221706D01*
G01X26680926Y-227548D01*
G01X26669496Y-238978D01*
G01X26669496Y-250408D01*
G01X26675338Y-261838D01*
G01X26680926Y-267426D01*
G01X26692356Y-273268D01*
G01X26726646Y-284698D01*
G01X26738076Y-290286D01*
G01X26743918Y-296128D01*
G01X26749506Y-307558D01*
G01X26749506Y-324576D01*
G01X26738076Y-336006D01*
G01X26721058Y-341848D01*
G01X26698198Y-341848D01*
G01X26680926Y-336006D01*
G01X26669496Y-324576D01*
G01X26797258Y-221706D02*
G01X26797258Y-341848D01*
G01X26797258Y-284698D02*
G01X26814530Y-267426D01*
G01X26825960Y-261838D01*
G01X26842978Y-261838D01*
G01X26854408Y-267426D01*
G01X26860250Y-284698D01*
G01X26860250Y-341848D01*
G01X26976582Y-261838D02*
G01X26976582Y-341848D01*
G01X26976582Y-278856D02*
G01X26965152Y-267426D01*
G01X26953722Y-261838D01*
G01X26936704Y-261838D01*
G01X26925274Y-267426D01*
G01X26913844Y-278856D01*
G01X26908002Y-296128D01*
G01X26908002Y-307558D01*
G01X26913844Y-324576D01*
G01X26925274Y-336006D01*
G01X26936704Y-341848D01*
G01X26953722Y-341848D01*
G01X26965152Y-336006D01*
G01X26976582Y-324576D01*
G01X27024334Y-261838D02*
G01X27024334Y-381726D01*
G01X27024334Y-278856D02*
G01X27035764Y-267426D01*
G01X27047194Y-261838D01*
G01X27064466Y-261838D01*
G01X27075896Y-267426D01*
G01X27087326Y-278856D01*
G01X27092914Y-296128D01*
G01X27092914Y-307558D01*
G01X27087326Y-324576D01*
G01X27075896Y-336006D01*
G01X27064466Y-341848D01*
G01X27047194Y-341848D01*
G01X27035764Y-336006D01*
G01X27024334Y-324576D01*
G01X27140666Y-296128D02*
G01X27209246Y-296128D01*
G01X27209246Y-284698D01*
G01X27203658Y-273268D01*
G01X27197816Y-267426D01*
G01X27186386Y-261838D01*
G01X27169368Y-261838D01*
G01X27157938Y-267426D01*
G01X27146508Y-278856D01*
G01X27140666Y-296128D01*
G01X27140666Y-307558D01*
G01X27146508Y-324576D01*
G01X27157938Y-336006D01*
G01X27169368Y-341848D01*
G01X27186386Y-341848D01*
G01X27197816Y-336006D01*
G01X27209246Y-324576D01*
G01X28100423Y-221706D02*
G01X28100423Y-341848D01*
G01X28100423Y-341848D02*
G01X28169003Y-341848D01*
G01X28285335Y-261838D02*
G01X28285335Y-341848D01*
G01X28285335Y-278856D02*
G01X28273905Y-267426D01*
G01X28262475Y-261838D01*
G01X28245457Y-261838D01*
G01X28234027Y-267426D01*
G01X28222597Y-278856D01*
G01X28216755Y-296128D01*
G01X28216755Y-307558D01*
G01X28222597Y-324576D01*
G01X28234027Y-336006D01*
G01X28245457Y-341848D01*
G01X28262475Y-341848D01*
G01X28273905Y-336006D01*
G01X28285335Y-324576D01*
G01X28338929Y-261838D02*
G01X28373219Y-341848D01*
G01X28407509Y-261838D02*
G01X28373219Y-341848D01*
G01X28361789Y-364708D01*
G01X28350359Y-376138D01*
G01X28338929Y-381726D01*
G01X28333087Y-381726D01*
G01X28455261Y-296128D02*
G01X28523841Y-296128D01*
G01X28523841Y-284698D01*
G01X28518253Y-273268D01*
G01X28512411Y-267426D01*
G01X28500981Y-261838D01*
G01X28483963Y-261838D01*
G01X28472533Y-267426D01*
G01X28461103Y-278856D01*
G01X28455261Y-296128D01*
G01X28455261Y-307558D01*
G01X28461103Y-324576D01*
G01X28472533Y-336006D01*
G01X28483963Y-341848D01*
G01X28500981Y-341848D01*
G01X28512411Y-336006D01*
G01X28523841Y-324576D01*
G01X28571593Y-261838D02*
G01X28571593Y-341848D01*
G01X28571593Y-296128D02*
G01X28577435Y-278856D01*
G01X28588865Y-267426D01*
G01X28600295Y-261838D01*
G01X28617313Y-261838D01*
G01X28793081Y-221706D02*
G01X28793081Y-341848D01*
G01X28793081Y-221706D02*
G01X28844643Y-221706D01*
G01X28861661Y-227548D01*
G01X28867503Y-233136D01*
G01X28873091Y-244566D01*
G01X28873091Y-261838D01*
G01X28867503Y-273268D01*
G01X28861661Y-278856D01*
G01X28844643Y-284698D01*
G01X28793081Y-284698D01*
G01X28989423Y-261838D02*
G01X28989423Y-341848D01*
G01X28989423Y-278856D02*
G01X28977993Y-267426D01*
G01X28966563Y-261838D01*
G01X28949545Y-261838D01*
G01X28938115Y-267426D01*
G01X28926685Y-278856D01*
G01X28920843Y-296128D01*
G01X28920843Y-307558D01*
G01X28926685Y-324576D01*
G01X28938115Y-336006D01*
G01X28949545Y-341848D01*
G01X28966563Y-341848D01*
G01X28977993Y-336006D01*
G01X28989423Y-324576D01*
G01X29037175Y-221706D02*
G01X29043017Y-227548D01*
G01X29048605Y-221706D01*
G01X29043017Y-216118D01*
G01X29037175Y-221706D01*
G01X29043017Y-261838D02*
G01X29043017Y-341848D01*
G01X29096357Y-261838D02*
G01X29096357Y-341848D01*
G01X29096357Y-296128D02*
G01X29102199Y-278856D01*
G01X29113629Y-267426D01*
G01X29125059Y-261838D01*
G01X29142077Y-261838D01*
G01X16147074Y-825137D02*
G01X16158504Y-819549D01*
G01X16175776Y-802277D01*
G01X16175776Y-922419D01*
G01X17635659Y-842409D02*
G01X17629817Y-859427D01*
G01X17618387Y-870857D01*
G01X17601369Y-876699D01*
G01X17595527Y-876699D01*
G01X17578509Y-870857D01*
G01X17567079Y-859427D01*
G01X17561237Y-842409D01*
G01X17561237Y-836567D01*
G01X17567079Y-819549D01*
G01X17578509Y-808119D01*
G01X17595527Y-802277D01*
G01X17601369Y-802277D01*
G01X17618387Y-808119D01*
G01X17629817Y-819549D01*
G01X17635659Y-842409D01*
G01X17635659Y-870857D01*
G01X17629817Y-899559D01*
G01X17618387Y-916577D01*
G01X17601369Y-922419D01*
G01X17589939Y-922419D01*
G01X17572667Y-916577D01*
G01X17567079Y-905147D01*
G01X17712113Y-802277D02*
G01X17694841Y-808119D01*
G01X17689253Y-819549D01*
G01X17689253Y-830979D01*
G01X17694841Y-842409D01*
G01X17706271Y-847997D01*
G01X17729131Y-853839D01*
G01X17746403Y-859427D01*
G01X17757833Y-870857D01*
G01X17763421Y-882287D01*
G01X17763421Y-899559D01*
G01X17757833Y-910989D01*
G01X17751991Y-916577D01*
G01X17734973Y-922419D01*
G01X17712113Y-922419D01*
G01X17694841Y-916577D01*
G01X17689253Y-910989D01*
G01X17683411Y-899559D01*
G01X17683411Y-882287D01*
G01X17689253Y-870857D01*
G01X17700683Y-859427D01*
G01X17717701Y-853839D01*
G01X17740561Y-847997D01*
G01X17751991Y-842409D01*
G01X17757833Y-830979D01*
G01X17757833Y-819549D01*
G01X17751991Y-808119D01*
G01X17734973Y-802277D01*
G01X17712113Y-802277D01*
G01X17817015Y-893717D02*
G01X17811173Y-899559D01*
G01X17817015Y-905147D01*
G01X17822603Y-899559D01*
G01X17817015Y-893717D01*
G01X17927505Y-802277D02*
G01X17870355Y-882287D01*
G01X17956207Y-882287D01*
G01X17927505Y-802277D02*
G01X17927505Y-922419D01*
G01X18003959Y-842409D02*
G01X18003959Y-922419D01*
G01X18003959Y-865269D02*
G01X18021231Y-847997D01*
G01X18032661Y-842409D01*
G01X18049679Y-842409D01*
G01X18061109Y-847997D01*
G01X18066951Y-865269D01*
G01X18066951Y-922419D01*
G01X18066951Y-865269D02*
G01X18083969Y-847997D01*
G01X18095399Y-842409D01*
G01X18112671Y-842409D01*
G01X18124101Y-847997D01*
G01X18129689Y-865269D01*
G01X18129689Y-922419D01*
G01X18177441Y-802277D02*
G01X18183283Y-808119D01*
G01X18188871Y-802277D01*
G01X18183283Y-796689D01*
G01X18177441Y-802277D01*
G01X18183283Y-842409D02*
G01X18183283Y-922419D01*
G01X18236623Y-802277D02*
G01X18236623Y-922419D01*
G01X18324507Y-779417D02*
G01X18313077Y-790847D01*
G01X18301647Y-808119D01*
G01X18290217Y-830979D01*
G01X18284375Y-859427D01*
G01X18284375Y-882287D01*
G01X18290217Y-910989D01*
G01X18301647Y-933849D01*
G01X18313077Y-950867D01*
G01X18324507Y-962297D01*
G01X18378101Y-830979D02*
G01X18378101Y-825137D01*
G01X18383689Y-813707D01*
G01X18389531Y-808119D01*
G01X18400961Y-802277D01*
G01X18423821Y-802277D01*
G01X18435251Y-808119D01*
G01X18440839Y-813707D01*
G01X18446681Y-825137D01*
G01X18446681Y-836567D01*
G01X18440839Y-847997D01*
G01X18429409Y-865269D01*
G01X18372259Y-922419D01*
G01X18452269Y-922419D01*
G01X18505863Y-893717D02*
G01X18500021Y-899559D01*
G01X18505863Y-905147D01*
G01X18511451Y-899559D01*
G01X18505863Y-893717D01*
G01X18627783Y-802277D02*
G01X18570633Y-802277D01*
G01X18565045Y-853839D01*
G01X18570633Y-847997D01*
G01X18587905Y-842409D01*
G01X18604923Y-842409D01*
G01X18622195Y-847997D01*
G01X18633625Y-859427D01*
G01X18639213Y-876699D01*
G01X18639213Y-888129D01*
G01X18633625Y-905147D01*
G01X18622195Y-916577D01*
G01X18604923Y-922419D01*
G01X18587905Y-922419D01*
G01X18570633Y-916577D01*
G01X18565045Y-910989D01*
G01X18559203Y-899559D01*
G01X18721255Y-802277D02*
G01X18704237Y-808119D01*
G01X18692807Y-825137D01*
G01X18686965Y-853839D01*
G01X18686965Y-870857D01*
G01X18692807Y-899559D01*
G01X18704237Y-916577D01*
G01X18721255Y-922419D01*
G01X18732685Y-922419D01*
G01X18749957Y-916577D01*
G01X18761387Y-899559D01*
G01X18766975Y-870857D01*
G01X18766975Y-853839D01*
G01X18761387Y-825137D01*
G01X18749957Y-808119D01*
G01X18732685Y-802277D01*
G01X18721255Y-802277D01*
G01X18849017Y-802277D02*
G01X18831999Y-808119D01*
G01X18820569Y-825137D01*
G01X18814727Y-853839D01*
G01X18814727Y-870857D01*
G01X18820569Y-899559D01*
G01X18831999Y-916577D01*
G01X18849017Y-922419D01*
G01X18860447Y-922419D01*
G01X18877719Y-916577D01*
G01X18889149Y-899559D01*
G01X18894737Y-870857D01*
G01X18894737Y-853839D01*
G01X18889149Y-825137D01*
G01X18877719Y-808119D01*
G01X18860447Y-802277D01*
G01X18849017Y-802277D01*
G01X18942489Y-842409D02*
G01X18942489Y-922419D01*
G01X18942489Y-865269D02*
G01X18959761Y-847997D01*
G01X18971191Y-842409D01*
G01X18988209Y-842409D01*
G01X18999639Y-847997D01*
G01X19005481Y-865269D01*
G01X19005481Y-922419D01*
G01X19005481Y-865269D02*
G01X19022499Y-847997D01*
G01X19033929Y-842409D01*
G01X19051201Y-842409D01*
G01X19062631Y-847997D01*
G01X19068219Y-865269D01*
G01X19068219Y-922419D01*
G01X19115971Y-842409D02*
G01X19115971Y-922419D01*
G01X19115971Y-865269D02*
G01X19133243Y-847997D01*
G01X19144673Y-842409D01*
G01X19161691Y-842409D01*
G01X19173121Y-847997D01*
G01X19178963Y-865269D01*
G01X19178963Y-922419D01*
G01X19178963Y-865269D02*
G01X19195981Y-847997D01*
G01X19207411Y-842409D01*
G01X19224683Y-842409D01*
G01X19236113Y-847997D01*
G01X19241701Y-865269D01*
G01X19241701Y-922419D01*
G01X19289453Y-779417D02*
G01X19300883Y-790847D01*
G01X19312313Y-808119D01*
G01X19323743Y-830979D01*
G01X19329585Y-859427D01*
G01X19329585Y-882287D01*
G01X19323743Y-910989D01*
G01X19312313Y-933849D01*
G01X19300883Y-950867D01*
G01X19289453Y-962297D01*
G01X21619287Y-802277D02*
G01X21619287Y-922419D01*
G01X21619287Y-802277D02*
G01X21699297Y-922419D01*
G01X21699297Y-802277D02*
G01X21699297Y-922419D01*
G01X21747049Y-802277D02*
G01X21747049Y-922419D01*
G01X21747049Y-802277D02*
G01X21798611Y-802277D01*
G01X21815629Y-808119D01*
G01X21821471Y-813707D01*
G01X21827059Y-825137D01*
G01X21827059Y-842409D01*
G01X21821471Y-853839D01*
G01X21815629Y-859427D01*
G01X21798611Y-865269D01*
G01X21747049Y-865269D01*
G01X21914943Y-802277D02*
G01X21914943Y-922419D01*
G01X21874811Y-802277D02*
G01X21954821Y-802277D01*
G01X22002573Y-802277D02*
G01X22002573Y-922419D01*
G01X22082583Y-802277D02*
G01X22082583Y-922419D01*
G01X22002573Y-859427D02*
G01X22082583Y-859427D01*
G01X23080694Y-802277D02*
G01X23080694Y-922419D01*
G01X23080694Y-802277D02*
G01X23132256Y-802277D01*
G01X23149274Y-808119D01*
G01X23155116Y-813707D01*
G01X23160704Y-825137D01*
G01X23160704Y-836567D01*
G01X23155116Y-847997D01*
G01X23149274Y-853839D01*
G01X23132256Y-859427D01*
G01X23080694Y-859427D01*
G01X23120826Y-859427D02*
G01X23160704Y-922419D01*
G01X23237158Y-842409D02*
G01X23225728Y-847997D01*
G01X23214298Y-859427D01*
G01X23208456Y-876699D01*
G01X23208456Y-888129D01*
G01X23214298Y-905147D01*
G01X23225728Y-916577D01*
G01X23237158Y-922419D01*
G01X23254176Y-922419D01*
G01X23265606Y-916577D01*
G01X23277036Y-905147D01*
G01X23282878Y-888129D01*
G01X23282878Y-876699D01*
G01X23277036Y-859427D01*
G01X23265606Y-847997D01*
G01X23254176Y-842409D01*
G01X23237158Y-842409D01*
G01X23330630Y-842409D02*
G01X23330630Y-899559D01*
G01X23336472Y-916577D01*
G01X23347902Y-922419D01*
G01X23364920Y-922419D01*
G01X23376350Y-916577D01*
G01X23393622Y-899559D01*
G01X23393622Y-842409D02*
G01X23393622Y-922419D01*
G01X23441374Y-842409D02*
G01X23441374Y-922419D01*
G01X23441374Y-865269D02*
G01X23458646Y-847997D01*
G01X23470076Y-842409D01*
G01X23487094Y-842409D01*
G01X23498524Y-847997D01*
G01X23504366Y-865269D01*
G01X23504366Y-922419D01*
G01X23620698Y-802277D02*
G01X23620698Y-922419D01*
G01X23620698Y-859427D02*
G01X23609268Y-847997D01*
G01X23597838Y-842409D01*
G01X23580820Y-842409D01*
G01X23569390Y-847997D01*
G01X23557960Y-859427D01*
G01X23552118Y-876699D01*
G01X23552118Y-888129D01*
G01X23557960Y-905147D01*
G01X23569390Y-916577D01*
G01X23580820Y-922419D01*
G01X23597838Y-922419D01*
G01X23609268Y-916577D01*
G01X23620698Y-905147D01*
G01X24511875Y-802277D02*
G01X24557595Y-922419D01*
G01X24603315Y-802277D02*
G01X24557595Y-922419D01*
G01X24651067Y-802277D02*
G01X24656909Y-808119D01*
G01X24662497Y-802277D01*
G01X24656909Y-796689D01*
G01X24651067Y-802277D01*
G01X24656909Y-842409D02*
G01X24656909Y-922419D01*
G01X24778829Y-842409D02*
G01X24778829Y-922419D01*
G01X24778829Y-859427D02*
G01X24767399Y-847997D01*
G01X24755969Y-842409D01*
G01X24738951Y-842409D01*
G01X24727521Y-847997D01*
G01X24716091Y-859427D01*
G01X24710249Y-876699D01*
G01X24710249Y-888129D01*
G01X24716091Y-905147D01*
G01X24727521Y-916577D01*
G01X24738951Y-922419D01*
G01X24755969Y-922419D01*
G01X24767399Y-916577D01*
G01X24778829Y-905147D01*
G01X28140555Y-802277D02*
G01X28140555Y-922419D01*
G01X28100423Y-802277D02*
G01X28180433Y-802277D01*
G01X28256887Y-842409D02*
G01X28245457Y-847997D01*
G01X28234027Y-859427D01*
G01X28228185Y-876699D01*
G01X28228185Y-888129D01*
G01X28234027Y-905147D01*
G01X28245457Y-916577D01*
G01X28256887Y-922419D01*
G01X28273905Y-922419D01*
G01X28285335Y-916577D01*
G01X28296765Y-905147D01*
G01X28302607Y-888129D01*
G01X28302607Y-876699D01*
G01X28296765Y-859427D01*
G01X28285335Y-847997D01*
G01X28273905Y-842409D01*
G01X28256887Y-842409D01*
G01X28350359Y-842409D02*
G01X28350359Y-962297D01*
G01X28350359Y-859427D02*
G01X28361789Y-847997D01*
G01X28373219Y-842409D01*
G01X28390491Y-842409D01*
G01X28401921Y-847997D01*
G01X28413351Y-859427D01*
G01X28418939Y-876699D01*
G01X28418939Y-888129D01*
G01X28413351Y-905147D01*
G01X28401921Y-916577D01*
G01X28390491Y-922419D01*
G01X28373219Y-922419D01*
G01X28361789Y-916577D01*
G01X28350359Y-905147D01*
G01X28594707Y-802277D02*
G01X28594707Y-922419D01*
G01X28594707Y-922419D02*
G01X28663287Y-922419D01*
G01X28779619Y-842409D02*
G01X28779619Y-922419D01*
G01X28779619Y-859427D02*
G01X28768189Y-847997D01*
G01X28756759Y-842409D01*
G01X28739741Y-842409D01*
G01X28728311Y-847997D01*
G01X28716881Y-859427D01*
G01X28711039Y-876699D01*
G01X28711039Y-888129D01*
G01X28716881Y-905147D01*
G01X28728311Y-916577D01*
G01X28739741Y-922419D01*
G01X28756759Y-922419D01*
G01X28768189Y-916577D01*
G01X28779619Y-905147D01*
G01X28833213Y-842409D02*
G01X28867503Y-922419D01*
G01X28901793Y-842409D02*
G01X28867503Y-922419D01*
G01X28856073Y-945279D01*
G01X28844643Y-956709D01*
G01X28833213Y-962297D01*
G01X28827371Y-962297D01*
G01X28949545Y-876699D02*
G01X29018125Y-876699D01*
G01X29018125Y-865269D01*
G01X29012537Y-853839D01*
G01X29006695Y-847997D01*
G01X28995265Y-842409D01*
G01X28978247Y-842409D01*
G01X28966817Y-847997D01*
G01X28955387Y-859427D01*
G01X28949545Y-876699D01*
G01X28949545Y-888129D01*
G01X28955387Y-905147D01*
G01X28966817Y-916577D01*
G01X28978247Y-922419D01*
G01X28995265Y-922419D01*
G01X29006695Y-916577D01*
G01X29018125Y-905147D01*
G01X29065877Y-842409D02*
G01X29065877Y-922419D01*
G01X29065877Y-876699D02*
G01X29071719Y-859427D01*
G01X29083149Y-847997D01*
G01X29094579Y-842409D01*
G01X29111597Y-842409D01*
G01X29159349Y-870857D02*
G01X29262219Y-870857D01*
G01X29309971Y-802277D02*
G01X29309971Y-922419D01*
G01X29309971Y-802277D02*
G01X29361533Y-802277D01*
G01X29378551Y-808119D01*
G01X29384393Y-813707D01*
G01X29389981Y-825137D01*
G01X29389981Y-836567D01*
G01X29384393Y-847997D01*
G01X29378551Y-853839D01*
G01X29361533Y-859427D01*
G01X29309971Y-859427D02*
G01X29361533Y-859427D01*
G01X29378551Y-865269D01*
G01X29384393Y-870857D01*
G01X29389981Y-882287D01*
G01X29389981Y-899559D01*
G01X29384393Y-910989D01*
G01X29378551Y-916577D01*
G01X29361533Y-922419D01*
G01X29309971Y-922419D01*
G01X29466435Y-842409D02*
G01X29455005Y-847997D01*
G01X29443575Y-859427D01*
G01X29437733Y-876699D01*
G01X29437733Y-888129D01*
G01X29443575Y-905147D01*
G01X29455005Y-916577D01*
G01X29466435Y-922419D01*
G01X29483453Y-922419D01*
G01X29494883Y-916577D01*
G01X29506313Y-905147D01*
G01X29512155Y-888129D01*
G01X29512155Y-876699D01*
G01X29506313Y-859427D01*
G01X29494883Y-847997D01*
G01X29483453Y-842409D01*
G01X29466435Y-842409D01*
G01X29577179Y-802277D02*
G01X29577179Y-899559D01*
G01X29582767Y-916577D01*
G01X29594197Y-922419D01*
G01X29605627Y-922419D01*
G01X29559907Y-842409D02*
G01X29600039Y-842409D01*
G01X29670651Y-802277D02*
G01X29670651Y-899559D01*
G01X29676239Y-916577D01*
G01X29687669Y-922419D01*
G01X29699099Y-922419D01*
G01X29653379Y-842409D02*
G01X29693511Y-842409D01*
G01X29775553Y-842409D02*
G01X29764123Y-847997D01*
G01X29752693Y-859427D01*
G01X29746851Y-876699D01*
G01X29746851Y-888129D01*
G01X29752693Y-905147D01*
G01X29764123Y-916577D01*
G01X29775553Y-922419D01*
G01X29792571Y-922419D01*
G01X29804001Y-916577D01*
G01X29815431Y-905147D01*
G01X29821273Y-888129D01*
G01X29821273Y-876699D01*
G01X29815431Y-859427D01*
G01X29804001Y-847997D01*
G01X29792571Y-842409D01*
G01X29775553Y-842409D01*
G01X29869025Y-842409D02*
G01X29869025Y-922419D01*
G01X29869025Y-865269D02*
G01X29886297Y-847997D01*
G01X29897727Y-842409D01*
G01X29914745Y-842409D01*
G01X29926175Y-847997D01*
G01X29932017Y-865269D01*
G01X29932017Y-922419D01*
G01X29932017Y-865269D02*
G01X29949035Y-847997D01*
G01X29960465Y-842409D01*
G01X29977737Y-842409D01*
G01X29989167Y-847997D01*
G01X29994755Y-865269D01*
G01X29994755Y-922419D01*
G01X30170523Y-802277D02*
G01X30170523Y-922419D01*
G01X30170523Y-922419D02*
G01X30239103Y-922419D01*
G01X30355435Y-842409D02*
G01X30355435Y-922419D01*
G01X30355435Y-859427D02*
G01X30344005Y-847997D01*
G01X30332575Y-842409D01*
G01X30315557Y-842409D01*
G01X30304127Y-847997D01*
G01X30292697Y-859427D01*
G01X30286855Y-876699D01*
G01X30286855Y-888129D01*
G01X30292697Y-905147D01*
G01X30304127Y-916577D01*
G01X30315557Y-922419D01*
G01X30332575Y-922419D01*
G01X30344005Y-916577D01*
G01X30355435Y-905147D01*
G01X30409029Y-842409D02*
G01X30443319Y-922419D01*
G01X30477609Y-842409D02*
G01X30443319Y-922419D01*
G01X30431889Y-945279D01*
G01X30420459Y-956709D01*
G01X30409029Y-962297D01*
G01X30403187Y-962297D01*
G01X30525361Y-876699D02*
G01X30593941Y-876699D01*
G01X30593941Y-865269D01*
G01X30588353Y-853839D01*
G01X30582511Y-847997D01*
G01X30571081Y-842409D01*
G01X30554063Y-842409D01*
G01X30542633Y-847997D01*
G01X30531203Y-859427D01*
G01X30525361Y-876699D01*
G01X30525361Y-888129D01*
G01X30531203Y-905147D01*
G01X30542633Y-916577D01*
G01X30554063Y-922419D01*
G01X30571081Y-922419D01*
G01X30582511Y-916577D01*
G01X30593941Y-905147D01*
G01X30641693Y-842409D02*
G01X30641693Y-922419D01*
G01X30641693Y-876699D02*
G01X30647535Y-859427D01*
G01X30658965Y-847997D01*
G01X30670395Y-842409D01*
G01X30687413Y-842409D01*
G01X16152916Y-1411551D02*
G01X16152916Y-1405709D01*
G01X16158504Y-1394279D01*
G01X16164346Y-1388691D01*
G01X16175776Y-1382849D01*
G01X16198636Y-1382849D01*
G01X16210066Y-1388691D01*
G01X16215654Y-1394279D01*
G01X16221496Y-1405709D01*
G01X16221496Y-1417139D01*
G01X16215654Y-1428569D01*
G01X16204224Y-1445841D01*
G01X16147074Y-1502991D01*
G01X16227084Y-1502991D01*
G01X17567079Y-1411551D02*
G01X17567079Y-1405709D01*
G01X17572667Y-1394279D01*
G01X17578509Y-1388691D01*
G01X17589939Y-1382849D01*
G01X17612799Y-1382849D01*
G01X17624229Y-1388691D01*
G01X17629817Y-1394279D01*
G01X17635659Y-1405709D01*
G01X17635659Y-1417139D01*
G01X17629817Y-1428569D01*
G01X17618387Y-1445841D01*
G01X17561237Y-1502991D01*
G01X17641247Y-1502991D01*
G01X17700429Y-1382849D02*
G01X17763421Y-1382849D01*
G01X17729131Y-1428569D01*
G01X17746149Y-1428569D01*
G01X17757579Y-1434411D01*
G01X17763421Y-1439999D01*
G01X17769009Y-1457271D01*
G01X17769009Y-1468701D01*
G01X17763421Y-1485719D01*
G01X17751991Y-1497149D01*
G01X17734719Y-1502991D01*
G01X17717701Y-1502991D01*
G01X17700429Y-1497149D01*
G01X17694841Y-1491561D01*
G01X17688999Y-1480131D01*
G01X17822603Y-1474289D02*
G01X17816761Y-1480131D01*
G01X17822603Y-1485719D01*
G01X17828191Y-1480131D01*
G01X17822603Y-1474289D01*
G01X17944523Y-1400121D02*
G01X17938935Y-1388691D01*
G01X17921663Y-1382849D01*
G01X17910233Y-1382849D01*
G01X17893215Y-1388691D01*
G01X17881785Y-1405709D01*
G01X17875943Y-1434411D01*
G01X17875943Y-1462859D01*
G01X17881785Y-1485719D01*
G01X17893215Y-1497149D01*
G01X17910233Y-1502991D01*
G01X17916075Y-1502991D01*
G01X17933093Y-1497149D01*
G01X17944523Y-1485719D01*
G01X17950365Y-1468701D01*
G01X17950365Y-1462859D01*
G01X17944523Y-1445841D01*
G01X17933093Y-1434411D01*
G01X17916075Y-1428569D01*
G01X17910233Y-1428569D01*
G01X17893215Y-1434411D01*
G01X17881785Y-1445841D01*
G01X17875943Y-1462859D01*
G01X17998117Y-1422981D02*
G01X18061109Y-1502991D01*
G01X18061109Y-1422981D02*
G01X17998117Y-1502991D01*
G01X18177441Y-1382849D02*
G01X18120291Y-1382849D01*
G01X18114703Y-1434411D01*
G01X18120291Y-1428569D01*
G01X18137563Y-1422981D01*
G01X18154581Y-1422981D01*
G01X18171853Y-1428569D01*
G01X18183283Y-1439999D01*
G01X18188871Y-1457271D01*
G01X18188871Y-1468701D01*
G01X18183283Y-1485719D01*
G01X18171853Y-1497149D01*
G01X18154581Y-1502991D01*
G01X18137563Y-1502991D01*
G01X18120291Y-1497149D01*
G01X18114703Y-1491561D01*
G01X18108861Y-1480131D01*
G01X18311045Y-1422981D02*
G01X18305203Y-1439999D01*
G01X18293773Y-1451429D01*
G01X18276755Y-1457271D01*
G01X18270913Y-1457271D01*
G01X18253895Y-1451429D01*
G01X18242465Y-1439999D01*
G01X18236623Y-1422981D01*
G01X18236623Y-1417139D01*
G01X18242465Y-1400121D01*
G01X18253895Y-1388691D01*
G01X18270913Y-1382849D01*
G01X18276755Y-1382849D01*
G01X18293773Y-1388691D01*
G01X18305203Y-1400121D01*
G01X18311045Y-1422981D01*
G01X18311045Y-1451429D01*
G01X18305203Y-1480131D01*
G01X18293773Y-1497149D01*
G01X18276755Y-1502991D01*
G01X18265325Y-1502991D01*
G01X18248053Y-1497149D01*
G01X18242465Y-1485719D01*
G01X18364639Y-1474289D02*
G01X18358797Y-1480131D01*
G01X18364639Y-1485719D01*
G01X18370227Y-1480131D01*
G01X18364639Y-1474289D01*
G01X18417979Y-1405709D02*
G01X18429409Y-1400121D01*
G01X18446681Y-1382849D01*
G01X18446681Y-1502991D01*
G01X18494433Y-1422981D02*
G01X18494433Y-1502991D01*
G01X18494433Y-1445841D02*
G01X18511705Y-1428569D01*
G01X18523135Y-1422981D01*
G01X18540153Y-1422981D01*
G01X18551583Y-1428569D01*
G01X18557425Y-1445841D01*
G01X18557425Y-1502991D01*
G01X18557425Y-1445841D02*
G01X18574443Y-1428569D01*
G01X18585873Y-1422981D01*
G01X18603145Y-1422981D01*
G01X18614575Y-1428569D01*
G01X18620163Y-1445841D01*
G01X18620163Y-1502991D01*
G01X18667915Y-1382849D02*
G01X18673757Y-1388691D01*
G01X18679345Y-1382849D01*
G01X18673757Y-1377261D01*
G01X18667915Y-1382849D01*
G01X18673757Y-1422981D02*
G01X18673757Y-1502991D01*
G01X18727097Y-1382849D02*
G01X18727097Y-1502991D01*
G01X18814981Y-1359989D02*
G01X18803551Y-1371419D01*
G01X18792121Y-1388691D01*
G01X18780691Y-1411551D01*
G01X18774849Y-1439999D01*
G01X18774849Y-1462859D01*
G01X18780691Y-1491561D01*
G01X18792121Y-1514421D01*
G01X18803551Y-1531439D01*
G01X18814981Y-1542869D01*
G01X18897023Y-1382849D02*
G01X18880005Y-1388691D01*
G01X18868575Y-1405709D01*
G01X18862733Y-1434411D01*
G01X18862733Y-1451429D01*
G01X18868575Y-1480131D01*
G01X18880005Y-1497149D01*
G01X18897023Y-1502991D01*
G01X18908453Y-1502991D01*
G01X18925725Y-1497149D01*
G01X18937155Y-1480131D01*
G01X18942743Y-1451429D01*
G01X18942743Y-1434411D01*
G01X18937155Y-1405709D01*
G01X18925725Y-1388691D01*
G01X18908453Y-1382849D01*
G01X18897023Y-1382849D01*
G01X18996337Y-1474289D02*
G01X18990495Y-1480131D01*
G01X18996337Y-1485719D01*
G01X19001925Y-1480131D01*
G01X18996337Y-1474289D01*
G01X19118257Y-1400121D02*
G01X19112669Y-1388691D01*
G01X19095397Y-1382849D01*
G01X19083967Y-1382849D01*
G01X19066949Y-1388691D01*
G01X19055519Y-1405709D01*
G01X19049677Y-1434411D01*
G01X19049677Y-1462859D01*
G01X19055519Y-1485719D01*
G01X19066949Y-1497149D01*
G01X19083967Y-1502991D01*
G01X19089809Y-1502991D01*
G01X19106827Y-1497149D01*
G01X19118257Y-1485719D01*
G01X19124099Y-1468701D01*
G01X19124099Y-1462859D01*
G01X19118257Y-1445841D01*
G01X19106827Y-1434411D01*
G01X19089809Y-1428569D01*
G01X19083967Y-1428569D01*
G01X19066949Y-1434411D01*
G01X19055519Y-1445841D01*
G01X19049677Y-1462859D01*
G01X19206141Y-1382849D02*
G01X19189123Y-1388691D01*
G01X19177693Y-1405709D01*
G01X19171851Y-1434411D01*
G01X19171851Y-1451429D01*
G01X19177693Y-1480131D01*
G01X19189123Y-1497149D01*
G01X19206141Y-1502991D01*
G01X19217571Y-1502991D01*
G01X19234843Y-1497149D01*
G01X19246273Y-1480131D01*
G01X19251861Y-1451429D01*
G01X19251861Y-1434411D01*
G01X19246273Y-1405709D01*
G01X19234843Y-1388691D01*
G01X19217571Y-1382849D01*
G01X19206141Y-1382849D01*
G01X19333903Y-1382849D02*
G01X19316885Y-1388691D01*
G01X19305455Y-1405709D01*
G01X19299613Y-1434411D01*
G01X19299613Y-1451429D01*
G01X19305455Y-1480131D01*
G01X19316885Y-1497149D01*
G01X19333903Y-1502991D01*
G01X19345333Y-1502991D01*
G01X19362605Y-1497149D01*
G01X19374035Y-1480131D01*
G01X19379623Y-1451429D01*
G01X19379623Y-1434411D01*
G01X19374035Y-1405709D01*
G01X19362605Y-1388691D01*
G01X19345333Y-1382849D01*
G01X19333903Y-1382849D01*
G01X19427375Y-1422981D02*
G01X19490367Y-1502991D01*
G01X19490367Y-1422981D02*
G01X19427375Y-1502991D01*
G01X19538119Y-1405709D02*
G01X19549549Y-1400121D01*
G01X19566821Y-1382849D01*
G01X19566821Y-1502991D01*
G01X19620415Y-1474289D02*
G01X19614573Y-1480131D01*
G01X19620415Y-1485719D01*
G01X19626003Y-1480131D01*
G01X19620415Y-1474289D01*
G01X19742335Y-1382849D02*
G01X19685185Y-1382849D01*
G01X19679597Y-1434411D01*
G01X19685185Y-1428569D01*
G01X19702457Y-1422981D01*
G01X19719475Y-1422981D01*
G01X19736747Y-1428569D01*
G01X19748177Y-1439999D01*
G01X19753765Y-1457271D01*
G01X19753765Y-1468701D01*
G01X19748177Y-1485719D01*
G01X19736747Y-1497149D01*
G01X19719475Y-1502991D01*
G01X19702457Y-1502991D01*
G01X19685185Y-1497149D01*
G01X19679597Y-1491561D01*
G01X19673755Y-1480131D01*
G01X19835807Y-1382849D02*
G01X19818789Y-1388691D01*
G01X19807359Y-1405709D01*
G01X19801517Y-1434411D01*
G01X19801517Y-1451429D01*
G01X19807359Y-1480131D01*
G01X19818789Y-1497149D01*
G01X19835807Y-1502991D01*
G01X19847237Y-1502991D01*
G01X19864509Y-1497149D01*
G01X19875939Y-1480131D01*
G01X19881527Y-1451429D01*
G01X19881527Y-1434411D01*
G01X19875939Y-1405709D01*
G01X19864509Y-1388691D01*
G01X19847237Y-1382849D01*
G01X19835807Y-1382849D01*
G01X19963569Y-1382849D02*
G01X19946551Y-1388691D01*
G01X19935121Y-1405709D01*
G01X19929279Y-1434411D01*
G01X19929279Y-1451429D01*
G01X19935121Y-1480131D01*
G01X19946551Y-1497149D01*
G01X19963569Y-1502991D01*
G01X19974999Y-1502991D01*
G01X19992271Y-1497149D01*
G01X20003701Y-1480131D01*
G01X20009289Y-1451429D01*
G01X20009289Y-1434411D01*
G01X20003701Y-1405709D01*
G01X19992271Y-1388691D01*
G01X19974999Y-1382849D01*
G01X19963569Y-1382849D01*
G01X20057041Y-1422981D02*
G01X20057041Y-1502991D01*
G01X20057041Y-1445841D02*
G01X20074313Y-1428569D01*
G01X20085743Y-1422981D01*
G01X20102761Y-1422981D01*
G01X20114191Y-1428569D01*
G01X20120033Y-1445841D01*
G01X20120033Y-1502991D01*
G01X20120033Y-1445841D02*
G01X20137051Y-1428569D01*
G01X20148481Y-1422981D01*
G01X20165753Y-1422981D01*
G01X20177183Y-1428569D01*
G01X20182771Y-1445841D01*
G01X20182771Y-1502991D01*
G01X20230523Y-1422981D02*
G01X20230523Y-1502991D01*
G01X20230523Y-1445841D02*
G01X20247795Y-1428569D01*
G01X20259225Y-1422981D01*
G01X20276243Y-1422981D01*
G01X20287673Y-1428569D01*
G01X20293515Y-1445841D01*
G01X20293515Y-1502991D01*
G01X20293515Y-1445841D02*
G01X20310533Y-1428569D01*
G01X20321963Y-1422981D01*
G01X20339235Y-1422981D01*
G01X20350665Y-1428569D01*
G01X20356253Y-1445841D01*
G01X20356253Y-1502991D01*
G01X20404005Y-1359989D02*
G01X20415435Y-1371419D01*
G01X20426865Y-1388691D01*
G01X20438295Y-1411551D01*
G01X20444137Y-1439999D01*
G01X20444137Y-1462859D01*
G01X20438295Y-1491561D01*
G01X20426865Y-1514421D01*
G01X20415435Y-1531439D01*
G01X20404005Y-1542869D01*
G01X21619287Y-1382849D02*
G01X21619287Y-1502991D01*
G01X21619287Y-1382849D02*
G01X21670849Y-1382849D01*
G01X21687867Y-1388691D01*
G01X21693709Y-1394279D01*
G01X21699297Y-1405709D01*
G01X21699297Y-1422981D01*
G01X21693709Y-1434411D01*
G01X21687867Y-1439999D01*
G01X21670849Y-1445841D01*
G01X21619287Y-1445841D01*
G01X21787181Y-1382849D02*
G01X21787181Y-1502991D01*
G01X21747049Y-1382849D02*
G01X21827059Y-1382849D01*
G01X21874811Y-1382849D02*
G01X21874811Y-1502991D01*
G01X21954821Y-1382849D02*
G01X21954821Y-1502991D01*
G01X21874811Y-1439999D02*
G01X21954821Y-1439999D01*
G01X23160704Y-1400121D02*
G01X23149274Y-1388691D01*
G01X23132256Y-1382849D01*
G01X23109396Y-1382849D01*
G01X23092124Y-1388691D01*
G01X23080694Y-1400121D01*
G01X23080694Y-1411551D01*
G01X23086536Y-1422981D01*
G01X23092124Y-1428569D01*
G01X23103554Y-1434411D01*
G01X23137844Y-1445841D01*
G01X23149274Y-1451429D01*
G01X23155116Y-1457271D01*
G01X23160704Y-1468701D01*
G01X23160704Y-1485719D01*
G01X23149274Y-1497149D01*
G01X23132256Y-1502991D01*
G01X23109396Y-1502991D01*
G01X23092124Y-1497149D01*
G01X23080694Y-1485719D01*
G01X23208456Y-1382849D02*
G01X23208456Y-1502991D01*
G01X23284910Y-1422981D02*
G01X23273480Y-1428569D01*
G01X23262050Y-1439999D01*
G01X23256208Y-1457271D01*
G01X23256208Y-1468701D01*
G01X23262050Y-1485719D01*
G01X23273480Y-1497149D01*
G01X23284910Y-1502991D01*
G01X23301928Y-1502991D01*
G01X23313358Y-1497149D01*
G01X23324788Y-1485719D01*
G01X23330630Y-1468701D01*
G01X23330630Y-1457271D01*
G01X23324788Y-1439999D01*
G01X23313358Y-1428569D01*
G01X23301928Y-1422981D01*
G01X23284910Y-1422981D01*
G01X23395654Y-1382849D02*
G01X23395654Y-1480131D01*
G01X23401242Y-1497149D01*
G01X23412672Y-1502991D01*
G01X23424102Y-1502991D01*
G01X23378382Y-1422981D02*
G01X23418514Y-1422981D01*
G01X24511875Y-1382849D02*
G01X24511875Y-1502991D01*
G01X24511875Y-1382849D02*
G01X24563437Y-1382849D01*
G01X24580455Y-1388691D01*
G01X24586297Y-1394279D01*
G01X24591885Y-1405709D01*
G01X24591885Y-1422981D01*
G01X24586297Y-1434411D01*
G01X24580455Y-1439999D01*
G01X24563437Y-1445841D01*
G01X24511875Y-1445841D01*
G01X24708217Y-1422981D02*
G01X24708217Y-1502991D01*
G01X24708217Y-1439999D02*
G01X24696787Y-1428569D01*
G01X24685357Y-1422981D01*
G01X24668339Y-1422981D01*
G01X24656909Y-1428569D01*
G01X24645479Y-1439999D01*
G01X24639637Y-1457271D01*
G01X24639637Y-1468701D01*
G01X24645479Y-1485719D01*
G01X24656909Y-1497149D01*
G01X24668339Y-1502991D01*
G01X24685357Y-1502991D01*
G01X24696787Y-1497149D01*
G01X24708217Y-1485719D01*
G01X24824549Y-1382849D02*
G01X24824549Y-1502991D01*
G01X24824549Y-1439999D02*
G01X24813119Y-1428569D01*
G01X24801689Y-1422981D01*
G01X24784671Y-1422981D01*
G01X24773241Y-1428569D01*
G01X24761811Y-1439999D01*
G01X24755969Y-1457271D01*
G01X24755969Y-1468701D01*
G01X24761811Y-1485719D01*
G01X24773241Y-1497149D01*
G01X24784671Y-1502991D01*
G01X24801689Y-1502991D01*
G01X24813119Y-1497149D01*
G01X24824549Y-1485719D01*
G01X26215344Y-1382849D02*
G01X26203914Y-1388691D01*
G01X26192484Y-1400121D01*
G01X26186896Y-1411551D01*
G01X26181054Y-1428569D01*
G01X26181054Y-1457271D01*
G01X26186896Y-1474289D01*
G01X26192484Y-1485719D01*
G01X26203914Y-1497149D01*
G01X26215344Y-1502991D01*
G01X26238204Y-1502991D01*
G01X26249634Y-1497149D01*
G01X26261064Y-1485719D01*
G01X26266906Y-1474289D01*
G01X26272494Y-1457271D01*
G01X26272494Y-1428569D01*
G01X26266906Y-1411551D01*
G01X26261064Y-1400121D01*
G01X26249634Y-1388691D01*
G01X26238204Y-1382849D01*
G01X26215344Y-1382849D01*
G01X26320246Y-1422981D02*
G01X26354536Y-1502991D01*
G01X26388826Y-1422981D02*
G01X26354536Y-1502991D01*
G01X26505158Y-1422981D02*
G01X26505158Y-1502991D01*
G01X26505158Y-1439999D02*
G01X26493728Y-1428569D01*
G01X26482298Y-1422981D01*
G01X26465280Y-1422981D01*
G01X26453850Y-1428569D01*
G01X26442420Y-1439999D01*
G01X26436578Y-1457271D01*
G01X26436578Y-1468701D01*
G01X26442420Y-1485719D01*
G01X26453850Y-1497149D01*
G01X26465280Y-1502991D01*
G01X26482298Y-1502991D01*
G01X26493728Y-1497149D01*
G01X26505158Y-1485719D01*
G01X26552910Y-1382849D02*
G01X26552910Y-1502991D01*
G01X28140555Y-1382849D02*
G01X28140555Y-1502991D01*
G01X28100423Y-1382849D02*
G01X28180433Y-1382849D01*
G01X28256887Y-1422981D02*
G01X28245457Y-1428569D01*
G01X28234027Y-1439999D01*
G01X28228185Y-1457271D01*
G01X28228185Y-1468701D01*
G01X28234027Y-1485719D01*
G01X28245457Y-1497149D01*
G01X28256887Y-1502991D01*
G01X28273905Y-1502991D01*
G01X28285335Y-1497149D01*
G01X28296765Y-1485719D01*
G01X28302607Y-1468701D01*
G01X28302607Y-1457271D01*
G01X28296765Y-1439999D01*
G01X28285335Y-1428569D01*
G01X28273905Y-1422981D01*
G01X28256887Y-1422981D01*
G01X28350359Y-1422981D02*
G01X28350359Y-1542869D01*
G01X28350359Y-1439999D02*
G01X28361789Y-1428569D01*
G01X28373219Y-1422981D01*
G01X28390491Y-1422981D01*
G01X28401921Y-1428569D01*
G01X28413351Y-1439999D01*
G01X28418939Y-1457271D01*
G01X28418939Y-1468701D01*
G01X28413351Y-1485719D01*
G01X28401921Y-1497149D01*
G01X28390491Y-1502991D01*
G01X28373219Y-1502991D01*
G01X28361789Y-1497149D01*
G01X28350359Y-1485719D01*
G01X28594707Y-1382849D02*
G01X28594707Y-1502991D01*
G01X28594707Y-1502991D02*
G01X28663287Y-1502991D01*
G01X28779619Y-1422981D02*
G01X28779619Y-1502991D01*
G01X28779619Y-1439999D02*
G01X28768189Y-1428569D01*
G01X28756759Y-1422981D01*
G01X28739741Y-1422981D01*
G01X28728311Y-1428569D01*
G01X28716881Y-1439999D01*
G01X28711039Y-1457271D01*
G01X28711039Y-1468701D01*
G01X28716881Y-1485719D01*
G01X28728311Y-1497149D01*
G01X28739741Y-1502991D01*
G01X28756759Y-1502991D01*
G01X28768189Y-1497149D01*
G01X28779619Y-1485719D01*
G01X28833213Y-1422981D02*
G01X28867503Y-1502991D01*
G01X28901793Y-1422981D02*
G01X28867503Y-1502991D01*
G01X28856073Y-1525851D01*
G01X28844643Y-1537281D01*
G01X28833213Y-1542869D01*
G01X28827371Y-1542869D01*
G01X28949545Y-1457271D02*
G01X29018125Y-1457271D01*
G01X29018125Y-1445841D01*
G01X29012537Y-1434411D01*
G01X29006695Y-1428569D01*
G01X28995265Y-1422981D01*
G01X28978247Y-1422981D01*
G01X28966817Y-1428569D01*
G01X28955387Y-1439999D01*
G01X28949545Y-1457271D01*
G01X28949545Y-1468701D01*
G01X28955387Y-1485719D01*
G01X28966817Y-1497149D01*
G01X28978247Y-1502991D01*
G01X28995265Y-1502991D01*
G01X29006695Y-1497149D01*
G01X29018125Y-1485719D01*
G01X29065877Y-1422981D02*
G01X29065877Y-1502991D01*
G01X29065877Y-1457271D02*
G01X29071719Y-1439999D01*
G01X29083149Y-1428569D01*
G01X29094579Y-1422981D01*
G01X29111597Y-1422981D01*
G01X29159349Y-1451429D02*
G01X29262219Y-1451429D01*
G01X29309971Y-1382849D02*
G01X29309971Y-1502991D01*
G01X29309971Y-1382849D02*
G01X29361533Y-1382849D01*
G01X29378551Y-1388691D01*
G01X29384393Y-1394279D01*
G01X29389981Y-1405709D01*
G01X29389981Y-1417139D01*
G01X29384393Y-1428569D01*
G01X29378551Y-1434411D01*
G01X29361533Y-1439999D01*
G01X29309971Y-1439999D02*
G01X29361533Y-1439999D01*
G01X29378551Y-1445841D01*
G01X29384393Y-1451429D01*
G01X29389981Y-1462859D01*
G01X29389981Y-1480131D01*
G01X29384393Y-1491561D01*
G01X29378551Y-1497149D01*
G01X29361533Y-1502991D01*
G01X29309971Y-1502991D01*
G01X29466435Y-1422981D02*
G01X29455005Y-1428569D01*
G01X29443575Y-1439999D01*
G01X29437733Y-1457271D01*
G01X29437733Y-1468701D01*
G01X29443575Y-1485719D01*
G01X29455005Y-1497149D01*
G01X29466435Y-1502991D01*
G01X29483453Y-1502991D01*
G01X29494883Y-1497149D01*
G01X29506313Y-1485719D01*
G01X29512155Y-1468701D01*
G01X29512155Y-1457271D01*
G01X29506313Y-1439999D01*
G01X29494883Y-1428569D01*
G01X29483453Y-1422981D01*
G01X29466435Y-1422981D01*
G01X29577179Y-1382849D02*
G01X29577179Y-1480131D01*
G01X29582767Y-1497149D01*
G01X29594197Y-1502991D01*
G01X29605627Y-1502991D01*
G01X29559907Y-1422981D02*
G01X29600039Y-1422981D01*
G01X29670651Y-1382849D02*
G01X29670651Y-1480131D01*
G01X29676239Y-1497149D01*
G01X29687669Y-1502991D01*
G01X29699099Y-1502991D01*
G01X29653379Y-1422981D02*
G01X29693511Y-1422981D01*
G01X29775553Y-1422981D02*
G01X29764123Y-1428569D01*
G01X29752693Y-1439999D01*
G01X29746851Y-1457271D01*
G01X29746851Y-1468701D01*
G01X29752693Y-1485719D01*
G01X29764123Y-1497149D01*
G01X29775553Y-1502991D01*
G01X29792571Y-1502991D01*
G01X29804001Y-1497149D01*
G01X29815431Y-1485719D01*
G01X29821273Y-1468701D01*
G01X29821273Y-1457271D01*
G01X29815431Y-1439999D01*
G01X29804001Y-1428569D01*
G01X29792571Y-1422981D01*
G01X29775553Y-1422981D01*
G01X29869025Y-1422981D02*
G01X29869025Y-1502991D01*
G01X29869025Y-1445841D02*
G01X29886297Y-1428569D01*
G01X29897727Y-1422981D01*
G01X29914745Y-1422981D01*
G01X29926175Y-1428569D01*
G01X29932017Y-1445841D01*
G01X29932017Y-1502991D01*
G01X29932017Y-1445841D02*
G01X29949035Y-1428569D01*
G01X29960465Y-1422981D01*
G01X29977737Y-1422981D01*
G01X29989167Y-1428569D01*
G01X29994755Y-1445841D01*
G01X29994755Y-1502991D01*
G01X30170523Y-1382849D02*
G01X30170523Y-1502991D01*
G01X30170523Y-1502991D02*
G01X30239103Y-1502991D01*
G01X30355435Y-1422981D02*
G01X30355435Y-1502991D01*
G01X30355435Y-1439999D02*
G01X30344005Y-1428569D01*
G01X30332575Y-1422981D01*
G01X30315557Y-1422981D01*
G01X30304127Y-1428569D01*
G01X30292697Y-1439999D01*
G01X30286855Y-1457271D01*
G01X30286855Y-1468701D01*
G01X30292697Y-1485719D01*
G01X30304127Y-1497149D01*
G01X30315557Y-1502991D01*
G01X30332575Y-1502991D01*
G01X30344005Y-1497149D01*
G01X30355435Y-1485719D01*
G01X30409029Y-1422981D02*
G01X30443319Y-1502991D01*
G01X30477609Y-1422981D02*
G01X30443319Y-1502991D01*
G01X30431889Y-1525851D01*
G01X30420459Y-1537281D01*
G01X30409029Y-1542869D01*
G01X30403187Y-1542869D01*
G01X30525361Y-1457271D02*
G01X30593941Y-1457271D01*
G01X30593941Y-1445841D01*
G01X30588353Y-1434411D01*
G01X30582511Y-1428569D01*
G01X30571081Y-1422981D01*
G01X30554063Y-1422981D01*
G01X30542633Y-1428569D01*
G01X30531203Y-1439999D01*
G01X30525361Y-1457271D01*
G01X30525361Y-1468701D01*
G01X30531203Y-1485719D01*
G01X30542633Y-1497149D01*
G01X30554063Y-1502991D01*
G01X30571081Y-1502991D01*
G01X30582511Y-1497149D01*
G01X30593941Y-1485719D01*
G01X30641693Y-1422981D02*
G01X30641693Y-1502991D01*
G01X30641693Y-1457271D02*
G01X30647535Y-1439999D01*
G01X30658965Y-1428569D01*
G01X30670395Y-1422981D01*
G01X30687413Y-1422981D01*
G01X16152916Y-1992122D02*
G01X16152916Y-1986280D01*
G01X16158504Y-1974850D01*
G01X16164346Y-1969262D01*
G01X16175776Y-1963420D01*
G01X16198636Y-1963420D01*
G01X16210066Y-1969262D01*
G01X16215654Y-1974850D01*
G01X16221496Y-1986280D01*
G01X16221496Y-1997710D01*
G01X16215654Y-2009140D01*
G01X16204224Y-2026412D01*
G01X16147074Y-2083562D01*
G01X16227084Y-2083562D01*
G01X17567079Y-1992122D02*
G01X17567079Y-1986280D01*
G01X17572667Y-1974850D01*
G01X17578509Y-1969262D01*
G01X17589939Y-1963420D01*
G01X17612799Y-1963420D01*
G01X17624229Y-1969262D01*
G01X17629817Y-1974850D01*
G01X17635659Y-1986280D01*
G01X17635659Y-1997710D01*
G01X17629817Y-2009140D01*
G01X17618387Y-2026412D01*
G01X17561237Y-2083562D01*
G01X17641247Y-2083562D01*
G01X17700429Y-1963420D02*
G01X17763421Y-1963420D01*
G01X17729131Y-2009140D01*
G01X17746149Y-2009140D01*
G01X17757579Y-2014982D01*
G01X17763421Y-2020570D01*
G01X17769009Y-2037842D01*
G01X17769009Y-2049272D01*
G01X17763421Y-2066290D01*
G01X17751991Y-2077720D01*
G01X17734719Y-2083562D01*
G01X17717701Y-2083562D01*
G01X17700429Y-2077720D01*
G01X17694841Y-2072132D01*
G01X17688999Y-2060702D01*
G01X17822603Y-2054860D02*
G01X17816761Y-2060702D01*
G01X17822603Y-2066290D01*
G01X17828191Y-2060702D01*
G01X17822603Y-2054860D01*
G01X17944523Y-1980692D02*
G01X17938935Y-1969262D01*
G01X17921663Y-1963420D01*
G01X17910233Y-1963420D01*
G01X17893215Y-1969262D01*
G01X17881785Y-1986280D01*
G01X17875943Y-2014982D01*
G01X17875943Y-2043430D01*
G01X17881785Y-2066290D01*
G01X17893215Y-2077720D01*
G01X17910233Y-2083562D01*
G01X17916075Y-2083562D01*
G01X17933093Y-2077720D01*
G01X17944523Y-2066290D01*
G01X17950365Y-2049272D01*
G01X17950365Y-2043430D01*
G01X17944523Y-2026412D01*
G01X17933093Y-2014982D01*
G01X17916075Y-2009140D01*
G01X17910233Y-2009140D01*
G01X17893215Y-2014982D01*
G01X17881785Y-2026412D01*
G01X17875943Y-2043430D01*
G01X17998117Y-2003552D02*
G01X18061109Y-2083562D01*
G01X18061109Y-2003552D02*
G01X17998117Y-2083562D01*
G01X18166011Y-1963420D02*
G01X18108861Y-2043430D01*
G01X18194713Y-2043430D01*
G01X18166011Y-1963420D02*
G01X18166011Y-2083562D01*
G01X18322475Y-1963420D02*
G01X18265325Y-2083562D01*
G01X18242465Y-1963420D02*
G01X18322475Y-1963420D01*
G01X18376069Y-2054860D02*
G01X18370227Y-2060702D01*
G01X18376069Y-2066290D01*
G01X18381657Y-2060702D01*
G01X18376069Y-2054860D01*
G01X18435251Y-1992122D02*
G01X18435251Y-1986280D01*
G01X18440839Y-1974850D01*
G01X18446681Y-1969262D01*
G01X18458111Y-1963420D01*
G01X18480971Y-1963420D01*
G01X18492401Y-1969262D01*
G01X18497989Y-1974850D01*
G01X18503831Y-1986280D01*
G01X18503831Y-1997710D01*
G01X18497989Y-2009140D01*
G01X18486559Y-2026412D01*
G01X18429409Y-2083562D01*
G01X18509419Y-2083562D01*
G01X18557171Y-2003552D02*
G01X18557171Y-2083562D01*
G01X18557171Y-2026412D02*
G01X18574443Y-2009140D01*
G01X18585873Y-2003552D01*
G01X18602891Y-2003552D01*
G01X18614321Y-2009140D01*
G01X18620163Y-2026412D01*
G01X18620163Y-2083562D01*
G01X18620163Y-2026412D02*
G01X18637181Y-2009140D01*
G01X18648611Y-2003552D01*
G01X18665883Y-2003552D01*
G01X18677313Y-2009140D01*
G01X18682901Y-2026412D01*
G01X18682901Y-2083562D01*
G01X18730653Y-1963420D02*
G01X18736495Y-1969262D01*
G01X18742083Y-1963420D01*
G01X18736495Y-1957832D01*
G01X18730653Y-1963420D01*
G01X18736495Y-2003552D02*
G01X18736495Y-2083562D01*
G01X18789835Y-1963420D02*
G01X18789835Y-2083562D01*
G01X18877719Y-1940560D02*
G01X18866289Y-1951990D01*
G01X18854859Y-1969262D01*
G01X18843429Y-1992122D01*
G01X18837587Y-2020570D01*
G01X18837587Y-2043430D01*
G01X18843429Y-2072132D01*
G01X18854859Y-2094992D01*
G01X18866289Y-2112010D01*
G01X18877719Y-2123440D01*
G01X18959761Y-1963420D02*
G01X18942743Y-1969262D01*
G01X18931313Y-1986280D01*
G01X18925471Y-2014982D01*
G01X18925471Y-2032000D01*
G01X18931313Y-2060702D01*
G01X18942743Y-2077720D01*
G01X18959761Y-2083562D01*
G01X18971191Y-2083562D01*
G01X18988463Y-2077720D01*
G01X18999893Y-2060702D01*
G01X19005481Y-2032000D01*
G01X19005481Y-2014982D01*
G01X18999893Y-1986280D01*
G01X18988463Y-1969262D01*
G01X18971191Y-1963420D01*
G01X18959761Y-1963420D01*
G01X19059075Y-2054860D02*
G01X19053233Y-2060702D01*
G01X19059075Y-2066290D01*
G01X19064663Y-2060702D01*
G01X19059075Y-2054860D01*
G01X19180995Y-1980692D02*
G01X19175407Y-1969262D01*
G01X19158135Y-1963420D01*
G01X19146705Y-1963420D01*
G01X19129687Y-1969262D01*
G01X19118257Y-1986280D01*
G01X19112415Y-2014982D01*
G01X19112415Y-2043430D01*
G01X19118257Y-2066290D01*
G01X19129687Y-2077720D01*
G01X19146705Y-2083562D01*
G01X19152547Y-2083562D01*
G01X19169565Y-2077720D01*
G01X19180995Y-2066290D01*
G01X19186837Y-2049272D01*
G01X19186837Y-2043430D01*
G01X19180995Y-2026412D01*
G01X19169565Y-2014982D01*
G01X19152547Y-2009140D01*
G01X19146705Y-2009140D01*
G01X19129687Y-2014982D01*
G01X19118257Y-2026412D01*
G01X19112415Y-2043430D01*
G01X19268879Y-1963420D02*
G01X19251861Y-1969262D01*
G01X19240431Y-1986280D01*
G01X19234589Y-2014982D01*
G01X19234589Y-2032000D01*
G01X19240431Y-2060702D01*
G01X19251861Y-2077720D01*
G01X19268879Y-2083562D01*
G01X19280309Y-2083562D01*
G01X19297581Y-2077720D01*
G01X19309011Y-2060702D01*
G01X19314599Y-2032000D01*
G01X19314599Y-2014982D01*
G01X19309011Y-1986280D01*
G01X19297581Y-1969262D01*
G01X19280309Y-1963420D01*
G01X19268879Y-1963420D01*
G01X19396641Y-1963420D02*
G01X19379623Y-1969262D01*
G01X19368193Y-1986280D01*
G01X19362351Y-2014982D01*
G01X19362351Y-2032000D01*
G01X19368193Y-2060702D01*
G01X19379623Y-2077720D01*
G01X19396641Y-2083562D01*
G01X19408071Y-2083562D01*
G01X19425343Y-2077720D01*
G01X19436773Y-2060702D01*
G01X19442361Y-2032000D01*
G01X19442361Y-2014982D01*
G01X19436773Y-1986280D01*
G01X19425343Y-1969262D01*
G01X19408071Y-1963420D01*
G01X19396641Y-1963420D01*
G01X19490113Y-2003552D02*
G01X19553105Y-2083562D01*
G01X19553105Y-2003552D02*
G01X19490113Y-2083562D01*
G01X19600857Y-1986280D02*
G01X19612287Y-1980692D01*
G01X19629559Y-1963420D01*
G01X19629559Y-2083562D01*
G01X19683153Y-2054860D02*
G01X19677311Y-2060702D01*
G01X19683153Y-2066290D01*
G01X19688741Y-2060702D01*
G01X19683153Y-2054860D01*
G01X19742335Y-1992122D02*
G01X19742335Y-1986280D01*
G01X19747923Y-1974850D01*
G01X19753765Y-1969262D01*
G01X19765195Y-1963420D01*
G01X19788055Y-1963420D01*
G01X19799485Y-1969262D01*
G01X19805073Y-1974850D01*
G01X19810915Y-1986280D01*
G01X19810915Y-1997710D01*
G01X19805073Y-2009140D01*
G01X19793643Y-2026412D01*
G01X19736493Y-2083562D01*
G01X19816503Y-2083562D01*
G01X19898545Y-1963420D02*
G01X19881527Y-1969262D01*
G01X19870097Y-1986280D01*
G01X19864255Y-2014982D01*
G01X19864255Y-2032000D01*
G01X19870097Y-2060702D01*
G01X19881527Y-2077720D01*
G01X19898545Y-2083562D01*
G01X19909975Y-2083562D01*
G01X19927247Y-2077720D01*
G01X19938677Y-2060702D01*
G01X19944265Y-2032000D01*
G01X19944265Y-2014982D01*
G01X19938677Y-1986280D01*
G01X19927247Y-1969262D01*
G01X19909975Y-1963420D01*
G01X19898545Y-1963420D01*
G01X20026307Y-1963420D02*
G01X20009289Y-1969262D01*
G01X19997859Y-1986280D01*
G01X19992017Y-2014982D01*
G01X19992017Y-2032000D01*
G01X19997859Y-2060702D01*
G01X20009289Y-2077720D01*
G01X20026307Y-2083562D01*
G01X20037737Y-2083562D01*
G01X20055009Y-2077720D01*
G01X20066439Y-2060702D01*
G01X20072027Y-2032000D01*
G01X20072027Y-2014982D01*
G01X20066439Y-1986280D01*
G01X20055009Y-1969262D01*
G01X20037737Y-1963420D01*
G01X20026307Y-1963420D01*
G01X20119779Y-2003552D02*
G01X20119779Y-2083562D01*
G01X20119779Y-2026412D02*
G01X20137051Y-2009140D01*
G01X20148481Y-2003552D01*
G01X20165499Y-2003552D01*
G01X20176929Y-2009140D01*
G01X20182771Y-2026412D01*
G01X20182771Y-2083562D01*
G01X20182771Y-2026412D02*
G01X20199789Y-2009140D01*
G01X20211219Y-2003552D01*
G01X20228491Y-2003552D01*
G01X20239921Y-2009140D01*
G01X20245509Y-2026412D01*
G01X20245509Y-2083562D01*
G01X20293261Y-2003552D02*
G01X20293261Y-2083562D01*
G01X20293261Y-2026412D02*
G01X20310533Y-2009140D01*
G01X20321963Y-2003552D01*
G01X20338981Y-2003552D01*
G01X20350411Y-2009140D01*
G01X20356253Y-2026412D01*
G01X20356253Y-2083562D01*
G01X20356253Y-2026412D02*
G01X20373271Y-2009140D01*
G01X20384701Y-2003552D01*
G01X20401973Y-2003552D01*
G01X20413403Y-2009140D01*
G01X20418991Y-2026412D01*
G01X20418991Y-2083562D01*
G01X20466743Y-1940560D02*
G01X20478173Y-1951990D01*
G01X20489603Y-1969262D01*
G01X20501033Y-1992122D01*
G01X20506875Y-2020570D01*
G01X20506875Y-2043430D01*
G01X20501033Y-2072132D01*
G01X20489603Y-2094992D01*
G01X20478173Y-2112010D01*
G01X20466743Y-2123440D01*
G01X21619287Y-1963420D02*
G01X21619287Y-2083562D01*
G01X21619287Y-1963420D02*
G01X21670849Y-1963420D01*
G01X21687867Y-1969262D01*
G01X21693709Y-1974850D01*
G01X21699297Y-1986280D01*
G01X21699297Y-2003552D01*
G01X21693709Y-2014982D01*
G01X21687867Y-2020570D01*
G01X21670849Y-2026412D01*
G01X21619287Y-2026412D01*
G01X21787181Y-1963420D02*
G01X21787181Y-2083562D01*
G01X21747049Y-1963420D02*
G01X21827059Y-1963420D01*
G01X21874811Y-1963420D02*
G01X21874811Y-2083562D01*
G01X21954821Y-1963420D02*
G01X21954821Y-2083562D01*
G01X21874811Y-2020570D02*
G01X21954821Y-2020570D01*
G01X23160704Y-1980692D02*
G01X23149274Y-1969262D01*
G01X23132256Y-1963420D01*
G01X23109396Y-1963420D01*
G01X23092124Y-1969262D01*
G01X23080694Y-1980692D01*
G01X23080694Y-1992122D01*
G01X23086536Y-2003552D01*
G01X23092124Y-2009140D01*
G01X23103554Y-2014982D01*
G01X23137844Y-2026412D01*
G01X23149274Y-2032000D01*
G01X23155116Y-2037842D01*
G01X23160704Y-2049272D01*
G01X23160704Y-2066290D01*
G01X23149274Y-2077720D01*
G01X23132256Y-2083562D01*
G01X23109396Y-2083562D01*
G01X23092124Y-2077720D01*
G01X23080694Y-2066290D01*
G01X23208456Y-1963420D02*
G01X23208456Y-2083562D01*
G01X23284910Y-2003552D02*
G01X23273480Y-2009140D01*
G01X23262050Y-2020570D01*
G01X23256208Y-2037842D01*
G01X23256208Y-2049272D01*
G01X23262050Y-2066290D01*
G01X23273480Y-2077720D01*
G01X23284910Y-2083562D01*
G01X23301928Y-2083562D01*
G01X23313358Y-2077720D01*
G01X23324788Y-2066290D01*
G01X23330630Y-2049272D01*
G01X23330630Y-2037842D01*
G01X23324788Y-2020570D01*
G01X23313358Y-2009140D01*
G01X23301928Y-2003552D01*
G01X23284910Y-2003552D01*
G01X23395654Y-1963420D02*
G01X23395654Y-2060702D01*
G01X23401242Y-2077720D01*
G01X23412672Y-2083562D01*
G01X23424102Y-2083562D01*
G01X23378382Y-2003552D02*
G01X23418514Y-2003552D01*
G01X24511875Y-1963420D02*
G01X24511875Y-2083562D01*
G01X24511875Y-1963420D02*
G01X24563437Y-1963420D01*
G01X24580455Y-1969262D01*
G01X24586297Y-1974850D01*
G01X24591885Y-1986280D01*
G01X24591885Y-2003552D01*
G01X24586297Y-2014982D01*
G01X24580455Y-2020570D01*
G01X24563437Y-2026412D01*
G01X24511875Y-2026412D01*
G01X24708217Y-2003552D02*
G01X24708217Y-2083562D01*
G01X24708217Y-2020570D02*
G01X24696787Y-2009140D01*
G01X24685357Y-2003552D01*
G01X24668339Y-2003552D01*
G01X24656909Y-2009140D01*
G01X24645479Y-2020570D01*
G01X24639637Y-2037842D01*
G01X24639637Y-2049272D01*
G01X24645479Y-2066290D01*
G01X24656909Y-2077720D01*
G01X24668339Y-2083562D01*
G01X24685357Y-2083562D01*
G01X24696787Y-2077720D01*
G01X24708217Y-2066290D01*
G01X24824549Y-1963420D02*
G01X24824549Y-2083562D01*
G01X24824549Y-2020570D02*
G01X24813119Y-2009140D01*
G01X24801689Y-2003552D01*
G01X24784671Y-2003552D01*
G01X24773241Y-2009140D01*
G01X24761811Y-2020570D01*
G01X24755969Y-2037842D01*
G01X24755969Y-2049272D01*
G01X24761811Y-2066290D01*
G01X24773241Y-2077720D01*
G01X24784671Y-2083562D01*
G01X24801689Y-2083562D01*
G01X24813119Y-2077720D01*
G01X24824549Y-2066290D01*
G01X26215344Y-1963420D02*
G01X26203914Y-1969262D01*
G01X26192484Y-1980692D01*
G01X26186896Y-1992122D01*
G01X26181054Y-2009140D01*
G01X26181054Y-2037842D01*
G01X26186896Y-2054860D01*
G01X26192484Y-2066290D01*
G01X26203914Y-2077720D01*
G01X26215344Y-2083562D01*
G01X26238204Y-2083562D01*
G01X26249634Y-2077720D01*
G01X26261064Y-2066290D01*
G01X26266906Y-2054860D01*
G01X26272494Y-2037842D01*
G01X26272494Y-2009140D01*
G01X26266906Y-1992122D01*
G01X26261064Y-1980692D01*
G01X26249634Y-1969262D01*
G01X26238204Y-1963420D01*
G01X26215344Y-1963420D01*
G01X26320246Y-2003552D02*
G01X26354536Y-2083562D01*
G01X26388826Y-2003552D02*
G01X26354536Y-2083562D01*
G01X26505158Y-2003552D02*
G01X26505158Y-2083562D01*
G01X26505158Y-2020570D02*
G01X26493728Y-2009140D01*
G01X26482298Y-2003552D01*
G01X26465280Y-2003552D01*
G01X26453850Y-2009140D01*
G01X26442420Y-2020570D01*
G01X26436578Y-2037842D01*
G01X26436578Y-2049272D01*
G01X26442420Y-2066290D01*
G01X26453850Y-2077720D01*
G01X26465280Y-2083562D01*
G01X26482298Y-2083562D01*
G01X26493728Y-2077720D01*
G01X26505158Y-2066290D01*
G01X26552910Y-1963420D02*
G01X26552910Y-2083562D01*
G01X28140555Y-1963420D02*
G01X28140555Y-2083562D01*
G01X28100423Y-1963420D02*
G01X28180433Y-1963420D01*
G01X28256887Y-2003552D02*
G01X28245457Y-2009140D01*
G01X28234027Y-2020570D01*
G01X28228185Y-2037842D01*
G01X28228185Y-2049272D01*
G01X28234027Y-2066290D01*
G01X28245457Y-2077720D01*
G01X28256887Y-2083562D01*
G01X28273905Y-2083562D01*
G01X28285335Y-2077720D01*
G01X28296765Y-2066290D01*
G01X28302607Y-2049272D01*
G01X28302607Y-2037842D01*
G01X28296765Y-2020570D01*
G01X28285335Y-2009140D01*
G01X28273905Y-2003552D01*
G01X28256887Y-2003552D01*
G01X28350359Y-2003552D02*
G01X28350359Y-2123440D01*
G01X28350359Y-2020570D02*
G01X28361789Y-2009140D01*
G01X28373219Y-2003552D01*
G01X28390491Y-2003552D01*
G01X28401921Y-2009140D01*
G01X28413351Y-2020570D01*
G01X28418939Y-2037842D01*
G01X28418939Y-2049272D01*
G01X28413351Y-2066290D01*
G01X28401921Y-2077720D01*
G01X28390491Y-2083562D01*
G01X28373219Y-2083562D01*
G01X28361789Y-2077720D01*
G01X28350359Y-2066290D01*
G01X28594707Y-1963420D02*
G01X28594707Y-2083562D01*
G01X28594707Y-2083562D02*
G01X28663287Y-2083562D01*
G01X28779619Y-2003552D02*
G01X28779619Y-2083562D01*
G01X28779619Y-2020570D02*
G01X28768189Y-2009140D01*
G01X28756759Y-2003552D01*
G01X28739741Y-2003552D01*
G01X28728311Y-2009140D01*
G01X28716881Y-2020570D01*
G01X28711039Y-2037842D01*
G01X28711039Y-2049272D01*
G01X28716881Y-2066290D01*
G01X28728311Y-2077720D01*
G01X28739741Y-2083562D01*
G01X28756759Y-2083562D01*
G01X28768189Y-2077720D01*
G01X28779619Y-2066290D01*
G01X28833213Y-2003552D02*
G01X28867503Y-2083562D01*
G01X28901793Y-2003552D02*
G01X28867503Y-2083562D01*
G01X28856073Y-2106422D01*
G01X28844643Y-2117852D01*
G01X28833213Y-2123440D01*
G01X28827371Y-2123440D01*
G01X28949545Y-2037842D02*
G01X29018125Y-2037842D01*
G01X29018125Y-2026412D01*
G01X29012537Y-2014982D01*
G01X29006695Y-2009140D01*
G01X28995265Y-2003552D01*
G01X28978247Y-2003552D01*
G01X28966817Y-2009140D01*
G01X28955387Y-2020570D01*
G01X28949545Y-2037842D01*
G01X28949545Y-2049272D01*
G01X28955387Y-2066290D01*
G01X28966817Y-2077720D01*
G01X28978247Y-2083562D01*
G01X28995265Y-2083562D01*
G01X29006695Y-2077720D01*
G01X29018125Y-2066290D01*
G01X29065877Y-2003552D02*
G01X29065877Y-2083562D01*
G01X29065877Y-2037842D02*
G01X29071719Y-2020570D01*
G01X29083149Y-2009140D01*
G01X29094579Y-2003552D01*
G01X29111597Y-2003552D01*
G01X29159349Y-2032000D02*
G01X29262219Y-2032000D01*
G01X29309971Y-1963420D02*
G01X29309971Y-2083562D01*
G01X29309971Y-1963420D02*
G01X29361533Y-1963420D01*
G01X29378551Y-1969262D01*
G01X29384393Y-1974850D01*
G01X29389981Y-1986280D01*
G01X29389981Y-1997710D01*
G01X29384393Y-2009140D01*
G01X29378551Y-2014982D01*
G01X29361533Y-2020570D01*
G01X29309971Y-2020570D02*
G01X29361533Y-2020570D01*
G01X29378551Y-2026412D01*
G01X29384393Y-2032000D01*
G01X29389981Y-2043430D01*
G01X29389981Y-2060702D01*
G01X29384393Y-2072132D01*
G01X29378551Y-2077720D01*
G01X29361533Y-2083562D01*
G01X29309971Y-2083562D01*
G01X29466435Y-2003552D02*
G01X29455005Y-2009140D01*
G01X29443575Y-2020570D01*
G01X29437733Y-2037842D01*
G01X29437733Y-2049272D01*
G01X29443575Y-2066290D01*
G01X29455005Y-2077720D01*
G01X29466435Y-2083562D01*
G01X29483453Y-2083562D01*
G01X29494883Y-2077720D01*
G01X29506313Y-2066290D01*
G01X29512155Y-2049272D01*
G01X29512155Y-2037842D01*
G01X29506313Y-2020570D01*
G01X29494883Y-2009140D01*
G01X29483453Y-2003552D01*
G01X29466435Y-2003552D01*
G01X29577179Y-1963420D02*
G01X29577179Y-2060702D01*
G01X29582767Y-2077720D01*
G01X29594197Y-2083562D01*
G01X29605627Y-2083562D01*
G01X29559907Y-2003552D02*
G01X29600039Y-2003552D01*
G01X29670651Y-1963420D02*
G01X29670651Y-2060702D01*
G01X29676239Y-2077720D01*
G01X29687669Y-2083562D01*
G01X29699099Y-2083562D01*
G01X29653379Y-2003552D02*
G01X29693511Y-2003552D01*
G01X29775553Y-2003552D02*
G01X29764123Y-2009140D01*
G01X29752693Y-2020570D01*
G01X29746851Y-2037842D01*
G01X29746851Y-2049272D01*
G01X29752693Y-2066290D01*
G01X29764123Y-2077720D01*
G01X29775553Y-2083562D01*
G01X29792571Y-2083562D01*
G01X29804001Y-2077720D01*
G01X29815431Y-2066290D01*
G01X29821273Y-2049272D01*
G01X29821273Y-2037842D01*
G01X29815431Y-2020570D01*
G01X29804001Y-2009140D01*
G01X29792571Y-2003552D01*
G01X29775553Y-2003552D01*
G01X29869025Y-2003552D02*
G01X29869025Y-2083562D01*
G01X29869025Y-2026412D02*
G01X29886297Y-2009140D01*
G01X29897727Y-2003552D01*
G01X29914745Y-2003552D01*
G01X29926175Y-2009140D01*
G01X29932017Y-2026412D01*
G01X29932017Y-2083562D01*
G01X29932017Y-2026412D02*
G01X29949035Y-2009140D01*
G01X29960465Y-2003552D01*
G01X29977737Y-2003552D01*
G01X29989167Y-2009140D01*
G01X29994755Y-2026412D01*
G01X29994755Y-2083562D01*
G01X30170523Y-1963420D02*
G01X30170523Y-2083562D01*
G01X30170523Y-2083562D02*
G01X30239103Y-2083562D01*
G01X30355435Y-2003552D02*
G01X30355435Y-2083562D01*
G01X30355435Y-2020570D02*
G01X30344005Y-2009140D01*
G01X30332575Y-2003552D01*
G01X30315557Y-2003552D01*
G01X30304127Y-2009140D01*
G01X30292697Y-2020570D01*
G01X30286855Y-2037842D01*
G01X30286855Y-2049272D01*
G01X30292697Y-2066290D01*
G01X30304127Y-2077720D01*
G01X30315557Y-2083562D01*
G01X30332575Y-2083562D01*
G01X30344005Y-2077720D01*
G01X30355435Y-2066290D01*
G01X30409029Y-2003552D02*
G01X30443319Y-2083562D01*
G01X30477609Y-2003552D02*
G01X30443319Y-2083562D01*
G01X30431889Y-2106422D01*
G01X30420459Y-2117852D01*
G01X30409029Y-2123440D01*
G01X30403187Y-2123440D01*
G01X30525361Y-2037842D02*
G01X30593941Y-2037842D01*
G01X30593941Y-2026412D01*
G01X30588353Y-2014982D01*
G01X30582511Y-2009140D01*
G01X30571081Y-2003552D01*
G01X30554063Y-2003552D01*
G01X30542633Y-2009140D01*
G01X30531203Y-2020570D01*
G01X30525361Y-2037842D01*
G01X30525361Y-2049272D01*
G01X30531203Y-2066290D01*
G01X30542633Y-2077720D01*
G01X30554063Y-2083562D01*
G01X30571081Y-2083562D01*
G01X30582511Y-2077720D01*
G01X30593941Y-2066290D01*
G01X30641693Y-2003552D02*
G01X30641693Y-2083562D01*
G01X30641693Y-2037842D02*
G01X30647535Y-2020570D01*
G01X30658965Y-2009140D01*
G01X30670395Y-2003552D01*
G01X30687413Y-2003552D01*
G01X16152916Y-2572693D02*
G01X16152916Y-2566851D01*
G01X16158504Y-2555421D01*
G01X16164346Y-2549833D01*
G01X16175776Y-2543991D01*
G01X16198636Y-2543991D01*
G01X16210066Y-2549833D01*
G01X16215654Y-2555421D01*
G01X16221496Y-2566851D01*
G01X16221496Y-2578281D01*
G01X16215654Y-2589711D01*
G01X16204224Y-2606983D01*
G01X16147074Y-2664133D01*
G01X16227084Y-2664133D01*
G01X17567079Y-2572693D02*
G01X17567079Y-2566851D01*
G01X17572667Y-2555421D01*
G01X17578509Y-2549833D01*
G01X17589939Y-2543991D01*
G01X17612799Y-2543991D01*
G01X17624229Y-2549833D01*
G01X17629817Y-2555421D01*
G01X17635659Y-2566851D01*
G01X17635659Y-2578281D01*
G01X17629817Y-2589711D01*
G01X17618387Y-2606983D01*
G01X17561237Y-2664133D01*
G01X17641247Y-2664133D01*
G01X17769009Y-2543991D02*
G01X17711859Y-2664133D01*
G01X17688999Y-2543991D02*
G01X17769009Y-2543991D01*
G01X17822603Y-2635431D02*
G01X17816761Y-2641273D01*
G01X17822603Y-2646861D01*
G01X17828191Y-2641273D01*
G01X17822603Y-2635431D01*
G01X17944523Y-2561263D02*
G01X17938935Y-2549833D01*
G01X17921663Y-2543991D01*
G01X17910233Y-2543991D01*
G01X17893215Y-2549833D01*
G01X17881785Y-2566851D01*
G01X17875943Y-2595553D01*
G01X17875943Y-2624001D01*
G01X17881785Y-2646861D01*
G01X17893215Y-2658291D01*
G01X17910233Y-2664133D01*
G01X17916075Y-2664133D01*
G01X17933093Y-2658291D01*
G01X17944523Y-2646861D01*
G01X17950365Y-2629843D01*
G01X17950365Y-2624001D01*
G01X17944523Y-2606983D01*
G01X17933093Y-2595553D01*
G01X17916075Y-2589711D01*
G01X17910233Y-2589711D01*
G01X17893215Y-2595553D01*
G01X17881785Y-2606983D01*
G01X17875943Y-2624001D01*
G01X17998117Y-2584123D02*
G01X17998117Y-2664133D01*
G01X17998117Y-2606983D02*
G01X18015389Y-2589711D01*
G01X18026819Y-2584123D01*
G01X18043837Y-2584123D01*
G01X18055267Y-2589711D01*
G01X18061109Y-2606983D01*
G01X18061109Y-2664133D01*
G01X18061109Y-2606983D02*
G01X18078127Y-2589711D01*
G01X18089557Y-2584123D01*
G01X18106829Y-2584123D01*
G01X18118259Y-2589711D01*
G01X18123847Y-2606983D01*
G01X18123847Y-2664133D01*
G01X18171599Y-2543991D02*
G01X18177441Y-2549833D01*
G01X18183029Y-2543991D01*
G01X18177441Y-2538403D01*
G01X18171599Y-2543991D01*
G01X18177441Y-2584123D02*
G01X18177441Y-2664133D01*
G01X18230781Y-2543991D02*
G01X18230781Y-2664133D01*
G01X18318665Y-2521131D02*
G01X18307235Y-2532561D01*
G01X18295805Y-2549833D01*
G01X18284375Y-2572693D01*
G01X18278533Y-2601141D01*
G01X18278533Y-2624001D01*
G01X18284375Y-2652703D01*
G01X18295805Y-2675563D01*
G01X18307235Y-2692581D01*
G01X18318665Y-2704011D01*
G01X18400707Y-2543991D02*
G01X18383689Y-2549833D01*
G01X18372259Y-2566851D01*
G01X18366417Y-2595553D01*
G01X18366417Y-2612571D01*
G01X18372259Y-2641273D01*
G01X18383689Y-2658291D01*
G01X18400707Y-2664133D01*
G01X18412137Y-2664133D01*
G01X18429409Y-2658291D01*
G01X18440839Y-2641273D01*
G01X18446427Y-2612571D01*
G01X18446427Y-2595553D01*
G01X18440839Y-2566851D01*
G01X18429409Y-2549833D01*
G01X18412137Y-2543991D01*
G01X18400707Y-2543991D01*
G01X18500021Y-2635431D02*
G01X18494179Y-2641273D01*
G01X18500021Y-2646861D01*
G01X18505609Y-2641273D01*
G01X18500021Y-2635431D01*
G01X18633371Y-2543991D02*
G01X18576221Y-2664133D01*
G01X18553361Y-2543991D02*
G01X18633371Y-2543991D01*
G01X18715413Y-2543991D02*
G01X18698395Y-2549833D01*
G01X18686965Y-2566851D01*
G01X18681123Y-2595553D01*
G01X18681123Y-2612571D01*
G01X18686965Y-2641273D01*
G01X18698395Y-2658291D01*
G01X18715413Y-2664133D01*
G01X18726843Y-2664133D01*
G01X18744115Y-2658291D01*
G01X18755545Y-2641273D01*
G01X18761133Y-2612571D01*
G01X18761133Y-2595553D01*
G01X18755545Y-2566851D01*
G01X18744115Y-2549833D01*
G01X18726843Y-2543991D01*
G01X18715413Y-2543991D01*
G01X18843175Y-2543991D02*
G01X18826157Y-2549833D01*
G01X18814727Y-2566851D01*
G01X18808885Y-2595553D01*
G01X18808885Y-2612571D01*
G01X18814727Y-2641273D01*
G01X18826157Y-2658291D01*
G01X18843175Y-2664133D01*
G01X18854605Y-2664133D01*
G01X18871877Y-2658291D01*
G01X18883307Y-2641273D01*
G01X18888895Y-2612571D01*
G01X18888895Y-2595553D01*
G01X18883307Y-2566851D01*
G01X18871877Y-2549833D01*
G01X18854605Y-2543991D01*
G01X18843175Y-2543991D01*
G01X18936647Y-2584123D02*
G01X18936647Y-2664133D01*
G01X18936647Y-2606983D02*
G01X18953919Y-2589711D01*
G01X18965349Y-2584123D01*
G01X18982367Y-2584123D01*
G01X18993797Y-2589711D01*
G01X18999639Y-2606983D01*
G01X18999639Y-2664133D01*
G01X18999639Y-2606983D02*
G01X19016657Y-2589711D01*
G01X19028087Y-2584123D01*
G01X19045359Y-2584123D01*
G01X19056789Y-2589711D01*
G01X19062377Y-2606983D01*
G01X19062377Y-2664133D01*
G01X19110129Y-2584123D02*
G01X19110129Y-2664133D01*
G01X19110129Y-2606983D02*
G01X19127401Y-2589711D01*
G01X19138831Y-2584123D01*
G01X19155849Y-2584123D01*
G01X19167279Y-2589711D01*
G01X19173121Y-2606983D01*
G01X19173121Y-2664133D01*
G01X19173121Y-2606983D02*
G01X19190139Y-2589711D01*
G01X19201569Y-2584123D01*
G01X19218841Y-2584123D01*
G01X19230271Y-2589711D01*
G01X19235859Y-2606983D01*
G01X19235859Y-2664133D01*
G01X19283611Y-2521131D02*
G01X19295041Y-2532561D01*
G01X19306471Y-2549833D01*
G01X19317901Y-2572693D01*
G01X19323743Y-2601141D01*
G01X19323743Y-2624001D01*
G01X19317901Y-2652703D01*
G01X19306471Y-2675563D01*
G01X19295041Y-2692581D01*
G01X19283611Y-2704011D01*
G01X21619287Y-2543991D02*
G01X21619287Y-2664133D01*
G01X21619287Y-2543991D02*
G01X21699297Y-2664133D01*
G01X21699297Y-2543991D02*
G01X21699297Y-2664133D01*
G01X21747049Y-2543991D02*
G01X21747049Y-2664133D01*
G01X21747049Y-2543991D02*
G01X21798611Y-2543991D01*
G01X21815629Y-2549833D01*
G01X21821471Y-2555421D01*
G01X21827059Y-2566851D01*
G01X21827059Y-2584123D01*
G01X21821471Y-2595553D01*
G01X21815629Y-2601141D01*
G01X21798611Y-2606983D01*
G01X21747049Y-2606983D01*
G01X21914943Y-2543991D02*
G01X21914943Y-2664133D01*
G01X21874811Y-2543991D02*
G01X21954821Y-2543991D01*
G01X22002573Y-2543991D02*
G01X22002573Y-2664133D01*
G01X22082583Y-2543991D02*
G01X22082583Y-2664133D01*
G01X22002573Y-2601141D02*
G01X22082583Y-2601141D01*
G01X23080694Y-2543991D02*
G01X23080694Y-2664133D01*
G01X23080694Y-2543991D02*
G01X23132256Y-2543991D01*
G01X23149274Y-2549833D01*
G01X23155116Y-2555421D01*
G01X23160704Y-2566851D01*
G01X23160704Y-2578281D01*
G01X23155116Y-2589711D01*
G01X23149274Y-2595553D01*
G01X23132256Y-2601141D01*
G01X23080694Y-2601141D01*
G01X23120826Y-2601141D02*
G01X23160704Y-2664133D01*
G01X23237158Y-2584123D02*
G01X23225728Y-2589711D01*
G01X23214298Y-2601141D01*
G01X23208456Y-2618413D01*
G01X23208456Y-2629843D01*
G01X23214298Y-2646861D01*
G01X23225728Y-2658291D01*
G01X23237158Y-2664133D01*
G01X23254176Y-2664133D01*
G01X23265606Y-2658291D01*
G01X23277036Y-2646861D01*
G01X23282878Y-2629843D01*
G01X23282878Y-2618413D01*
G01X23277036Y-2601141D01*
G01X23265606Y-2589711D01*
G01X23254176Y-2584123D01*
G01X23237158Y-2584123D01*
G01X23330630Y-2584123D02*
G01X23330630Y-2641273D01*
G01X23336472Y-2658291D01*
G01X23347902Y-2664133D01*
G01X23364920Y-2664133D01*
G01X23376350Y-2658291D01*
G01X23393622Y-2641273D01*
G01X23393622Y-2584123D02*
G01X23393622Y-2664133D01*
G01X23441374Y-2584123D02*
G01X23441374Y-2664133D01*
G01X23441374Y-2606983D02*
G01X23458646Y-2589711D01*
G01X23470076Y-2584123D01*
G01X23487094Y-2584123D01*
G01X23498524Y-2589711D01*
G01X23504366Y-2606983D01*
G01X23504366Y-2664133D01*
G01X23620698Y-2543991D02*
G01X23620698Y-2664133D01*
G01X23620698Y-2601141D02*
G01X23609268Y-2589711D01*
G01X23597838Y-2584123D01*
G01X23580820Y-2584123D01*
G01X23569390Y-2589711D01*
G01X23557960Y-2601141D01*
G01X23552118Y-2618413D01*
G01X23552118Y-2629843D01*
G01X23557960Y-2646861D01*
G01X23569390Y-2658291D01*
G01X23580820Y-2664133D01*
G01X23597838Y-2664133D01*
G01X23609268Y-2658291D01*
G01X23620698Y-2646861D01*
G01X24511875Y-2543991D02*
G01X24557595Y-2664133D01*
G01X24603315Y-2543991D02*
G01X24557595Y-2664133D01*
G01X24651067Y-2543991D02*
G01X24656909Y-2549833D01*
G01X24662497Y-2543991D01*
G01X24656909Y-2538403D01*
G01X24651067Y-2543991D01*
G01X24656909Y-2584123D02*
G01X24656909Y-2664133D01*
G01X24778829Y-2584123D02*
G01X24778829Y-2664133D01*
G01X24778829Y-2601141D02*
G01X24767399Y-2589711D01*
G01X24755969Y-2584123D01*
G01X24738951Y-2584123D01*
G01X24727521Y-2589711D01*
G01X24716091Y-2601141D01*
G01X24710249Y-2618413D01*
G01X24710249Y-2629843D01*
G01X24716091Y-2646861D01*
G01X24727521Y-2658291D01*
G01X24738951Y-2664133D01*
G01X24755969Y-2664133D01*
G01X24767399Y-2658291D01*
G01X24778829Y-2646861D01*
G01X28140555Y-2543991D02*
G01X28140555Y-2664133D01*
G01X28100423Y-2543991D02*
G01X28180433Y-2543991D01*
G01X28256887Y-2584123D02*
G01X28245457Y-2589711D01*
G01X28234027Y-2601141D01*
G01X28228185Y-2618413D01*
G01X28228185Y-2629843D01*
G01X28234027Y-2646861D01*
G01X28245457Y-2658291D01*
G01X28256887Y-2664133D01*
G01X28273905Y-2664133D01*
G01X28285335Y-2658291D01*
G01X28296765Y-2646861D01*
G01X28302607Y-2629843D01*
G01X28302607Y-2618413D01*
G01X28296765Y-2601141D01*
G01X28285335Y-2589711D01*
G01X28273905Y-2584123D01*
G01X28256887Y-2584123D01*
G01X28350359Y-2584123D02*
G01X28350359Y-2704011D01*
G01X28350359Y-2601141D02*
G01X28361789Y-2589711D01*
G01X28373219Y-2584123D01*
G01X28390491Y-2584123D01*
G01X28401921Y-2589711D01*
G01X28413351Y-2601141D01*
G01X28418939Y-2618413D01*
G01X28418939Y-2629843D01*
G01X28413351Y-2646861D01*
G01X28401921Y-2658291D01*
G01X28390491Y-2664133D01*
G01X28373219Y-2664133D01*
G01X28361789Y-2658291D01*
G01X28350359Y-2646861D01*
G01X28594707Y-2543991D02*
G01X28594707Y-2664133D01*
G01X28594707Y-2664133D02*
G01X28663287Y-2664133D01*
G01X28779619Y-2584123D02*
G01X28779619Y-2664133D01*
G01X28779619Y-2601141D02*
G01X28768189Y-2589711D01*
G01X28756759Y-2584123D01*
G01X28739741Y-2584123D01*
G01X28728311Y-2589711D01*
G01X28716881Y-2601141D01*
G01X28711039Y-2618413D01*
G01X28711039Y-2629843D01*
G01X28716881Y-2646861D01*
G01X28728311Y-2658291D01*
G01X28739741Y-2664133D01*
G01X28756759Y-2664133D01*
G01X28768189Y-2658291D01*
G01X28779619Y-2646861D01*
G01X28833213Y-2584123D02*
G01X28867503Y-2664133D01*
G01X28901793Y-2584123D02*
G01X28867503Y-2664133D01*
G01X28856073Y-2686993D01*
G01X28844643Y-2698423D01*
G01X28833213Y-2704011D01*
G01X28827371Y-2704011D01*
G01X28949545Y-2618413D02*
G01X29018125Y-2618413D01*
G01X29018125Y-2606983D01*
G01X29012537Y-2595553D01*
G01X29006695Y-2589711D01*
G01X28995265Y-2584123D01*
G01X28978247Y-2584123D01*
G01X28966817Y-2589711D01*
G01X28955387Y-2601141D01*
G01X28949545Y-2618413D01*
G01X28949545Y-2629843D01*
G01X28955387Y-2646861D01*
G01X28966817Y-2658291D01*
G01X28978247Y-2664133D01*
G01X28995265Y-2664133D01*
G01X29006695Y-2658291D01*
G01X29018125Y-2646861D01*
G01X29065877Y-2584123D02*
G01X29065877Y-2664133D01*
G01X29065877Y-2618413D02*
G01X29071719Y-2601141D01*
G01X29083149Y-2589711D01*
G01X29094579Y-2584123D01*
G01X29111597Y-2584123D01*
G01X29159349Y-2612571D02*
G01X29262219Y-2612571D01*
G01X29309971Y-2543991D02*
G01X29309971Y-2664133D01*
G01X29309971Y-2543991D02*
G01X29361533Y-2543991D01*
G01X29378551Y-2549833D01*
G01X29384393Y-2555421D01*
G01X29389981Y-2566851D01*
G01X29389981Y-2578281D01*
G01X29384393Y-2589711D01*
G01X29378551Y-2595553D01*
G01X29361533Y-2601141D01*
G01X29309971Y-2601141D02*
G01X29361533Y-2601141D01*
G01X29378551Y-2606983D01*
G01X29384393Y-2612571D01*
G01X29389981Y-2624001D01*
G01X29389981Y-2641273D01*
G01X29384393Y-2652703D01*
G01X29378551Y-2658291D01*
G01X29361533Y-2664133D01*
G01X29309971Y-2664133D01*
G01X29466435Y-2584123D02*
G01X29455005Y-2589711D01*
G01X29443575Y-2601141D01*
G01X29437733Y-2618413D01*
G01X29437733Y-2629843D01*
G01X29443575Y-2646861D01*
G01X29455005Y-2658291D01*
G01X29466435Y-2664133D01*
G01X29483453Y-2664133D01*
G01X29494883Y-2658291D01*
G01X29506313Y-2646861D01*
G01X29512155Y-2629843D01*
G01X29512155Y-2618413D01*
G01X29506313Y-2601141D01*
G01X29494883Y-2589711D01*
G01X29483453Y-2584123D01*
G01X29466435Y-2584123D01*
G01X29577179Y-2543991D02*
G01X29577179Y-2641273D01*
G01X29582767Y-2658291D01*
G01X29594197Y-2664133D01*
G01X29605627Y-2664133D01*
G01X29559907Y-2584123D02*
G01X29600039Y-2584123D01*
G01X29670651Y-2543991D02*
G01X29670651Y-2641273D01*
G01X29676239Y-2658291D01*
G01X29687669Y-2664133D01*
G01X29699099Y-2664133D01*
G01X29653379Y-2584123D02*
G01X29693511Y-2584123D01*
G01X29775553Y-2584123D02*
G01X29764123Y-2589711D01*
G01X29752693Y-2601141D01*
G01X29746851Y-2618413D01*
G01X29746851Y-2629843D01*
G01X29752693Y-2646861D01*
G01X29764123Y-2658291D01*
G01X29775553Y-2664133D01*
G01X29792571Y-2664133D01*
G01X29804001Y-2658291D01*
G01X29815431Y-2646861D01*
G01X29821273Y-2629843D01*
G01X29821273Y-2618413D01*
G01X29815431Y-2601141D01*
G01X29804001Y-2589711D01*
G01X29792571Y-2584123D01*
G01X29775553Y-2584123D01*
G01X29869025Y-2584123D02*
G01X29869025Y-2664133D01*
G01X29869025Y-2606983D02*
G01X29886297Y-2589711D01*
G01X29897727Y-2584123D01*
G01X29914745Y-2584123D01*
G01X29926175Y-2589711D01*
G01X29932017Y-2606983D01*
G01X29932017Y-2664133D01*
G01X29932017Y-2606983D02*
G01X29949035Y-2589711D01*
G01X29960465Y-2584123D01*
G01X29977737Y-2584123D01*
G01X29989167Y-2589711D01*
G01X29994755Y-2606983D01*
G01X29994755Y-2664133D01*
G01X30170523Y-2543991D02*
G01X30170523Y-2664133D01*
G01X30170523Y-2664133D02*
G01X30239103Y-2664133D01*
G01X30355435Y-2584123D02*
G01X30355435Y-2664133D01*
G01X30355435Y-2601141D02*
G01X30344005Y-2589711D01*
G01X30332575Y-2584123D01*
G01X30315557Y-2584123D01*
G01X30304127Y-2589711D01*
G01X30292697Y-2601141D01*
G01X30286855Y-2618413D01*
G01X30286855Y-2629843D01*
G01X30292697Y-2646861D01*
G01X30304127Y-2658291D01*
G01X30315557Y-2664133D01*
G01X30332575Y-2664133D01*
G01X30344005Y-2658291D01*
G01X30355435Y-2646861D01*
G01X30409029Y-2584123D02*
G01X30443319Y-2664133D01*
G01X30477609Y-2584123D02*
G01X30443319Y-2664133D01*
G01X30431889Y-2686993D01*
G01X30420459Y-2698423D01*
G01X30409029Y-2704011D01*
G01X30403187Y-2704011D01*
G01X30525361Y-2618413D02*
G01X30593941Y-2618413D01*
G01X30593941Y-2606983D01*
G01X30588353Y-2595553D01*
G01X30582511Y-2589711D01*
G01X30571081Y-2584123D01*
G01X30554063Y-2584123D01*
G01X30542633Y-2589711D01*
G01X30531203Y-2601141D01*
G01X30525361Y-2618413D01*
G01X30525361Y-2629843D01*
G01X30531203Y-2646861D01*
G01X30542633Y-2658291D01*
G01X30554063Y-2664133D01*
G01X30571081Y-2664133D01*
G01X30582511Y-2658291D01*
G01X30593941Y-2646861D01*
G01X30641693Y-2584123D02*
G01X30641693Y-2664133D01*
G01X30641693Y-2618413D02*
G01X30647535Y-2601141D01*
G01X30658965Y-2589711D01*
G01X30670395Y-2584123D01*
G01X30687413Y-2584123D01*
G01X16204224Y-3124563D02*
G01X16147074Y-3204573D01*
G01X16232926Y-3204573D01*
G01X16204224Y-3124563D02*
G01X16204224Y-3244705D01*
G01X17629817Y-3141835D02*
G01X17624229Y-3130405D01*
G01X17606957Y-3124563D01*
G01X17595527Y-3124563D01*
G01X17578509Y-3130405D01*
G01X17567079Y-3147423D01*
G01X17561237Y-3176125D01*
G01X17561237Y-3204573D01*
G01X17567079Y-3227433D01*
G01X17578509Y-3238863D01*
G01X17595527Y-3244705D01*
G01X17601369Y-3244705D01*
G01X17618387Y-3238863D01*
G01X17629817Y-3227433D01*
G01X17635659Y-3210415D01*
G01X17635659Y-3204573D01*
G01X17629817Y-3187555D01*
G01X17618387Y-3176125D01*
G01X17601369Y-3170283D01*
G01X17595527Y-3170283D01*
G01X17578509Y-3176125D01*
G01X17567079Y-3187555D01*
G01X17561237Y-3204573D01*
G01X17694841Y-3124563D02*
G01X17757833Y-3124563D01*
G01X17723543Y-3170283D01*
G01X17740561Y-3170283D01*
G01X17751991Y-3176125D01*
G01X17757833Y-3181713D01*
G01X17763421Y-3198985D01*
G01X17763421Y-3210415D01*
G01X17757833Y-3227433D01*
G01X17746403Y-3238863D01*
G01X17729131Y-3244705D01*
G01X17712113Y-3244705D01*
G01X17694841Y-3238863D01*
G01X17689253Y-3233275D01*
G01X17683411Y-3221845D01*
G01X17817015Y-3216003D02*
G01X17811173Y-3221845D01*
G01X17817015Y-3227433D01*
G01X17822603Y-3221845D01*
G01X17817015Y-3216003D01*
G01X17904645Y-3124563D02*
G01X17887627Y-3130405D01*
G01X17876197Y-3147423D01*
G01X17870355Y-3176125D01*
G01X17870355Y-3193143D01*
G01X17876197Y-3221845D01*
G01X17887627Y-3238863D01*
G01X17904645Y-3244705D01*
G01X17916075Y-3244705D01*
G01X17933347Y-3238863D01*
G01X17944777Y-3221845D01*
G01X17950365Y-3193143D01*
G01X17950365Y-3176125D01*
G01X17944777Y-3147423D01*
G01X17933347Y-3130405D01*
G01X17916075Y-3124563D01*
G01X17904645Y-3124563D01*
G01X17998117Y-3164695D02*
G01X18061109Y-3244705D01*
G01X18061109Y-3164695D02*
G01X17998117Y-3244705D01*
G01X18177441Y-3141835D02*
G01X18171853Y-3130405D01*
G01X18154581Y-3124563D01*
G01X18143151Y-3124563D01*
G01X18126133Y-3130405D01*
G01X18114703Y-3147423D01*
G01X18108861Y-3176125D01*
G01X18108861Y-3204573D01*
G01X18114703Y-3227433D01*
G01X18126133Y-3238863D01*
G01X18143151Y-3244705D01*
G01X18148993Y-3244705D01*
G01X18166011Y-3238863D01*
G01X18177441Y-3227433D01*
G01X18183283Y-3210415D01*
G01X18183283Y-3204573D01*
G01X18177441Y-3187555D01*
G01X18166011Y-3176125D01*
G01X18148993Y-3170283D01*
G01X18143151Y-3170283D01*
G01X18126133Y-3176125D01*
G01X18114703Y-3187555D01*
G01X18108861Y-3204573D01*
G01X18242465Y-3124563D02*
G01X18305457Y-3124563D01*
G01X18271167Y-3170283D01*
G01X18288185Y-3170283D01*
G01X18299615Y-3176125D01*
G01X18305457Y-3181713D01*
G01X18311045Y-3198985D01*
G01X18311045Y-3210415D01*
G01X18305457Y-3227433D01*
G01X18294027Y-3238863D01*
G01X18276755Y-3244705D01*
G01X18259737Y-3244705D01*
G01X18242465Y-3238863D01*
G01X18236877Y-3233275D01*
G01X18231035Y-3221845D01*
G01X18364639Y-3216003D02*
G01X18358797Y-3221845D01*
G01X18364639Y-3227433D01*
G01X18370227Y-3221845D01*
G01X18364639Y-3216003D01*
G01X18452269Y-3124563D02*
G01X18435251Y-3130405D01*
G01X18423821Y-3147423D01*
G01X18417979Y-3176125D01*
G01X18417979Y-3193143D01*
G01X18423821Y-3221845D01*
G01X18435251Y-3238863D01*
G01X18452269Y-3244705D01*
G01X18463699Y-3244705D01*
G01X18480971Y-3238863D01*
G01X18492401Y-3221845D01*
G01X18497989Y-3193143D01*
G01X18497989Y-3176125D01*
G01X18492401Y-3147423D01*
G01X18480971Y-3130405D01*
G01X18463699Y-3124563D01*
G01X18452269Y-3124563D01*
G01X18545741Y-3164695D02*
G01X18545741Y-3244705D01*
G01X18545741Y-3187555D02*
G01X18563013Y-3170283D01*
G01X18574443Y-3164695D01*
G01X18591461Y-3164695D01*
G01X18602891Y-3170283D01*
G01X18608733Y-3187555D01*
G01X18608733Y-3244705D01*
G01X18608733Y-3187555D02*
G01X18625751Y-3170283D01*
G01X18637181Y-3164695D01*
G01X18654453Y-3164695D01*
G01X18665883Y-3170283D01*
G01X18671471Y-3187555D01*
G01X18671471Y-3244705D01*
G01X18719223Y-3124563D02*
G01X18725065Y-3130405D01*
G01X18730653Y-3124563D01*
G01X18725065Y-3118975D01*
G01X18719223Y-3124563D01*
G01X18725065Y-3164695D02*
G01X18725065Y-3244705D01*
G01X18778405Y-3124563D02*
G01X18778405Y-3244705D01*
G01X18866289Y-3101703D02*
G01X18854859Y-3113133D01*
G01X18843429Y-3130405D01*
G01X18831999Y-3153265D01*
G01X18826157Y-3181713D01*
G01X18826157Y-3204573D01*
G01X18831999Y-3233275D01*
G01X18843429Y-3256135D01*
G01X18854859Y-3273153D01*
G01X18866289Y-3284583D01*
G01X18914041Y-3147423D02*
G01X18925471Y-3141835D01*
G01X18942743Y-3124563D01*
G01X18942743Y-3244705D01*
G01X18996337Y-3216003D02*
G01X18990495Y-3221845D01*
G01X18996337Y-3227433D01*
G01X19001925Y-3221845D01*
G01X18996337Y-3216003D01*
G01X19118257Y-3141835D02*
G01X19112669Y-3130405D01*
G01X19095397Y-3124563D01*
G01X19083967Y-3124563D01*
G01X19066949Y-3130405D01*
G01X19055519Y-3147423D01*
G01X19049677Y-3176125D01*
G01X19049677Y-3204573D01*
G01X19055519Y-3227433D01*
G01X19066949Y-3238863D01*
G01X19083967Y-3244705D01*
G01X19089809Y-3244705D01*
G01X19106827Y-3238863D01*
G01X19118257Y-3227433D01*
G01X19124099Y-3210415D01*
G01X19124099Y-3204573D01*
G01X19118257Y-3187555D01*
G01X19106827Y-3176125D01*
G01X19089809Y-3170283D01*
G01X19083967Y-3170283D01*
G01X19066949Y-3176125D01*
G01X19055519Y-3187555D01*
G01X19049677Y-3204573D01*
G01X19206141Y-3124563D02*
G01X19189123Y-3130405D01*
G01X19177693Y-3147423D01*
G01X19171851Y-3176125D01*
G01X19171851Y-3193143D01*
G01X19177693Y-3221845D01*
G01X19189123Y-3238863D01*
G01X19206141Y-3244705D01*
G01X19217571Y-3244705D01*
G01X19234843Y-3238863D01*
G01X19246273Y-3221845D01*
G01X19251861Y-3193143D01*
G01X19251861Y-3176125D01*
G01X19246273Y-3147423D01*
G01X19234843Y-3130405D01*
G01X19217571Y-3124563D01*
G01X19206141Y-3124563D01*
G01X19333903Y-3124563D02*
G01X19316885Y-3130405D01*
G01X19305455Y-3147423D01*
G01X19299613Y-3176125D01*
G01X19299613Y-3193143D01*
G01X19305455Y-3221845D01*
G01X19316885Y-3238863D01*
G01X19333903Y-3244705D01*
G01X19345333Y-3244705D01*
G01X19362605Y-3238863D01*
G01X19374035Y-3221845D01*
G01X19379623Y-3193143D01*
G01X19379623Y-3176125D01*
G01X19374035Y-3147423D01*
G01X19362605Y-3130405D01*
G01X19345333Y-3124563D01*
G01X19333903Y-3124563D01*
G01X19427375Y-3164695D02*
G01X19490367Y-3244705D01*
G01X19490367Y-3164695D02*
G01X19427375Y-3244705D01*
G01X19538119Y-3147423D02*
G01X19549549Y-3141835D01*
G01X19566821Y-3124563D01*
G01X19566821Y-3244705D01*
G01X19620415Y-3216003D02*
G01X19614573Y-3221845D01*
G01X19620415Y-3227433D01*
G01X19626003Y-3221845D01*
G01X19620415Y-3216003D01*
G01X19742335Y-3141835D02*
G01X19736747Y-3130405D01*
G01X19719475Y-3124563D01*
G01X19708045Y-3124563D01*
G01X19691027Y-3130405D01*
G01X19679597Y-3147423D01*
G01X19673755Y-3176125D01*
G01X19673755Y-3204573D01*
G01X19679597Y-3227433D01*
G01X19691027Y-3238863D01*
G01X19708045Y-3244705D01*
G01X19713887Y-3244705D01*
G01X19730905Y-3238863D01*
G01X19742335Y-3227433D01*
G01X19748177Y-3210415D01*
G01X19748177Y-3204573D01*
G01X19742335Y-3187555D01*
G01X19730905Y-3176125D01*
G01X19713887Y-3170283D01*
G01X19708045Y-3170283D01*
G01X19691027Y-3176125D01*
G01X19679597Y-3187555D01*
G01X19673755Y-3204573D01*
G01X19830219Y-3124563D02*
G01X19813201Y-3130405D01*
G01X19801771Y-3147423D01*
G01X19795929Y-3176125D01*
G01X19795929Y-3193143D01*
G01X19801771Y-3221845D01*
G01X19813201Y-3238863D01*
G01X19830219Y-3244705D01*
G01X19841649Y-3244705D01*
G01X19858921Y-3238863D01*
G01X19870351Y-3221845D01*
G01X19875939Y-3193143D01*
G01X19875939Y-3176125D01*
G01X19870351Y-3147423D01*
G01X19858921Y-3130405D01*
G01X19841649Y-3124563D01*
G01X19830219Y-3124563D01*
G01X19957981Y-3124563D02*
G01X19940963Y-3130405D01*
G01X19929533Y-3147423D01*
G01X19923691Y-3176125D01*
G01X19923691Y-3193143D01*
G01X19929533Y-3221845D01*
G01X19940963Y-3238863D01*
G01X19957981Y-3244705D01*
G01X19969411Y-3244705D01*
G01X19986683Y-3238863D01*
G01X19998113Y-3221845D01*
G01X20003701Y-3193143D01*
G01X20003701Y-3176125D01*
G01X19998113Y-3147423D01*
G01X19986683Y-3130405D01*
G01X19969411Y-3124563D01*
G01X19957981Y-3124563D01*
G01X20051453Y-3164695D02*
G01X20051453Y-3244705D01*
G01X20051453Y-3187555D02*
G01X20068725Y-3170283D01*
G01X20080155Y-3164695D01*
G01X20097173Y-3164695D01*
G01X20108603Y-3170283D01*
G01X20114445Y-3187555D01*
G01X20114445Y-3244705D01*
G01X20114445Y-3187555D02*
G01X20131463Y-3170283D01*
G01X20142893Y-3164695D01*
G01X20160165Y-3164695D01*
G01X20171595Y-3170283D01*
G01X20177183Y-3187555D01*
G01X20177183Y-3244705D01*
G01X20224935Y-3164695D02*
G01X20224935Y-3244705D01*
G01X20224935Y-3187555D02*
G01X20242207Y-3170283D01*
G01X20253637Y-3164695D01*
G01X20270655Y-3164695D01*
G01X20282085Y-3170283D01*
G01X20287927Y-3187555D01*
G01X20287927Y-3244705D01*
G01X20287927Y-3187555D02*
G01X20304945Y-3170283D01*
G01X20316375Y-3164695D01*
G01X20333647Y-3164695D01*
G01X20345077Y-3170283D01*
G01X20350665Y-3187555D01*
G01X20350665Y-3244705D01*
G01X20398417Y-3101703D02*
G01X20409847Y-3113133D01*
G01X20421277Y-3130405D01*
G01X20432707Y-3153265D01*
G01X20438549Y-3181713D01*
G01X20438549Y-3204573D01*
G01X20432707Y-3233275D01*
G01X20421277Y-3256135D01*
G01X20409847Y-3273153D01*
G01X20398417Y-3284583D01*
G01X21619287Y-3124563D02*
G01X21619287Y-3244705D01*
G01X21619287Y-3124563D02*
G01X21670849Y-3124563D01*
G01X21687867Y-3130405D01*
G01X21693709Y-3135993D01*
G01X21699297Y-3147423D01*
G01X21699297Y-3164695D01*
G01X21693709Y-3176125D01*
G01X21687867Y-3181713D01*
G01X21670849Y-3187555D01*
G01X21619287Y-3187555D01*
G01X21787181Y-3124563D02*
G01X21787181Y-3244705D01*
G01X21747049Y-3124563D02*
G01X21827059Y-3124563D01*
G01X21874811Y-3124563D02*
G01X21874811Y-3244705D01*
G01X21954821Y-3124563D02*
G01X21954821Y-3244705D01*
G01X21874811Y-3181713D02*
G01X21954821Y-3181713D01*
G01X23080694Y-3124563D02*
G01X23080694Y-3244705D01*
G01X23080694Y-3124563D02*
G01X23132256Y-3124563D01*
G01X23149274Y-3130405D01*
G01X23155116Y-3135993D01*
G01X23160704Y-3147423D01*
G01X23160704Y-3158853D01*
G01X23155116Y-3170283D01*
G01X23149274Y-3176125D01*
G01X23132256Y-3181713D01*
G01X23080694Y-3181713D01*
G01X23120826Y-3181713D02*
G01X23160704Y-3244705D01*
G01X23237158Y-3164695D02*
G01X23225728Y-3170283D01*
G01X23214298Y-3181713D01*
G01X23208456Y-3198985D01*
G01X23208456Y-3210415D01*
G01X23214298Y-3227433D01*
G01X23225728Y-3238863D01*
G01X23237158Y-3244705D01*
G01X23254176Y-3244705D01*
G01X23265606Y-3238863D01*
G01X23277036Y-3227433D01*
G01X23282878Y-3210415D01*
G01X23282878Y-3198985D01*
G01X23277036Y-3181713D01*
G01X23265606Y-3170283D01*
G01X23254176Y-3164695D01*
G01X23237158Y-3164695D01*
G01X23330630Y-3164695D02*
G01X23330630Y-3221845D01*
G01X23336472Y-3238863D01*
G01X23347902Y-3244705D01*
G01X23364920Y-3244705D01*
G01X23376350Y-3238863D01*
G01X23393622Y-3221845D01*
G01X23393622Y-3164695D02*
G01X23393622Y-3244705D01*
G01X23441374Y-3164695D02*
G01X23441374Y-3244705D01*
G01X23441374Y-3187555D02*
G01X23458646Y-3170283D01*
G01X23470076Y-3164695D01*
G01X23487094Y-3164695D01*
G01X23498524Y-3170283D01*
G01X23504366Y-3187555D01*
G01X23504366Y-3244705D01*
G01X23620698Y-3124563D02*
G01X23620698Y-3244705D01*
G01X23620698Y-3181713D02*
G01X23609268Y-3170283D01*
G01X23597838Y-3164695D01*
G01X23580820Y-3164695D01*
G01X23569390Y-3170283D01*
G01X23557960Y-3181713D01*
G01X23552118Y-3198985D01*
G01X23552118Y-3210415D01*
G01X23557960Y-3227433D01*
G01X23569390Y-3238863D01*
G01X23580820Y-3244705D01*
G01X23597838Y-3244705D01*
G01X23609268Y-3238863D01*
G01X23620698Y-3227433D01*
G01X24511875Y-3124563D02*
G01X24511875Y-3244705D01*
G01X24511875Y-3124563D02*
G01X24563437Y-3124563D01*
G01X24580455Y-3130405D01*
G01X24586297Y-3135993D01*
G01X24591885Y-3147423D01*
G01X24591885Y-3164695D01*
G01X24586297Y-3176125D01*
G01X24580455Y-3181713D01*
G01X24563437Y-3187555D01*
G01X24511875Y-3187555D01*
G01X24708217Y-3164695D02*
G01X24708217Y-3244705D01*
G01X24708217Y-3181713D02*
G01X24696787Y-3170283D01*
G01X24685357Y-3164695D01*
G01X24668339Y-3164695D01*
G01X24656909Y-3170283D01*
G01X24645479Y-3181713D01*
G01X24639637Y-3198985D01*
G01X24639637Y-3210415D01*
G01X24645479Y-3227433D01*
G01X24656909Y-3238863D01*
G01X24668339Y-3244705D01*
G01X24685357Y-3244705D01*
G01X24696787Y-3238863D01*
G01X24708217Y-3227433D01*
G01X24824549Y-3124563D02*
G01X24824549Y-3244705D01*
G01X24824549Y-3181713D02*
G01X24813119Y-3170283D01*
G01X24801689Y-3164695D01*
G01X24784671Y-3164695D01*
G01X24773241Y-3170283D01*
G01X24761811Y-3181713D01*
G01X24755969Y-3198985D01*
G01X24755969Y-3210415D01*
G01X24761811Y-3227433D01*
G01X24773241Y-3238863D01*
G01X24784671Y-3244705D01*
G01X24801689Y-3244705D01*
G01X24813119Y-3238863D01*
G01X24824549Y-3227433D01*
G01X26181054Y-3124563D02*
G01X26181054Y-3244705D01*
G01X26181054Y-3124563D02*
G01X26232616Y-3124563D01*
G01X26249634Y-3130405D01*
G01X26255476Y-3135993D01*
G01X26261064Y-3147423D01*
G01X26261064Y-3158853D01*
G01X26255476Y-3170283D01*
G01X26249634Y-3176125D01*
G01X26232616Y-3181713D01*
G01X26181054Y-3181713D01*
G01X26221186Y-3181713D02*
G01X26261064Y-3244705D01*
G01X26337518Y-3164695D02*
G01X26326088Y-3170283D01*
G01X26314658Y-3181713D01*
G01X26308816Y-3198985D01*
G01X26308816Y-3210415D01*
G01X26314658Y-3227433D01*
G01X26326088Y-3238863D01*
G01X26337518Y-3244705D01*
G01X26354536Y-3244705D01*
G01X26365966Y-3238863D01*
G01X26377396Y-3227433D01*
G01X26383238Y-3210415D01*
G01X26383238Y-3198985D01*
G01X26377396Y-3181713D01*
G01X26365966Y-3170283D01*
G01X26354536Y-3164695D01*
G01X26337518Y-3164695D01*
G01X26430990Y-3164695D02*
G01X26430990Y-3221845D01*
G01X26436832Y-3238863D01*
G01X26448262Y-3244705D01*
G01X26465280Y-3244705D01*
G01X26476710Y-3238863D01*
G01X26493982Y-3221845D01*
G01X26493982Y-3164695D02*
G01X26493982Y-3244705D01*
G01X26541734Y-3164695D02*
G01X26541734Y-3244705D01*
G01X26541734Y-3187555D02*
G01X26559006Y-3170283D01*
G01X26570436Y-3164695D01*
G01X26587454Y-3164695D01*
G01X26598884Y-3170283D01*
G01X26604726Y-3187555D01*
G01X26604726Y-3244705D01*
G01X26721058Y-3124563D02*
G01X26721058Y-3244705D01*
G01X26721058Y-3181713D02*
G01X26709628Y-3170283D01*
G01X26698198Y-3164695D01*
G01X26681180Y-3164695D01*
G01X26669750Y-3170283D01*
G01X26658320Y-3181713D01*
G01X26652478Y-3198985D01*
G01X26652478Y-3210415D01*
G01X26658320Y-3227433D01*
G01X26669750Y-3238863D01*
G01X26681180Y-3244705D01*
G01X26698198Y-3244705D01*
G01X26709628Y-3238863D01*
G01X26721058Y-3227433D01*
G01X28140555Y-3124563D02*
G01X28140555Y-3244705D01*
G01X28100423Y-3124563D02*
G01X28180433Y-3124563D01*
G01X28256887Y-3164695D02*
G01X28245457Y-3170283D01*
G01X28234027Y-3181713D01*
G01X28228185Y-3198985D01*
G01X28228185Y-3210415D01*
G01X28234027Y-3227433D01*
G01X28245457Y-3238863D01*
G01X28256887Y-3244705D01*
G01X28273905Y-3244705D01*
G01X28285335Y-3238863D01*
G01X28296765Y-3227433D01*
G01X28302607Y-3210415D01*
G01X28302607Y-3198985D01*
G01X28296765Y-3181713D01*
G01X28285335Y-3170283D01*
G01X28273905Y-3164695D01*
G01X28256887Y-3164695D01*
G01X28350359Y-3164695D02*
G01X28350359Y-3284583D01*
G01X28350359Y-3181713D02*
G01X28361789Y-3170283D01*
G01X28373219Y-3164695D01*
G01X28390491Y-3164695D01*
G01X28401921Y-3170283D01*
G01X28413351Y-3181713D01*
G01X28418939Y-3198985D01*
G01X28418939Y-3210415D01*
G01X28413351Y-3227433D01*
G01X28401921Y-3238863D01*
G01X28390491Y-3244705D01*
G01X28373219Y-3244705D01*
G01X28361789Y-3238863D01*
G01X28350359Y-3227433D01*
G01X28594707Y-3124563D02*
G01X28594707Y-3244705D01*
G01X28594707Y-3244705D02*
G01X28663287Y-3244705D01*
G01X28779619Y-3164695D02*
G01X28779619Y-3244705D01*
G01X28779619Y-3181713D02*
G01X28768189Y-3170283D01*
G01X28756759Y-3164695D01*
G01X28739741Y-3164695D01*
G01X28728311Y-3170283D01*
G01X28716881Y-3181713D01*
G01X28711039Y-3198985D01*
G01X28711039Y-3210415D01*
G01X28716881Y-3227433D01*
G01X28728311Y-3238863D01*
G01X28739741Y-3244705D01*
G01X28756759Y-3244705D01*
G01X28768189Y-3238863D01*
G01X28779619Y-3227433D01*
G01X28833213Y-3164695D02*
G01X28867503Y-3244705D01*
G01X28901793Y-3164695D02*
G01X28867503Y-3244705D01*
G01X28856073Y-3267565D01*
G01X28844643Y-3278995D01*
G01X28833213Y-3284583D01*
G01X28827371Y-3284583D01*
G01X28949545Y-3198985D02*
G01X29018125Y-3198985D01*
G01X29018125Y-3187555D01*
G01X29012537Y-3176125D01*
G01X29006695Y-3170283D01*
G01X28995265Y-3164695D01*
G01X28978247Y-3164695D01*
G01X28966817Y-3170283D01*
G01X28955387Y-3181713D01*
G01X28949545Y-3198985D01*
G01X28949545Y-3210415D01*
G01X28955387Y-3227433D01*
G01X28966817Y-3238863D01*
G01X28978247Y-3244705D01*
G01X28995265Y-3244705D01*
G01X29006695Y-3238863D01*
G01X29018125Y-3227433D01*
G01X29065877Y-3164695D02*
G01X29065877Y-3244705D01*
G01X29065877Y-3198985D02*
G01X29071719Y-3181713D01*
G01X29083149Y-3170283D01*
G01X29094579Y-3164695D01*
G01X29111597Y-3164695D01*
G01X29159349Y-3193143D02*
G01X29262219Y-3193143D01*
G01X29309971Y-3124563D02*
G01X29309971Y-3244705D01*
G01X29309971Y-3124563D02*
G01X29361533Y-3124563D01*
G01X29378551Y-3130405D01*
G01X29384393Y-3135993D01*
G01X29389981Y-3147423D01*
G01X29389981Y-3158853D01*
G01X29384393Y-3170283D01*
G01X29378551Y-3176125D01*
G01X29361533Y-3181713D01*
G01X29309971Y-3181713D02*
G01X29361533Y-3181713D01*
G01X29378551Y-3187555D01*
G01X29384393Y-3193143D01*
G01X29389981Y-3204573D01*
G01X29389981Y-3221845D01*
G01X29384393Y-3233275D01*
G01X29378551Y-3238863D01*
G01X29361533Y-3244705D01*
G01X29309971Y-3244705D01*
G01X29466435Y-3164695D02*
G01X29455005Y-3170283D01*
G01X29443575Y-3181713D01*
G01X29437733Y-3198985D01*
G01X29437733Y-3210415D01*
G01X29443575Y-3227433D01*
G01X29455005Y-3238863D01*
G01X29466435Y-3244705D01*
G01X29483453Y-3244705D01*
G01X29494883Y-3238863D01*
G01X29506313Y-3227433D01*
G01X29512155Y-3210415D01*
G01X29512155Y-3198985D01*
G01X29506313Y-3181713D01*
G01X29494883Y-3170283D01*
G01X29483453Y-3164695D01*
G01X29466435Y-3164695D01*
G01X29577179Y-3124563D02*
G01X29577179Y-3221845D01*
G01X29582767Y-3238863D01*
G01X29594197Y-3244705D01*
G01X29605627Y-3244705D01*
G01X29559907Y-3164695D02*
G01X29600039Y-3164695D01*
G01X29670651Y-3124563D02*
G01X29670651Y-3221845D01*
G01X29676239Y-3238863D01*
G01X29687669Y-3244705D01*
G01X29699099Y-3244705D01*
G01X29653379Y-3164695D02*
G01X29693511Y-3164695D01*
G01X29775553Y-3164695D02*
G01X29764123Y-3170283D01*
G01X29752693Y-3181713D01*
G01X29746851Y-3198985D01*
G01X29746851Y-3210415D01*
G01X29752693Y-3227433D01*
G01X29764123Y-3238863D01*
G01X29775553Y-3244705D01*
G01X29792571Y-3244705D01*
G01X29804001Y-3238863D01*
G01X29815431Y-3227433D01*
G01X29821273Y-3210415D01*
G01X29821273Y-3198985D01*
G01X29815431Y-3181713D01*
G01X29804001Y-3170283D01*
G01X29792571Y-3164695D01*
G01X29775553Y-3164695D01*
G01X29869025Y-3164695D02*
G01X29869025Y-3244705D01*
G01X29869025Y-3187555D02*
G01X29886297Y-3170283D01*
G01X29897727Y-3164695D01*
G01X29914745Y-3164695D01*
G01X29926175Y-3170283D01*
G01X29932017Y-3187555D01*
G01X29932017Y-3244705D01*
G01X29932017Y-3187555D02*
G01X29949035Y-3170283D01*
G01X29960465Y-3164695D01*
G01X29977737Y-3164695D01*
G01X29989167Y-3170283D01*
G01X29994755Y-3187555D01*
G01X29994755Y-3244705D01*
G01X30170523Y-3124563D02*
G01X30170523Y-3244705D01*
G01X30170523Y-3244705D02*
G01X30239103Y-3244705D01*
G01X30355435Y-3164695D02*
G01X30355435Y-3244705D01*
G01X30355435Y-3181713D02*
G01X30344005Y-3170283D01*
G01X30332575Y-3164695D01*
G01X30315557Y-3164695D01*
G01X30304127Y-3170283D01*
G01X30292697Y-3181713D01*
G01X30286855Y-3198985D01*
G01X30286855Y-3210415D01*
G01X30292697Y-3227433D01*
G01X30304127Y-3238863D01*
G01X30315557Y-3244705D01*
G01X30332575Y-3244705D01*
G01X30344005Y-3238863D01*
G01X30355435Y-3227433D01*
G01X30409029Y-3164695D02*
G01X30443319Y-3244705D01*
G01X30477609Y-3164695D02*
G01X30443319Y-3244705D01*
G01X30431889Y-3267565D01*
G01X30420459Y-3278995D01*
G01X30409029Y-3284583D01*
G01X30403187Y-3284583D01*
G01X30525361Y-3198985D02*
G01X30593941Y-3198985D01*
G01X30593941Y-3187555D01*
G01X30588353Y-3176125D01*
G01X30582511Y-3170283D01*
G01X30571081Y-3164695D01*
G01X30554063Y-3164695D01*
G01X30542633Y-3170283D01*
G01X30531203Y-3181713D01*
G01X30525361Y-3198985D01*
G01X30525361Y-3210415D01*
G01X30531203Y-3227433D01*
G01X30542633Y-3238863D01*
G01X30554063Y-3244705D01*
G01X30571081Y-3244705D01*
G01X30582511Y-3238863D01*
G01X30593941Y-3227433D01*
G01X30641693Y-3164695D02*
G01X30641693Y-3244705D01*
G01X30641693Y-3198985D02*
G01X30647535Y-3181713D01*
G01X30658965Y-3170283D01*
G01X30670395Y-3164695D01*
G01X30687413Y-3164695D01*
G01X16215654Y-3722406D02*
G01X16210066Y-3710976D01*
G01X16192794Y-3705134D01*
G01X16181364Y-3705134D01*
G01X16164346Y-3710976D01*
G01X16152916Y-3727994D01*
G01X16147074Y-3756696D01*
G01X16147074Y-3785144D01*
G01X16152916Y-3808004D01*
G01X16164346Y-3819434D01*
G01X16181364Y-3825276D01*
G01X16187206Y-3825276D01*
G01X16204224Y-3819434D01*
G01X16215654Y-3808004D01*
G01X16221496Y-3790986D01*
G01X16221496Y-3785144D01*
G01X16215654Y-3768126D01*
G01X16204224Y-3756696D01*
G01X16187206Y-3750854D01*
G01X16181364Y-3750854D01*
G01X16164346Y-3756696D01*
G01X16152916Y-3768126D01*
G01X16147074Y-3785144D01*
G01X17561237Y-3727994D02*
G01X17572667Y-3722406D01*
G01X17589939Y-3705134D01*
G01X17589939Y-3825276D01*
G01X17671981Y-3705134D02*
G01X17654963Y-3710976D01*
G01X17643533Y-3727994D01*
G01X17637691Y-3756696D01*
G01X17637691Y-3773714D01*
G01X17643533Y-3802416D01*
G01X17654963Y-3819434D01*
G01X17671981Y-3825276D01*
G01X17683411Y-3825276D01*
G01X17700683Y-3819434D01*
G01X17712113Y-3802416D01*
G01X17717701Y-3773714D01*
G01X17717701Y-3756696D01*
G01X17712113Y-3727994D01*
G01X17700683Y-3710976D01*
G01X17683411Y-3705134D01*
G01X17671981Y-3705134D01*
G01X17799743Y-3705134D02*
G01X17782725Y-3710976D01*
G01X17771295Y-3727994D01*
G01X17765453Y-3756696D01*
G01X17765453Y-3773714D01*
G01X17771295Y-3802416D01*
G01X17782725Y-3819434D01*
G01X17799743Y-3825276D01*
G01X17811173Y-3825276D01*
G01X17828445Y-3819434D01*
G01X17839875Y-3802416D01*
G01X17845463Y-3773714D01*
G01X17845463Y-3756696D01*
G01X17839875Y-3727994D01*
G01X17828445Y-3710976D01*
G01X17811173Y-3705134D01*
G01X17799743Y-3705134D01*
G01X17899057Y-3796574D02*
G01X17893215Y-3802416D01*
G01X17899057Y-3808004D01*
G01X17904645Y-3802416D01*
G01X17899057Y-3796574D01*
G01X17986687Y-3705134D02*
G01X17969669Y-3710976D01*
G01X17958239Y-3727994D01*
G01X17952397Y-3756696D01*
G01X17952397Y-3773714D01*
G01X17958239Y-3802416D01*
G01X17969669Y-3819434D01*
G01X17986687Y-3825276D01*
G01X17998117Y-3825276D01*
G01X18015389Y-3819434D01*
G01X18026819Y-3802416D01*
G01X18032407Y-3773714D01*
G01X18032407Y-3756696D01*
G01X18026819Y-3727994D01*
G01X18015389Y-3710976D01*
G01X17998117Y-3705134D01*
G01X17986687Y-3705134D01*
G01X18080159Y-3745266D02*
G01X18143151Y-3825276D01*
G01X18143151Y-3745266D02*
G01X18080159Y-3825276D01*
G01X18190903Y-3727994D02*
G01X18202333Y-3722406D01*
G01X18219605Y-3705134D01*
G01X18219605Y-3825276D01*
G01X18301647Y-3705134D02*
G01X18284629Y-3710976D01*
G01X18273199Y-3727994D01*
G01X18267357Y-3756696D01*
G01X18267357Y-3773714D01*
G01X18273199Y-3802416D01*
G01X18284629Y-3819434D01*
G01X18301647Y-3825276D01*
G01X18313077Y-3825276D01*
G01X18330349Y-3819434D01*
G01X18341779Y-3802416D01*
G01X18347367Y-3773714D01*
G01X18347367Y-3756696D01*
G01X18341779Y-3727994D01*
G01X18330349Y-3710976D01*
G01X18313077Y-3705134D01*
G01X18301647Y-3705134D01*
G01X18429409Y-3705134D02*
G01X18412391Y-3710976D01*
G01X18400961Y-3727994D01*
G01X18395119Y-3756696D01*
G01X18395119Y-3773714D01*
G01X18400961Y-3802416D01*
G01X18412391Y-3819434D01*
G01X18429409Y-3825276D01*
G01X18440839Y-3825276D01*
G01X18458111Y-3819434D01*
G01X18469541Y-3802416D01*
G01X18475129Y-3773714D01*
G01X18475129Y-3756696D01*
G01X18469541Y-3727994D01*
G01X18458111Y-3710976D01*
G01X18440839Y-3705134D01*
G01X18429409Y-3705134D01*
G01X18528723Y-3796574D02*
G01X18522881Y-3802416D01*
G01X18528723Y-3808004D01*
G01X18534311Y-3802416D01*
G01X18528723Y-3796574D01*
G01X18616353Y-3705134D02*
G01X18599335Y-3710976D01*
G01X18587905Y-3727994D01*
G01X18582063Y-3756696D01*
G01X18582063Y-3773714D01*
G01X18587905Y-3802416D01*
G01X18599335Y-3819434D01*
G01X18616353Y-3825276D01*
G01X18627783Y-3825276D01*
G01X18645055Y-3819434D01*
G01X18656485Y-3802416D01*
G01X18662073Y-3773714D01*
G01X18662073Y-3756696D01*
G01X18656485Y-3727994D01*
G01X18645055Y-3710976D01*
G01X18627783Y-3705134D01*
G01X18616353Y-3705134D01*
G01X18709825Y-3745266D02*
G01X18709825Y-3825276D01*
G01X18709825Y-3768126D02*
G01X18727097Y-3750854D01*
G01X18738527Y-3745266D01*
G01X18755545Y-3745266D01*
G01X18766975Y-3750854D01*
G01X18772817Y-3768126D01*
G01X18772817Y-3825276D01*
G01X18772817Y-3768126D02*
G01X18789835Y-3750854D01*
G01X18801265Y-3745266D01*
G01X18818537Y-3745266D01*
G01X18829967Y-3750854D01*
G01X18835555Y-3768126D01*
G01X18835555Y-3825276D01*
G01X18883307Y-3705134D02*
G01X18889149Y-3710976D01*
G01X18894737Y-3705134D01*
G01X18889149Y-3699546D01*
G01X18883307Y-3705134D01*
G01X18889149Y-3745266D02*
G01X18889149Y-3825276D01*
G01X18942489Y-3705134D02*
G01X18942489Y-3825276D01*
G01X19030373Y-3682274D02*
G01X19018943Y-3693704D01*
G01X19007513Y-3710976D01*
G01X18996083Y-3733836D01*
G01X18990241Y-3762284D01*
G01X18990241Y-3785144D01*
G01X18996083Y-3813846D01*
G01X19007513Y-3836706D01*
G01X19018943Y-3853724D01*
G01X19030373Y-3865154D01*
G01X19083967Y-3733836D02*
G01X19083967Y-3727994D01*
G01X19089555Y-3716564D01*
G01X19095397Y-3710976D01*
G01X19106827Y-3705134D01*
G01X19129687Y-3705134D01*
G01X19141117Y-3710976D01*
G01X19146705Y-3716564D01*
G01X19152547Y-3727994D01*
G01X19152547Y-3739424D01*
G01X19146705Y-3750854D01*
G01X19135275Y-3768126D01*
G01X19078125Y-3825276D01*
G01X19158135Y-3825276D01*
G01X19211729Y-3796574D02*
G01X19205887Y-3802416D01*
G01X19211729Y-3808004D01*
G01X19217317Y-3802416D01*
G01X19211729Y-3796574D01*
G01X19333649Y-3705134D02*
G01X19276499Y-3705134D01*
G01X19270911Y-3756696D01*
G01X19276499Y-3750854D01*
G01X19293771Y-3745266D01*
G01X19310789Y-3745266D01*
G01X19328061Y-3750854D01*
G01X19339491Y-3762284D01*
G01X19345079Y-3779556D01*
G01X19345079Y-3790986D01*
G01X19339491Y-3808004D01*
G01X19328061Y-3819434D01*
G01X19310789Y-3825276D01*
G01X19293771Y-3825276D01*
G01X19276499Y-3819434D01*
G01X19270911Y-3813846D01*
G01X19265069Y-3802416D01*
G01X19449981Y-3705134D02*
G01X19392831Y-3785144D01*
G01X19478683Y-3785144D01*
G01X19449981Y-3705134D02*
G01X19449981Y-3825276D01*
G01X19560725Y-3705134D02*
G01X19543707Y-3710976D01*
G01X19532277Y-3727994D01*
G01X19526435Y-3756696D01*
G01X19526435Y-3773714D01*
G01X19532277Y-3802416D01*
G01X19543707Y-3819434D01*
G01X19560725Y-3825276D01*
G01X19572155Y-3825276D01*
G01X19589427Y-3819434D01*
G01X19600857Y-3802416D01*
G01X19606445Y-3773714D01*
G01X19606445Y-3756696D01*
G01X19600857Y-3727994D01*
G01X19589427Y-3710976D01*
G01X19572155Y-3705134D01*
G01X19560725Y-3705134D01*
G01X19654197Y-3745266D02*
G01X19717189Y-3825276D01*
G01X19717189Y-3745266D02*
G01X19654197Y-3825276D01*
G01X19770783Y-3733836D02*
G01X19770783Y-3727994D01*
G01X19776371Y-3716564D01*
G01X19782213Y-3710976D01*
G01X19793643Y-3705134D01*
G01X19816503Y-3705134D01*
G01X19827933Y-3710976D01*
G01X19833521Y-3716564D01*
G01X19839363Y-3727994D01*
G01X19839363Y-3739424D01*
G01X19833521Y-3750854D01*
G01X19822091Y-3768126D01*
G01X19764941Y-3825276D01*
G01X19844951Y-3825276D01*
G01X19898545Y-3796574D02*
G01X19892703Y-3802416D01*
G01X19898545Y-3808004D01*
G01X19904133Y-3802416D01*
G01X19898545Y-3796574D01*
G01X20020465Y-3705134D02*
G01X19963315Y-3705134D01*
G01X19957727Y-3756696D01*
G01X19963315Y-3750854D01*
G01X19980587Y-3745266D01*
G01X19997605Y-3745266D01*
G01X20014877Y-3750854D01*
G01X20026307Y-3762284D01*
G01X20031895Y-3779556D01*
G01X20031895Y-3790986D01*
G01X20026307Y-3808004D01*
G01X20014877Y-3819434D01*
G01X19997605Y-3825276D01*
G01X19980587Y-3825276D01*
G01X19963315Y-3819434D01*
G01X19957727Y-3813846D01*
G01X19951885Y-3802416D01*
G01X20136797Y-3705134D02*
G01X20079647Y-3785144D01*
G01X20165499Y-3785144D01*
G01X20136797Y-3705134D02*
G01X20136797Y-3825276D01*
G01X20247541Y-3705134D02*
G01X20230523Y-3710976D01*
G01X20219093Y-3727994D01*
G01X20213251Y-3756696D01*
G01X20213251Y-3773714D01*
G01X20219093Y-3802416D01*
G01X20230523Y-3819434D01*
G01X20247541Y-3825276D01*
G01X20258971Y-3825276D01*
G01X20276243Y-3819434D01*
G01X20287673Y-3802416D01*
G01X20293261Y-3773714D01*
G01X20293261Y-3756696D01*
G01X20287673Y-3727994D01*
G01X20276243Y-3710976D01*
G01X20258971Y-3705134D01*
G01X20247541Y-3705134D01*
G01X20341013Y-3745266D02*
G01X20341013Y-3825276D01*
G01X20341013Y-3768126D02*
G01X20358285Y-3750854D01*
G01X20369715Y-3745266D01*
G01X20386733Y-3745266D01*
G01X20398163Y-3750854D01*
G01X20404005Y-3768126D01*
G01X20404005Y-3825276D01*
G01X20404005Y-3768126D02*
G01X20421023Y-3750854D01*
G01X20432453Y-3745266D01*
G01X20449725Y-3745266D01*
G01X20461155Y-3750854D01*
G01X20466743Y-3768126D01*
G01X20466743Y-3825276D01*
G01X20514495Y-3745266D02*
G01X20514495Y-3825276D01*
G01X20514495Y-3768126D02*
G01X20531767Y-3750854D01*
G01X20543197Y-3745266D01*
G01X20560215Y-3745266D01*
G01X20571645Y-3750854D01*
G01X20577487Y-3768126D01*
G01X20577487Y-3825276D01*
G01X20577487Y-3768126D02*
G01X20594505Y-3750854D01*
G01X20605935Y-3745266D01*
G01X20623207Y-3745266D01*
G01X20634637Y-3750854D01*
G01X20640225Y-3768126D01*
G01X20640225Y-3825276D01*
G01X20687977Y-3682274D02*
G01X20699407Y-3693704D01*
G01X20710837Y-3710976D01*
G01X20722267Y-3733836D01*
G01X20728109Y-3762284D01*
G01X20728109Y-3785144D01*
G01X20722267Y-3813846D01*
G01X20710837Y-3836706D01*
G01X20699407Y-3853724D01*
G01X20687977Y-3865154D01*
G01X21619287Y-3705134D02*
G01X21619287Y-3825276D01*
G01X21619287Y-3705134D02*
G01X21670849Y-3705134D01*
G01X21687867Y-3710976D01*
G01X21693709Y-3716564D01*
G01X21699297Y-3727994D01*
G01X21699297Y-3745266D01*
G01X21693709Y-3756696D01*
G01X21687867Y-3762284D01*
G01X21670849Y-3768126D01*
G01X21619287Y-3768126D01*
G01X21787181Y-3705134D02*
G01X21787181Y-3825276D01*
G01X21747049Y-3705134D02*
G01X21827059Y-3705134D01*
G01X21874811Y-3705134D02*
G01X21874811Y-3825276D01*
G01X21954821Y-3705134D02*
G01X21954821Y-3825276D01*
G01X21874811Y-3762284D02*
G01X21954821Y-3762284D01*
G01X23080694Y-3705134D02*
G01X23080694Y-3825276D01*
G01X23080694Y-3705134D02*
G01X23132256Y-3705134D01*
G01X23149274Y-3710976D01*
G01X23155116Y-3716564D01*
G01X23160704Y-3727994D01*
G01X23160704Y-3739424D01*
G01X23155116Y-3750854D01*
G01X23149274Y-3756696D01*
G01X23132256Y-3762284D01*
G01X23080694Y-3762284D01*
G01X23120826Y-3762284D02*
G01X23160704Y-3825276D01*
G01X23237158Y-3745266D02*
G01X23225728Y-3750854D01*
G01X23214298Y-3762284D01*
G01X23208456Y-3779556D01*
G01X23208456Y-3790986D01*
G01X23214298Y-3808004D01*
G01X23225728Y-3819434D01*
G01X23237158Y-3825276D01*
G01X23254176Y-3825276D01*
G01X23265606Y-3819434D01*
G01X23277036Y-3808004D01*
G01X23282878Y-3790986D01*
G01X23282878Y-3779556D01*
G01X23277036Y-3762284D01*
G01X23265606Y-3750854D01*
G01X23254176Y-3745266D01*
G01X23237158Y-3745266D01*
G01X23330630Y-3745266D02*
G01X23330630Y-3802416D01*
G01X23336472Y-3819434D01*
G01X23347902Y-3825276D01*
G01X23364920Y-3825276D01*
G01X23376350Y-3819434D01*
G01X23393622Y-3802416D01*
G01X23393622Y-3745266D02*
G01X23393622Y-3825276D01*
G01X23441374Y-3745266D02*
G01X23441374Y-3825276D01*
G01X23441374Y-3768126D02*
G01X23458646Y-3750854D01*
G01X23470076Y-3745266D01*
G01X23487094Y-3745266D01*
G01X23498524Y-3750854D01*
G01X23504366Y-3768126D01*
G01X23504366Y-3825276D01*
G01X23620698Y-3705134D02*
G01X23620698Y-3825276D01*
G01X23620698Y-3762284D02*
G01X23609268Y-3750854D01*
G01X23597838Y-3745266D01*
G01X23580820Y-3745266D01*
G01X23569390Y-3750854D01*
G01X23557960Y-3762284D01*
G01X23552118Y-3779556D01*
G01X23552118Y-3790986D01*
G01X23557960Y-3808004D01*
G01X23569390Y-3819434D01*
G01X23580820Y-3825276D01*
G01X23597838Y-3825276D01*
G01X23609268Y-3819434D01*
G01X23620698Y-3808004D01*
G01X24511875Y-3705134D02*
G01X24511875Y-3825276D01*
G01X24511875Y-3705134D02*
G01X24563437Y-3705134D01*
G01X24580455Y-3710976D01*
G01X24586297Y-3716564D01*
G01X24591885Y-3727994D01*
G01X24591885Y-3745266D01*
G01X24586297Y-3756696D01*
G01X24580455Y-3762284D01*
G01X24563437Y-3768126D01*
G01X24511875Y-3768126D01*
G01X24708217Y-3745266D02*
G01X24708217Y-3825276D01*
G01X24708217Y-3762284D02*
G01X24696787Y-3750854D01*
G01X24685357Y-3745266D01*
G01X24668339Y-3745266D01*
G01X24656909Y-3750854D01*
G01X24645479Y-3762284D01*
G01X24639637Y-3779556D01*
G01X24639637Y-3790986D01*
G01X24645479Y-3808004D01*
G01X24656909Y-3819434D01*
G01X24668339Y-3825276D01*
G01X24685357Y-3825276D01*
G01X24696787Y-3819434D01*
G01X24708217Y-3808004D01*
G01X24824549Y-3705134D02*
G01X24824549Y-3825276D01*
G01X24824549Y-3762284D02*
G01X24813119Y-3750854D01*
G01X24801689Y-3745266D01*
G01X24784671Y-3745266D01*
G01X24773241Y-3750854D01*
G01X24761811Y-3762284D01*
G01X24755969Y-3779556D01*
G01X24755969Y-3790986D01*
G01X24761811Y-3808004D01*
G01X24773241Y-3819434D01*
G01X24784671Y-3825276D01*
G01X24801689Y-3825276D01*
G01X24813119Y-3819434D01*
G01X24824549Y-3808004D01*
G01X26181054Y-3705134D02*
G01X26181054Y-3825276D01*
G01X26181054Y-3705134D02*
G01X26232616Y-3705134D01*
G01X26249634Y-3710976D01*
G01X26255476Y-3716564D01*
G01X26261064Y-3727994D01*
G01X26261064Y-3739424D01*
G01X26255476Y-3750854D01*
G01X26249634Y-3756696D01*
G01X26232616Y-3762284D01*
G01X26181054Y-3762284D01*
G01X26221186Y-3762284D02*
G01X26261064Y-3825276D01*
G01X26337518Y-3745266D02*
G01X26326088Y-3750854D01*
G01X26314658Y-3762284D01*
G01X26308816Y-3779556D01*
G01X26308816Y-3790986D01*
G01X26314658Y-3808004D01*
G01X26326088Y-3819434D01*
G01X26337518Y-3825276D01*
G01X26354536Y-3825276D01*
G01X26365966Y-3819434D01*
G01X26377396Y-3808004D01*
G01X26383238Y-3790986D01*
G01X26383238Y-3779556D01*
G01X26377396Y-3762284D01*
G01X26365966Y-3750854D01*
G01X26354536Y-3745266D01*
G01X26337518Y-3745266D01*
G01X26430990Y-3745266D02*
G01X26430990Y-3802416D01*
G01X26436832Y-3819434D01*
G01X26448262Y-3825276D01*
G01X26465280Y-3825276D01*
G01X26476710Y-3819434D01*
G01X26493982Y-3802416D01*
G01X26493982Y-3745266D02*
G01X26493982Y-3825276D01*
G01X26541734Y-3745266D02*
G01X26541734Y-3825276D01*
G01X26541734Y-3768126D02*
G01X26559006Y-3750854D01*
G01X26570436Y-3745266D01*
G01X26587454Y-3745266D01*
G01X26598884Y-3750854D01*
G01X26604726Y-3768126D01*
G01X26604726Y-3825276D01*
G01X26721058Y-3705134D02*
G01X26721058Y-3825276D01*
G01X26721058Y-3762284D02*
G01X26709628Y-3750854D01*
G01X26698198Y-3745266D01*
G01X26681180Y-3745266D01*
G01X26669750Y-3750854D01*
G01X26658320Y-3762284D01*
G01X26652478Y-3779556D01*
G01X26652478Y-3790986D01*
G01X26658320Y-3808004D01*
G01X26669750Y-3819434D01*
G01X26681180Y-3825276D01*
G01X26698198Y-3825276D01*
G01X26709628Y-3819434D01*
G01X26721058Y-3808004D01*
G01X28140555Y-3705134D02*
G01X28140555Y-3825276D01*
G01X28100423Y-3705134D02*
G01X28180433Y-3705134D01*
G01X28256887Y-3745266D02*
G01X28245457Y-3750854D01*
G01X28234027Y-3762284D01*
G01X28228185Y-3779556D01*
G01X28228185Y-3790986D01*
G01X28234027Y-3808004D01*
G01X28245457Y-3819434D01*
G01X28256887Y-3825276D01*
G01X28273905Y-3825276D01*
G01X28285335Y-3819434D01*
G01X28296765Y-3808004D01*
G01X28302607Y-3790986D01*
G01X28302607Y-3779556D01*
G01X28296765Y-3762284D01*
G01X28285335Y-3750854D01*
G01X28273905Y-3745266D01*
G01X28256887Y-3745266D01*
G01X28350359Y-3745266D02*
G01X28350359Y-3865154D01*
G01X28350359Y-3762284D02*
G01X28361789Y-3750854D01*
G01X28373219Y-3745266D01*
G01X28390491Y-3745266D01*
G01X28401921Y-3750854D01*
G01X28413351Y-3762284D01*
G01X28418939Y-3779556D01*
G01X28418939Y-3790986D01*
G01X28413351Y-3808004D01*
G01X28401921Y-3819434D01*
G01X28390491Y-3825276D01*
G01X28373219Y-3825276D01*
G01X28361789Y-3819434D01*
G01X28350359Y-3808004D01*
G01X28594707Y-3705134D02*
G01X28594707Y-3825276D01*
G01X28594707Y-3825276D02*
G01X28663287Y-3825276D01*
G01X28779619Y-3745266D02*
G01X28779619Y-3825276D01*
G01X28779619Y-3762284D02*
G01X28768189Y-3750854D01*
G01X28756759Y-3745266D01*
G01X28739741Y-3745266D01*
G01X28728311Y-3750854D01*
G01X28716881Y-3762284D01*
G01X28711039Y-3779556D01*
G01X28711039Y-3790986D01*
G01X28716881Y-3808004D01*
G01X28728311Y-3819434D01*
G01X28739741Y-3825276D01*
G01X28756759Y-3825276D01*
G01X28768189Y-3819434D01*
G01X28779619Y-3808004D01*
G01X28833213Y-3745266D02*
G01X28867503Y-3825276D01*
G01X28901793Y-3745266D02*
G01X28867503Y-3825276D01*
G01X28856073Y-3848136D01*
G01X28844643Y-3859566D01*
G01X28833213Y-3865154D01*
G01X28827371Y-3865154D01*
G01X28949545Y-3779556D02*
G01X29018125Y-3779556D01*
G01X29018125Y-3768126D01*
G01X29012537Y-3756696D01*
G01X29006695Y-3750854D01*
G01X28995265Y-3745266D01*
G01X28978247Y-3745266D01*
G01X28966817Y-3750854D01*
G01X28955387Y-3762284D01*
G01X28949545Y-3779556D01*
G01X28949545Y-3790986D01*
G01X28955387Y-3808004D01*
G01X28966817Y-3819434D01*
G01X28978247Y-3825276D01*
G01X28995265Y-3825276D01*
G01X29006695Y-3819434D01*
G01X29018125Y-3808004D01*
G01X29065877Y-3745266D02*
G01X29065877Y-3825276D01*
G01X29065877Y-3779556D02*
G01X29071719Y-3762284D01*
G01X29083149Y-3750854D01*
G01X29094579Y-3745266D01*
G01X29111597Y-3745266D01*
G01X29159349Y-3773714D02*
G01X29262219Y-3773714D01*
G01X29309971Y-3705134D02*
G01X29309971Y-3825276D01*
G01X29309971Y-3705134D02*
G01X29361533Y-3705134D01*
G01X29378551Y-3710976D01*
G01X29384393Y-3716564D01*
G01X29389981Y-3727994D01*
G01X29389981Y-3739424D01*
G01X29384393Y-3750854D01*
G01X29378551Y-3756696D01*
G01X29361533Y-3762284D01*
G01X29309971Y-3762284D02*
G01X29361533Y-3762284D01*
G01X29378551Y-3768126D01*
G01X29384393Y-3773714D01*
G01X29389981Y-3785144D01*
G01X29389981Y-3802416D01*
G01X29384393Y-3813846D01*
G01X29378551Y-3819434D01*
G01X29361533Y-3825276D01*
G01X29309971Y-3825276D01*
G01X29466435Y-3745266D02*
G01X29455005Y-3750854D01*
G01X29443575Y-3762284D01*
G01X29437733Y-3779556D01*
G01X29437733Y-3790986D01*
G01X29443575Y-3808004D01*
G01X29455005Y-3819434D01*
G01X29466435Y-3825276D01*
G01X29483453Y-3825276D01*
G01X29494883Y-3819434D01*
G01X29506313Y-3808004D01*
G01X29512155Y-3790986D01*
G01X29512155Y-3779556D01*
G01X29506313Y-3762284D01*
G01X29494883Y-3750854D01*
G01X29483453Y-3745266D01*
G01X29466435Y-3745266D01*
G01X29577179Y-3705134D02*
G01X29577179Y-3802416D01*
G01X29582767Y-3819434D01*
G01X29594197Y-3825276D01*
G01X29605627Y-3825276D01*
G01X29559907Y-3745266D02*
G01X29600039Y-3745266D01*
G01X29670651Y-3705134D02*
G01X29670651Y-3802416D01*
G01X29676239Y-3819434D01*
G01X29687669Y-3825276D01*
G01X29699099Y-3825276D01*
G01X29653379Y-3745266D02*
G01X29693511Y-3745266D01*
G01X29775553Y-3745266D02*
G01X29764123Y-3750854D01*
G01X29752693Y-3762284D01*
G01X29746851Y-3779556D01*
G01X29746851Y-3790986D01*
G01X29752693Y-3808004D01*
G01X29764123Y-3819434D01*
G01X29775553Y-3825276D01*
G01X29792571Y-3825276D01*
G01X29804001Y-3819434D01*
G01X29815431Y-3808004D01*
G01X29821273Y-3790986D01*
G01X29821273Y-3779556D01*
G01X29815431Y-3762284D01*
G01X29804001Y-3750854D01*
G01X29792571Y-3745266D01*
G01X29775553Y-3745266D01*
G01X29869025Y-3745266D02*
G01X29869025Y-3825276D01*
G01X29869025Y-3768126D02*
G01X29886297Y-3750854D01*
G01X29897727Y-3745266D01*
G01X29914745Y-3745266D01*
G01X29926175Y-3750854D01*
G01X29932017Y-3768126D01*
G01X29932017Y-3825276D01*
G01X29932017Y-3768126D02*
G01X29949035Y-3750854D01*
G01X29960465Y-3745266D01*
G01X29977737Y-3745266D01*
G01X29989167Y-3750854D01*
G01X29994755Y-3768126D01*
G01X29994755Y-3825276D01*
G01X30170523Y-3705134D02*
G01X30170523Y-3825276D01*
G01X30170523Y-3825276D02*
G01X30239103Y-3825276D01*
G01X30355435Y-3745266D02*
G01X30355435Y-3825276D01*
G01X30355435Y-3762284D02*
G01X30344005Y-3750854D01*
G01X30332575Y-3745266D01*
G01X30315557Y-3745266D01*
G01X30304127Y-3750854D01*
G01X30292697Y-3762284D01*
G01X30286855Y-3779556D01*
G01X30286855Y-3790986D01*
G01X30292697Y-3808004D01*
G01X30304127Y-3819434D01*
G01X30315557Y-3825276D01*
G01X30332575Y-3825276D01*
G01X30344005Y-3819434D01*
G01X30355435Y-3808004D01*
G01X30409029Y-3745266D02*
G01X30443319Y-3825276D01*
G01X30477609Y-3745266D02*
G01X30443319Y-3825276D01*
G01X30431889Y-3848136D01*
G01X30420459Y-3859566D01*
G01X30409029Y-3865154D01*
G01X30403187Y-3865154D01*
G01X30525361Y-3779556D02*
G01X30593941Y-3779556D01*
G01X30593941Y-3768126D01*
G01X30588353Y-3756696D01*
G01X30582511Y-3750854D01*
G01X30571081Y-3745266D01*
G01X30554063Y-3745266D01*
G01X30542633Y-3750854D01*
G01X30531203Y-3762284D01*
G01X30525361Y-3779556D01*
G01X30525361Y-3790986D01*
G01X30531203Y-3808004D01*
G01X30542633Y-3819434D01*
G01X30554063Y-3825276D01*
G01X30571081Y-3825276D01*
G01X30582511Y-3819434D01*
G01X30593941Y-3808004D01*
G01X30641693Y-3745266D02*
G01X30641693Y-3825276D01*
G01X30641693Y-3779556D02*
G01X30647535Y-3762284D01*
G01X30658965Y-3750854D01*
G01X30670395Y-3745266D01*
G01X30687413Y-3745266D01*
G01X16158504Y-4285706D02*
G01X16221496Y-4285706D01*
G01X16187206Y-4331426D01*
G01X16204224Y-4331426D01*
G01X16215654Y-4337268D01*
G01X16221496Y-4342856D01*
G01X16227084Y-4360128D01*
G01X16227084Y-4371558D01*
G01X16221496Y-4388576D01*
G01X16210066Y-4400006D01*
G01X16192794Y-4405848D01*
G01X16175776Y-4405848D01*
G01X16158504Y-4400006D01*
G01X16152916Y-4394418D01*
G01X16147074Y-4382988D01*
G01X16280678Y-4314408D02*
G01X16280678Y-4308566D01*
G01X16286266Y-4297136D01*
G01X16292108Y-4291548D01*
G01X16303538Y-4285706D01*
G01X16326398Y-4285706D01*
G01X16337828Y-4291548D01*
G01X16343416Y-4297136D01*
G01X16349258Y-4308566D01*
G01X16349258Y-4319996D01*
G01X16343416Y-4331426D01*
G01X16331986Y-4348698D01*
G01X16274836Y-4405848D01*
G01X16354846Y-4405848D01*
G01X17629817Y-4285706D02*
G01X17572667Y-4285706D01*
G01X17567079Y-4337268D01*
G01X17572667Y-4331426D01*
G01X17589939Y-4325838D01*
G01X17606957Y-4325838D01*
G01X17624229Y-4331426D01*
G01X17635659Y-4342856D01*
G01X17641247Y-4360128D01*
G01X17641247Y-4371558D01*
G01X17635659Y-4388576D01*
G01X17624229Y-4400006D01*
G01X17606957Y-4405848D01*
G01X17589939Y-4405848D01*
G01X17572667Y-4400006D01*
G01X17567079Y-4394418D01*
G01X17561237Y-4382988D01*
G01X17763421Y-4325838D02*
G01X17757579Y-4342856D01*
G01X17746149Y-4354286D01*
G01X17729131Y-4360128D01*
G01X17723289Y-4360128D01*
G01X17706271Y-4354286D01*
G01X17694841Y-4342856D01*
G01X17688999Y-4325838D01*
G01X17688999Y-4319996D01*
G01X17694841Y-4302978D01*
G01X17706271Y-4291548D01*
G01X17723289Y-4285706D01*
G01X17729131Y-4285706D01*
G01X17746149Y-4291548D01*
G01X17757579Y-4302978D01*
G01X17763421Y-4325838D01*
G01X17763421Y-4354286D01*
G01X17757579Y-4382988D01*
G01X17746149Y-4400006D01*
G01X17729131Y-4405848D01*
G01X17717701Y-4405848D01*
G01X17700429Y-4400006D01*
G01X17694841Y-4388576D01*
G01X17817015Y-4377146D02*
G01X17811173Y-4382988D01*
G01X17817015Y-4388576D01*
G01X17822603Y-4382988D01*
G01X17817015Y-4377146D01*
G01X17870355Y-4308566D02*
G01X17881785Y-4302978D01*
G01X17899057Y-4285706D01*
G01X17899057Y-4405848D01*
G01X17946809Y-4325838D02*
G01X18009801Y-4405848D01*
G01X18009801Y-4325838D02*
G01X17946809Y-4405848D01*
G01X18126133Y-4285706D02*
G01X18068983Y-4285706D01*
G01X18063395Y-4337268D01*
G01X18068983Y-4331426D01*
G01X18086255Y-4325838D01*
G01X18103273Y-4325838D01*
G01X18120545Y-4331426D01*
G01X18131975Y-4342856D01*
G01X18137563Y-4360128D01*
G01X18137563Y-4371558D01*
G01X18131975Y-4388576D01*
G01X18120545Y-4400006D01*
G01X18103273Y-4405848D01*
G01X18086255Y-4405848D01*
G01X18068983Y-4400006D01*
G01X18063395Y-4394418D01*
G01X18057553Y-4382988D01*
G01X18259737Y-4325838D02*
G01X18253895Y-4342856D01*
G01X18242465Y-4354286D01*
G01X18225447Y-4360128D01*
G01X18219605Y-4360128D01*
G01X18202587Y-4354286D01*
G01X18191157Y-4342856D01*
G01X18185315Y-4325838D01*
G01X18185315Y-4319996D01*
G01X18191157Y-4302978D01*
G01X18202587Y-4291548D01*
G01X18219605Y-4285706D01*
G01X18225447Y-4285706D01*
G01X18242465Y-4291548D01*
G01X18253895Y-4302978D01*
G01X18259737Y-4325838D01*
G01X18259737Y-4354286D01*
G01X18253895Y-4382988D01*
G01X18242465Y-4400006D01*
G01X18225447Y-4405848D01*
G01X18214017Y-4405848D01*
G01X18196745Y-4400006D01*
G01X18191157Y-4388576D01*
G01X18313331Y-4377146D02*
G01X18307489Y-4382988D01*
G01X18313331Y-4388576D01*
G01X18318919Y-4382988D01*
G01X18313331Y-4377146D01*
G01X18366671Y-4308566D02*
G01X18378101Y-4302978D01*
G01X18395373Y-4285706D01*
G01X18395373Y-4405848D01*
G01X18443125Y-4325838D02*
G01X18443125Y-4405848D01*
G01X18443125Y-4348698D02*
G01X18460397Y-4331426D01*
G01X18471827Y-4325838D01*
G01X18488845Y-4325838D01*
G01X18500275Y-4331426D01*
G01X18506117Y-4348698D01*
G01X18506117Y-4405848D01*
G01X18506117Y-4348698D02*
G01X18523135Y-4331426D01*
G01X18534565Y-4325838D01*
G01X18551837Y-4325838D01*
G01X18563267Y-4331426D01*
G01X18568855Y-4348698D01*
G01X18568855Y-4405848D01*
G01X18616607Y-4285706D02*
G01X18622449Y-4291548D01*
G01X18628037Y-4285706D01*
G01X18622449Y-4280118D01*
G01X18616607Y-4285706D01*
G01X18622449Y-4325838D02*
G01X18622449Y-4405848D01*
G01X18675789Y-4285706D02*
G01X18675789Y-4405848D01*
G01X18763673Y-4262846D02*
G01X18752243Y-4274276D01*
G01X18740813Y-4291548D01*
G01X18729383Y-4314408D01*
G01X18723541Y-4342856D01*
G01X18723541Y-4365716D01*
G01X18729383Y-4394418D01*
G01X18740813Y-4417278D01*
G01X18752243Y-4434296D01*
G01X18763673Y-4445726D01*
G01X18811425Y-4308566D02*
G01X18822855Y-4302978D01*
G01X18840127Y-4285706D01*
G01X18840127Y-4405848D01*
G01X18893721Y-4377146D02*
G01X18887879Y-4382988D01*
G01X18893721Y-4388576D01*
G01X18899309Y-4382988D01*
G01X18893721Y-4377146D01*
G01X19015641Y-4285706D02*
G01X18958491Y-4285706D01*
G01X18952903Y-4337268D01*
G01X18958491Y-4331426D01*
G01X18975763Y-4325838D01*
G01X18992781Y-4325838D01*
G01X19010053Y-4331426D01*
G01X19021483Y-4342856D01*
G01X19027071Y-4360128D01*
G01X19027071Y-4371558D01*
G01X19021483Y-4388576D01*
G01X19010053Y-4400006D01*
G01X18992781Y-4405848D01*
G01X18975763Y-4405848D01*
G01X18958491Y-4400006D01*
G01X18952903Y-4394418D01*
G01X18947061Y-4382988D01*
G01X19109113Y-4285706D02*
G01X19092095Y-4291548D01*
G01X19080665Y-4308566D01*
G01X19074823Y-4337268D01*
G01X19074823Y-4354286D01*
G01X19080665Y-4382988D01*
G01X19092095Y-4400006D01*
G01X19109113Y-4405848D01*
G01X19120543Y-4405848D01*
G01X19137815Y-4400006D01*
G01X19149245Y-4382988D01*
G01X19154833Y-4354286D01*
G01X19154833Y-4337268D01*
G01X19149245Y-4308566D01*
G01X19137815Y-4291548D01*
G01X19120543Y-4285706D01*
G01X19109113Y-4285706D01*
G01X19236875Y-4285706D02*
G01X19219857Y-4291548D01*
G01X19208427Y-4308566D01*
G01X19202585Y-4337268D01*
G01X19202585Y-4354286D01*
G01X19208427Y-4382988D01*
G01X19219857Y-4400006D01*
G01X19236875Y-4405848D01*
G01X19248305Y-4405848D01*
G01X19265577Y-4400006D01*
G01X19277007Y-4382988D01*
G01X19282595Y-4354286D01*
G01X19282595Y-4337268D01*
G01X19277007Y-4308566D01*
G01X19265577Y-4291548D01*
G01X19248305Y-4285706D01*
G01X19236875Y-4285706D01*
G01X19330347Y-4325838D02*
G01X19393339Y-4405848D01*
G01X19393339Y-4325838D02*
G01X19330347Y-4405848D01*
G01X19441091Y-4308566D02*
G01X19452521Y-4302978D01*
G01X19469793Y-4285706D01*
G01X19469793Y-4405848D01*
G01X19523387Y-4377146D02*
G01X19517545Y-4382988D01*
G01X19523387Y-4388576D01*
G01X19528975Y-4382988D01*
G01X19523387Y-4377146D01*
G01X19645307Y-4285706D02*
G01X19588157Y-4285706D01*
G01X19582569Y-4337268D01*
G01X19588157Y-4331426D01*
G01X19605429Y-4325838D01*
G01X19622447Y-4325838D01*
G01X19639719Y-4331426D01*
G01X19651149Y-4342856D01*
G01X19656737Y-4360128D01*
G01X19656737Y-4371558D01*
G01X19651149Y-4388576D01*
G01X19639719Y-4400006D01*
G01X19622447Y-4405848D01*
G01X19605429Y-4405848D01*
G01X19588157Y-4400006D01*
G01X19582569Y-4394418D01*
G01X19576727Y-4382988D01*
G01X19738779Y-4285706D02*
G01X19721761Y-4291548D01*
G01X19710331Y-4308566D01*
G01X19704489Y-4337268D01*
G01X19704489Y-4354286D01*
G01X19710331Y-4382988D01*
G01X19721761Y-4400006D01*
G01X19738779Y-4405848D01*
G01X19750209Y-4405848D01*
G01X19767481Y-4400006D01*
G01X19778911Y-4382988D01*
G01X19784499Y-4354286D01*
G01X19784499Y-4337268D01*
G01X19778911Y-4308566D01*
G01X19767481Y-4291548D01*
G01X19750209Y-4285706D01*
G01X19738779Y-4285706D01*
G01X19866541Y-4285706D02*
G01X19849523Y-4291548D01*
G01X19838093Y-4308566D01*
G01X19832251Y-4337268D01*
G01X19832251Y-4354286D01*
G01X19838093Y-4382988D01*
G01X19849523Y-4400006D01*
G01X19866541Y-4405848D01*
G01X19877971Y-4405848D01*
G01X19895243Y-4400006D01*
G01X19906673Y-4382988D01*
G01X19912261Y-4354286D01*
G01X19912261Y-4337268D01*
G01X19906673Y-4308566D01*
G01X19895243Y-4291548D01*
G01X19877971Y-4285706D01*
G01X19866541Y-4285706D01*
G01X19960013Y-4325838D02*
G01X19960013Y-4405848D01*
G01X19960013Y-4348698D02*
G01X19977285Y-4331426D01*
G01X19988715Y-4325838D01*
G01X20005733Y-4325838D01*
G01X20017163Y-4331426D01*
G01X20023005Y-4348698D01*
G01X20023005Y-4405848D01*
G01X20023005Y-4348698D02*
G01X20040023Y-4331426D01*
G01X20051453Y-4325838D01*
G01X20068725Y-4325838D01*
G01X20080155Y-4331426D01*
G01X20085743Y-4348698D01*
G01X20085743Y-4405848D01*
G01X20133495Y-4325838D02*
G01X20133495Y-4405848D01*
G01X20133495Y-4348698D02*
G01X20150767Y-4331426D01*
G01X20162197Y-4325838D01*
G01X20179215Y-4325838D01*
G01X20190645Y-4331426D01*
G01X20196487Y-4348698D01*
G01X20196487Y-4405848D01*
G01X20196487Y-4348698D02*
G01X20213505Y-4331426D01*
G01X20224935Y-4325838D01*
G01X20242207Y-4325838D01*
G01X20253637Y-4331426D01*
G01X20259225Y-4348698D01*
G01X20259225Y-4405848D01*
G01X20306977Y-4262846D02*
G01X20318407Y-4274276D01*
G01X20329837Y-4291548D01*
G01X20341267Y-4314408D01*
G01X20347109Y-4342856D01*
G01X20347109Y-4365716D01*
G01X20341267Y-4394418D01*
G01X20329837Y-4417278D01*
G01X20318407Y-4434296D01*
G01X20306977Y-4445726D01*
G01X21619287Y-4285706D02*
G01X21619287Y-4405848D01*
G01X21619287Y-4285706D02*
G01X21670849Y-4285706D01*
G01X21687867Y-4291548D01*
G01X21693709Y-4297136D01*
G01X21699297Y-4308566D01*
G01X21699297Y-4325838D01*
G01X21693709Y-4337268D01*
G01X21687867Y-4342856D01*
G01X21670849Y-4348698D01*
G01X21619287Y-4348698D01*
G01X21787181Y-4285706D02*
G01X21787181Y-4405848D01*
G01X21747049Y-4285706D02*
G01X21827059Y-4285706D01*
G01X21874811Y-4285706D02*
G01X21874811Y-4405848D01*
G01X21954821Y-4285706D02*
G01X21954821Y-4405848D01*
G01X21874811Y-4342856D02*
G01X21954821Y-4342856D01*
G01X23080694Y-4285706D02*
G01X23080694Y-4405848D01*
G01X23080694Y-4285706D02*
G01X23132256Y-4285706D01*
G01X23149274Y-4291548D01*
G01X23155116Y-4297136D01*
G01X23160704Y-4308566D01*
G01X23160704Y-4319996D01*
G01X23155116Y-4331426D01*
G01X23149274Y-4337268D01*
G01X23132256Y-4342856D01*
G01X23080694Y-4342856D01*
G01X23120826Y-4342856D02*
G01X23160704Y-4405848D01*
G01X23237158Y-4325838D02*
G01X23225728Y-4331426D01*
G01X23214298Y-4342856D01*
G01X23208456Y-4360128D01*
G01X23208456Y-4371558D01*
G01X23214298Y-4388576D01*
G01X23225728Y-4400006D01*
G01X23237158Y-4405848D01*
G01X23254176Y-4405848D01*
G01X23265606Y-4400006D01*
G01X23277036Y-4388576D01*
G01X23282878Y-4371558D01*
G01X23282878Y-4360128D01*
G01X23277036Y-4342856D01*
G01X23265606Y-4331426D01*
G01X23254176Y-4325838D01*
G01X23237158Y-4325838D01*
G01X23330630Y-4325838D02*
G01X23330630Y-4382988D01*
G01X23336472Y-4400006D01*
G01X23347902Y-4405848D01*
G01X23364920Y-4405848D01*
G01X23376350Y-4400006D01*
G01X23393622Y-4382988D01*
G01X23393622Y-4325838D02*
G01X23393622Y-4405848D01*
G01X23441374Y-4325838D02*
G01X23441374Y-4405848D01*
G01X23441374Y-4348698D02*
G01X23458646Y-4331426D01*
G01X23470076Y-4325838D01*
G01X23487094Y-4325838D01*
G01X23498524Y-4331426D01*
G01X23504366Y-4348698D01*
G01X23504366Y-4405848D01*
G01X23620698Y-4285706D02*
G01X23620698Y-4405848D01*
G01X23620698Y-4342856D02*
G01X23609268Y-4331426D01*
G01X23597838Y-4325838D01*
G01X23580820Y-4325838D01*
G01X23569390Y-4331426D01*
G01X23557960Y-4342856D01*
G01X23552118Y-4360128D01*
G01X23552118Y-4371558D01*
G01X23557960Y-4388576D01*
G01X23569390Y-4400006D01*
G01X23580820Y-4405848D01*
G01X23597838Y-4405848D01*
G01X23609268Y-4400006D01*
G01X23620698Y-4388576D01*
G01X24511875Y-4285706D02*
G01X24511875Y-4405848D01*
G01X24511875Y-4285706D02*
G01X24563437Y-4285706D01*
G01X24580455Y-4291548D01*
G01X24586297Y-4297136D01*
G01X24591885Y-4308566D01*
G01X24591885Y-4325838D01*
G01X24586297Y-4337268D01*
G01X24580455Y-4342856D01*
G01X24563437Y-4348698D01*
G01X24511875Y-4348698D01*
G01X24708217Y-4325838D02*
G01X24708217Y-4405848D01*
G01X24708217Y-4342856D02*
G01X24696787Y-4331426D01*
G01X24685357Y-4325838D01*
G01X24668339Y-4325838D01*
G01X24656909Y-4331426D01*
G01X24645479Y-4342856D01*
G01X24639637Y-4360128D01*
G01X24639637Y-4371558D01*
G01X24645479Y-4388576D01*
G01X24656909Y-4400006D01*
G01X24668339Y-4405848D01*
G01X24685357Y-4405848D01*
G01X24696787Y-4400006D01*
G01X24708217Y-4388576D01*
G01X24824549Y-4285706D02*
G01X24824549Y-4405848D01*
G01X24824549Y-4342856D02*
G01X24813119Y-4331426D01*
G01X24801689Y-4325838D01*
G01X24784671Y-4325838D01*
G01X24773241Y-4331426D01*
G01X24761811Y-4342856D01*
G01X24755969Y-4360128D01*
G01X24755969Y-4371558D01*
G01X24761811Y-4388576D01*
G01X24773241Y-4400006D01*
G01X24784671Y-4405848D01*
G01X24801689Y-4405848D01*
G01X24813119Y-4400006D01*
G01X24824549Y-4388576D01*
G01X26181054Y-4285706D02*
G01X26181054Y-4405848D01*
G01X26181054Y-4285706D02*
G01X26232616Y-4285706D01*
G01X26249634Y-4291548D01*
G01X26255476Y-4297136D01*
G01X26261064Y-4308566D01*
G01X26261064Y-4319996D01*
G01X26255476Y-4331426D01*
G01X26249634Y-4337268D01*
G01X26232616Y-4342856D01*
G01X26181054Y-4342856D01*
G01X26221186Y-4342856D02*
G01X26261064Y-4405848D01*
G01X26337518Y-4325838D02*
G01X26326088Y-4331426D01*
G01X26314658Y-4342856D01*
G01X26308816Y-4360128D01*
G01X26308816Y-4371558D01*
G01X26314658Y-4388576D01*
G01X26326088Y-4400006D01*
G01X26337518Y-4405848D01*
G01X26354536Y-4405848D01*
G01X26365966Y-4400006D01*
G01X26377396Y-4388576D01*
G01X26383238Y-4371558D01*
G01X26383238Y-4360128D01*
G01X26377396Y-4342856D01*
G01X26365966Y-4331426D01*
G01X26354536Y-4325838D01*
G01X26337518Y-4325838D01*
G01X26430990Y-4325838D02*
G01X26430990Y-4382988D01*
G01X26436832Y-4400006D01*
G01X26448262Y-4405848D01*
G01X26465280Y-4405848D01*
G01X26476710Y-4400006D01*
G01X26493982Y-4382988D01*
G01X26493982Y-4325838D02*
G01X26493982Y-4405848D01*
G01X26541734Y-4325838D02*
G01X26541734Y-4405848D01*
G01X26541734Y-4348698D02*
G01X26559006Y-4331426D01*
G01X26570436Y-4325838D01*
G01X26587454Y-4325838D01*
G01X26598884Y-4331426D01*
G01X26604726Y-4348698D01*
G01X26604726Y-4405848D01*
G01X26721058Y-4285706D02*
G01X26721058Y-4405848D01*
G01X26721058Y-4342856D02*
G01X26709628Y-4331426D01*
G01X26698198Y-4325838D01*
G01X26681180Y-4325838D01*
G01X26669750Y-4331426D01*
G01X26658320Y-4342856D01*
G01X26652478Y-4360128D01*
G01X26652478Y-4371558D01*
G01X26658320Y-4388576D01*
G01X26669750Y-4400006D01*
G01X26681180Y-4405848D01*
G01X26698198Y-4405848D01*
G01X26709628Y-4400006D01*
G01X26721058Y-4388576D01*
G01X28140555Y-4285706D02*
G01X28140555Y-4405848D01*
G01X28100423Y-4285706D02*
G01X28180433Y-4285706D01*
G01X28256887Y-4325838D02*
G01X28245457Y-4331426D01*
G01X28234027Y-4342856D01*
G01X28228185Y-4360128D01*
G01X28228185Y-4371558D01*
G01X28234027Y-4388576D01*
G01X28245457Y-4400006D01*
G01X28256887Y-4405848D01*
G01X28273905Y-4405848D01*
G01X28285335Y-4400006D01*
G01X28296765Y-4388576D01*
G01X28302607Y-4371558D01*
G01X28302607Y-4360128D01*
G01X28296765Y-4342856D01*
G01X28285335Y-4331426D01*
G01X28273905Y-4325838D01*
G01X28256887Y-4325838D01*
G01X28350359Y-4325838D02*
G01X28350359Y-4445726D01*
G01X28350359Y-4342856D02*
G01X28361789Y-4331426D01*
G01X28373219Y-4325838D01*
G01X28390491Y-4325838D01*
G01X28401921Y-4331426D01*
G01X28413351Y-4342856D01*
G01X28418939Y-4360128D01*
G01X28418939Y-4371558D01*
G01X28413351Y-4388576D01*
G01X28401921Y-4400006D01*
G01X28390491Y-4405848D01*
G01X28373219Y-4405848D01*
G01X28361789Y-4400006D01*
G01X28350359Y-4388576D01*
G01X28594707Y-4285706D02*
G01X28594707Y-4405848D01*
G01X28594707Y-4405848D02*
G01X28663287Y-4405848D01*
G01X28779619Y-4325838D02*
G01X28779619Y-4405848D01*
G01X28779619Y-4342856D02*
G01X28768189Y-4331426D01*
G01X28756759Y-4325838D01*
G01X28739741Y-4325838D01*
G01X28728311Y-4331426D01*
G01X28716881Y-4342856D01*
G01X28711039Y-4360128D01*
G01X28711039Y-4371558D01*
G01X28716881Y-4388576D01*
G01X28728311Y-4400006D01*
G01X28739741Y-4405848D01*
G01X28756759Y-4405848D01*
G01X28768189Y-4400006D01*
G01X28779619Y-4388576D01*
G01X28833213Y-4325838D02*
G01X28867503Y-4405848D01*
G01X28901793Y-4325838D02*
G01X28867503Y-4405848D01*
G01X28856073Y-4428708D01*
G01X28844643Y-4440138D01*
G01X28833213Y-4445726D01*
G01X28827371Y-4445726D01*
G01X28949545Y-4360128D02*
G01X29018125Y-4360128D01*
G01X29018125Y-4348698D01*
G01X29012537Y-4337268D01*
G01X29006695Y-4331426D01*
G01X28995265Y-4325838D01*
G01X28978247Y-4325838D01*
G01X28966817Y-4331426D01*
G01X28955387Y-4342856D01*
G01X28949545Y-4360128D01*
G01X28949545Y-4371558D01*
G01X28955387Y-4388576D01*
G01X28966817Y-4400006D01*
G01X28978247Y-4405848D01*
G01X28995265Y-4405848D01*
G01X29006695Y-4400006D01*
G01X29018125Y-4388576D01*
G01X29065877Y-4325838D02*
G01X29065877Y-4405848D01*
G01X29065877Y-4360128D02*
G01X29071719Y-4342856D01*
G01X29083149Y-4331426D01*
G01X29094579Y-4325838D01*
G01X29111597Y-4325838D01*
G01X29159349Y-4354286D02*
G01X29262219Y-4354286D01*
G01X29309971Y-4285706D02*
G01X29309971Y-4405848D01*
G01X29309971Y-4285706D02*
G01X29361533Y-4285706D01*
G01X29378551Y-4291548D01*
G01X29384393Y-4297136D01*
G01X29389981Y-4308566D01*
G01X29389981Y-4319996D01*
G01X29384393Y-4331426D01*
G01X29378551Y-4337268D01*
G01X29361533Y-4342856D01*
G01X29309971Y-4342856D02*
G01X29361533Y-4342856D01*
G01X29378551Y-4348698D01*
G01X29384393Y-4354286D01*
G01X29389981Y-4365716D01*
G01X29389981Y-4382988D01*
G01X29384393Y-4394418D01*
G01X29378551Y-4400006D01*
G01X29361533Y-4405848D01*
G01X29309971Y-4405848D01*
G01X29466435Y-4325838D02*
G01X29455005Y-4331426D01*
G01X29443575Y-4342856D01*
G01X29437733Y-4360128D01*
G01X29437733Y-4371558D01*
G01X29443575Y-4388576D01*
G01X29455005Y-4400006D01*
G01X29466435Y-4405848D01*
G01X29483453Y-4405848D01*
G01X29494883Y-4400006D01*
G01X29506313Y-4388576D01*
G01X29512155Y-4371558D01*
G01X29512155Y-4360128D01*
G01X29506313Y-4342856D01*
G01X29494883Y-4331426D01*
G01X29483453Y-4325838D01*
G01X29466435Y-4325838D01*
G01X29577179Y-4285706D02*
G01X29577179Y-4382988D01*
G01X29582767Y-4400006D01*
G01X29594197Y-4405848D01*
G01X29605627Y-4405848D01*
G01X29559907Y-4325838D02*
G01X29600039Y-4325838D01*
G01X29670651Y-4285706D02*
G01X29670651Y-4382988D01*
G01X29676239Y-4400006D01*
G01X29687669Y-4405848D01*
G01X29699099Y-4405848D01*
G01X29653379Y-4325838D02*
G01X29693511Y-4325838D01*
G01X29775553Y-4325838D02*
G01X29764123Y-4331426D01*
G01X29752693Y-4342856D01*
G01X29746851Y-4360128D01*
G01X29746851Y-4371558D01*
G01X29752693Y-4388576D01*
G01X29764123Y-4400006D01*
G01X29775553Y-4405848D01*
G01X29792571Y-4405848D01*
G01X29804001Y-4400006D01*
G01X29815431Y-4388576D01*
G01X29821273Y-4371558D01*
G01X29821273Y-4360128D01*
G01X29815431Y-4342856D01*
G01X29804001Y-4331426D01*
G01X29792571Y-4325838D01*
G01X29775553Y-4325838D01*
G01X29869025Y-4325838D02*
G01X29869025Y-4405848D01*
G01X29869025Y-4348698D02*
G01X29886297Y-4331426D01*
G01X29897727Y-4325838D01*
G01X29914745Y-4325838D01*
G01X29926175Y-4331426D01*
G01X29932017Y-4348698D01*
G01X29932017Y-4405848D01*
G01X29932017Y-4348698D02*
G01X29949035Y-4331426D01*
G01X29960465Y-4325838D01*
G01X29977737Y-4325838D01*
G01X29989167Y-4331426D01*
G01X29994755Y-4348698D01*
G01X29994755Y-4405848D01*
G01X30170523Y-4285706D02*
G01X30170523Y-4405848D01*
G01X30170523Y-4405848D02*
G01X30239103Y-4405848D01*
G01X30355435Y-4325838D02*
G01X30355435Y-4405848D01*
G01X30355435Y-4342856D02*
G01X30344005Y-4331426D01*
G01X30332575Y-4325838D01*
G01X30315557Y-4325838D01*
G01X30304127Y-4331426D01*
G01X30292697Y-4342856D01*
G01X30286855Y-4360128D01*
G01X30286855Y-4371558D01*
G01X30292697Y-4388576D01*
G01X30304127Y-4400006D01*
G01X30315557Y-4405848D01*
G01X30332575Y-4405848D01*
G01X30344005Y-4400006D01*
G01X30355435Y-4388576D01*
G01X30409029Y-4325838D02*
G01X30443319Y-4405848D01*
G01X30477609Y-4325838D02*
G01X30443319Y-4405848D01*
G01X30431889Y-4428708D01*
G01X30420459Y-4440138D01*
G01X30409029Y-4445726D01*
G01X30403187Y-4445726D01*
G01X30525361Y-4360128D02*
G01X30593941Y-4360128D01*
G01X30593941Y-4348698D01*
G01X30588353Y-4337268D01*
G01X30582511Y-4331426D01*
G01X30571081Y-4325838D01*
G01X30554063Y-4325838D01*
G01X30542633Y-4331426D01*
G01X30531203Y-4342856D01*
G01X30525361Y-4360128D01*
G01X30525361Y-4371558D01*
G01X30531203Y-4388576D01*
G01X30542633Y-4400006D01*
G01X30554063Y-4405848D01*
G01X30571081Y-4405848D01*
G01X30582511Y-4400006D01*
G01X30593941Y-4388576D01*
G01X30641693Y-4325838D02*
G01X30641693Y-4405848D01*
G01X30641693Y-4360128D02*
G01X30647535Y-4342856D01*
G01X30658965Y-4331426D01*
G01X30670395Y-4325838D01*
G01X30687413Y-4325838D01*
G01X16147074Y-4889137D02*
G01X16158504Y-4883549D01*
G01X16175776Y-4866277D01*
G01X16175776Y-4986419D01*
G01X16303538Y-4866277D02*
G01X16246388Y-4986419D01*
G01X16223528Y-4866277D02*
G01X16303538Y-4866277D01*
G01X16362720Y-4866277D02*
G01X16425712Y-4866277D01*
G01X16391422Y-4911997D01*
G01X16408440Y-4911997D01*
G01X16419870Y-4917839D01*
G01X16425712Y-4923427D01*
G01X16431300Y-4940699D01*
G01X16431300Y-4952129D01*
G01X16425712Y-4969147D01*
G01X16414282Y-4980577D01*
G01X16397010Y-4986419D01*
G01X16379992Y-4986419D01*
G01X16362720Y-4980577D01*
G01X16357132Y-4974989D01*
G01X16351290Y-4963559D01*
G01X17561237Y-4889137D02*
G01X17572667Y-4883549D01*
G01X17589939Y-4866277D01*
G01X17589939Y-4986419D01*
G01X17643533Y-4894979D02*
G01X17643533Y-4889137D01*
G01X17649121Y-4877707D01*
G01X17654963Y-4872119D01*
G01X17666393Y-4866277D01*
G01X17689253Y-4866277D01*
G01X17700683Y-4872119D01*
G01X17706271Y-4877707D01*
G01X17712113Y-4889137D01*
G01X17712113Y-4900567D01*
G01X17706271Y-4911997D01*
G01X17694841Y-4929269D01*
G01X17637691Y-4986419D01*
G01X17717701Y-4986419D01*
G01X17771295Y-4957717D02*
G01X17765453Y-4963559D01*
G01X17771295Y-4969147D01*
G01X17776883Y-4963559D01*
G01X17771295Y-4957717D01*
G01X17858925Y-4866277D02*
G01X17841907Y-4872119D01*
G01X17830477Y-4889137D01*
G01X17824635Y-4917839D01*
G01X17824635Y-4934857D01*
G01X17830477Y-4963559D01*
G01X17841907Y-4980577D01*
G01X17858925Y-4986419D01*
G01X17870355Y-4986419D01*
G01X17887627Y-4980577D01*
G01X17899057Y-4963559D01*
G01X17904645Y-4934857D01*
G01X17904645Y-4917839D01*
G01X17899057Y-4889137D01*
G01X17887627Y-4872119D01*
G01X17870355Y-4866277D01*
G01X17858925Y-4866277D01*
G01X17952397Y-4906409D02*
G01X17952397Y-4986419D01*
G01X17952397Y-4929269D02*
G01X17969669Y-4911997D01*
G01X17981099Y-4906409D01*
G01X17998117Y-4906409D01*
G01X18009547Y-4911997D01*
G01X18015389Y-4929269D01*
G01X18015389Y-4986419D01*
G01X18015389Y-4929269D02*
G01X18032407Y-4911997D01*
G01X18043837Y-4906409D01*
G01X18061109Y-4906409D01*
G01X18072539Y-4911997D01*
G01X18078127Y-4929269D01*
G01X18078127Y-4986419D01*
G01X18125879Y-4866277D02*
G01X18131721Y-4872119D01*
G01X18137309Y-4866277D01*
G01X18131721Y-4860689D01*
G01X18125879Y-4866277D01*
G01X18131721Y-4906409D02*
G01X18131721Y-4986419D01*
G01X18185061Y-4866277D02*
G01X18185061Y-4986419D01*
G01X18272945Y-4843417D02*
G01X18261515Y-4854847D01*
G01X18250085Y-4872119D01*
G01X18238655Y-4894979D01*
G01X18232813Y-4923427D01*
G01X18232813Y-4946287D01*
G01X18238655Y-4974989D01*
G01X18250085Y-4997849D01*
G01X18261515Y-5014867D01*
G01X18272945Y-5026297D01*
G01X18354987Y-4866277D02*
G01X18337969Y-4872119D01*
G01X18326539Y-4889137D01*
G01X18320697Y-4917839D01*
G01X18320697Y-4934857D01*
G01X18326539Y-4963559D01*
G01X18337969Y-4980577D01*
G01X18354987Y-4986419D01*
G01X18366417Y-4986419D01*
G01X18383689Y-4980577D01*
G01X18395119Y-4963559D01*
G01X18400707Y-4934857D01*
G01X18400707Y-4917839D01*
G01X18395119Y-4889137D01*
G01X18383689Y-4872119D01*
G01X18366417Y-4866277D01*
G01X18354987Y-4866277D01*
G01X18454301Y-4957717D02*
G01X18448459Y-4963559D01*
G01X18454301Y-4969147D01*
G01X18459889Y-4963559D01*
G01X18454301Y-4957717D01*
G01X18519071Y-4866277D02*
G01X18582063Y-4866277D01*
G01X18547773Y-4911997D01*
G01X18564791Y-4911997D01*
G01X18576221Y-4917839D01*
G01X18582063Y-4923427D01*
G01X18587651Y-4940699D01*
G01X18587651Y-4952129D01*
G01X18582063Y-4969147D01*
G01X18570633Y-4980577D01*
G01X18553361Y-4986419D01*
G01X18536343Y-4986419D01*
G01X18519071Y-4980577D01*
G01X18513483Y-4974989D01*
G01X18507641Y-4963559D01*
G01X18669693Y-4866277D02*
G01X18652675Y-4872119D01*
G01X18641245Y-4889137D01*
G01X18635403Y-4917839D01*
G01X18635403Y-4934857D01*
G01X18641245Y-4963559D01*
G01X18652675Y-4980577D01*
G01X18669693Y-4986419D01*
G01X18681123Y-4986419D01*
G01X18698395Y-4980577D01*
G01X18709825Y-4963559D01*
G01X18715413Y-4934857D01*
G01X18715413Y-4917839D01*
G01X18709825Y-4889137D01*
G01X18698395Y-4872119D01*
G01X18681123Y-4866277D01*
G01X18669693Y-4866277D01*
G01X18831745Y-4866277D02*
G01X18774595Y-4866277D01*
G01X18769007Y-4917839D01*
G01X18774595Y-4911997D01*
G01X18791867Y-4906409D01*
G01X18808885Y-4906409D01*
G01X18826157Y-4911997D01*
G01X18837587Y-4923427D01*
G01X18843175Y-4940699D01*
G01X18843175Y-4952129D01*
G01X18837587Y-4969147D01*
G01X18826157Y-4980577D01*
G01X18808885Y-4986419D01*
G01X18791867Y-4986419D01*
G01X18774595Y-4980577D01*
G01X18769007Y-4974989D01*
G01X18763165Y-4963559D01*
G01X18890927Y-4906409D02*
G01X18890927Y-4986419D01*
G01X18890927Y-4929269D02*
G01X18908199Y-4911997D01*
G01X18919629Y-4906409D01*
G01X18936647Y-4906409D01*
G01X18948077Y-4911997D01*
G01X18953919Y-4929269D01*
G01X18953919Y-4986419D01*
G01X18953919Y-4929269D02*
G01X18970937Y-4911997D01*
G01X18982367Y-4906409D01*
G01X18999639Y-4906409D01*
G01X19011069Y-4911997D01*
G01X19016657Y-4929269D01*
G01X19016657Y-4986419D01*
G01X19064409Y-4906409D02*
G01X19064409Y-4986419D01*
G01X19064409Y-4929269D02*
G01X19081681Y-4911997D01*
G01X19093111Y-4906409D01*
G01X19110129Y-4906409D01*
G01X19121559Y-4911997D01*
G01X19127401Y-4929269D01*
G01X19127401Y-4986419D01*
G01X19127401Y-4929269D02*
G01X19144419Y-4911997D01*
G01X19155849Y-4906409D01*
G01X19173121Y-4906409D01*
G01X19184551Y-4911997D01*
G01X19190139Y-4929269D01*
G01X19190139Y-4986419D01*
G01X19237891Y-4843417D02*
G01X19249321Y-4854847D01*
G01X19260751Y-4872119D01*
G01X19272181Y-4894979D01*
G01X19278023Y-4923427D01*
G01X19278023Y-4946287D01*
G01X19272181Y-4974989D01*
G01X19260751Y-4997849D01*
G01X19249321Y-5014867D01*
G01X19237891Y-5026297D01*
G01X21619287Y-4866277D02*
G01X21619287Y-4986419D01*
G01X21619287Y-4866277D02*
G01X21670849Y-4866277D01*
G01X21687867Y-4872119D01*
G01X21693709Y-4877707D01*
G01X21699297Y-4889137D01*
G01X21699297Y-4906409D01*
G01X21693709Y-4917839D01*
G01X21687867Y-4923427D01*
G01X21670849Y-4929269D01*
G01X21619287Y-4929269D01*
G01X21787181Y-4866277D02*
G01X21787181Y-4986419D01*
G01X21747049Y-4866277D02*
G01X21827059Y-4866277D01*
G01X21874811Y-4866277D02*
G01X21874811Y-4986419D01*
G01X21954821Y-4866277D02*
G01X21954821Y-4986419D01*
G01X21874811Y-4923427D02*
G01X21954821Y-4923427D01*
G01X23080694Y-4866277D02*
G01X23080694Y-4986419D01*
G01X23080694Y-4866277D02*
G01X23132256Y-4866277D01*
G01X23149274Y-4872119D01*
G01X23155116Y-4877707D01*
G01X23160704Y-4889137D01*
G01X23160704Y-4900567D01*
G01X23155116Y-4911997D01*
G01X23149274Y-4917839D01*
G01X23132256Y-4923427D01*
G01X23080694Y-4923427D01*
G01X23120826Y-4923427D02*
G01X23160704Y-4986419D01*
G01X23237158Y-4906409D02*
G01X23225728Y-4911997D01*
G01X23214298Y-4923427D01*
G01X23208456Y-4940699D01*
G01X23208456Y-4952129D01*
G01X23214298Y-4969147D01*
G01X23225728Y-4980577D01*
G01X23237158Y-4986419D01*
G01X23254176Y-4986419D01*
G01X23265606Y-4980577D01*
G01X23277036Y-4969147D01*
G01X23282878Y-4952129D01*
G01X23282878Y-4940699D01*
G01X23277036Y-4923427D01*
G01X23265606Y-4911997D01*
G01X23254176Y-4906409D01*
G01X23237158Y-4906409D01*
G01X23330630Y-4906409D02*
G01X23330630Y-4963559D01*
G01X23336472Y-4980577D01*
G01X23347902Y-4986419D01*
G01X23364920Y-4986419D01*
G01X23376350Y-4980577D01*
G01X23393622Y-4963559D01*
G01X23393622Y-4906409D02*
G01X23393622Y-4986419D01*
G01X23441374Y-4906409D02*
G01X23441374Y-4986419D01*
G01X23441374Y-4929269D02*
G01X23458646Y-4911997D01*
G01X23470076Y-4906409D01*
G01X23487094Y-4906409D01*
G01X23498524Y-4911997D01*
G01X23504366Y-4929269D01*
G01X23504366Y-4986419D01*
G01X23620698Y-4866277D02*
G01X23620698Y-4986419D01*
G01X23620698Y-4923427D02*
G01X23609268Y-4911997D01*
G01X23597838Y-4906409D01*
G01X23580820Y-4906409D01*
G01X23569390Y-4911997D01*
G01X23557960Y-4923427D01*
G01X23552118Y-4940699D01*
G01X23552118Y-4952129D01*
G01X23557960Y-4969147D01*
G01X23569390Y-4980577D01*
G01X23580820Y-4986419D01*
G01X23597838Y-4986419D01*
G01X23609268Y-4980577D01*
G01X23620698Y-4969147D01*
G01X24511875Y-4866277D02*
G01X24557595Y-4986419D01*
G01X24603315Y-4866277D02*
G01X24557595Y-4986419D01*
G01X24651067Y-4866277D02*
G01X24656909Y-4872119D01*
G01X24662497Y-4866277D01*
G01X24656909Y-4860689D01*
G01X24651067Y-4866277D01*
G01X24656909Y-4906409D02*
G01X24656909Y-4986419D01*
G01X24778829Y-4906409D02*
G01X24778829Y-4986419D01*
G01X24778829Y-4923427D02*
G01X24767399Y-4911997D01*
G01X24755969Y-4906409D01*
G01X24738951Y-4906409D01*
G01X24727521Y-4911997D01*
G01X24716091Y-4923427D01*
G01X24710249Y-4940699D01*
G01X24710249Y-4952129D01*
G01X24716091Y-4969147D01*
G01X24727521Y-4980577D01*
G01X24738951Y-4986419D01*
G01X24755969Y-4986419D01*
G01X24767399Y-4980577D01*
G01X24778829Y-4969147D01*
G01X28140555Y-4866277D02*
G01X28140555Y-4986419D01*
G01X28100423Y-4866277D02*
G01X28180433Y-4866277D01*
G01X28256887Y-4906409D02*
G01X28245457Y-4911997D01*
G01X28234027Y-4923427D01*
G01X28228185Y-4940699D01*
G01X28228185Y-4952129D01*
G01X28234027Y-4969147D01*
G01X28245457Y-4980577D01*
G01X28256887Y-4986419D01*
G01X28273905Y-4986419D01*
G01X28285335Y-4980577D01*
G01X28296765Y-4969147D01*
G01X28302607Y-4952129D01*
G01X28302607Y-4940699D01*
G01X28296765Y-4923427D01*
G01X28285335Y-4911997D01*
G01X28273905Y-4906409D01*
G01X28256887Y-4906409D01*
G01X28350359Y-4906409D02*
G01X28350359Y-5026297D01*
G01X28350359Y-4923427D02*
G01X28361789Y-4911997D01*
G01X28373219Y-4906409D01*
G01X28390491Y-4906409D01*
G01X28401921Y-4911997D01*
G01X28413351Y-4923427D01*
G01X28418939Y-4940699D01*
G01X28418939Y-4952129D01*
G01X28413351Y-4969147D01*
G01X28401921Y-4980577D01*
G01X28390491Y-4986419D01*
G01X28373219Y-4986419D01*
G01X28361789Y-4980577D01*
G01X28350359Y-4969147D01*
G01X28594707Y-4866277D02*
G01X28594707Y-4986419D01*
G01X28594707Y-4986419D02*
G01X28663287Y-4986419D01*
G01X28779619Y-4906409D02*
G01X28779619Y-4986419D01*
G01X28779619Y-4923427D02*
G01X28768189Y-4911997D01*
G01X28756759Y-4906409D01*
G01X28739741Y-4906409D01*
G01X28728311Y-4911997D01*
G01X28716881Y-4923427D01*
G01X28711039Y-4940699D01*
G01X28711039Y-4952129D01*
G01X28716881Y-4969147D01*
G01X28728311Y-4980577D01*
G01X28739741Y-4986419D01*
G01X28756759Y-4986419D01*
G01X28768189Y-4980577D01*
G01X28779619Y-4969147D01*
G01X28833213Y-4906409D02*
G01X28867503Y-4986419D01*
G01X28901793Y-4906409D02*
G01X28867503Y-4986419D01*
G01X28856073Y-5009279D01*
G01X28844643Y-5020709D01*
G01X28833213Y-5026297D01*
G01X28827371Y-5026297D01*
G01X28949545Y-4940699D02*
G01X29018125Y-4940699D01*
G01X29018125Y-4929269D01*
G01X29012537Y-4917839D01*
G01X29006695Y-4911997D01*
G01X28995265Y-4906409D01*
G01X28978247Y-4906409D01*
G01X28966817Y-4911997D01*
G01X28955387Y-4923427D01*
G01X28949545Y-4940699D01*
G01X28949545Y-4952129D01*
G01X28955387Y-4969147D01*
G01X28966817Y-4980577D01*
G01X28978247Y-4986419D01*
G01X28995265Y-4986419D01*
G01X29006695Y-4980577D01*
G01X29018125Y-4969147D01*
G01X29065877Y-4906409D02*
G01X29065877Y-4986419D01*
G01X29065877Y-4940699D02*
G01X29071719Y-4923427D01*
G01X29083149Y-4911997D01*
G01X29094579Y-4906409D01*
G01X29111597Y-4906409D01*
G01X29159349Y-4934857D02*
G01X29262219Y-4934857D01*
G01X29309971Y-4866277D02*
G01X29309971Y-4986419D01*
G01X29309971Y-4866277D02*
G01X29361533Y-4866277D01*
G01X29378551Y-4872119D01*
G01X29384393Y-4877707D01*
G01X29389981Y-4889137D01*
G01X29389981Y-4900567D01*
G01X29384393Y-4911997D01*
G01X29378551Y-4917839D01*
G01X29361533Y-4923427D01*
G01X29309971Y-4923427D02*
G01X29361533Y-4923427D01*
G01X29378551Y-4929269D01*
G01X29384393Y-4934857D01*
G01X29389981Y-4946287D01*
G01X29389981Y-4963559D01*
G01X29384393Y-4974989D01*
G01X29378551Y-4980577D01*
G01X29361533Y-4986419D01*
G01X29309971Y-4986419D01*
G01X29466435Y-4906409D02*
G01X29455005Y-4911997D01*
G01X29443575Y-4923427D01*
G01X29437733Y-4940699D01*
G01X29437733Y-4952129D01*
G01X29443575Y-4969147D01*
G01X29455005Y-4980577D01*
G01X29466435Y-4986419D01*
G01X29483453Y-4986419D01*
G01X29494883Y-4980577D01*
G01X29506313Y-4969147D01*
G01X29512155Y-4952129D01*
G01X29512155Y-4940699D01*
G01X29506313Y-4923427D01*
G01X29494883Y-4911997D01*
G01X29483453Y-4906409D01*
G01X29466435Y-4906409D01*
G01X29577179Y-4866277D02*
G01X29577179Y-4963559D01*
G01X29582767Y-4980577D01*
G01X29594197Y-4986419D01*
G01X29605627Y-4986419D01*
G01X29559907Y-4906409D02*
G01X29600039Y-4906409D01*
G01X29670651Y-4866277D02*
G01X29670651Y-4963559D01*
G01X29676239Y-4980577D01*
G01X29687669Y-4986419D01*
G01X29699099Y-4986419D01*
G01X29653379Y-4906409D02*
G01X29693511Y-4906409D01*
G01X29775553Y-4906409D02*
G01X29764123Y-4911997D01*
G01X29752693Y-4923427D01*
G01X29746851Y-4940699D01*
G01X29746851Y-4952129D01*
G01X29752693Y-4969147D01*
G01X29764123Y-4980577D01*
G01X29775553Y-4986419D01*
G01X29792571Y-4986419D01*
G01X29804001Y-4980577D01*
G01X29815431Y-4969147D01*
G01X29821273Y-4952129D01*
G01X29821273Y-4940699D01*
G01X29815431Y-4923427D01*
G01X29804001Y-4911997D01*
G01X29792571Y-4906409D01*
G01X29775553Y-4906409D01*
G01X29869025Y-4906409D02*
G01X29869025Y-4986419D01*
G01X29869025Y-4929269D02*
G01X29886297Y-4911997D01*
G01X29897727Y-4906409D01*
G01X29914745Y-4906409D01*
G01X29926175Y-4911997D01*
G01X29932017Y-4929269D01*
G01X29932017Y-4986419D01*
G01X29932017Y-4929269D02*
G01X29949035Y-4911997D01*
G01X29960465Y-4906409D01*
G01X29977737Y-4906409D01*
G01X29989167Y-4911997D01*
G01X29994755Y-4929269D01*
G01X29994755Y-4986419D01*
G01X30170523Y-4866277D02*
G01X30170523Y-4986419D01*
G01X30170523Y-4986419D02*
G01X30239103Y-4986419D01*
G01X30355435Y-4906409D02*
G01X30355435Y-4986419D01*
G01X30355435Y-4923427D02*
G01X30344005Y-4911997D01*
G01X30332575Y-4906409D01*
G01X30315557Y-4906409D01*
G01X30304127Y-4911997D01*
G01X30292697Y-4923427D01*
G01X30286855Y-4940699D01*
G01X30286855Y-4952129D01*
G01X30292697Y-4969147D01*
G01X30304127Y-4980577D01*
G01X30315557Y-4986419D01*
G01X30332575Y-4986419D01*
G01X30344005Y-4980577D01*
G01X30355435Y-4969147D01*
G01X30409029Y-4906409D02*
G01X30443319Y-4986419D01*
G01X30477609Y-4906409D02*
G01X30443319Y-4986419D01*
G01X30431889Y-5009279D01*
G01X30420459Y-5020709D01*
G01X30409029Y-5026297D01*
G01X30403187Y-5026297D01*
G01X30525361Y-4940699D02*
G01X30593941Y-4940699D01*
G01X30593941Y-4929269D01*
G01X30588353Y-4917839D01*
G01X30582511Y-4911997D01*
G01X30571081Y-4906409D01*
G01X30554063Y-4906409D01*
G01X30542633Y-4911997D01*
G01X30531203Y-4923427D01*
G01X30525361Y-4940699D01*
G01X30525361Y-4952129D01*
G01X30531203Y-4969147D01*
G01X30542633Y-4980577D01*
G01X30554063Y-4986419D01*
G01X30571081Y-4986419D01*
G01X30582511Y-4980577D01*
G01X30593941Y-4969147D01*
G01X30641693Y-4906409D02*
G01X30641693Y-4986419D01*
G01X30641693Y-4940699D02*
G01X30647535Y-4923427D01*
G01X30658965Y-4911997D01*
G01X30670395Y-4906409D01*
G01X30687413Y-4906409D01*

G04 Image Start*
G36*
G01X14850586Y-4789714D02*
G01X15015686Y-4954814D01*
G01X14850586Y-5119914D01*
G01X14685486Y-4954814D01*
G01X14721401Y-4954814D01*
G01X14850586Y-5083999D01*
G01X14979770Y-4954814D01*
G01X14850586Y-4825630D01*
G01X14850586Y-4825630D01*
G01X14721401Y-4954814D01*
G01X14685486Y-4954814D01*
G01X14850586Y-4789714D01*
G37*
G36*
G01X14982463Y-2724604D02*
G01X14876849Y-2713123D01*
G01X14833974Y-2810329D01*
G01X14791099Y-2713123D01*
G01X14685486Y-2724604D01*
G01X14748249Y-2638879D01*
G01X14708527Y-2584624D01*
G01X14740020Y-2584624D01*
G01X14779720Y-2638879D01*
G01X14740020Y-2693133D01*
G01X14806847Y-2685869D01*
G01X14806847Y-2685869D01*
G01X14833974Y-2747362D01*
G01X14861101Y-2685869D01*
G01X14927929Y-2693133D01*
G01X14888229Y-2638879D01*
G01X14927903Y-2584650D01*
G01X14861076Y-2591914D01*
G01X14833974Y-2530395D01*
G01X14806847Y-2591889D01*
G01X14740020Y-2584624D01*
G01X14708527Y-2584624D01*
G01X14685486Y-2553154D01*
G01X14791124Y-2564634D01*
G01X14833974Y-2467429D01*
G01X14876849Y-2564634D01*
G01X14982463Y-2553154D01*
G01X14919699Y-2638879D01*
G01X14982463Y-2724604D01*
G37*
G36*
G01X14853469Y-1610299D02*
G01X14845729Y-1610887D01*
G01X14837886Y-1611086D01*
G01X14830043Y-1610887D01*
G01X14822302Y-1610299D01*
G01X14814675Y-1609330D01*
G01X14807170Y-1607990D01*
G01X14792564Y-1604235D01*
G01X14778562Y-1599110D01*
G01X14765240Y-1592693D01*
G01X14752674Y-1585060D01*
G01X14740942Y-1576287D01*
G01X14730120Y-1566452D01*
G01X14720284Y-1555629D01*
G01X14711511Y-1543897D01*
G01X14703878Y-1531332D01*
G01X14697461Y-1518010D01*
G01X14692337Y-1504008D01*
G01X14688582Y-1489402D01*
G01X14687242Y-1481896D01*
G01X14686272Y-1474269D01*
G01X14685684Y-1466529D01*
G01X14685486Y-1458686D01*
G01X14710886Y-1458686D01*
G01X14711543Y-1471652D01*
G01X14713470Y-1484248D01*
G01X14716605Y-1496410D01*
G01X14720882Y-1508072D01*
G01X14726237Y-1519172D01*
G01X14732605Y-1529643D01*
G01X14739923Y-1539423D01*
G01X14748125Y-1548446D01*
G01X14757149Y-1556649D01*
G01X14766928Y-1563966D01*
G01X14777400Y-1570335D01*
G01X14788499Y-1575690D01*
G01X14800162Y-1579966D01*
G01X14812323Y-1583101D01*
G01X14812323Y-1583101D01*
G01X14824919Y-1585029D01*
G01X14837886Y-1585686D01*
G01X14850852Y-1585029D01*
G01X14863448Y-1583101D01*
G01X14875610Y-1579966D01*
G01X14887272Y-1575690D01*
G01X14898372Y-1570335D01*
G01X14908843Y-1563966D01*
G01X14918623Y-1556649D01*
G01X14927646Y-1548446D01*
G01X14935849Y-1539423D01*
G01X14943166Y-1529643D01*
G01X14949535Y-1519172D01*
G01X14954890Y-1508072D01*
G01X14959166Y-1496410D01*
G01X14962301Y-1484248D01*
G01X14964229Y-1471652D01*
G01X14964886Y-1458686D01*
G01X14964229Y-1445719D01*
G01X14962301Y-1433123D01*
G01X14959166Y-1420962D01*
G01X14954890Y-1409299D01*
G01X14949535Y-1398200D01*
G01X14943166Y-1387728D01*
G01X14935849Y-1377949D01*
G01X14927646Y-1368925D01*
G01X14918623Y-1360723D01*
G01X14908843Y-1353405D01*
G01X14898372Y-1347037D01*
G01X14887272Y-1341682D01*
G01X14875610Y-1337405D01*
G01X14863448Y-1334271D01*
G01X14850852Y-1332343D01*
G01X14837886Y-1331686D01*
G01X14824919Y-1332343D01*
G01X14812323Y-1334271D01*
G01X14800162Y-1337405D01*
G01X14788499Y-1341682D01*
G01X14777400Y-1347037D01*
G01X14766928Y-1353405D01*
G01X14757149Y-1360723D01*
G01X14748125Y-1368925D01*
G01X14739923Y-1377949D01*
G01X14732605Y-1387728D01*
G01X14726237Y-1398200D01*
G01X14720882Y-1409299D01*
G01X14716605Y-1420962D01*
G01X14713470Y-1433123D01*
G01X14711543Y-1445719D01*
G01X14710886Y-1458686D01*
G01X14685486Y-1458686D01*
G01X14685684Y-1450843D01*
G01X14686272Y-1443102D01*
G01X14687242Y-1435475D01*
G01X14688582Y-1427970D01*
G01X14692337Y-1413364D01*
G01X14697461Y-1399362D01*
G01X14703878Y-1386040D01*
G01X14711511Y-1373474D01*
G01X14720284Y-1361742D01*
G01X14730120Y-1350920D01*
G01X14740942Y-1341084D01*
G01X14752674Y-1332311D01*
G01X14765240Y-1324678D01*
G01X14778562Y-1318261D01*
G01X14792564Y-1313137D01*
G01X14807170Y-1309382D01*
G01X14814675Y-1308042D01*
G01X14822302Y-1307072D01*
G01X14830043Y-1306484D01*
G01X14837886Y-1306286D01*
G01X14845729Y-1306484D01*
G01X14853469Y-1307072D01*
G01X14861096Y-1308042D01*
G01X14868602Y-1309382D01*
G01X14883208Y-1313137D01*
G01X14897210Y-1318261D01*
G01X14910532Y-1324678D01*
G01X14923097Y-1332311D01*
G01X14934829Y-1341084D01*
G01X14945652Y-1350920D01*
G01X14955487Y-1361742D01*
G01X14964260Y-1373474D01*
G01X14971893Y-1386040D01*
G01X14978310Y-1399362D01*
G01X14983435Y-1413364D01*
G01X14987190Y-1427970D01*
G01X14988530Y-1435475D01*
G01X14989499Y-1443102D01*
G01X14990087Y-1450843D01*
G01X14990286Y-1458686D01*
G01X14990087Y-1466529D01*
G01X14989499Y-1474269D01*
G01X14988530Y-1481896D01*
G01X14987190Y-1489402D01*
G01X14983435Y-1504008D01*
G01X14978310Y-1518010D01*
G01X14971893Y-1531332D01*
G01X14964260Y-1543897D01*
G01X14955487Y-1555629D01*
G01X14945652Y-1566452D01*
G01X14934829Y-1576287D01*
G01X14923097Y-1585060D01*
G01X14910532Y-1592693D01*
G01X14897210Y-1599110D01*
G01X14883208Y-1604235D01*
G01X14868602Y-1607990D01*
G01X14861096Y-1609330D01*
G01X14853469Y-1610299D01*
G37*
G36*
G01X14990286Y-3850237D02*
G01X14907177Y-3850237D01*
G01X14907177Y-3933371D01*
G01X14768620Y-3933371D01*
G01X14768620Y-3850263D01*
G01X14685486Y-3850263D01*
G01X14685486Y-3737106D01*
G01X14710886Y-3737106D01*
G01X14710886Y-3824837D01*
G01X14794020Y-3824837D01*
G01X14794020Y-3907971D01*
G01X14794020Y-3907971D01*
G01X14881752Y-3907971D01*
G01X14881752Y-3824863D01*
G01X14964886Y-3824863D01*
G01X14964886Y-3737106D01*
G01X14881752Y-3737106D01*
G01X14881752Y-3653971D01*
G01X14794020Y-3653971D01*
G01X14794020Y-3737106D01*
G01X14710886Y-3737106D01*
G01X14685486Y-3737106D01*
G01X14685486Y-3711706D01*
G01X14768620Y-3711706D01*
G01X14768620Y-3628571D01*
G01X14907152Y-3628571D01*
G01X14907152Y-3711706D01*
G01X14990286Y-3711706D01*
G01X14990286Y-3850237D01*
G37*
G36*
G01X14990286Y-3048000D02*
G01X14920258Y-3200400D01*
G01X14990286Y-3352800D01*
G01X14837886Y-3282772D01*
G01X14685486Y-3352800D01*
G01X14709248Y-3301086D01*
G01X14737200Y-3301086D01*
G01X14827269Y-3259684D01*
G01X14837886Y-3254807D01*
G01X14848503Y-3259684D01*
G01X14938571Y-3301086D01*
G01X14897169Y-3211017D01*
G01X14892293Y-3200400D01*
G01X14897169Y-3189783D01*
G01X14938571Y-3099714D01*
G01X14848503Y-3141116D01*
G01X14837886Y-3145993D01*
G01X14827269Y-3141116D01*
G01X14737200Y-3099714D01*
G01X14778602Y-3189783D01*
G01X14783479Y-3200400D01*
G01X14783479Y-3200400D01*
G01X14778602Y-3211017D01*
G01X14737200Y-3301086D01*
G01X14709248Y-3301086D01*
G01X14755514Y-3200400D01*
G01X14685486Y-3048000D01*
G01X14837886Y-3118028D01*
G01X14990286Y-3048000D01*
G37*
G36*
G01X14685486Y-1886857D02*
G01X14990286Y-1886857D01*
G01X14837886Y-2150814D01*
G01X14700151Y-1912257D01*
G01X14729479Y-1912257D01*
G01X14837886Y-2100014D01*
G01X14946293Y-1912257D01*
G01X14946293Y-1912257D01*
G01X14729479Y-1912257D01*
G01X14700151Y-1912257D01*
G01X14685486Y-1886857D01*
G37*
G36*
G01X14964886Y-4488543D02*
G01X14863286Y-4488543D01*
G01X14825186Y-4412343D01*
G01X14787086Y-4488543D01*
G01X14685486Y-4488543D01*
G01X14685486Y-4463143D01*
G01X14710886Y-4463143D01*
G01X14771389Y-4463143D01*
G01X14802453Y-4400989D01*
G01X14825186Y-4355548D01*
G01X14847919Y-4400989D01*
G01X14878983Y-4463143D01*
G01X14939486Y-4463143D01*
G01X14939486Y-4402640D01*
G01X14877332Y-4371550D01*
G01X14831891Y-4348843D01*
G01X14877332Y-4326135D01*
G01X14939486Y-4295046D01*
G01X14939486Y-4234543D01*
G01X14878983Y-4234543D01*
G01X14847919Y-4296697D01*
G01X14825186Y-4342137D01*
G01X14802453Y-4296697D01*
G01X14771389Y-4234543D01*
G01X14710886Y-4234543D01*
G01X14710886Y-4295046D01*
G01X14773040Y-4326135D01*
G01X14818480Y-4348843D01*
G01X14773040Y-4371550D01*
G01X14710886Y-4402640D01*
G01X14710886Y-4463143D01*
G01X14710886Y-4463143D01*
G01X14685486Y-4463143D01*
G01X14685486Y-4386943D01*
G01X14761686Y-4348843D01*
G01X14685486Y-4310743D01*
G01X14685486Y-4209143D01*
G01X14787086Y-4209143D01*
G01X14825186Y-4285343D01*
G01X14863286Y-4209143D01*
G01X14964886Y-4209143D01*
G01X14964886Y-4310743D01*
G01X14888686Y-4348843D01*
G01X14964886Y-4386943D01*
G01X14964886Y-4488543D01*
G37*
G36*
G01X14685486Y-725714D02*
G01X14964886Y-725714D01*
G01X14964886Y-1005114D01*
G01X14685486Y-1005114D01*
G01X14685486Y-751114D01*
G01X14710886Y-751114D01*
G01X14710886Y-979714D01*
G01X14939486Y-979714D01*
G01X14939486Y-751114D01*
G01X14939486Y-751114D01*
G01X14710886Y-751114D01*
G01X14685486Y-751114D01*
G01X14685486Y-725714D01*
G37*

G04 PolygonModel Start*
G54D19*
G01X14395200Y-5225143D02*
G01X31278145Y-5225143D01*
G01X14395200Y-4644571D02*
G01X31278145Y-4644571D01*
G01X14395200Y-4064000D02*
G01X31278145Y-4064000D01*
G01X14395200Y-3483429D02*
G01X31278145Y-3483429D01*
G01X14395200Y-2902857D02*
G01X31278145Y-2902857D01*
G01X14395200Y-2322286D02*
G01X31278145Y-2322286D01*
G01X14395200Y-1741714D02*
G01X31278145Y-1741714D01*
G01X14395200Y-1161143D02*
G01X31278145Y-1161143D01*
G01X14395200Y-580571D02*
G01X31278145Y-580571D01*
G01X14395200Y0D02*
G01X31278145Y0D01*
G01X14395200Y0D02*
G01X14395200Y-5199743D01*
G01X15846629Y0D02*
G01X15846629Y-5199743D01*
G01X17260792Y0D02*
G01X17260792Y-5199743D01*
G01X21318841Y0D02*
G01X21318841Y-5199743D01*
G01X22780248Y0D02*
G01X22780248Y-5199743D01*
G01X24211429Y0D02*
G01X24211429Y-5199743D01*
G01X25880608Y0D02*
G01X25880608Y-5199743D01*
G01X27799977Y0D02*
G01X27799977Y-5199743D01*
G01X31278145Y0D02*
G01X31278145Y-5199743D01*

M02*

