G04 Layer: BottomLayer*
G04 EasyEDA Pro v3.2.148, 2026-07-18 15:48:42*
G04 Gerber Generator version 0.3*
G04 Scale: 100 percent, Rotated: No, Reflected: No*
G04 Dimensions in millimeters*
G04 Leading zeros omitted, absolute positions, 4 integers and 5 decimals*
G04 Generated by one-click*
G04 Object Configs: Pad,Via,Track,Text,Image,Dimension,BoardOutline,BoardCutout,CopperFilled,SolidRegion,FPCStiffener,Line,PlaneZone,ComponentProperty,ComponentSilkscreen,TearDrop*
G04 Layer Configs: 1,15,16,2,3,4,5,6,7,8,9,10,11,13,14,56*
G04 Copper Areas: 9*
%FSLAX45Y45*%
%MOMM*%
%ADD10C,0.2032*%
%ADD11C,1.016*%
%ADD12C,4.064*%
%ADD13C,2.0*%
%ADD14C,2.4*%
%ADD15C,2.3*%
%ADD16O,1.1009X2.0*%
%ADD17O,1.1X2.0*%
%ADD18O,1.2X1.8*%
%ADD19C,0.61*%
%ADD20C,0.24925*%
%ADD21C,0.254*%
G75*


G04 Copper Start*
G36*
G01X35814Y-254000D02*
G01X37681Y-225521D01*
G01X43249Y-197529D01*
G01X52422Y-170504D01*
G01X65045Y-144907D01*
G01X80901Y-121177D01*
G01X99719Y-99719D01*
G01X121177Y-80901D01*
G01X144907Y-65045D01*
G01X170504Y-52422D01*
G01X197529Y-43249D01*
G01X225521Y-37681D01*
G01X254000Y-35814D01*
G01X12141200Y-35814D01*
G01X12169679Y-37681D01*
G01X12197671Y-43249D01*
G01X12224696Y-52422D01*
G01X12250293Y-65045D01*
G01X12274023Y-80901D01*
G01X12295481Y-99719D01*
G01X12314299Y-121177D01*
G01X12330155Y-144907D01*
G01X12342778Y-170504D01*
G01X12351951Y-197529D01*
G01X12357519Y-225521D01*
G01X12359386Y-254000D01*
G01X12359386Y-10985500D01*
G01X12357519Y-11013979D01*
G01X12351951Y-11041971D01*
G01X12342778Y-11068996D01*
G01X12330155Y-11094593D01*
G01X12314299Y-11118323D01*
G01X12295481Y-11139781D01*
G01X12274023Y-11158599D01*
G01X12250293Y-11174455D01*
G01X12224696Y-11187078D01*
G01X12197671Y-11196251D01*
G01X12169679Y-11201819D01*
G01X12141200Y-11203686D01*
G01X254000Y-11203686D01*
G01X225521Y-11201819D01*
G01X197529Y-11196251D01*
G01X170504Y-11187078D01*
G01X144907Y-11174455D01*
G01X121177Y-11158599D01*
G01X99719Y-11139781D01*
G01X80901Y-11118323D01*
G01X65045Y-11094593D01*
G01X52422Y-11068996D01*
G01X43249Y-11041971D01*
G01X37681Y-11013979D01*
G01X35814Y-10985500D01*
G01X35814Y-10795000D01*
G01X124938Y-10795000D01*
G01X126823Y-10824956D01*
G01X132447Y-10854440D01*
G01X141723Y-10882987D01*
G01X154503Y-10910146D01*
G01X170586Y-10935489D01*
G01X189719Y-10958616D01*
G01X211599Y-10979163D01*
G01X235882Y-10996806D01*
G01X262185Y-11011266D01*
G01X290093Y-11022316D01*
G01X319165Y-11029780D01*
G01X348944Y-11033542D01*
G01X378960Y-11033542D01*
G01X408739Y-11029780D01*
G01X437812Y-11022316D01*
G01X465719Y-11011266D01*
G01X492022Y-10996806D01*
G01X516306Y-10979163D01*
G01X538186Y-10958616D01*
G01X557319Y-10935489D01*
G01X568559Y-10917777D01*
G01X6468370Y-10917777D01*
G01X6468370Y-10977777D01*
G01X6470211Y-10996469D01*
G01X6475663Y-11014443D01*
G01X6484517Y-11031008D01*
G01X6496433Y-11045528D01*
G01X6510952Y-11057443D01*
G01X6527517Y-11066297D01*
G01X6545491Y-11071750D01*
G01X6564183Y-11073591D01*
G01X6582876Y-11071750D01*
G01X6600850Y-11066297D01*
G01X6617415Y-11057443D01*
G01X6631934Y-11045528D01*
G01X6643850Y-11031008D01*
G01X6652704Y-11014443D01*
G01X6658156Y-10996469D01*
G01X6659997Y-10977777D01*
G01X6659997Y-10917777D01*
G01X7333367Y-10917777D01*
G01X7333367Y-10977777D01*
G01X7335208Y-10996469D01*
G01X7340660Y-11014443D01*
G01X7349514Y-11031008D01*
G01X7361430Y-11045528D01*
G01X7375949Y-11057443D01*
G01X7392514Y-11066297D01*
G01X7410488Y-11071750D01*
G01X7429180Y-11073591D01*
G01X7447873Y-11071750D01*
G01X7465847Y-11066297D01*
G01X7482412Y-11057443D01*
G01X7496931Y-11045528D01*
G01X7508847Y-11031008D01*
G01X7517701Y-11014443D01*
G01X7523153Y-10996469D01*
G01X7524994Y-10977777D01*
G01X7524994Y-10917777D01*
G01X7523153Y-10899085D01*
G01X7517701Y-10881111D01*
G01X7508847Y-10864546D01*
G01X7496931Y-10850026D01*
G01X7482412Y-10838111D01*
G01X7465847Y-10829257D01*
G01X7447873Y-10823804D01*
G01X7429180Y-10821963D01*
G01X7410488Y-10823804D01*
G01X7392514Y-10829257D01*
G01X7375949Y-10838111D01*
G01X7361430Y-10850026D01*
G01X7349514Y-10864546D01*
G01X7340660Y-10881111D01*
G01X7335208Y-10899085D01*
G01X7333367Y-10917777D01*
G01X7333367Y-10917777D01*
G01X6659997Y-10917777D01*
G01X6658156Y-10899085D01*
G01X6652704Y-10881111D01*
G01X6643850Y-10864546D01*
G01X6631934Y-10850026D01*
G01X6617415Y-10838111D01*
G01X6600850Y-10829257D01*
G01X6582876Y-10823804D01*
G01X6564183Y-10821963D01*
G01X6545491Y-10823804D01*
G01X6527517Y-10829257D01*
G01X6510952Y-10838111D01*
G01X6496433Y-10850026D01*
G01X6484517Y-10864546D01*
G01X6475663Y-10881111D01*
G01X6470211Y-10899085D01*
G01X6468370Y-10917777D01*
G01X6468370Y-10917777D01*
G01X568559Y-10917777D01*
G01X573402Y-10910146D01*
G01X586182Y-10882987D01*
G01X595457Y-10854440D01*
G01X601082Y-10824956D01*
G01X602966Y-10795000D01*
G01X602966Y-10795000D01*
G01X11838686Y-10795000D01*
G01X11840571Y-10824956D01*
G01X11846195Y-10854440D01*
G01X11855470Y-10882987D01*
G01X11868250Y-10910146D01*
G01X11884334Y-10935489D01*
G01X11903466Y-10958616D01*
G01X11925347Y-10979163D01*
G01X11949630Y-10996806D01*
G01X11975933Y-11011266D01*
G01X12003841Y-11022316D01*
G01X12032913Y-11029780D01*
G01X12062692Y-11033542D01*
G01X12092708Y-11033542D01*
G01X12122487Y-11029780D01*
G01X12151559Y-11022316D01*
G01X12179467Y-11011266D01*
G01X12205770Y-10996806D01*
G01X12230053Y-10979163D01*
G01X12251934Y-10958616D01*
G01X12271066Y-10935489D01*
G01X12287150Y-10910146D01*
G01X12299930Y-10882987D01*
G01X12309205Y-10854440D01*
G01X12314829Y-10824956D01*
G01X12316714Y-10795000D01*
G01X12314829Y-10765044D01*
G01X12309205Y-10735560D01*
G01X12299930Y-10707013D01*
G01X12287150Y-10679854D01*
G01X12271066Y-10654511D01*
G01X12251934Y-10631384D01*
G01X12230053Y-10610837D01*
G01X12205770Y-10593194D01*
G01X12179467Y-10578734D01*
G01X12151559Y-10567684D01*
G01X12122487Y-10560220D01*
G01X12092708Y-10556458D01*
G01X12062692Y-10556458D01*
G01X12032913Y-10560220D01*
G01X12003841Y-10567684D01*
G01X11975933Y-10578734D01*
G01X11949630Y-10593194D01*
G01X11925347Y-10610837D01*
G01X11903466Y-10631384D01*
G01X11884334Y-10654511D01*
G01X11868250Y-10679854D01*
G01X11855470Y-10707013D01*
G01X11846195Y-10735560D01*
G01X11840571Y-10765044D01*
G01X11838686Y-10795000D01*
G01X11838686Y-10795000D01*
G01X602966Y-10795000D01*
G01X601082Y-10765044D01*
G01X595457Y-10735560D01*
G01X586182Y-10707013D01*
G01X573402Y-10679854D01*
G01X557319Y-10654511D01*
G01X538186Y-10631384D01*
G01X516306Y-10610837D01*
G01X492022Y-10593194D01*
G01X465719Y-10578734D01*
G01X450638Y-10572762D01*
G01X6473370Y-10572762D01*
G01X6475289Y-10591333D01*
G01X6480965Y-10609119D01*
G01X6490158Y-10625368D01*
G01X6502480Y-10639394D01*
G01X6517409Y-10650604D01*
G01X6534316Y-10658524D01*
G01X6552484Y-10662820D01*
G01X6571148Y-10663309D01*
G01X6589516Y-10659971D01*
G01X6606815Y-10652948D01*
G01X6622311Y-10642536D01*
G01X6635351Y-10629175D01*
G01X6645383Y-10613430D01*
G01X6654073Y-10626039D01*
G01X6665272Y-10636484D01*
G01X6678453Y-10644278D01*
G01X6693003Y-10649056D01*
G01X6708239Y-10650595D01*
G01X6723450Y-10648822D01*
G01X6737924Y-10643820D01*
G01X6750984Y-10635824D01*
G01X6762020Y-10625207D01*
G01X6770515Y-10612466D01*
G01X6776073Y-10598196D01*
G01X6778432Y-10583065D01*
G01X6777484Y-10567781D01*
G01X6773273Y-10553058D01*
G01X6765994Y-10539584D01*
G01X6755989Y-10527991D01*
G01X6743726Y-10518819D01*
G01X6729778Y-10512498D01*
G01X6737825Y-10498441D01*
G01X6742224Y-10482852D01*
G01X6742712Y-10466662D01*
G01X6739261Y-10450836D01*
G01X6732076Y-10436319D01*
G01X6721587Y-10423977D01*
G01X6708418Y-10414545D01*
G01X6693355Y-10408588D01*
G01X6677298Y-10406460D01*
G01X6661204Y-10408289D01*
G01X6646033Y-10413964D01*
G01X6632691Y-10423148D01*
G01X6619328Y-10410609D01*
G01X6603721Y-10401007D01*
G01X6586504Y-10394734D01*
G01X6568377Y-10392046D01*
G01X6550080Y-10393050D01*
G01X6532358Y-10397708D01*
G01X6515931Y-10405829D01*
G01X6501469Y-10417081D01*
G01X6489560Y-10431009D01*
G01X6480689Y-10447043D01*
G01X6475218Y-10464532D01*
G01X6473370Y-10482763D01*
G01X6473370Y-10482763D01*
G01X6473370Y-10572762D01*
G01X450638Y-10572762D01*
G01X437812Y-10567684D01*
G01X408739Y-10560220D01*
G01X378960Y-10556458D01*
G01X348944Y-10556458D01*
G01X319165Y-10560220D01*
G01X290093Y-10567684D01*
G01X262185Y-10578734D01*
G01X235882Y-10593194D01*
G01X211599Y-10610837D01*
G01X189719Y-10631384D01*
G01X170586Y-10654511D01*
G01X154503Y-10679854D01*
G01X141723Y-10707013D01*
G01X132447Y-10735560D01*
G01X126823Y-10765044D01*
G01X124938Y-10795000D01*
G01X124938Y-10795000D01*
G01X35814Y-10795000D01*
G01X35814Y-10279820D01*
G01X6944182Y-10279820D01*
G01X6946779Y-10294956D01*
G01X6952788Y-10309088D01*
G01X6961886Y-10321459D01*
G01X6961886Y-10452100D01*
G01X6963539Y-10464656D01*
G01X6968386Y-10476357D01*
G01X6976095Y-10486405D01*
G01X7109227Y-10619536D01*
G01X7111645Y-10635092D01*
G01X7117662Y-10649640D01*
G01X7126939Y-10662360D01*
G01X7138953Y-10672534D01*
G01X7153026Y-10679590D01*
G01X7168366Y-10683129D01*
G01X7184108Y-10682953D01*
G01X7199365Y-10679071D01*
G01X7213276Y-10671702D01*
G01X7225059Y-10661262D01*
G01X7234049Y-10648338D01*
G01X7239739Y-10633659D01*
G01X7252773Y-10642478D01*
G01X7267432Y-10648201D01*
G01X7282994Y-10650545D01*
G01X7298689Y-10649395D01*
G01X7313742Y-10644806D01*
G01X7327410Y-10637007D01*
G01X7339018Y-10626381D01*
G01X7347993Y-10613454D01*
G01X7358029Y-10629195D01*
G01X7371071Y-10642551D01*
G01X7386568Y-10652958D01*
G01X7403866Y-10659977D01*
G01X7422233Y-10663310D01*
G01X7440894Y-10662818D01*
G01X7459060Y-10658520D01*
G01X7475964Y-10650599D01*
G01X7490890Y-10639389D01*
G01X7503210Y-10625363D01*
G01X7505277Y-10621708D01*
G01X9128486Y-10621708D01*
G01X9130346Y-10637306D01*
G01X9135823Y-10652029D01*
G01X9144610Y-10665050D01*
G01X9156212Y-10675639D01*
G01X9169980Y-10683203D01*
G01X9185140Y-10687315D01*
G01X9200843Y-10687747D01*
G01X9216206Y-10684473D01*
G01X9230369Y-10677677D01*
G01X9242535Y-10667740D01*
G01X9252023Y-10655221D01*
G01X9258300Y-10640821D01*
G01X9264577Y-10655221D01*
G01X9274065Y-10667740D01*
G01X9286231Y-10677677D01*
G01X9300394Y-10684473D01*
G01X9315757Y-10687747D01*
G01X9331460Y-10687315D01*
G01X9346620Y-10683203D01*
G01X9360388Y-10675639D01*
G01X9371990Y-10665050D01*
G01X9380777Y-10652029D01*
G01X9386254Y-10637306D01*
G01X9388114Y-10621708D01*
G01X9636486Y-10621708D01*
G01X9638413Y-10637578D01*
G01X9644082Y-10652526D01*
G01X9653163Y-10665683D01*
G01X9665129Y-10676284D01*
G01X9679285Y-10683713D01*
G01X9694807Y-10687539D01*
G01X9710793Y-10687539D01*
G01X9726315Y-10683713D01*
G01X9740471Y-10676284D01*
G01X9752437Y-10665683D01*
G01X9761518Y-10652526D01*
G01X9767187Y-10637578D01*
G01X9769114Y-10621708D01*
G01X9767187Y-10605839D01*
G01X9761518Y-10590891D01*
G01X9752437Y-10577734D01*
G01X9740471Y-10567133D01*
G01X9726315Y-10559704D01*
G01X9710793Y-10555878D01*
G01X9694807Y-10555878D01*
G01X9679285Y-10559704D01*
G01X9665129Y-10567133D01*
G01X9653163Y-10577734D01*
G01X9644082Y-10590891D01*
G01X9638413Y-10605839D01*
G01X9636486Y-10621708D01*
G01X9636486Y-10621708D01*
G01X9388114Y-10621708D01*
G01X9386254Y-10606111D01*
G01X9380777Y-10591388D01*
G01X9371990Y-10578367D01*
G01X9360388Y-10567778D01*
G01X9346620Y-10560214D01*
G01X9331460Y-10556102D01*
G01X9315757Y-10555670D01*
G01X9300394Y-10558944D01*
G01X9286231Y-10565740D01*
G01X9274065Y-10575677D01*
G01X9264577Y-10588196D01*
G01X9258300Y-10602596D01*
G01X9252023Y-10588196D01*
G01X9242535Y-10575677D01*
G01X9230369Y-10565740D01*
G01X9216206Y-10558944D01*
G01X9200843Y-10555670D01*
G01X9185140Y-10556102D01*
G01X9169980Y-10560214D01*
G01X9156212Y-10567778D01*
G01X9144610Y-10578367D01*
G01X9135823Y-10591388D01*
G01X9130346Y-10606111D01*
G01X9128486Y-10621708D01*
G01X9128486Y-10621708D01*
G01X7505277Y-10621708D01*
G01X7512401Y-10609115D01*
G01X7518076Y-10591331D01*
G01X7519994Y-10572762D01*
G01X7519994Y-10482763D01*
G01X7518146Y-10464532D01*
G01X7512675Y-10447043D01*
G01X7503804Y-10431009D01*
G01X7491896Y-10417082D01*
G01X7477433Y-10405829D01*
G01X7461007Y-10397708D01*
G01X7443284Y-10393051D01*
G01X7424987Y-10392046D01*
G01X7406861Y-10394734D01*
G01X7389644Y-10401007D01*
G01X7374036Y-10410608D01*
G01X7360674Y-10423147D01*
G01X7347331Y-10413963D01*
G01X7332159Y-10408287D01*
G01X7316064Y-10406459D01*
G01X7300006Y-10408588D01*
G01X7284943Y-10414546D01*
G01X7271774Y-10423978D01*
G01X7261285Y-10436322D01*
G01X7254101Y-10450840D01*
G01X7250651Y-10466667D01*
G01X7251142Y-10482858D01*
G01X7255543Y-10498448D01*
G01X7263592Y-10512505D01*
G01X7250133Y-10518544D01*
G01X7238217Y-10527241D01*
G01X7228362Y-10538218D01*
G01X7220994Y-10550998D01*
G01X7216435Y-10565028D01*
G01X7204659Y-10557641D01*
G01X7191601Y-10552870D01*
G01X7177836Y-10550927D01*
G01X7058914Y-10432005D01*
G01X7058914Y-10321459D01*
G01X7058914Y-10321459D01*
G01X7068012Y-10309088D01*
G01X7074021Y-10294956D01*
G01X7076618Y-10279820D01*
G01X7075664Y-10264493D01*
G01X7071210Y-10249797D01*
G01X7064433Y-10238133D01*
G01X9255592Y-10238133D01*
G01X9256546Y-10253460D01*
G01X9261001Y-10268157D01*
G01X9268716Y-10281435D01*
G01X9279278Y-10292582D01*
G01X9292121Y-10301001D01*
G01X9306557Y-10306240D01*
G01X9321810Y-10308018D01*
G01X9337064Y-10306240D01*
G01X9351499Y-10301001D01*
G01X9364342Y-10292582D01*
G01X9374905Y-10281435D01*
G01X9382620Y-10268157D01*
G01X9387074Y-10253460D01*
G01X9388028Y-10238133D01*
G01X9385431Y-10222998D01*
G01X9379422Y-10208865D01*
G01X9370324Y-10196494D01*
G01X9370324Y-9655000D01*
G01X11190687Y-9655000D01*
G01X11192614Y-9670870D01*
G01X11198282Y-9685817D01*
G01X11207364Y-9698974D01*
G01X11219330Y-9709575D01*
G01X11233485Y-9717004D01*
G01X11249007Y-9720830D01*
G01X11264994Y-9720830D01*
G01X11280516Y-9717004D01*
G01X11294671Y-9709575D01*
G01X11306637Y-9698974D01*
G01X11315719Y-9685817D01*
G01X11321388Y-9670870D01*
G01X11323315Y-9655000D01*
G01X11321388Y-9639130D01*
G01X11315719Y-9624182D01*
G01X11306637Y-9611025D01*
G01X11294671Y-9600424D01*
G01X11280516Y-9592995D01*
G01X11264994Y-9589169D01*
G01X11249007Y-9589169D01*
G01X11233485Y-9592995D01*
G01X11219330Y-9600424D01*
G01X11207364Y-9611025D01*
G01X11198282Y-9624182D01*
G01X11192614Y-9639130D01*
G01X11190687Y-9655000D01*
G01X11190687Y-9655000D01*
G01X9370324Y-9655000D01*
G01X9370324Y-9570485D01*
G01X9542812Y-9397997D01*
G01X10979385Y-9397997D01*
G01X10981312Y-9413867D01*
G01X10986981Y-9428815D01*
G01X10996062Y-9441972D01*
G01X11008029Y-9452573D01*
G01X11022184Y-9460002D01*
G01X11037706Y-9463828D01*
G01X11053693Y-9463828D01*
G01X11069215Y-9460002D01*
G01X11083370Y-9452573D01*
G01X11095336Y-9441972D01*
G01X11104417Y-9428815D01*
G01X11110086Y-9413867D01*
G01X11112013Y-9397997D01*
G01X11110086Y-9382127D01*
G01X11104417Y-9367180D01*
G01X11095336Y-9354023D01*
G01X11083370Y-9343422D01*
G01X11069215Y-9335993D01*
G01X11053693Y-9332167D01*
G01X11037706Y-9332167D01*
G01X11022184Y-9335993D01*
G01X11008029Y-9343422D01*
G01X10996062Y-9354023D01*
G01X10986981Y-9367180D01*
G01X10981312Y-9382127D01*
G01X10979385Y-9397997D01*
G01X10979385Y-9397997D01*
G01X9542812Y-9397997D01*
G01X9826693Y-9114116D01*
G01X9826693Y-9114116D01*
G01X9834403Y-9104069D01*
G01X9839249Y-9092368D01*
G01X9840902Y-9079812D01*
G01X9840902Y-8838411D01*
G01X9850001Y-8826039D01*
G01X9856009Y-8811907D01*
G01X9858606Y-8796771D01*
G01X9857652Y-8781444D01*
G01X9853198Y-8766748D01*
G01X9845483Y-8753470D01*
G01X9834920Y-8742323D01*
G01X9822077Y-8733904D01*
G01X9807642Y-8728665D01*
G01X9792388Y-8726887D01*
G01X9777135Y-8728665D01*
G01X9762700Y-8733904D01*
G01X9749856Y-8742323D01*
G01X9739294Y-8753470D01*
G01X9731579Y-8766748D01*
G01X9727125Y-8781444D01*
G01X9726170Y-8796771D01*
G01X9728767Y-8811907D01*
G01X9734776Y-8826039D01*
G01X9743874Y-8838411D01*
G01X9743874Y-9059717D01*
G01X9287506Y-9516085D01*
G01X9279796Y-9526133D01*
G01X9274949Y-9537833D01*
G01X9273296Y-9550390D01*
G01X9273296Y-10196494D01*
G01X9264198Y-10208865D01*
G01X9258189Y-10222998D01*
G01X9255592Y-10238133D01*
G01X7064433Y-10238133D01*
G01X7063494Y-10236519D01*
G01X7052932Y-10225371D01*
G01X7040089Y-10216952D01*
G01X7025653Y-10211713D01*
G01X7010400Y-10209935D01*
G01X6995147Y-10211713D01*
G01X6980711Y-10216952D01*
G01X6967868Y-10225371D01*
G01X6957306Y-10236519D01*
G01X6949590Y-10249797D01*
G01X6945136Y-10264493D01*
G01X6944182Y-10279820D01*
G01X35814Y-10279820D01*
G01X35814Y-10043751D01*
G01X6944086Y-10043751D01*
G01X6946013Y-10059621D01*
G01X6951682Y-10074568D01*
G01X6960763Y-10087725D01*
G01X6972729Y-10098326D01*
G01X6986885Y-10105755D01*
G01X7002407Y-10109581D01*
G01X7018393Y-10109581D01*
G01X7033915Y-10105755D01*
G01X7048071Y-10098326D01*
G01X7060037Y-10087725D01*
G01X7069118Y-10074568D01*
G01X7074787Y-10059621D01*
G01X7076714Y-10043751D01*
G01X7074787Y-10027881D01*
G01X7069118Y-10012933D01*
G01X7060037Y-9999776D01*
G01X7048071Y-9989175D01*
G01X7033915Y-9981746D01*
G01X7018393Y-9977920D01*
G01X7002407Y-9977920D01*
G01X6986885Y-9981746D01*
G01X6972729Y-9989175D01*
G01X6960763Y-9999776D01*
G01X6951682Y-10012933D01*
G01X6946013Y-10027881D01*
G01X6944086Y-10043751D01*
G01X6944086Y-10043751D01*
G01X35814Y-10043751D01*
G01X35814Y-8483600D01*
G01X382586Y-8483600D01*
G01X384443Y-8507192D01*
G01X389968Y-8530204D01*
G01X399024Y-8552068D01*
G01X411389Y-8572246D01*
G01X426759Y-8590241D01*
G01X444754Y-8605611D01*
G01X464932Y-8617976D01*
G01X486796Y-8627032D01*
G01X509808Y-8632557D01*
G01X533400Y-8634414D01*
G01X556992Y-8632557D01*
G01X568466Y-8629802D01*
G01X1737086Y-8629802D01*
G01X1739013Y-8645672D01*
G01X1744682Y-8660620D01*
G01X1753763Y-8673777D01*
G01X1765729Y-8684378D01*
G01X1779885Y-8691807D01*
G01X1795407Y-8695633D01*
G01X1811393Y-8695633D01*
G01X1826915Y-8691807D01*
G01X1841071Y-8684378D01*
G01X1853037Y-8673777D01*
G01X1862118Y-8660620D01*
G01X1867787Y-8645672D01*
G01X1869714Y-8629802D01*
G01X1867787Y-8613932D01*
G01X1863659Y-8603047D01*
G01X11645256Y-8603047D01*
G01X11647183Y-8618917D01*
G01X11652852Y-8633865D01*
G01X11661934Y-8647022D01*
G01X11673900Y-8657623D01*
G01X11688055Y-8665052D01*
G01X11703577Y-8668878D01*
G01X11719564Y-8668878D01*
G01X11735086Y-8665052D01*
G01X11749241Y-8657623D01*
G01X11761207Y-8647022D01*
G01X11770289Y-8633865D01*
G01X11775958Y-8618917D01*
G01X11777884Y-8603047D01*
G01X11775958Y-8587177D01*
G01X11770289Y-8572230D01*
G01X11761207Y-8559073D01*
G01X11749241Y-8548472D01*
G01X11735086Y-8541043D01*
G01X11719564Y-8537217D01*
G01X11703577Y-8537217D01*
G01X11688055Y-8541043D01*
G01X11673900Y-8548472D01*
G01X11661934Y-8559073D01*
G01X11652852Y-8572230D01*
G01X11647183Y-8587177D01*
G01X11645256Y-8603047D01*
G01X11645256Y-8603047D01*
G01X1863659Y-8603047D01*
G01X1862118Y-8598985D01*
G01X1853037Y-8585828D01*
G01X1841071Y-8575227D01*
G01X1826915Y-8567798D01*
G01X1811393Y-8563972D01*
G01X1795407Y-8563972D01*
G01X1779885Y-8567798D01*
G01X1765729Y-8575227D01*
G01X1753763Y-8585828D01*
G01X1744682Y-8598985D01*
G01X1739013Y-8613932D01*
G01X1737086Y-8629802D01*
G01X1737086Y-8629802D01*
G01X568466Y-8629802D01*
G01X580004Y-8627032D01*
G01X601868Y-8617976D01*
G01X622046Y-8605611D01*
G01X640041Y-8590241D01*
G01X655411Y-8572246D01*
G01X667776Y-8552068D01*
G01X676832Y-8530204D01*
G01X682357Y-8507192D01*
G01X684214Y-8483600D01*
G01X682357Y-8460008D01*
G01X676832Y-8436996D01*
G01X667776Y-8415132D01*
G01X655411Y-8394954D01*
G01X640041Y-8376959D01*
G01X622046Y-8361589D01*
G01X601868Y-8349224D01*
G01X580004Y-8340168D01*
G01X556992Y-8334643D01*
G01X533400Y-8332786D01*
G01X533400Y-8332786D01*
G01X509808Y-8334643D01*
G01X486796Y-8340168D01*
G01X464932Y-8349224D01*
G01X444754Y-8361589D01*
G01X426759Y-8376959D01*
G01X411389Y-8394954D01*
G01X399024Y-8415132D01*
G01X389968Y-8436996D01*
G01X384443Y-8460008D01*
G01X382586Y-8483600D01*
G01X35814Y-8483600D01*
G01X35814Y-8327898D01*
G01X1241786Y-8327898D01*
G01X1243713Y-8343768D01*
G01X1249382Y-8358716D01*
G01X1258463Y-8371872D01*
G01X1270429Y-8382473D01*
G01X1284585Y-8389903D01*
G01X1300107Y-8393729D01*
G01X1316093Y-8393729D01*
G01X1331615Y-8389903D01*
G01X1345771Y-8382473D01*
G01X1357737Y-8371872D01*
G01X1366818Y-8358716D01*
G01X1372487Y-8343768D01*
G01X1374414Y-8327898D01*
G01X1372487Y-8312028D01*
G01X1366818Y-8297080D01*
G01X1357737Y-8283924D01*
G01X1356315Y-8282664D01*
G01X11352808Y-8282664D01*
G01X11354735Y-8298534D01*
G01X11360404Y-8313482D01*
G01X11369486Y-8326639D01*
G01X11381452Y-8337240D01*
G01X11395607Y-8344669D01*
G01X11411129Y-8348495D01*
G01X11427116Y-8348495D01*
G01X11442638Y-8344669D01*
G01X11456793Y-8337240D01*
G01X11468759Y-8326639D01*
G01X11477841Y-8313482D01*
G01X11483510Y-8298534D01*
G01X11485437Y-8282664D01*
G01X11483510Y-8266794D01*
G01X11479075Y-8255100D01*
G01X11657621Y-8255100D01*
G01X11659548Y-8270970D01*
G01X11665217Y-8285918D01*
G01X11674298Y-8299075D01*
G01X11686264Y-8309676D01*
G01X11700420Y-8317105D01*
G01X11715942Y-8320931D01*
G01X11731928Y-8320931D01*
G01X11747450Y-8317105D01*
G01X11761606Y-8309676D01*
G01X11773572Y-8299075D01*
G01X11782653Y-8285918D01*
G01X11788322Y-8270970D01*
G01X11790249Y-8255100D01*
G01X11788322Y-8239230D01*
G01X11782653Y-8224283D01*
G01X11773572Y-8211126D01*
G01X11761606Y-8200525D01*
G01X11747450Y-8193096D01*
G01X11731928Y-8189270D01*
G01X11715942Y-8189270D01*
G01X11700420Y-8193096D01*
G01X11686264Y-8200525D01*
G01X11674298Y-8211126D01*
G01X11665217Y-8224283D01*
G01X11659548Y-8239230D01*
G01X11657621Y-8255100D01*
G01X11657621Y-8255100D01*
G01X11479075Y-8255100D01*
G01X11477841Y-8251847D01*
G01X11468759Y-8238690D01*
G01X11456793Y-8228089D01*
G01X11442638Y-8220660D01*
G01X11427116Y-8216834D01*
G01X11411129Y-8216834D01*
G01X11395607Y-8220660D01*
G01X11381452Y-8228089D01*
G01X11369486Y-8238690D01*
G01X11360404Y-8251847D01*
G01X11354735Y-8266794D01*
G01X11352808Y-8282664D01*
G01X11352808Y-8282664D01*
G01X1356315Y-8282664D01*
G01X1345771Y-8273323D01*
G01X1331615Y-8265893D01*
G01X1316093Y-8262067D01*
G01X1300107Y-8262067D01*
G01X1284585Y-8265893D01*
G01X1270429Y-8273323D01*
G01X1258463Y-8283924D01*
G01X1249382Y-8297080D01*
G01X1243713Y-8312028D01*
G01X1241786Y-8327898D01*
G01X1241786Y-8327898D01*
G01X35814Y-8327898D01*
G01X35814Y-7975600D01*
G01X382586Y-7975600D01*
G01X384443Y-7999192D01*
G01X389968Y-8022204D01*
G01X399024Y-8044068D01*
G01X411389Y-8064246D01*
G01X426759Y-8082241D01*
G01X444754Y-8097611D01*
G01X464932Y-8109976D01*
G01X486796Y-8119032D01*
G01X509808Y-8124557D01*
G01X533400Y-8126414D01*
G01X556992Y-8124557D01*
G01X568466Y-8121802D01*
G01X1737086Y-8121802D01*
G01X1739013Y-8137672D01*
G01X1744682Y-8152620D01*
G01X1753763Y-8165777D01*
G01X1765729Y-8176378D01*
G01X1779885Y-8183807D01*
G01X1795407Y-8187633D01*
G01X1811393Y-8187633D01*
G01X1826915Y-8183807D01*
G01X1841071Y-8176378D01*
G01X1853037Y-8165777D01*
G01X1862118Y-8152620D01*
G01X1867787Y-8137672D01*
G01X1869714Y-8121802D01*
G01X1867787Y-8105932D01*
G01X1862118Y-8090985D01*
G01X1853037Y-8077828D01*
G01X1841071Y-8067227D01*
G01X1826915Y-8059798D01*
G01X1811393Y-8055972D01*
G01X1795407Y-8055972D01*
G01X1779885Y-8059798D01*
G01X1765729Y-8067227D01*
G01X1753763Y-8077828D01*
G01X1744682Y-8090985D01*
G01X1739013Y-8105932D01*
G01X1737086Y-8121802D01*
G01X1737086Y-8121802D01*
G01X568466Y-8121802D01*
G01X580004Y-8119032D01*
G01X601868Y-8109976D01*
G01X622046Y-8097611D01*
G01X640041Y-8082241D01*
G01X655411Y-8064246D01*
G01X667776Y-8044068D01*
G01X676832Y-8022204D01*
G01X682357Y-7999192D01*
G01X684214Y-7975600D01*
G01X682357Y-7952008D01*
G01X679942Y-7941947D01*
G01X9445568Y-7941947D01*
G01X9447495Y-7957817D01*
G01X9453164Y-7972764D01*
G01X9462245Y-7985921D01*
G01X9474211Y-7996522D01*
G01X9488367Y-8003951D01*
G01X9503889Y-8007777D01*
G01X9519875Y-8007777D01*
G01X9535397Y-8003951D01*
G01X9549553Y-7996522D01*
G01X9561519Y-7985921D01*
G01X9570600Y-7972764D01*
G01X9576269Y-7957817D01*
G01X9578196Y-7941947D01*
G01X9576269Y-7926077D01*
G01X9570600Y-7911129D01*
G01X9561888Y-7898508D01*
G01X11655067Y-7898508D01*
G01X11656994Y-7914378D01*
G01X11662663Y-7929325D01*
G01X11671745Y-7942482D01*
G01X11683711Y-7953083D01*
G01X11697866Y-7960512D01*
G01X11713388Y-7964338D01*
G01X11729375Y-7964338D01*
G01X11744897Y-7960512D01*
G01X11759052Y-7953083D01*
G01X11771018Y-7942482D01*
G01X11780100Y-7929325D01*
G01X11785769Y-7914378D01*
G01X11787696Y-7898508D01*
G01X11785769Y-7882638D01*
G01X11780100Y-7867690D01*
G01X11771018Y-7854533D01*
G01X11759052Y-7843932D01*
G01X11744897Y-7836503D01*
G01X11729375Y-7832677D01*
G01X11713388Y-7832677D01*
G01X11697866Y-7836503D01*
G01X11683711Y-7843932D01*
G01X11671745Y-7854533D01*
G01X11662663Y-7867690D01*
G01X11656994Y-7882638D01*
G01X11655067Y-7898508D01*
G01X11655067Y-7898508D01*
G01X9561888Y-7898508D01*
G01X9561519Y-7897973D01*
G01X9549553Y-7887371D01*
G01X9535397Y-7879942D01*
G01X9519875Y-7876116D01*
G01X9503889Y-7876116D01*
G01X9488367Y-7879942D01*
G01X9474211Y-7887371D01*
G01X9462245Y-7897973D01*
G01X9453164Y-7911129D01*
G01X9447495Y-7926077D01*
G01X9445568Y-7941947D01*
G01X9445568Y-7941947D01*
G01X679942Y-7941947D01*
G01X676832Y-7928996D01*
G01X667776Y-7907132D01*
G01X655411Y-7886954D01*
G01X640041Y-7868959D01*
G01X622046Y-7853589D01*
G01X601868Y-7841224D01*
G01X580004Y-7832168D01*
G01X556992Y-7826643D01*
G01X533400Y-7824786D01*
G01X533400Y-7824786D01*
G01X509808Y-7826643D01*
G01X486796Y-7832168D01*
G01X464932Y-7841224D01*
G01X444754Y-7853589D01*
G01X426759Y-7868959D01*
G01X411389Y-7886954D01*
G01X399024Y-7907132D01*
G01X389968Y-7928996D01*
G01X384443Y-7952008D01*
G01X382586Y-7975600D01*
G01X35814Y-7975600D01*
G01X35814Y-7824064D01*
G01X1241786Y-7824064D01*
G01X1243713Y-7839934D01*
G01X1249382Y-7854881D01*
G01X1258463Y-7868038D01*
G01X1270429Y-7878639D01*
G01X1284585Y-7886068D01*
G01X1300107Y-7889894D01*
G01X1316093Y-7889894D01*
G01X1331615Y-7886068D01*
G01X1345771Y-7878639D01*
G01X1357737Y-7868038D01*
G01X1366818Y-7854881D01*
G01X1372487Y-7839934D01*
G01X1374414Y-7824064D01*
G01X1372487Y-7808194D01*
G01X1366818Y-7793246D01*
G01X1361195Y-7785100D01*
G01X2295886Y-7785100D01*
G01X2297813Y-7800970D01*
G01X2303482Y-7815918D01*
G01X2312563Y-7829074D01*
G01X2324529Y-7839675D01*
G01X2338685Y-7847105D01*
G01X2354207Y-7850931D01*
G01X2370193Y-7850931D01*
G01X2385715Y-7847105D01*
G01X2399871Y-7839675D01*
G01X2411837Y-7829074D01*
G01X2420918Y-7815918D01*
G01X2426587Y-7800970D01*
G01X2428514Y-7785100D01*
G01X2426587Y-7769230D01*
G01X2420918Y-7754282D01*
G01X2411837Y-7741126D01*
G01X2399871Y-7730525D01*
G01X2385715Y-7723095D01*
G01X2370193Y-7719269D01*
G01X2354207Y-7719269D01*
G01X2338685Y-7723095D01*
G01X2324529Y-7730525D01*
G01X2312563Y-7741126D01*
G01X2303482Y-7754282D01*
G01X2297813Y-7769230D01*
G01X2295886Y-7785100D01*
G01X2295886Y-7785100D01*
G01X1361195Y-7785100D01*
G01X1357737Y-7780089D01*
G01X1345771Y-7769488D01*
G01X1331615Y-7762059D01*
G01X1316093Y-7758233D01*
G01X1300107Y-7758233D01*
G01X1284585Y-7762059D01*
G01X1270429Y-7769488D01*
G01X1258463Y-7780089D01*
G01X1249382Y-7793246D01*
G01X1243713Y-7808194D01*
G01X1241786Y-7824064D01*
G01X1241786Y-7824064D01*
G01X35814Y-7824064D01*
G01X35814Y-7664602D01*
G01X1737086Y-7664602D01*
G01X1739013Y-7680472D01*
G01X1744682Y-7695420D01*
G01X1753763Y-7708577D01*
G01X1765729Y-7719178D01*
G01X1779885Y-7726607D01*
G01X1795407Y-7730433D01*
G01X1811393Y-7730433D01*
G01X1826915Y-7726607D01*
G01X1841071Y-7719178D01*
G01X1850825Y-7710536D01*
G01X2600706Y-7710536D01*
G01X2602819Y-7725583D01*
G01X2608301Y-7739754D01*
G01X2616864Y-7752305D01*
G01X2628060Y-7762577D01*
G01X2641300Y-7770031D01*
G01X2655889Y-7774277D01*
G01X2671061Y-7775090D01*
G01X2686020Y-7772428D01*
G01X2699981Y-7766431D01*
G01X2712210Y-7757414D01*
G01X3429000Y-7757414D01*
G01X3441556Y-7755761D01*
G01X3453257Y-7750914D01*
G01X3463305Y-7743205D01*
G01X3599209Y-7607300D01*
G01X6212586Y-7607300D01*
G01X6214471Y-7637256D01*
G01X6220095Y-7666740D01*
G01X6229370Y-7695287D01*
G01X6242150Y-7722446D01*
G01X6258234Y-7747789D01*
G01X6277366Y-7770916D01*
G01X6299247Y-7791463D01*
G01X6323530Y-7809106D01*
G01X6349833Y-7823566D01*
G01X6377741Y-7834616D01*
G01X6406813Y-7842080D01*
G01X6436592Y-7845842D01*
G01X6466608Y-7845842D01*
G01X6496387Y-7842080D01*
G01X6525459Y-7834616D01*
G01X6553367Y-7823566D01*
G01X6579670Y-7809106D01*
G01X6603953Y-7791463D01*
G01X6625834Y-7770916D01*
G01X6644966Y-7747789D01*
G01X6661050Y-7722446D01*
G01X6673830Y-7695287D01*
G01X6683105Y-7666740D01*
G01X6688729Y-7637256D01*
G01X6690614Y-7607300D01*
G01X6690614Y-7607300D01*
G01X7445996Y-7607300D01*
G01X7447880Y-7637256D01*
G01X7453505Y-7666740D01*
G01X7462780Y-7695287D01*
G01X7475560Y-7722446D01*
G01X7491643Y-7747789D01*
G01X7510776Y-7770916D01*
G01X7532656Y-7791463D01*
G01X7556939Y-7809106D01*
G01X7583242Y-7823566D01*
G01X7611150Y-7834616D01*
G01X7640223Y-7842080D01*
G01X7670002Y-7845842D01*
G01X7700017Y-7845842D01*
G01X7729796Y-7842080D01*
G01X7758869Y-7834616D01*
G01X7786777Y-7823566D01*
G01X7813080Y-7809106D01*
G01X7837363Y-7791463D01*
G01X7859243Y-7770916D01*
G01X7878376Y-7747789D01*
G01X7894459Y-7722446D01*
G01X7907239Y-7695287D01*
G01X7916514Y-7666740D01*
G01X7922139Y-7637256D01*
G01X7924024Y-7607300D01*
G01X7922139Y-7577344D01*
G01X7916514Y-7547860D01*
G01X7915880Y-7545906D01*
G01X11655067Y-7545906D01*
G01X11656994Y-7561776D01*
G01X11662663Y-7576724D01*
G01X11671745Y-7589881D01*
G01X11683711Y-7600482D01*
G01X11697866Y-7607911D01*
G01X11713388Y-7611737D01*
G01X11729375Y-7611737D01*
G01X11744897Y-7607911D01*
G01X11759052Y-7600482D01*
G01X11771018Y-7589881D01*
G01X11780100Y-7576724D01*
G01X11785769Y-7561776D01*
G01X11787696Y-7545906D01*
G01X11785769Y-7530036D01*
G01X11780100Y-7515088D01*
G01X11771018Y-7501932D01*
G01X11759052Y-7491331D01*
G01X11744897Y-7483901D01*
G01X11729375Y-7480076D01*
G01X11713388Y-7480076D01*
G01X11697866Y-7483901D01*
G01X11683711Y-7491331D01*
G01X11671745Y-7501932D01*
G01X11662663Y-7515088D01*
G01X11656994Y-7530036D01*
G01X11655067Y-7545906D01*
G01X11655067Y-7545906D01*
G01X7915880Y-7545906D01*
G01X7907239Y-7519313D01*
G01X7894459Y-7492154D01*
G01X7878376Y-7466811D01*
G01X7859243Y-7443684D01*
G01X7837363Y-7423137D01*
G01X7813080Y-7405494D01*
G01X7786777Y-7391034D01*
G01X7758869Y-7379984D01*
G01X7729796Y-7372520D01*
G01X7700017Y-7368758D01*
G01X7670002Y-7368758D01*
G01X7640223Y-7372520D01*
G01X7611150Y-7379984D01*
G01X7583242Y-7391034D01*
G01X7556939Y-7405494D01*
G01X7532656Y-7423137D01*
G01X7510776Y-7443684D01*
G01X7491643Y-7466811D01*
G01X7475560Y-7492154D01*
G01X7462780Y-7519313D01*
G01X7453505Y-7547860D01*
G01X7447880Y-7577344D01*
G01X7445996Y-7607300D01*
G01X7445996Y-7607300D01*
G01X6690614Y-7607300D01*
G01X6688729Y-7577344D01*
G01X6683105Y-7547860D01*
G01X6673830Y-7519313D01*
G01X6661050Y-7492154D01*
G01X6644966Y-7466811D01*
G01X6625834Y-7443684D01*
G01X6603953Y-7423137D01*
G01X6579670Y-7405494D01*
G01X6553367Y-7391034D01*
G01X6525459Y-7379984D01*
G01X6496387Y-7372520D01*
G01X6466608Y-7368758D01*
G01X6436592Y-7368758D01*
G01X6406813Y-7372520D01*
G01X6377741Y-7379984D01*
G01X6349833Y-7391034D01*
G01X6323530Y-7405494D01*
G01X6299247Y-7423137D01*
G01X6277366Y-7443684D01*
G01X6258234Y-7466811D01*
G01X6242150Y-7492154D01*
G01X6229370Y-7519313D01*
G01X6220095Y-7547860D01*
G01X6214471Y-7577344D01*
G01X6212586Y-7607300D01*
G01X6212586Y-7607300D01*
G01X3599209Y-7607300D01*
G01X4003494Y-7203015D01*
G01X11655017Y-7203015D01*
G01X11656944Y-7218885D01*
G01X11662612Y-7233833D01*
G01X11671694Y-7246989D01*
G01X11683660Y-7257590D01*
G01X11697815Y-7265020D01*
G01X11713337Y-7268846D01*
G01X11729324Y-7268846D01*
G01X11744846Y-7265020D01*
G01X11759001Y-7257590D01*
G01X11770967Y-7246989D01*
G01X11780049Y-7233833D01*
G01X11785718Y-7218885D01*
G01X11787645Y-7203015D01*
G01X11785718Y-7187145D01*
G01X11780049Y-7172197D01*
G01X11770967Y-7159041D01*
G01X11759001Y-7148440D01*
G01X11744846Y-7141010D01*
G01X11729324Y-7137184D01*
G01X11713337Y-7137184D01*
G01X11697815Y-7141010D01*
G01X11683660Y-7148440D01*
G01X11671694Y-7159041D01*
G01X11662612Y-7172197D01*
G01X11656944Y-7187145D01*
G01X11655017Y-7203015D01*
G01X11655017Y-7203015D01*
G01X4003494Y-7203015D01*
G01X4356096Y-6850414D01*
G01X11655067Y-6850414D01*
G01X11656994Y-6866284D01*
G01X11662663Y-6881231D01*
G01X11671745Y-6894388D01*
G01X11683711Y-6904989D01*
G01X11697866Y-6912418D01*
G01X11713388Y-6916244D01*
G01X11729375Y-6916244D01*
G01X11744897Y-6912418D01*
G01X11759052Y-6904989D01*
G01X11771018Y-6894388D01*
G01X11780100Y-6881231D01*
G01X11785769Y-6866284D01*
G01X11787696Y-6850414D01*
G01X11785769Y-6834544D01*
G01X11780100Y-6819596D01*
G01X11771018Y-6806439D01*
G01X11759052Y-6795838D01*
G01X11744897Y-6788409D01*
G01X11729375Y-6784583D01*
G01X11713388Y-6784583D01*
G01X11697866Y-6788409D01*
G01X11683711Y-6795838D01*
G01X11671745Y-6806439D01*
G01X11662663Y-6819596D01*
G01X11656994Y-6834544D01*
G01X11655067Y-6850414D01*
G01X11655067Y-6850414D01*
G01X4356096Y-6850414D01*
G01X4708688Y-6497821D01*
G01X11655067Y-6497821D01*
G01X11656994Y-6513691D01*
G01X11662663Y-6528639D01*
G01X11671745Y-6541795D01*
G01X11683711Y-6552396D01*
G01X11697866Y-6559826D01*
G01X11713388Y-6563651D01*
G01X11729375Y-6563651D01*
G01X11744897Y-6559826D01*
G01X11759052Y-6552396D01*
G01X11771018Y-6541795D01*
G01X11780100Y-6528639D01*
G01X11785769Y-6513691D01*
G01X11787696Y-6497821D01*
G01X11785769Y-6481951D01*
G01X11780100Y-6467003D01*
G01X11771018Y-6453847D01*
G01X11759052Y-6443245D01*
G01X11744897Y-6435816D01*
G01X11729375Y-6431990D01*
G01X11713388Y-6431990D01*
G01X11697866Y-6435816D01*
G01X11683711Y-6443245D01*
G01X11671745Y-6453847D01*
G01X11662663Y-6467003D01*
G01X11656994Y-6481951D01*
G01X11655067Y-6497821D01*
G01X11655067Y-6497821D01*
G01X4708688Y-6497821D01*
G01X5114031Y-6092478D01*
G01X6516673Y-6092478D01*
G01X6518600Y-6108348D01*
G01X6524269Y-6123296D01*
G01X6533350Y-6136453D01*
G01X6545316Y-6147054D01*
G01X6559472Y-6154483D01*
G01X6574994Y-6158309D01*
G01X6590980Y-6158309D01*
G01X6606502Y-6154483D01*
G01X6620657Y-6147054D01*
G01X6632624Y-6136453D01*
G01X6641705Y-6123296D01*
G01X6647374Y-6108348D01*
G01X6649301Y-6092478D01*
G01X6648727Y-6087750D01*
G01X6842072Y-6087750D01*
G01X6843999Y-6103620D01*
G01X6849668Y-6118568D01*
G01X6858750Y-6131725D01*
G01X6870716Y-6142326D01*
G01X6884871Y-6149755D01*
G01X6900393Y-6153581D01*
G01X6916379Y-6153581D01*
G01X6931901Y-6149755D01*
G01X6940526Y-6145228D01*
G01X11655067Y-6145228D01*
G01X11656994Y-6161098D01*
G01X11662663Y-6176046D01*
G01X11671745Y-6189203D01*
G01X11683711Y-6199804D01*
G01X11697866Y-6207233D01*
G01X11713388Y-6211059D01*
G01X11729375Y-6211059D01*
G01X11744897Y-6207233D01*
G01X11759052Y-6199804D01*
G01X11771018Y-6189203D01*
G01X11780100Y-6176046D01*
G01X11785769Y-6161098D01*
G01X11787696Y-6145228D01*
G01X11785769Y-6129358D01*
G01X11780100Y-6114411D01*
G01X11771018Y-6101254D01*
G01X11759052Y-6090653D01*
G01X11744897Y-6083224D01*
G01X11729375Y-6079398D01*
G01X11713388Y-6079398D01*
G01X11697866Y-6083224D01*
G01X11683711Y-6090653D01*
G01X11671745Y-6101254D01*
G01X11662663Y-6114411D01*
G01X11656994Y-6129358D01*
G01X11655067Y-6145228D01*
G01X11655067Y-6145228D01*
G01X6940526Y-6145228D01*
G01X6946057Y-6142326D01*
G01X6958023Y-6131725D01*
G01X6967104Y-6118568D01*
G01X6972773Y-6103620D01*
G01X6974700Y-6087750D01*
G01X6972773Y-6071880D01*
G01X6967104Y-6056933D01*
G01X6958023Y-6043776D01*
G01X6946057Y-6033175D01*
G01X6931901Y-6025746D01*
G01X6916379Y-6021920D01*
G01X6900393Y-6021920D01*
G01X6884871Y-6025746D01*
G01X6870716Y-6033175D01*
G01X6858750Y-6043776D01*
G01X6849668Y-6056933D01*
G01X6843999Y-6071880D01*
G01X6842072Y-6087750D01*
G01X6842072Y-6087750D01*
G01X6648727Y-6087750D01*
G01X6647374Y-6076608D01*
G01X6641705Y-6061661D01*
G01X6632624Y-6048504D01*
G01X6620657Y-6037903D01*
G01X6606502Y-6030474D01*
G01X6590980Y-6026648D01*
G01X6574994Y-6026648D01*
G01X6559472Y-6030474D01*
G01X6545316Y-6037903D01*
G01X6533350Y-6048504D01*
G01X6524269Y-6061661D01*
G01X6518600Y-6076608D01*
G01X6516673Y-6092478D01*
G01X6516673Y-6092478D01*
G01X5114031Y-6092478D01*
G01X5437936Y-5768573D01*
G01X5453118Y-5766259D01*
G01X5467359Y-5760514D01*
G01X5479898Y-5751648D01*
G01X5490061Y-5740136D01*
G01X5497304Y-5726594D01*
G01X5501237Y-5711750D01*
G01X5501651Y-5696399D01*
G01X5498522Y-5681364D01*
G01X5492020Y-5667452D01*
G01X5482491Y-5655409D01*
G01X5470448Y-5645880D01*
G01X5456536Y-5639378D01*
G01X5441501Y-5636249D01*
G01X5426150Y-5636663D01*
G01X5411306Y-5640596D01*
G01X5397764Y-5647839D01*
G01X5386252Y-5658002D01*
G01X5377386Y-5670541D01*
G01X5371641Y-5684782D01*
G01X5369327Y-5699964D01*
G01X3408905Y-7660386D01*
G01X2712210Y-7660386D01*
G01X2712210Y-7660386D01*
G01X2700768Y-7651827D01*
G01X2687758Y-7645919D01*
G01X2698964Y-7642373D01*
G01X2709369Y-7636904D01*
G01X2718645Y-7629684D01*
G01X3328130Y-7629684D01*
G01X3340687Y-7628031D01*
G01X3352387Y-7623184D01*
G01X3362435Y-7615474D01*
G01X5323636Y-5654273D01*
G01X5338818Y-5651959D01*
G01X5353059Y-5646214D01*
G01X5365598Y-5637348D01*
G01X5375761Y-5625836D01*
G01X5383004Y-5612294D01*
G01X5386937Y-5597450D01*
G01X5387351Y-5582099D01*
G01X5384222Y-5567064D01*
G01X5377720Y-5553152D01*
G01X5368191Y-5541109D01*
G01X5356148Y-5531580D01*
G01X5342236Y-5525078D01*
G01X5327201Y-5521949D01*
G01X5311850Y-5522363D01*
G01X5297006Y-5526296D01*
G01X5283464Y-5533539D01*
G01X5271952Y-5543702D01*
G01X5263086Y-5556241D01*
G01X5257341Y-5570482D01*
G01X5255027Y-5585664D01*
G01X3308035Y-7532656D01*
G01X2718645Y-7532656D01*
G01X2706777Y-7523847D01*
G01X2693253Y-7517886D01*
G01X2678744Y-7515069D01*
G01X2663972Y-7515534D01*
G01X2649670Y-7519260D01*
G01X2636548Y-7526061D01*
G01X2625258Y-7535600D01*
G01X2616362Y-7547402D01*
G01X2610300Y-7560881D01*
G01X2607375Y-7575368D01*
G01X2607731Y-7590144D01*
G01X2611350Y-7604473D01*
G01X2618053Y-7617645D01*
G01X2627507Y-7629005D01*
G01X2639243Y-7637990D01*
G01X2652677Y-7644151D01*
G01X2638315Y-7649111D01*
G01X2625459Y-7657210D01*
G01X2614784Y-7668022D01*
G01X2606850Y-7680980D01*
G01X2602074Y-7695404D01*
G01X2600706Y-7710536D01*
G01X1850825Y-7710536D01*
G01X1853037Y-7708577D01*
G01X1862118Y-7695420D01*
G01X1867787Y-7680472D01*
G01X1869714Y-7664602D01*
G01X1867787Y-7648732D01*
G01X1862118Y-7633785D01*
G01X1853037Y-7620628D01*
G01X1841071Y-7610027D01*
G01X1826915Y-7602598D01*
G01X1811393Y-7598772D01*
G01X1795407Y-7598772D01*
G01X1779885Y-7602598D01*
G01X1765729Y-7610027D01*
G01X1753763Y-7620628D01*
G01X1744682Y-7633785D01*
G01X1739013Y-7648732D01*
G01X1737086Y-7664602D01*
G01X1737086Y-7664602D01*
G01X35814Y-7664602D01*
G01X35814Y-7467600D01*
G01X382586Y-7467600D01*
G01X384443Y-7491192D01*
G01X389968Y-7514204D01*
G01X399024Y-7536068D01*
G01X411389Y-7556246D01*
G01X426759Y-7574241D01*
G01X444754Y-7589611D01*
G01X464932Y-7601976D01*
G01X486796Y-7611032D01*
G01X509808Y-7616557D01*
G01X533400Y-7618414D01*
G01X556992Y-7616557D01*
G01X580004Y-7611032D01*
G01X601868Y-7601976D01*
G01X622046Y-7589611D01*
G01X640041Y-7574241D01*
G01X655411Y-7556246D01*
G01X667776Y-7536068D01*
G01X676832Y-7514204D01*
G01X682357Y-7491192D01*
G01X684214Y-7467600D01*
G01X683503Y-7458569D01*
G01X2692885Y-7458569D01*
G01X2694664Y-7473822D01*
G01X2699902Y-7488258D01*
G01X2708321Y-7501101D01*
G01X2719469Y-7511664D01*
G01X2732747Y-7519379D01*
G01X2747443Y-7523833D01*
G01X2762770Y-7524787D01*
G01X2777906Y-7522190D01*
G01X2792038Y-7516181D01*
G01X2804409Y-7507083D01*
G01X3171331Y-7507083D01*
G01X3183887Y-7505430D01*
G01X3195588Y-7500583D01*
G01X3205636Y-7492874D01*
G01X5183936Y-5514573D01*
G01X5199118Y-5512259D01*
G01X5213359Y-5506514D01*
G01X5225898Y-5497648D01*
G01X5236061Y-5486136D01*
G01X5243304Y-5472594D01*
G01X5247237Y-5457750D01*
G01X5247651Y-5442399D01*
G01X5244522Y-5427364D01*
G01X5238020Y-5413452D01*
G01X5228491Y-5401409D01*
G01X5216448Y-5391880D01*
G01X5202536Y-5385378D01*
G01X5187501Y-5382249D01*
G01X5172150Y-5382663D01*
G01X5157306Y-5386596D01*
G01X5143764Y-5393839D01*
G01X5132252Y-5404002D01*
G01X5123386Y-5416541D01*
G01X5117641Y-5430782D01*
G01X5115327Y-5445964D01*
G01X3151236Y-7410055D01*
G01X3151236Y-7410055D01*
G01X2804409Y-7410055D01*
G01X2792038Y-7400957D01*
G01X2777906Y-7394948D01*
G01X2762770Y-7392351D01*
G01X2747443Y-7393305D01*
G01X2732747Y-7397759D01*
G01X2719469Y-7405475D01*
G01X2708321Y-7416037D01*
G01X2699902Y-7428880D01*
G01X2694664Y-7443316D01*
G01X2692885Y-7458569D01*
G01X683503Y-7458569D01*
G01X682357Y-7444008D01*
G01X676832Y-7420996D01*
G01X667776Y-7399132D01*
G01X655411Y-7378954D01*
G01X641528Y-7362699D01*
G01X1241787Y-7362699D01*
G01X1243714Y-7378569D01*
G01X1249383Y-7393517D01*
G01X1258464Y-7406674D01*
G01X1270431Y-7417275D01*
G01X1284586Y-7424704D01*
G01X1300108Y-7428530D01*
G01X1316095Y-7428530D01*
G01X1331617Y-7424704D01*
G01X1345772Y-7417275D01*
G01X1357738Y-7406674D01*
G01X1366819Y-7393517D01*
G01X1372488Y-7378569D01*
G01X1374415Y-7362699D01*
G01X1372488Y-7346829D01*
G01X1366819Y-7331882D01*
G01X1357738Y-7318725D01*
G01X1345772Y-7308124D01*
G01X1331617Y-7300695D01*
G01X1316095Y-7296869D01*
G01X1300108Y-7296869D01*
G01X1284586Y-7300695D01*
G01X1270431Y-7308124D01*
G01X1258464Y-7318725D01*
G01X1249383Y-7331882D01*
G01X1243714Y-7346829D01*
G01X1241787Y-7362699D01*
G01X1241787Y-7362699D01*
G01X641528Y-7362699D01*
G01X640041Y-7360959D01*
G01X622046Y-7345589D01*
G01X601868Y-7333224D01*
G01X580004Y-7324168D01*
G01X556992Y-7318643D01*
G01X533400Y-7316786D01*
G01X533400Y-7316786D01*
G01X509808Y-7318643D01*
G01X486796Y-7324168D01*
G01X464932Y-7333224D01*
G01X444754Y-7345589D01*
G01X426759Y-7360959D01*
G01X411389Y-7378954D01*
G01X399024Y-7399132D01*
G01X389968Y-7420996D01*
G01X384443Y-7444008D01*
G01X382586Y-7467600D01*
G01X35814Y-7467600D01*
G01X35814Y-7239000D01*
G01X3000584Y-7239000D01*
G01X3002511Y-7254870D01*
G01X3008179Y-7269818D01*
G01X3017261Y-7282974D01*
G01X3029227Y-7293575D01*
G01X3043382Y-7301005D01*
G01X3058904Y-7304831D01*
G01X3074891Y-7304831D01*
G01X3090413Y-7301005D01*
G01X3104568Y-7293575D01*
G01X3116534Y-7282974D01*
G01X3125616Y-7269818D01*
G01X3131285Y-7254870D01*
G01X3133212Y-7239000D01*
G01X3140588Y-7239000D01*
G01X3142515Y-7254870D01*
G01X3148184Y-7269818D01*
G01X3157266Y-7282974D01*
G01X3169232Y-7293575D01*
G01X3183387Y-7301005D01*
G01X3198909Y-7304831D01*
G01X3214896Y-7304831D01*
G01X3230418Y-7301005D01*
G01X3244573Y-7293575D01*
G01X3256539Y-7282974D01*
G01X3265621Y-7269818D01*
G01X3271289Y-7254870D01*
G01X3273216Y-7239000D01*
G01X3271289Y-7223130D01*
G01X3265621Y-7208182D01*
G01X3256539Y-7195026D01*
G01X3244573Y-7184425D01*
G01X3230418Y-7176995D01*
G01X3214896Y-7173169D01*
G01X3198909Y-7173169D01*
G01X3183387Y-7176995D01*
G01X3169232Y-7184425D01*
G01X3157266Y-7195026D01*
G01X3148184Y-7208182D01*
G01X3142515Y-7223130D01*
G01X3140588Y-7239000D01*
G01X3140588Y-7239000D01*
G01X3133212Y-7239000D01*
G01X3131285Y-7223130D01*
G01X3125616Y-7208182D01*
G01X3116534Y-7195026D01*
G01X3104568Y-7184425D01*
G01X3090413Y-7176995D01*
G01X3074891Y-7173169D01*
G01X3058904Y-7173169D01*
G01X3043382Y-7176995D01*
G01X3029227Y-7184425D01*
G01X3017261Y-7195026D01*
G01X3008179Y-7208182D01*
G01X3002511Y-7223130D01*
G01X3000584Y-7239000D01*
G01X3000584Y-7239000D01*
G01X35814Y-7239000D01*
G01X35814Y-6959600D01*
G01X382586Y-6959600D01*
G01X384443Y-6983192D01*
G01X389968Y-7006204D01*
G01X399024Y-7028068D01*
G01X411389Y-7048246D01*
G01X426759Y-7066241D01*
G01X444754Y-7081611D01*
G01X464932Y-7093976D01*
G01X486796Y-7103032D01*
G01X509808Y-7108557D01*
G01X533400Y-7110414D01*
G01X556992Y-7108557D01*
G01X568466Y-7105802D01*
G01X1737086Y-7105802D01*
G01X1739013Y-7121672D01*
G01X1744682Y-7136620D01*
G01X1753763Y-7149777D01*
G01X1765729Y-7160378D01*
G01X1779885Y-7167807D01*
G01X1795407Y-7171633D01*
G01X1811393Y-7171633D01*
G01X1826915Y-7167807D01*
G01X1841071Y-7160378D01*
G01X1853037Y-7149777D01*
G01X1862118Y-7136620D01*
G01X1867787Y-7121672D01*
G01X1869714Y-7105802D01*
G01X1867787Y-7089932D01*
G01X1862118Y-7074985D01*
G01X1853037Y-7061828D01*
G01X1841071Y-7051227D01*
G01X1826915Y-7043798D01*
G01X1811393Y-7039972D01*
G01X1795407Y-7039972D01*
G01X1779885Y-7043798D01*
G01X1765729Y-7051227D01*
G01X1753763Y-7061828D01*
G01X1744682Y-7074985D01*
G01X1739013Y-7089932D01*
G01X1737086Y-7105802D01*
G01X1737086Y-7105802D01*
G01X568466Y-7105802D01*
G01X580004Y-7103032D01*
G01X601868Y-7093976D01*
G01X622046Y-7081611D01*
G01X640041Y-7066241D01*
G01X655411Y-7048246D01*
G01X667776Y-7028068D01*
G01X676832Y-7006204D01*
G01X682357Y-6983192D01*
G01X684214Y-6959600D01*
G01X682357Y-6936008D01*
G01X676832Y-6912996D01*
G01X667776Y-6891132D01*
G01X655411Y-6870954D01*
G01X640041Y-6852959D01*
G01X622046Y-6837589D01*
G01X601868Y-6825224D01*
G01X580004Y-6816168D01*
G01X556992Y-6810643D01*
G01X539706Y-6809283D01*
G01X1244569Y-6809283D01*
G01X1246496Y-6825153D01*
G01X1252165Y-6840100D01*
G01X1261247Y-6853257D01*
G01X1273213Y-6863858D01*
G01X1287368Y-6871287D01*
G01X1302890Y-6875113D01*
G01X1318877Y-6875113D01*
G01X1334399Y-6871287D01*
G01X1348554Y-6863858D01*
G01X1360520Y-6853257D01*
G01X1369602Y-6840100D01*
G01X1375270Y-6825153D01*
G01X1377197Y-6809283D01*
G01X1375270Y-6793413D01*
G01X1369602Y-6778465D01*
G01X1360520Y-6765308D01*
G01X1348554Y-6754707D01*
G01X1334399Y-6747278D01*
G01X1318877Y-6743452D01*
G01X1302890Y-6743452D01*
G01X1287368Y-6747278D01*
G01X1273213Y-6754707D01*
G01X1261247Y-6765308D01*
G01X1252165Y-6778465D01*
G01X1246496Y-6793413D01*
G01X1244569Y-6809283D01*
G01X1244569Y-6809283D01*
G01X539706Y-6809283D01*
G01X533400Y-6808786D01*
G01X533400Y-6808786D01*
G01X509808Y-6810643D01*
G01X486796Y-6816168D01*
G01X464932Y-6825224D01*
G01X444754Y-6837589D01*
G01X426759Y-6852959D01*
G01X411389Y-6870954D01*
G01X399024Y-6891132D01*
G01X389968Y-6912996D01*
G01X384443Y-6936008D01*
G01X382586Y-6959600D01*
G01X35814Y-6959600D01*
G01X35814Y-6286500D01*
G01X369886Y-6286500D01*
G01X371743Y-6310092D01*
G01X377268Y-6333104D01*
G01X386324Y-6354968D01*
G01X398689Y-6375146D01*
G01X414059Y-6393141D01*
G01X432054Y-6408511D01*
G01X452232Y-6420876D01*
G01X474096Y-6429932D01*
G01X497108Y-6435457D01*
G01X520700Y-6437314D01*
G01X544292Y-6435457D01*
G01X567304Y-6429932D01*
G01X589168Y-6420876D01*
G01X590594Y-6420002D01*
G01X1737086Y-6420002D01*
G01X1739013Y-6435872D01*
G01X1744682Y-6450820D01*
G01X1753763Y-6463977D01*
G01X1765729Y-6474578D01*
G01X1779885Y-6482007D01*
G01X1795407Y-6485833D01*
G01X1811393Y-6485833D01*
G01X1826915Y-6482007D01*
G01X1841071Y-6474578D01*
G01X1853037Y-6463977D01*
G01X1862118Y-6450820D01*
G01X1867787Y-6435872D01*
G01X1869714Y-6420002D01*
G01X1867787Y-6404132D01*
G01X1862118Y-6389185D01*
G01X1853037Y-6376028D01*
G01X1841071Y-6365427D01*
G01X1826915Y-6357998D01*
G01X1811393Y-6354172D01*
G01X1795407Y-6354172D01*
G01X1779885Y-6357998D01*
G01X1765729Y-6365427D01*
G01X1753763Y-6376028D01*
G01X1744682Y-6389185D01*
G01X1739013Y-6404132D01*
G01X1737086Y-6420002D01*
G01X1737086Y-6420002D01*
G01X590594Y-6420002D01*
G01X609346Y-6408511D01*
G01X627341Y-6393141D01*
G01X642711Y-6375146D01*
G01X655076Y-6354968D01*
G01X664132Y-6333104D01*
G01X669657Y-6310092D01*
G01X671514Y-6286500D01*
G01X669657Y-6262908D01*
G01X664132Y-6239896D01*
G01X655076Y-6218032D01*
G01X646353Y-6203798D01*
G01X1711683Y-6203798D01*
G01X1713609Y-6219668D01*
G01X1719278Y-6234615D01*
G01X1728360Y-6247772D01*
G01X1740326Y-6258373D01*
G01X1754481Y-6265802D01*
G01X1770003Y-6269628D01*
G01X1785990Y-6269628D01*
G01X1801512Y-6265802D01*
G01X1815667Y-6258373D01*
G01X1827633Y-6247772D01*
G01X1836715Y-6234615D01*
G01X1842383Y-6219668D01*
G01X1844310Y-6203798D01*
G01X1842383Y-6187928D01*
G01X1836715Y-6172980D01*
G01X1827633Y-6159823D01*
G01X1815667Y-6149222D01*
G01X1801512Y-6141793D01*
G01X1785990Y-6137967D01*
G01X1770003Y-6137967D01*
G01X1754481Y-6141793D01*
G01X1740326Y-6149222D01*
G01X1728360Y-6159823D01*
G01X1719278Y-6172980D01*
G01X1713609Y-6187928D01*
G01X1711683Y-6203798D01*
G01X1711683Y-6203798D01*
G01X646353Y-6203798D01*
G01X642711Y-6197854D01*
G01X627341Y-6179859D01*
G01X609346Y-6164489D01*
G01X589168Y-6152124D01*
G01X567304Y-6143068D01*
G01X544292Y-6137543D01*
G01X520700Y-6135686D01*
G01X520700Y-6135686D01*
G01X497108Y-6137543D01*
G01X474096Y-6143068D01*
G01X452232Y-6152124D01*
G01X432054Y-6164489D01*
G01X414059Y-6179859D01*
G01X398689Y-6197854D01*
G01X386324Y-6218032D01*
G01X377268Y-6239896D01*
G01X371743Y-6262908D01*
G01X369886Y-6286500D01*
G01X35814Y-6286500D01*
G01X35814Y-6130799D01*
G01X1241787Y-6130799D01*
G01X1243714Y-6146669D01*
G01X1249383Y-6161617D01*
G01X1258464Y-6174774D01*
G01X1270431Y-6185375D01*
G01X1284586Y-6192804D01*
G01X1300108Y-6196630D01*
G01X1316095Y-6196630D01*
G01X1331617Y-6192804D01*
G01X1345772Y-6185375D01*
G01X1357738Y-6174774D01*
G01X1366819Y-6161617D01*
G01X1372488Y-6146669D01*
G01X1374415Y-6130799D01*
G01X1372488Y-6114929D01*
G01X1367660Y-6102198D01*
G01X1813282Y-6102198D01*
G01X1815209Y-6118068D01*
G01X1820878Y-6133015D01*
G01X1829959Y-6146172D01*
G01X1841926Y-6156773D01*
G01X1856081Y-6164202D01*
G01X1871603Y-6168028D01*
G01X1887589Y-6168028D01*
G01X1903111Y-6164202D01*
G01X1917267Y-6156773D01*
G01X1929233Y-6146172D01*
G01X1938314Y-6133015D01*
G01X1943983Y-6118068D01*
G01X1945910Y-6102198D01*
G01X1943983Y-6086328D01*
G01X1938314Y-6071380D01*
G01X1929233Y-6058224D01*
G01X1917267Y-6047623D01*
G01X1903111Y-6040193D01*
G01X1887589Y-6036367D01*
G01X1871603Y-6036367D01*
G01X1856081Y-6040193D01*
G01X1841926Y-6047623D01*
G01X1829959Y-6058224D01*
G01X1820878Y-6071380D01*
G01X1815209Y-6086328D01*
G01X1813282Y-6102198D01*
G01X1813282Y-6102198D01*
G01X1367660Y-6102198D01*
G01X1366819Y-6099982D01*
G01X1357738Y-6086825D01*
G01X1345772Y-6076224D01*
G01X1331617Y-6068795D01*
G01X1316095Y-6064969D01*
G01X1300108Y-6064969D01*
G01X1284586Y-6068795D01*
G01X1270431Y-6076224D01*
G01X1258464Y-6086825D01*
G01X1249383Y-6099982D01*
G01X1243714Y-6114929D01*
G01X1241787Y-6130799D01*
G01X1241787Y-6130799D01*
G01X35814Y-6130799D01*
G01X35814Y-5778500D01*
G01X369886Y-5778500D01*
G01X371743Y-5802092D01*
G01X377268Y-5825104D01*
G01X386324Y-5846968D01*
G01X398689Y-5867146D01*
G01X414059Y-5885141D01*
G01X432054Y-5900511D01*
G01X452232Y-5912876D01*
G01X474096Y-5921932D01*
G01X497108Y-5927457D01*
G01X520700Y-5929314D01*
G01X544292Y-5927457D01*
G01X555766Y-5924702D01*
G01X1737086Y-5924702D01*
G01X1739013Y-5940572D01*
G01X1744682Y-5955520D01*
G01X1753763Y-5968677D01*
G01X1765729Y-5979278D01*
G01X1779885Y-5986707D01*
G01X1795407Y-5990533D01*
G01X1811393Y-5990533D01*
G01X1826915Y-5986707D01*
G01X1841071Y-5979278D01*
G01X1853037Y-5968677D01*
G01X1862118Y-5955520D01*
G01X1867787Y-5940572D01*
G01X1869714Y-5924702D01*
G01X1867787Y-5908832D01*
G01X1862118Y-5893885D01*
G01X1853037Y-5880728D01*
G01X1841071Y-5870127D01*
G01X1826915Y-5862698D01*
G01X1811393Y-5858872D01*
G01X1795407Y-5858872D01*
G01X1779885Y-5862698D01*
G01X1765729Y-5870127D01*
G01X1753763Y-5880728D01*
G01X1744682Y-5893885D01*
G01X1739013Y-5908832D01*
G01X1737086Y-5924702D01*
G01X1737086Y-5924702D01*
G01X555766Y-5924702D01*
G01X567304Y-5921932D01*
G01X589168Y-5912876D01*
G01X609346Y-5900511D01*
G01X627341Y-5885141D01*
G01X642711Y-5867146D01*
G01X655076Y-5846968D01*
G01X664132Y-5825104D01*
G01X669657Y-5802092D01*
G01X671514Y-5778500D01*
G01X669657Y-5754908D01*
G01X664132Y-5731896D01*
G01X655076Y-5710032D01*
G01X642711Y-5689854D01*
G01X627341Y-5671859D01*
G01X609346Y-5656489D01*
G01X589168Y-5644124D01*
G01X567304Y-5635068D01*
G01X544292Y-5629543D01*
G01X520700Y-5627686D01*
G01X520700Y-5627686D01*
G01X497108Y-5629543D01*
G01X474096Y-5635068D01*
G01X452232Y-5644124D01*
G01X432054Y-5656489D01*
G01X414059Y-5671859D01*
G01X398689Y-5689854D01*
G01X386324Y-5710032D01*
G01X377268Y-5731896D01*
G01X371743Y-5754908D01*
G01X369886Y-5778500D01*
G01X35814Y-5778500D01*
G01X35814Y-5626964D01*
G01X1241786Y-5626964D01*
G01X1243713Y-5642834D01*
G01X1249382Y-5657781D01*
G01X1258463Y-5670938D01*
G01X1270429Y-5681539D01*
G01X1284585Y-5688968D01*
G01X1300107Y-5692794D01*
G01X1316093Y-5692794D01*
G01X1331615Y-5688968D01*
G01X1345771Y-5681539D01*
G01X1357737Y-5670938D01*
G01X1366818Y-5657781D01*
G01X1372487Y-5642834D01*
G01X1374414Y-5626964D01*
G01X1372487Y-5611094D01*
G01X1366818Y-5596146D01*
G01X1357737Y-5582989D01*
G01X1345771Y-5572388D01*
G01X1331615Y-5564959D01*
G01X1316093Y-5561133D01*
G01X1300107Y-5561133D01*
G01X1284585Y-5564959D01*
G01X1270429Y-5572388D01*
G01X1258463Y-5582989D01*
G01X1249382Y-5596146D01*
G01X1243713Y-5611094D01*
G01X1241786Y-5626964D01*
G01X1241786Y-5626964D01*
G01X35814Y-5626964D01*
G01X35814Y-5270500D01*
G01X369886Y-5270500D01*
G01X371743Y-5294092D01*
G01X377268Y-5317104D01*
G01X386324Y-5338968D01*
G01X398689Y-5359146D01*
G01X414059Y-5377141D01*
G01X432054Y-5392511D01*
G01X452232Y-5404876D01*
G01X474096Y-5413932D01*
G01X497108Y-5419457D01*
G01X520700Y-5421314D01*
G01X544292Y-5419457D01*
G01X555766Y-5416702D01*
G01X1737086Y-5416702D01*
G01X1739013Y-5432572D01*
G01X1744682Y-5447520D01*
G01X1753763Y-5460677D01*
G01X1765729Y-5471278D01*
G01X1779885Y-5478707D01*
G01X1795407Y-5482533D01*
G01X1811393Y-5482533D01*
G01X1826915Y-5478707D01*
G01X1828093Y-5478089D01*
G01X2596238Y-5478089D01*
G01X2598024Y-5493376D01*
G01X2603286Y-5507840D01*
G01X2611741Y-5520701D01*
G01X2622933Y-5531267D01*
G01X2636259Y-5538968D01*
G01X2651001Y-5543389D01*
G01X2666366Y-5544293D01*
G01X2681525Y-5541631D01*
G01X2695662Y-5535546D01*
G01X2708016Y-5526366D01*
G01X3150488Y-5526366D01*
G01X3162841Y-5535546D01*
G01X3176978Y-5541631D01*
G01X3192137Y-5544293D01*
G01X3207502Y-5543389D01*
G01X3222244Y-5538968D01*
G01X3235570Y-5531267D01*
G01X3246762Y-5520701D01*
G01X3255217Y-5507840D01*
G01X3260479Y-5493376D01*
G01X3262265Y-5478089D01*
G01X3262265Y-5478089D01*
G01X3260479Y-5462802D01*
G01X3255217Y-5448338D01*
G01X3246762Y-5435477D01*
G01X3235570Y-5424912D01*
G01X3222244Y-5417211D01*
G01X3207502Y-5412789D01*
G01X3192137Y-5411885D01*
G01X3176978Y-5414547D01*
G01X3162841Y-5420632D01*
G01X3150488Y-5429813D01*
G01X2708016Y-5429813D01*
G01X2695662Y-5420632D01*
G01X2681525Y-5414547D01*
G01X2666366Y-5411885D01*
G01X2651001Y-5412789D01*
G01X2636259Y-5417211D01*
G01X2622933Y-5424912D01*
G01X2611741Y-5435477D01*
G01X2603286Y-5448338D01*
G01X2598024Y-5462802D01*
G01X2596238Y-5478089D01*
G01X1828093Y-5478089D01*
G01X1841071Y-5471278D01*
G01X1853037Y-5460677D01*
G01X1862118Y-5447520D01*
G01X1867787Y-5432572D01*
G01X1869714Y-5416702D01*
G01X1867787Y-5400832D01*
G01X1862118Y-5385885D01*
G01X1853037Y-5372728D01*
G01X1841071Y-5362127D01*
G01X1826915Y-5354698D01*
G01X1811393Y-5350872D01*
G01X1795407Y-5350872D01*
G01X1779885Y-5354698D01*
G01X1765729Y-5362127D01*
G01X1753763Y-5372728D01*
G01X1744682Y-5385885D01*
G01X1739013Y-5400832D01*
G01X1737086Y-5416702D01*
G01X1737086Y-5416702D01*
G01X555766Y-5416702D01*
G01X567304Y-5413932D01*
G01X589168Y-5404876D01*
G01X609346Y-5392511D01*
G01X627341Y-5377141D01*
G01X642711Y-5359146D01*
G01X655076Y-5338968D01*
G01X664132Y-5317104D01*
G01X669657Y-5294092D01*
G01X671514Y-5270500D01*
G01X669657Y-5246908D01*
G01X664132Y-5223896D01*
G01X655076Y-5202032D01*
G01X642711Y-5181854D01*
G01X627341Y-5163859D01*
G01X609346Y-5148489D01*
G01X589168Y-5136124D01*
G01X567304Y-5127068D01*
G01X544292Y-5121543D01*
G01X520700Y-5119686D01*
G01X520700Y-5119686D01*
G01X497108Y-5121543D01*
G01X474096Y-5127068D01*
G01X452232Y-5136124D01*
G01X432054Y-5148489D01*
G01X414059Y-5163859D01*
G01X398689Y-5181854D01*
G01X386324Y-5202032D01*
G01X377268Y-5223896D01*
G01X371743Y-5246908D01*
G01X369886Y-5270500D01*
G01X35814Y-5270500D01*
G01X35814Y-5114799D01*
G01X1241787Y-5114799D01*
G01X1243714Y-5130669D01*
G01X1249383Y-5145617D01*
G01X1258464Y-5158774D01*
G01X1270431Y-5169375D01*
G01X1284586Y-5176804D01*
G01X1300108Y-5180630D01*
G01X1316095Y-5180630D01*
G01X1331617Y-5176804D01*
G01X1345772Y-5169375D01*
G01X1357738Y-5158774D01*
G01X1366819Y-5145617D01*
G01X1372488Y-5130669D01*
G01X1374415Y-5114799D01*
G01X1372488Y-5098929D01*
G01X1366819Y-5083982D01*
G01X1357738Y-5070825D01*
G01X1345772Y-5060224D01*
G01X1331617Y-5052795D01*
G01X1316095Y-5048969D01*
G01X1300108Y-5048969D01*
G01X1284586Y-5052795D01*
G01X1270431Y-5060224D01*
G01X1258464Y-5070825D01*
G01X1249383Y-5083982D01*
G01X1243714Y-5098929D01*
G01X1241787Y-5114799D01*
G01X1241787Y-5114799D01*
G01X35814Y-5114799D01*
G01X35814Y-5041900D01*
G01X3000584Y-5041900D01*
G01X3002511Y-5057770D01*
G01X3008179Y-5072718D01*
G01X3017261Y-5085874D01*
G01X3029227Y-5096475D01*
G01X3043382Y-5103905D01*
G01X3058904Y-5107731D01*
G01X3074891Y-5107731D01*
G01X3090413Y-5103905D01*
G01X3104568Y-5096475D01*
G01X3116534Y-5085874D01*
G01X3125616Y-5072718D01*
G01X3131285Y-5057770D01*
G01X3133212Y-5041900D01*
G01X3140588Y-5041900D01*
G01X3142515Y-5057770D01*
G01X3148184Y-5072718D01*
G01X3157266Y-5085874D01*
G01X3169232Y-5096475D01*
G01X3183387Y-5103905D01*
G01X3198909Y-5107731D01*
G01X3214896Y-5107731D01*
G01X3230418Y-5103905D01*
G01X3244573Y-5096475D01*
G01X3256539Y-5085874D01*
G01X3265621Y-5072718D01*
G01X3271289Y-5057770D01*
G01X3273216Y-5041900D01*
G01X3271289Y-5026030D01*
G01X3265621Y-5011082D01*
G01X3256539Y-4997926D01*
G01X3244573Y-4987325D01*
G01X3230418Y-4979895D01*
G01X3214896Y-4976069D01*
G01X3198909Y-4976069D01*
G01X3183387Y-4979895D01*
G01X3169232Y-4987325D01*
G01X3157266Y-4997926D01*
G01X3148184Y-5011082D01*
G01X3142515Y-5026030D01*
G01X3140588Y-5041900D01*
G01X3140588Y-5041900D01*
G01X3133212Y-5041900D01*
G01X3131285Y-5026030D01*
G01X3125616Y-5011082D01*
G01X3116534Y-4997926D01*
G01X3104568Y-4987325D01*
G01X3090413Y-4979895D01*
G01X3074891Y-4976069D01*
G01X3058904Y-4976069D01*
G01X3043382Y-4979895D01*
G01X3029227Y-4987325D01*
G01X3017261Y-4997926D01*
G01X3008179Y-5011082D01*
G01X3002511Y-5026030D01*
G01X3000584Y-5041900D01*
G01X3000584Y-5041900D01*
G01X35814Y-5041900D01*
G01X35814Y-4762500D01*
G01X369886Y-4762500D01*
G01X371743Y-4786092D01*
G01X377268Y-4809104D01*
G01X386324Y-4830968D01*
G01X398689Y-4851146D01*
G01X414059Y-4869141D01*
G01X432054Y-4884511D01*
G01X452232Y-4896876D01*
G01X474096Y-4905932D01*
G01X497108Y-4911457D01*
G01X520700Y-4913314D01*
G01X544292Y-4911457D01*
G01X555766Y-4908702D01*
G01X1724386Y-4908702D01*
G01X1726313Y-4924572D01*
G01X1731982Y-4939520D01*
G01X1741063Y-4952677D01*
G01X1753029Y-4963278D01*
G01X1767185Y-4970707D01*
G01X1782707Y-4974533D01*
G01X1798693Y-4974533D01*
G01X1814215Y-4970707D01*
G01X1828371Y-4963278D01*
G01X1840337Y-4952677D01*
G01X1849418Y-4939520D01*
G01X1855087Y-4924572D01*
G01X1857014Y-4908702D01*
G01X1855087Y-4892832D01*
G01X1849418Y-4877885D01*
G01X1840337Y-4864728D01*
G01X1828371Y-4854127D01*
G01X1814215Y-4846698D01*
G01X1798693Y-4842872D01*
G01X1782707Y-4842872D01*
G01X1767185Y-4846698D01*
G01X1753029Y-4854127D01*
G01X1741063Y-4864728D01*
G01X1731982Y-4877885D01*
G01X1726313Y-4892832D01*
G01X1724386Y-4908702D01*
G01X1724386Y-4908702D01*
G01X555766Y-4908702D01*
G01X567304Y-4905932D01*
G01X589168Y-4896876D01*
G01X609346Y-4884511D01*
G01X627341Y-4869141D01*
G01X642711Y-4851146D01*
G01X655076Y-4830968D01*
G01X664132Y-4809104D01*
G01X669657Y-4786092D01*
G01X671514Y-4762500D01*
G01X669657Y-4738908D01*
G01X664132Y-4715896D01*
G01X655076Y-4694032D01*
G01X642711Y-4673854D01*
G01X627341Y-4655859D01*
G01X609346Y-4640489D01*
G01X589168Y-4628124D01*
G01X567304Y-4619068D01*
G01X544292Y-4613543D01*
G01X520700Y-4611686D01*
G01X520700Y-4611686D01*
G01X497108Y-4613543D01*
G01X474096Y-4619068D01*
G01X452232Y-4628124D01*
G01X432054Y-4640489D01*
G01X414059Y-4655859D01*
G01X398689Y-4673854D01*
G01X386324Y-4694032D01*
G01X377268Y-4715896D01*
G01X371743Y-4738908D01*
G01X369886Y-4762500D01*
G01X35814Y-4762500D01*
G01X35814Y-4606799D01*
G01X1241787Y-4606799D01*
G01X1243714Y-4622669D01*
G01X1249383Y-4637617D01*
G01X1258464Y-4650774D01*
G01X1270431Y-4661375D01*
G01X1284586Y-4668804D01*
G01X1300108Y-4672630D01*
G01X1316095Y-4672630D01*
G01X1331617Y-4668804D01*
G01X1345772Y-4661375D01*
G01X1357738Y-4650774D01*
G01X1366819Y-4637617D01*
G01X1372488Y-4622669D01*
G01X1374415Y-4606799D01*
G01X1372488Y-4590929D01*
G01X1370126Y-4584700D01*
G01X5738443Y-4584700D01*
G01X5740370Y-4600570D01*
G01X5746039Y-4615517D01*
G01X5755121Y-4628674D01*
G01X5767087Y-4639275D01*
G01X5781242Y-4646704D01*
G01X5796764Y-4650530D01*
G01X5812751Y-4650530D01*
G01X5828272Y-4646704D01*
G01X5842428Y-4639275D01*
G01X5854394Y-4628674D01*
G01X5863475Y-4615517D01*
G01X5869144Y-4600570D01*
G01X5871071Y-4584700D01*
G01X5869144Y-4568830D01*
G01X5863475Y-4553882D01*
G01X5854394Y-4540725D01*
G01X5842428Y-4530124D01*
G01X5828272Y-4522695D01*
G01X5812751Y-4518869D01*
G01X5796764Y-4518869D01*
G01X5781242Y-4522695D01*
G01X5767087Y-4530124D01*
G01X5755121Y-4540725D01*
G01X5746039Y-4553882D01*
G01X5740370Y-4568830D01*
G01X5738443Y-4584700D01*
G01X5738443Y-4584700D01*
G01X1370126Y-4584700D01*
G01X1366819Y-4575982D01*
G01X1357738Y-4562825D01*
G01X1345772Y-4552224D01*
G01X1331617Y-4544795D01*
G01X1316095Y-4540969D01*
G01X1300108Y-4540969D01*
G01X1284586Y-4544795D01*
G01X1270431Y-4552224D01*
G01X1258464Y-4562825D01*
G01X1249383Y-4575982D01*
G01X1243714Y-4590929D01*
G01X1241787Y-4606799D01*
G01X1241787Y-4606799D01*
G01X35814Y-4606799D01*
G01X35814Y-4448814D01*
G01X5878253Y-4448814D01*
G01X5880915Y-4463973D01*
G01X5887000Y-4478110D01*
G01X5896181Y-4490463D01*
G01X5896181Y-5308599D01*
G01X5897826Y-5321094D01*
G01X5902649Y-5332737D01*
G01X5910321Y-5342735D01*
G01X6222077Y-5654492D01*
G01X6223875Y-5667962D01*
G01X6228380Y-5680783D01*
G01X6235404Y-5692417D01*
G01X6244653Y-5702374D01*
G01X6244653Y-5702374D01*
G01X6234563Y-5712984D01*
G01X6227047Y-5725550D01*
G01X6222471Y-5739459D01*
G01X6221060Y-5754033D01*
G01X6222881Y-5768561D01*
G01X6227847Y-5782335D01*
G01X6235713Y-5794685D01*
G01X6246099Y-5805006D01*
G01X6258496Y-5812797D01*
G01X6272300Y-5817678D01*
G01X6286840Y-5819410D01*
G01X6301405Y-5817910D01*
G01X6315285Y-5813249D01*
G01X6327805Y-5805657D01*
G01X6338353Y-5795501D01*
G01X6346415Y-5783279D01*
G01X6351599Y-5769585D01*
G01X6353652Y-5755088D01*
G01X6500836Y-5607904D01*
G01X6503401Y-5620284D01*
G01X6508270Y-5631953D01*
G01X6515265Y-5642485D01*
G01X6524132Y-5651499D01*
G01X6514165Y-5661904D01*
G01X6506682Y-5674217D01*
G01X6502035Y-5687856D01*
G01X6500443Y-5702176D01*
G01X6501982Y-5716502D01*
G01X6506579Y-5730158D01*
G01X6514017Y-5742498D01*
G01X6523944Y-5752941D01*
G01X6514247Y-5765467D01*
G01X6507797Y-5779936D01*
G01X6504963Y-5795522D01*
G01X6505906Y-5811335D01*
G01X6510573Y-5826473D01*
G01X6518697Y-5840073D01*
G01X6529814Y-5851357D01*
G01X6543291Y-5859683D01*
G01X6558358Y-5864575D01*
G01X6574155Y-5865754D01*
G01X6589782Y-5863153D01*
G01X6604345Y-5856920D01*
G01X6617014Y-5847410D01*
G01X6627067Y-5835167D01*
G01X6633929Y-5820890D01*
G01X6637209Y-5805392D01*
G01X6636720Y-5789558D01*
G01X6632489Y-5774292D01*
G01X6627978Y-5766224D01*
G01X6855846Y-5766224D01*
G01X6858962Y-5781296D01*
G01X6865468Y-5795245D01*
G01X6875015Y-5807317D01*
G01X6875015Y-5807317D01*
G01X6887088Y-5816864D01*
G01X6901036Y-5823370D01*
G01X6916108Y-5826486D01*
G01X6931493Y-5826043D01*
G01X6946362Y-5822066D01*
G01X6959913Y-5814768D01*
G01X6971416Y-5804543D01*
G01X6976419Y-5797408D01*
G01X11667767Y-5797408D01*
G01X11669694Y-5813278D01*
G01X11675363Y-5828226D01*
G01X11684445Y-5841383D01*
G01X11696411Y-5851984D01*
G01X11710566Y-5859413D01*
G01X11726088Y-5863239D01*
G01X11742075Y-5863239D01*
G01X11757597Y-5859413D01*
G01X11771752Y-5851984D01*
G01X11783718Y-5841383D01*
G01X11792800Y-5828226D01*
G01X11798469Y-5813278D01*
G01X11800396Y-5797408D01*
G01X11798469Y-5781538D01*
G01X11792800Y-5766591D01*
G01X11783718Y-5753434D01*
G01X11771752Y-5742833D01*
G01X11757597Y-5735404D01*
G01X11742075Y-5731578D01*
G01X11726088Y-5731578D01*
G01X11710566Y-5735404D01*
G01X11696411Y-5742833D01*
G01X11684445Y-5753434D01*
G01X11675363Y-5766591D01*
G01X11669694Y-5781538D01*
G01X11667767Y-5797408D01*
G01X11667767Y-5797408D01*
G01X6976419Y-5797408D01*
G01X6980253Y-5791941D01*
G01X6985946Y-5777642D01*
G01X6988190Y-5762415D01*
G01X7021897Y-5728709D01*
G01X7028085Y-5742970D01*
G01X7037423Y-5755399D01*
G01X7049399Y-5765313D01*
G01X7063353Y-5772166D01*
G01X7078520Y-5775582D01*
G01X7094065Y-5775372D01*
G01X7109134Y-5771550D01*
G01X7122899Y-5764324D01*
G01X7134603Y-5754092D01*
G01X7143603Y-5741416D01*
G01X7149405Y-5726993D01*
G01X7151690Y-5711615D01*
G01X7409911Y-5453394D01*
G01X11670646Y-5453394D01*
G01X11672573Y-5469264D01*
G01X11678242Y-5484212D01*
G01X11687323Y-5497368D01*
G01X11699290Y-5507969D01*
G01X11713445Y-5515399D01*
G01X11728967Y-5519225D01*
G01X11744954Y-5519225D01*
G01X11760476Y-5515399D01*
G01X11774631Y-5507969D01*
G01X11786597Y-5497368D01*
G01X11795678Y-5484212D01*
G01X11801347Y-5469264D01*
G01X11803274Y-5453394D01*
G01X11801347Y-5437524D01*
G01X11795678Y-5422576D01*
G01X11786597Y-5409420D01*
G01X11774631Y-5398819D01*
G01X11760476Y-5391389D01*
G01X11744954Y-5387563D01*
G01X11728967Y-5387563D01*
G01X11713445Y-5391389D01*
G01X11699290Y-5398819D01*
G01X11687323Y-5409420D01*
G01X11678242Y-5422576D01*
G01X11672573Y-5437524D01*
G01X11670646Y-5453394D01*
G01X11670646Y-5453394D01*
G01X7409911Y-5453394D01*
G01X8227805Y-4635500D01*
G01X11710986Y-4635500D01*
G01X11712843Y-4659092D01*
G01X11718368Y-4682104D01*
G01X11727424Y-4703968D01*
G01X11739789Y-4724146D01*
G01X11755159Y-4742141D01*
G01X11773154Y-4757511D01*
G01X11793332Y-4769876D01*
G01X11815196Y-4778932D01*
G01X11838208Y-4784457D01*
G01X11861800Y-4786314D01*
G01X11861800Y-4786314D01*
G01X11885392Y-4784457D01*
G01X11908404Y-4778932D01*
G01X11930268Y-4769876D01*
G01X11950446Y-4757511D01*
G01X11968441Y-4742141D01*
G01X11983811Y-4724146D01*
G01X11996176Y-4703968D01*
G01X12005232Y-4682104D01*
G01X12010757Y-4659092D01*
G01X12012614Y-4635500D01*
G01X12010757Y-4611908D01*
G01X12005232Y-4588896D01*
G01X11996176Y-4567032D01*
G01X11983811Y-4546854D01*
G01X11968441Y-4528859D01*
G01X11950446Y-4513489D01*
G01X11930268Y-4501124D01*
G01X11908404Y-4492068D01*
G01X11885392Y-4486543D01*
G01X11861800Y-4484686D01*
G01X11838208Y-4486543D01*
G01X11815196Y-4492068D01*
G01X11793332Y-4501124D01*
G01X11773154Y-4513489D01*
G01X11755159Y-4528859D01*
G01X11739789Y-4546854D01*
G01X11727424Y-4567032D01*
G01X11718368Y-4588896D01*
G01X11712843Y-4611908D01*
G01X11710986Y-4635500D01*
G01X8227805Y-4635500D01*
G01X8418305Y-4445000D01*
G01X10313396Y-4445000D01*
G01X10315323Y-4460870D01*
G01X10320992Y-4475818D01*
G01X10330073Y-4488974D01*
G01X10342039Y-4499575D01*
G01X10356195Y-4507005D01*
G01X10371717Y-4510831D01*
G01X10387703Y-4510831D01*
G01X10403225Y-4507005D01*
G01X10417381Y-4499575D01*
G01X10429347Y-4488974D01*
G01X10438428Y-4475818D01*
G01X10444097Y-4460870D01*
G01X10446024Y-4445000D01*
G01X10444097Y-4429130D01*
G01X10438428Y-4414182D01*
G01X10429347Y-4401026D01*
G01X10417381Y-4390425D01*
G01X10403225Y-4382995D01*
G01X10387703Y-4379169D01*
G01X10371717Y-4379169D01*
G01X10356195Y-4382995D01*
G01X10342039Y-4390425D01*
G01X10330073Y-4401026D01*
G01X10320992Y-4414182D01*
G01X10315323Y-4429130D01*
G01X10313396Y-4445000D01*
G01X10313396Y-4445000D01*
G01X8418305Y-4445000D01*
G01X8484392Y-4378913D01*
G01X8499619Y-4376669D01*
G01X8513918Y-4370976D01*
G01X8526520Y-4362139D01*
G01X8536745Y-4350635D01*
G01X8544043Y-4337084D01*
G01X8548020Y-4322216D01*
G01X8548463Y-4306831D01*
G01X8545347Y-4291759D01*
G01X8538841Y-4277811D01*
G01X8529294Y-4265738D01*
G01X8517222Y-4256191D01*
G01X8503273Y-4249685D01*
G01X8488201Y-4246569D01*
G01X8472816Y-4247012D01*
G01X8457948Y-4250989D01*
G01X8444397Y-4258287D01*
G01X8432893Y-4268512D01*
G01X8424057Y-4281114D01*
G01X8418363Y-4295413D01*
G01X8416119Y-4310640D01*
G01X7645814Y-5080945D01*
G01X7639626Y-5066683D01*
G01X7630288Y-5054254D01*
G01X7618312Y-5044340D01*
G01X7604358Y-5037487D01*
G01X7589191Y-5034072D01*
G01X7573647Y-5034281D01*
G01X7558578Y-5038103D01*
G01X7544813Y-5045329D01*
G01X7533108Y-5055561D01*
G01X7524108Y-5068237D01*
G01X7518306Y-5082660D01*
G01X7516021Y-5098038D01*
G01X7473737Y-5140321D01*
G01X7464416Y-5128880D01*
G01X7452795Y-5119784D01*
G01X7439450Y-5113483D01*
G01X7425042Y-5110290D01*
G01X7410285Y-5110362D01*
G01X7395908Y-5113696D01*
G01X7382626Y-5120127D01*
G01X7371094Y-5129336D01*
G01X7361885Y-5140868D01*
G01X7355454Y-5154150D01*
G01X7352120Y-5168527D01*
G01X7352048Y-5183284D01*
G01X7355241Y-5197692D01*
G01X7361542Y-5211037D01*
G01X7370638Y-5222658D01*
G01X7382080Y-5231979D01*
G01X7013928Y-5600131D01*
G01X7010536Y-5585722D01*
G01X7004033Y-5572425D01*
G01X6994742Y-5560901D01*
G01X6983126Y-5551726D01*
G01X6969764Y-5545356D01*
G01X6955322Y-5542108D01*
G01X6940520Y-5542145D01*
G01X6926094Y-5545465D01*
G01X6912765Y-5551902D01*
G01X6901195Y-5561135D01*
G01X6891962Y-5572705D01*
G01X6885525Y-5586035D01*
G01X6882205Y-5600460D01*
G01X6882168Y-5615263D01*
G01X6885415Y-5629705D01*
G01X6891786Y-5643066D01*
G01X6900961Y-5654682D01*
G01X6912484Y-5663973D01*
G01X6925782Y-5670477D01*
G01X6940190Y-5673869D01*
G01X6919917Y-5694142D01*
G01X6904690Y-5696386D01*
G01X6890391Y-5702079D01*
G01X6877789Y-5710916D01*
G01X6867564Y-5722420D01*
G01X6860266Y-5735971D01*
G01X6856289Y-5750839D01*
G01X6855846Y-5766224D01*
G01X6627978Y-5766224D01*
G01X6624759Y-5760465D01*
G01X6613969Y-5748866D01*
G01X6623545Y-5736543D01*
G01X6629975Y-5722323D01*
G01X6632904Y-5706994D01*
G01X6632170Y-5691405D01*
G01X6627813Y-5676420D01*
G01X6620074Y-5662867D01*
G01X6609382Y-5651499D01*
G01X6619475Y-5640927D01*
G01X6627008Y-5628401D01*
G01X6631613Y-5614529D01*
G01X6633067Y-5599985D01*
G01X6631300Y-5585475D01*
G01X6642967Y-5585475D01*
G01X6655462Y-5583831D01*
G01X6667105Y-5579008D01*
G01X6677103Y-5571336D01*
G01X7508554Y-4739885D01*
G01X7523781Y-4737641D01*
G01X7538080Y-4731947D01*
G01X7550682Y-4723111D01*
G01X7560907Y-4711607D01*
G01X7568205Y-4698056D01*
G01X7572182Y-4683188D01*
G01X7572625Y-4667803D01*
G01X7569509Y-4652731D01*
G01X7563003Y-4638782D01*
G01X7553456Y-4626710D01*
G01X7541383Y-4617163D01*
G01X7527435Y-4610657D01*
G01X7512363Y-4607541D01*
G01X7496978Y-4607983D01*
G01X7482109Y-4611961D01*
G01X7468558Y-4619259D01*
G01X7457055Y-4629484D01*
G01X7448218Y-4642086D01*
G01X7442525Y-4656385D01*
G01X7440281Y-4671612D01*
G01X6698929Y-5412963D01*
G01X6695864Y-5399029D01*
G01X6689890Y-5386074D01*
G01X6681283Y-5374696D01*
G01X6681283Y-4957623D01*
G01X6690464Y-4945270D01*
G01X6696549Y-4931133D01*
G01X6697169Y-4927600D01*
G01X6772482Y-4927600D01*
G01X6774409Y-4943470D01*
G01X6780078Y-4958418D01*
G01X6789160Y-4971575D01*
G01X6801126Y-4982176D01*
G01X6815281Y-4989605D01*
G01X6830803Y-4993431D01*
G01X6846790Y-4993431D01*
G01X6862312Y-4989605D01*
G01X6876467Y-4982176D01*
G01X6888433Y-4971575D01*
G01X6897515Y-4958418D01*
G01X6903183Y-4943470D01*
G01X6905110Y-4927600D01*
G01X6912482Y-4927600D01*
G01X6914409Y-4943470D01*
G01X6920078Y-4958418D01*
G01X6929159Y-4971575D01*
G01X6941125Y-4982176D01*
G01X6955281Y-4989605D01*
G01X6970803Y-4993431D01*
G01X6986789Y-4993431D01*
G01X7002311Y-4989605D01*
G01X7016467Y-4982176D01*
G01X7028433Y-4971575D01*
G01X7037514Y-4958418D01*
G01X7043183Y-4943470D01*
G01X7045110Y-4927600D01*
G01X7043183Y-4911730D01*
G01X7037514Y-4896783D01*
G01X7028433Y-4883626D01*
G01X7016467Y-4873025D01*
G01X7002311Y-4865596D01*
G01X6986789Y-4861770D01*
G01X6970803Y-4861770D01*
G01X6955281Y-4865596D01*
G01X6941125Y-4873025D01*
G01X6929159Y-4883626D01*
G01X6920078Y-4896783D01*
G01X6914409Y-4911730D01*
G01X6912482Y-4927600D01*
G01X6912482Y-4927600D01*
G01X6905110Y-4927600D01*
G01X6903183Y-4911730D01*
G01X6897515Y-4896783D01*
G01X6888433Y-4883626D01*
G01X6876467Y-4873025D01*
G01X6862312Y-4865596D01*
G01X6846790Y-4861770D01*
G01X6830803Y-4861770D01*
G01X6815281Y-4865596D01*
G01X6801126Y-4873025D01*
G01X6789160Y-4883626D01*
G01X6780078Y-4896783D01*
G01X6774409Y-4911730D01*
G01X6772482Y-4927600D01*
G01X6772482Y-4927600D01*
G01X6697169Y-4927600D01*
G01X6699211Y-4915974D01*
G01X6698307Y-4900609D01*
G01X6693885Y-4885867D01*
G01X6686184Y-4872541D01*
G01X6675619Y-4861349D01*
G01X6662758Y-4852894D01*
G01X6648294Y-4847632D01*
G01X6633007Y-4845846D01*
G01X6617720Y-4847632D01*
G01X6603256Y-4852894D01*
G01X6590395Y-4861349D01*
G01X6579829Y-4872541D01*
G01X6572128Y-4885867D01*
G01X6567707Y-4900609D01*
G01X6566803Y-4915974D01*
G01X6569465Y-4931133D01*
G01X6575550Y-4945270D01*
G01X6584730Y-4957623D01*
G01X6584730Y-5374696D01*
G01X6575100Y-5387843D01*
G01X6568967Y-5402943D01*
G01X6566702Y-5419082D01*
G01X6568441Y-5435286D01*
G01X6574081Y-5450577D01*
G01X6583279Y-5464031D01*
G01X6595481Y-5474834D01*
G01X6609950Y-5482336D01*
G01X6625811Y-5486081D01*
G01X6622970Y-5488922D01*
G01X6503267Y-5488922D01*
G01X6490772Y-5490567D01*
G01X6479129Y-5495390D01*
G01X6469130Y-5503062D01*
G01X6348223Y-5623970D01*
G01X6340586Y-5611636D01*
G01X6330450Y-5601257D01*
G01X6318299Y-5593331D01*
G01X6304716Y-5588237D01*
G01X6290350Y-5586219D01*
G01X5992734Y-5288602D01*
G01X5992734Y-5165086D01*
G01X6449753Y-5165086D01*
G01X6450657Y-5180451D01*
G01X6455078Y-5195193D01*
G01X6462780Y-5208519D01*
G01X6473345Y-5219711D01*
G01X6486206Y-5228165D01*
G01X6500670Y-5233428D01*
G01X6515957Y-5235214D01*
G01X6515957Y-5235214D01*
G01X6531244Y-5233428D01*
G01X6545708Y-5228165D01*
G01X6558569Y-5219711D01*
G01X6569134Y-5208519D01*
G01X6576836Y-5195193D01*
G01X6581257Y-5180451D01*
G01X6582161Y-5165086D01*
G01X6579499Y-5149927D01*
G01X6573414Y-5135790D01*
G01X6564234Y-5123436D01*
G01X6564234Y-4749801D01*
G01X6772482Y-4749801D01*
G01X6774409Y-4765671D01*
G01X6780078Y-4780618D01*
G01X6789160Y-4793775D01*
G01X6801126Y-4804376D01*
G01X6815281Y-4811805D01*
G01X6830803Y-4815631D01*
G01X6846790Y-4815631D01*
G01X6862312Y-4811805D01*
G01X6876467Y-4804376D01*
G01X6888433Y-4793775D01*
G01X6897515Y-4780618D01*
G01X6903183Y-4765671D01*
G01X6905110Y-4749801D01*
G01X6912482Y-4749801D01*
G01X6914409Y-4765671D01*
G01X6920078Y-4780618D01*
G01X6929159Y-4793775D01*
G01X6941125Y-4804376D01*
G01X6955281Y-4811805D01*
G01X6970803Y-4815631D01*
G01X6986789Y-4815631D01*
G01X7002311Y-4811805D01*
G01X7016467Y-4804376D01*
G01X7028433Y-4793775D01*
G01X7037514Y-4780618D01*
G01X7043183Y-4765671D01*
G01X7045110Y-4749801D01*
G01X7043183Y-4733931D01*
G01X7037514Y-4718983D01*
G01X7028433Y-4705826D01*
G01X7016467Y-4695225D01*
G01X7002311Y-4687796D01*
G01X6986789Y-4683970D01*
G01X6970803Y-4683970D01*
G01X6955281Y-4687796D01*
G01X6941125Y-4695225D01*
G01X6929159Y-4705826D01*
G01X6920078Y-4718983D01*
G01X6914409Y-4733931D01*
G01X6912482Y-4749801D01*
G01X6912482Y-4749801D01*
G01X6905110Y-4749801D01*
G01X6903183Y-4733931D01*
G01X6897515Y-4718983D01*
G01X6888433Y-4705826D01*
G01X6876467Y-4695225D01*
G01X6862312Y-4687796D01*
G01X6846790Y-4683970D01*
G01X6830803Y-4683970D01*
G01X6815281Y-4687796D01*
G01X6801126Y-4695225D01*
G01X6789160Y-4705826D01*
G01X6780078Y-4718983D01*
G01X6774409Y-4733931D01*
G01X6772482Y-4749801D01*
G01X6772482Y-4749801D01*
G01X6564234Y-4749801D01*
G01X6564234Y-4673601D01*
G01X7122752Y-4673601D01*
G01X7124679Y-4689471D01*
G01X7130348Y-4704418D01*
G01X7139429Y-4717575D01*
G01X7151395Y-4728176D01*
G01X7165550Y-4735605D01*
G01X7181072Y-4739431D01*
G01X7197059Y-4739431D01*
G01X7212581Y-4735605D01*
G01X7226736Y-4728176D01*
G01X7238702Y-4717575D01*
G01X7247784Y-4704418D01*
G01X7253453Y-4689471D01*
G01X7255380Y-4673601D01*
G01X7253453Y-4657731D01*
G01X7247784Y-4642783D01*
G01X7238702Y-4629626D01*
G01X7226736Y-4619025D01*
G01X7212581Y-4611596D01*
G01X7197059Y-4607770D01*
G01X7181072Y-4607770D01*
G01X7165550Y-4611596D01*
G01X7151395Y-4619025D01*
G01X7139429Y-4629626D01*
G01X7130348Y-4642783D01*
G01X7124679Y-4657731D01*
G01X7122752Y-4673601D01*
G01X7122752Y-4673601D01*
G01X6564234Y-4673601D01*
G01X6564234Y-4229102D01*
G01X7262452Y-4229102D01*
G01X7264379Y-4244971D01*
G01X7270048Y-4259919D01*
G01X7279129Y-4273076D01*
G01X7291095Y-4283677D01*
G01X7305250Y-4291106D01*
G01X7320772Y-4294932D01*
G01X7336759Y-4294932D01*
G01X7352281Y-4291106D01*
G01X7366436Y-4283677D01*
G01X7378402Y-4273076D01*
G01X7387484Y-4259919D01*
G01X7393153Y-4244971D01*
G01X7395080Y-4229102D01*
G01X7393153Y-4213232D01*
G01X7387484Y-4198284D01*
G01X7382456Y-4191000D01*
G01X9772376Y-4191000D01*
G01X9774303Y-4206870D01*
G01X9779972Y-4221818D01*
G01X9789053Y-4234974D01*
G01X9801019Y-4245575D01*
G01X9815175Y-4253005D01*
G01X9830697Y-4256831D01*
G01X9846683Y-4256831D01*
G01X9856139Y-4254500D01*
G01X10882686Y-4254500D01*
G01X10884613Y-4270370D01*
G01X10890282Y-4285318D01*
G01X10899363Y-4298474D01*
G01X10911330Y-4309075D01*
G01X10925485Y-4316505D01*
G01X10941007Y-4320331D01*
G01X10956993Y-4320331D01*
G01X10972515Y-4316505D01*
G01X10986671Y-4309075D01*
G01X10998637Y-4298474D01*
G01X11007718Y-4285318D01*
G01X11013387Y-4270370D01*
G01X11015314Y-4254500D01*
G01X11013387Y-4238630D01*
G01X11007718Y-4223682D01*
G01X10998637Y-4210526D01*
G01X10986671Y-4199925D01*
G01X10972515Y-4192495D01*
G01X10956993Y-4188669D01*
G01X10941007Y-4188669D01*
G01X10925485Y-4192495D01*
G01X10911330Y-4199925D01*
G01X10899363Y-4210526D01*
G01X10890282Y-4223682D01*
G01X10884613Y-4238630D01*
G01X10882686Y-4254500D01*
G01X10882686Y-4254500D01*
G01X9856139Y-4254500D01*
G01X9862205Y-4253005D01*
G01X9876361Y-4245575D01*
G01X9888327Y-4234974D01*
G01X9897408Y-4221818D01*
G01X9903077Y-4206870D01*
G01X9905004Y-4191000D01*
G01X9903077Y-4175130D01*
G01X9897408Y-4160182D01*
G01X9888327Y-4147026D01*
G01X9876361Y-4136425D01*
G01X9862205Y-4128995D01*
G01X9856139Y-4127500D01*
G01X11710986Y-4127500D01*
G01X11712843Y-4151092D01*
G01X11718368Y-4174104D01*
G01X11727424Y-4195968D01*
G01X11739789Y-4216146D01*
G01X11755159Y-4234141D01*
G01X11773154Y-4249511D01*
G01X11793332Y-4261876D01*
G01X11815196Y-4270932D01*
G01X11838208Y-4276457D01*
G01X11861800Y-4278314D01*
G01X11861800Y-4278314D01*
G01X11885392Y-4276457D01*
G01X11908404Y-4270932D01*
G01X11930268Y-4261876D01*
G01X11950446Y-4249511D01*
G01X11968441Y-4234141D01*
G01X11983811Y-4216146D01*
G01X11996176Y-4195968D01*
G01X12005232Y-4174104D01*
G01X12010757Y-4151092D01*
G01X12012614Y-4127500D01*
G01X12010757Y-4103908D01*
G01X12005232Y-4080896D01*
G01X11996176Y-4059032D01*
G01X11983811Y-4038854D01*
G01X11968441Y-4020859D01*
G01X11950446Y-4005489D01*
G01X11930268Y-3993124D01*
G01X11908404Y-3984068D01*
G01X11885392Y-3978543D01*
G01X11861800Y-3976686D01*
G01X11838208Y-3978543D01*
G01X11815196Y-3984068D01*
G01X11793332Y-3993124D01*
G01X11773154Y-4005489D01*
G01X11755159Y-4020859D01*
G01X11739789Y-4038854D01*
G01X11727424Y-4059032D01*
G01X11718368Y-4080896D01*
G01X11712843Y-4103908D01*
G01X11710986Y-4127500D01*
G01X9856139Y-4127500D01*
G01X9846683Y-4125169D01*
G01X9830697Y-4125169D01*
G01X9815175Y-4128995D01*
G01X9801019Y-4136425D01*
G01X9789053Y-4147026D01*
G01X9779972Y-4160182D01*
G01X9774303Y-4175130D01*
G01X9772376Y-4191000D01*
G01X9772376Y-4191000D01*
G01X7382456Y-4191000D01*
G01X7378402Y-4185127D01*
G01X7366436Y-4174526D01*
G01X7352281Y-4167097D01*
G01X7336759Y-4163271D01*
G01X7320772Y-4163271D01*
G01X7305250Y-4167097D01*
G01X7291095Y-4174526D01*
G01X7279129Y-4185127D01*
G01X7270048Y-4198284D01*
G01X7264379Y-4213232D01*
G01X7262452Y-4229102D01*
G01X7262452Y-4229102D01*
G01X6564234Y-4229102D01*
G01X6564234Y-4196163D01*
G01X6575939Y-4186697D01*
G01X6585208Y-4174835D01*
G01X6591562Y-4161187D01*
G01X6594675Y-4146458D01*
G01X6594385Y-4131407D01*
G01X6590708Y-4116809D01*
G01X6583834Y-4103416D01*
G01X6574115Y-4091919D01*
G01X6562054Y-4082910D01*
G01X6548272Y-4076854D01*
G01X6533479Y-4074062D01*
G01X6518438Y-4074678D01*
G01X6503923Y-4078672D01*
G01X6490683Y-4085836D01*
G01X6479399Y-4095802D01*
G01X6470655Y-4108056D01*
G01X6464899Y-4121966D01*
G01X6462429Y-4136816D01*
G01X6463373Y-4151841D01*
G01X6467680Y-4166266D01*
G01X6467680Y-5123436D01*
G01X6458500Y-5135790D01*
G01X6452415Y-5149927D01*
G01X6449753Y-5165086D01*
G01X5992734Y-5165086D01*
G01X5992734Y-4490463D01*
G01X6001914Y-4478110D01*
G01X6007999Y-4463973D01*
G01X6010661Y-4448814D01*
G01X6009757Y-4433449D01*
G01X6005336Y-4418707D01*
G01X5997635Y-4405381D01*
G01X5987069Y-4394189D01*
G01X5974208Y-4385734D01*
G01X5959744Y-4380472D01*
G01X5944457Y-4378686D01*
G01X5929170Y-4380472D01*
G01X5914706Y-4385734D01*
G01X5901845Y-4394189D01*
G01X5891280Y-4405381D01*
G01X5883579Y-4418707D01*
G01X5879157Y-4433449D01*
G01X5878253Y-4448814D01*
G01X35814Y-4448814D01*
G01X35814Y-4356100D01*
G01X6030543Y-4356100D01*
G01X6032470Y-4371970D01*
G01X6038139Y-4386918D01*
G01X6047220Y-4400075D01*
G01X6059186Y-4410676D01*
G01X6073342Y-4418105D01*
G01X6088864Y-4421931D01*
G01X6104850Y-4421931D01*
G01X6120372Y-4418105D01*
G01X6134528Y-4410676D01*
G01X6146494Y-4400075D01*
G01X6155575Y-4386918D01*
G01X6161244Y-4371970D01*
G01X6163171Y-4356100D01*
G01X6161244Y-4340230D01*
G01X6155575Y-4325283D01*
G01X6146494Y-4312126D01*
G01X6134528Y-4301525D01*
G01X6120372Y-4294096D01*
G01X6104850Y-4290270D01*
G01X6088864Y-4290270D01*
G01X6073342Y-4294096D01*
G01X6059186Y-4301525D01*
G01X6047220Y-4312126D01*
G01X6038139Y-4325283D01*
G01X6032470Y-4340230D01*
G01X6030543Y-4356100D01*
G01X6030543Y-4356100D01*
G01X35814Y-4356100D01*
G01X35814Y-4102100D01*
G01X382586Y-4102100D01*
G01X384443Y-4125692D01*
G01X389968Y-4148704D01*
G01X399024Y-4170568D01*
G01X411389Y-4190746D01*
G01X426759Y-4208741D01*
G01X444754Y-4224111D01*
G01X464932Y-4236476D01*
G01X486796Y-4245532D01*
G01X509808Y-4251057D01*
G01X533400Y-4252914D01*
G01X556992Y-4251057D01*
G01X580004Y-4245532D01*
G01X601868Y-4236476D01*
G01X622046Y-4224111D01*
G01X640041Y-4208741D01*
G01X655411Y-4190746D01*
G01X667776Y-4170568D01*
G01X676832Y-4148704D01*
G01X682357Y-4125692D01*
G01X684214Y-4102100D01*
G01X682357Y-4078508D01*
G01X677386Y-4057802D01*
G01X10487386Y-4057802D01*
G01X10489313Y-4073672D01*
G01X10494982Y-4088620D01*
G01X10504063Y-4101777D01*
G01X10516029Y-4112378D01*
G01X10530185Y-4119807D01*
G01X10545707Y-4123633D01*
G01X10561693Y-4123633D01*
G01X10577215Y-4119807D01*
G01X10591371Y-4112378D01*
G01X10603337Y-4101777D01*
G01X10612418Y-4088620D01*
G01X10618087Y-4073672D01*
G01X10620014Y-4057802D01*
G01X10618087Y-4041932D01*
G01X10612418Y-4026985D01*
G01X10603337Y-4013828D01*
G01X10591371Y-4003227D01*
G01X10577215Y-3995798D01*
G01X10561693Y-3991972D01*
G01X10545707Y-3991972D01*
G01X10530185Y-3995798D01*
G01X10516029Y-4003227D01*
G01X10504063Y-4013828D01*
G01X10494982Y-4026985D01*
G01X10489313Y-4041932D01*
G01X10487386Y-4057802D01*
G01X10487386Y-4057802D01*
G01X677386Y-4057802D01*
G01X676832Y-4055496D01*
G01X667776Y-4033632D01*
G01X655411Y-4013454D01*
G01X640041Y-3995459D01*
G01X622046Y-3980089D01*
G01X601868Y-3967724D01*
G01X580004Y-3958668D01*
G01X556992Y-3953143D01*
G01X533400Y-3951286D01*
G01X533400Y-3951286D01*
G01X509808Y-3953143D01*
G01X486796Y-3958668D01*
G01X464932Y-3967724D01*
G01X444754Y-3980089D01*
G01X426759Y-3995459D01*
G01X411389Y-4013454D01*
G01X399024Y-4033632D01*
G01X389968Y-4055496D01*
G01X384443Y-4078508D01*
G01X382586Y-4102100D01*
G01X35814Y-4102100D01*
G01X35814Y-3853627D01*
G01X467086Y-3853627D01*
G01X469013Y-3869497D01*
G01X474682Y-3884445D01*
G01X483763Y-3897601D01*
G01X495729Y-3908202D01*
G01X509885Y-3915632D01*
G01X525407Y-3919458D01*
G01X541393Y-3919458D01*
G01X548128Y-3917798D01*
G01X10487386Y-3917798D01*
G01X10489313Y-3933668D01*
G01X10494982Y-3948615D01*
G01X10504063Y-3961772D01*
G01X10516029Y-3972373D01*
G01X10530185Y-3979802D01*
G01X10545707Y-3983628D01*
G01X10561693Y-3983628D01*
G01X10577215Y-3979802D01*
G01X10591371Y-3972373D01*
G01X10603337Y-3961772D01*
G01X10612418Y-3948615D01*
G01X10618087Y-3933668D01*
G01X10620014Y-3917798D01*
G01X10618087Y-3901928D01*
G01X10612418Y-3886980D01*
G01X10603337Y-3873823D01*
G01X10591371Y-3863222D01*
G01X10577215Y-3855793D01*
G01X10561693Y-3851967D01*
G01X10545707Y-3851967D01*
G01X10530185Y-3855793D01*
G01X10516029Y-3863222D01*
G01X10504063Y-3873823D01*
G01X10494982Y-3886980D01*
G01X10489313Y-3901928D01*
G01X10487386Y-3917798D01*
G01X10487386Y-3917798D01*
G01X548128Y-3917798D01*
G01X556915Y-3915632D01*
G01X571071Y-3908202D01*
G01X583037Y-3897601D01*
G01X592118Y-3884445D01*
G01X597787Y-3869497D01*
G01X599714Y-3853627D01*
G01X597787Y-3837757D01*
G01X592118Y-3822809D01*
G01X583037Y-3809653D01*
G01X571071Y-3799052D01*
G01X556915Y-3791622D01*
G01X541393Y-3787796D01*
G01X525407Y-3787796D01*
G01X509885Y-3791622D01*
G01X495729Y-3799052D01*
G01X483763Y-3809653D01*
G01X474682Y-3822809D01*
G01X469013Y-3837757D01*
G01X467086Y-3853627D01*
G01X467086Y-3853627D01*
G01X35814Y-3853627D01*
G01X35814Y-3594100D01*
G01X382586Y-3594100D01*
G01X384443Y-3617692D01*
G01X389968Y-3640704D01*
G01X399024Y-3662568D01*
G01X411389Y-3682746D01*
G01X426759Y-3700741D01*
G01X444754Y-3716111D01*
G01X464932Y-3728476D01*
G01X486796Y-3737532D01*
G01X509808Y-3743057D01*
G01X533400Y-3744914D01*
G01X556992Y-3743057D01*
G01X580004Y-3737532D01*
G01X601868Y-3728476D01*
G01X614454Y-3720763D01*
G01X9775526Y-3720763D01*
G01X9777453Y-3736633D01*
G01X9783121Y-3751581D01*
G01X9792203Y-3764738D01*
G01X9804169Y-3775339D01*
G01X9818324Y-3782768D01*
G01X9833846Y-3786594D01*
G01X9849833Y-3786594D01*
G01X9865355Y-3782768D01*
G01X9879510Y-3775339D01*
G01X9891476Y-3764738D01*
G01X9900558Y-3751581D01*
G01X9906227Y-3736633D01*
G01X9908154Y-3720763D01*
G01X10316546Y-3720763D01*
G01X10318473Y-3736633D01*
G01X10324141Y-3751581D01*
G01X10333223Y-3764738D01*
G01X10345189Y-3775339D01*
G01X10359344Y-3782768D01*
G01X10374866Y-3786594D01*
G01X10390853Y-3786594D01*
G01X10406375Y-3782768D01*
G01X10420530Y-3775339D01*
G01X10432496Y-3764738D01*
G01X10441578Y-3751581D01*
G01X10447247Y-3736633D01*
G01X10449174Y-3720763D01*
G01X10447247Y-3704893D01*
G01X10441578Y-3689946D01*
G01X10432496Y-3676789D01*
G01X10420530Y-3666188D01*
G01X10406375Y-3658759D01*
G01X10390853Y-3654933D01*
G01X10374866Y-3654933D01*
G01X10359344Y-3658759D01*
G01X10345189Y-3666188D01*
G01X10333223Y-3676789D01*
G01X10324141Y-3689946D01*
G01X10318473Y-3704893D01*
G01X10316546Y-3720763D01*
G01X10316546Y-3720763D01*
G01X9908154Y-3720763D01*
G01X9906227Y-3704893D01*
G01X9900558Y-3689946D01*
G01X9891476Y-3676789D01*
G01X9879510Y-3666188D01*
G01X9865355Y-3658759D01*
G01X9849833Y-3654933D01*
G01X9833846Y-3654933D01*
G01X9818324Y-3658759D01*
G01X9804169Y-3666188D01*
G01X9792203Y-3676789D01*
G01X9783121Y-3689946D01*
G01X9777453Y-3704893D01*
G01X9775526Y-3720763D01*
G01X9775526Y-3720763D01*
G01X614454Y-3720763D01*
G01X622046Y-3716111D01*
G01X640041Y-3700741D01*
G01X655411Y-3682746D01*
G01X667776Y-3662568D01*
G01X676832Y-3640704D01*
G01X682357Y-3617692D01*
G01X684214Y-3594100D01*
G01X682357Y-3570508D01*
G01X676832Y-3547496D01*
G01X670328Y-3531793D01*
G01X3337297Y-3531793D01*
G01X3339462Y-3547447D01*
G01X3345269Y-3562144D01*
G01X3354389Y-3575050D01*
G01X3345269Y-3587956D01*
G01X3339462Y-3602653D01*
G01X3337297Y-3618307D01*
G01X3338897Y-3634029D01*
G01X3344172Y-3648926D01*
G01X3352822Y-3662151D01*
G01X3364355Y-3672955D01*
G01X3378118Y-3680723D01*
G01X3393327Y-3685013D01*
G01X3409120Y-3685584D01*
G01X3424599Y-3682402D01*
G01X3438886Y-3675647D01*
G01X3451169Y-3665704D01*
G01X3460750Y-3653137D01*
G01X3468917Y-3664202D01*
G01X3479192Y-3673344D01*
G01X3491131Y-3680171D01*
G01X3504221Y-3684388D01*
G01X3517900Y-3685814D01*
G01X3531579Y-3684388D01*
G01X3544669Y-3680171D01*
G01X3556608Y-3673344D01*
G01X3566883Y-3664202D01*
G01X3575050Y-3653137D01*
G01X3584631Y-3665704D01*
G01X3596914Y-3675647D01*
G01X3611201Y-3682402D01*
G01X3626680Y-3685584D01*
G01X3642473Y-3685013D01*
G01X3657682Y-3680723D01*
G01X3671445Y-3672955D01*
G01X3682978Y-3662151D01*
G01X3691628Y-3648926D01*
G01X3696903Y-3634029D01*
G01X3698382Y-3619500D01*
G01X11710986Y-3619500D01*
G01X11712843Y-3643092D01*
G01X11718368Y-3666104D01*
G01X11727424Y-3687968D01*
G01X11739789Y-3708146D01*
G01X11755159Y-3726141D01*
G01X11773154Y-3741511D01*
G01X11793332Y-3753876D01*
G01X11815196Y-3762932D01*
G01X11838208Y-3768457D01*
G01X11861800Y-3770314D01*
G01X11861800Y-3770314D01*
G01X11885392Y-3768457D01*
G01X11908404Y-3762932D01*
G01X11930268Y-3753876D01*
G01X11950446Y-3741511D01*
G01X11968441Y-3726141D01*
G01X11983811Y-3708146D01*
G01X11996176Y-3687968D01*
G01X12005232Y-3666104D01*
G01X12010757Y-3643092D01*
G01X12012614Y-3619500D01*
G01X12010757Y-3595908D01*
G01X12005232Y-3572896D01*
G01X11996176Y-3551032D01*
G01X11983811Y-3530854D01*
G01X11968441Y-3512859D01*
G01X11950446Y-3497489D01*
G01X11930268Y-3485124D01*
G01X11908404Y-3476068D01*
G01X11885392Y-3470543D01*
G01X11861800Y-3468686D01*
G01X11838208Y-3470543D01*
G01X11815196Y-3476068D01*
G01X11793332Y-3485124D01*
G01X11773154Y-3497489D01*
G01X11755159Y-3512859D01*
G01X11739789Y-3530854D01*
G01X11727424Y-3551032D01*
G01X11718368Y-3572896D01*
G01X11712843Y-3595908D01*
G01X11710986Y-3619500D01*
G01X3698382Y-3619500D01*
G01X3698503Y-3618307D01*
G01X3696338Y-3602653D01*
G01X3690531Y-3587956D01*
G01X3681411Y-3575050D01*
G01X3690531Y-3562144D01*
G01X3696338Y-3547447D01*
G01X3698503Y-3531793D01*
G01X3698382Y-3530600D01*
G01X10882686Y-3530600D01*
G01X10884613Y-3546470D01*
G01X10890282Y-3561418D01*
G01X10899363Y-3574574D01*
G01X10911330Y-3585175D01*
G01X10925485Y-3592605D01*
G01X10941007Y-3596431D01*
G01X10956993Y-3596431D01*
G01X10972515Y-3592605D01*
G01X10986671Y-3585175D01*
G01X10998637Y-3574574D01*
G01X11007718Y-3561418D01*
G01X11013387Y-3546470D01*
G01X11015314Y-3530600D01*
G01X11013387Y-3514730D01*
G01X11007718Y-3499782D01*
G01X10998637Y-3486626D01*
G01X10986671Y-3476025D01*
G01X10972515Y-3468595D01*
G01X10956993Y-3464769D01*
G01X10941007Y-3464769D01*
G01X10925485Y-3468595D01*
G01X10911330Y-3476025D01*
G01X10899363Y-3486626D01*
G01X10890282Y-3499782D01*
G01X10884613Y-3514730D01*
G01X10882686Y-3530600D01*
G01X10882686Y-3530600D01*
G01X3698382Y-3530600D01*
G01X3696903Y-3516071D01*
G01X3691628Y-3501174D01*
G01X3682978Y-3487949D01*
G01X3671445Y-3477145D01*
G01X3657682Y-3469377D01*
G01X3642473Y-3465087D01*
G01X3626680Y-3464516D01*
G01X3611201Y-3467698D01*
G01X3596914Y-3474453D01*
G01X3584631Y-3484396D01*
G01X3575050Y-3496963D01*
G01X3566883Y-3485898D01*
G01X3556608Y-3476756D01*
G01X3544669Y-3469929D01*
G01X3531579Y-3465712D01*
G01X3517900Y-3464286D01*
G01X3517900Y-3464286D01*
G01X3504221Y-3465712D01*
G01X3491131Y-3469929D01*
G01X3479192Y-3476756D01*
G01X3468917Y-3485898D01*
G01X3460750Y-3496963D01*
G01X3451169Y-3484396D01*
G01X3438886Y-3474453D01*
G01X3424599Y-3467698D01*
G01X3409120Y-3464516D01*
G01X3393327Y-3465087D01*
G01X3378118Y-3469377D01*
G01X3364355Y-3477145D01*
G01X3352822Y-3487949D01*
G01X3344172Y-3501174D01*
G01X3338897Y-3516071D01*
G01X3337297Y-3531793D01*
G01X670328Y-3531793D01*
G01X667776Y-3525632D01*
G01X655411Y-3505454D01*
G01X640041Y-3487459D01*
G01X622046Y-3472089D01*
G01X601868Y-3459724D01*
G01X580004Y-3450668D01*
G01X556992Y-3445143D01*
G01X533400Y-3443286D01*
G01X533400Y-3443286D01*
G01X509808Y-3445143D01*
G01X486796Y-3450668D01*
G01X464932Y-3459724D01*
G01X444754Y-3472089D01*
G01X426759Y-3487459D01*
G01X411389Y-3505454D01*
G01X399024Y-3525632D01*
G01X389968Y-3547496D01*
G01X384443Y-3570508D01*
G01X382586Y-3594100D01*
G01X35814Y-3594100D01*
G01X35814Y-3320186D01*
G01X2943586Y-3320186D01*
G01X2945513Y-3336056D01*
G01X2951182Y-3351004D01*
G01X2960263Y-3364161D01*
G01X2972229Y-3374762D01*
G01X2986385Y-3382191D01*
G01X3001907Y-3386017D01*
G01X3017893Y-3386017D01*
G01X3033415Y-3382191D01*
G01X3047571Y-3374762D01*
G01X3059537Y-3364161D01*
G01X3068618Y-3351004D01*
G01X3074287Y-3336056D01*
G01X3076214Y-3320186D01*
G01X4023086Y-3320186D01*
G01X4025013Y-3336056D01*
G01X4030682Y-3351004D01*
G01X4039763Y-3364161D01*
G01X4051729Y-3374762D01*
G01X4065885Y-3382191D01*
G01X4081407Y-3386017D01*
G01X4097393Y-3386017D01*
G01X4112915Y-3382191D01*
G01X4127071Y-3374762D01*
G01X4139037Y-3364161D01*
G01X4148118Y-3351004D01*
G01X4153787Y-3336056D01*
G01X4154049Y-3333902D01*
G01X10500086Y-3333902D01*
G01X10502013Y-3349772D01*
G01X10507682Y-3364720D01*
G01X10516763Y-3377877D01*
G01X10528729Y-3388478D01*
G01X10542885Y-3395907D01*
G01X10558407Y-3399733D01*
G01X10574393Y-3399733D01*
G01X10589915Y-3395907D01*
G01X10604071Y-3388478D01*
G01X10616037Y-3377877D01*
G01X10625118Y-3364720D01*
G01X10630787Y-3349772D01*
G01X10632714Y-3333902D01*
G01X10630787Y-3318032D01*
G01X10625118Y-3303085D01*
G01X10616037Y-3289928D01*
G01X10604071Y-3279327D01*
G01X10589915Y-3271898D01*
G01X10574393Y-3268072D01*
G01X10558407Y-3268072D01*
G01X10542885Y-3271898D01*
G01X10528729Y-3279327D01*
G01X10516763Y-3289928D01*
G01X10507682Y-3303085D01*
G01X10502013Y-3318032D01*
G01X10500086Y-3333902D01*
G01X10500086Y-3333902D01*
G01X4154049Y-3333902D01*
G01X4155714Y-3320186D01*
G01X4153787Y-3304316D01*
G01X4148118Y-3289369D01*
G01X4139037Y-3276212D01*
G01X4127071Y-3265611D01*
G01X4112915Y-3258182D01*
G01X4097393Y-3254356D01*
G01X4081407Y-3254356D01*
G01X4065885Y-3258182D01*
G01X4051729Y-3265611D01*
G01X4039763Y-3276212D01*
G01X4030682Y-3289369D01*
G01X4025013Y-3304316D01*
G01X4023086Y-3320186D01*
G01X4023086Y-3320186D01*
G01X3076214Y-3320186D01*
G01X3074287Y-3304316D01*
G01X3068618Y-3289369D01*
G01X3059537Y-3276212D01*
G01X3047571Y-3265611D01*
G01X3033415Y-3258182D01*
G01X3017893Y-3254356D01*
G01X3001907Y-3254356D01*
G01X2986385Y-3258182D01*
G01X2972229Y-3265611D01*
G01X2960263Y-3276212D01*
G01X2951182Y-3289369D01*
G01X2945513Y-3304316D01*
G01X2943586Y-3320186D01*
G01X2943586Y-3320186D01*
G01X35814Y-3320186D01*
G01X35814Y-3193898D01*
G01X10500086Y-3193898D01*
G01X10502013Y-3209768D01*
G01X10507682Y-3224715D01*
G01X10516763Y-3237872D01*
G01X10528729Y-3248473D01*
G01X10542885Y-3255902D01*
G01X10558407Y-3259728D01*
G01X10574393Y-3259728D01*
G01X10589915Y-3255902D01*
G01X10604071Y-3248473D01*
G01X10616037Y-3237872D01*
G01X10625118Y-3224715D01*
G01X10630787Y-3209768D01*
G01X10632714Y-3193898D01*
G01X10630787Y-3178028D01*
G01X10625118Y-3163080D01*
G01X10616037Y-3149923D01*
G01X10604071Y-3139322D01*
G01X10589915Y-3131893D01*
G01X10574393Y-3128067D01*
G01X10558407Y-3128067D01*
G01X10542885Y-3131893D01*
G01X10528729Y-3139322D01*
G01X10516763Y-3149923D01*
G01X10507682Y-3163080D01*
G01X10502013Y-3178028D01*
G01X10500086Y-3193898D01*
G01X10500086Y-3193898D01*
G01X35814Y-3193898D01*
G01X35814Y-3111500D01*
G01X11710986Y-3111500D01*
G01X11712843Y-3135092D01*
G01X11718368Y-3158104D01*
G01X11727424Y-3179968D01*
G01X11739789Y-3200146D01*
G01X11755159Y-3218141D01*
G01X11773154Y-3233511D01*
G01X11793332Y-3245876D01*
G01X11815196Y-3254932D01*
G01X11838208Y-3260457D01*
G01X11861800Y-3262314D01*
G01X11861800Y-3262314D01*
G01X11885392Y-3260457D01*
G01X11908404Y-3254932D01*
G01X11930268Y-3245876D01*
G01X11950446Y-3233511D01*
G01X11968441Y-3218141D01*
G01X11983811Y-3200146D01*
G01X11996176Y-3179968D01*
G01X12005232Y-3158104D01*
G01X12010757Y-3135092D01*
G01X12012614Y-3111500D01*
G01X12010757Y-3087908D01*
G01X12005232Y-3064896D01*
G01X11996176Y-3043032D01*
G01X11983811Y-3022854D01*
G01X11968441Y-3004859D01*
G01X11950446Y-2989489D01*
G01X11930268Y-2977124D01*
G01X11908404Y-2968068D01*
G01X11885392Y-2962543D01*
G01X11861800Y-2960686D01*
G01X11838208Y-2962543D01*
G01X11815196Y-2968068D01*
G01X11793332Y-2977124D01*
G01X11773154Y-2989489D01*
G01X11755159Y-3004859D01*
G01X11739789Y-3022854D01*
G01X11727424Y-3043032D01*
G01X11718368Y-3064896D01*
G01X11712843Y-3087908D01*
G01X11710986Y-3111500D01*
G01X35814Y-3111500D01*
G01X35814Y-2819400D01*
G01X1551686Y-2819400D01*
G01X1553571Y-2849356D01*
G01X1559195Y-2878840D01*
G01X1568470Y-2907387D01*
G01X1581250Y-2934546D01*
G01X1597334Y-2959889D01*
G01X1616466Y-2983016D01*
G01X1638347Y-3003563D01*
G01X1662630Y-3021206D01*
G01X1688933Y-3035666D01*
G01X1716841Y-3046716D01*
G01X1745913Y-3054180D01*
G01X1775692Y-3057942D01*
G01X1805708Y-3057942D01*
G01X1835487Y-3054180D01*
G01X1864559Y-3046716D01*
G01X1892467Y-3035666D01*
G01X1918770Y-3021206D01*
G01X1943053Y-3003563D01*
G01X1964934Y-2983016D01*
G01X1984066Y-2959889D01*
G01X2000150Y-2934546D01*
G01X2012930Y-2907387D01*
G01X2022205Y-2878840D01*
G01X2027829Y-2849356D01*
G01X2029714Y-2819400D01*
G01X2027829Y-2789444D01*
G01X2022205Y-2759960D01*
G01X2012930Y-2731413D01*
G01X2000150Y-2704254D01*
G01X1984066Y-2678911D01*
G01X1964934Y-2655784D01*
G01X1943053Y-2635237D01*
G01X1918770Y-2617594D01*
G01X1893137Y-2603502D01*
G01X5004287Y-2603502D01*
G01X5006049Y-2618688D01*
G01X5011242Y-2633066D01*
G01X5019590Y-2645874D01*
G01X5030648Y-2656429D01*
G01X5043830Y-2664172D01*
G01X5058435Y-2668690D01*
G01X5073686Y-2669744D01*
G01X5088773Y-2667277D01*
G01X5102895Y-2661421D01*
G01X5115300Y-2652486D01*
G01X5125330Y-2640949D01*
G01X5132451Y-2627421D01*
G01X5140023Y-2641600D01*
G01X5132462Y-2655751D01*
G01X5128520Y-2671303D01*
G01X5128428Y-2687347D01*
G01X5132193Y-2702943D01*
G01X5139593Y-2717179D01*
G01X5150195Y-2729221D01*
G01X5163379Y-2738364D01*
G01X5178374Y-2744073D01*
G01X5194300Y-2746014D01*
G01X5194300Y-2746014D01*
G01X5210226Y-2744073D01*
G01X5225221Y-2738364D01*
G01X5238405Y-2729221D01*
G01X5249007Y-2717179D01*
G01X5256407Y-2702943D01*
G01X5260172Y-2687347D01*
G01X5260080Y-2671303D01*
G01X5256138Y-2655751D01*
G01X5248577Y-2641600D01*
G01X5256120Y-2627498D01*
G01X5260067Y-2612000D01*
G01X5260132Y-2603503D01*
G01X5690087Y-2603503D01*
G01X5692014Y-2619373D01*
G01X5697683Y-2634320D01*
G01X5706764Y-2647477D01*
G01X5718730Y-2658078D01*
G01X5732885Y-2665507D01*
G01X5748407Y-2669333D01*
G01X5764394Y-2669333D01*
G01X5779916Y-2665507D01*
G01X5794071Y-2658078D01*
G01X5806038Y-2647477D01*
G01X5815119Y-2634320D01*
G01X5820788Y-2619373D01*
G01X5822715Y-2603503D01*
G01X5821786Y-2595853D01*
G01X5826928Y-2595853D01*
G01X5827020Y-2611897D01*
G01X5830962Y-2627449D01*
G01X5838523Y-2641600D01*
G01X5830962Y-2655751D01*
G01X5827020Y-2671303D01*
G01X5826928Y-2687347D01*
G01X5830693Y-2702943D01*
G01X5838093Y-2717179D01*
G01X5848695Y-2729221D01*
G01X5861879Y-2738364D01*
G01X5876874Y-2744073D01*
G01X5892800Y-2746014D01*
G01X5892800Y-2746014D01*
G01X5908726Y-2744073D01*
G01X5923721Y-2738364D01*
G01X5936905Y-2729221D01*
G01X5947507Y-2717179D01*
G01X5954907Y-2702943D01*
G01X5958672Y-2687347D01*
G01X5958580Y-2671303D01*
G01X5954638Y-2655751D01*
G01X5947077Y-2641600D01*
G01X5954638Y-2627449D01*
G01X5958580Y-2611897D01*
G01X5958628Y-2603502D01*
G01X6413987Y-2603502D01*
G01X6415778Y-2618810D01*
G01X6421055Y-2633292D01*
G01X6429532Y-2646164D01*
G01X6440752Y-2656731D01*
G01X6454108Y-2664423D01*
G01X6468879Y-2668824D01*
G01X6484267Y-2669697D01*
G01X6499441Y-2666993D01*
G01X6513581Y-2660860D01*
G01X6525923Y-2651628D01*
G01X6535801Y-2639796D01*
G01X6537023Y-2641600D01*
G01X6529462Y-2655751D01*
G01X6525520Y-2671303D01*
G01X6525428Y-2687347D01*
G01X6529193Y-2702943D01*
G01X6536593Y-2717179D01*
G01X6547195Y-2729221D01*
G01X6560379Y-2738364D01*
G01X6575374Y-2744073D01*
G01X6591300Y-2746014D01*
G01X6607226Y-2744073D01*
G01X6622221Y-2738364D01*
G01X6635405Y-2729221D01*
G01X6646007Y-2717179D01*
G01X6653407Y-2702943D01*
G01X6657172Y-2687347D01*
G01X6657080Y-2671303D01*
G01X6653138Y-2655751D01*
G01X6645577Y-2641600D01*
G01X6652753Y-2628423D01*
G01X6656782Y-2613970D01*
G01X6657256Y-2603500D01*
G01X7159122Y-2603500D01*
G01X7161014Y-2619224D01*
G01X7166579Y-2634051D01*
G01X7175502Y-2647136D01*
G01X7187273Y-2657732D01*
G01X7201220Y-2665234D01*
G01X7216549Y-2669216D01*
G01X7232384Y-2669449D01*
G01X7247824Y-2665921D01*
G01X7261986Y-2658832D01*
G01X7274064Y-2648588D01*
G01X7283368Y-2635772D01*
G01X7289368Y-2621115D01*
G01X7293315Y-2631773D01*
G01X7299023Y-2641600D01*
G01X7291462Y-2655751D01*
G01X7287520Y-2671303D01*
G01X7287428Y-2687347D01*
G01X7291193Y-2702943D01*
G01X7298593Y-2717179D01*
G01X7309195Y-2729221D01*
G01X7322379Y-2738364D01*
G01X7337374Y-2744073D01*
G01X7353300Y-2746014D01*
G01X7369226Y-2744073D01*
G01X7384221Y-2738364D01*
G01X7397405Y-2729221D01*
G01X7408007Y-2717179D01*
G01X7415407Y-2702943D01*
G01X7419172Y-2687347D01*
G01X7419080Y-2671303D01*
G01X7415138Y-2655751D01*
G01X7407577Y-2641600D01*
G01X7414527Y-2628972D01*
G01X7418584Y-2615140D01*
G01X7419372Y-2603502D01*
G01X7912587Y-2603502D01*
G01X7914378Y-2618810D01*
G01X7919655Y-2633292D01*
G01X7928132Y-2646164D01*
G01X7939352Y-2656731D01*
G01X7952708Y-2664423D01*
G01X7967479Y-2668824D01*
G01X7982867Y-2669697D01*
G01X7998041Y-2666993D01*
G01X8012181Y-2660860D01*
G01X8024523Y-2651628D01*
G01X8034401Y-2639796D01*
G01X8035623Y-2641600D01*
G01X8028062Y-2655751D01*
G01X8024120Y-2671303D01*
G01X8024028Y-2687347D01*
G01X8027793Y-2702943D01*
G01X8035193Y-2717179D01*
G01X8045795Y-2729221D01*
G01X8058979Y-2738364D01*
G01X8073974Y-2744073D01*
G01X8089900Y-2746014D01*
G01X8105826Y-2744073D01*
G01X8120821Y-2738364D01*
G01X8134005Y-2729221D01*
G01X8144607Y-2717179D01*
G01X8152007Y-2702943D01*
G01X8155772Y-2687347D01*
G01X8155680Y-2671303D01*
G01X8151738Y-2655751D01*
G01X8144177Y-2641600D01*
G01X8151353Y-2628423D01*
G01X8155382Y-2613970D01*
G01X8155856Y-2603502D01*
G01X8611087Y-2603502D01*
G01X8612878Y-2618810D01*
G01X8618155Y-2633292D01*
G01X8626632Y-2646164D01*
G01X8637852Y-2656731D01*
G01X8651208Y-2664423D01*
G01X8665979Y-2668824D01*
G01X8681367Y-2669697D01*
G01X8696541Y-2666993D01*
G01X8710681Y-2660860D01*
G01X8723023Y-2651628D01*
G01X8732901Y-2639796D01*
G01X8734123Y-2641600D01*
G01X8726562Y-2655751D01*
G01X8722620Y-2671303D01*
G01X8722528Y-2687347D01*
G01X8726293Y-2702943D01*
G01X8733693Y-2717179D01*
G01X8744295Y-2729221D01*
G01X8757479Y-2738364D01*
G01X8772474Y-2744073D01*
G01X8788400Y-2746014D01*
G01X8804326Y-2744073D01*
G01X8819321Y-2738364D01*
G01X8832505Y-2729221D01*
G01X8843107Y-2717179D01*
G01X8850507Y-2702943D01*
G01X8854272Y-2687347D01*
G01X8854180Y-2671303D01*
G01X8850238Y-2655751D01*
G01X8842677Y-2641600D01*
G01X8849853Y-2628423D01*
G01X8853260Y-2616202D01*
G01X9334987Y-2616202D01*
G01X9336749Y-2631388D01*
G01X9341942Y-2645766D01*
G01X9350290Y-2658574D01*
G01X9361348Y-2669129D01*
G01X9374530Y-2676872D01*
G01X9389135Y-2681390D01*
G01X9404386Y-2682444D01*
G01X9419473Y-2679977D01*
G01X9433595Y-2674121D01*
G01X9446000Y-2665186D01*
G01X9456030Y-2653649D01*
G01X9463151Y-2640121D01*
G01X9470723Y-2654300D01*
G01X9463162Y-2668451D01*
G01X9459220Y-2684003D01*
G01X9459128Y-2700047D01*
G01X9462893Y-2715643D01*
G01X9470293Y-2729879D01*
G01X9480895Y-2741921D01*
G01X9494079Y-2751064D01*
G01X9509074Y-2756773D01*
G01X9525000Y-2758714D01*
G01X9540926Y-2756773D01*
G01X9555921Y-2751064D01*
G01X9569105Y-2741921D01*
G01X9579707Y-2729879D01*
G01X9587107Y-2715643D01*
G01X9590872Y-2700047D01*
G01X9590780Y-2684003D01*
G01X9586838Y-2668451D01*
G01X9579277Y-2654300D01*
G01X9586820Y-2640198D01*
G01X9590767Y-2624700D01*
G01X9590832Y-2616200D01*
G01X10003922Y-2616200D01*
G01X10005798Y-2631861D01*
G01X10011320Y-2646636D01*
G01X10020174Y-2659689D01*
G01X10031861Y-2670282D01*
G01X10045719Y-2677815D01*
G01X10060964Y-2681863D01*
G01X10076733Y-2682195D01*
G01X10092135Y-2678794D01*
G01X10106299Y-2671851D01*
G01X10118421Y-2661761D01*
G01X10127818Y-2649092D01*
G01X10131123Y-2654300D01*
G01X10123562Y-2668451D01*
G01X10119620Y-2684003D01*
G01X10119528Y-2700047D01*
G01X10123293Y-2715643D01*
G01X10130693Y-2729879D01*
G01X10141295Y-2741921D01*
G01X10154479Y-2751064D01*
G01X10169474Y-2756773D01*
G01X10185400Y-2758714D01*
G01X10201326Y-2756773D01*
G01X10216321Y-2751064D01*
G01X10229505Y-2741921D01*
G01X10240107Y-2729879D01*
G01X10247507Y-2715643D01*
G01X10251272Y-2700047D01*
G01X10251180Y-2684003D01*
G01X10247238Y-2668451D01*
G01X10239677Y-2654300D01*
G01X10246959Y-2640858D01*
G01X10250970Y-2626106D01*
G01X10251496Y-2610828D01*
G01X10250036Y-2603500D01*
G01X11135086Y-2603500D01*
G01X11137013Y-2619370D01*
G01X11142682Y-2634318D01*
G01X11151763Y-2647474D01*
G01X11163729Y-2658075D01*
G01X11177885Y-2665505D01*
G01X11193407Y-2669331D01*
G01X11209393Y-2669331D01*
G01X11224915Y-2665505D01*
G01X11239071Y-2658075D01*
G01X11251037Y-2647474D01*
G01X11260118Y-2634318D01*
G01X11265787Y-2619370D01*
G01X11267714Y-2603500D01*
G01X11710986Y-2603500D01*
G01X11712843Y-2627092D01*
G01X11718368Y-2650104D01*
G01X11727424Y-2671968D01*
G01X11739789Y-2692146D01*
G01X11755159Y-2710141D01*
G01X11773154Y-2725511D01*
G01X11793332Y-2737876D01*
G01X11815196Y-2746932D01*
G01X11838208Y-2752457D01*
G01X11861800Y-2754314D01*
G01X11861800Y-2754314D01*
G01X11885392Y-2752457D01*
G01X11908404Y-2746932D01*
G01X11930268Y-2737876D01*
G01X11950446Y-2725511D01*
G01X11968441Y-2710141D01*
G01X11983811Y-2692146D01*
G01X11996176Y-2671968D01*
G01X12005232Y-2650104D01*
G01X12010757Y-2627092D01*
G01X12012614Y-2603500D01*
G01X12010757Y-2579908D01*
G01X12005232Y-2556896D01*
G01X11996176Y-2535032D01*
G01X11983811Y-2514854D01*
G01X11968441Y-2496859D01*
G01X11950446Y-2481489D01*
G01X11930268Y-2469124D01*
G01X11908404Y-2460068D01*
G01X11885392Y-2454543D01*
G01X11861800Y-2452686D01*
G01X11838208Y-2454543D01*
G01X11815196Y-2460068D01*
G01X11793332Y-2469124D01*
G01X11773154Y-2481489D01*
G01X11755159Y-2496859D01*
G01X11739789Y-2514854D01*
G01X11727424Y-2535032D01*
G01X11718368Y-2556896D01*
G01X11712843Y-2579908D01*
G01X11710986Y-2603500D01*
G01X11267714Y-2603500D01*
G01X11265787Y-2587630D01*
G01X11260118Y-2572682D01*
G01X11251037Y-2559526D01*
G01X11239071Y-2548925D01*
G01X11224915Y-2541495D01*
G01X11209393Y-2537669D01*
G01X11193407Y-2537669D01*
G01X11177885Y-2541495D01*
G01X11163729Y-2548925D01*
G01X11151763Y-2559526D01*
G01X11142682Y-2572682D01*
G01X11137013Y-2587630D01*
G01X11135086Y-2603500D01*
G01X11135086Y-2603500D01*
G01X10250036Y-2603500D01*
G01X10248510Y-2595835D01*
G01X10242169Y-2581924D01*
G01X10232812Y-2569835D01*
G01X10220935Y-2560210D01*
G01X10207169Y-2553561D01*
G01X10192246Y-2550240D01*
G01X10176960Y-2550425D01*
G01X10162122Y-2554106D01*
G01X10148521Y-2561086D01*
G01X10136880Y-2570996D01*
G01X10127818Y-2583308D01*
G01X10118421Y-2570639D01*
G01X10106299Y-2560549D01*
G01X10092135Y-2553606D01*
G01X10076733Y-2550205D01*
G01X10060964Y-2550537D01*
G01X10045719Y-2554585D01*
G01X10031861Y-2562118D01*
G01X10020174Y-2572711D01*
G01X10011320Y-2585764D01*
G01X10005798Y-2600539D01*
G01X10003922Y-2616200D01*
G01X10003922Y-2616200D01*
G01X9590832Y-2616200D01*
G01X9590889Y-2608707D01*
G01X9587179Y-2593150D01*
G01X9579853Y-2578934D01*
G01X9569336Y-2566886D01*
G01X9556240Y-2557705D01*
G01X9541327Y-2551927D01*
G01X9525465Y-2549888D01*
G01X9509576Y-2551705D01*
G01X9494583Y-2557273D01*
G01X9481360Y-2566269D01*
G01X9470675Y-2578169D01*
G01X9463150Y-2592280D01*
G01X9456029Y-2578753D01*
G01X9445999Y-2567215D01*
G01X9433594Y-2558281D01*
G01X9419472Y-2552425D01*
G01X9404385Y-2549959D01*
G01X9389133Y-2551013D01*
G01X9374529Y-2555532D01*
G01X9361347Y-2563274D01*
G01X9350289Y-2573830D01*
G01X9341941Y-2586638D01*
G01X9336749Y-2601016D01*
G01X9334987Y-2616202D01*
G01X9334987Y-2616202D01*
G01X8853260Y-2616202D01*
G01X8853882Y-2613970D01*
G01X8854560Y-2598981D01*
G01X8851850Y-2584223D01*
G01X8845892Y-2570452D01*
G01X8836991Y-2558373D01*
G01X8825602Y-2548604D01*
G01X8812309Y-2541646D01*
G01X8797791Y-2537854D01*
G01X8782793Y-2537423D01*
G01X8768082Y-2540375D01*
G01X8754411Y-2546559D01*
G01X8742480Y-2555657D01*
G01X8732900Y-2567205D01*
G01X8723022Y-2555374D01*
G01X8710680Y-2546142D01*
G01X8696540Y-2540009D01*
G01X8681366Y-2537306D01*
G01X8665978Y-2538178D01*
G01X8651207Y-2542580D01*
G01X8637851Y-2550272D01*
G01X8626631Y-2560840D01*
G01X8618154Y-2573712D01*
G01X8612878Y-2588194D01*
G01X8611087Y-2603502D01*
G01X8611087Y-2603502D01*
G01X8155856Y-2603502D01*
G01X8156060Y-2598981D01*
G01X8153350Y-2584223D01*
G01X8147392Y-2570452D01*
G01X8138491Y-2558373D01*
G01X8127102Y-2548604D01*
G01X8113809Y-2541646D01*
G01X8099291Y-2537854D01*
G01X8084293Y-2537423D01*
G01X8069582Y-2540375D01*
G01X8055911Y-2546559D01*
G01X8043980Y-2555657D01*
G01X8034400Y-2567205D01*
G01X8024522Y-2555374D01*
G01X8012180Y-2546142D01*
G01X7998040Y-2540009D01*
G01X7982866Y-2537306D01*
G01X7967478Y-2538178D01*
G01X7952707Y-2542580D01*
G01X7939351Y-2550272D01*
G01X7928131Y-2560840D01*
G01X7919654Y-2573712D01*
G01X7914378Y-2588194D01*
G01X7912587Y-2603502D01*
G01X7912587Y-2603502D01*
G01X7419372Y-2603502D01*
G01X7419557Y-2600758D01*
G01X7417400Y-2586506D01*
G01X7412213Y-2573057D01*
G01X7404243Y-2561046D01*
G01X7393866Y-2551041D01*
G01X7381573Y-2543515D01*
G01X7367943Y-2538823D01*
G01X7353622Y-2537187D01*
G01X7339285Y-2538684D01*
G01X7325611Y-2543243D01*
G01X7313244Y-2550650D01*
G01X7302771Y-2560554D01*
G01X7294685Y-2572487D01*
G01X7289368Y-2585885D01*
G01X7283368Y-2571228D01*
G01X7274064Y-2558412D01*
G01X7261986Y-2548168D01*
G01X7247824Y-2541079D01*
G01X7232384Y-2537551D01*
G01X7216549Y-2537784D01*
G01X7201220Y-2541766D01*
G01X7187273Y-2549268D01*
G01X7175502Y-2559864D01*
G01X7166579Y-2572949D01*
G01X7161014Y-2587776D01*
G01X7159122Y-2603500D01*
G01X7159122Y-2603500D01*
G01X6657256Y-2603500D01*
G01X6657460Y-2598981D01*
G01X6654750Y-2584223D01*
G01X6648792Y-2570452D01*
G01X6639891Y-2558373D01*
G01X6628502Y-2548604D01*
G01X6615209Y-2541646D01*
G01X6600691Y-2537854D01*
G01X6585693Y-2537423D01*
G01X6570982Y-2540375D01*
G01X6557311Y-2546559D01*
G01X6545380Y-2555657D01*
G01X6535800Y-2567205D01*
G01X6525922Y-2555374D01*
G01X6513580Y-2546142D01*
G01X6499440Y-2540009D01*
G01X6484266Y-2537306D01*
G01X6468878Y-2538178D01*
G01X6454107Y-2542580D01*
G01X6440751Y-2550272D01*
G01X6429531Y-2560840D01*
G01X6421054Y-2573712D01*
G01X6415778Y-2588194D01*
G01X6413987Y-2603502D01*
G01X6413987Y-2603502D01*
G01X5958628Y-2603502D01*
G01X5958672Y-2595853D01*
G01X5954907Y-2580257D01*
G01X5947507Y-2566021D01*
G01X5936905Y-2553979D01*
G01X5923721Y-2544836D01*
G01X5908726Y-2539127D01*
G01X5892800Y-2537186D01*
G01X5876874Y-2539127D01*
G01X5861879Y-2544836D01*
G01X5848695Y-2553979D01*
G01X5838093Y-2566021D01*
G01X5830693Y-2580257D01*
G01X5826928Y-2595853D01*
G01X5821786Y-2595853D01*
G01X5820788Y-2587633D01*
G01X5815119Y-2572685D01*
G01X5806038Y-2559528D01*
G01X5794071Y-2548927D01*
G01X5779916Y-2541498D01*
G01X5764394Y-2537672D01*
G01X5748407Y-2537672D01*
G01X5732885Y-2541498D01*
G01X5718730Y-2548927D01*
G01X5706764Y-2559528D01*
G01X5697683Y-2572685D01*
G01X5692014Y-2587633D01*
G01X5690087Y-2603503D01*
G01X5690087Y-2603503D01*
G01X5260132Y-2603503D01*
G01X5260189Y-2596007D01*
G01X5256479Y-2580450D01*
G01X5249153Y-2566234D01*
G01X5238636Y-2554186D01*
G01X5225540Y-2545005D01*
G01X5210627Y-2539227D01*
G01X5194765Y-2537188D01*
G01X5178876Y-2539005D01*
G01X5163883Y-2544573D01*
G01X5150660Y-2553569D01*
G01X5139975Y-2565469D01*
G01X5132450Y-2579580D01*
G01X5125329Y-2566053D01*
G01X5115299Y-2554515D01*
G01X5102894Y-2545581D01*
G01X5088772Y-2539725D01*
G01X5073685Y-2537259D01*
G01X5058433Y-2538313D01*
G01X5043829Y-2542832D01*
G01X5030647Y-2550574D01*
G01X5019589Y-2561130D01*
G01X5011241Y-2573938D01*
G01X5006049Y-2588316D01*
G01X5004287Y-2603502D01*
G01X1893137Y-2603502D01*
G01X1892467Y-2603134D01*
G01X1864559Y-2592084D01*
G01X1835487Y-2584620D01*
G01X1805708Y-2580858D01*
G01X1775692Y-2580858D01*
G01X1745913Y-2584620D01*
G01X1716841Y-2592084D01*
G01X1688933Y-2603134D01*
G01X1662630Y-2617594D01*
G01X1638347Y-2635237D01*
G01X1616466Y-2655784D01*
G01X1597334Y-2678911D01*
G01X1581250Y-2704254D01*
G01X1568470Y-2731413D01*
G01X1559195Y-2759960D01*
G01X1553571Y-2789444D01*
G01X1551686Y-2819400D01*
G01X1551686Y-2819400D01*
G01X35814Y-2819400D01*
G01X35814Y-2368906D01*
G01X390286Y-2368906D01*
G01X392205Y-2393280D01*
G01X397912Y-2417055D01*
G01X407269Y-2439644D01*
G01X420044Y-2460491D01*
G01X435923Y-2479083D01*
G01X454515Y-2494962D01*
G01X475362Y-2507737D01*
G01X497951Y-2517093D01*
G01X521725Y-2522801D01*
G01X546100Y-2524719D01*
G01X570475Y-2522801D01*
G01X594249Y-2517093D01*
G01X616838Y-2507737D01*
G01X637685Y-2494962D01*
G01X656277Y-2479083D01*
G01X672156Y-2460491D01*
G01X676902Y-2452746D01*
G01X2323793Y-2452746D01*
G01X2325720Y-2468616D01*
G01X2331389Y-2483564D01*
G01X2340471Y-2496720D01*
G01X2352437Y-2507321D01*
G01X2366592Y-2514751D01*
G01X2382114Y-2518576D01*
G01X2398101Y-2518576D01*
G01X2413623Y-2514751D01*
G01X2427778Y-2507321D01*
G01X2439744Y-2496720D01*
G01X2448826Y-2483564D01*
G01X2454495Y-2468616D01*
G01X2456422Y-2452746D01*
G01X2454495Y-2436876D01*
G01X2448826Y-2421928D01*
G01X2439744Y-2408772D01*
G01X2427778Y-2398171D01*
G01X2413623Y-2390741D01*
G01X2398101Y-2386915D01*
G01X2382114Y-2386915D01*
G01X2366592Y-2390741D01*
G01X2352437Y-2398171D01*
G01X2340471Y-2408772D01*
G01X2331389Y-2421928D01*
G01X2325720Y-2436876D01*
G01X2323793Y-2452746D01*
G01X2323793Y-2452746D01*
G01X676902Y-2452746D01*
G01X684931Y-2439644D01*
G01X694288Y-2417055D01*
G01X699995Y-2393280D01*
G01X701914Y-2368906D01*
G01X699995Y-2344531D01*
G01X694288Y-2320757D01*
G01X684931Y-2298168D01*
G01X672156Y-2277321D01*
G01X668295Y-2272800D01*
G01X1698986Y-2272800D01*
G01X1700913Y-2288670D01*
G01X1706582Y-2303617D01*
G01X1715663Y-2316774D01*
G01X1727629Y-2327375D01*
G01X1741785Y-2334804D01*
G01X1757307Y-2338630D01*
G01X1773293Y-2338630D01*
G01X1788815Y-2334804D01*
G01X1802971Y-2327375D01*
G01X1814937Y-2316774D01*
G01X1824018Y-2303617D01*
G01X1829687Y-2288670D01*
G01X1831614Y-2272800D01*
G01X1829687Y-2256930D01*
G01X1824018Y-2241982D01*
G01X1814937Y-2228825D01*
G01X1802971Y-2218224D01*
G01X1788815Y-2210795D01*
G01X1773293Y-2206969D01*
G01X1757307Y-2206969D01*
G01X1741785Y-2210795D01*
G01X1727629Y-2218224D01*
G01X1715663Y-2228825D01*
G01X1706582Y-2241982D01*
G01X1700913Y-2256930D01*
G01X1698986Y-2272800D01*
G01X1698986Y-2272800D01*
G01X668295Y-2272800D01*
G01X656277Y-2258729D01*
G01X637685Y-2242850D01*
G01X616838Y-2230075D01*
G01X594249Y-2220718D01*
G01X570475Y-2215010D01*
G01X546100Y-2213092D01*
G01X546100Y-2213092D01*
G01X521725Y-2215010D01*
G01X497951Y-2220718D01*
G01X475362Y-2230075D01*
G01X454515Y-2242850D01*
G01X435923Y-2258729D01*
G01X420044Y-2277321D01*
G01X407269Y-2298168D01*
G01X397912Y-2320757D01*
G01X392205Y-2344531D01*
G01X390286Y-2368906D01*
G01X35814Y-2368906D01*
G01X35814Y-2095500D01*
G01X11710986Y-2095500D01*
G01X11712843Y-2119092D01*
G01X11718368Y-2142104D01*
G01X11727424Y-2163968D01*
G01X11739789Y-2184146D01*
G01X11755159Y-2202141D01*
G01X11773154Y-2217511D01*
G01X11793332Y-2229876D01*
G01X11815196Y-2238932D01*
G01X11838208Y-2244457D01*
G01X11861800Y-2246314D01*
G01X11861800Y-2246314D01*
G01X11885392Y-2244457D01*
G01X11908404Y-2238932D01*
G01X11930268Y-2229876D01*
G01X11950446Y-2217511D01*
G01X11968441Y-2202141D01*
G01X11983811Y-2184146D01*
G01X11996176Y-2163968D01*
G01X12005232Y-2142104D01*
G01X12010757Y-2119092D01*
G01X12012614Y-2095500D01*
G01X12010757Y-2071908D01*
G01X12005232Y-2048896D01*
G01X11996176Y-2027032D01*
G01X11983811Y-2006854D01*
G01X11968441Y-1988859D01*
G01X11950446Y-1973489D01*
G01X11930268Y-1961124D01*
G01X11908404Y-1952068D01*
G01X11885392Y-1946543D01*
G01X11861800Y-1944686D01*
G01X11838208Y-1946543D01*
G01X11815196Y-1952068D01*
G01X11793332Y-1961124D01*
G01X11773154Y-1973489D01*
G01X11755159Y-1988859D01*
G01X11739789Y-2006854D01*
G01X11727424Y-2027032D01*
G01X11718368Y-2048896D01*
G01X11712843Y-2071908D01*
G01X11710986Y-2095500D01*
G01X35814Y-2095500D01*
G01X35814Y-1946806D01*
G01X1351373Y-1946806D01*
G01X1353300Y-1962676D01*
G01X1358969Y-1977624D01*
G01X1368051Y-1990781D01*
G01X1380017Y-2001382D01*
G01X1394172Y-2008811D01*
G01X1409694Y-2012637D01*
G01X1425681Y-2012637D01*
G01X1441203Y-2008811D01*
G01X1455358Y-2001382D01*
G01X1467324Y-1990781D01*
G01X1476406Y-1977624D01*
G01X1482075Y-1962676D01*
G01X1484002Y-1946806D01*
G01X1482075Y-1930936D01*
G01X1476406Y-1915989D01*
G01X1467324Y-1902832D01*
G01X1455358Y-1892231D01*
G01X1441203Y-1884802D01*
G01X1425681Y-1880976D01*
G01X1409694Y-1880976D01*
G01X1394172Y-1884802D01*
G01X1380017Y-1892231D01*
G01X1368051Y-1902832D01*
G01X1358969Y-1915989D01*
G01X1353300Y-1930936D01*
G01X1351373Y-1946806D01*
G01X1351373Y-1946806D01*
G01X35814Y-1946806D01*
G01X35814Y-1618894D01*
G01X390286Y-1618894D01*
G01X392205Y-1643269D01*
G01X397912Y-1667043D01*
G01X407269Y-1689632D01*
G01X420044Y-1710479D01*
G01X435923Y-1729071D01*
G01X454515Y-1744950D01*
G01X475362Y-1757725D01*
G01X497951Y-1767082D01*
G01X521725Y-1772790D01*
G01X546100Y-1774708D01*
G01X570475Y-1772790D01*
G01X594249Y-1767082D01*
G01X616838Y-1757725D01*
G01X637685Y-1744950D01*
G01X656277Y-1729071D01*
G01X672156Y-1710479D01*
G01X674406Y-1706807D01*
G01X1351381Y-1706807D01*
G01X1353308Y-1722677D01*
G01X1358977Y-1737625D01*
G01X1368059Y-1750781D01*
G01X1380025Y-1761383D01*
G01X1394180Y-1768812D01*
G01X1409702Y-1772638D01*
G01X1425689Y-1772638D01*
G01X1441211Y-1768812D01*
G01X1455366Y-1761383D01*
G01X1467332Y-1750781D01*
G01X1476414Y-1737625D01*
G01X1482083Y-1722677D01*
G01X1484009Y-1706807D01*
G01X1482083Y-1690937D01*
G01X1476414Y-1675989D01*
G01X1467332Y-1662833D01*
G01X1455366Y-1652232D01*
G01X1441211Y-1644802D01*
G01X1425689Y-1640977D01*
G01X1409702Y-1640977D01*
G01X1394180Y-1644802D01*
G01X1380025Y-1652232D01*
G01X1368059Y-1662833D01*
G01X1358977Y-1675989D01*
G01X1353308Y-1690937D01*
G01X1351381Y-1706807D01*
G01X1351381Y-1706807D01*
G01X674406Y-1706807D01*
G01X684931Y-1689632D01*
G01X694288Y-1667043D01*
G01X699995Y-1643269D01*
G01X701914Y-1618894D01*
G01X699995Y-1594520D01*
G01X694288Y-1570745D01*
G01X684931Y-1548156D01*
G01X672156Y-1527309D01*
G01X656277Y-1508717D01*
G01X637685Y-1492838D01*
G01X616838Y-1480063D01*
G01X594249Y-1470707D01*
G01X570475Y-1464999D01*
G01X546100Y-1463081D01*
G01X546100Y-1463081D01*
G01X521725Y-1464999D01*
G01X497951Y-1470707D01*
G01X475362Y-1480063D01*
G01X454515Y-1492838D01*
G01X435923Y-1508717D01*
G01X420044Y-1527309D01*
G01X407269Y-1548156D01*
G01X397912Y-1570745D01*
G01X392205Y-1594520D01*
G01X390286Y-1618894D01*
G01X35814Y-1618894D01*
G01X35814Y-1442274D01*
G01X1792067Y-1442274D01*
G01X1793994Y-1458144D01*
G01X1799663Y-1473092D01*
G01X1808744Y-1486249D01*
G01X1820710Y-1496850D01*
G01X1834866Y-1504279D01*
G01X1850388Y-1508105D01*
G01X1866374Y-1508105D01*
G01X1881896Y-1504279D01*
G01X1896052Y-1496850D01*
G01X1908018Y-1486249D01*
G01X1917099Y-1473092D01*
G01X1922768Y-1458144D01*
G01X1924695Y-1442274D01*
G01X1922768Y-1426404D01*
G01X1917099Y-1411457D01*
G01X1908018Y-1398300D01*
G01X1896052Y-1387699D01*
G01X1881896Y-1380270D01*
G01X1866374Y-1376444D01*
G01X1850388Y-1376444D01*
G01X1834866Y-1380270D01*
G01X1820710Y-1387699D01*
G01X1808744Y-1398300D01*
G01X1799663Y-1411457D01*
G01X1793994Y-1426404D01*
G01X1792067Y-1442274D01*
G01X1792067Y-1442274D01*
G01X35814Y-1442274D01*
G01X35814Y-1231899D01*
G01X3476987Y-1231899D01*
G01X3478914Y-1247769D01*
G01X3484583Y-1262716D01*
G01X3493664Y-1275873D01*
G01X3505631Y-1286474D01*
G01X3519786Y-1293903D01*
G01X3535308Y-1297729D01*
G01X3551295Y-1297729D01*
G01X3566817Y-1293903D01*
G01X3580972Y-1286474D01*
G01X3592938Y-1275873D01*
G01X3602019Y-1262716D01*
G01X3607688Y-1247769D01*
G01X3609615Y-1231899D01*
G01X3607688Y-1216029D01*
G01X3602019Y-1201081D01*
G01X3592938Y-1187924D01*
G01X3580972Y-1177323D01*
G01X3566817Y-1169894D01*
G01X3551295Y-1166068D01*
G01X3535308Y-1166068D01*
G01X3519786Y-1169894D01*
G01X3505631Y-1177323D01*
G01X3493664Y-1187924D01*
G01X3484583Y-1201081D01*
G01X3478914Y-1216029D01*
G01X3476987Y-1231899D01*
G01X3476987Y-1231899D01*
G01X35814Y-1231899D01*
G01X35814Y-675122D01*
G01X278342Y-675122D01*
G01X281012Y-698197D01*
G01X287575Y-720480D01*
G01X297839Y-741318D01*
G01X311505Y-760103D01*
G01X328172Y-776284D01*
G01X347352Y-789388D01*
G01X368485Y-799032D01*
G01X390952Y-804933D01*
G01X414096Y-806920D01*
G01X414096Y-806920D01*
G01X437240Y-804933D01*
G01X459708Y-799032D01*
G01X480840Y-789388D01*
G01X500021Y-776284D01*
G01X516687Y-760103D01*
G01X530353Y-741318D01*
G01X540617Y-720480D01*
G01X547181Y-698197D01*
G01X549851Y-675122D01*
G01X548549Y-651929D01*
G01X543315Y-629297D01*
G01X534300Y-607888D01*
G01X521768Y-588329D01*
G01X506087Y-571191D01*
G01X487715Y-556976D01*
G01X467189Y-546100D01*
G01X487715Y-535224D01*
G01X506087Y-521009D01*
G01X521768Y-503871D01*
G01X534300Y-484312D01*
G01X543315Y-462903D01*
G01X548549Y-440271D01*
G01X549851Y-417078D01*
G01X628354Y-417078D01*
G01X629655Y-440271D01*
G01X634890Y-462903D01*
G01X643905Y-484312D01*
G01X656436Y-503871D01*
G01X672117Y-521009D01*
G01X690489Y-535224D01*
G01X711015Y-546100D01*
G01X690489Y-556976D01*
G01X672117Y-571191D01*
G01X656436Y-588329D01*
G01X643905Y-607888D01*
G01X634890Y-629297D01*
G01X629655Y-651929D01*
G01X628354Y-675122D01*
G01X631024Y-698197D01*
G01X637587Y-720480D01*
G01X647851Y-741318D01*
G01X661517Y-760103D01*
G01X678184Y-776284D01*
G01X697364Y-789388D01*
G01X718497Y-799032D01*
G01X740964Y-804933D01*
G01X764108Y-806920D01*
G01X764108Y-806920D01*
G01X787252Y-804933D01*
G01X809720Y-799032D01*
G01X830852Y-789388D01*
G01X850033Y-776284D01*
G01X866699Y-760103D01*
G01X880365Y-741318D01*
G01X890629Y-720480D01*
G01X897193Y-698197D01*
G01X899863Y-675122D01*
G01X898561Y-651929D01*
G01X893327Y-629297D01*
G01X884312Y-607888D01*
G01X871780Y-588329D01*
G01X856099Y-571191D01*
G01X837727Y-556976D01*
G01X817225Y-546113D01*
G01X893285Y-546113D01*
G01X895265Y-571270D01*
G01X901156Y-595807D01*
G01X910813Y-619121D01*
G01X923998Y-640637D01*
G01X940387Y-659826D01*
G01X959575Y-676215D01*
G01X981092Y-689400D01*
G01X1004405Y-699057D01*
G01X1028943Y-704948D01*
G01X1054100Y-706928D01*
G01X1079257Y-704948D01*
G01X1103795Y-699057D01*
G01X1127108Y-689400D01*
G01X1148625Y-676215D01*
G01X1167813Y-659826D01*
G01X1184202Y-640637D01*
G01X1197387Y-619121D01*
G01X1207044Y-595807D01*
G01X1212935Y-571270D01*
G01X1214915Y-546113D01*
G01X1212935Y-520956D01*
G01X1207044Y-496418D01*
G01X1197387Y-473104D01*
G01X1184202Y-451588D01*
G01X1167813Y-432399D01*
G01X1166513Y-431288D01*
G01X1208661Y-431288D01*
G01X1212162Y-453341D01*
G01X1219229Y-474522D01*
G01X1229670Y-494259D01*
G01X1243205Y-512018D01*
G01X1259466Y-527320D01*
G01X1278015Y-539750D01*
G01X1259466Y-552180D01*
G01X1243205Y-567482D01*
G01X1229670Y-585241D01*
G01X1219229Y-604978D01*
G01X1212162Y-626159D01*
G01X1208661Y-648212D01*
G01X1208821Y-670540D01*
G01X1212637Y-692540D01*
G01X1220007Y-713618D01*
G01X1230730Y-733203D01*
G01X1244518Y-750766D01*
G01X1260997Y-765833D01*
G01X1279722Y-777997D01*
G01X1300187Y-786927D01*
G01X1321839Y-792384D01*
G01X1344092Y-794220D01*
G01X1344092Y-794220D01*
G01X1366345Y-792384D01*
G01X1387997Y-786927D01*
G01X1408462Y-777997D01*
G01X1427187Y-765833D01*
G01X1443666Y-750766D01*
G01X1457453Y-733203D01*
G01X1468177Y-713618D01*
G01X1475546Y-692540D01*
G01X1479362Y-670540D01*
G01X1479522Y-648212D01*
G01X1476022Y-626159D01*
G01X1468955Y-604978D01*
G01X1458513Y-585241D01*
G01X1444979Y-567482D01*
G01X1428717Y-552180D01*
G01X1410168Y-539750D01*
G01X1428717Y-527320D01*
G01X1444979Y-512018D01*
G01X1458513Y-494259D01*
G01X1468955Y-474522D01*
G01X1476022Y-453341D01*
G01X1479522Y-431288D01*
G01X1479421Y-417078D01*
G01X1558349Y-417078D01*
G01X1559651Y-440271D01*
G01X1564885Y-462903D01*
G01X1573900Y-484312D01*
G01X1586432Y-503871D01*
G01X1602113Y-521009D01*
G01X1620485Y-535224D01*
G01X1641011Y-546100D01*
G01X1620485Y-556976D01*
G01X1602113Y-571191D01*
G01X1586432Y-588329D01*
G01X1573900Y-607888D01*
G01X1564885Y-629297D01*
G01X1559651Y-651929D01*
G01X1558349Y-675122D01*
G01X1561019Y-698197D01*
G01X1567583Y-720480D01*
G01X1577847Y-741318D01*
G01X1591513Y-760103D01*
G01X1608179Y-776284D01*
G01X1627360Y-789388D01*
G01X1648492Y-799032D01*
G01X1670960Y-804933D01*
G01X1694104Y-806920D01*
G01X1694104Y-806920D01*
G01X1717248Y-804933D01*
G01X1739715Y-799032D01*
G01X1760848Y-789388D01*
G01X1780028Y-776284D01*
G01X1796695Y-760103D01*
G01X1810361Y-741318D01*
G01X1820625Y-720480D01*
G01X1827188Y-698197D01*
G01X1829858Y-675122D01*
G01X1828557Y-651929D01*
G01X1823322Y-629297D01*
G01X1814307Y-607888D01*
G01X1801776Y-588329D01*
G01X1786095Y-571191D01*
G01X1767723Y-556976D01*
G01X1747197Y-546100D01*
G01X1767723Y-535224D01*
G01X1786095Y-521009D01*
G01X1786378Y-520700D01*
G01X3495081Y-520700D01*
G01X3496999Y-545075D01*
G01X3502707Y-568849D01*
G01X3512063Y-591438D01*
G01X3524838Y-612285D01*
G01X3540717Y-630877D01*
G01X3559309Y-646756D01*
G01X3580156Y-659531D01*
G01X3602745Y-668888D01*
G01X3626520Y-674595D01*
G01X3650894Y-676514D01*
G01X3675269Y-674595D01*
G01X3699043Y-668888D01*
G01X3721632Y-659531D01*
G01X3742479Y-646756D01*
G01X3761071Y-630877D01*
G01X3776950Y-612285D01*
G01X3789725Y-591438D01*
G01X3799082Y-568849D01*
G01X3804790Y-545075D01*
G01X3806708Y-520700D01*
G01X4245092Y-520700D01*
G01X4247010Y-545075D01*
G01X4252718Y-568849D01*
G01X4262075Y-591438D01*
G01X4274850Y-612285D01*
G01X4290729Y-630877D01*
G01X4309321Y-646756D01*
G01X4330168Y-659531D01*
G01X4352757Y-668888D01*
G01X4376531Y-674595D01*
G01X4400906Y-676514D01*
G01X4425280Y-674595D01*
G01X4449055Y-668888D01*
G01X4471644Y-659531D01*
G01X4492491Y-646756D01*
G01X4511083Y-630877D01*
G01X4526962Y-612285D01*
G01X4539737Y-591438D01*
G01X4549093Y-568849D01*
G01X4554801Y-545075D01*
G01X4555720Y-533400D01*
G01X5145086Y-533400D01*
G01X5146943Y-556992D01*
G01X5152468Y-580004D01*
G01X5161524Y-601868D01*
G01X5173889Y-622046D01*
G01X5189259Y-640041D01*
G01X5207254Y-655411D01*
G01X5227432Y-667776D01*
G01X5249296Y-676832D01*
G01X5272308Y-682357D01*
G01X5295900Y-684214D01*
G01X5319492Y-682357D01*
G01X5342504Y-676832D01*
G01X5364368Y-667776D01*
G01X5384546Y-655411D01*
G01X5402541Y-640041D01*
G01X5417911Y-622046D01*
G01X5430276Y-601868D01*
G01X5439332Y-580004D01*
G01X5444857Y-556992D01*
G01X5446714Y-533400D01*
G01X5653086Y-533400D01*
G01X5654943Y-556992D01*
G01X5660468Y-580004D01*
G01X5669524Y-601868D01*
G01X5681889Y-622046D01*
G01X5697259Y-640041D01*
G01X5715254Y-655411D01*
G01X5735432Y-667776D01*
G01X5757296Y-676832D01*
G01X5780308Y-682357D01*
G01X5803900Y-684214D01*
G01X5827492Y-682357D01*
G01X5850504Y-676832D01*
G01X5872368Y-667776D01*
G01X5892546Y-655411D01*
G01X5910541Y-640041D01*
G01X5925911Y-622046D01*
G01X5938276Y-601868D01*
G01X5947332Y-580004D01*
G01X5952857Y-556992D01*
G01X5954714Y-533400D01*
G01X5954714Y-533400D01*
G01X5954714Y-533400D01*
G01X6161086Y-533400D01*
G01X6162943Y-556992D01*
G01X6168468Y-580004D01*
G01X6177524Y-601868D01*
G01X6189889Y-622046D01*
G01X6205259Y-640041D01*
G01X6223254Y-655411D01*
G01X6243432Y-667776D01*
G01X6265296Y-676832D01*
G01X6288308Y-682357D01*
G01X6311900Y-684214D01*
G01X6335492Y-682357D01*
G01X6358504Y-676832D01*
G01X6380368Y-667776D01*
G01X6400546Y-655411D01*
G01X6418541Y-640041D01*
G01X6433911Y-622046D01*
G01X6446276Y-601868D01*
G01X6455332Y-580004D01*
G01X6460857Y-556992D01*
G01X6462714Y-533400D01*
G01X6669086Y-533400D01*
G01X6670943Y-556992D01*
G01X6676468Y-580004D01*
G01X6685524Y-601868D01*
G01X6697889Y-622046D01*
G01X6713259Y-640041D01*
G01X6731254Y-655411D01*
G01X6751432Y-667776D01*
G01X6773296Y-676832D01*
G01X6796308Y-682357D01*
G01X6819900Y-684214D01*
G01X6843492Y-682357D01*
G01X6866504Y-676832D01*
G01X6888368Y-667776D01*
G01X6908546Y-655411D01*
G01X6926541Y-640041D01*
G01X6941911Y-622046D01*
G01X6954276Y-601868D01*
G01X6963332Y-580004D01*
G01X6968857Y-556992D01*
G01X6970714Y-533400D01*
G01X6970714Y-533400D01*
G01X6969714Y-520700D01*
G01X8091486Y-520700D01*
G01X8093343Y-544292D01*
G01X8098868Y-567304D01*
G01X8107924Y-589168D01*
G01X8120289Y-609346D01*
G01X8135659Y-627341D01*
G01X8153654Y-642711D01*
G01X8173832Y-655076D01*
G01X8195696Y-664132D01*
G01X8218708Y-669657D01*
G01X8242300Y-671514D01*
G01X8265892Y-669657D01*
G01X8288904Y-664132D01*
G01X8310768Y-655076D01*
G01X8330946Y-642711D01*
G01X8348941Y-627341D01*
G01X8364311Y-609346D01*
G01X8376676Y-589168D01*
G01X8385732Y-567304D01*
G01X8391257Y-544292D01*
G01X8393114Y-520700D01*
G01X8599486Y-520700D01*
G01X8601343Y-544292D01*
G01X8606868Y-567304D01*
G01X8615924Y-589168D01*
G01X8628289Y-609346D01*
G01X8643659Y-627341D01*
G01X8661654Y-642711D01*
G01X8681832Y-655076D01*
G01X8703696Y-664132D01*
G01X8726708Y-669657D01*
G01X8750300Y-671514D01*
G01X8773892Y-669657D01*
G01X8796904Y-664132D01*
G01X8818768Y-655076D01*
G01X8838946Y-642711D01*
G01X8856941Y-627341D01*
G01X8872311Y-609346D01*
G01X8884676Y-589168D01*
G01X8893732Y-567304D01*
G01X8899257Y-544292D01*
G01X8901114Y-520700D01*
G01X8901114Y-520700D01*
G01X9107486Y-520700D01*
G01X9109343Y-544292D01*
G01X9114868Y-567304D01*
G01X9123924Y-589168D01*
G01X9136289Y-609346D01*
G01X9151659Y-627341D01*
G01X9169654Y-642711D01*
G01X9189832Y-655076D01*
G01X9211696Y-664132D01*
G01X9234708Y-669657D01*
G01X9258300Y-671514D01*
G01X9281892Y-669657D01*
G01X9304904Y-664132D01*
G01X9326768Y-655076D01*
G01X9346946Y-642711D01*
G01X9364941Y-627341D01*
G01X9380311Y-609346D01*
G01X9392676Y-589168D01*
G01X9401732Y-567304D01*
G01X9407257Y-544292D01*
G01X9409114Y-520700D01*
G01X9615486Y-520700D01*
G01X9617343Y-544292D01*
G01X9622868Y-567304D01*
G01X9631924Y-589168D01*
G01X9644289Y-609346D01*
G01X9659659Y-627341D01*
G01X9677654Y-642711D01*
G01X9697832Y-655076D01*
G01X9719696Y-664132D01*
G01X9742708Y-669657D01*
G01X9766300Y-671514D01*
G01X9789892Y-669657D01*
G01X9812904Y-664132D01*
G01X9834768Y-655076D01*
G01X9854946Y-642711D01*
G01X9872941Y-627341D01*
G01X9888311Y-609346D01*
G01X9900676Y-589168D01*
G01X9909732Y-567304D01*
G01X9915257Y-544292D01*
G01X9917114Y-520700D01*
G01X9917114Y-520700D01*
G01X9915257Y-497108D01*
G01X9909732Y-474096D01*
G01X9900676Y-452232D01*
G01X9888311Y-432054D01*
G01X9872941Y-414059D01*
G01X9854946Y-398689D01*
G01X9834768Y-386324D01*
G01X9812904Y-377268D01*
G01X9789892Y-371743D01*
G01X9766300Y-369886D01*
G01X9742708Y-371743D01*
G01X9719696Y-377268D01*
G01X9697832Y-386324D01*
G01X9677654Y-398689D01*
G01X9659659Y-414059D01*
G01X9644289Y-432054D01*
G01X9631924Y-452232D01*
G01X9622868Y-474096D01*
G01X9617343Y-497108D01*
G01X9615486Y-520700D01*
G01X9409114Y-520700D01*
G01X9409114Y-520700D01*
G01X9409114Y-520700D01*
G01X9407257Y-497108D01*
G01X9401732Y-474096D01*
G01X9392676Y-452232D01*
G01X9380311Y-432054D01*
G01X9364941Y-414059D01*
G01X9346946Y-398689D01*
G01X9326768Y-386324D01*
G01X9304904Y-377268D01*
G01X9281892Y-371743D01*
G01X9258300Y-369886D01*
G01X9234708Y-371743D01*
G01X9211696Y-377268D01*
G01X9189832Y-386324D01*
G01X9169654Y-398689D01*
G01X9151659Y-414059D01*
G01X9136289Y-432054D01*
G01X9123924Y-452232D01*
G01X9114868Y-474096D01*
G01X9109343Y-497108D01*
G01X9107486Y-520700D01*
G01X8901114Y-520700D01*
G01X8899257Y-497108D01*
G01X8893732Y-474096D01*
G01X8884676Y-452232D01*
G01X8872311Y-432054D01*
G01X8856941Y-414059D01*
G01X8838946Y-398689D01*
G01X8818768Y-386324D01*
G01X8796904Y-377268D01*
G01X8773892Y-371743D01*
G01X8750300Y-369886D01*
G01X8726708Y-371743D01*
G01X8703696Y-377268D01*
G01X8681832Y-386324D01*
G01X8661654Y-398689D01*
G01X8643659Y-414059D01*
G01X8628289Y-432054D01*
G01X8615924Y-452232D01*
G01X8606868Y-474096D01*
G01X8601343Y-497108D01*
G01X8599486Y-520700D01*
G01X8393114Y-520700D01*
G01X8393114Y-520700D01*
G01X8393114Y-520700D01*
G01X8391257Y-497108D01*
G01X8385732Y-474096D01*
G01X8376676Y-452232D01*
G01X8364311Y-432054D01*
G01X8348941Y-414059D01*
G01X8330946Y-398689D01*
G01X8310768Y-386324D01*
G01X8288904Y-377268D01*
G01X8265892Y-371743D01*
G01X8242300Y-369886D01*
G01X8218708Y-371743D01*
G01X8195696Y-377268D01*
G01X8173832Y-386324D01*
G01X8153654Y-398689D01*
G01X8135659Y-414059D01*
G01X8120289Y-432054D01*
G01X8107924Y-452232D01*
G01X8098868Y-474096D01*
G01X8093343Y-497108D01*
G01X8091486Y-520700D01*
G01X6969714Y-520700D01*
G01X6968857Y-509808D01*
G01X6963332Y-486796D01*
G01X6954276Y-464932D01*
G01X6941911Y-444754D01*
G01X6926541Y-426759D01*
G01X6908546Y-411389D01*
G01X6888368Y-399024D01*
G01X6866504Y-389968D01*
G01X6843492Y-384443D01*
G01X6819900Y-382586D01*
G01X6796308Y-384443D01*
G01X6773296Y-389968D01*
G01X6751432Y-399024D01*
G01X6731254Y-411389D01*
G01X6713259Y-426759D01*
G01X6697889Y-444754D01*
G01X6685524Y-464932D01*
G01X6676468Y-486796D01*
G01X6670943Y-509808D01*
G01X6669086Y-533400D01*
G01X6462714Y-533400D01*
G01X6462714Y-533400D01*
G01X6462714Y-533400D01*
G01X6460857Y-509808D01*
G01X6455332Y-486796D01*
G01X6446276Y-464932D01*
G01X6433911Y-444754D01*
G01X6418541Y-426759D01*
G01X6400546Y-411389D01*
G01X6380368Y-399024D01*
G01X6358504Y-389968D01*
G01X6335492Y-384443D01*
G01X6311900Y-382586D01*
G01X6288308Y-384443D01*
G01X6265296Y-389968D01*
G01X6243432Y-399024D01*
G01X6223254Y-411389D01*
G01X6205259Y-426759D01*
G01X6189889Y-444754D01*
G01X6177524Y-464932D01*
G01X6168468Y-486796D01*
G01X6162943Y-509808D01*
G01X6161086Y-533400D01*
G01X5954714Y-533400D01*
G01X5952857Y-509808D01*
G01X5947332Y-486796D01*
G01X5938276Y-464932D01*
G01X5925911Y-444754D01*
G01X5910541Y-426759D01*
G01X5892546Y-411389D01*
G01X5872368Y-399024D01*
G01X5850504Y-389968D01*
G01X5827492Y-384443D01*
G01X5803900Y-382586D01*
G01X5780308Y-384443D01*
G01X5757296Y-389968D01*
G01X5735432Y-399024D01*
G01X5715254Y-411389D01*
G01X5697259Y-426759D01*
G01X5681889Y-444754D01*
G01X5669524Y-464932D01*
G01X5660468Y-486796D01*
G01X5654943Y-509808D01*
G01X5653086Y-533400D01*
G01X5446714Y-533400D01*
G01X5446714Y-533400D01*
G01X5446714Y-533400D01*
G01X5444857Y-509808D01*
G01X5439332Y-486796D01*
G01X5430276Y-464932D01*
G01X5417911Y-444754D01*
G01X5402541Y-426759D01*
G01X5384546Y-411389D01*
G01X5364368Y-399024D01*
G01X5342504Y-389968D01*
G01X5319492Y-384443D01*
G01X5295900Y-382586D01*
G01X5272308Y-384443D01*
G01X5249296Y-389968D01*
G01X5227432Y-399024D01*
G01X5207254Y-411389D01*
G01X5189259Y-426759D01*
G01X5173889Y-444754D01*
G01X5161524Y-464932D01*
G01X5152468Y-486796D01*
G01X5146943Y-509808D01*
G01X5145086Y-533400D01*
G01X4555720Y-533400D01*
G01X4556719Y-520700D01*
G01X4556719Y-520700D01*
G01X4554801Y-496325D01*
G01X4549093Y-472551D01*
G01X4539737Y-449962D01*
G01X4526962Y-429115D01*
G01X4511083Y-410523D01*
G01X4492491Y-394644D01*
G01X4471644Y-381869D01*
G01X4449055Y-372512D01*
G01X4425280Y-366805D01*
G01X4400906Y-364886D01*
G01X4376531Y-366805D01*
G01X4352757Y-372512D01*
G01X4330168Y-381869D01*
G01X4309321Y-394644D01*
G01X4290729Y-410523D01*
G01X4274850Y-429115D01*
G01X4262075Y-449962D01*
G01X4252718Y-472551D01*
G01X4247010Y-496325D01*
G01X4245092Y-520700D01*
G01X3806708Y-520700D01*
G01X3806708Y-520700D01*
G01X3806708Y-520700D01*
G01X3804790Y-496325D01*
G01X3799082Y-472551D01*
G01X3789725Y-449962D01*
G01X3776950Y-429115D01*
G01X3761071Y-410523D01*
G01X3742479Y-394644D01*
G01X3721632Y-381869D01*
G01X3699043Y-372512D01*
G01X3675269Y-366805D01*
G01X3650894Y-364886D01*
G01X3626520Y-366805D01*
G01X3602745Y-372512D01*
G01X3580156Y-381869D01*
G01X3559309Y-394644D01*
G01X3540717Y-410523D01*
G01X3524838Y-429115D01*
G01X3512063Y-449962D01*
G01X3502707Y-472551D01*
G01X3496999Y-496325D01*
G01X3495081Y-520700D01*
G01X1786378Y-520700D01*
G01X1801776Y-503871D01*
G01X1814307Y-484312D01*
G01X1823322Y-462903D01*
G01X1828557Y-440271D01*
G01X1829858Y-417078D01*
G01X1827188Y-394003D01*
G01X1820625Y-371720D01*
G01X1810361Y-350882D01*
G01X1796695Y-332097D01*
G01X1780028Y-315916D01*
G01X1763758Y-304800D01*
G01X11838686Y-304800D01*
G01X11840571Y-334756D01*
G01X11846195Y-364240D01*
G01X11855470Y-392787D01*
G01X11868250Y-419946D01*
G01X11884334Y-445289D01*
G01X11903466Y-468416D01*
G01X11925347Y-488963D01*
G01X11949630Y-506606D01*
G01X11975933Y-521066D01*
G01X12003841Y-532116D01*
G01X12032913Y-539580D01*
G01X12062692Y-543342D01*
G01X12092708Y-543342D01*
G01X12122487Y-539580D01*
G01X12151559Y-532116D01*
G01X12179467Y-521066D01*
G01X12205770Y-506606D01*
G01X12230053Y-488963D01*
G01X12251934Y-468416D01*
G01X12271066Y-445289D01*
G01X12287150Y-419946D01*
G01X12299930Y-392787D01*
G01X12309205Y-364240D01*
G01X12314829Y-334756D01*
G01X12316714Y-304800D01*
G01X12314829Y-274844D01*
G01X12309205Y-245360D01*
G01X12299930Y-216813D01*
G01X12287150Y-189654D01*
G01X12271066Y-164311D01*
G01X12251934Y-141184D01*
G01X12230053Y-120637D01*
G01X12205770Y-102994D01*
G01X12179467Y-88534D01*
G01X12151559Y-77484D01*
G01X12122487Y-70020D01*
G01X12092708Y-66258D01*
G01X12062692Y-66258D01*
G01X12032913Y-70020D01*
G01X12003841Y-77484D01*
G01X11975933Y-88534D01*
G01X11949630Y-102994D01*
G01X11925347Y-120637D01*
G01X11903466Y-141184D01*
G01X11884334Y-164311D01*
G01X11868250Y-189654D01*
G01X11855470Y-216813D01*
G01X11846195Y-245360D01*
G01X11840571Y-274844D01*
G01X11838686Y-304800D01*
G01X11838686Y-304800D01*
G01X1763758Y-304800D01*
G01X1760848Y-302812D01*
G01X1739715Y-293168D01*
G01X1717248Y-287267D01*
G01X1694104Y-285280D01*
G01X1670960Y-287267D01*
G01X1648492Y-293168D01*
G01X1627360Y-302812D01*
G01X1608179Y-315916D01*
G01X1591513Y-332097D01*
G01X1577847Y-350882D01*
G01X1567583Y-371720D01*
G01X1561019Y-394003D01*
G01X1558349Y-417078D01*
G01X1479421Y-417078D01*
G01X1479362Y-408960D01*
G01X1475546Y-386960D01*
G01X1468177Y-365882D01*
G01X1457453Y-346297D01*
G01X1443666Y-328734D01*
G01X1427187Y-313667D01*
G01X1408462Y-301503D01*
G01X1387997Y-292573D01*
G01X1366345Y-287116D01*
G01X1344092Y-285280D01*
G01X1321839Y-287116D01*
G01X1300187Y-292573D01*
G01X1279722Y-301503D01*
G01X1260997Y-313667D01*
G01X1244518Y-328734D01*
G01X1230730Y-346297D01*
G01X1220007Y-365882D01*
G01X1212637Y-386960D01*
G01X1208821Y-408960D01*
G01X1208661Y-431288D01*
G01X1166513Y-431288D01*
G01X1148625Y-416011D01*
G01X1127108Y-402825D01*
G01X1103795Y-393169D01*
G01X1079257Y-387278D01*
G01X1054100Y-385298D01*
G01X1028943Y-387278D01*
G01X1004405Y-393169D01*
G01X981092Y-402825D01*
G01X959575Y-416011D01*
G01X940387Y-432399D01*
G01X923998Y-451588D01*
G01X910813Y-473104D01*
G01X901156Y-496418D01*
G01X895265Y-520956D01*
G01X893285Y-546113D01*
G01X893285Y-546113D01*
G01X817225Y-546113D01*
G01X817201Y-546100D01*
G01X837727Y-535224D01*
G01X856099Y-521009D01*
G01X871780Y-503871D01*
G01X884312Y-484312D01*
G01X893327Y-462903D01*
G01X898561Y-440271D01*
G01X899863Y-417078D01*
G01X897193Y-394003D01*
G01X890629Y-371720D01*
G01X880365Y-350882D01*
G01X866699Y-332097D01*
G01X850033Y-315916D01*
G01X830852Y-302812D01*
G01X809720Y-293168D01*
G01X787252Y-287267D01*
G01X764108Y-285280D01*
G01X740964Y-287267D01*
G01X718497Y-293168D01*
G01X697364Y-302812D01*
G01X678184Y-315916D01*
G01X661517Y-332097D01*
G01X647851Y-350882D01*
G01X637587Y-371720D01*
G01X631024Y-394003D01*
G01X628354Y-417078D01*
G01X549851Y-417078D01*
G01X549851Y-417078D01*
G01X547181Y-394003D01*
G01X540617Y-371720D01*
G01X530353Y-350882D01*
G01X516687Y-332097D01*
G01X500021Y-315916D01*
G01X480840Y-302812D01*
G01X459708Y-293168D01*
G01X437240Y-287267D01*
G01X414096Y-285280D01*
G01X390952Y-287267D01*
G01X368485Y-293168D01*
G01X347352Y-302812D01*
G01X328172Y-315916D01*
G01X311505Y-332097D01*
G01X297839Y-350882D01*
G01X287575Y-371720D01*
G01X281012Y-394003D01*
G01X278342Y-417078D01*
G01X279643Y-440271D01*
G01X284878Y-462903D01*
G01X293893Y-484312D01*
G01X306424Y-503871D01*
G01X322105Y-521009D01*
G01X340477Y-535224D01*
G01X361003Y-546100D01*
G01X340477Y-556976D01*
G01X322105Y-571191D01*
G01X306424Y-588329D01*
G01X293893Y-607888D01*
G01X284878Y-629297D01*
G01X279643Y-651929D01*
G01X278342Y-675122D01*
G01X35814Y-675122D01*
G01X35814Y-254000D01*
G37*
G54D10*
G01X35814Y-254000D02*
G02X254000Y-35814I218186J0D01*
G01X12141200Y-35814D01*
G02X12359386Y-254000I0J-218186D01*
G01X12359386Y-10985500D01*
G02X12141200Y-11203686I-218186J0D01*
G01X254000Y-11203686D01*
G02X35814Y-10985500I0J218186D01*
G01X35814Y-254000D01*
G01X124938Y-10795000D02*
G03X602966Y-10795000I239014J0D01*
G03X124938Y-10795000I-239014J0D01*
G01X414096Y-806920D02*
G03X467189Y-546100I0J135814D01*
G03X414096Y-285280I-53093J125006D01*
G03X361003Y-546100I0J-135814D01*
G03X414096Y-806920I53093J-125006D01*
G01X520700Y-5119686D02*
G03X520700Y-5421314I0J-150814D01*
G03X520700Y-5119686I0J150814D01*
G01X520700Y-6135686D02*
G03X520700Y-6437314I0J-150814D01*
G03X520700Y-6135686I0J150814D01*
G01X520700Y-4611686D02*
G03X520700Y-4913314I0J-150814D01*
G03X520700Y-4611686I0J150814D01*
G01X520700Y-5627686D02*
G03X520700Y-5929314I0J-150814D01*
G03X520700Y-5627686I0J150814D01*
G01X533400Y-8332786D02*
G03X533400Y-8634414I0J-150814D01*
G03X533400Y-8332786I0J150814D01*
G01X533400Y-7824786D02*
G03X533400Y-8126414I0J-150814D01*
G03X533400Y-7824786I0J150814D01*
G01X533400Y-3951286D02*
G03X533400Y-4252914I0J-150814D01*
G03X533400Y-3951286I0J150814D01*
G01X533400Y-7316786D02*
G03X533400Y-7618414I0J-150814D01*
G03X533400Y-7316786I0J150814D01*
G01X533400Y-6808786D02*
G03X533400Y-7110414I0J-150814D01*
G03X533400Y-6808786I0J150814D01*
G01X533400Y-3443286D02*
G03X533400Y-3744914I0J-150814D01*
G03X533400Y-3443286I0J150814D01*
G01X546100Y-2213092D02*
G03X546100Y-2524719I0J-155814D01*
G03X546100Y-2213092I0J155814D01*
G01X546100Y-1463081D02*
G03X546100Y-1774708I0J-155814D01*
G03X546100Y-1463081I0J155814D01*
G01X467086Y-3853627D02*
G03X599714Y-3853627I66314J0D01*
G03X467086Y-3853627I-66314J0D01*
G01X764108Y-806920D02*
G03X817201Y-546100I0J135814D01*
G03X764108Y-285280I-53093J125006D01*
G03X711015Y-546100I0J-135814D01*
G03X764108Y-806920I53093J-125006D01*
G01X893285Y-546113D02*
G03X1214915Y-546113I160815J0D01*
G03X893285Y-546113I-160815J0D01*
G01X1344092Y-794220D02*
G03X1410168Y-539750I0J135814D01*
G03X1344092Y-285280I-66077J118656D01*
G03X1278015Y-539750I0J-135814D01*
G03X1344092Y-794220I66077J-118656D01*
G01X1241786Y-8327898D02*
G03X1374414Y-8327898I66314J0D01*
G03X1241786Y-8327898I-66314J0D01*
G01X1241786Y-7824064D02*
G03X1374414Y-7824064I66314J0D01*
G03X1241786Y-7824064I-66314J0D01*
G01X1241786Y-5626964D02*
G03X1374414Y-5626964I66314J0D01*
G03X1241786Y-5626964I-66314J0D01*
G01X1241787Y-6130799D02*
G03X1374415Y-6130799I66314J0D01*
G03X1241787Y-6130799I-66314J0D01*
G01X1241787Y-7362699D02*
G03X1374415Y-7362699I66314J0D01*
G03X1241787Y-7362699I-66314J0D01*
G01X1241787Y-4606799D02*
G03X1374415Y-4606799I66314J0D01*
G03X1241787Y-4606799I-66314J0D01*
G01X1241787Y-5114799D02*
G03X1374415Y-5114799I66314J0D01*
G03X1241787Y-5114799I-66314J0D01*
G01X1244569Y-6809283D02*
G03X1377197Y-6809283I66314J0D01*
G03X1244569Y-6809283I-66314J0D01*
G01X1351373Y-1946806D02*
G03X1484002Y-1946806I66314J0D01*
G03X1351373Y-1946806I-66314J0D01*
G01X1351381Y-1706807D02*
G03X1484009Y-1706807I66314J0D01*
G03X1351381Y-1706807I-66314J0D01*
G01X1551686Y-2819400D02*
G03X2029714Y-2819400I239014J0D01*
G03X1551686Y-2819400I-239014J0D01*
G01X1694104Y-806920D02*
G03X1747197Y-546100I0J135814D01*
G03X1694104Y-285280I-53093J125006D01*
G03X1641011Y-546100I0J-135814D01*
G03X1694104Y-806920I53093J-125006D01*
G01X1698986Y-2272800D02*
G03X1831614Y-2272800I66314J0D01*
G03X1698986Y-2272800I-66314J0D01*
G01X1711683Y-6203798D02*
G03X1844310Y-6203798I66314J0D01*
G03X1711683Y-6203798I-66314J0D01*
G01X1724386Y-4908702D02*
G03X1857014Y-4908702I66314J0D01*
G03X1724386Y-4908702I-66314J0D01*
G01X1737086Y-8629802D02*
G03X1869714Y-8629802I66314J0D01*
G03X1737086Y-8629802I-66314J0D01*
G01X1737086Y-5924702D02*
G03X1869714Y-5924702I66314J0D01*
G03X1737086Y-5924702I-66314J0D01*
G01X1737086Y-6420002D02*
G03X1869714Y-6420002I66314J0D01*
G03X1737086Y-6420002I-66314J0D01*
G01X1737086Y-7105802D02*
G03X1869714Y-7105802I66314J0D01*
G03X1737086Y-7105802I-66314J0D01*
G01X1737086Y-8121802D02*
G03X1869714Y-8121802I66314J0D01*
G03X1737086Y-8121802I-66314J0D01*
G01X1737086Y-7664602D02*
G03X1869714Y-7664602I66314J0D01*
G03X1737086Y-7664602I-66314J0D01*
G01X1737086Y-5416702D02*
G03X1869714Y-5416702I66314J0D01*
G03X1737086Y-5416702I-66314J0D01*
G01X1792067Y-1442274D02*
G03X1924695Y-1442274I66314J0D01*
G03X1792067Y-1442274I-66314J0D01*
G01X1813282Y-6102198D02*
G03X1945910Y-6102198I66314J0D01*
G03X1813282Y-6102198I-66314J0D01*
G01X2295886Y-7785100D02*
G03X2428514Y-7785100I66314J0D01*
G03X2295886Y-7785100I-66314J0D01*
G01X2323793Y-2452746D02*
G03X2456422Y-2452746I66314J0D01*
G03X2323793Y-2452746I-66314J0D01*
G01X3262265Y-5478089D02*
G03X3150488Y-5429813I-66314J0D01*
G01X2708016Y-5429813D01*
G03X2596238Y-5478089I-45463J-48277D01*
G03X2708016Y-5526366I66314J0D01*
G01X3150488Y-5526366D01*
G03X3262265Y-5478089I45463J48277D01*
G01X2712210Y-7660386D02*
G03X2687758Y-7645919I-45210J-48514D01*
G03X2718645Y-7629684I-14323J64749D01*
G01X3328130Y-7629684D01*
G03X3362435Y-7615474I0J48514D01*
G01X5323636Y-5654273D01*
G03X5368191Y-5541109I-2336J66273D01*
G03X5255027Y-5585664I-46891J-46891D01*
G01X3308035Y-7532656D01*
G01X2718645Y-7532656D01*
G03X2616362Y-7547402I-45210J-48514D01*
G03X2652677Y-7644151I57073J-33768D01*
G03X2608301Y-7739754I14323J-64749D01*
G03X2712210Y-7757414I58699J30854D01*
G01X3429000Y-7757414D01*
G03X3463305Y-7743205I0J48514D01*
G01X5437936Y-5768573D01*
G03X5482491Y-5655409I-2336J66273D01*
G03X5369327Y-5699964I-46891J-46891D01*
G01X3408905Y-7660386D01*
G01X2712210Y-7660386D01*
G01X3151236Y-7410055D02*
G01X2804409Y-7410055D01*
G03X2692885Y-7458569I-45210J-48514D01*
G03X2804409Y-7507083I66314J0D01*
G01X3171331Y-7507083D01*
G03X3205636Y-7492874I0J48514D01*
G01X5183936Y-5514573D01*
G03X5228491Y-5401409I-2336J66273D01*
G03X5115327Y-5445964I-46891J-46891D01*
G01X3151236Y-7410055D01*
G01X2943586Y-3320186D02*
G03X3076214Y-3320186I66314J0D01*
G03X2943586Y-3320186I-66314J0D01*
G01X3000584Y-7239000D02*
G03X3133212Y-7239000I66314J0D01*
G03X3000584Y-7239000I-66314J0D01*
G01X3000584Y-5041900D02*
G03X3133212Y-5041900I66314J0D01*
G03X3000584Y-5041900I-66314J0D01*
G01X3140588Y-7239000D02*
G03X3273216Y-7239000I66314J0D01*
G03X3140588Y-7239000I-66314J0D01*
G01X3140588Y-5041900D02*
G03X3273216Y-5041900I66314J0D01*
G03X3140588Y-5041900I-66314J0D01*
G01X3517900Y-3464286D02*
G03X3460750Y-3496963I0J-66314D01*
G03X3364355Y-3477145I-57150J-33637D01*
G03X3354389Y-3575050I39245J-53455D01*
G03X3364355Y-3672955I49211J-44450D01*
G03X3460750Y-3653137I39245J53455D01*
G03X3517900Y-3685814I57150J33637D01*
G03X3575050Y-3653137I0J66314D01*
G03X3671445Y-3672955I57150J33637D01*
G03X3681411Y-3575050I-39245J53455D01*
G03X3671445Y-3477145I-49211J44450D01*
G03X3575050Y-3496963I-39245J-53455D01*
G03X3517900Y-3464286I-57150J-33637D01*
G01X3476987Y-1231899D02*
G03X3609615Y-1231899I66314J0D01*
G03X3476987Y-1231899I-66314J0D01*
G01X3806708Y-520700D02*
G03X3495081Y-520700I-155814J0D01*
G03X3806708Y-520700I155814J0D01*
G01X4023086Y-3320186D02*
G03X4155714Y-3320186I66314J0D01*
G03X4023086Y-3320186I-66314J0D01*
G01X4556719Y-520700D02*
G03X4245092Y-520700I-155814J0D01*
G03X4556719Y-520700I155814J0D01*
G01X5194300Y-2746014D02*
G03X5248577Y-2641600I0J66314D01*
G03X5225540Y-2545005I-54277J38100D01*
G03X5132450Y-2579580I-31240J-58495D01*
G03X5004287Y-2603502I-61849J-23921D01*
G03X5132451Y-2627421I66314J1D01*
G03X5140023Y-2641600I61849J23921D01*
G03X5194300Y-2746014I54277J-38100D01*
G01X5446714Y-533400D02*
G03X5145086Y-533400I-150814J0D01*
G03X5446714Y-533400I150814J0D01*
G01X5954714Y-533400D02*
G03X5653086Y-533400I-150814J0D01*
G03X5954714Y-533400I150814J0D01*
G01X5690087Y-2603503D02*
G03X5822715Y-2603503I66314J0D01*
G03X5690087Y-2603503I-66314J0D01*
G01X5738443Y-4584700D02*
G03X5871071Y-4584700I66314J0D01*
G03X5738443Y-4584700I-66314J0D01*
G01X5892800Y-2746014D02*
G03X5947077Y-2641600I0J66314D01*
G03X5892800Y-2537186I-54277J38100D01*
G03X5838523Y-2641600I0J-66314D01*
G03X5892800Y-2746014I54277J-38100D01*
G01X6244653Y-5702374D02*
G03X6258496Y-5812797I42715J-50725D01*
G03X6353652Y-5755088I28872J59699D01*
G01X6500836Y-5607904D01*
G03X6524132Y-5651499I65921J7205D01*
G03X6523944Y-5752941I42625J-50800D01*
G03X6574155Y-5865754I47212J-46567D01*
G03X6613969Y-5748866I-2999J66246D01*
G03X6609382Y-5651499I-47212J46567D01*
G03X6631300Y-5585475I-42625J50800D01*
G01X6642967Y-5585475D01*
G03X6677103Y-5571336I0J48277D01*
G01X7508554Y-4739885D01*
G03X7553456Y-4626710I-1989J66284D01*
G03X7440281Y-4671612I-46891J-46891D01*
G01X6698929Y-5412963D01*
G03X6681283Y-5374696I-65922J-7196D01*
G01X6681283Y-4957623D01*
G03X6633007Y-4845846I-48277J45463D01*
G03X6584730Y-4957623I0J-66314D01*
G01X6584730Y-5374696D01*
G03X6625811Y-5486081I48277J-45463D01*
G01X6622970Y-5488922D01*
G01X6503267Y-5488922D01*
G03X6469130Y-5503062I0J-48277D01*
G01X6348223Y-5623970D01*
G03X6290350Y-5586219I-59862J-28533D01*
G01X5992734Y-5288602D01*
G01X5992734Y-4490463D01*
G03X5944457Y-4378686I-48277J45463D01*
G03X5896181Y-4490463I0J-66314D01*
G01X5896181Y-5308599D01*
G03X5910321Y-5342735I48277J0D01*
G01X6222077Y-5654492D01*
G03X6244653Y-5702374I66284J1989D01*
G01X6030543Y-4356100D02*
G03X6163171Y-4356100I66314J0D01*
G03X6030543Y-4356100I-66314J0D01*
G01X6462714Y-533400D02*
G03X6161086Y-533400I-150814J0D01*
G03X6462714Y-533400I150814J0D01*
G01X6212586Y-7607300D02*
G03X6690614Y-7607300I239014J0D01*
G03X6212586Y-7607300I-239014J0D01*
G01X6413987Y-2603502D02*
G03X6535801Y-2639796I66314J1D01*
G01X6537023Y-2641600D01*
G03X6591300Y-2746014I54277J-38100D01*
G03X6645577Y-2641600I0J66314D01*
G03X6628502Y-2548604I-54277J38100D01*
G03X6535800Y-2567205I-37202J-54896D01*
G03X6413987Y-2603502I-55499J-36296D01*
G01X6515957Y-5235214D02*
G03X6564234Y-5123436I0J66314D01*
G01X6564234Y-4196163D01*
G03X6548272Y-4076854I-35577J55963D01*
G03X6467680Y-4166266I-19615J-63347D01*
G01X6467680Y-5123436D01*
G03X6515957Y-5235214I48277J-45463D01*
G01X6468370Y-10917777D02*
G01X6468370Y-10977777D01*
G03X6659997Y-10977777I95814J0D01*
G01X6659997Y-10917777D01*
G03X6468370Y-10917777I-95814J0D01*
G01X6473370Y-10482763D02*
G01X6473370Y-10572762D01*
G03X6645383Y-10613430I90814J0D01*
G03X6762020Y-10625207I62311J33648D01*
G03X6729778Y-10512498I-54326J45425D01*
G03X6721587Y-10423977I-53098J39727D01*
G03X6632691Y-10423148I-44907J-48795D01*
G03X6473370Y-10482763I-68507J-59615D01*
G01X6516673Y-6092478D02*
G03X6649301Y-6092478I66314J0D01*
G03X6516673Y-6092478I-66314J0D01*
G01X6970714Y-533400D02*
G03X6669086Y-533400I-150814J0D01*
G03X6970714Y-533400I150814J0D01*
G01X6772482Y-4749801D02*
G03X6905110Y-4749801I66314J0D01*
G03X6772482Y-4749801I-66314J0D01*
G01X6772482Y-4927600D02*
G03X6905110Y-4927600I66314J0D01*
G03X6772482Y-4927600I-66314J0D01*
G01X6842072Y-6087750D02*
G03X6974700Y-6087750I66314J0D01*
G03X6842072Y-6087750I-66314J0D01*
G01X6875015Y-5807317D02*
G03X6988190Y-5762415I46891J46891D01*
G01X7021897Y-5728709D01*
G03X7151690Y-5711615I63509J19083D01*
G01X8484392Y-4378913D01*
G03X8529294Y-4265738I-1989J66284D01*
G03X8416119Y-4310640I-46891J-46891D01*
G01X7645814Y-5080945D01*
G03X7573647Y-5034281I-63509J-19083D01*
G03X7516021Y-5098038I8659J-65746D01*
G01X7473737Y-5140321D01*
G03X7371094Y-5129336I-55752J-35906D01*
G03X7382080Y-5231979I46891J-46891D01*
G01X7013928Y-5600131D01*
G03X6901195Y-5561135I-65842J-7896D01*
G03X6940190Y-5673869I46891J-46891D01*
G01X6919917Y-5694142D01*
G03X6875015Y-5807317I1989J-66284D01*
G01X6912482Y-4749801D02*
G03X7045110Y-4749801I66314J0D01*
G03X6912482Y-4749801I-66314J0D01*
G01X6912482Y-4927600D02*
G03X7045110Y-4927600I66314J0D01*
G03X6912482Y-4927600I-66314J0D01*
G01X6944086Y-10043751D02*
G03X7076714Y-10043751I66314J0D01*
G03X6944086Y-10043751I-66314J0D01*
G01X7058914Y-10321459D02*
G03X7010400Y-10209935I-48514J45210D01*
G03X6961886Y-10321459I0J-66314D01*
G01X6961886Y-10452100D01*
G03X6976095Y-10486405I48514J0D01*
G01X7109227Y-10619536D01*
G03X7168366Y-10683129I66273J2336D01*
G03X7239739Y-10633659I7134J65929D01*
G03X7347993Y-10613454I45957J53877D01*
G03X7519994Y-10572762I81187J40692D01*
G01X7519994Y-10482763D01*
G03X7360674Y-10423147I-90814J0D01*
G03X7271774Y-10423978I-43990J-49623D01*
G03X7263592Y-10512505I44910J-48792D01*
G03X7216435Y-10565028I22104J-67277D01*
G03X7177836Y-10550927I-40935J-52172D01*
G01X7058914Y-10432005D01*
G01X7058914Y-10321459D01*
G01X7122752Y-4673601D02*
G03X7255380Y-4673601I66314J0D01*
G03X7122752Y-4673601I-66314J0D01*
G01X7159122Y-2603500D02*
G03X7289368Y-2621115I66314J0D01*
G03X7299023Y-2641600I63932J17615D01*
G03X7353300Y-2746014I54277J-38100D01*
G03X7407577Y-2641600I0J66314D01*
G03X7381573Y-2543515I-54277J38100D01*
G03X7289368Y-2585885I-28273J-59985D01*
G03X7159122Y-2603500I-63932J-17615D01*
G01X7262452Y-4229102D02*
G03X7395080Y-4229102I66314J0D01*
G03X7262452Y-4229102I-66314J0D01*
G01X7333367Y-10917777D02*
G01X7333367Y-10977777D01*
G03X7524994Y-10977777I95814J0D01*
G01X7524994Y-10917777D01*
G03X7333367Y-10917777I-95814J0D01*
G01X7445996Y-7607300D02*
G03X7924024Y-7607300I239014J0D01*
G03X7445996Y-7607300I-239014J0D01*
G01X7912587Y-2603502D02*
G03X8034401Y-2639796I66314J1D01*
G01X8035623Y-2641600D01*
G03X8089900Y-2746014I54277J-38100D01*
G03X8144177Y-2641600I0J66314D01*
G03X8127102Y-2548604I-54277J38100D01*
G03X8034400Y-2567205I-37202J-54896D01*
G03X7912587Y-2603502I-55499J-36296D01*
G01X8393114Y-520700D02*
G03X8091486Y-520700I-150814J0D01*
G03X8393114Y-520700I150814J0D01*
G01X8901114Y-520700D02*
G03X8599486Y-520700I-150814J0D01*
G03X8901114Y-520700I150814J0D01*
G01X8611087Y-2603502D02*
G03X8732901Y-2639796I66314J1D01*
G01X8734123Y-2641600D01*
G03X8788400Y-2746014I54277J-38100D01*
G03X8842677Y-2641600I0J66314D01*
G03X8825602Y-2548604I-54277J38100D01*
G03X8732900Y-2567205I-37202J-54896D01*
G03X8611087Y-2603502I-55499J-36296D01*
G01X9409114Y-520700D02*
G03X9107486Y-520700I-150814J0D01*
G03X9409114Y-520700I150814J0D01*
G01X9128486Y-10621708D02*
G03X9258300Y-10640821I66314J0D01*
G03X9388114Y-10621708I63500J19113D01*
G03X9258300Y-10602596I-66314J0D01*
G03X9128486Y-10621708I-63500J-19113D01*
G01X9826693Y-9114116D02*
G03X9840902Y-9079812I-34305J34305D01*
G01X9840902Y-8838411D01*
G03X9792388Y-8726887I-48514J45210D01*
G03X9743874Y-8838411I0J-66314D01*
G01X9743874Y-9059717D01*
G01X9287506Y-9516085D01*
G03X9273296Y-9550390I34305J-34305D01*
G01X9273296Y-10196494D01*
G03X9321810Y-10308018I48514J-45210D01*
G03X9370324Y-10196494I0J66314D01*
G01X9370324Y-9570485D01*
G01X9826693Y-9114116D01*
G01X9334987Y-2616202D02*
G03X9463151Y-2640121I66314J1D01*
G03X9470723Y-2654300I61849J23921D01*
G03X9525000Y-2758714I54277J-38100D01*
G03X9579277Y-2654300I0J66314D01*
G03X9556240Y-2557705I-54277J38100D01*
G03X9463150Y-2592280I-31240J-58495D01*
G03X9334987Y-2616202I-61849J-23921D01*
G01X9445568Y-7941947D02*
G03X9578196Y-7941947I66314J0D01*
G03X9445568Y-7941947I-66314J0D01*
G01X9917114Y-520700D02*
G03X9615486Y-520700I-150814J0D01*
G03X9917114Y-520700I150814J0D01*
G01X9636486Y-10621708D02*
G03X9769114Y-10621708I66314J0D01*
G03X9636486Y-10621708I-66314J0D01*
G01X9772376Y-4191000D02*
G03X9905004Y-4191000I66314J0D01*
G03X9772376Y-4191000I-66314J0D01*
G01X9775526Y-3720763D02*
G03X9908154Y-3720763I66314J0D01*
G03X9775526Y-3720763I-66314J0D01*
G01X10003922Y-2616200D02*
G03X10127818Y-2649092I66314J0D01*
G03X10131123Y-2654300I57582J32892D01*
G03X10185400Y-2758714I54277J-38100D01*
G03X10239677Y-2654300I0J66314D01*
G03X10220935Y-2560210I-54277J38100D01*
G03X10127818Y-2583308I-35535J-55990D01*
G03X10003922Y-2616200I-57582J-32892D01*
G01X10313396Y-4445000D02*
G03X10446024Y-4445000I66314J0D01*
G03X10313396Y-4445000I-66314J0D01*
G01X10316546Y-3720763D02*
G03X10449174Y-3720763I66314J0D01*
G03X10316546Y-3720763I-66314J0D01*
G01X10487386Y-4057802D02*
G03X10620014Y-4057802I66314J0D01*
G03X10487386Y-4057802I-66314J0D01*
G01X10487386Y-3917798D02*
G03X10620014Y-3917798I66314J0D01*
G03X10487386Y-3917798I-66314J0D01*
G01X10500086Y-3333902D02*
G03X10632714Y-3333902I66314J0D01*
G03X10500086Y-3333902I-66314J0D01*
G01X10500086Y-3193898D02*
G03X10632714Y-3193898I66314J0D01*
G03X10500086Y-3193898I-66314J0D01*
G01X10882686Y-3530600D02*
G03X11015314Y-3530600I66314J0D01*
G03X10882686Y-3530600I-66314J0D01*
G01X10882686Y-4254500D02*
G03X11015314Y-4254500I66314J0D01*
G03X10882686Y-4254500I-66314J0D01*
G01X10979385Y-9397997D02*
G03X11112013Y-9397997I66314J0D01*
G03X10979385Y-9397997I-66314J0D01*
G01X11135086Y-2603500D02*
G03X11267714Y-2603500I66314J0D01*
G03X11135086Y-2603500I-66314J0D01*
G01X11190687Y-9655000D02*
G03X11323315Y-9655000I66314J0D01*
G03X11190687Y-9655000I-66314J0D01*
G01X11352808Y-8282664D02*
G03X11485437Y-8282664I66314J0D01*
G03X11352808Y-8282664I-66314J0D01*
G01X11645256Y-8603047D02*
G03X11777884Y-8603047I66314J0D01*
G03X11645256Y-8603047I-66314J0D01*
G01X11655017Y-7203015D02*
G03X11787645Y-7203015I66314J0D01*
G03X11655017Y-7203015I-66314J0D01*
G01X11655067Y-6145228D02*
G03X11787696Y-6145228I66314J0D01*
G03X11655067Y-6145228I-66314J0D01*
G01X11655067Y-6850414D02*
G03X11787696Y-6850414I66314J0D01*
G03X11655067Y-6850414I-66314J0D01*
G01X11655067Y-6497821D02*
G03X11787696Y-6497821I66314J0D01*
G03X11655067Y-6497821I-66314J0D01*
G01X11655067Y-7545906D02*
G03X11787696Y-7545906I66314J0D01*
G03X11655067Y-7545906I-66314J0D01*
G01X11655067Y-7898508D02*
G03X11787696Y-7898508I66314J0D01*
G03X11655067Y-7898508I-66314J0D01*
G01X11657621Y-8255100D02*
G03X11790249Y-8255100I66314J0D01*
G03X11657621Y-8255100I-66314J0D01*
G01X11667767Y-5797408D02*
G03X11800396Y-5797408I66314J0D01*
G03X11667767Y-5797408I-66314J0D01*
G01X11670646Y-5453394D02*
G03X11803274Y-5453394I66314J0D01*
G03X11670646Y-5453394I-66314J0D01*
G01X11861800Y-2246314D02*
G03X11861800Y-1944686I0J150814D01*
G03X11861800Y-2246314I0J-150814D01*
G01X11861800Y-2754314D02*
G03X11861800Y-2452686I0J150814D01*
G03X11861800Y-2754314I0J-150814D01*
G01X11861800Y-3262314D02*
G03X11861800Y-2960686I0J150814D01*
G03X11861800Y-3262314I0J-150814D01*
G01X11861800Y-3770314D02*
G03X11861800Y-3468686I0J150814D01*
G03X11861800Y-3770314I0J-150814D01*
G01X11861800Y-4786314D02*
G03X11861800Y-4484686I0J150814D01*
G03X11861800Y-4786314I0J-150814D01*
G01X11861800Y-4278314D02*
G03X11861800Y-3976686I0J150814D01*
G03X11861800Y-4278314I0J-150814D01*
G01X11838686Y-304800D02*
G03X12316714Y-304800I239014J0D01*
G03X11838686Y-304800I-239014J0D01*
G01X11838686Y-10795000D02*
G03X12316714Y-10795000I239014J0D01*
G03X11838686Y-10795000I-239014J0D01*
G54D11*
G01X4400906Y-520700D02*
G01X4546559Y-520700D01*
G01X4400906Y-520700D02*
G01X4255252Y-520700D01*
G01X4400906Y-520700D02*
G01X4400906Y-666354D01*
G01X4400906Y-520700D02*
G01X4400906Y-375046D01*
G01X3650894Y-520700D02*
G01X3796548Y-520700D01*
G01X3650894Y-520700D02*
G01X3505241Y-520700D01*
G01X3650894Y-520700D02*
G01X3650894Y-666354D01*
G01X3650894Y-520700D02*
G01X3650894Y-375046D01*
G04 Copper End*

G04 Pad Start*
G54D12*
G01X7685010Y-7607300D03*
G01X6451600Y-7607300D03*
G01X363952Y-10795000D03*
G01X12077700Y-10795000D03*
G01X12077700Y-304800D03*
G01X1790700Y-2819400D03*
G54D13*
G01X1694104Y-671106D03*
G01X1344092Y-658406D03*
G01X764108Y-671106D03*
G01X414096Y-671106D03*
G01X414096Y-421094D03*
G01X764108Y-421094D03*
G01X1344092Y-421094D03*
G01X1694104Y-421094D03*
G54D14*
G01X546100Y-1618894D03*
G01X546100Y-2368906D03*
G54D15*
G01X11861800Y-4635500D03*
G01X11861800Y-4127500D03*
G01X11861800Y-3619500D03*
G01X11861800Y-3111500D03*
G01X11861800Y-2603500D03*
G01X11861800Y-2095500D03*
G01X520700Y-4762500D03*
G01X520700Y-5270500D03*
G01X520700Y-5778500D03*
G01X520700Y-6286500D03*
G01X533400Y-6959600D03*
G01X533400Y-7467600D03*
G01X533400Y-7975600D03*
G01X533400Y-8483600D03*
G01X533400Y-3594100D03*
G01X533400Y-4102100D03*
G01X6819900Y-533400D03*
G01X6311900Y-533400D03*
G01X5803900Y-533400D03*
G01X5295900Y-533400D03*
G01X9766300Y-520700D03*
G01X9258300Y-520700D03*
G01X8750300Y-520700D03*
G01X8242300Y-520700D03*
G54D14*
G01X4400906Y-520700D03*
G01X3650894Y-520700D03*
G54D17*
G01X6564183Y-10527763D03*
G01X7429180Y-10527763D03*
G54D18*
G01X6564183Y-10947777D03*
G01X7429180Y-10947777D03*
G04 Pad End*

G04 Via Start*
G54D19*
G01X11201400Y-2603500D03*
G01X10949000Y-4254500D03*
G01X10949000Y-3530600D03*
G01X10553700Y-3917798D03*
G01X10566400Y-3193898D03*
G01X10379710Y-4445000D03*
G01X10553700Y-4057802D03*
G01X10566400Y-3333902D03*
G01X10382860Y-3720763D03*
G01X9841840Y-3720763D03*
G01X9838690Y-4191000D03*
G01X10070236Y-2616200D03*
G01X9571711Y-1346200D03*
G01X8860511Y-1346200D03*
G01X8162011Y-1333500D03*
G01X7463511Y-1333500D03*
G01X6701511Y-1333500D03*
G01X5964911Y-1333500D03*
G01X5241011Y-1333500D03*
G01X4529811Y-1333500D03*
G01X5070601Y-2603501D03*
G01X5756401Y-2603503D03*
G01X6480301Y-2603501D03*
G01X7225436Y-2603500D03*
G01X7978901Y-2603501D03*
G01X8677401Y-2603501D03*
G01X9401301Y-2616201D03*
G01X1308101Y-4606799D03*
G01X11736960Y-5453394D03*
G01X11721381Y-6145228D03*
G01X11721381Y-6497821D03*
G01X11721381Y-6850414D03*
G01X11721331Y-7203015D03*
G01X11721381Y-7545906D03*
G01X11721381Y-7898508D03*
G01X11723935Y-8255100D03*
G01X11711570Y-8603047D03*
G01X11257001Y-9655000D03*
G01X11045699Y-9397997D03*
G01X11419122Y-8282664D03*
G01X11734081Y-5797408D03*
G01X6676680Y-10472772D03*
G01X9321800Y-10621708D03*
G01X9702800Y-10621708D03*
G01X9194800Y-10621708D03*
G01X1803400Y-8629802D03*
G01X1308100Y-8327898D03*
G01X1803400Y-8121802D03*
G01X1308100Y-7824064D03*
G01X1308101Y-7362699D03*
G01X1803400Y-7664602D03*
G01X1803400Y-7105802D03*
G01X1310883Y-6809283D03*
G01X1803400Y-6420002D03*
G01X1308101Y-6130799D03*
G01X1308100Y-5626964D03*
G01X1803400Y-5924702D03*
G01X1803400Y-5416702D03*
G01X1308101Y-5114799D03*
G01X1790700Y-4908702D03*
G01X3206902Y-5041900D03*
G01X3066898Y-5041900D03*
G01X3206902Y-7239000D03*
G01X3066898Y-7239000D03*
G01X2362200Y-7785100D03*
G01X1777996Y-6203798D03*
G01X1879596Y-6102198D03*
G01X6908386Y-6087750D03*
G01X9511882Y-7941947D03*
G01X6948086Y-5608026D03*
G01X7417985Y-5176227D03*
G01X7085406Y-5709626D03*
G01X8482403Y-4312629D03*
G01X6921906Y-5760426D03*
G01X7582305Y-5100027D03*
G01X3195951Y-5478089D03*
G01X2662552Y-5478089D03*
G01X6096857Y-4356100D03*
G01X6566757Y-5600699D03*
G01X5944457Y-4445000D03*
G01X6288361Y-5652503D03*
G01X5804757Y-4584700D03*
G01X6566757Y-5702299D03*
G01X7189066Y-4673601D03*
G01X6571157Y-5799508D03*
G01X7328766Y-4229102D03*
G01X6582987Y-6092478D03*
G01X7506565Y-4673601D03*
G01X6287367Y-5753098D03*
G01X1858381Y-1442274D03*
G01X6978796Y-4749801D03*
G01X6838796Y-4749801D03*
G01X6528657Y-4140200D03*
G01X6515957Y-5168900D03*
G01X6633007Y-4912160D03*
G01X6633007Y-5420159D03*
G01X533400Y-3853627D03*
G01X7010400Y-10043751D03*
G01X7316684Y-10472770D03*
G01X7010400Y-10276249D03*
G01X7175500Y-10617200D03*
G01X1422400Y-1390498D03*
G01X1765300Y-2272800D03*
G01X1417688Y-1946806D03*
G01X1417695Y-1706807D03*
G01X6838796Y-4927600D03*
G01X6978796Y-4927600D03*
G01X3543301Y-1231899D03*
G01X3009900Y-3320186D03*
G01X4089400Y-3320186D03*
G01X4089400Y-2420214D03*
G01X3009900Y-2420214D03*
G01X2390107Y-2452746D03*
G01X9321810Y-10241704D03*
G01X9792388Y-8793201D03*
G01X3064215Y-1817601D03*
G01X3062972Y-1742941D03*
G01X3064215Y-1665201D03*
G01X3140415Y-1665201D03*
G01X3140415Y-1741401D03*
G01X3140415Y-1817601D03*
G01X3063593Y-1589001D03*
G01X3139793Y-1589001D03*
G01X2610471Y-1816100D03*
G01X2609229Y-1741441D03*
G01X2610471Y-1663700D03*
G01X2699371Y-1663700D03*
G01X2699371Y-1739900D03*
G01X2699371Y-1816100D03*
G01X2609850Y-1587500D03*
G01X2698750Y-1587500D03*
G01X5245100Y-1562100D03*
G01X5245100Y-1638300D03*
G01X5969000Y-1562100D03*
G01X5969000Y-1638300D03*
G01X6705600Y-1562100D03*
G01X6705600Y-1638300D03*
G01X7467600Y-1562100D03*
G01X7467600Y-1638300D03*
G01X8178800Y-1562100D03*
G01X8178800Y-1638300D03*
G01X8864600Y-1562100D03*
G01X8864600Y-1638300D03*
G01X9575800Y-1562100D03*
G01X9575800Y-1638300D03*
G01X5194300Y-2603500D03*
G01X5194300Y-2679700D03*
G01X5892800Y-2679700D03*
G01X5892800Y-2603500D03*
G01X6591300Y-2679700D03*
G01X6591300Y-2603500D03*
G01X7353300Y-2679700D03*
G01X7353300Y-2603500D03*
G01X8089900Y-2679700D03*
G01X8089900Y-2603500D03*
G01X8788400Y-2679700D03*
G01X8788400Y-2603500D03*
G01X9525000Y-2692400D03*
G01X9525000Y-2616200D03*
G01X10185400Y-2692400D03*
G01X10185400Y-2616200D03*
G01X3403600Y-3530600D03*
G01X3517900Y-3530600D03*
G01X3632200Y-3530600D03*
G01X3403600Y-3619500D03*
G01X3517900Y-3619500D03*
G01X3632200Y-3619500D03*
G01X5321300Y-5588000D03*
G01X2673435Y-7581170D03*
G01X2667000Y-7708900D03*
G01X5435600Y-5702300D03*
G01X2759199Y-7458569D03*
G01X5181600Y-5448300D03*
G04 Via End*

G04 Track Start*
G54D20*
G01X7085406Y-5709626D02*
G01X8482403Y-4312629D01*
G01X3195951Y-5478089D02*
G01X2662552Y-5478089D01*
G01X7506565Y-4673601D02*
G01X6642967Y-5537199D01*
G01X6633007Y-4912160D02*
G01X6633007Y-5420159D01*
G54D21*
G01X7010400Y-10276249D02*
G01X7010400Y-10452100D01*
G01X7175500Y-10617200D01*
G01X9321810Y-10241704D02*
G01X9321810Y-9550390D01*
G01X9792388Y-9079812D01*
G01X9792388Y-8793201D01*
G01X2667000Y-7708900D02*
G01X3429000Y-7708900D01*
G01X5435600Y-5702300D01*
G01X2673435Y-7581170D02*
G01X3328130Y-7581170D01*
G01X5321300Y-5588000D01*
G54D20*
G01X6921906Y-5760426D02*
G01X7582305Y-5100027D01*
G54D21*
G01X5181600Y-5448300D02*
G01X3171331Y-7458569D01*
G01X2759199Y-7458569D01*
G54D20*
G01X5944457Y-4445000D02*
G01X5944457Y-5308599D01*
G01X6288361Y-5652503D01*
G01X6642967Y-5537199D02*
G01X6503267Y-5537199D01*
G01X6287367Y-5753098D01*
G01X6528657Y-4140200D02*
G01X6515957Y-4152900D01*
G01X6515957Y-5168900D01*
G04 Track End*

M02*

