G04 Layer: InnerLayer1*
G04 EasyEDA Pro v3.2.148, 2026-07-18 15:48:42*
G04 Gerber Generator version 0.3*
G04 Scale: 100 percent, Rotated: No, Reflected: No*
G04 Dimensions in millimeters*
G04 Leading zeros omitted, absolute positions, 4 integers and 5 decimals*
G04 Generated by one-click*
G04 Object Configs: Pad,Via,Track,Text,Image,Dimension,BoardOutline,BoardCutout,CopperFilled,SolidRegion,FPCStiffener,Line,PlaneZone,ComponentProperty,ComponentSilkscreen,TearDrop*
G04 Layer Configs: 1,15,16,2,3,4,5,6,7,8,9,10,11,13,14,56*
G04 Copper Areas: 37*
%FSLAX45Y45*%
%MOMM*%
%ADD10C,0.2032*%
%ADD11C,0.254*%
%ADD12C,1.016*%
%ADD13C,4.064*%
%ADD14C,2.0*%
%ADD15C,2.4*%
%ADD16C,2.3088*%
%ADD17C,2.3*%
%ADD18O,1.1X2.0*%
%ADD19O,1.2X1.8*%
%ADD20C,0.61*%
G75*


G04 Copper Start*
G36*
G01X35814Y-254000D02*
G01X37681Y-225521D01*
G01X43249Y-197529D01*
G01X52422Y-170504D01*
G01X65045Y-144907D01*
G01X80901Y-121177D01*
G01X99719Y-99719D01*
G01X121177Y-80901D01*
G01X144907Y-65045D01*
G01X170504Y-52422D01*
G01X197529Y-43249D01*
G01X225521Y-37681D01*
G01X254000Y-35814D01*
G01X12141200Y-35814D01*
G01X12169679Y-37681D01*
G01X12197671Y-43249D01*
G01X12224696Y-52422D01*
G01X12250293Y-65045D01*
G01X12274023Y-80901D01*
G01X12295481Y-99719D01*
G01X12314299Y-121177D01*
G01X12330155Y-144907D01*
G01X12342778Y-170504D01*
G01X12351951Y-197529D01*
G01X12357519Y-225521D01*
G01X12359386Y-254000D01*
G01X12359386Y-10985500D01*
G01X12357519Y-11013979D01*
G01X12351951Y-11041971D01*
G01X12342778Y-11068996D01*
G01X12330155Y-11094593D01*
G01X12314299Y-11118323D01*
G01X12295481Y-11139781D01*
G01X12274023Y-11158599D01*
G01X12250293Y-11174455D01*
G01X12224696Y-11187078D01*
G01X12197671Y-11196251D01*
G01X12169679Y-11201819D01*
G01X12141200Y-11203686D01*
G01X254000Y-11203686D01*
G01X225521Y-11201819D01*
G01X197529Y-11196251D01*
G01X170504Y-11187078D01*
G01X144907Y-11174455D01*
G01X121177Y-11158599D01*
G01X99719Y-11139781D01*
G01X80901Y-11118323D01*
G01X65045Y-11094593D01*
G01X52422Y-11068996D01*
G01X43249Y-11041971D01*
G01X37681Y-11013979D01*
G01X35814Y-10985500D01*
G01X35814Y-10795000D01*
G01X124938Y-10795000D01*
G01X126823Y-10824956D01*
G01X132447Y-10854440D01*
G01X141723Y-10882987D01*
G01X154503Y-10910146D01*
G01X170586Y-10935489D01*
G01X189719Y-10958616D01*
G01X211599Y-10979163D01*
G01X235882Y-10996806D01*
G01X262185Y-11011266D01*
G01X290093Y-11022316D01*
G01X319165Y-11029780D01*
G01X348944Y-11033542D01*
G01X378960Y-11033542D01*
G01X408739Y-11029780D01*
G01X437812Y-11022316D01*
G01X465719Y-11011266D01*
G01X492022Y-10996806D01*
G01X516306Y-10979163D01*
G01X538186Y-10958616D01*
G01X557319Y-10935489D01*
G01X568559Y-10917777D01*
G01X6468370Y-10917777D01*
G01X6468370Y-10977777D01*
G01X6470211Y-10996469D01*
G01X6475663Y-11014443D01*
G01X6484517Y-11031008D01*
G01X6496433Y-11045528D01*
G01X6510952Y-11057443D01*
G01X6527517Y-11066297D01*
G01X6545491Y-11071750D01*
G01X6564183Y-11073591D01*
G01X6582876Y-11071750D01*
G01X6600850Y-11066297D01*
G01X6617415Y-11057443D01*
G01X6631934Y-11045528D01*
G01X6643850Y-11031008D01*
G01X6652704Y-11014443D01*
G01X6658156Y-10996469D01*
G01X6659997Y-10977777D01*
G01X6659997Y-10917777D01*
G01X7333367Y-10917777D01*
G01X7333367Y-10977777D01*
G01X7335208Y-10996469D01*
G01X7340660Y-11014443D01*
G01X7349514Y-11031008D01*
G01X7361430Y-11045528D01*
G01X7375949Y-11057443D01*
G01X7392514Y-11066297D01*
G01X7410488Y-11071750D01*
G01X7429180Y-11073591D01*
G01X7447873Y-11071750D01*
G01X7465847Y-11066297D01*
G01X7482412Y-11057443D01*
G01X7496931Y-11045528D01*
G01X7508847Y-11031008D01*
G01X7517701Y-11014443D01*
G01X7523153Y-10996469D01*
G01X7524994Y-10977777D01*
G01X7524994Y-10917777D01*
G01X7523153Y-10899085D01*
G01X7517701Y-10881111D01*
G01X7508847Y-10864546D01*
G01X7496931Y-10850026D01*
G01X7482412Y-10838111D01*
G01X7465847Y-10829257D01*
G01X7447873Y-10823804D01*
G01X7429180Y-10821963D01*
G01X7410488Y-10823804D01*
G01X7392514Y-10829257D01*
G01X7375949Y-10838111D01*
G01X7361430Y-10850026D01*
G01X7349514Y-10864546D01*
G01X7340660Y-10881111D01*
G01X7335208Y-10899085D01*
G01X7333367Y-10917777D01*
G01X7333367Y-10917777D01*
G01X6659997Y-10917777D01*
G01X6658156Y-10899085D01*
G01X6652704Y-10881111D01*
G01X6643850Y-10864546D01*
G01X6631934Y-10850026D01*
G01X6617415Y-10838111D01*
G01X6600850Y-10829257D01*
G01X6582876Y-10823804D01*
G01X6564183Y-10821963D01*
G01X6545491Y-10823804D01*
G01X6527517Y-10829257D01*
G01X6510952Y-10838111D01*
G01X6496433Y-10850026D01*
G01X6484517Y-10864546D01*
G01X6475663Y-10881111D01*
G01X6470211Y-10899085D01*
G01X6468370Y-10917777D01*
G01X6468370Y-10917777D01*
G01X568559Y-10917777D01*
G01X573402Y-10910146D01*
G01X586182Y-10882987D01*
G01X595457Y-10854440D01*
G01X601082Y-10824956D01*
G01X602966Y-10795000D01*
G01X602966Y-10795000D01*
G01X11838686Y-10795000D01*
G01X11840571Y-10824956D01*
G01X11846195Y-10854440D01*
G01X11855470Y-10882987D01*
G01X11868250Y-10910146D01*
G01X11884334Y-10935489D01*
G01X11903466Y-10958616D01*
G01X11925347Y-10979163D01*
G01X11949630Y-10996806D01*
G01X11975933Y-11011266D01*
G01X12003841Y-11022316D01*
G01X12032913Y-11029780D01*
G01X12062692Y-11033542D01*
G01X12092708Y-11033542D01*
G01X12122487Y-11029780D01*
G01X12151559Y-11022316D01*
G01X12179467Y-11011266D01*
G01X12205770Y-10996806D01*
G01X12230053Y-10979163D01*
G01X12251934Y-10958616D01*
G01X12271066Y-10935489D01*
G01X12287150Y-10910146D01*
G01X12299930Y-10882987D01*
G01X12309205Y-10854440D01*
G01X12314829Y-10824956D01*
G01X12316714Y-10795000D01*
G01X12314829Y-10765044D01*
G01X12309205Y-10735560D01*
G01X12299930Y-10707013D01*
G01X12287150Y-10679854D01*
G01X12271066Y-10654511D01*
G01X12251934Y-10631384D01*
G01X12230053Y-10610837D01*
G01X12205770Y-10593194D01*
G01X12179467Y-10578734D01*
G01X12151559Y-10567684D01*
G01X12122487Y-10560220D01*
G01X12092708Y-10556458D01*
G01X12062692Y-10556458D01*
G01X12032913Y-10560220D01*
G01X12003841Y-10567684D01*
G01X11975933Y-10578734D01*
G01X11949630Y-10593194D01*
G01X11925347Y-10610837D01*
G01X11903466Y-10631384D01*
G01X11884334Y-10654511D01*
G01X11868250Y-10679854D01*
G01X11855470Y-10707013D01*
G01X11846195Y-10735560D01*
G01X11840571Y-10765044D01*
G01X11838686Y-10795000D01*
G01X11838686Y-10795000D01*
G01X602966Y-10795000D01*
G01X601082Y-10765044D01*
G01X595457Y-10735560D01*
G01X586182Y-10707013D01*
G01X573402Y-10679854D01*
G01X557319Y-10654511D01*
G01X538186Y-10631384D01*
G01X516306Y-10610837D01*
G01X492022Y-10593194D01*
G01X465719Y-10578734D01*
G01X450638Y-10572762D01*
G01X6473370Y-10572762D01*
G01X6475289Y-10591333D01*
G01X6480965Y-10609119D01*
G01X6490158Y-10625368D01*
G01X6502480Y-10639394D01*
G01X6517409Y-10650604D01*
G01X6534316Y-10658524D01*
G01X6552484Y-10662820D01*
G01X6571148Y-10663309D01*
G01X6589516Y-10659971D01*
G01X6606815Y-10652948D01*
G01X6622311Y-10642536D01*
G01X6635351Y-10629175D01*
G01X6645383Y-10613430D01*
G01X6654687Y-10626741D01*
G01X6666779Y-10637582D01*
G01X6681023Y-10645383D01*
G01X6696670Y-10649734D01*
G01X6712897Y-10650406D01*
G01X6728850Y-10647363D01*
G01X6743690Y-10640766D01*
G01X6756637Y-10630961D01*
G01X6762876Y-10623445D01*
G01X7109481Y-10623445D01*
G01X7112707Y-10638522D01*
G01X7112707Y-10638522D01*
G01X7119329Y-10652447D01*
G01X7128987Y-10664466D01*
G01X7141159Y-10673930D01*
G01X7155189Y-10680327D01*
G01X7170316Y-10683311D01*
G01X7185723Y-10682721D01*
G01X7200578Y-10678589D01*
G01X7214077Y-10671138D01*
G01X7225491Y-10660772D01*
G01X7234202Y-10648049D01*
G01X7239739Y-10633659D01*
G01X7252773Y-10642478D01*
G01X7267432Y-10648201D01*
G01X7282994Y-10650545D01*
G01X7298689Y-10649395D01*
G01X7313742Y-10644806D01*
G01X7327410Y-10637007D01*
G01X7339018Y-10626381D01*
G01X7347993Y-10613454D01*
G01X7358029Y-10629195D01*
G01X7371071Y-10642551D01*
G01X7386568Y-10652958D01*
G01X7403866Y-10659977D01*
G01X7422233Y-10663310D01*
G01X7440894Y-10662818D01*
G01X7459060Y-10658520D01*
G01X7475964Y-10650599D01*
G01X7490890Y-10639389D01*
G01X7503210Y-10625363D01*
G01X7505277Y-10621708D01*
G01X9128486Y-10621708D01*
G01X9130413Y-10637578D01*
G01X9136082Y-10652526D01*
G01X9145163Y-10665683D01*
G01X9157129Y-10676284D01*
G01X9171285Y-10683713D01*
G01X9186807Y-10687539D01*
G01X9202793Y-10687539D01*
G01X9218315Y-10683713D01*
G01X9232471Y-10676284D01*
G01X9244437Y-10665683D01*
G01X9253518Y-10652526D01*
G01X9259187Y-10637578D01*
G01X9261114Y-10621708D01*
G01X9259187Y-10605839D01*
G01X9253518Y-10590891D01*
G01X9244437Y-10577734D01*
G01X9232471Y-10567133D01*
G01X9218315Y-10559704D01*
G01X9202793Y-10555878D01*
G01X9186807Y-10555878D01*
G01X9171285Y-10559704D01*
G01X9157129Y-10567133D01*
G01X9145163Y-10577734D01*
G01X9136082Y-10590891D01*
G01X9130413Y-10605839D01*
G01X9128486Y-10621708D01*
G01X9128486Y-10621708D01*
G01X7505277Y-10621708D01*
G01X7512401Y-10609115D01*
G01X7518076Y-10591331D01*
G01X7519994Y-10572762D01*
G01X7519994Y-10482763D01*
G01X7518010Y-10463881D01*
G01X7512143Y-10445825D01*
G01X7502650Y-10429384D01*
G01X7489947Y-10415275D01*
G01X7474587Y-10404115D01*
G01X7457244Y-10396393D01*
G01X7438673Y-10392446D01*
G01X7419688Y-10392446D01*
G01X7401117Y-10396393D01*
G01X7383774Y-10404115D01*
G01X7368414Y-10415275D01*
G01X7355710Y-10429384D01*
G01X7346218Y-10445825D01*
G01X7340351Y-10463881D01*
G01X7338367Y-10482763D01*
G01X7338367Y-10532447D01*
G01X7326769Y-10522095D01*
G01X7313193Y-10514523D01*
G01X7298291Y-10510096D01*
G01X7282783Y-10509026D01*
G01X7267415Y-10511367D01*
G01X7252928Y-10517004D01*
G01X7240020Y-10525666D01*
G01X7229313Y-10536936D01*
G01X7221323Y-10550271D01*
G01X7216435Y-10565028D01*
G01X7203280Y-10556985D01*
G01X7188623Y-10552197D01*
G01X7173257Y-10550924D01*
G01X7158012Y-10553233D01*
G01X7143713Y-10559001D01*
G01X7131132Y-10567915D01*
G01X7120949Y-10579493D01*
G01X7113716Y-10593110D01*
G01X7109823Y-10608030D01*
G01X7109481Y-10623445D01*
G01X6762876Y-10623445D01*
G01X6767009Y-10618465D01*
G01X6774263Y-10603934D01*
G01X6778014Y-10588133D01*
G01X6778068Y-10571893D01*
G01X6774420Y-10556068D01*
G01X6767263Y-10541489D01*
G01X6756972Y-10528925D01*
G01X6744090Y-10519036D01*
G01X6729294Y-10512341D01*
G01X6713361Y-10509194D01*
G01X6697131Y-10509759D01*
G01X6681456Y-10514007D01*
G01X6667161Y-10521714D01*
G01X6654997Y-10532475D01*
G01X6654997Y-10482763D01*
G01X6654997Y-10482763D01*
G01X6653013Y-10463881D01*
G01X6647146Y-10445825D01*
G01X6637653Y-10429384D01*
G01X6624950Y-10415275D01*
G01X6609590Y-10404115D01*
G01X6592247Y-10396393D01*
G01X6573676Y-10392446D01*
G01X6554691Y-10392446D01*
G01X6536120Y-10396393D01*
G01X6518777Y-10404115D01*
G01X6503417Y-10415275D01*
G01X6490713Y-10429384D01*
G01X6481221Y-10445825D01*
G01X6475354Y-10463881D01*
G01X6473370Y-10482763D01*
G01X6473370Y-10572762D01*
G01X450638Y-10572762D01*
G01X437812Y-10567684D01*
G01X408739Y-10560220D01*
G01X378960Y-10556458D01*
G01X348944Y-10556458D01*
G01X319165Y-10560220D01*
G01X290093Y-10567684D01*
G01X262185Y-10578734D01*
G01X235882Y-10593194D01*
G01X211599Y-10610837D01*
G01X189719Y-10631384D01*
G01X170586Y-10654511D01*
G01X154503Y-10679854D01*
G01X141723Y-10707013D01*
G01X132447Y-10735560D01*
G01X126823Y-10765044D01*
G01X124938Y-10795000D01*
G01X124938Y-10795000D01*
G01X35814Y-10795000D01*
G01X35814Y-10276249D01*
G01X6944086Y-10276249D01*
G01X6946013Y-10292119D01*
G01X6951682Y-10307067D01*
G01X6960763Y-10320224D01*
G01X6972729Y-10330825D01*
G01X6986885Y-10338254D01*
G01X7002407Y-10342080D01*
G01X7018393Y-10342080D01*
G01X7033915Y-10338254D01*
G01X7048071Y-10330825D01*
G01X7060037Y-10320224D01*
G01X7069118Y-10307067D01*
G01X7074787Y-10292119D01*
G01X7076714Y-10276249D01*
G01X7074787Y-10260379D01*
G01X7069118Y-10245432D01*
G01X7066545Y-10241704D01*
G01X9255496Y-10241704D01*
G01X9257423Y-10257574D01*
G01X9263092Y-10272522D01*
G01X9272173Y-10285679D01*
G01X9284139Y-10296280D01*
G01X9298295Y-10303709D01*
G01X9313817Y-10307535D01*
G01X9329803Y-10307535D01*
G01X9345325Y-10303709D01*
G01X9359481Y-10296280D01*
G01X9371447Y-10285679D01*
G01X9380528Y-10272522D01*
G01X9386197Y-10257574D01*
G01X9388124Y-10241704D01*
G01X9386197Y-10225834D01*
G01X9380528Y-10210886D01*
G01X9371447Y-10197730D01*
G01X9359481Y-10187129D01*
G01X9345325Y-10179699D01*
G01X9329803Y-10175874D01*
G01X9313817Y-10175874D01*
G01X9298295Y-10179699D01*
G01X9284139Y-10187129D01*
G01X9272173Y-10197730D01*
G01X9263092Y-10210886D01*
G01X9257423Y-10225834D01*
G01X9255496Y-10241704D01*
G01X9255496Y-10241704D01*
G01X7066545Y-10241704D01*
G01X7060037Y-10232275D01*
G01X7048071Y-10221674D01*
G01X7033915Y-10214245D01*
G01X7018393Y-10210419D01*
G01X7002407Y-10210419D01*
G01X6986885Y-10214245D01*
G01X6972729Y-10221674D01*
G01X6960763Y-10232275D01*
G01X6951682Y-10245432D01*
G01X6946013Y-10260379D01*
G01X6944086Y-10276249D01*
G01X6944086Y-10276249D01*
G01X35814Y-10276249D01*
G01X35814Y-8793201D01*
G01X9726074Y-8793201D01*
G01X9728001Y-8809071D01*
G01X9733670Y-8824018D01*
G01X9742752Y-8837175D01*
G01X9754718Y-8847776D01*
G01X9768873Y-8855205D01*
G01X9784395Y-8859031D01*
G01X9800382Y-8859031D01*
G01X9815904Y-8855205D01*
G01X9830059Y-8847776D01*
G01X9842025Y-8837175D01*
G01X9851107Y-8824018D01*
G01X9856775Y-8809071D01*
G01X9858702Y-8793201D01*
G01X9856775Y-8777331D01*
G01X9851107Y-8762383D01*
G01X9842025Y-8749226D01*
G01X9830059Y-8738625D01*
G01X9815904Y-8731196D01*
G01X9800382Y-8727370D01*
G01X9784395Y-8727370D01*
G01X9768873Y-8731196D01*
G01X9754718Y-8738625D01*
G01X9742752Y-8749226D01*
G01X9733670Y-8762383D01*
G01X9728001Y-8777331D01*
G01X9726074Y-8793201D01*
G01X9726074Y-8793201D01*
G01X35814Y-8793201D01*
G01X35814Y-8483600D01*
G01X382586Y-8483600D01*
G01X384443Y-8507192D01*
G01X389968Y-8530204D01*
G01X399024Y-8552068D01*
G01X411389Y-8572246D01*
G01X426759Y-8590241D01*
G01X444754Y-8605611D01*
G01X464932Y-8617976D01*
G01X486796Y-8627032D01*
G01X509808Y-8632557D01*
G01X533400Y-8634414D01*
G01X556992Y-8632557D01*
G01X580004Y-8627032D01*
G01X601868Y-8617976D01*
G01X622046Y-8605611D01*
G01X625048Y-8603047D01*
G01X11645256Y-8603047D01*
G01X11647183Y-8618917D01*
G01X11652852Y-8633865D01*
G01X11661934Y-8647022D01*
G01X11673900Y-8657623D01*
G01X11688055Y-8665052D01*
G01X11703577Y-8668878D01*
G01X11719564Y-8668878D01*
G01X11735086Y-8665052D01*
G01X11749241Y-8657623D01*
G01X11761207Y-8647022D01*
G01X11770289Y-8633865D01*
G01X11775958Y-8618917D01*
G01X11777884Y-8603047D01*
G01X11775958Y-8587177D01*
G01X11770289Y-8572230D01*
G01X11761207Y-8559073D01*
G01X11749241Y-8548472D01*
G01X11735086Y-8541043D01*
G01X11719564Y-8537217D01*
G01X11703577Y-8537217D01*
G01X11688055Y-8541043D01*
G01X11673900Y-8548472D01*
G01X11661934Y-8559073D01*
G01X11652852Y-8572230D01*
G01X11647183Y-8587177D01*
G01X11645256Y-8603047D01*
G01X11645256Y-8603047D01*
G01X625048Y-8603047D01*
G01X640041Y-8590241D01*
G01X655411Y-8572246D01*
G01X667776Y-8552068D01*
G01X676832Y-8530204D01*
G01X682357Y-8507192D01*
G01X684214Y-8483600D01*
G01X682357Y-8460008D01*
G01X676832Y-8436996D01*
G01X667776Y-8415132D01*
G01X655411Y-8394954D01*
G01X640041Y-8376959D01*
G01X622046Y-8361589D01*
G01X601868Y-8349224D01*
G01X580004Y-8340168D01*
G01X556992Y-8334643D01*
G01X533400Y-8332786D01*
G01X533400Y-8332786D01*
G01X509808Y-8334643D01*
G01X486796Y-8340168D01*
G01X464932Y-8349224D01*
G01X444754Y-8361589D01*
G01X426759Y-8376959D01*
G01X411389Y-8394954D01*
G01X399024Y-8415132D01*
G01X389968Y-8436996D01*
G01X384443Y-8460008D01*
G01X382586Y-8483600D01*
G01X35814Y-8483600D01*
G01X35814Y-8327898D01*
G01X1241786Y-8327898D01*
G01X1243713Y-8343768D01*
G01X1249382Y-8358716D01*
G01X1258463Y-8371872D01*
G01X1270429Y-8382473D01*
G01X1284585Y-8389903D01*
G01X1300107Y-8393729D01*
G01X1316093Y-8393729D01*
G01X1331615Y-8389903D01*
G01X1345771Y-8382473D01*
G01X1357737Y-8371872D01*
G01X1366818Y-8358716D01*
G01X1372487Y-8343768D01*
G01X1374414Y-8327898D01*
G01X1372487Y-8312028D01*
G01X1366818Y-8297080D01*
G01X1357737Y-8283924D01*
G01X1345771Y-8273323D01*
G01X1331615Y-8265893D01*
G01X1316093Y-8262067D01*
G01X1300107Y-8262067D01*
G01X1284585Y-8265893D01*
G01X1270429Y-8273323D01*
G01X1258463Y-8283924D01*
G01X1249382Y-8297080D01*
G01X1243713Y-8312028D01*
G01X1241786Y-8327898D01*
G01X1241786Y-8327898D01*
G01X35814Y-8327898D01*
G01X35814Y-8255100D01*
G01X11657621Y-8255100D01*
G01X11659548Y-8270970D01*
G01X11665217Y-8285918D01*
G01X11674298Y-8299075D01*
G01X11686264Y-8309676D01*
G01X11700420Y-8317105D01*
G01X11715942Y-8320931D01*
G01X11731928Y-8320931D01*
G01X11747450Y-8317105D01*
G01X11761606Y-8309676D01*
G01X11773572Y-8299075D01*
G01X11782653Y-8285918D01*
G01X11788322Y-8270970D01*
G01X11790249Y-8255100D01*
G01X11788322Y-8239230D01*
G01X11782653Y-8224283D01*
G01X11773572Y-8211126D01*
G01X11761606Y-8200525D01*
G01X11747450Y-8193096D01*
G01X11731928Y-8189270D01*
G01X11715942Y-8189270D01*
G01X11700420Y-8193096D01*
G01X11686264Y-8200525D01*
G01X11674298Y-8211126D01*
G01X11665217Y-8224283D01*
G01X11659548Y-8239230D01*
G01X11657621Y-8255100D01*
G01X11657621Y-8255100D01*
G01X35814Y-8255100D01*
G01X35814Y-7975600D01*
G01X382586Y-7975600D01*
G01X384443Y-7999192D01*
G01X389968Y-8022204D01*
G01X399024Y-8044068D01*
G01X411389Y-8064246D01*
G01X426759Y-8082241D01*
G01X444754Y-8097611D01*
G01X464932Y-8109976D01*
G01X486796Y-8119032D01*
G01X509808Y-8124557D01*
G01X533400Y-8126414D01*
G01X556992Y-8124557D01*
G01X580004Y-8119032D01*
G01X601868Y-8109976D01*
G01X622046Y-8097611D01*
G01X640041Y-8082241D01*
G01X655411Y-8064246D01*
G01X667776Y-8044068D01*
G01X676832Y-8022204D01*
G01X682357Y-7999192D01*
G01X684214Y-7975600D01*
G01X682357Y-7952008D01*
G01X679942Y-7941947D01*
G01X9445568Y-7941947D01*
G01X9447495Y-7957817D01*
G01X9453164Y-7972764D01*
G01X9462245Y-7985921D01*
G01X9474211Y-7996522D01*
G01X9488367Y-8003951D01*
G01X9503889Y-8007777D01*
G01X9519875Y-8007777D01*
G01X9535397Y-8003951D01*
G01X9549553Y-7996522D01*
G01X9561519Y-7985921D01*
G01X9570600Y-7972764D01*
G01X9576269Y-7957817D01*
G01X9578196Y-7941947D01*
G01X9576269Y-7926077D01*
G01X9570600Y-7911129D01*
G01X9561888Y-7898508D01*
G01X11655067Y-7898508D01*
G01X11656994Y-7914378D01*
G01X11662663Y-7929325D01*
G01X11671745Y-7942482D01*
G01X11683711Y-7953083D01*
G01X11697866Y-7960512D01*
G01X11713388Y-7964338D01*
G01X11729375Y-7964338D01*
G01X11744897Y-7960512D01*
G01X11759052Y-7953083D01*
G01X11771018Y-7942482D01*
G01X11780100Y-7929325D01*
G01X11785769Y-7914378D01*
G01X11787696Y-7898508D01*
G01X11785769Y-7882638D01*
G01X11780100Y-7867690D01*
G01X11771018Y-7854533D01*
G01X11759052Y-7843932D01*
G01X11744897Y-7836503D01*
G01X11729375Y-7832677D01*
G01X11713388Y-7832677D01*
G01X11697866Y-7836503D01*
G01X11683711Y-7843932D01*
G01X11671745Y-7854533D01*
G01X11662663Y-7867690D01*
G01X11656994Y-7882638D01*
G01X11655067Y-7898508D01*
G01X11655067Y-7898508D01*
G01X9561888Y-7898508D01*
G01X9561519Y-7897973D01*
G01X9549553Y-7887371D01*
G01X9535397Y-7879942D01*
G01X9519875Y-7876116D01*
G01X9503889Y-7876116D01*
G01X9488367Y-7879942D01*
G01X9474211Y-7887371D01*
G01X9462245Y-7897973D01*
G01X9453164Y-7911129D01*
G01X9447495Y-7926077D01*
G01X9445568Y-7941947D01*
G01X9445568Y-7941947D01*
G01X679942Y-7941947D01*
G01X676832Y-7928996D01*
G01X667776Y-7907132D01*
G01X655411Y-7886954D01*
G01X640041Y-7868959D01*
G01X622046Y-7853589D01*
G01X601868Y-7841224D01*
G01X580004Y-7832168D01*
G01X556992Y-7826643D01*
G01X533400Y-7824786D01*
G01X533400Y-7824786D01*
G01X509808Y-7826643D01*
G01X486796Y-7832168D01*
G01X464932Y-7841224D01*
G01X444754Y-7853589D01*
G01X426759Y-7868959D01*
G01X411389Y-7886954D01*
G01X399024Y-7907132D01*
G01X389968Y-7928996D01*
G01X384443Y-7952008D01*
G01X382586Y-7975600D01*
G01X35814Y-7975600D01*
G01X35814Y-7824064D01*
G01X1241786Y-7824064D01*
G01X1243713Y-7839934D01*
G01X1249382Y-7854881D01*
G01X1258463Y-7868038D01*
G01X1270429Y-7878639D01*
G01X1284585Y-7886068D01*
G01X1300107Y-7889894D01*
G01X1316093Y-7889894D01*
G01X1331615Y-7886068D01*
G01X1345771Y-7878639D01*
G01X1357737Y-7868038D01*
G01X1366818Y-7854881D01*
G01X1372487Y-7839934D01*
G01X1374414Y-7824064D01*
G01X1372487Y-7808194D01*
G01X1366818Y-7793246D01*
G01X1357737Y-7780089D01*
G01X1345771Y-7769488D01*
G01X1331615Y-7762059D01*
G01X1316093Y-7758233D01*
G01X1300107Y-7758233D01*
G01X1284585Y-7762059D01*
G01X1270429Y-7769488D01*
G01X1258463Y-7780089D01*
G01X1249382Y-7793246D01*
G01X1243713Y-7808194D01*
G01X1241786Y-7824064D01*
G01X1241786Y-7824064D01*
G01X35814Y-7824064D01*
G01X35814Y-7714443D01*
G01X2600918Y-7714443D01*
G01X2604118Y-7729958D01*
G01X2610907Y-7744272D01*
G01X2620897Y-7756567D01*
G01X2633518Y-7766141D01*
G01X2648050Y-7772449D01*
G01X2663664Y-7775130D01*
G01X2679467Y-7774032D01*
G01X2694559Y-7769216D01*
G01X2708079Y-7760958D01*
G01X2719254Y-7749730D01*
G01X2727447Y-7736171D01*
G01X2732190Y-7721056D01*
G01X2733213Y-7705247D01*
G01X2730458Y-7689647D01*
G01X2724081Y-7675145D01*
G01X2714446Y-7662570D01*
G01X2702103Y-7652639D01*
G01X2687758Y-7645919D01*
G01X2702706Y-7640674D01*
G01X2715984Y-7632033D01*
G01X2726834Y-7620490D01*
G01X2734298Y-7607300D01*
G01X6212586Y-7607300D01*
G01X6214471Y-7637256D01*
G01X6220095Y-7666740D01*
G01X6229370Y-7695287D01*
G01X6242150Y-7722446D01*
G01X6258234Y-7747789D01*
G01X6277366Y-7770916D01*
G01X6299247Y-7791463D01*
G01X6323530Y-7809106D01*
G01X6349833Y-7823566D01*
G01X6377741Y-7834616D01*
G01X6406813Y-7842080D01*
G01X6436592Y-7845842D01*
G01X6466608Y-7845842D01*
G01X6496387Y-7842080D01*
G01X6525459Y-7834616D01*
G01X6553367Y-7823566D01*
G01X6579670Y-7809106D01*
G01X6603953Y-7791463D01*
G01X6625834Y-7770916D01*
G01X6644966Y-7747789D01*
G01X6661050Y-7722446D01*
G01X6673830Y-7695287D01*
G01X6683105Y-7666740D01*
G01X6688729Y-7637256D01*
G01X6690614Y-7607300D01*
G01X6690614Y-7607300D01*
G01X7445996Y-7607300D01*
G01X7447880Y-7637256D01*
G01X7453505Y-7666740D01*
G01X7462780Y-7695287D01*
G01X7475560Y-7722446D01*
G01X7491643Y-7747789D01*
G01X7510776Y-7770916D01*
G01X7532656Y-7791463D01*
G01X7556939Y-7809106D01*
G01X7583242Y-7823566D01*
G01X7611150Y-7834616D01*
G01X7640223Y-7842080D01*
G01X7670002Y-7845842D01*
G01X7700017Y-7845842D01*
G01X7729796Y-7842080D01*
G01X7758869Y-7834616D01*
G01X7786777Y-7823566D01*
G01X7813080Y-7809106D01*
G01X7837363Y-7791463D01*
G01X7859243Y-7770916D01*
G01X7878376Y-7747789D01*
G01X7894459Y-7722446D01*
G01X7907239Y-7695287D01*
G01X7916514Y-7666740D01*
G01X7922139Y-7637256D01*
G01X7924024Y-7607300D01*
G01X7922139Y-7577344D01*
G01X7916514Y-7547860D01*
G01X7915880Y-7545906D01*
G01X11655067Y-7545906D01*
G01X11656994Y-7561776D01*
G01X11662663Y-7576724D01*
G01X11671745Y-7589881D01*
G01X11683711Y-7600482D01*
G01X11697866Y-7607911D01*
G01X11713388Y-7611737D01*
G01X11729375Y-7611737D01*
G01X11744897Y-7607911D01*
G01X11759052Y-7600482D01*
G01X11771018Y-7589881D01*
G01X11780100Y-7576724D01*
G01X11785769Y-7561776D01*
G01X11787696Y-7545906D01*
G01X11785769Y-7530036D01*
G01X11780100Y-7515088D01*
G01X11771018Y-7501932D01*
G01X11759052Y-7491331D01*
G01X11744897Y-7483901D01*
G01X11729375Y-7480076D01*
G01X11713388Y-7480076D01*
G01X11697866Y-7483901D01*
G01X11683711Y-7491331D01*
G01X11671745Y-7501932D01*
G01X11662663Y-7515088D01*
G01X11656994Y-7530036D01*
G01X11655067Y-7545906D01*
G01X11655067Y-7545906D01*
G01X7915880Y-7545906D01*
G01X7907239Y-7519313D01*
G01X7894459Y-7492154D01*
G01X7878376Y-7466811D01*
G01X7859243Y-7443684D01*
G01X7837363Y-7423137D01*
G01X7813080Y-7405494D01*
G01X7786777Y-7391034D01*
G01X7758869Y-7379984D01*
G01X7729796Y-7372520D01*
G01X7700017Y-7368758D01*
G01X7670002Y-7368758D01*
G01X7640223Y-7372520D01*
G01X7611150Y-7379984D01*
G01X7583242Y-7391034D01*
G01X7556939Y-7405494D01*
G01X7532656Y-7423137D01*
G01X7510776Y-7443684D01*
G01X7491643Y-7466811D01*
G01X7475560Y-7492154D01*
G01X7462780Y-7519313D01*
G01X7453505Y-7547860D01*
G01X7447880Y-7577344D01*
G01X7445996Y-7607300D01*
G01X7445996Y-7607300D01*
G01X6690614Y-7607300D01*
G01X6688729Y-7577344D01*
G01X6683105Y-7547860D01*
G01X6673830Y-7519313D01*
G01X6661050Y-7492154D01*
G01X6644966Y-7466811D01*
G01X6625834Y-7443684D01*
G01X6603953Y-7423137D01*
G01X6579670Y-7405494D01*
G01X6553367Y-7391034D01*
G01X6525459Y-7379984D01*
G01X6496387Y-7372520D01*
G01X6466608Y-7368758D01*
G01X6436592Y-7368758D01*
G01X6406813Y-7372520D01*
G01X6377741Y-7379984D01*
G01X6349833Y-7391034D01*
G01X6323530Y-7405494D01*
G01X6299247Y-7423137D01*
G01X6277366Y-7443684D01*
G01X6258234Y-7466811D01*
G01X6242150Y-7492154D01*
G01X6229370Y-7519313D01*
G01X6220095Y-7547860D01*
G01X6214471Y-7577344D01*
G01X6212586Y-7607300D01*
G01X6212586Y-7607300D01*
G01X2734298Y-7607300D01*
G01X2734636Y-7606703D01*
G01X2738946Y-7591458D01*
G01X2739517Y-7575627D01*
G01X2736316Y-7560111D01*
G01X2729527Y-7545798D01*
G01X2719537Y-7533503D01*
G01X2706916Y-7523929D01*
G01X2692384Y-7517621D01*
G01X2676771Y-7514940D01*
G01X2660967Y-7516038D01*
G01X2645875Y-7520854D01*
G01X2632356Y-7529111D01*
G01X2621181Y-7540340D01*
G01X2612988Y-7553899D01*
G01X2608244Y-7569014D01*
G01X2607221Y-7584822D01*
G01X2609977Y-7600423D01*
G01X2616354Y-7614924D01*
G01X2625989Y-7627500D01*
G01X2638331Y-7637431D01*
G01X2652677Y-7644151D01*
G01X2652677Y-7644151D01*
G01X2637728Y-7649396D01*
G01X2624450Y-7658037D01*
G01X2613601Y-7669580D01*
G01X2605798Y-7683367D01*
G01X2601489Y-7698612D01*
G01X2600918Y-7714443D01*
G01X35814Y-7714443D01*
G01X35814Y-7467600D01*
G01X382586Y-7467600D01*
G01X384443Y-7491192D01*
G01X389968Y-7514204D01*
G01X399024Y-7536068D01*
G01X411389Y-7556246D01*
G01X426759Y-7574241D01*
G01X444754Y-7589611D01*
G01X464932Y-7601976D01*
G01X486796Y-7611032D01*
G01X509808Y-7616557D01*
G01X533400Y-7618414D01*
G01X556992Y-7616557D01*
G01X580004Y-7611032D01*
G01X601868Y-7601976D01*
G01X622046Y-7589611D01*
G01X640041Y-7574241D01*
G01X655411Y-7556246D01*
G01X667776Y-7536068D01*
G01X676832Y-7514204D01*
G01X682357Y-7491192D01*
G01X684214Y-7467600D01*
G01X683503Y-7458569D01*
G01X2692885Y-7458569D01*
G01X2694812Y-7474439D01*
G01X2700481Y-7489387D01*
G01X2709563Y-7502543D01*
G01X2721529Y-7513144D01*
G01X2735684Y-7520574D01*
G01X2751206Y-7524400D01*
G01X2767193Y-7524400D01*
G01X2782715Y-7520574D01*
G01X2796870Y-7513144D01*
G01X2808836Y-7502543D01*
G01X2817918Y-7489387D01*
G01X2823587Y-7474439D01*
G01X2825514Y-7458569D01*
G01X2823587Y-7442699D01*
G01X2817918Y-7427751D01*
G01X2808836Y-7414595D01*
G01X2796870Y-7403994D01*
G01X2782715Y-7396564D01*
G01X2767193Y-7392738D01*
G01X2751206Y-7392738D01*
G01X2735684Y-7396564D01*
G01X2721529Y-7403994D01*
G01X2709563Y-7414595D01*
G01X2700481Y-7427751D01*
G01X2694812Y-7442699D01*
G01X2692885Y-7458569D01*
G01X2692885Y-7458569D01*
G01X683503Y-7458569D01*
G01X682357Y-7444008D01*
G01X676832Y-7420996D01*
G01X667776Y-7399132D01*
G01X655411Y-7378954D01*
G01X641528Y-7362699D01*
G01X1241787Y-7362699D01*
G01X1243714Y-7378569D01*
G01X1249383Y-7393517D01*
G01X1258464Y-7406674D01*
G01X1270431Y-7417275D01*
G01X1284586Y-7424704D01*
G01X1300108Y-7428530D01*
G01X1316095Y-7428530D01*
G01X1331617Y-7424704D01*
G01X1345772Y-7417275D01*
G01X1357738Y-7406674D01*
G01X1366819Y-7393517D01*
G01X1372488Y-7378569D01*
G01X1374415Y-7362699D01*
G01X1372488Y-7346829D01*
G01X1366819Y-7331882D01*
G01X1357738Y-7318725D01*
G01X1345772Y-7308124D01*
G01X1331617Y-7300695D01*
G01X1316095Y-7296869D01*
G01X1300108Y-7296869D01*
G01X1284586Y-7300695D01*
G01X1270431Y-7308124D01*
G01X1258464Y-7318725D01*
G01X1249383Y-7331882D01*
G01X1243714Y-7346829D01*
G01X1241787Y-7362699D01*
G01X1241787Y-7362699D01*
G01X641528Y-7362699D01*
G01X640041Y-7360959D01*
G01X622046Y-7345589D01*
G01X601868Y-7333224D01*
G01X580004Y-7324168D01*
G01X556992Y-7318643D01*
G01X533400Y-7316786D01*
G01X533400Y-7316786D01*
G01X509808Y-7318643D01*
G01X486796Y-7324168D01*
G01X464932Y-7333224D01*
G01X444754Y-7345589D01*
G01X426759Y-7360959D01*
G01X411389Y-7378954D01*
G01X399024Y-7399132D01*
G01X389968Y-7420996D01*
G01X384443Y-7444008D01*
G01X382586Y-7467600D01*
G01X35814Y-7467600D01*
G01X35814Y-7239000D01*
G01X3000584Y-7239000D01*
G01X3002511Y-7254870D01*
G01X3008179Y-7269818D01*
G01X3017261Y-7282974D01*
G01X3029227Y-7293575D01*
G01X3043382Y-7301005D01*
G01X3058904Y-7304831D01*
G01X3074891Y-7304831D01*
G01X3090413Y-7301005D01*
G01X3104568Y-7293575D01*
G01X3116534Y-7282974D01*
G01X3125616Y-7269818D01*
G01X3131285Y-7254870D01*
G01X3133212Y-7239000D01*
G01X3131285Y-7223130D01*
G01X3125616Y-7208182D01*
G01X3122049Y-7203015D01*
G01X11655017Y-7203015D01*
G01X11656944Y-7218885D01*
G01X11662612Y-7233833D01*
G01X11671694Y-7246989D01*
G01X11683660Y-7257590D01*
G01X11697815Y-7265020D01*
G01X11713337Y-7268846D01*
G01X11729324Y-7268846D01*
G01X11744846Y-7265020D01*
G01X11759001Y-7257590D01*
G01X11770967Y-7246989D01*
G01X11780049Y-7233833D01*
G01X11785718Y-7218885D01*
G01X11787645Y-7203015D01*
G01X11785718Y-7187145D01*
G01X11780049Y-7172197D01*
G01X11770967Y-7159041D01*
G01X11759001Y-7148440D01*
G01X11744846Y-7141010D01*
G01X11729324Y-7137184D01*
G01X11713337Y-7137184D01*
G01X11697815Y-7141010D01*
G01X11683660Y-7148440D01*
G01X11671694Y-7159041D01*
G01X11662612Y-7172197D01*
G01X11656944Y-7187145D01*
G01X11655017Y-7203015D01*
G01X11655017Y-7203015D01*
G01X3122049Y-7203015D01*
G01X3116534Y-7195026D01*
G01X3104568Y-7184425D01*
G01X3090413Y-7176995D01*
G01X3074891Y-7173169D01*
G01X3058904Y-7173169D01*
G01X3043382Y-7176995D01*
G01X3029227Y-7184425D01*
G01X3017261Y-7195026D01*
G01X3008179Y-7208182D01*
G01X3002511Y-7223130D01*
G01X3000584Y-7239000D01*
G01X3000584Y-7239000D01*
G01X35814Y-7239000D01*
G01X35814Y-6959600D01*
G01X382586Y-6959600D01*
G01X384443Y-6983192D01*
G01X389968Y-7006204D01*
G01X399024Y-7028068D01*
G01X411389Y-7048246D01*
G01X426759Y-7066241D01*
G01X444754Y-7081611D01*
G01X464932Y-7093976D01*
G01X486796Y-7103032D01*
G01X509808Y-7108557D01*
G01X533400Y-7110414D01*
G01X556992Y-7108557D01*
G01X580004Y-7103032D01*
G01X601868Y-7093976D01*
G01X622046Y-7081611D01*
G01X640041Y-7066241D01*
G01X655411Y-7048246D01*
G01X667776Y-7028068D01*
G01X676832Y-7006204D01*
G01X682357Y-6983192D01*
G01X684214Y-6959600D01*
G01X682357Y-6936008D01*
G01X676832Y-6912996D01*
G01X667776Y-6891132D01*
G01X655411Y-6870954D01*
G01X640041Y-6852959D01*
G01X622046Y-6837589D01*
G01X601868Y-6825224D01*
G01X580004Y-6816168D01*
G01X556992Y-6810643D01*
G01X539706Y-6809283D01*
G01X1244569Y-6809283D01*
G01X1246496Y-6825153D01*
G01X1252165Y-6840100D01*
G01X1261247Y-6853257D01*
G01X1273213Y-6863858D01*
G01X1287368Y-6871287D01*
G01X1302890Y-6875113D01*
G01X1318877Y-6875113D01*
G01X1334399Y-6871287D01*
G01X1348554Y-6863858D01*
G01X1360520Y-6853257D01*
G01X1362483Y-6850414D01*
G01X11655067Y-6850414D01*
G01X11656994Y-6866284D01*
G01X11662663Y-6881231D01*
G01X11671745Y-6894388D01*
G01X11683711Y-6904989D01*
G01X11697866Y-6912418D01*
G01X11713388Y-6916244D01*
G01X11729375Y-6916244D01*
G01X11744897Y-6912418D01*
G01X11759052Y-6904989D01*
G01X11771018Y-6894388D01*
G01X11780100Y-6881231D01*
G01X11785769Y-6866284D01*
G01X11787696Y-6850414D01*
G01X11785769Y-6834544D01*
G01X11780100Y-6819596D01*
G01X11771018Y-6806439D01*
G01X11759052Y-6795838D01*
G01X11744897Y-6788409D01*
G01X11729375Y-6784583D01*
G01X11713388Y-6784583D01*
G01X11697866Y-6788409D01*
G01X11683711Y-6795838D01*
G01X11671745Y-6806439D01*
G01X11662663Y-6819596D01*
G01X11656994Y-6834544D01*
G01X11655067Y-6850414D01*
G01X11655067Y-6850414D01*
G01X1362483Y-6850414D01*
G01X1369602Y-6840100D01*
G01X1375270Y-6825153D01*
G01X1377197Y-6809283D01*
G01X1375270Y-6793413D01*
G01X1369602Y-6778465D01*
G01X1360520Y-6765308D01*
G01X1348554Y-6754707D01*
G01X1334399Y-6747278D01*
G01X1318877Y-6743452D01*
G01X1302890Y-6743452D01*
G01X1287368Y-6747278D01*
G01X1273213Y-6754707D01*
G01X1261247Y-6765308D01*
G01X1252165Y-6778465D01*
G01X1246496Y-6793413D01*
G01X1244569Y-6809283D01*
G01X1244569Y-6809283D01*
G01X539706Y-6809283D01*
G01X533400Y-6808786D01*
G01X533400Y-6808786D01*
G01X509808Y-6810643D01*
G01X486796Y-6816168D01*
G01X464932Y-6825224D01*
G01X444754Y-6837589D01*
G01X426759Y-6852959D01*
G01X411389Y-6870954D01*
G01X399024Y-6891132D01*
G01X389968Y-6912996D01*
G01X384443Y-6936008D01*
G01X382586Y-6959600D01*
G01X35814Y-6959600D01*
G01X35814Y-6497821D01*
G01X11655067Y-6497821D01*
G01X11656994Y-6513691D01*
G01X11662663Y-6528639D01*
G01X11671745Y-6541795D01*
G01X11683711Y-6552396D01*
G01X11697866Y-6559826D01*
G01X11713388Y-6563651D01*
G01X11729375Y-6563651D01*
G01X11744897Y-6559826D01*
G01X11759052Y-6552396D01*
G01X11771018Y-6541795D01*
G01X11780100Y-6528639D01*
G01X11785769Y-6513691D01*
G01X11787696Y-6497821D01*
G01X11785769Y-6481951D01*
G01X11780100Y-6467003D01*
G01X11771018Y-6453847D01*
G01X11759052Y-6443245D01*
G01X11744897Y-6435816D01*
G01X11729375Y-6431990D01*
G01X11713388Y-6431990D01*
G01X11697866Y-6435816D01*
G01X11683711Y-6443245D01*
G01X11671745Y-6453847D01*
G01X11662663Y-6467003D01*
G01X11656994Y-6481951D01*
G01X11655067Y-6497821D01*
G01X11655067Y-6497821D01*
G01X35814Y-6497821D01*
G01X35814Y-6286500D01*
G01X369886Y-6286500D01*
G01X371743Y-6310092D01*
G01X377268Y-6333104D01*
G01X386324Y-6354968D01*
G01X398689Y-6375146D01*
G01X414059Y-6393141D01*
G01X432054Y-6408511D01*
G01X452232Y-6420876D01*
G01X474096Y-6429932D01*
G01X497108Y-6435457D01*
G01X520700Y-6437314D01*
G01X544292Y-6435457D01*
G01X567304Y-6429932D01*
G01X589168Y-6420876D01*
G01X609346Y-6408511D01*
G01X627341Y-6393141D01*
G01X642711Y-6375146D01*
G01X655076Y-6354968D01*
G01X664132Y-6333104D01*
G01X669657Y-6310092D01*
G01X671514Y-6286500D01*
G01X669657Y-6262908D01*
G01X664132Y-6239896D01*
G01X655076Y-6218032D01*
G01X646353Y-6203798D01*
G01X1711683Y-6203798D01*
G01X1713609Y-6219668D01*
G01X1719278Y-6234615D01*
G01X1728360Y-6247772D01*
G01X1740326Y-6258373D01*
G01X1754481Y-6265802D01*
G01X1770003Y-6269628D01*
G01X1785990Y-6269628D01*
G01X1801512Y-6265802D01*
G01X1815667Y-6258373D01*
G01X1827633Y-6247772D01*
G01X1836715Y-6234615D01*
G01X1842383Y-6219668D01*
G01X1844310Y-6203798D01*
G01X1842383Y-6187928D01*
G01X1836715Y-6172980D01*
G01X1827633Y-6159823D01*
G01X1815667Y-6149222D01*
G01X1801512Y-6141793D01*
G01X1785990Y-6137967D01*
G01X1770003Y-6137967D01*
G01X1754481Y-6141793D01*
G01X1740326Y-6149222D01*
G01X1728360Y-6159823D01*
G01X1719278Y-6172980D01*
G01X1713609Y-6187928D01*
G01X1711683Y-6203798D01*
G01X1711683Y-6203798D01*
G01X646353Y-6203798D01*
G01X642711Y-6197854D01*
G01X627341Y-6179859D01*
G01X609346Y-6164489D01*
G01X589168Y-6152124D01*
G01X567304Y-6143068D01*
G01X544292Y-6137543D01*
G01X520700Y-6135686D01*
G01X520700Y-6135686D01*
G01X497108Y-6137543D01*
G01X474096Y-6143068D01*
G01X452232Y-6152124D01*
G01X432054Y-6164489D01*
G01X414059Y-6179859D01*
G01X398689Y-6197854D01*
G01X386324Y-6218032D01*
G01X377268Y-6239896D01*
G01X371743Y-6262908D01*
G01X369886Y-6286500D01*
G01X35814Y-6286500D01*
G01X35814Y-6130799D01*
G01X1241787Y-6130799D01*
G01X1243714Y-6146669D01*
G01X1249383Y-6161617D01*
G01X1258464Y-6174774D01*
G01X1270431Y-6185375D01*
G01X1284586Y-6192804D01*
G01X1300108Y-6196630D01*
G01X1316095Y-6196630D01*
G01X1331617Y-6192804D01*
G01X1345772Y-6185375D01*
G01X1357738Y-6174774D01*
G01X1366819Y-6161617D01*
G01X1372488Y-6146669D01*
G01X1374415Y-6130799D01*
G01X1372488Y-6114929D01*
G01X1367660Y-6102198D01*
G01X1813282Y-6102198D01*
G01X1815209Y-6118068D01*
G01X1820878Y-6133015D01*
G01X1829959Y-6146172D01*
G01X1841926Y-6156773D01*
G01X1856081Y-6164202D01*
G01X1871603Y-6168028D01*
G01X1887589Y-6168028D01*
G01X1903111Y-6164202D01*
G01X1917267Y-6156773D01*
G01X1929233Y-6146172D01*
G01X1938314Y-6133015D01*
G01X1943983Y-6118068D01*
G01X1945910Y-6102198D01*
G01X1944730Y-6092478D01*
G01X6516673Y-6092478D01*
G01X6518600Y-6108348D01*
G01X6524269Y-6123296D01*
G01X6533350Y-6136453D01*
G01X6545316Y-6147054D01*
G01X6559472Y-6154483D01*
G01X6574994Y-6158309D01*
G01X6590980Y-6158309D01*
G01X6606502Y-6154483D01*
G01X6620657Y-6147054D01*
G01X6632624Y-6136453D01*
G01X6641705Y-6123296D01*
G01X6647374Y-6108348D01*
G01X6649301Y-6092478D01*
G01X6648727Y-6087750D01*
G01X6842072Y-6087750D01*
G01X6843999Y-6103620D01*
G01X6849668Y-6118568D01*
G01X6858750Y-6131725D01*
G01X6870716Y-6142326D01*
G01X6884871Y-6149755D01*
G01X6900393Y-6153581D01*
G01X6916379Y-6153581D01*
G01X6931901Y-6149755D01*
G01X6940526Y-6145228D01*
G01X11655067Y-6145228D01*
G01X11656994Y-6161098D01*
G01X11662663Y-6176046D01*
G01X11671745Y-6189203D01*
G01X11683711Y-6199804D01*
G01X11697866Y-6207233D01*
G01X11713388Y-6211059D01*
G01X11729375Y-6211059D01*
G01X11744897Y-6207233D01*
G01X11759052Y-6199804D01*
G01X11771018Y-6189203D01*
G01X11780100Y-6176046D01*
G01X11785769Y-6161098D01*
G01X11787696Y-6145228D01*
G01X11785769Y-6129358D01*
G01X11780100Y-6114411D01*
G01X11771018Y-6101254D01*
G01X11759052Y-6090653D01*
G01X11744897Y-6083224D01*
G01X11729375Y-6079398D01*
G01X11713388Y-6079398D01*
G01X11697866Y-6083224D01*
G01X11683711Y-6090653D01*
G01X11671745Y-6101254D01*
G01X11662663Y-6114411D01*
G01X11656994Y-6129358D01*
G01X11655067Y-6145228D01*
G01X11655067Y-6145228D01*
G01X6940526Y-6145228D01*
G01X6946057Y-6142326D01*
G01X6958023Y-6131725D01*
G01X6967104Y-6118568D01*
G01X6972773Y-6103620D01*
G01X6974700Y-6087750D01*
G01X6972773Y-6071880D01*
G01X6967104Y-6056933D01*
G01X6958023Y-6043776D01*
G01X6946057Y-6033175D01*
G01X6931901Y-6025746D01*
G01X6916379Y-6021920D01*
G01X6900393Y-6021920D01*
G01X6884871Y-6025746D01*
G01X6870716Y-6033175D01*
G01X6858750Y-6043776D01*
G01X6849668Y-6056933D01*
G01X6843999Y-6071880D01*
G01X6842072Y-6087750D01*
G01X6842072Y-6087750D01*
G01X6648727Y-6087750D01*
G01X6647374Y-6076608D01*
G01X6641705Y-6061661D01*
G01X6632624Y-6048504D01*
G01X6620657Y-6037903D01*
G01X6606502Y-6030474D01*
G01X6590980Y-6026648D01*
G01X6574994Y-6026648D01*
G01X6559472Y-6030474D01*
G01X6545316Y-6037903D01*
G01X6533350Y-6048504D01*
G01X6524269Y-6061661D01*
G01X6518600Y-6076608D01*
G01X6516673Y-6092478D01*
G01X6516673Y-6092478D01*
G01X1944730Y-6092478D01*
G01X1943983Y-6086328D01*
G01X1938314Y-6071380D01*
G01X1929233Y-6058224D01*
G01X1917267Y-6047623D01*
G01X1903111Y-6040193D01*
G01X1887589Y-6036367D01*
G01X1871603Y-6036367D01*
G01X1856081Y-6040193D01*
G01X1841926Y-6047623D01*
G01X1829959Y-6058224D01*
G01X1820878Y-6071380D01*
G01X1815209Y-6086328D01*
G01X1813282Y-6102198D01*
G01X1813282Y-6102198D01*
G01X1367660Y-6102198D01*
G01X1366819Y-6099982D01*
G01X1357738Y-6086825D01*
G01X1345772Y-6076224D01*
G01X1331617Y-6068795D01*
G01X1316095Y-6064969D01*
G01X1300108Y-6064969D01*
G01X1284586Y-6068795D01*
G01X1270431Y-6076224D01*
G01X1258464Y-6086825D01*
G01X1249383Y-6099982D01*
G01X1243714Y-6114929D01*
G01X1241787Y-6130799D01*
G01X1241787Y-6130799D01*
G01X35814Y-6130799D01*
G01X35814Y-5778500D01*
G01X369886Y-5778500D01*
G01X371743Y-5802092D01*
G01X377268Y-5825104D01*
G01X386324Y-5846968D01*
G01X398689Y-5867146D01*
G01X414059Y-5885141D01*
G01X432054Y-5900511D01*
G01X452232Y-5912876D01*
G01X474096Y-5921932D01*
G01X497108Y-5927457D01*
G01X520700Y-5929314D01*
G01X544292Y-5927457D01*
G01X567304Y-5921932D01*
G01X589168Y-5912876D01*
G01X609346Y-5900511D01*
G01X627341Y-5885141D01*
G01X642711Y-5867146D01*
G01X655076Y-5846968D01*
G01X664132Y-5825104D01*
G01X669657Y-5802092D01*
G01X671514Y-5778500D01*
G01X669657Y-5754908D01*
G01X664132Y-5731896D01*
G01X655076Y-5710032D01*
G01X650338Y-5702300D01*
G01X5369286Y-5702300D01*
G01X5371213Y-5718170D01*
G01X5376882Y-5733118D01*
G01X5385963Y-5746274D01*
G01X5397929Y-5756875D01*
G01X5412085Y-5764305D01*
G01X5427607Y-5768131D01*
G01X5443593Y-5768131D01*
G01X5459115Y-5764305D01*
G01X5467625Y-5759839D01*
G01X6221397Y-5759839D01*
G01X6224961Y-5775526D01*
G01X6232198Y-5789893D01*
G01X6242681Y-5802095D01*
G01X6255794Y-5811413D01*
G01X6270764Y-5817300D01*
G01X6286712Y-5819409D01*
G01X6286712Y-5819409D01*
G01X6302699Y-5817616D01*
G01X6317783Y-5812026D01*
G01X6331077Y-5802968D01*
G01X6341800Y-5790976D01*
G01X6349319Y-5776754D01*
G01X6353192Y-5761141D01*
G01X6353192Y-5745054D01*
G01X6349318Y-5729441D01*
G01X6341798Y-5715220D01*
G01X6331076Y-5703228D01*
G01X6332054Y-5702176D01*
G01X6500443Y-5702176D01*
G01X6501982Y-5716502D01*
G01X6506579Y-5730158D01*
G01X6514017Y-5742498D01*
G01X6523944Y-5752941D01*
G01X6514247Y-5765467D01*
G01X6507797Y-5779936D01*
G01X6504963Y-5795522D01*
G01X6505906Y-5811335D01*
G01X6510573Y-5826473D01*
G01X6518697Y-5840073D01*
G01X6529814Y-5851357D01*
G01X6543291Y-5859683D01*
G01X6558358Y-5864575D01*
G01X6574155Y-5865754D01*
G01X6574155Y-5865754D01*
G01X6589782Y-5863153D01*
G01X6604345Y-5856920D01*
G01X6617014Y-5847410D01*
G01X6627067Y-5835167D01*
G01X6633929Y-5820890D01*
G01X6637209Y-5805392D01*
G01X6636720Y-5789558D01*
G01X6632489Y-5774292D01*
G01X6624759Y-5760465D01*
G01X6624722Y-5760426D01*
G01X6855592Y-5760426D01*
G01X6857519Y-5776296D01*
G01X6863188Y-5791244D01*
G01X6872269Y-5804400D01*
G01X6884236Y-5815001D01*
G01X6898391Y-5822431D01*
G01X6913913Y-5826257D01*
G01X6929899Y-5826257D01*
G01X6945421Y-5822431D01*
G01X6959577Y-5815001D01*
G01X6971543Y-5804400D01*
G01X6976369Y-5797408D01*
G01X11667767Y-5797408D01*
G01X11669694Y-5813278D01*
G01X11675363Y-5828226D01*
G01X11684445Y-5841383D01*
G01X11696411Y-5851984D01*
G01X11710566Y-5859413D01*
G01X11726088Y-5863239D01*
G01X11742075Y-5863239D01*
G01X11757597Y-5859413D01*
G01X11771752Y-5851984D01*
G01X11783718Y-5841383D01*
G01X11792800Y-5828226D01*
G01X11798469Y-5813278D01*
G01X11800396Y-5797408D01*
G01X11798469Y-5781538D01*
G01X11792800Y-5766591D01*
G01X11783718Y-5753434D01*
G01X11771752Y-5742833D01*
G01X11757597Y-5735404D01*
G01X11742075Y-5731578D01*
G01X11726088Y-5731578D01*
G01X11710566Y-5735404D01*
G01X11696411Y-5742833D01*
G01X11684445Y-5753434D01*
G01X11675363Y-5766591D01*
G01X11669694Y-5781538D01*
G01X11667767Y-5797408D01*
G01X11667767Y-5797408D01*
G01X6976369Y-5797408D01*
G01X6980624Y-5791244D01*
G01X6986293Y-5776296D01*
G01X6988220Y-5760426D01*
G01X6986293Y-5744556D01*
G01X6980624Y-5729608D01*
G01X6971543Y-5716452D01*
G01X6963838Y-5709626D01*
G01X7019092Y-5709626D01*
G01X7021019Y-5725496D01*
G01X7026688Y-5740444D01*
G01X7035769Y-5753600D01*
G01X7047735Y-5764201D01*
G01X7061891Y-5771631D01*
G01X7077413Y-5775457D01*
G01X7093399Y-5775457D01*
G01X7108921Y-5771631D01*
G01X7123077Y-5764201D01*
G01X7135043Y-5753600D01*
G01X7144124Y-5740444D01*
G01X7149793Y-5725496D01*
G01X7151720Y-5709626D01*
G01X7149793Y-5693756D01*
G01X7144124Y-5678808D01*
G01X7135043Y-5665652D01*
G01X7123077Y-5655051D01*
G01X7108921Y-5647622D01*
G01X7093399Y-5643796D01*
G01X7077413Y-5643796D01*
G01X7061891Y-5647622D01*
G01X7047735Y-5655051D01*
G01X7035769Y-5665652D01*
G01X7026688Y-5678808D01*
G01X7021019Y-5693756D01*
G01X7019092Y-5709626D01*
G01X7019092Y-5709626D01*
G01X6963838Y-5709626D01*
G01X6959577Y-5705851D01*
G01X6945421Y-5698422D01*
G01X6929899Y-5694596D01*
G01X6913913Y-5694596D01*
G01X6898391Y-5698422D01*
G01X6884236Y-5705851D01*
G01X6872269Y-5716452D01*
G01X6863188Y-5729608D01*
G01X6857519Y-5744556D01*
G01X6855592Y-5760426D01*
G01X6855592Y-5760426D01*
G01X6624722Y-5760426D01*
G01X6613969Y-5748866D01*
G01X6623545Y-5736543D01*
G01X6629975Y-5722323D01*
G01X6632904Y-5706994D01*
G01X6632170Y-5691405D01*
G01X6627813Y-5676420D01*
G01X6620074Y-5662867D01*
G01X6609382Y-5651499D01*
G01X6620406Y-5639678D01*
G01X6628242Y-5625541D01*
G01X6632425Y-5609929D01*
G01X6632459Y-5608026D01*
G01X6881772Y-5608026D01*
G01X6883699Y-5623896D01*
G01X6889368Y-5638844D01*
G01X6898449Y-5652001D01*
G01X6910415Y-5662602D01*
G01X6924571Y-5670031D01*
G01X6940093Y-5673857D01*
G01X6956079Y-5673857D01*
G01X6971601Y-5670031D01*
G01X6985757Y-5662602D01*
G01X6997723Y-5652001D01*
G01X7006804Y-5638844D01*
G01X7012473Y-5623896D01*
G01X7014400Y-5608026D01*
G01X7012473Y-5592156D01*
G01X7006804Y-5577209D01*
G01X6997723Y-5564052D01*
G01X6985757Y-5553451D01*
G01X6971601Y-5546022D01*
G01X6956079Y-5542196D01*
G01X6940093Y-5542196D01*
G01X6924571Y-5546022D01*
G01X6910415Y-5553451D01*
G01X6898449Y-5564052D01*
G01X6889368Y-5577209D01*
G01X6883699Y-5592156D01*
G01X6881772Y-5608026D01*
G01X6881772Y-5608026D01*
G01X6632459Y-5608026D01*
G01X6632708Y-5593768D01*
G01X6629072Y-5578019D01*
G01X6621734Y-5563617D01*
G01X6611130Y-5551418D01*
G01X6597890Y-5542147D01*
G01X6582800Y-5536355D01*
G01X6566757Y-5534385D01*
G01X6550714Y-5536355D01*
G01X6535624Y-5542147D01*
G01X6522384Y-5551418D01*
G01X6511780Y-5563617D01*
G01X6504442Y-5578018D01*
G01X6500806Y-5593767D01*
G01X6501088Y-5609928D01*
G01X6505272Y-5625541D01*
G01X6513108Y-5639678D01*
G01X6524132Y-5651499D01*
G01X6514165Y-5661904D01*
G01X6506682Y-5674217D01*
G01X6502035Y-5687856D01*
G01X6500443Y-5702176D01*
G01X6332054Y-5702176D01*
G01X6342033Y-5691450D01*
G01X6349832Y-5677380D01*
G01X6354014Y-5661846D01*
G01X6354332Y-5645763D01*
G01X6350768Y-5630076D01*
G01X6343531Y-5615708D01*
G01X6333048Y-5603506D01*
G01X6319935Y-5594188D01*
G01X6304964Y-5588301D01*
G01X6289016Y-5586192D01*
G01X6273030Y-5587985D01*
G01X6257946Y-5593575D01*
G01X6244651Y-5602633D01*
G01X6233929Y-5614626D01*
G01X6226410Y-5628847D01*
G01X6222537Y-5644460D01*
G01X6222537Y-5660547D01*
G01X6226411Y-5676160D01*
G01X6233930Y-5690382D01*
G01X6244653Y-5702374D01*
G01X6233695Y-5714152D01*
G01X6225897Y-5728221D01*
G01X6221715Y-5743755D01*
G01X6221397Y-5759839D01*
G01X5467625Y-5759839D01*
G01X5473271Y-5756875D01*
G01X5485237Y-5746274D01*
G01X5494318Y-5733118D01*
G01X5499987Y-5718170D01*
G01X5501914Y-5702300D01*
G01X5499987Y-5686430D01*
G01X5494318Y-5671482D01*
G01X5485237Y-5658326D01*
G01X5473271Y-5647725D01*
G01X5459115Y-5640295D01*
G01X5443593Y-5636469D01*
G01X5427607Y-5636469D01*
G01X5412085Y-5640295D01*
G01X5397929Y-5647725D01*
G01X5385963Y-5658326D01*
G01X5376882Y-5671482D01*
G01X5371213Y-5686430D01*
G01X5369286Y-5702300D01*
G01X5369286Y-5702300D01*
G01X650338Y-5702300D01*
G01X642711Y-5689854D01*
G01X627341Y-5671859D01*
G01X609346Y-5656489D01*
G01X589168Y-5644124D01*
G01X567304Y-5635068D01*
G01X544292Y-5629543D01*
G01X520700Y-5627686D01*
G01X520700Y-5627686D01*
G01X497108Y-5629543D01*
G01X474096Y-5635068D01*
G01X452232Y-5644124D01*
G01X432054Y-5656489D01*
G01X414059Y-5671859D01*
G01X398689Y-5689854D01*
G01X386324Y-5710032D01*
G01X377268Y-5731896D01*
G01X371743Y-5754908D01*
G01X369886Y-5778500D01*
G01X35814Y-5778500D01*
G01X35814Y-5626964D01*
G01X1241786Y-5626964D01*
G01X1243713Y-5642834D01*
G01X1249382Y-5657781D01*
G01X1258463Y-5670938D01*
G01X1270429Y-5681539D01*
G01X1284585Y-5688968D01*
G01X1300107Y-5692794D01*
G01X1316093Y-5692794D01*
G01X1331615Y-5688968D01*
G01X1345771Y-5681539D01*
G01X1357737Y-5670938D01*
G01X1366818Y-5657781D01*
G01X1372487Y-5642834D01*
G01X1374414Y-5626964D01*
G01X1372487Y-5611094D01*
G01X1366818Y-5596146D01*
G01X1361195Y-5588000D01*
G01X5254986Y-5588000D01*
G01X5256913Y-5603870D01*
G01X5262582Y-5618818D01*
G01X5271663Y-5631974D01*
G01X5283629Y-5642575D01*
G01X5297785Y-5650005D01*
G01X5313307Y-5653831D01*
G01X5329293Y-5653831D01*
G01X5344815Y-5650005D01*
G01X5358971Y-5642575D01*
G01X5370937Y-5631974D01*
G01X5380018Y-5618818D01*
G01X5385687Y-5603870D01*
G01X5387614Y-5588000D01*
G01X5385687Y-5572130D01*
G01X5380018Y-5557182D01*
G01X5370937Y-5544026D01*
G01X5358971Y-5533425D01*
G01X5344815Y-5525995D01*
G01X5329293Y-5522169D01*
G01X5313307Y-5522169D01*
G01X5297785Y-5525995D01*
G01X5283629Y-5533425D01*
G01X5271663Y-5544026D01*
G01X5262582Y-5557182D01*
G01X5256913Y-5572130D01*
G01X5254986Y-5588000D01*
G01X5254986Y-5588000D01*
G01X1361195Y-5588000D01*
G01X1357737Y-5582989D01*
G01X1345771Y-5572388D01*
G01X1331615Y-5564959D01*
G01X1316093Y-5561133D01*
G01X1300107Y-5561133D01*
G01X1284585Y-5564959D01*
G01X1270429Y-5572388D01*
G01X1258463Y-5582989D01*
G01X1249382Y-5596146D01*
G01X1243713Y-5611094D01*
G01X1241786Y-5626964D01*
G01X1241786Y-5626964D01*
G01X35814Y-5626964D01*
G01X35814Y-5478089D01*
G01X2596238Y-5478089D01*
G01X2598165Y-5493959D01*
G01X2603834Y-5508907D01*
G01X2612916Y-5522063D01*
G01X2624882Y-5532664D01*
G01X2639037Y-5540094D01*
G01X2654559Y-5543920D01*
G01X2670545Y-5543920D01*
G01X2686067Y-5540094D01*
G01X2700223Y-5532664D01*
G01X2712189Y-5522063D01*
G01X2721270Y-5508907D01*
G01X2726939Y-5493959D01*
G01X2728866Y-5478089D01*
G01X3129637Y-5478089D01*
G01X3131564Y-5493959D01*
G01X3137233Y-5508907D01*
G01X3146314Y-5522063D01*
G01X3158280Y-5532664D01*
G01X3172436Y-5540094D01*
G01X3187958Y-5543920D01*
G01X3203944Y-5543920D01*
G01X3219466Y-5540094D01*
G01X3233622Y-5532664D01*
G01X3245588Y-5522063D01*
G01X3254669Y-5508907D01*
G01X3260338Y-5493959D01*
G01X3262265Y-5478089D01*
G01X3260338Y-5462219D01*
G01X3255059Y-5448300D01*
G01X5115286Y-5448300D01*
G01X5117213Y-5464170D01*
G01X5122882Y-5479118D01*
G01X5131963Y-5492274D01*
G01X5143929Y-5502875D01*
G01X5158085Y-5510305D01*
G01X5173607Y-5514131D01*
G01X5189593Y-5514131D01*
G01X5205115Y-5510305D01*
G01X5219271Y-5502875D01*
G01X5231237Y-5492274D01*
G01X5240318Y-5479118D01*
G01X5245987Y-5464170D01*
G01X5247914Y-5448300D01*
G01X5245987Y-5432430D01*
G01X5241333Y-5420159D01*
G01X6566693Y-5420159D01*
G01X6568620Y-5436029D01*
G01X6574289Y-5450977D01*
G01X6583370Y-5464133D01*
G01X6595336Y-5474734D01*
G01X6609492Y-5482164D01*
G01X6625014Y-5485990D01*
G01X6641000Y-5485990D01*
G01X6656522Y-5482164D01*
G01X6670677Y-5474734D01*
G01X6682643Y-5464133D01*
G01X6690056Y-5453394D01*
G01X11670646Y-5453394D01*
G01X11672573Y-5469264D01*
G01X11678242Y-5484212D01*
G01X11687323Y-5497368D01*
G01X11699290Y-5507969D01*
G01X11713445Y-5515399D01*
G01X11728967Y-5519225D01*
G01X11744954Y-5519225D01*
G01X11760476Y-5515399D01*
G01X11774631Y-5507969D01*
G01X11786597Y-5497368D01*
G01X11795678Y-5484212D01*
G01X11801347Y-5469264D01*
G01X11803274Y-5453394D01*
G01X11801347Y-5437524D01*
G01X11795678Y-5422576D01*
G01X11786597Y-5409420D01*
G01X11774631Y-5398819D01*
G01X11760476Y-5391389D01*
G01X11744954Y-5387563D01*
G01X11728967Y-5387563D01*
G01X11713445Y-5391389D01*
G01X11699290Y-5398819D01*
G01X11687323Y-5409420D01*
G01X11678242Y-5422576D01*
G01X11672573Y-5437524D01*
G01X11670646Y-5453394D01*
G01X11670646Y-5453394D01*
G01X6690056Y-5453394D01*
G01X6691725Y-5450977D01*
G01X6697394Y-5436029D01*
G01X6699321Y-5420159D01*
G01X6697394Y-5404289D01*
G01X6691725Y-5389341D01*
G01X6682643Y-5376185D01*
G01X6670677Y-5365584D01*
G01X6656522Y-5358154D01*
G01X6641000Y-5354329D01*
G01X6625014Y-5354329D01*
G01X6609492Y-5358154D01*
G01X6595336Y-5365584D01*
G01X6583370Y-5376185D01*
G01X6574289Y-5389341D01*
G01X6568620Y-5404289D01*
G01X6566693Y-5420159D01*
G01X6566693Y-5420159D01*
G01X5241333Y-5420159D01*
G01X5240318Y-5417482D01*
G01X5231237Y-5404326D01*
G01X5219271Y-5393725D01*
G01X5205115Y-5386295D01*
G01X5189593Y-5382469D01*
G01X5173607Y-5382469D01*
G01X5158085Y-5386295D01*
G01X5143929Y-5393725D01*
G01X5131963Y-5404326D01*
G01X5122882Y-5417482D01*
G01X5117213Y-5432430D01*
G01X5115286Y-5448300D01*
G01X5115286Y-5448300D01*
G01X3255059Y-5448300D01*
G01X3254669Y-5447271D01*
G01X3245588Y-5434115D01*
G01X3233622Y-5423514D01*
G01X3219466Y-5416085D01*
G01X3203944Y-5412259D01*
G01X3187958Y-5412259D01*
G01X3172436Y-5416085D01*
G01X3158280Y-5423514D01*
G01X3146314Y-5434115D01*
G01X3137233Y-5447271D01*
G01X3131564Y-5462219D01*
G01X3129637Y-5478089D01*
G01X3129637Y-5478089D01*
G01X2728866Y-5478089D01*
G01X2726939Y-5462219D01*
G01X2721270Y-5447271D01*
G01X2712189Y-5434115D01*
G01X2700223Y-5423514D01*
G01X2686067Y-5416085D01*
G01X2670545Y-5412259D01*
G01X2654559Y-5412259D01*
G01X2639037Y-5416085D01*
G01X2624882Y-5423514D01*
G01X2612916Y-5434115D01*
G01X2603834Y-5447271D01*
G01X2598165Y-5462219D01*
G01X2596238Y-5478089D01*
G01X2596238Y-5478089D01*
G01X35814Y-5478089D01*
G01X35814Y-5270500D01*
G01X369886Y-5270500D01*
G01X371743Y-5294092D01*
G01X377268Y-5317104D01*
G01X386324Y-5338968D01*
G01X398689Y-5359146D01*
G01X414059Y-5377141D01*
G01X432054Y-5392511D01*
G01X452232Y-5404876D01*
G01X474096Y-5413932D01*
G01X497108Y-5419457D01*
G01X520700Y-5421314D01*
G01X544292Y-5419457D01*
G01X567304Y-5413932D01*
G01X589168Y-5404876D01*
G01X609346Y-5392511D01*
G01X627341Y-5377141D01*
G01X642711Y-5359146D01*
G01X655076Y-5338968D01*
G01X664132Y-5317104D01*
G01X669657Y-5294092D01*
G01X671514Y-5270500D01*
G01X669657Y-5246908D01*
G01X664132Y-5223896D01*
G01X655076Y-5202032D01*
G01X642711Y-5181854D01*
G01X627341Y-5163859D01*
G01X609346Y-5148489D01*
G01X589168Y-5136124D01*
G01X567304Y-5127068D01*
G01X544292Y-5121543D01*
G01X520700Y-5119686D01*
G01X520700Y-5119686D01*
G01X497108Y-5121543D01*
G01X474096Y-5127068D01*
G01X452232Y-5136124D01*
G01X432054Y-5148489D01*
G01X414059Y-5163859D01*
G01X398689Y-5181854D01*
G01X386324Y-5202032D01*
G01X377268Y-5223896D01*
G01X371743Y-5246908D01*
G01X369886Y-5270500D01*
G01X35814Y-5270500D01*
G01X35814Y-5114799D01*
G01X1241787Y-5114799D01*
G01X1243714Y-5130669D01*
G01X1249383Y-5145617D01*
G01X1258464Y-5158774D01*
G01X1270431Y-5169375D01*
G01X1284586Y-5176804D01*
G01X1300108Y-5180630D01*
G01X1316095Y-5180630D01*
G01X1331617Y-5176804D01*
G01X1345772Y-5169375D01*
G01X1346308Y-5168900D01*
G01X6449643Y-5168900D01*
G01X6451570Y-5184770D01*
G01X6457239Y-5199717D01*
G01X6466320Y-5212874D01*
G01X6478286Y-5223475D01*
G01X6492442Y-5230904D01*
G01X6507964Y-5234730D01*
G01X6523950Y-5234730D01*
G01X6539472Y-5230904D01*
G01X6553628Y-5223475D01*
G01X6565594Y-5212874D01*
G01X6574675Y-5199717D01*
G01X6580344Y-5184770D01*
G01X6581381Y-5176227D01*
G01X7351671Y-5176227D01*
G01X7353598Y-5192097D01*
G01X7359267Y-5207045D01*
G01X7368348Y-5220201D01*
G01X7380315Y-5230802D01*
G01X7394470Y-5238232D01*
G01X7409992Y-5242058D01*
G01X7425978Y-5242058D01*
G01X7441500Y-5238232D01*
G01X7455656Y-5230802D01*
G01X7467622Y-5220201D01*
G01X7476703Y-5207045D01*
G01X7482372Y-5192097D01*
G01X7484299Y-5176227D01*
G01X7482372Y-5160357D01*
G01X7476703Y-5145410D01*
G01X7467622Y-5132253D01*
G01X7455656Y-5121652D01*
G01X7441500Y-5114223D01*
G01X7425978Y-5110397D01*
G01X7409992Y-5110397D01*
G01X7394470Y-5114223D01*
G01X7380315Y-5121652D01*
G01X7368348Y-5132253D01*
G01X7359267Y-5145410D01*
G01X7353598Y-5160357D01*
G01X7351671Y-5176227D01*
G01X7351671Y-5176227D01*
G01X6581381Y-5176227D01*
G01X6582271Y-5168900D01*
G01X6580344Y-5153030D01*
G01X6574675Y-5138082D01*
G01X6565594Y-5124925D01*
G01X6553628Y-5114324D01*
G01X6539472Y-5106895D01*
G01X6523950Y-5103069D01*
G01X6507964Y-5103069D01*
G01X6492442Y-5106895D01*
G01X6478286Y-5114324D01*
G01X6466320Y-5124925D01*
G01X6457239Y-5138082D01*
G01X6451570Y-5153030D01*
G01X6449643Y-5168900D01*
G01X6449643Y-5168900D01*
G01X1346308Y-5168900D01*
G01X1357738Y-5158774D01*
G01X1366819Y-5145617D01*
G01X1372488Y-5130669D01*
G01X1374415Y-5114799D01*
G01X1372488Y-5098929D01*
G01X1366819Y-5083982D01*
G01X1357738Y-5070825D01*
G01X1345772Y-5060224D01*
G01X1331617Y-5052795D01*
G01X1316095Y-5048969D01*
G01X1300108Y-5048969D01*
G01X1284586Y-5052795D01*
G01X1270431Y-5060224D01*
G01X1258464Y-5070825D01*
G01X1249383Y-5083982D01*
G01X1243714Y-5098929D01*
G01X1241787Y-5114799D01*
G01X1241787Y-5114799D01*
G01X35814Y-5114799D01*
G01X35814Y-5041900D01*
G01X3000584Y-5041900D01*
G01X3002511Y-5057770D01*
G01X3008179Y-5072718D01*
G01X3017261Y-5085874D01*
G01X3029227Y-5096475D01*
G01X3043382Y-5103905D01*
G01X3058904Y-5107731D01*
G01X3074891Y-5107731D01*
G01X3090413Y-5103905D01*
G01X3097801Y-5100027D01*
G01X7515991Y-5100027D01*
G01X7517918Y-5115897D01*
G01X7523587Y-5130845D01*
G01X7532668Y-5144001D01*
G01X7544635Y-5154602D01*
G01X7558790Y-5162032D01*
G01X7574312Y-5165858D01*
G01X7590298Y-5165858D01*
G01X7605820Y-5162032D01*
G01X7619976Y-5154602D01*
G01X7631942Y-5144001D01*
G01X7641023Y-5130845D01*
G01X7646692Y-5115897D01*
G01X7648619Y-5100027D01*
G01X7646692Y-5084157D01*
G01X7641023Y-5069210D01*
G01X7631942Y-5056053D01*
G01X7619976Y-5045452D01*
G01X7605820Y-5038023D01*
G01X7590298Y-5034197D01*
G01X7574312Y-5034197D01*
G01X7558790Y-5038023D01*
G01X7544635Y-5045452D01*
G01X7532668Y-5056053D01*
G01X7523587Y-5069210D01*
G01X7517918Y-5084157D01*
G01X7515991Y-5100027D01*
G01X7515991Y-5100027D01*
G01X3097801Y-5100027D01*
G01X3104568Y-5096475D01*
G01X3116534Y-5085874D01*
G01X3125616Y-5072718D01*
G01X3131285Y-5057770D01*
G01X3133212Y-5041900D01*
G01X3131285Y-5026030D01*
G01X3125616Y-5011082D01*
G01X3116534Y-4997926D01*
G01X3104568Y-4987325D01*
G01X3090413Y-4979895D01*
G01X3074891Y-4976069D01*
G01X3058904Y-4976069D01*
G01X3043382Y-4979895D01*
G01X3029227Y-4987325D01*
G01X3017261Y-4997926D01*
G01X3008179Y-5011082D01*
G01X3002511Y-5026030D01*
G01X3000584Y-5041900D01*
G01X3000584Y-5041900D01*
G01X35814Y-5041900D01*
G01X35814Y-4762500D01*
G01X369886Y-4762500D01*
G01X371743Y-4786092D01*
G01X377268Y-4809104D01*
G01X386324Y-4830968D01*
G01X398689Y-4851146D01*
G01X414059Y-4869141D01*
G01X432054Y-4884511D01*
G01X452232Y-4896876D01*
G01X474096Y-4905932D01*
G01X497108Y-4911457D01*
G01X520700Y-4913314D01*
G01X535359Y-4912160D01*
G01X6566693Y-4912160D01*
G01X6568620Y-4928030D01*
G01X6574289Y-4942978D01*
G01X6583370Y-4956134D01*
G01X6595336Y-4966735D01*
G01X6609492Y-4974165D01*
G01X6625014Y-4977991D01*
G01X6641000Y-4977991D01*
G01X6656522Y-4974165D01*
G01X6670677Y-4966735D01*
G01X6682643Y-4956134D01*
G01X6691725Y-4942978D01*
G01X6697394Y-4928030D01*
G01X6697446Y-4927600D01*
G01X6912482Y-4927600D01*
G01X6914409Y-4943470D01*
G01X6920078Y-4958418D01*
G01X6929159Y-4971575D01*
G01X6941125Y-4982176D01*
G01X6955281Y-4989605D01*
G01X6970803Y-4993431D01*
G01X6986789Y-4993431D01*
G01X7002311Y-4989605D01*
G01X7016467Y-4982176D01*
G01X7028433Y-4971575D01*
G01X7037514Y-4958418D01*
G01X7043183Y-4943470D01*
G01X7045110Y-4927600D01*
G01X7043183Y-4911730D01*
G01X7037514Y-4896783D01*
G01X7028433Y-4883626D01*
G01X7016467Y-4873025D01*
G01X7002311Y-4865596D01*
G01X6986789Y-4861770D01*
G01X6970803Y-4861770D01*
G01X6955281Y-4865596D01*
G01X6941125Y-4873025D01*
G01X6929159Y-4883626D01*
G01X6920078Y-4896783D01*
G01X6914409Y-4911730D01*
G01X6912482Y-4927600D01*
G01X6912482Y-4927600D01*
G01X6697446Y-4927600D01*
G01X6699321Y-4912160D01*
G01X6697394Y-4896290D01*
G01X6691725Y-4881342D01*
G01X6682643Y-4868186D01*
G01X6670677Y-4857585D01*
G01X6656522Y-4850155D01*
G01X6641000Y-4846330D01*
G01X6625014Y-4846330D01*
G01X6609492Y-4850155D01*
G01X6595336Y-4857585D01*
G01X6583370Y-4868186D01*
G01X6574289Y-4881342D01*
G01X6568620Y-4896290D01*
G01X6566693Y-4912160D01*
G01X6566693Y-4912160D01*
G01X535359Y-4912160D01*
G01X544292Y-4911457D01*
G01X567304Y-4905932D01*
G01X589168Y-4896876D01*
G01X609346Y-4884511D01*
G01X627341Y-4869141D01*
G01X642711Y-4851146D01*
G01X655076Y-4830968D01*
G01X664132Y-4809104D01*
G01X669657Y-4786092D01*
G01X671514Y-4762500D01*
G01X670514Y-4749801D01*
G01X6912482Y-4749801D01*
G01X6914409Y-4765671D01*
G01X6920078Y-4780618D01*
G01X6929159Y-4793775D01*
G01X6941125Y-4804376D01*
G01X6955281Y-4811805D01*
G01X6970803Y-4815631D01*
G01X6986789Y-4815631D01*
G01X7002311Y-4811805D01*
G01X7016467Y-4804376D01*
G01X7028433Y-4793775D01*
G01X7037514Y-4780618D01*
G01X7043183Y-4765671D01*
G01X7045110Y-4749801D01*
G01X7043183Y-4733931D01*
G01X7037514Y-4718983D01*
G01X7028433Y-4705826D01*
G01X7016467Y-4695225D01*
G01X7002311Y-4687796D01*
G01X6986789Y-4683970D01*
G01X6970803Y-4683970D01*
G01X6955281Y-4687796D01*
G01X6941125Y-4695225D01*
G01X6929159Y-4705826D01*
G01X6920078Y-4718983D01*
G01X6914409Y-4733931D01*
G01X6912482Y-4749801D01*
G01X6912482Y-4749801D01*
G01X670514Y-4749801D01*
G01X669657Y-4738908D01*
G01X664132Y-4715896D01*
G01X655076Y-4694032D01*
G01X642711Y-4673854D01*
G01X642495Y-4673601D01*
G01X7122752Y-4673601D01*
G01X7124679Y-4689471D01*
G01X7130348Y-4704418D01*
G01X7139429Y-4717575D01*
G01X7151395Y-4728176D01*
G01X7165550Y-4735605D01*
G01X7181072Y-4739431D01*
G01X7197059Y-4739431D01*
G01X7212581Y-4735605D01*
G01X7226736Y-4728176D01*
G01X7238702Y-4717575D01*
G01X7247784Y-4704418D01*
G01X7253453Y-4689471D01*
G01X7255380Y-4673601D01*
G01X7440251Y-4673601D01*
G01X7442178Y-4689471D01*
G01X7447847Y-4704418D01*
G01X7456928Y-4717575D01*
G01X7468894Y-4728176D01*
G01X7483050Y-4735605D01*
G01X7498572Y-4739431D01*
G01X7514558Y-4739431D01*
G01X7530080Y-4735605D01*
G01X7544235Y-4728176D01*
G01X7556202Y-4717575D01*
G01X7565283Y-4704418D01*
G01X7570952Y-4689471D01*
G01X7572879Y-4673601D01*
G01X7570952Y-4657731D01*
G01X7565283Y-4642783D01*
G01X7560256Y-4635500D01*
G01X11710986Y-4635500D01*
G01X11712843Y-4659092D01*
G01X11718368Y-4682104D01*
G01X11727424Y-4703968D01*
G01X11739789Y-4724146D01*
G01X11755159Y-4742141D01*
G01X11773154Y-4757511D01*
G01X11793332Y-4769876D01*
G01X11815196Y-4778932D01*
G01X11838208Y-4784457D01*
G01X11861800Y-4786314D01*
G01X11861800Y-4786314D01*
G01X11885392Y-4784457D01*
G01X11908404Y-4778932D01*
G01X11930268Y-4769876D01*
G01X11950446Y-4757511D01*
G01X11968441Y-4742141D01*
G01X11983811Y-4724146D01*
G01X11996176Y-4703968D01*
G01X12005232Y-4682104D01*
G01X12010757Y-4659092D01*
G01X12012614Y-4635500D01*
G01X12010757Y-4611908D01*
G01X12005232Y-4588896D01*
G01X11996176Y-4567032D01*
G01X11983811Y-4546854D01*
G01X11968441Y-4528859D01*
G01X11950446Y-4513489D01*
G01X11930268Y-4501124D01*
G01X11908404Y-4492068D01*
G01X11885392Y-4486543D01*
G01X11861800Y-4484686D01*
G01X11838208Y-4486543D01*
G01X11815196Y-4492068D01*
G01X11793332Y-4501124D01*
G01X11773154Y-4513489D01*
G01X11755159Y-4528859D01*
G01X11739789Y-4546854D01*
G01X11727424Y-4567032D01*
G01X11718368Y-4588896D01*
G01X11712843Y-4611908D01*
G01X11710986Y-4635500D01*
G01X7560256Y-4635500D01*
G01X7556202Y-4629626D01*
G01X7544235Y-4619025D01*
G01X7530080Y-4611596D01*
G01X7514558Y-4607770D01*
G01X7498572Y-4607770D01*
G01X7483050Y-4611596D01*
G01X7468894Y-4619025D01*
G01X7456928Y-4629626D01*
G01X7447847Y-4642783D01*
G01X7442178Y-4657731D01*
G01X7440251Y-4673601D01*
G01X7440251Y-4673601D01*
G01X7255380Y-4673601D01*
G01X7253453Y-4657731D01*
G01X7247784Y-4642783D01*
G01X7238702Y-4629626D01*
G01X7226736Y-4619025D01*
G01X7212581Y-4611596D01*
G01X7197059Y-4607770D01*
G01X7181072Y-4607770D01*
G01X7165550Y-4611596D01*
G01X7151395Y-4619025D01*
G01X7139429Y-4629626D01*
G01X7130348Y-4642783D01*
G01X7124679Y-4657731D01*
G01X7122752Y-4673601D01*
G01X7122752Y-4673601D01*
G01X642495Y-4673601D01*
G01X627341Y-4655859D01*
G01X609346Y-4640489D01*
G01X589168Y-4628124D01*
G01X567304Y-4619068D01*
G01X544292Y-4613543D01*
G01X520700Y-4611686D01*
G01X520700Y-4611686D01*
G01X497108Y-4613543D01*
G01X474096Y-4619068D01*
G01X452232Y-4628124D01*
G01X432054Y-4640489D01*
G01X414059Y-4655859D01*
G01X398689Y-4673854D01*
G01X386324Y-4694032D01*
G01X377268Y-4715896D01*
G01X371743Y-4738908D01*
G01X369886Y-4762500D01*
G01X35814Y-4762500D01*
G01X35814Y-4606799D01*
G01X1241787Y-4606799D01*
G01X1243714Y-4622669D01*
G01X1249383Y-4637617D01*
G01X1258464Y-4650774D01*
G01X1270431Y-4661375D01*
G01X1284586Y-4668804D01*
G01X1300108Y-4672630D01*
G01X1316095Y-4672630D01*
G01X1331617Y-4668804D01*
G01X1345772Y-4661375D01*
G01X1357738Y-4650774D01*
G01X1366819Y-4637617D01*
G01X1372488Y-4622669D01*
G01X1374415Y-4606799D01*
G01X1372488Y-4590929D01*
G01X1370126Y-4584700D01*
G01X5738443Y-4584700D01*
G01X5740370Y-4600570D01*
G01X5746039Y-4615517D01*
G01X5755121Y-4628674D01*
G01X5767087Y-4639275D01*
G01X5781242Y-4646704D01*
G01X5796764Y-4650530D01*
G01X5812751Y-4650530D01*
G01X5828272Y-4646704D01*
G01X5842428Y-4639275D01*
G01X5854394Y-4628674D01*
G01X5863475Y-4615517D01*
G01X5869144Y-4600570D01*
G01X5871071Y-4584700D01*
G01X5869144Y-4568830D01*
G01X5863475Y-4553882D01*
G01X5854394Y-4540725D01*
G01X5842428Y-4530124D01*
G01X5828272Y-4522695D01*
G01X5812751Y-4518869D01*
G01X5796764Y-4518869D01*
G01X5781242Y-4522695D01*
G01X5767087Y-4530124D01*
G01X5755121Y-4540725D01*
G01X5746039Y-4553882D01*
G01X5740370Y-4568830D01*
G01X5738443Y-4584700D01*
G01X5738443Y-4584700D01*
G01X1370126Y-4584700D01*
G01X1366819Y-4575982D01*
G01X1357738Y-4562825D01*
G01X1345772Y-4552224D01*
G01X1331617Y-4544795D01*
G01X1316095Y-4540969D01*
G01X1300108Y-4540969D01*
G01X1284586Y-4544795D01*
G01X1270431Y-4552224D01*
G01X1258464Y-4562825D01*
G01X1249383Y-4575982D01*
G01X1243714Y-4590929D01*
G01X1241787Y-4606799D01*
G01X1241787Y-4606799D01*
G01X35814Y-4606799D01*
G01X35814Y-4445000D01*
G01X5878143Y-4445000D01*
G01X5880070Y-4460870D01*
G01X5885739Y-4475818D01*
G01X5894821Y-4488974D01*
G01X5906787Y-4499575D01*
G01X5920942Y-4507005D01*
G01X5936464Y-4510830D01*
G01X5952451Y-4510830D01*
G01X5967972Y-4507005D01*
G01X5982128Y-4499575D01*
G01X5994094Y-4488974D01*
G01X6003175Y-4475818D01*
G01X6008844Y-4460870D01*
G01X6010771Y-4445000D01*
G01X6008844Y-4429130D01*
G01X6003175Y-4414182D01*
G01X5994094Y-4401026D01*
G01X5982128Y-4390425D01*
G01X5967972Y-4382995D01*
G01X5952451Y-4379170D01*
G01X5936464Y-4379170D01*
G01X5920942Y-4382995D01*
G01X5906787Y-4390425D01*
G01X5894821Y-4401026D01*
G01X5885739Y-4414182D01*
G01X5880070Y-4429130D01*
G01X5878143Y-4445000D01*
G01X5878143Y-4445000D01*
G01X35814Y-4445000D01*
G01X35814Y-4356100D01*
G01X6030543Y-4356100D01*
G01X6032470Y-4371970D01*
G01X6038139Y-4386918D01*
G01X6047220Y-4400075D01*
G01X6059186Y-4410676D01*
G01X6073342Y-4418105D01*
G01X6088864Y-4421931D01*
G01X6104850Y-4421931D01*
G01X6120372Y-4418105D01*
G01X6134528Y-4410676D01*
G01X6146494Y-4400075D01*
G01X6155575Y-4386918D01*
G01X6161244Y-4371970D01*
G01X6163171Y-4356100D01*
G01X6161244Y-4340230D01*
G01X6155575Y-4325283D01*
G01X6146841Y-4312629D01*
G01X8416089Y-4312629D01*
G01X8418016Y-4328499D01*
G01X8423685Y-4343447D01*
G01X8432766Y-4356603D01*
G01X8444733Y-4367204D01*
G01X8458888Y-4374634D01*
G01X8474410Y-4378459D01*
G01X8490396Y-4378459D01*
G01X8505918Y-4374634D01*
G01X8520074Y-4367204D01*
G01X8532040Y-4356603D01*
G01X8541121Y-4343447D01*
G01X8546790Y-4328499D01*
G01X8548717Y-4312629D01*
G01X8546790Y-4296759D01*
G01X8541121Y-4281811D01*
G01X8532040Y-4268655D01*
G01X8520074Y-4258054D01*
G01X8505918Y-4250624D01*
G01X8490396Y-4246798D01*
G01X8474410Y-4246798D01*
G01X8458888Y-4250624D01*
G01X8444733Y-4258054D01*
G01X8432766Y-4268655D01*
G01X8423685Y-4281811D01*
G01X8418016Y-4296759D01*
G01X8416089Y-4312629D01*
G01X8416089Y-4312629D01*
G01X6146841Y-4312629D01*
G01X6146494Y-4312126D01*
G01X6134528Y-4301525D01*
G01X6120372Y-4294096D01*
G01X6104850Y-4290270D01*
G01X6088864Y-4290270D01*
G01X6073342Y-4294096D01*
G01X6059186Y-4301525D01*
G01X6047220Y-4312126D01*
G01X6038139Y-4325283D01*
G01X6032470Y-4340230D01*
G01X6030543Y-4356100D01*
G01X6030543Y-4356100D01*
G01X35814Y-4356100D01*
G01X35814Y-4102100D01*
G01X382586Y-4102100D01*
G01X384443Y-4125692D01*
G01X389968Y-4148704D01*
G01X399024Y-4170568D01*
G01X411389Y-4190746D01*
G01X426759Y-4208741D01*
G01X444754Y-4224111D01*
G01X464932Y-4236476D01*
G01X486796Y-4245532D01*
G01X509808Y-4251057D01*
G01X533400Y-4252914D01*
G01X556992Y-4251057D01*
G01X580004Y-4245532D01*
G01X601868Y-4236476D01*
G01X613902Y-4229102D01*
G01X7262452Y-4229102D01*
G01X7264379Y-4244971D01*
G01X7270048Y-4259919D01*
G01X7279129Y-4273076D01*
G01X7291095Y-4283677D01*
G01X7305250Y-4291106D01*
G01X7320772Y-4294932D01*
G01X7336759Y-4294932D01*
G01X7352281Y-4291106D01*
G01X7366436Y-4283677D01*
G01X7378402Y-4273076D01*
G01X7387484Y-4259919D01*
G01X7393153Y-4244971D01*
G01X7395080Y-4229102D01*
G01X7393153Y-4213232D01*
G01X7387484Y-4198284D01*
G01X7382456Y-4191000D01*
G01X9772376Y-4191000D01*
G01X9774303Y-4206870D01*
G01X9779972Y-4221818D01*
G01X9789053Y-4234974D01*
G01X9801019Y-4245575D01*
G01X9815175Y-4253005D01*
G01X9830697Y-4256831D01*
G01X9846683Y-4256831D01*
G01X9862205Y-4253005D01*
G01X9876361Y-4245575D01*
G01X9888327Y-4234974D01*
G01X9897408Y-4221818D01*
G01X9903077Y-4206870D01*
G01X9905004Y-4191000D01*
G01X9903077Y-4175130D01*
G01X9897408Y-4160182D01*
G01X9888327Y-4147026D01*
G01X9876361Y-4136425D01*
G01X9862205Y-4128995D01*
G01X9856139Y-4127500D01*
G01X11710986Y-4127500D01*
G01X11712843Y-4151092D01*
G01X11718368Y-4174104D01*
G01X11727424Y-4195968D01*
G01X11739789Y-4216146D01*
G01X11755159Y-4234141D01*
G01X11773154Y-4249511D01*
G01X11793332Y-4261876D01*
G01X11815196Y-4270932D01*
G01X11838208Y-4276457D01*
G01X11861800Y-4278314D01*
G01X11861800Y-4278314D01*
G01X11885392Y-4276457D01*
G01X11908404Y-4270932D01*
G01X11930268Y-4261876D01*
G01X11950446Y-4249511D01*
G01X11968441Y-4234141D01*
G01X11983811Y-4216146D01*
G01X11996176Y-4195968D01*
G01X12005232Y-4174104D01*
G01X12010757Y-4151092D01*
G01X12012614Y-4127500D01*
G01X12010757Y-4103908D01*
G01X12005232Y-4080896D01*
G01X11996176Y-4059032D01*
G01X11983811Y-4038854D01*
G01X11968441Y-4020859D01*
G01X11950446Y-4005489D01*
G01X11930268Y-3993124D01*
G01X11908404Y-3984068D01*
G01X11885392Y-3978543D01*
G01X11861800Y-3976686D01*
G01X11838208Y-3978543D01*
G01X11815196Y-3984068D01*
G01X11793332Y-3993124D01*
G01X11773154Y-4005489D01*
G01X11755159Y-4020859D01*
G01X11739789Y-4038854D01*
G01X11727424Y-4059032D01*
G01X11718368Y-4080896D01*
G01X11712843Y-4103908D01*
G01X11710986Y-4127500D01*
G01X9856139Y-4127500D01*
G01X9846683Y-4125169D01*
G01X9830697Y-4125169D01*
G01X9815175Y-4128995D01*
G01X9801019Y-4136425D01*
G01X9789053Y-4147026D01*
G01X9779972Y-4160182D01*
G01X9774303Y-4175130D01*
G01X9772376Y-4191000D01*
G01X9772376Y-4191000D01*
G01X7382456Y-4191000D01*
G01X7378402Y-4185127D01*
G01X7366436Y-4174526D01*
G01X7352281Y-4167097D01*
G01X7336759Y-4163271D01*
G01X7320772Y-4163271D01*
G01X7305250Y-4167097D01*
G01X7291095Y-4174526D01*
G01X7279129Y-4185127D01*
G01X7270048Y-4198284D01*
G01X7264379Y-4213232D01*
G01X7262452Y-4229102D01*
G01X7262452Y-4229102D01*
G01X613902Y-4229102D01*
G01X622046Y-4224111D01*
G01X640041Y-4208741D01*
G01X655411Y-4190746D01*
G01X667776Y-4170568D01*
G01X676832Y-4148704D01*
G01X678874Y-4140200D01*
G01X6462343Y-4140200D01*
G01X6464270Y-4156070D01*
G01X6469939Y-4171018D01*
G01X6479020Y-4184175D01*
G01X6490986Y-4194776D01*
G01X6505142Y-4202205D01*
G01X6520664Y-4206031D01*
G01X6536650Y-4206031D01*
G01X6552172Y-4202205D01*
G01X6566328Y-4194776D01*
G01X6578294Y-4184175D01*
G01X6587375Y-4171018D01*
G01X6593044Y-4156070D01*
G01X6594971Y-4140200D01*
G01X6593044Y-4124330D01*
G01X6587375Y-4109383D01*
G01X6578294Y-4096226D01*
G01X6566328Y-4085625D01*
G01X6552172Y-4078196D01*
G01X6536650Y-4074370D01*
G01X6520664Y-4074370D01*
G01X6505142Y-4078196D01*
G01X6490986Y-4085625D01*
G01X6479020Y-4096226D01*
G01X6469939Y-4109383D01*
G01X6464270Y-4124330D01*
G01X6462343Y-4140200D01*
G01X6462343Y-4140200D01*
G01X678874Y-4140200D01*
G01X682357Y-4125692D01*
G01X684214Y-4102100D01*
G01X682357Y-4078508D01*
G01X677386Y-4057802D01*
G01X10487386Y-4057802D01*
G01X10489313Y-4073672D01*
G01X10494982Y-4088620D01*
G01X10504063Y-4101777D01*
G01X10516029Y-4112378D01*
G01X10530185Y-4119807D01*
G01X10545707Y-4123633D01*
G01X10561693Y-4123633D01*
G01X10577215Y-4119807D01*
G01X10591371Y-4112378D01*
G01X10603337Y-4101777D01*
G01X10612418Y-4088620D01*
G01X10618087Y-4073672D01*
G01X10620014Y-4057802D01*
G01X10618087Y-4041932D01*
G01X10612418Y-4026985D01*
G01X10603337Y-4013828D01*
G01X10591371Y-4003227D01*
G01X10577215Y-3995798D01*
G01X10561693Y-3991972D01*
G01X10545707Y-3991972D01*
G01X10530185Y-3995798D01*
G01X10516029Y-4003227D01*
G01X10504063Y-4013828D01*
G01X10494982Y-4026985D01*
G01X10489313Y-4041932D01*
G01X10487386Y-4057802D01*
G01X10487386Y-4057802D01*
G01X677386Y-4057802D01*
G01X676832Y-4055496D01*
G01X667776Y-4033632D01*
G01X655411Y-4013454D01*
G01X640041Y-3995459D01*
G01X622046Y-3980089D01*
G01X601868Y-3967724D01*
G01X580004Y-3958668D01*
G01X556992Y-3953143D01*
G01X533400Y-3951286D01*
G01X533400Y-3951286D01*
G01X509808Y-3953143D01*
G01X486796Y-3958668D01*
G01X464932Y-3967724D01*
G01X444754Y-3980089D01*
G01X426759Y-3995459D01*
G01X411389Y-4013454D01*
G01X399024Y-4033632D01*
G01X389968Y-4055496D01*
G01X384443Y-4078508D01*
G01X382586Y-4102100D01*
G01X35814Y-4102100D01*
G01X35814Y-3594100D01*
G01X382586Y-3594100D01*
G01X384443Y-3617692D01*
G01X389968Y-3640704D01*
G01X399024Y-3662568D01*
G01X411389Y-3682746D01*
G01X426759Y-3700741D01*
G01X444754Y-3716111D01*
G01X464932Y-3728476D01*
G01X486796Y-3737532D01*
G01X509808Y-3743057D01*
G01X533400Y-3744914D01*
G01X556992Y-3743057D01*
G01X580004Y-3737532D01*
G01X601868Y-3728476D01*
G01X622046Y-3716111D01*
G01X640041Y-3700741D01*
G01X655411Y-3682746D01*
G01X667776Y-3662568D01*
G01X676832Y-3640704D01*
G01X681923Y-3619500D01*
G01X11710986Y-3619500D01*
G01X11712843Y-3643092D01*
G01X11718368Y-3666104D01*
G01X11727424Y-3687968D01*
G01X11739789Y-3708146D01*
G01X11755159Y-3726141D01*
G01X11773154Y-3741511D01*
G01X11793332Y-3753876D01*
G01X11815196Y-3762932D01*
G01X11838208Y-3768457D01*
G01X11861800Y-3770314D01*
G01X11861800Y-3770314D01*
G01X11885392Y-3768457D01*
G01X11908404Y-3762932D01*
G01X11930268Y-3753876D01*
G01X11950446Y-3741511D01*
G01X11968441Y-3726141D01*
G01X11983811Y-3708146D01*
G01X11996176Y-3687968D01*
G01X12005232Y-3666104D01*
G01X12010757Y-3643092D01*
G01X12012614Y-3619500D01*
G01X12010757Y-3595908D01*
G01X12005232Y-3572896D01*
G01X11996176Y-3551032D01*
G01X11983811Y-3530854D01*
G01X11968441Y-3512859D01*
G01X11950446Y-3497489D01*
G01X11930268Y-3485124D01*
G01X11908404Y-3476068D01*
G01X11885392Y-3470543D01*
G01X11861800Y-3468686D01*
G01X11838208Y-3470543D01*
G01X11815196Y-3476068D01*
G01X11793332Y-3485124D01*
G01X11773154Y-3497489D01*
G01X11755159Y-3512859D01*
G01X11739789Y-3530854D01*
G01X11727424Y-3551032D01*
G01X11718368Y-3572896D01*
G01X11712843Y-3595908D01*
G01X11710986Y-3619500D01*
G01X681923Y-3619500D01*
G01X682357Y-3617692D01*
G01X684214Y-3594100D01*
G01X682357Y-3570508D01*
G01X676832Y-3547496D01*
G01X667776Y-3525632D01*
G01X655411Y-3505454D01*
G01X640041Y-3487459D01*
G01X622046Y-3472089D01*
G01X601868Y-3459724D01*
G01X580004Y-3450668D01*
G01X556992Y-3445143D01*
G01X533400Y-3443286D01*
G01X533400Y-3443286D01*
G01X509808Y-3445143D01*
G01X486796Y-3450668D01*
G01X464932Y-3459724D01*
G01X444754Y-3472089D01*
G01X426759Y-3487459D01*
G01X411389Y-3505454D01*
G01X399024Y-3525632D01*
G01X389968Y-3547496D01*
G01X384443Y-3570508D01*
G01X382586Y-3594100D01*
G01X35814Y-3594100D01*
G01X35814Y-3333902D01*
G01X10500086Y-3333902D01*
G01X10502013Y-3349772D01*
G01X10507682Y-3364720D01*
G01X10516763Y-3377877D01*
G01X10528729Y-3388478D01*
G01X10542885Y-3395907D01*
G01X10558407Y-3399733D01*
G01X10574393Y-3399733D01*
G01X10589915Y-3395907D01*
G01X10604071Y-3388478D01*
G01X10616037Y-3377877D01*
G01X10625118Y-3364720D01*
G01X10630787Y-3349772D01*
G01X10632714Y-3333902D01*
G01X10630787Y-3318032D01*
G01X10625118Y-3303085D01*
G01X10616037Y-3289928D01*
G01X10604071Y-3279327D01*
G01X10589915Y-3271898D01*
G01X10574393Y-3268072D01*
G01X10558407Y-3268072D01*
G01X10542885Y-3271898D01*
G01X10528729Y-3279327D01*
G01X10516763Y-3289928D01*
G01X10507682Y-3303085D01*
G01X10502013Y-3318032D01*
G01X10500086Y-3333902D01*
G01X10500086Y-3333902D01*
G01X35814Y-3333902D01*
G01X35814Y-3111500D01*
G01X11710986Y-3111500D01*
G01X11712843Y-3135092D01*
G01X11718368Y-3158104D01*
G01X11727424Y-3179968D01*
G01X11739789Y-3200146D01*
G01X11755159Y-3218141D01*
G01X11773154Y-3233511D01*
G01X11793332Y-3245876D01*
G01X11815196Y-3254932D01*
G01X11838208Y-3260457D01*
G01X11861800Y-3262314D01*
G01X11861800Y-3262314D01*
G01X11885392Y-3260457D01*
G01X11908404Y-3254932D01*
G01X11930268Y-3245876D01*
G01X11950446Y-3233511D01*
G01X11968441Y-3218141D01*
G01X11983811Y-3200146D01*
G01X11996176Y-3179968D01*
G01X12005232Y-3158104D01*
G01X12010757Y-3135092D01*
G01X12012614Y-3111500D01*
G01X12010757Y-3087908D01*
G01X12005232Y-3064896D01*
G01X11996176Y-3043032D01*
G01X11983811Y-3022854D01*
G01X11968441Y-3004859D01*
G01X11950446Y-2989489D01*
G01X11930268Y-2977124D01*
G01X11908404Y-2968068D01*
G01X11885392Y-2962543D01*
G01X11861800Y-2960686D01*
G01X11838208Y-2962543D01*
G01X11815196Y-2968068D01*
G01X11793332Y-2977124D01*
G01X11773154Y-2989489D01*
G01X11755159Y-3004859D01*
G01X11739789Y-3022854D01*
G01X11727424Y-3043032D01*
G01X11718368Y-3064896D01*
G01X11712843Y-3087908D01*
G01X11710986Y-3111500D01*
G01X35814Y-3111500D01*
G01X35814Y-2819400D01*
G01X1551686Y-2819400D01*
G01X1553571Y-2849356D01*
G01X1559195Y-2878840D01*
G01X1568470Y-2907387D01*
G01X1581250Y-2934546D01*
G01X1597334Y-2959889D01*
G01X1616466Y-2983016D01*
G01X1638347Y-3003563D01*
G01X1662630Y-3021206D01*
G01X1688933Y-3035666D01*
G01X1716841Y-3046716D01*
G01X1745913Y-3054180D01*
G01X1775692Y-3057942D01*
G01X1805708Y-3057942D01*
G01X1835487Y-3054180D01*
G01X1864559Y-3046716D01*
G01X1892467Y-3035666D01*
G01X1918770Y-3021206D01*
G01X1943053Y-3003563D01*
G01X1964934Y-2983016D01*
G01X1984066Y-2959889D01*
G01X2000150Y-2934546D01*
G01X2012930Y-2907387D01*
G01X2022205Y-2878840D01*
G01X2027829Y-2849356D01*
G01X2029714Y-2819400D01*
G01X2027829Y-2789444D01*
G01X2022205Y-2759960D01*
G01X2012930Y-2731413D01*
G01X2000150Y-2704254D01*
G01X1984066Y-2678911D01*
G01X1964934Y-2655784D01*
G01X1943053Y-2635237D01*
G01X1918770Y-2617594D01*
G01X1893134Y-2603500D01*
G01X11710986Y-2603500D01*
G01X11712843Y-2627092D01*
G01X11718368Y-2650104D01*
G01X11727424Y-2671968D01*
G01X11739789Y-2692146D01*
G01X11755159Y-2710141D01*
G01X11773154Y-2725511D01*
G01X11793332Y-2737876D01*
G01X11815196Y-2746932D01*
G01X11838208Y-2752457D01*
G01X11861800Y-2754314D01*
G01X11861800Y-2754314D01*
G01X11885392Y-2752457D01*
G01X11908404Y-2746932D01*
G01X11930268Y-2737876D01*
G01X11950446Y-2725511D01*
G01X11968441Y-2710141D01*
G01X11983811Y-2692146D01*
G01X11996176Y-2671968D01*
G01X12005232Y-2650104D01*
G01X12010757Y-2627092D01*
G01X12012614Y-2603500D01*
G01X12010757Y-2579908D01*
G01X12005232Y-2556896D01*
G01X11996176Y-2535032D01*
G01X11983811Y-2514854D01*
G01X11968441Y-2496859D01*
G01X11950446Y-2481489D01*
G01X11930268Y-2469124D01*
G01X11908404Y-2460068D01*
G01X11885392Y-2454543D01*
G01X11861800Y-2452686D01*
G01X11838208Y-2454543D01*
G01X11815196Y-2460068D01*
G01X11793332Y-2469124D01*
G01X11773154Y-2481489D01*
G01X11755159Y-2496859D01*
G01X11739789Y-2514854D01*
G01X11727424Y-2535032D01*
G01X11718368Y-2556896D01*
G01X11712843Y-2579908D01*
G01X11710986Y-2603500D01*
G01X1893134Y-2603500D01*
G01X1892467Y-2603134D01*
G01X1864559Y-2592084D01*
G01X1835487Y-2584620D01*
G01X1805708Y-2580858D01*
G01X1775692Y-2580858D01*
G01X1745913Y-2584620D01*
G01X1716841Y-2592084D01*
G01X1688933Y-2603134D01*
G01X1662630Y-2617594D01*
G01X1638347Y-2635237D01*
G01X1616466Y-2655784D01*
G01X1597334Y-2678911D01*
G01X1581250Y-2704254D01*
G01X1568470Y-2731413D01*
G01X1559195Y-2759960D01*
G01X1553571Y-2789444D01*
G01X1551686Y-2819400D01*
G01X1551686Y-2819400D01*
G01X35814Y-2819400D01*
G01X35814Y-2368906D01*
G01X390286Y-2368906D01*
G01X392205Y-2393280D01*
G01X397912Y-2417055D01*
G01X407269Y-2439644D01*
G01X420044Y-2460491D01*
G01X435923Y-2479083D01*
G01X454515Y-2494962D01*
G01X475362Y-2507737D01*
G01X497951Y-2517093D01*
G01X521725Y-2522801D01*
G01X546100Y-2524719D01*
G01X570475Y-2522801D01*
G01X594249Y-2517093D01*
G01X616838Y-2507737D01*
G01X637685Y-2494962D01*
G01X656277Y-2479083D01*
G01X672156Y-2460491D01*
G01X684931Y-2439644D01*
G01X692979Y-2420214D01*
G01X2943586Y-2420214D01*
G01X2945513Y-2436084D01*
G01X2951182Y-2451031D01*
G01X2960263Y-2464188D01*
G01X2972229Y-2474789D01*
G01X2986385Y-2482218D01*
G01X3001907Y-2486044D01*
G01X3017893Y-2486044D01*
G01X3033415Y-2482218D01*
G01X3047571Y-2474789D01*
G01X3059537Y-2464188D01*
G01X3068618Y-2451031D01*
G01X3074287Y-2436084D01*
G01X3076214Y-2420214D01*
G01X4023086Y-2420214D01*
G01X4025013Y-2436084D01*
G01X4030682Y-2451031D01*
G01X4039763Y-2464188D01*
G01X4051729Y-2474789D01*
G01X4065885Y-2482218D01*
G01X4081407Y-2486044D01*
G01X4097393Y-2486044D01*
G01X4112915Y-2482218D01*
G01X4127071Y-2474789D01*
G01X4139037Y-2464188D01*
G01X4148118Y-2451031D01*
G01X4153787Y-2436084D01*
G01X4155714Y-2420214D01*
G01X4153787Y-2404344D01*
G01X4148118Y-2389396D01*
G01X4139037Y-2376239D01*
G01X4127071Y-2365638D01*
G01X4112915Y-2358209D01*
G01X4097393Y-2354383D01*
G01X4081407Y-2354383D01*
G01X4065885Y-2358209D01*
G01X4051729Y-2365638D01*
G01X4039763Y-2376239D01*
G01X4030682Y-2389396D01*
G01X4025013Y-2404344D01*
G01X4023086Y-2420214D01*
G01X4023086Y-2420214D01*
G01X3076214Y-2420214D01*
G01X3074287Y-2404344D01*
G01X3068618Y-2389396D01*
G01X3059537Y-2376239D01*
G01X3047571Y-2365638D01*
G01X3033415Y-2358209D01*
G01X3017893Y-2354383D01*
G01X3001907Y-2354383D01*
G01X2986385Y-2358209D01*
G01X2972229Y-2365638D01*
G01X2960263Y-2376239D01*
G01X2951182Y-2389396D01*
G01X2945513Y-2404344D01*
G01X2943586Y-2420214D01*
G01X2943586Y-2420214D01*
G01X692979Y-2420214D01*
G01X694288Y-2417055D01*
G01X699995Y-2393280D01*
G01X701914Y-2368906D01*
G01X699995Y-2344531D01*
G01X694288Y-2320757D01*
G01X684931Y-2298168D01*
G01X672156Y-2277321D01*
G01X668295Y-2272800D01*
G01X1698986Y-2272800D01*
G01X1700913Y-2288670D01*
G01X1706582Y-2303617D01*
G01X1715663Y-2316774D01*
G01X1727629Y-2327375D01*
G01X1741785Y-2334804D01*
G01X1757307Y-2338630D01*
G01X1773293Y-2338630D01*
G01X1788815Y-2334804D01*
G01X1802971Y-2327375D01*
G01X1814937Y-2316774D01*
G01X1824018Y-2303617D01*
G01X1829687Y-2288670D01*
G01X1831614Y-2272800D01*
G01X1829687Y-2256930D01*
G01X1824018Y-2241982D01*
G01X1814937Y-2228825D01*
G01X1802971Y-2218224D01*
G01X1788815Y-2210795D01*
G01X1773293Y-2206969D01*
G01X1757307Y-2206969D01*
G01X1741785Y-2210795D01*
G01X1727629Y-2218224D01*
G01X1715663Y-2228825D01*
G01X1706582Y-2241982D01*
G01X1700913Y-2256930D01*
G01X1698986Y-2272800D01*
G01X1698986Y-2272800D01*
G01X668295Y-2272800D01*
G01X656277Y-2258729D01*
G01X637685Y-2242850D01*
G01X616838Y-2230075D01*
G01X594249Y-2220718D01*
G01X570475Y-2215010D01*
G01X546100Y-2213092D01*
G01X546100Y-2213092D01*
G01X521725Y-2215010D01*
G01X497951Y-2220718D01*
G01X475362Y-2230075D01*
G01X454515Y-2242850D01*
G01X435923Y-2258729D01*
G01X420044Y-2277321D01*
G01X407269Y-2298168D01*
G01X397912Y-2320757D01*
G01X392205Y-2344531D01*
G01X390286Y-2368906D01*
G01X35814Y-2368906D01*
G01X35814Y-2095500D01*
G01X11710986Y-2095500D01*
G01X11712843Y-2119092D01*
G01X11718368Y-2142104D01*
G01X11727424Y-2163968D01*
G01X11739789Y-2184146D01*
G01X11755159Y-2202141D01*
G01X11773154Y-2217511D01*
G01X11793332Y-2229876D01*
G01X11815196Y-2238932D01*
G01X11838208Y-2244457D01*
G01X11861800Y-2246314D01*
G01X11861800Y-2246314D01*
G01X11885392Y-2244457D01*
G01X11908404Y-2238932D01*
G01X11930268Y-2229876D01*
G01X11950446Y-2217511D01*
G01X11968441Y-2202141D01*
G01X11983811Y-2184146D01*
G01X11996176Y-2163968D01*
G01X12005232Y-2142104D01*
G01X12010757Y-2119092D01*
G01X12012614Y-2095500D01*
G01X12010757Y-2071908D01*
G01X12005232Y-2048896D01*
G01X11996176Y-2027032D01*
G01X11983811Y-2006854D01*
G01X11968441Y-1988859D01*
G01X11950446Y-1973489D01*
G01X11930268Y-1961124D01*
G01X11908404Y-1952068D01*
G01X11885392Y-1946543D01*
G01X11861800Y-1944686D01*
G01X11838208Y-1946543D01*
G01X11815196Y-1952068D01*
G01X11793332Y-1961124D01*
G01X11773154Y-1973489D01*
G01X11755159Y-1988859D01*
G01X11739789Y-2006854D01*
G01X11727424Y-2027032D01*
G01X11718368Y-2048896D01*
G01X11712843Y-2071908D01*
G01X11710986Y-2095500D01*
G01X35814Y-2095500D01*
G01X35814Y-1946806D01*
G01X1351373Y-1946806D01*
G01X1353300Y-1962676D01*
G01X1358969Y-1977624D01*
G01X1368051Y-1990781D01*
G01X1380017Y-2001382D01*
G01X1394172Y-2008811D01*
G01X1409694Y-2012637D01*
G01X1425681Y-2012637D01*
G01X1441203Y-2008811D01*
G01X1455358Y-2001382D01*
G01X1467324Y-1990781D01*
G01X1476406Y-1977624D01*
G01X1482075Y-1962676D01*
G01X1484002Y-1946806D01*
G01X1482075Y-1930936D01*
G01X1476406Y-1915989D01*
G01X1467324Y-1902832D01*
G01X1455358Y-1892231D01*
G01X1441203Y-1884802D01*
G01X1425681Y-1880976D01*
G01X1409694Y-1880976D01*
G01X1394172Y-1884802D01*
G01X1380017Y-1892231D01*
G01X1368051Y-1902832D01*
G01X1358969Y-1915989D01*
G01X1353300Y-1930936D01*
G01X1351373Y-1946806D01*
G01X1351373Y-1946806D01*
G01X35814Y-1946806D01*
G01X35814Y-1618894D01*
G01X390286Y-1618894D01*
G01X392205Y-1643269D01*
G01X397912Y-1667043D01*
G01X407269Y-1689632D01*
G01X420044Y-1710479D01*
G01X435923Y-1729071D01*
G01X454515Y-1744950D01*
G01X475362Y-1757725D01*
G01X497951Y-1767082D01*
G01X521725Y-1772790D01*
G01X546100Y-1774708D01*
G01X570475Y-1772790D01*
G01X594249Y-1767082D01*
G01X616838Y-1757725D01*
G01X637685Y-1744950D01*
G01X642871Y-1740521D01*
G01X2542921Y-1740521D01*
G01X2544180Y-1754332D01*
G01X2548283Y-1767579D01*
G01X2555052Y-1779682D01*
G01X2547971Y-1793935D01*
G01X2544490Y-1809464D01*
G01X2544809Y-1825375D01*
G01X2548910Y-1840752D01*
G01X2556556Y-1854709D01*
G01X2567307Y-1866443D01*
G01X2580544Y-1875277D01*
G01X2595505Y-1880703D01*
G01X2611328Y-1882409D01*
G01X2627101Y-1880295D01*
G01X2641917Y-1874484D01*
G01X2654921Y-1865311D01*
G01X2668075Y-1874565D01*
G01X2683070Y-1880379D01*
G01X2699023Y-1882413D01*
G01X2714997Y-1880547D01*
G01X2730052Y-1874890D01*
G01X2743303Y-1865775D01*
G01X2753969Y-1853738D01*
G01X2761424Y-1839488D01*
G01X2765229Y-1823862D01*
G01X2765161Y-1807780D01*
G01X2761224Y-1792187D01*
G01X2753648Y-1778000D01*
G01X2761264Y-1763708D01*
G01X2765189Y-1747997D01*
G01X2765189Y-1742022D01*
G01X2996664Y-1742022D01*
G01X2997923Y-1755833D01*
G01X3002027Y-1769079D01*
G01X3008795Y-1781183D01*
G01X3001944Y-1794798D01*
G01X2998383Y-1809618D01*
G01X2998299Y-1824860D01*
G01X3001697Y-1839718D01*
G01X3008398Y-1853407D01*
G01X3018048Y-1865206D01*
G01X3030136Y-1874489D01*
G01X3044025Y-1880767D01*
G01X3058980Y-1883708D01*
G01X3074212Y-1883157D01*
G01X3088916Y-1879143D01*
G01X3102315Y-1871877D01*
G01X3115871Y-1879206D01*
G01X3130752Y-1883207D01*
G01X3146155Y-1883666D01*
G01X3161249Y-1880557D01*
G01X3175217Y-1874049D01*
G01X3187306Y-1864492D01*
G01X3196862Y-1852403D01*
G01X3203371Y-1838435D01*
G01X3206480Y-1823342D01*
G01X3206021Y-1807938D01*
G01X3202019Y-1793057D01*
G01X3194691Y-1779501D01*
G01X3202307Y-1765209D01*
G01X3206232Y-1749498D01*
G01X3206232Y-1733304D01*
G01X3202307Y-1717592D01*
G01X3194691Y-1703301D01*
G01X3202346Y-1688908D01*
G01X3206259Y-1673083D01*
G01X3206192Y-1656781D01*
G01X3202150Y-1640988D01*
G01X3194378Y-1626658D01*
G01X3201579Y-1613085D01*
G01X3205464Y-1598219D01*
G01X3205822Y-1582857D01*
G01X3202636Y-1567826D01*
G01X3196322Y-1554453D01*
G01X5179228Y-1554453D01*
G01X5179320Y-1570497D01*
G01X5183262Y-1586049D01*
G01X5190823Y-1600200D01*
G01X5183262Y-1614351D01*
G01X5179320Y-1629903D01*
G01X5179228Y-1645947D01*
G01X5182993Y-1661543D01*
G01X5190393Y-1675779D01*
G01X5200995Y-1687821D01*
G01X5214179Y-1696964D01*
G01X5229174Y-1702673D01*
G01X5245100Y-1704614D01*
G01X5245100Y-1704614D01*
G01X5261026Y-1702673D01*
G01X5276021Y-1696964D01*
G01X5289205Y-1687821D01*
G01X5299807Y-1675779D01*
G01X5307207Y-1661543D01*
G01X5310972Y-1645947D01*
G01X5310880Y-1629903D01*
G01X5306938Y-1614351D01*
G01X5299377Y-1600200D01*
G01X5306938Y-1586049D01*
G01X5310880Y-1570497D01*
G01X5310972Y-1554453D01*
G01X5903128Y-1554453D01*
G01X5903220Y-1570497D01*
G01X5907162Y-1586049D01*
G01X5914723Y-1600200D01*
G01X5907162Y-1614351D01*
G01X5903220Y-1629903D01*
G01X5903128Y-1645947D01*
G01X5906893Y-1661543D01*
G01X5914293Y-1675779D01*
G01X5924895Y-1687821D01*
G01X5938079Y-1696964D01*
G01X5953074Y-1702673D01*
G01X5969000Y-1704614D01*
G01X5969000Y-1704614D01*
G01X5984926Y-1702673D01*
G01X5999921Y-1696964D01*
G01X6013105Y-1687821D01*
G01X6023707Y-1675779D01*
G01X6031107Y-1661543D01*
G01X6034872Y-1645947D01*
G01X6034780Y-1629903D01*
G01X6030838Y-1614351D01*
G01X6023277Y-1600200D01*
G01X6030838Y-1586049D01*
G01X6034780Y-1570497D01*
G01X6034872Y-1554453D01*
G01X6639728Y-1554453D01*
G01X6639820Y-1570497D01*
G01X6643762Y-1586049D01*
G01X6651323Y-1600200D01*
G01X6643762Y-1614351D01*
G01X6639820Y-1629903D01*
G01X6639728Y-1645947D01*
G01X6643493Y-1661543D01*
G01X6650893Y-1675779D01*
G01X6661495Y-1687821D01*
G01X6674679Y-1696964D01*
G01X6689674Y-1702673D01*
G01X6705600Y-1704614D01*
G01X6705600Y-1704614D01*
G01X6721526Y-1702673D01*
G01X6736521Y-1696964D01*
G01X6749705Y-1687821D01*
G01X6760307Y-1675779D01*
G01X6767707Y-1661543D01*
G01X6771472Y-1645947D01*
G01X6771380Y-1629903D01*
G01X6767438Y-1614351D01*
G01X6759877Y-1600200D01*
G01X6767438Y-1586049D01*
G01X6771380Y-1570497D01*
G01X6771472Y-1554453D01*
G01X7401728Y-1554453D01*
G01X7401820Y-1570497D01*
G01X7405762Y-1586049D01*
G01X7413323Y-1600200D01*
G01X7405762Y-1614351D01*
G01X7401820Y-1629903D01*
G01X7401728Y-1645947D01*
G01X7405493Y-1661543D01*
G01X7412893Y-1675779D01*
G01X7423495Y-1687821D01*
G01X7436679Y-1696964D01*
G01X7451674Y-1702673D01*
G01X7467600Y-1704614D01*
G01X7467600Y-1704614D01*
G01X7483526Y-1702673D01*
G01X7498521Y-1696964D01*
G01X7511705Y-1687821D01*
G01X7522307Y-1675779D01*
G01X7529707Y-1661543D01*
G01X7533472Y-1645947D01*
G01X7533380Y-1629903D01*
G01X7529438Y-1614351D01*
G01X7521877Y-1600200D01*
G01X7529438Y-1586049D01*
G01X7533380Y-1570497D01*
G01X7533472Y-1554453D01*
G01X8112928Y-1554453D01*
G01X8113020Y-1570497D01*
G01X8116962Y-1586049D01*
G01X8124523Y-1600200D01*
G01X8116962Y-1614351D01*
G01X8113020Y-1629903D01*
G01X8112928Y-1645947D01*
G01X8116693Y-1661543D01*
G01X8124093Y-1675779D01*
G01X8134695Y-1687821D01*
G01X8147879Y-1696964D01*
G01X8162874Y-1702673D01*
G01X8178800Y-1704614D01*
G01X8178800Y-1704614D01*
G01X8194726Y-1702673D01*
G01X8209721Y-1696964D01*
G01X8222905Y-1687821D01*
G01X8233507Y-1675779D01*
G01X8240907Y-1661543D01*
G01X8244672Y-1645947D01*
G01X8244580Y-1629903D01*
G01X8240638Y-1614351D01*
G01X8233077Y-1600200D01*
G01X8240638Y-1586049D01*
G01X8244580Y-1570497D01*
G01X8244672Y-1554453D01*
G01X8798728Y-1554453D01*
G01X8798820Y-1570497D01*
G01X8802762Y-1586049D01*
G01X8810323Y-1600200D01*
G01X8802762Y-1614351D01*
G01X8798820Y-1629903D01*
G01X8798728Y-1645947D01*
G01X8802493Y-1661543D01*
G01X8809893Y-1675779D01*
G01X8820495Y-1687821D01*
G01X8833679Y-1696964D01*
G01X8848674Y-1702673D01*
G01X8864600Y-1704614D01*
G01X8864600Y-1704614D01*
G01X8880526Y-1702673D01*
G01X8895521Y-1696964D01*
G01X8908705Y-1687821D01*
G01X8919307Y-1675779D01*
G01X8926707Y-1661543D01*
G01X8930472Y-1645947D01*
G01X8930380Y-1629903D01*
G01X8926438Y-1614351D01*
G01X8918877Y-1600200D01*
G01X8926438Y-1586049D01*
G01X8930380Y-1570497D01*
G01X8930472Y-1554453D01*
G01X9509928Y-1554453D01*
G01X9510020Y-1570497D01*
G01X9513962Y-1586049D01*
G01X9521523Y-1600200D01*
G01X9513962Y-1614351D01*
G01X9510020Y-1629903D01*
G01X9509928Y-1645947D01*
G01X9513693Y-1661543D01*
G01X9521093Y-1675779D01*
G01X9531695Y-1687821D01*
G01X9544879Y-1696964D01*
G01X9559874Y-1702673D01*
G01X9575800Y-1704614D01*
G01X9575800Y-1704614D01*
G01X9591726Y-1702673D01*
G01X9606721Y-1696964D01*
G01X9619905Y-1687821D01*
G01X9630507Y-1675779D01*
G01X9637907Y-1661543D01*
G01X9641672Y-1645947D01*
G01X9641580Y-1629903D01*
G01X9637638Y-1614351D01*
G01X9630077Y-1600200D01*
G01X9637638Y-1586049D01*
G01X9641580Y-1570497D01*
G01X9641672Y-1554453D01*
G01X9637907Y-1538857D01*
G01X9630507Y-1524621D01*
G01X9619905Y-1512579D01*
G01X9606721Y-1503436D01*
G01X9591726Y-1497727D01*
G01X9575800Y-1495786D01*
G01X9559874Y-1497727D01*
G01X9544879Y-1503436D01*
G01X9531695Y-1512579D01*
G01X9521093Y-1524621D01*
G01X9513693Y-1538857D01*
G01X9509928Y-1554453D01*
G01X8930472Y-1554453D01*
G01X8930472Y-1554453D01*
G01X8926707Y-1538857D01*
G01X8919307Y-1524621D01*
G01X8908705Y-1512579D01*
G01X8895521Y-1503436D01*
G01X8880526Y-1497727D01*
G01X8864600Y-1495786D01*
G01X8848674Y-1497727D01*
G01X8833679Y-1503436D01*
G01X8820495Y-1512579D01*
G01X8809893Y-1524621D01*
G01X8802493Y-1538857D01*
G01X8798728Y-1554453D01*
G01X8244672Y-1554453D01*
G01X8244672Y-1554453D01*
G01X8240907Y-1538857D01*
G01X8233507Y-1524621D01*
G01X8222905Y-1512579D01*
G01X8209721Y-1503436D01*
G01X8194726Y-1497727D01*
G01X8178800Y-1495786D01*
G01X8162874Y-1497727D01*
G01X8147879Y-1503436D01*
G01X8134695Y-1512579D01*
G01X8124093Y-1524621D01*
G01X8116693Y-1538857D01*
G01X8112928Y-1554453D01*
G01X7533472Y-1554453D01*
G01X7533472Y-1554453D01*
G01X7529707Y-1538857D01*
G01X7522307Y-1524621D01*
G01X7511705Y-1512579D01*
G01X7498521Y-1503436D01*
G01X7483526Y-1497727D01*
G01X7467600Y-1495786D01*
G01X7451674Y-1497727D01*
G01X7436679Y-1503436D01*
G01X7423495Y-1512579D01*
G01X7412893Y-1524621D01*
G01X7405493Y-1538857D01*
G01X7401728Y-1554453D01*
G01X6771472Y-1554453D01*
G01X6771472Y-1554453D01*
G01X6767707Y-1538857D01*
G01X6760307Y-1524621D01*
G01X6749705Y-1512579D01*
G01X6736521Y-1503436D01*
G01X6721526Y-1497727D01*
G01X6705600Y-1495786D01*
G01X6689674Y-1497727D01*
G01X6674679Y-1503436D01*
G01X6661495Y-1512579D01*
G01X6650893Y-1524621D01*
G01X6643493Y-1538857D01*
G01X6639728Y-1554453D01*
G01X6034872Y-1554453D01*
G01X6034872Y-1554453D01*
G01X6031107Y-1538857D01*
G01X6023707Y-1524621D01*
G01X6013105Y-1512579D01*
G01X5999921Y-1503436D01*
G01X5984926Y-1497727D01*
G01X5969000Y-1495786D01*
G01X5953074Y-1497727D01*
G01X5938079Y-1503436D01*
G01X5924895Y-1512579D01*
G01X5914293Y-1524621D01*
G01X5906893Y-1538857D01*
G01X5903128Y-1554453D01*
G01X5310972Y-1554453D01*
G01X5307207Y-1538857D01*
G01X5299807Y-1524621D01*
G01X5289205Y-1512579D01*
G01X5276021Y-1503436D01*
G01X5261026Y-1497727D01*
G01X5245100Y-1495786D01*
G01X5229174Y-1497727D01*
G01X5214179Y-1503436D01*
G01X5200995Y-1512579D01*
G01X5190393Y-1524621D01*
G01X5182993Y-1538857D01*
G01X5179228Y-1554453D01*
G01X3196322Y-1554453D01*
G01X3196075Y-1553931D01*
G01X3186493Y-1541920D01*
G01X3186493Y-1541920D01*
G01X3174404Y-1532435D01*
G01X3160457Y-1525988D01*
G01X3145400Y-1522924D01*
G01X3130042Y-1523408D01*
G01X3115208Y-1527413D01*
G01X3101693Y-1534724D01*
G01X3088095Y-1527379D01*
G01X3073166Y-1523381D01*
G01X3057717Y-1522948D01*
G01X3042588Y-1526102D01*
G01X3028599Y-1532672D01*
G01X3016511Y-1542302D01*
G01X3006980Y-1554468D01*
G01X3000524Y-1568510D01*
G01X2997494Y-1583665D01*
G01X2998054Y-1599110D01*
G01X3002174Y-1614006D01*
G01X3009630Y-1627543D01*
G01X3002176Y-1641775D01*
G01X2998363Y-1657382D01*
G01X2998415Y-1673448D01*
G01X3002330Y-1689029D01*
G01X3009876Y-1703213D01*
G01X3002774Y-1715124D01*
G01X2998305Y-1728252D01*
G01X2996664Y-1742022D01*
G01X2765189Y-1742022D01*
G01X2765189Y-1731803D01*
G01X2761264Y-1716092D01*
G01X2753648Y-1701800D01*
G01X2761303Y-1687407D01*
G01X2765215Y-1671582D01*
G01X2765149Y-1655280D01*
G01X2761107Y-1639487D01*
G01X2753335Y-1625157D01*
G01X2760779Y-1610952D01*
G01X2764595Y-1595374D01*
G01X2764560Y-1579336D01*
G01X2760675Y-1563776D01*
G01X2753169Y-1549603D01*
G01X2742479Y-1537647D01*
G01X2742479Y-1537647D01*
G01X2729232Y-1528607D01*
G01X2714201Y-1523011D01*
G01X2698267Y-1521188D01*
G01X2682362Y-1523243D01*
G01X2667414Y-1529057D01*
G01X2654300Y-1538289D01*
G01X2641106Y-1529014D01*
G01X2626064Y-1523199D01*
G01X2610062Y-1521186D01*
G01X2594048Y-1523096D01*
G01X2578969Y-1528815D01*
G01X2565716Y-1538005D01*
G01X2555073Y-1550122D01*
G01X2547671Y-1564451D01*
G01X2543945Y-1580142D01*
G01X2544118Y-1596268D01*
G01X2548179Y-1611876D01*
G01X2555887Y-1626043D01*
G01X2548433Y-1640274D01*
G01X2544620Y-1655881D01*
G01X2544672Y-1671947D01*
G01X2548586Y-1687529D01*
G01X2556133Y-1701712D01*
G01X2549031Y-1713623D01*
G01X2544562Y-1726751D01*
G01X2542921Y-1740521D01*
G01X642871Y-1740521D01*
G01X656277Y-1729071D01*
G01X672156Y-1710479D01*
G01X684931Y-1689632D01*
G01X694288Y-1667043D01*
G01X699995Y-1643269D01*
G01X701914Y-1618894D01*
G01X699995Y-1594520D01*
G01X694288Y-1570745D01*
G01X684931Y-1548156D01*
G01X672156Y-1527309D01*
G01X656277Y-1508717D01*
G01X637685Y-1492838D01*
G01X616838Y-1480063D01*
G01X594249Y-1470707D01*
G01X570475Y-1464999D01*
G01X546100Y-1463081D01*
G01X546100Y-1463081D01*
G01X521725Y-1464999D01*
G01X497951Y-1470707D01*
G01X475362Y-1480063D01*
G01X454515Y-1492838D01*
G01X435923Y-1508717D01*
G01X420044Y-1527309D01*
G01X407269Y-1548156D01*
G01X397912Y-1570745D01*
G01X392205Y-1594520D01*
G01X390286Y-1618894D01*
G01X35814Y-1618894D01*
G01X35814Y-1390498D01*
G01X1356086Y-1390498D01*
G01X1358013Y-1406368D01*
G01X1363682Y-1421315D01*
G01X1372763Y-1434472D01*
G01X1384729Y-1445073D01*
G01X1398885Y-1452502D01*
G01X1414407Y-1456328D01*
G01X1430393Y-1456328D01*
G01X1445915Y-1452502D01*
G01X1460071Y-1445073D01*
G01X1463230Y-1442274D01*
G01X1792067Y-1442274D01*
G01X1793994Y-1458144D01*
G01X1799663Y-1473092D01*
G01X1808744Y-1486249D01*
G01X1820710Y-1496850D01*
G01X1834866Y-1504279D01*
G01X1850388Y-1508105D01*
G01X1866374Y-1508105D01*
G01X1881896Y-1504279D01*
G01X1896052Y-1496850D01*
G01X1908018Y-1486249D01*
G01X1917099Y-1473092D01*
G01X1922768Y-1458144D01*
G01X1924695Y-1442274D01*
G01X1922768Y-1426404D01*
G01X1917099Y-1411457D01*
G01X1908018Y-1398300D01*
G01X1896052Y-1387699D01*
G01X1881896Y-1380270D01*
G01X1866374Y-1376444D01*
G01X1850388Y-1376444D01*
G01X1834866Y-1380270D01*
G01X1820710Y-1387699D01*
G01X1808744Y-1398300D01*
G01X1799663Y-1411457D01*
G01X1793994Y-1426404D01*
G01X1792067Y-1442274D01*
G01X1792067Y-1442274D01*
G01X1463230Y-1442274D01*
G01X1472037Y-1434472D01*
G01X1481118Y-1421315D01*
G01X1486787Y-1406368D01*
G01X1488714Y-1390498D01*
G01X1486787Y-1374628D01*
G01X1481118Y-1359680D01*
G01X1472037Y-1346523D01*
G01X1460071Y-1335922D01*
G01X1455456Y-1333500D01*
G01X4463497Y-1333500D01*
G01X4465424Y-1349370D01*
G01X4471092Y-1364318D01*
G01X4480174Y-1377474D01*
G01X4492140Y-1388075D01*
G01X4506295Y-1395505D01*
G01X4521817Y-1399331D01*
G01X4537804Y-1399331D01*
G01X4553326Y-1395505D01*
G01X4567481Y-1388075D01*
G01X4579447Y-1377474D01*
G01X4588529Y-1364318D01*
G01X4594198Y-1349370D01*
G01X4596125Y-1333500D01*
G01X5174697Y-1333500D01*
G01X5176624Y-1349370D01*
G01X5182292Y-1364318D01*
G01X5191374Y-1377474D01*
G01X5203340Y-1388075D01*
G01X5217495Y-1395505D01*
G01X5233017Y-1399331D01*
G01X5249004Y-1399331D01*
G01X5264526Y-1395505D01*
G01X5278681Y-1388075D01*
G01X5290647Y-1377474D01*
G01X5299729Y-1364318D01*
G01X5305398Y-1349370D01*
G01X5307325Y-1333500D01*
G01X5898597Y-1333500D01*
G01X5900524Y-1349370D01*
G01X5906192Y-1364318D01*
G01X5915274Y-1377474D01*
G01X5927240Y-1388075D01*
G01X5941395Y-1395505D01*
G01X5956917Y-1399331D01*
G01X5972904Y-1399331D01*
G01X5988426Y-1395505D01*
G01X6002581Y-1388075D01*
G01X6014547Y-1377474D01*
G01X6023629Y-1364318D01*
G01X6029298Y-1349370D01*
G01X6031225Y-1333500D01*
G01X6635197Y-1333500D01*
G01X6637124Y-1349370D01*
G01X6642792Y-1364318D01*
G01X6651874Y-1377474D01*
G01X6663840Y-1388075D01*
G01X6677995Y-1395505D01*
G01X6693517Y-1399331D01*
G01X6709504Y-1399331D01*
G01X6725026Y-1395505D01*
G01X6739181Y-1388075D01*
G01X6751147Y-1377474D01*
G01X6760229Y-1364318D01*
G01X6765898Y-1349370D01*
G01X6767825Y-1333500D01*
G01X7397197Y-1333500D01*
G01X7399124Y-1349370D01*
G01X7404792Y-1364318D01*
G01X7413874Y-1377474D01*
G01X7425840Y-1388075D01*
G01X7439995Y-1395505D01*
G01X7455517Y-1399331D01*
G01X7471504Y-1399331D01*
G01X7487026Y-1395505D01*
G01X7501181Y-1388075D01*
G01X7513147Y-1377474D01*
G01X7522229Y-1364318D01*
G01X7527898Y-1349370D01*
G01X7529825Y-1333500D01*
G01X8095697Y-1333500D01*
G01X8097624Y-1349370D01*
G01X8103292Y-1364318D01*
G01X8112374Y-1377474D01*
G01X8124340Y-1388075D01*
G01X8138495Y-1395505D01*
G01X8154017Y-1399331D01*
G01X8170004Y-1399331D01*
G01X8185526Y-1395505D01*
G01X8199681Y-1388075D01*
G01X8211647Y-1377474D01*
G01X8220729Y-1364318D01*
G01X8226398Y-1349370D01*
G01X8226783Y-1346200D01*
G01X8794197Y-1346200D01*
G01X8796124Y-1362070D01*
G01X8801792Y-1377018D01*
G01X8810874Y-1390174D01*
G01X8822840Y-1400775D01*
G01X8836995Y-1408205D01*
G01X8852517Y-1412031D01*
G01X8868504Y-1412031D01*
G01X8884026Y-1408205D01*
G01X8898181Y-1400775D01*
G01X8910147Y-1390174D01*
G01X8919229Y-1377018D01*
G01X8924898Y-1362070D01*
G01X8926825Y-1346200D01*
G01X9505397Y-1346200D01*
G01X9507324Y-1362070D01*
G01X9512992Y-1377018D01*
G01X9522074Y-1390174D01*
G01X9534040Y-1400775D01*
G01X9548195Y-1408205D01*
G01X9563717Y-1412031D01*
G01X9579704Y-1412031D01*
G01X9595226Y-1408205D01*
G01X9609381Y-1400775D01*
G01X9621347Y-1390174D01*
G01X9630429Y-1377018D01*
G01X9636098Y-1362070D01*
G01X9638025Y-1346200D01*
G01X9636098Y-1330330D01*
G01X9630429Y-1315382D01*
G01X9621347Y-1302226D01*
G01X9609381Y-1291625D01*
G01X9595226Y-1284195D01*
G01X9579704Y-1280369D01*
G01X9563717Y-1280369D01*
G01X9548195Y-1284195D01*
G01X9534040Y-1291625D01*
G01X9522074Y-1302226D01*
G01X9512992Y-1315382D01*
G01X9507324Y-1330330D01*
G01X9505397Y-1346200D01*
G01X9505397Y-1346200D01*
G01X8926825Y-1346200D01*
G01X8926825Y-1346200D01*
G01X8924898Y-1330330D01*
G01X8919229Y-1315382D01*
G01X8910147Y-1302226D01*
G01X8898181Y-1291625D01*
G01X8884026Y-1284195D01*
G01X8868504Y-1280369D01*
G01X8852517Y-1280369D01*
G01X8836995Y-1284195D01*
G01X8822840Y-1291625D01*
G01X8810874Y-1302226D01*
G01X8801792Y-1315382D01*
G01X8796124Y-1330330D01*
G01X8794197Y-1346200D01*
G01X8794197Y-1346200D01*
G01X8226783Y-1346200D01*
G01X8228325Y-1333500D01*
G01X8226398Y-1317630D01*
G01X8220729Y-1302682D01*
G01X8211647Y-1289526D01*
G01X8199681Y-1278925D01*
G01X8185526Y-1271495D01*
G01X8170004Y-1267669D01*
G01X8154017Y-1267669D01*
G01X8138495Y-1271495D01*
G01X8124340Y-1278925D01*
G01X8112374Y-1289526D01*
G01X8103292Y-1302682D01*
G01X8097624Y-1317630D01*
G01X8095697Y-1333500D01*
G01X8095697Y-1333500D01*
G01X7529825Y-1333500D01*
G01X7529825Y-1333500D01*
G01X7527898Y-1317630D01*
G01X7522229Y-1302682D01*
G01X7513147Y-1289526D01*
G01X7501181Y-1278925D01*
G01X7487026Y-1271495D01*
G01X7471504Y-1267669D01*
G01X7455517Y-1267669D01*
G01X7439995Y-1271495D01*
G01X7425840Y-1278925D01*
G01X7413874Y-1289526D01*
G01X7404792Y-1302682D01*
G01X7399124Y-1317630D01*
G01X7397197Y-1333500D01*
G01X7397197Y-1333500D01*
G01X6767825Y-1333500D01*
G01X6767825Y-1333500D01*
G01X6765898Y-1317630D01*
G01X6760229Y-1302682D01*
G01X6751147Y-1289526D01*
G01X6739181Y-1278925D01*
G01X6725026Y-1271495D01*
G01X6709504Y-1267669D01*
G01X6693517Y-1267669D01*
G01X6677995Y-1271495D01*
G01X6663840Y-1278925D01*
G01X6651874Y-1289526D01*
G01X6642792Y-1302682D01*
G01X6637124Y-1317630D01*
G01X6635197Y-1333500D01*
G01X6635197Y-1333500D01*
G01X6031225Y-1333500D01*
G01X6031225Y-1333500D01*
G01X6029298Y-1317630D01*
G01X6023629Y-1302682D01*
G01X6014547Y-1289526D01*
G01X6002581Y-1278925D01*
G01X5988426Y-1271495D01*
G01X5972904Y-1267669D01*
G01X5956917Y-1267669D01*
G01X5941395Y-1271495D01*
G01X5927240Y-1278925D01*
G01X5915274Y-1289526D01*
G01X5906192Y-1302682D01*
G01X5900524Y-1317630D01*
G01X5898597Y-1333500D01*
G01X5898597Y-1333500D01*
G01X5307325Y-1333500D01*
G01X5307325Y-1333500D01*
G01X5305398Y-1317630D01*
G01X5299729Y-1302682D01*
G01X5290647Y-1289526D01*
G01X5278681Y-1278925D01*
G01X5264526Y-1271495D01*
G01X5249004Y-1267669D01*
G01X5233017Y-1267669D01*
G01X5217495Y-1271495D01*
G01X5203340Y-1278925D01*
G01X5191374Y-1289526D01*
G01X5182292Y-1302682D01*
G01X5176624Y-1317630D01*
G01X5174697Y-1333500D01*
G01X5174697Y-1333500D01*
G01X4596125Y-1333500D01*
G01X4596125Y-1333500D01*
G01X4594198Y-1317630D01*
G01X4588529Y-1302682D01*
G01X4579447Y-1289526D01*
G01X4567481Y-1278925D01*
G01X4553326Y-1271495D01*
G01X4537804Y-1267669D01*
G01X4521817Y-1267669D01*
G01X4506295Y-1271495D01*
G01X4492140Y-1278925D01*
G01X4480174Y-1289526D01*
G01X4471092Y-1302682D01*
G01X4465424Y-1317630D01*
G01X4463497Y-1333500D01*
G01X4463497Y-1333500D01*
G01X1455456Y-1333500D01*
G01X1445915Y-1328493D01*
G01X1430393Y-1324667D01*
G01X1414407Y-1324667D01*
G01X1398885Y-1328493D01*
G01X1384729Y-1335922D01*
G01X1372763Y-1346523D01*
G01X1363682Y-1359680D01*
G01X1358013Y-1374628D01*
G01X1356086Y-1390498D01*
G01X1356086Y-1390498D01*
G01X35814Y-1390498D01*
G01X35814Y-675122D01*
G01X278342Y-675122D01*
G01X281012Y-698197D01*
G01X287575Y-720480D01*
G01X297839Y-741318D01*
G01X311505Y-760103D01*
G01X328172Y-776284D01*
G01X347352Y-789388D01*
G01X368485Y-799032D01*
G01X390952Y-804933D01*
G01X414096Y-806920D01*
G01X414096Y-806920D01*
G01X437240Y-804933D01*
G01X459708Y-799032D01*
G01X480840Y-789388D01*
G01X500021Y-776284D01*
G01X516687Y-760103D01*
G01X530353Y-741318D01*
G01X540617Y-720480D01*
G01X547181Y-698197D01*
G01X549851Y-675122D01*
G01X548549Y-651929D01*
G01X543315Y-629297D01*
G01X534300Y-607888D01*
G01X521768Y-588329D01*
G01X506087Y-571191D01*
G01X487715Y-556976D01*
G01X467189Y-546100D01*
G01X487715Y-535224D01*
G01X506087Y-521009D01*
G01X521768Y-503871D01*
G01X534300Y-484312D01*
G01X543315Y-462903D01*
G01X548549Y-440271D01*
G01X549851Y-417078D01*
G01X628354Y-417078D01*
G01X629655Y-440271D01*
G01X634890Y-462903D01*
G01X643905Y-484312D01*
G01X656436Y-503871D01*
G01X672117Y-521009D01*
G01X690489Y-535224D01*
G01X711015Y-546100D01*
G01X690489Y-556976D01*
G01X672117Y-571191D01*
G01X656436Y-588329D01*
G01X643905Y-607888D01*
G01X634890Y-629297D01*
G01X629655Y-651929D01*
G01X628354Y-675122D01*
G01X631024Y-698197D01*
G01X637587Y-720480D01*
G01X647851Y-741318D01*
G01X661517Y-760103D01*
G01X678184Y-776284D01*
G01X697364Y-789388D01*
G01X718497Y-799032D01*
G01X740964Y-804933D01*
G01X764108Y-806920D01*
G01X764108Y-806920D01*
G01X787252Y-804933D01*
G01X809720Y-799032D01*
G01X830852Y-789388D01*
G01X850033Y-776284D01*
G01X866699Y-760103D01*
G01X880365Y-741318D01*
G01X890629Y-720480D01*
G01X897193Y-698197D01*
G01X899863Y-675122D01*
G01X898561Y-651929D01*
G01X893327Y-629297D01*
G01X884312Y-607888D01*
G01X871780Y-588329D01*
G01X856099Y-571191D01*
G01X837727Y-556976D01*
G01X817225Y-546113D01*
G01X893285Y-546113D01*
G01X895265Y-571270D01*
G01X901156Y-595807D01*
G01X910813Y-619121D01*
G01X923998Y-640637D01*
G01X940387Y-659826D01*
G01X959575Y-676215D01*
G01X981092Y-689400D01*
G01X1004405Y-699057D01*
G01X1028943Y-704948D01*
G01X1054100Y-706928D01*
G01X1079257Y-704948D01*
G01X1103795Y-699057D01*
G01X1127108Y-689400D01*
G01X1148625Y-676215D01*
G01X1167813Y-659826D01*
G01X1184202Y-640637D01*
G01X1197387Y-619121D01*
G01X1207044Y-595807D01*
G01X1212935Y-571270D01*
G01X1214915Y-546113D01*
G01X1212935Y-520956D01*
G01X1207044Y-496418D01*
G01X1197387Y-473104D01*
G01X1184202Y-451588D01*
G01X1167813Y-432399D01*
G01X1166513Y-431288D01*
G01X1208661Y-431288D01*
G01X1212162Y-453341D01*
G01X1219229Y-474522D01*
G01X1229670Y-494259D01*
G01X1243205Y-512018D01*
G01X1259466Y-527320D01*
G01X1278015Y-539750D01*
G01X1259466Y-552180D01*
G01X1243205Y-567482D01*
G01X1229670Y-585241D01*
G01X1219229Y-604978D01*
G01X1212162Y-626159D01*
G01X1208661Y-648212D01*
G01X1208821Y-670540D01*
G01X1212637Y-692540D01*
G01X1220007Y-713618D01*
G01X1230730Y-733203D01*
G01X1244518Y-750766D01*
G01X1260997Y-765833D01*
G01X1279722Y-777997D01*
G01X1300187Y-786927D01*
G01X1321839Y-792384D01*
G01X1344092Y-794220D01*
G01X1344092Y-794220D01*
G01X1366345Y-792384D01*
G01X1387997Y-786927D01*
G01X1408462Y-777997D01*
G01X1427187Y-765833D01*
G01X1443666Y-750766D01*
G01X1457453Y-733203D01*
G01X1468177Y-713618D01*
G01X1475546Y-692540D01*
G01X1479362Y-670540D01*
G01X1479522Y-648212D01*
G01X1476022Y-626159D01*
G01X1468955Y-604978D01*
G01X1458513Y-585241D01*
G01X1444979Y-567482D01*
G01X1428717Y-552180D01*
G01X1410168Y-539750D01*
G01X1428717Y-527320D01*
G01X1444979Y-512018D01*
G01X1458513Y-494259D01*
G01X1468955Y-474522D01*
G01X1476022Y-453341D01*
G01X1479522Y-431288D01*
G01X1479421Y-417078D01*
G01X1558349Y-417078D01*
G01X1559651Y-440271D01*
G01X1564885Y-462903D01*
G01X1573900Y-484312D01*
G01X1586432Y-503871D01*
G01X1602113Y-521009D01*
G01X1620485Y-535224D01*
G01X1641011Y-546100D01*
G01X1620485Y-556976D01*
G01X1602113Y-571191D01*
G01X1586432Y-588329D01*
G01X1573900Y-607888D01*
G01X1564885Y-629297D01*
G01X1559651Y-651929D01*
G01X1558349Y-675122D01*
G01X1561019Y-698197D01*
G01X1567583Y-720480D01*
G01X1577847Y-741318D01*
G01X1591513Y-760103D01*
G01X1608179Y-776284D01*
G01X1627360Y-789388D01*
G01X1648492Y-799032D01*
G01X1670960Y-804933D01*
G01X1694104Y-806920D01*
G01X1694104Y-806920D01*
G01X1717248Y-804933D01*
G01X1739715Y-799032D01*
G01X1760848Y-789388D01*
G01X1780028Y-776284D01*
G01X1796695Y-760103D01*
G01X1810361Y-741318D01*
G01X1820625Y-720480D01*
G01X1827188Y-698197D01*
G01X1829858Y-675122D01*
G01X1828557Y-651929D01*
G01X1823322Y-629297D01*
G01X1814307Y-607888D01*
G01X1801776Y-588329D01*
G01X1786095Y-571191D01*
G01X1767723Y-556976D01*
G01X1747197Y-546100D01*
G01X1767723Y-535224D01*
G01X1786095Y-521009D01*
G01X1786378Y-520700D01*
G01X3495081Y-520700D01*
G01X3496999Y-545075D01*
G01X3502707Y-568849D01*
G01X3512063Y-591438D01*
G01X3524838Y-612285D01*
G01X3540717Y-630877D01*
G01X3559309Y-646756D01*
G01X3580156Y-659531D01*
G01X3602745Y-668888D01*
G01X3626520Y-674595D01*
G01X3650894Y-676514D01*
G01X3675269Y-674595D01*
G01X3699043Y-668888D01*
G01X3721632Y-659531D01*
G01X3742479Y-646756D01*
G01X3761071Y-630877D01*
G01X3776950Y-612285D01*
G01X3789725Y-591438D01*
G01X3799082Y-568849D01*
G01X3804790Y-545075D01*
G01X3806708Y-520700D01*
G01X4245092Y-520700D01*
G01X4247010Y-545075D01*
G01X4252718Y-568849D01*
G01X4262075Y-591438D01*
G01X4274850Y-612285D01*
G01X4290729Y-630877D01*
G01X4309321Y-646756D01*
G01X4330168Y-659531D01*
G01X4352757Y-668888D01*
G01X4376531Y-674595D01*
G01X4400906Y-676514D01*
G01X4425280Y-674595D01*
G01X4449055Y-668888D01*
G01X4471644Y-659531D01*
G01X4492491Y-646756D01*
G01X4511083Y-630877D01*
G01X4526962Y-612285D01*
G01X4539737Y-591438D01*
G01X4549093Y-568849D01*
G01X4554801Y-545075D01*
G01X4555720Y-533400D01*
G01X5145086Y-533400D01*
G01X5146943Y-556992D01*
G01X5152468Y-580004D01*
G01X5161524Y-601868D01*
G01X5173889Y-622046D01*
G01X5189259Y-640041D01*
G01X5207254Y-655411D01*
G01X5227432Y-667776D01*
G01X5249296Y-676832D01*
G01X5272308Y-682357D01*
G01X5295900Y-684214D01*
G01X5319492Y-682357D01*
G01X5342504Y-676832D01*
G01X5364368Y-667776D01*
G01X5384546Y-655411D01*
G01X5402541Y-640041D01*
G01X5417911Y-622046D01*
G01X5430276Y-601868D01*
G01X5439332Y-580004D01*
G01X5444857Y-556992D01*
G01X5446714Y-533400D01*
G01X5653086Y-533400D01*
G01X5654943Y-556992D01*
G01X5660468Y-580004D01*
G01X5669524Y-601868D01*
G01X5681889Y-622046D01*
G01X5697259Y-640041D01*
G01X5715254Y-655411D01*
G01X5735432Y-667776D01*
G01X5757296Y-676832D01*
G01X5780308Y-682357D01*
G01X5803900Y-684214D01*
G01X5827492Y-682357D01*
G01X5850504Y-676832D01*
G01X5872368Y-667776D01*
G01X5892546Y-655411D01*
G01X5910541Y-640041D01*
G01X5925911Y-622046D01*
G01X5938276Y-601868D01*
G01X5947332Y-580004D01*
G01X5952857Y-556992D01*
G01X5954714Y-533400D01*
G01X5954714Y-533400D01*
G01X5954714Y-533400D01*
G01X6161086Y-533400D01*
G01X6162943Y-556992D01*
G01X6168468Y-580004D01*
G01X6177524Y-601868D01*
G01X6189889Y-622046D01*
G01X6205259Y-640041D01*
G01X6223254Y-655411D01*
G01X6243432Y-667776D01*
G01X6265296Y-676832D01*
G01X6288308Y-682357D01*
G01X6311900Y-684214D01*
G01X6335492Y-682357D01*
G01X6358504Y-676832D01*
G01X6380368Y-667776D01*
G01X6400546Y-655411D01*
G01X6418541Y-640041D01*
G01X6433911Y-622046D01*
G01X6446276Y-601868D01*
G01X6455332Y-580004D01*
G01X6460857Y-556992D01*
G01X6462714Y-533400D01*
G01X6669086Y-533400D01*
G01X6670943Y-556992D01*
G01X6676468Y-580004D01*
G01X6685524Y-601868D01*
G01X6697889Y-622046D01*
G01X6713259Y-640041D01*
G01X6731254Y-655411D01*
G01X6751432Y-667776D01*
G01X6773296Y-676832D01*
G01X6796308Y-682357D01*
G01X6819900Y-684214D01*
G01X6843492Y-682357D01*
G01X6866504Y-676832D01*
G01X6888368Y-667776D01*
G01X6908546Y-655411D01*
G01X6926541Y-640041D01*
G01X6941911Y-622046D01*
G01X6954276Y-601868D01*
G01X6963332Y-580004D01*
G01X6968857Y-556992D01*
G01X6970714Y-533400D01*
G01X6970714Y-533400D01*
G01X6969714Y-520700D01*
G01X8091486Y-520700D01*
G01X8093343Y-544292D01*
G01X8098868Y-567304D01*
G01X8107924Y-589168D01*
G01X8120289Y-609346D01*
G01X8135659Y-627341D01*
G01X8153654Y-642711D01*
G01X8173832Y-655076D01*
G01X8195696Y-664132D01*
G01X8218708Y-669657D01*
G01X8242300Y-671514D01*
G01X8265892Y-669657D01*
G01X8288904Y-664132D01*
G01X8310768Y-655076D01*
G01X8330946Y-642711D01*
G01X8348941Y-627341D01*
G01X8364311Y-609346D01*
G01X8376676Y-589168D01*
G01X8385732Y-567304D01*
G01X8391257Y-544292D01*
G01X8393114Y-520700D01*
G01X8599486Y-520700D01*
G01X8601343Y-544292D01*
G01X8606868Y-567304D01*
G01X8615924Y-589168D01*
G01X8628289Y-609346D01*
G01X8643659Y-627341D01*
G01X8661654Y-642711D01*
G01X8681832Y-655076D01*
G01X8703696Y-664132D01*
G01X8726708Y-669657D01*
G01X8750300Y-671514D01*
G01X8773892Y-669657D01*
G01X8796904Y-664132D01*
G01X8818768Y-655076D01*
G01X8838946Y-642711D01*
G01X8856941Y-627341D01*
G01X8872311Y-609346D01*
G01X8884676Y-589168D01*
G01X8893732Y-567304D01*
G01X8899257Y-544292D01*
G01X8901114Y-520700D01*
G01X8901114Y-520700D01*
G01X9107486Y-520700D01*
G01X9109343Y-544292D01*
G01X9114868Y-567304D01*
G01X9123924Y-589168D01*
G01X9136289Y-609346D01*
G01X9151659Y-627341D01*
G01X9169654Y-642711D01*
G01X9189832Y-655076D01*
G01X9211696Y-664132D01*
G01X9234708Y-669657D01*
G01X9258300Y-671514D01*
G01X9281892Y-669657D01*
G01X9304904Y-664132D01*
G01X9326768Y-655076D01*
G01X9346946Y-642711D01*
G01X9364941Y-627341D01*
G01X9380311Y-609346D01*
G01X9392676Y-589168D01*
G01X9401732Y-567304D01*
G01X9407257Y-544292D01*
G01X9409114Y-520700D01*
G01X9615486Y-520700D01*
G01X9617343Y-544292D01*
G01X9622868Y-567304D01*
G01X9631924Y-589168D01*
G01X9644289Y-609346D01*
G01X9659659Y-627341D01*
G01X9677654Y-642711D01*
G01X9697832Y-655076D01*
G01X9719696Y-664132D01*
G01X9742708Y-669657D01*
G01X9766300Y-671514D01*
G01X9789892Y-669657D01*
G01X9812904Y-664132D01*
G01X9834768Y-655076D01*
G01X9854946Y-642711D01*
G01X9872941Y-627341D01*
G01X9888311Y-609346D01*
G01X9900676Y-589168D01*
G01X9909732Y-567304D01*
G01X9915257Y-544292D01*
G01X9917114Y-520700D01*
G01X9917114Y-520700D01*
G01X9915257Y-497108D01*
G01X9909732Y-474096D01*
G01X9900676Y-452232D01*
G01X9888311Y-432054D01*
G01X9872941Y-414059D01*
G01X9854946Y-398689D01*
G01X9834768Y-386324D01*
G01X9812904Y-377268D01*
G01X9789892Y-371743D01*
G01X9766300Y-369886D01*
G01X9742708Y-371743D01*
G01X9719696Y-377268D01*
G01X9697832Y-386324D01*
G01X9677654Y-398689D01*
G01X9659659Y-414059D01*
G01X9644289Y-432054D01*
G01X9631924Y-452232D01*
G01X9622868Y-474096D01*
G01X9617343Y-497108D01*
G01X9615486Y-520700D01*
G01X9409114Y-520700D01*
G01X9409114Y-520700D01*
G01X9409114Y-520700D01*
G01X9407257Y-497108D01*
G01X9401732Y-474096D01*
G01X9392676Y-452232D01*
G01X9380311Y-432054D01*
G01X9364941Y-414059D01*
G01X9346946Y-398689D01*
G01X9326768Y-386324D01*
G01X9304904Y-377268D01*
G01X9281892Y-371743D01*
G01X9258300Y-369886D01*
G01X9234708Y-371743D01*
G01X9211696Y-377268D01*
G01X9189832Y-386324D01*
G01X9169654Y-398689D01*
G01X9151659Y-414059D01*
G01X9136289Y-432054D01*
G01X9123924Y-452232D01*
G01X9114868Y-474096D01*
G01X9109343Y-497108D01*
G01X9107486Y-520700D01*
G01X8901114Y-520700D01*
G01X8899257Y-497108D01*
G01X8893732Y-474096D01*
G01X8884676Y-452232D01*
G01X8872311Y-432054D01*
G01X8856941Y-414059D01*
G01X8838946Y-398689D01*
G01X8818768Y-386324D01*
G01X8796904Y-377268D01*
G01X8773892Y-371743D01*
G01X8750300Y-369886D01*
G01X8726708Y-371743D01*
G01X8703696Y-377268D01*
G01X8681832Y-386324D01*
G01X8661654Y-398689D01*
G01X8643659Y-414059D01*
G01X8628289Y-432054D01*
G01X8615924Y-452232D01*
G01X8606868Y-474096D01*
G01X8601343Y-497108D01*
G01X8599486Y-520700D01*
G01X8393114Y-520700D01*
G01X8393114Y-520700D01*
G01X8393114Y-520700D01*
G01X8391257Y-497108D01*
G01X8385732Y-474096D01*
G01X8376676Y-452232D01*
G01X8364311Y-432054D01*
G01X8348941Y-414059D01*
G01X8330946Y-398689D01*
G01X8310768Y-386324D01*
G01X8288904Y-377268D01*
G01X8265892Y-371743D01*
G01X8242300Y-369886D01*
G01X8218708Y-371743D01*
G01X8195696Y-377268D01*
G01X8173832Y-386324D01*
G01X8153654Y-398689D01*
G01X8135659Y-414059D01*
G01X8120289Y-432054D01*
G01X8107924Y-452232D01*
G01X8098868Y-474096D01*
G01X8093343Y-497108D01*
G01X8091486Y-520700D01*
G01X6969714Y-520700D01*
G01X6968857Y-509808D01*
G01X6963332Y-486796D01*
G01X6954276Y-464932D01*
G01X6941911Y-444754D01*
G01X6926541Y-426759D01*
G01X6908546Y-411389D01*
G01X6888368Y-399024D01*
G01X6866504Y-389968D01*
G01X6843492Y-384443D01*
G01X6819900Y-382586D01*
G01X6796308Y-384443D01*
G01X6773296Y-389968D01*
G01X6751432Y-399024D01*
G01X6731254Y-411389D01*
G01X6713259Y-426759D01*
G01X6697889Y-444754D01*
G01X6685524Y-464932D01*
G01X6676468Y-486796D01*
G01X6670943Y-509808D01*
G01X6669086Y-533400D01*
G01X6462714Y-533400D01*
G01X6462714Y-533400D01*
G01X6462714Y-533400D01*
G01X6460857Y-509808D01*
G01X6455332Y-486796D01*
G01X6446276Y-464932D01*
G01X6433911Y-444754D01*
G01X6418541Y-426759D01*
G01X6400546Y-411389D01*
G01X6380368Y-399024D01*
G01X6358504Y-389968D01*
G01X6335492Y-384443D01*
G01X6311900Y-382586D01*
G01X6288308Y-384443D01*
G01X6265296Y-389968D01*
G01X6243432Y-399024D01*
G01X6223254Y-411389D01*
G01X6205259Y-426759D01*
G01X6189889Y-444754D01*
G01X6177524Y-464932D01*
G01X6168468Y-486796D01*
G01X6162943Y-509808D01*
G01X6161086Y-533400D01*
G01X5954714Y-533400D01*
G01X5952857Y-509808D01*
G01X5947332Y-486796D01*
G01X5938276Y-464932D01*
G01X5925911Y-444754D01*
G01X5910541Y-426759D01*
G01X5892546Y-411389D01*
G01X5872368Y-399024D01*
G01X5850504Y-389968D01*
G01X5827492Y-384443D01*
G01X5803900Y-382586D01*
G01X5780308Y-384443D01*
G01X5757296Y-389968D01*
G01X5735432Y-399024D01*
G01X5715254Y-411389D01*
G01X5697259Y-426759D01*
G01X5681889Y-444754D01*
G01X5669524Y-464932D01*
G01X5660468Y-486796D01*
G01X5654943Y-509808D01*
G01X5653086Y-533400D01*
G01X5446714Y-533400D01*
G01X5446714Y-533400D01*
G01X5446714Y-533400D01*
G01X5444857Y-509808D01*
G01X5439332Y-486796D01*
G01X5430276Y-464932D01*
G01X5417911Y-444754D01*
G01X5402541Y-426759D01*
G01X5384546Y-411389D01*
G01X5364368Y-399024D01*
G01X5342504Y-389968D01*
G01X5319492Y-384443D01*
G01X5295900Y-382586D01*
G01X5272308Y-384443D01*
G01X5249296Y-389968D01*
G01X5227432Y-399024D01*
G01X5207254Y-411389D01*
G01X5189259Y-426759D01*
G01X5173889Y-444754D01*
G01X5161524Y-464932D01*
G01X5152468Y-486796D01*
G01X5146943Y-509808D01*
G01X5145086Y-533400D01*
G01X4555720Y-533400D01*
G01X4556719Y-520700D01*
G01X4556719Y-520700D01*
G01X4554801Y-496325D01*
G01X4549093Y-472551D01*
G01X4539737Y-449962D01*
G01X4526962Y-429115D01*
G01X4511083Y-410523D01*
G01X4492491Y-394644D01*
G01X4471644Y-381869D01*
G01X4449055Y-372512D01*
G01X4425280Y-366805D01*
G01X4400906Y-364886D01*
G01X4376531Y-366805D01*
G01X4352757Y-372512D01*
G01X4330168Y-381869D01*
G01X4309321Y-394644D01*
G01X4290729Y-410523D01*
G01X4274850Y-429115D01*
G01X4262075Y-449962D01*
G01X4252718Y-472551D01*
G01X4247010Y-496325D01*
G01X4245092Y-520700D01*
G01X3806708Y-520700D01*
G01X3806708Y-520700D01*
G01X3806708Y-520700D01*
G01X3804790Y-496325D01*
G01X3799082Y-472551D01*
G01X3789725Y-449962D01*
G01X3776950Y-429115D01*
G01X3761071Y-410523D01*
G01X3742479Y-394644D01*
G01X3721632Y-381869D01*
G01X3699043Y-372512D01*
G01X3675269Y-366805D01*
G01X3650894Y-364886D01*
G01X3626520Y-366805D01*
G01X3602745Y-372512D01*
G01X3580156Y-381869D01*
G01X3559309Y-394644D01*
G01X3540717Y-410523D01*
G01X3524838Y-429115D01*
G01X3512063Y-449962D01*
G01X3502707Y-472551D01*
G01X3496999Y-496325D01*
G01X3495081Y-520700D01*
G01X1786378Y-520700D01*
G01X1801776Y-503871D01*
G01X1814307Y-484312D01*
G01X1823322Y-462903D01*
G01X1828557Y-440271D01*
G01X1829858Y-417078D01*
G01X1827188Y-394003D01*
G01X1820625Y-371720D01*
G01X1810361Y-350882D01*
G01X1796695Y-332097D01*
G01X1780028Y-315916D01*
G01X1763758Y-304800D01*
G01X11838686Y-304800D01*
G01X11840571Y-334756D01*
G01X11846195Y-364240D01*
G01X11855470Y-392787D01*
G01X11868250Y-419946D01*
G01X11884334Y-445289D01*
G01X11903466Y-468416D01*
G01X11925347Y-488963D01*
G01X11949630Y-506606D01*
G01X11975933Y-521066D01*
G01X12003841Y-532116D01*
G01X12032913Y-539580D01*
G01X12062692Y-543342D01*
G01X12092708Y-543342D01*
G01X12122487Y-539580D01*
G01X12151559Y-532116D01*
G01X12179467Y-521066D01*
G01X12205770Y-506606D01*
G01X12230053Y-488963D01*
G01X12251934Y-468416D01*
G01X12271066Y-445289D01*
G01X12287150Y-419946D01*
G01X12299930Y-392787D01*
G01X12309205Y-364240D01*
G01X12314829Y-334756D01*
G01X12316714Y-304800D01*
G01X12314829Y-274844D01*
G01X12309205Y-245360D01*
G01X12299930Y-216813D01*
G01X12287150Y-189654D01*
G01X12271066Y-164311D01*
G01X12251934Y-141184D01*
G01X12230053Y-120637D01*
G01X12205770Y-102994D01*
G01X12179467Y-88534D01*
G01X12151559Y-77484D01*
G01X12122487Y-70020D01*
G01X12092708Y-66258D01*
G01X12062692Y-66258D01*
G01X12032913Y-70020D01*
G01X12003841Y-77484D01*
G01X11975933Y-88534D01*
G01X11949630Y-102994D01*
G01X11925347Y-120637D01*
G01X11903466Y-141184D01*
G01X11884334Y-164311D01*
G01X11868250Y-189654D01*
G01X11855470Y-216813D01*
G01X11846195Y-245360D01*
G01X11840571Y-274844D01*
G01X11838686Y-304800D01*
G01X11838686Y-304800D01*
G01X1763758Y-304800D01*
G01X1760848Y-302812D01*
G01X1739715Y-293168D01*
G01X1717248Y-287267D01*
G01X1694104Y-285280D01*
G01X1670960Y-287267D01*
G01X1648492Y-293168D01*
G01X1627360Y-302812D01*
G01X1608179Y-315916D01*
G01X1591513Y-332097D01*
G01X1577847Y-350882D01*
G01X1567583Y-371720D01*
G01X1561019Y-394003D01*
G01X1558349Y-417078D01*
G01X1479421Y-417078D01*
G01X1479362Y-408960D01*
G01X1475546Y-386960D01*
G01X1468177Y-365882D01*
G01X1457453Y-346297D01*
G01X1443666Y-328734D01*
G01X1427187Y-313667D01*
G01X1408462Y-301503D01*
G01X1387997Y-292573D01*
G01X1366345Y-287116D01*
G01X1344092Y-285280D01*
G01X1321839Y-287116D01*
G01X1300187Y-292573D01*
G01X1279722Y-301503D01*
G01X1260997Y-313667D01*
G01X1244518Y-328734D01*
G01X1230730Y-346297D01*
G01X1220007Y-365882D01*
G01X1212637Y-386960D01*
G01X1208821Y-408960D01*
G01X1208661Y-431288D01*
G01X1166513Y-431288D01*
G01X1148625Y-416011D01*
G01X1127108Y-402825D01*
G01X1103795Y-393169D01*
G01X1079257Y-387278D01*
G01X1054100Y-385298D01*
G01X1028943Y-387278D01*
G01X1004405Y-393169D01*
G01X981092Y-402825D01*
G01X959575Y-416011D01*
G01X940387Y-432399D01*
G01X923998Y-451588D01*
G01X910813Y-473104D01*
G01X901156Y-496418D01*
G01X895265Y-520956D01*
G01X893285Y-546113D01*
G01X893285Y-546113D01*
G01X817225Y-546113D01*
G01X817201Y-546100D01*
G01X837727Y-535224D01*
G01X856099Y-521009D01*
G01X871780Y-503871D01*
G01X884312Y-484312D01*
G01X893327Y-462903D01*
G01X898561Y-440271D01*
G01X899863Y-417078D01*
G01X897193Y-394003D01*
G01X890629Y-371720D01*
G01X880365Y-350882D01*
G01X866699Y-332097D01*
G01X850033Y-315916D01*
G01X830852Y-302812D01*
G01X809720Y-293168D01*
G01X787252Y-287267D01*
G01X764108Y-285280D01*
G01X740964Y-287267D01*
G01X718497Y-293168D01*
G01X697364Y-302812D01*
G01X678184Y-315916D01*
G01X661517Y-332097D01*
G01X647851Y-350882D01*
G01X637587Y-371720D01*
G01X631024Y-394003D01*
G01X628354Y-417078D01*
G01X549851Y-417078D01*
G01X549851Y-417078D01*
G01X547181Y-394003D01*
G01X540617Y-371720D01*
G01X530353Y-350882D01*
G01X516687Y-332097D01*
G01X500021Y-315916D01*
G01X480840Y-302812D01*
G01X459708Y-293168D01*
G01X437240Y-287267D01*
G01X414096Y-285280D01*
G01X390952Y-287267D01*
G01X368485Y-293168D01*
G01X347352Y-302812D01*
G01X328172Y-315916D01*
G01X311505Y-332097D01*
G01X297839Y-350882D01*
G01X287575Y-371720D01*
G01X281012Y-394003D01*
G01X278342Y-417078D01*
G01X279643Y-440271D01*
G01X284878Y-462903D01*
G01X293893Y-484312D01*
G01X306424Y-503871D01*
G01X322105Y-521009D01*
G01X340477Y-535224D01*
G01X361003Y-546100D01*
G01X340477Y-556976D01*
G01X322105Y-571191D01*
G01X306424Y-588329D01*
G01X293893Y-607888D01*
G01X284878Y-629297D01*
G01X279643Y-651929D01*
G01X278342Y-675122D01*
G01X35814Y-675122D01*
G01X35814Y-254000D01*
G37*
G54D10*
G01X35814Y-254000D02*
G02X254000Y-35814I218186J0D01*
G01X12141200Y-35814D01*
G02X12359386Y-254000I0J-218186D01*
G01X12359386Y-10985500D01*
G02X12141200Y-11203686I-218186J0D01*
G01X254000Y-11203686D01*
G02X35814Y-10985500I0J218186D01*
G01X35814Y-254000D01*
G01X124938Y-10795000D02*
G03X602966Y-10795000I239014J0D01*
G03X124938Y-10795000I-239014J0D01*
G01X414096Y-806920D02*
G03X467189Y-546100I0J135814D01*
G03X414096Y-285280I-53093J125006D01*
G03X361003Y-546100I0J-135814D01*
G03X414096Y-806920I53093J-125006D01*
G01X520700Y-5119686D02*
G03X520700Y-5421314I0J-150814D01*
G03X520700Y-5119686I0J150814D01*
G01X520700Y-6135686D02*
G03X520700Y-6437314I0J-150814D01*
G03X520700Y-6135686I0J150814D01*
G01X520700Y-4611686D02*
G03X520700Y-4913314I0J-150814D01*
G03X520700Y-4611686I0J150814D01*
G01X520700Y-5627686D02*
G03X520700Y-5929314I0J-150814D01*
G03X520700Y-5627686I0J150814D01*
G01X533400Y-8332786D02*
G03X533400Y-8634414I0J-150814D01*
G03X533400Y-8332786I0J150814D01*
G01X533400Y-7824786D02*
G03X533400Y-8126414I0J-150814D01*
G03X533400Y-7824786I0J150814D01*
G01X533400Y-3951286D02*
G03X533400Y-4252914I0J-150814D01*
G03X533400Y-3951286I0J150814D01*
G01X533400Y-7316786D02*
G03X533400Y-7618414I0J-150814D01*
G03X533400Y-7316786I0J150814D01*
G01X533400Y-6808786D02*
G03X533400Y-7110414I0J-150814D01*
G03X533400Y-6808786I0J150814D01*
G01X533400Y-3443286D02*
G03X533400Y-3744914I0J-150814D01*
G03X533400Y-3443286I0J150814D01*
G01X546100Y-2213092D02*
G03X546100Y-2524719I0J-155814D01*
G03X546100Y-2213092I0J155814D01*
G01X546100Y-1463081D02*
G03X546100Y-1774708I0J-155814D01*
G03X546100Y-1463081I0J155814D01*
G01X764108Y-806920D02*
G03X817201Y-546100I0J135814D01*
G03X764108Y-285280I-53093J125006D01*
G03X711015Y-546100I0J-135814D01*
G03X764108Y-806920I53093J-125006D01*
G01X893285Y-546113D02*
G03X1214915Y-546113I160815J0D01*
G03X893285Y-546113I-160815J0D01*
G01X1344092Y-794220D02*
G03X1410168Y-539750I0J135814D01*
G03X1344092Y-285280I-66077J118656D01*
G03X1278015Y-539750I0J-135814D01*
G03X1344092Y-794220I66077J-118656D01*
G01X1241786Y-5626964D02*
G03X1374414Y-5626964I66314J0D01*
G03X1241786Y-5626964I-66314J0D01*
G01X1241786Y-8327898D02*
G03X1374414Y-8327898I66314J0D01*
G03X1241786Y-8327898I-66314J0D01*
G01X1241786Y-7824064D02*
G03X1374414Y-7824064I66314J0D01*
G03X1241786Y-7824064I-66314J0D01*
G01X1241787Y-7362699D02*
G03X1374415Y-7362699I66314J0D01*
G03X1241787Y-7362699I-66314J0D01*
G01X1241787Y-6130799D02*
G03X1374415Y-6130799I66314J0D01*
G03X1241787Y-6130799I-66314J0D01*
G01X1241787Y-5114799D02*
G03X1374415Y-5114799I66314J0D01*
G03X1241787Y-5114799I-66314J0D01*
G01X1241787Y-4606799D02*
G03X1374415Y-4606799I66314J0D01*
G03X1241787Y-4606799I-66314J0D01*
G01X1244569Y-6809283D02*
G03X1377197Y-6809283I66314J0D01*
G03X1244569Y-6809283I-66314J0D01*
G01X1351373Y-1946806D02*
G03X1484002Y-1946806I66314J0D01*
G03X1351373Y-1946806I-66314J0D01*
G01X1356086Y-1390498D02*
G03X1488714Y-1390498I66314J0D01*
G03X1356086Y-1390498I-66314J0D01*
G01X1551686Y-2819400D02*
G03X2029714Y-2819400I239014J0D01*
G03X1551686Y-2819400I-239014J0D01*
G01X1694104Y-806920D02*
G03X1747197Y-546100I0J135814D01*
G03X1694104Y-285280I-53093J125006D01*
G03X1641011Y-546100I0J-135814D01*
G03X1694104Y-806920I53093J-125006D01*
G01X1698986Y-2272800D02*
G03X1831614Y-2272800I66314J0D01*
G03X1698986Y-2272800I-66314J0D01*
G01X1711683Y-6203798D02*
G03X1844310Y-6203798I66314J0D01*
G03X1711683Y-6203798I-66314J0D01*
G01X1792067Y-1442274D02*
G03X1924695Y-1442274I66314J0D01*
G03X1792067Y-1442274I-66314J0D01*
G01X1813282Y-6102198D02*
G03X1945910Y-6102198I66314J0D01*
G03X1813282Y-6102198I-66314J0D01*
G01X2742479Y-1537647D02*
G03X2654300Y-1538289I-43729J-49853D01*
G03X2565716Y-1538005I-44450J-49211D01*
G03X2555887Y-1626043I44134J-49495D01*
G03X2556133Y-1701712I54585J-37657D01*
G03X2555052Y-1779682I53096J-39729D01*
G03X2567307Y-1866443I55419J-36418D01*
G03X2654921Y-1865311I43164J50343D01*
G03X2743303Y-1865775I44450J49211D01*
G03X2753648Y-1778000I-43931J49675D01*
G03X2753648Y-1701800I-54277J38100D01*
G03X2753335Y-1625157I-54277J38100D01*
G03X2742479Y-1537647I-54585J37657D01*
G01X2596238Y-5478089D02*
G03X2728866Y-5478089I66314J0D01*
G03X2596238Y-5478089I-66314J0D01*
G01X2652677Y-7644151D02*
G03X2663664Y-7775130I14323J-64749D01*
G03X2687758Y-7645919I3336J66230D01*
G03X2676771Y-7514940I-14323J64749D01*
G03X2652677Y-7644151I-3336J-66230D01*
G01X2692885Y-7458569D02*
G03X2825514Y-7458569I66314J0D01*
G03X2692885Y-7458569I-66314J0D01*
G01X2943586Y-2420214D02*
G03X3076214Y-2420214I66314J0D01*
G03X2943586Y-2420214I-66314J0D01*
G01X3186493Y-1541920D02*
G03X3101693Y-1534724I-46700J-47081D01*
G03X3016511Y-1542302I-38100J-54277D01*
G03X3009630Y-1627543I47082J-46699D01*
G03X3009876Y-1703213I54585J-37657D01*
G03X3008795Y-1781183I53096J-39729D01*
G03X3018048Y-1865206I55419J-36418D01*
G03X3102315Y-1871877I46167J47605D01*
G03X3187306Y-1864492I38100J54277D01*
G03X3194691Y-1779501I-46891J46891D01*
G03X3194691Y-1703301I-54277J38100D01*
G03X3194378Y-1626658I-54277J38100D01*
G03X3186493Y-1541920I-54585J37657D01*
G01X3000584Y-7239000D02*
G03X3133212Y-7239000I66314J0D01*
G03X3000584Y-7239000I-66314J0D01*
G01X3000584Y-5041900D02*
G03X3133212Y-5041900I66314J0D01*
G03X3000584Y-5041900I-66314J0D01*
G01X3129637Y-5478089D02*
G03X3262265Y-5478089I66314J0D01*
G03X3129637Y-5478089I-66314J0D01*
G01X3806708Y-520700D02*
G03X3495081Y-520700I-155814J0D01*
G03X3806708Y-520700I155814J0D01*
G01X4023086Y-2420214D02*
G03X4155714Y-2420214I66314J0D01*
G03X4023086Y-2420214I-66314J0D01*
G01X4556719Y-520700D02*
G03X4245092Y-520700I-155814J0D01*
G03X4556719Y-520700I155814J0D01*
G01X4463497Y-1333500D02*
G03X4596125Y-1333500I66314J0D01*
G03X4463497Y-1333500I-66314J0D01*
G01X5115286Y-5448300D02*
G03X5247914Y-5448300I66314J0D01*
G03X5115286Y-5448300I-66314J0D01*
G01X5446714Y-533400D02*
G03X5145086Y-533400I-150814J0D01*
G03X5446714Y-533400I150814J0D01*
G01X5174697Y-1333500D02*
G03X5307325Y-1333500I66314J0D01*
G03X5174697Y-1333500I-66314J0D01*
G01X5245100Y-1704614D02*
G03X5299377Y-1600200I0J66314D01*
G03X5245100Y-1495786I-54277J38100D01*
G03X5190823Y-1600200I0J-66314D01*
G03X5245100Y-1704614I54277J-38100D01*
G01X5254986Y-5588000D02*
G03X5387614Y-5588000I66314J0D01*
G03X5254986Y-5588000I-66314J0D01*
G01X5369286Y-5702300D02*
G03X5501914Y-5702300I66314J0D01*
G03X5369286Y-5702300I-66314J0D01*
G01X5954714Y-533400D02*
G03X5653086Y-533400I-150814J0D01*
G03X5954714Y-533400I150814J0D01*
G01X5738443Y-4584700D02*
G03X5871071Y-4584700I66314J0D01*
G03X5738443Y-4584700I-66314J0D01*
G01X5878143Y-4445000D02*
G03X6010771Y-4445000I66314J0D01*
G03X5878143Y-4445000I-66314J0D01*
G01X5898597Y-1333500D02*
G03X6031225Y-1333500I66314J0D01*
G03X5898597Y-1333500I-66314J0D01*
G01X5969000Y-1704614D02*
G03X6023277Y-1600200I0J66314D01*
G03X5969000Y-1495786I-54277J38100D01*
G03X5914723Y-1600200I0J-66314D01*
G03X5969000Y-1704614I54277J-38100D01*
G01X6030543Y-4356100D02*
G03X6163171Y-4356100I66314J0D01*
G03X6030543Y-4356100I-66314J0D01*
G01X6462714Y-533400D02*
G03X6161086Y-533400I-150814J0D01*
G03X6462714Y-533400I150814J0D01*
G01X6212586Y-7607300D02*
G03X6690614Y-7607300I239014J0D01*
G03X6212586Y-7607300I-239014J0D01*
G01X6286712Y-5819409D02*
G03X6331076Y-5703228I655J66311D01*
G03X6289016Y-5586192I-42715J50725D01*
G03X6244653Y-5702374I-655J-66311D01*
G03X6286712Y-5819409I42715J-50725D01*
G01X6449643Y-5168900D02*
G03X6582271Y-5168900I66314J0D01*
G03X6449643Y-5168900I-66314J0D01*
G01X6462343Y-4140200D02*
G03X6594971Y-4140200I66314J0D01*
G03X6462343Y-4140200I-66314J0D01*
G01X6468370Y-10917777D02*
G01X6468370Y-10977777D01*
G03X6659997Y-10977777I95814J0D01*
G01X6659997Y-10917777D01*
G03X6468370Y-10917777I-95814J0D01*
G01X6654997Y-10482763D02*
G03X6473370Y-10482763I-90814J0D01*
G01X6473370Y-10572762D01*
G03X6645383Y-10613430I90814J0D01*
G03X6778014Y-10588133I62311J33648D01*
G03X6654997Y-10532475I-70321J8352D01*
G01X6654997Y-10482763D01*
G01X6574155Y-5865754D02*
G03X6613969Y-5748866I-2999J66246D01*
G03X6609382Y-5651499I-47212J46567D01*
G03X6566757Y-5534385I-42625J50800D01*
G03X6524132Y-5651499I-0J-66314D01*
G03X6523944Y-5752941I42625J-50800D01*
G03X6574155Y-5865754I47212J-46567D01*
G01X6516673Y-6092478D02*
G03X6649301Y-6092478I66314J0D01*
G03X6516673Y-6092478I-66314J0D01*
G01X6566693Y-5420159D02*
G03X6699321Y-5420159I66314J0D01*
G03X6566693Y-5420159I-66314J0D01*
G01X6566693Y-4912160D02*
G03X6699321Y-4912160I66314J0D01*
G03X6566693Y-4912160I-66314J0D01*
G01X6635197Y-1333500D02*
G03X6767825Y-1333500I66314J0D01*
G03X6635197Y-1333500I-66314J0D01*
G01X6705600Y-1704614D02*
G03X6759877Y-1600200I0J66314D01*
G03X6705600Y-1495786I-54277J38100D01*
G03X6651323Y-1600200I0J-66314D01*
G03X6705600Y-1704614I54277J-38100D01*
G01X6970714Y-533400D02*
G03X6669086Y-533400I-150814J0D01*
G03X6970714Y-533400I150814J0D01*
G01X6842072Y-6087750D02*
G03X6974700Y-6087750I66314J0D01*
G03X6842072Y-6087750I-66314J0D01*
G01X6855592Y-5760426D02*
G03X6988220Y-5760426I66314J0D01*
G03X6855592Y-5760426I-66314J0D01*
G01X6881772Y-5608026D02*
G03X7014400Y-5608026I66314J0D01*
G03X6881772Y-5608026I-66314J0D01*
G01X6912482Y-4927600D02*
G03X7045110Y-4927600I66314J0D01*
G03X6912482Y-4927600I-66314J0D01*
G01X6912482Y-4749801D02*
G03X7045110Y-4749801I66314J0D01*
G03X6912482Y-4749801I-66314J0D01*
G01X6944086Y-10276249D02*
G03X7076714Y-10276249I66314J0D01*
G03X6944086Y-10276249I-66314J0D01*
G01X7019092Y-5709626D02*
G03X7151720Y-5709626I66314J0D01*
G03X7019092Y-5709626I-66314J0D01*
G01X7112707Y-10638522D02*
G03X7239739Y-10633659I62793J21322D01*
G03X7347993Y-10613454I45957J53877D01*
G03X7519994Y-10572762I81187J40692D01*
G01X7519994Y-10482763D01*
G03X7338367Y-10482763I-90814J0D01*
G01X7338367Y-10532447D01*
G03X7216435Y-10565028I-52671J-47335D01*
G03X7112707Y-10638522I-40935J-52172D01*
G01X7122752Y-4673601D02*
G03X7255380Y-4673601I66314J0D01*
G03X7122752Y-4673601I-66314J0D01*
G01X7262452Y-4229102D02*
G03X7395080Y-4229102I66314J0D01*
G03X7262452Y-4229102I-66314J0D01*
G01X7333367Y-10917777D02*
G01X7333367Y-10977777D01*
G03X7524994Y-10977777I95814J0D01*
G01X7524994Y-10917777D01*
G03X7333367Y-10917777I-95814J0D01*
G01X7351671Y-5176227D02*
G03X7484299Y-5176227I66314J0D01*
G03X7351671Y-5176227I-66314J0D01*
G01X7397197Y-1333500D02*
G03X7529825Y-1333500I66314J0D01*
G03X7397197Y-1333500I-66314J0D01*
G01X7467600Y-1704614D02*
G03X7521877Y-1600200I0J66314D01*
G03X7467600Y-1495786I-54277J38100D01*
G03X7413323Y-1600200I0J-66314D01*
G03X7467600Y-1704614I54277J-38100D01*
G01X7440251Y-4673601D02*
G03X7572879Y-4673601I66314J0D01*
G03X7440251Y-4673601I-66314J0D01*
G01X7445996Y-7607300D02*
G03X7924024Y-7607300I239014J0D01*
G03X7445996Y-7607300I-239014J0D01*
G01X7515991Y-5100027D02*
G03X7648619Y-5100027I66314J0D01*
G03X7515991Y-5100027I-66314J0D01*
G01X8393114Y-520700D02*
G03X8091486Y-520700I-150814J0D01*
G03X8393114Y-520700I150814J0D01*
G01X8095697Y-1333500D02*
G03X8228325Y-1333500I66314J0D01*
G03X8095697Y-1333500I-66314J0D01*
G01X8178800Y-1704614D02*
G03X8233077Y-1600200I0J66314D01*
G03X8178800Y-1495786I-54277J38100D01*
G03X8124523Y-1600200I0J-66314D01*
G03X8178800Y-1704614I54277J-38100D01*
G01X8416089Y-4312629D02*
G03X8548717Y-4312629I66314J0D01*
G03X8416089Y-4312629I-66314J0D01*
G01X8901114Y-520700D02*
G03X8599486Y-520700I-150814J0D01*
G03X8901114Y-520700I150814J0D01*
G01X8794197Y-1346200D02*
G03X8926825Y-1346200I66314J0D01*
G03X8794197Y-1346200I-66314J0D01*
G01X8864600Y-1704614D02*
G03X8918877Y-1600200I0J66314D01*
G03X8864600Y-1495786I-54277J38100D01*
G03X8810323Y-1600200I0J-66314D01*
G03X8864600Y-1704614I54277J-38100D01*
G01X9409114Y-520700D02*
G03X9107486Y-520700I-150814J0D01*
G03X9409114Y-520700I150814J0D01*
G01X9128486Y-10621708D02*
G03X9261114Y-10621708I66314J0D01*
G03X9128486Y-10621708I-66314J0D01*
G01X9255496Y-10241704D02*
G03X9388124Y-10241704I66314J0D01*
G03X9255496Y-10241704I-66314J0D01*
G01X9445568Y-7941947D02*
G03X9578196Y-7941947I66314J0D01*
G03X9445568Y-7941947I-66314J0D01*
G01X9505397Y-1346200D02*
G03X9638025Y-1346200I66314J0D01*
G03X9505397Y-1346200I-66314J0D01*
G01X9575800Y-1704614D02*
G03X9630077Y-1600200I0J66314D01*
G03X9575800Y-1495786I-54277J38100D01*
G03X9521523Y-1600200I0J-66314D01*
G03X9575800Y-1704614I54277J-38100D01*
G01X9917114Y-520700D02*
G03X9615486Y-520700I-150814J0D01*
G03X9917114Y-520700I150814J0D01*
G01X9726074Y-8793201D02*
G03X9858702Y-8793201I66314J0D01*
G03X9726074Y-8793201I-66314J0D01*
G01X9772376Y-4191000D02*
G03X9905004Y-4191000I66314J0D01*
G03X9772376Y-4191000I-66314J0D01*
G01X10487386Y-4057802D02*
G03X10620014Y-4057802I66314J0D01*
G03X10487386Y-4057802I-66314J0D01*
G01X10500086Y-3333902D02*
G03X10632714Y-3333902I66314J0D01*
G03X10500086Y-3333902I-66314J0D01*
G01X11645256Y-8603047D02*
G03X11777884Y-8603047I66314J0D01*
G03X11645256Y-8603047I-66314J0D01*
G01X11655017Y-7203015D02*
G03X11787645Y-7203015I66314J0D01*
G03X11655017Y-7203015I-66314J0D01*
G01X11655067Y-6145228D02*
G03X11787696Y-6145228I66314J0D01*
G03X11655067Y-6145228I-66314J0D01*
G01X11655067Y-6850414D02*
G03X11787696Y-6850414I66314J0D01*
G03X11655067Y-6850414I-66314J0D01*
G01X11655067Y-6497821D02*
G03X11787696Y-6497821I66314J0D01*
G03X11655067Y-6497821I-66314J0D01*
G01X11655067Y-7545906D02*
G03X11787696Y-7545906I66314J0D01*
G03X11655067Y-7545906I-66314J0D01*
G01X11655067Y-7898508D02*
G03X11787696Y-7898508I66314J0D01*
G03X11655067Y-7898508I-66314J0D01*
G01X11657621Y-8255100D02*
G03X11790249Y-8255100I66314J0D01*
G03X11657621Y-8255100I-66314J0D01*
G01X11667767Y-5797408D02*
G03X11800396Y-5797408I66314J0D01*
G03X11667767Y-5797408I-66314J0D01*
G01X11670646Y-5453394D02*
G03X11803274Y-5453394I66314J0D01*
G03X11670646Y-5453394I-66314J0D01*
G01X11861800Y-2246314D02*
G03X11861800Y-1944686I0J150814D01*
G03X11861800Y-2246314I0J-150814D01*
G01X11861800Y-2754314D02*
G03X11861800Y-2452686I0J150814D01*
G03X11861800Y-2754314I0J-150814D01*
G01X11861800Y-3262314D02*
G03X11861800Y-2960686I0J150814D01*
G03X11861800Y-3262314I0J-150814D01*
G01X11861800Y-4786314D02*
G03X11861800Y-4484686I0J150814D01*
G03X11861800Y-4786314I0J-150814D01*
G01X11861800Y-4278314D02*
G03X11861800Y-3976686I0J150814D01*
G03X11861800Y-4278314I0J-150814D01*
G01X11861800Y-3770314D02*
G03X11861800Y-3468686I0J150814D01*
G03X11861800Y-3770314I0J-150814D01*
G01X11838686Y-304800D02*
G03X12316714Y-304800I239014J0D01*
G03X11838686Y-304800I-239014J0D01*
G01X11838686Y-10795000D02*
G03X12316714Y-10795000I239014J0D01*
G03X11838686Y-10795000I-239014J0D01*
G54D11*
G01X6564183Y-10947777D02*
G01X6478530Y-10947777D01*
G01X6564183Y-10947777D02*
G01X6649837Y-10947777D01*
G01X6564183Y-10947777D02*
G01X6564183Y-10832123D01*
G01X6564183Y-10947777D02*
G01X6564183Y-11063431D01*
G01X6564183Y-10527763D02*
G01X6483530Y-10527763D01*
G01X6564183Y-10527763D02*
G01X6644837Y-10527763D01*
G01X6564183Y-10527763D02*
G01X6564183Y-10402109D01*
G01X6564183Y-10527763D02*
G01X6564183Y-10653416D01*
G01X7429180Y-10527763D02*
G01X7348527Y-10527763D01*
G01X7429180Y-10527763D02*
G01X7509834Y-10527763D01*
G01X7429180Y-10527763D02*
G01X7429180Y-10402109D01*
G01X7429180Y-10527763D02*
G01X7429180Y-10653416D01*
G01X7429180Y-10947777D02*
G01X7343527Y-10947777D01*
G01X7429180Y-10947777D02*
G01X7514834Y-10947777D01*
G01X7429180Y-10947777D02*
G01X7429180Y-10832123D01*
G01X7429180Y-10947777D02*
G01X7429180Y-11063431D01*
G01X11861800Y-2095500D02*
G01X11861800Y-2236154D01*
G01X11861800Y-2095500D02*
G01X11861800Y-1954846D01*
G01X11861800Y-2095500D02*
G01X11721146Y-2095500D01*
G01X11861800Y-2095500D02*
G01X12002454Y-2095500D01*
G01X11861800Y-2603500D02*
G01X11861800Y-2744154D01*
G01X11861800Y-2603500D02*
G01X11861800Y-2462846D01*
G01X11861800Y-2603500D02*
G01X11721146Y-2603500D01*
G01X11861800Y-2603500D02*
G01X12002454Y-2603500D01*
G54D12*
G01X546100Y-2368906D02*
G01X546100Y-2223252D01*
G01X546100Y-2368906D02*
G01X546100Y-2514559D01*
G01X546100Y-2368906D02*
G01X691754Y-2368906D01*
G01X546100Y-2368906D02*
G01X400446Y-2368906D01*
G01X533400Y-3594100D02*
G01X533400Y-3453446D01*
G01X533400Y-3594100D02*
G01X533400Y-3734754D01*
G01X533400Y-3594100D02*
G01X674054Y-3594100D01*
G01X533400Y-3594100D02*
G01X392746Y-3594100D01*
G01X533400Y-4102100D02*
G01X533400Y-3961446D01*
G01X533400Y-4102100D02*
G01X533400Y-4242754D01*
G01X533400Y-4102100D02*
G01X674054Y-4102100D01*
G01X533400Y-4102100D02*
G01X392746Y-4102100D01*
G04 Copper End*

G04 Pad Start*
G54D13*
G01X7685010Y-7607300D03*
G01X6451600Y-7607300D03*
G01X363952Y-10795000D03*
G01X12077700Y-10795000D03*
G01X12077700Y-304800D03*
G01X1790700Y-2819400D03*
G54D14*
G01X1694104Y-671106D03*
G01X1344092Y-658406D03*
G01X764108Y-671106D03*
G01X414096Y-671106D03*
G01X414096Y-421094D03*
G01X764108Y-421094D03*
G01X1344092Y-421094D03*
G01X1694104Y-421094D03*
G54D15*
G01X546100Y-1618894D03*
G01X546100Y-2368906D03*
G54D17*
G01X11861800Y-4635500D03*
G01X11861800Y-4127500D03*
G01X11861800Y-3619500D03*
G01X11861800Y-3111500D03*
G01X11861800Y-2603500D03*
G01X11861800Y-2095500D03*
G01X520700Y-4762500D03*
G01X520700Y-5270500D03*
G01X520700Y-5778500D03*
G01X520700Y-6286500D03*
G01X533400Y-6959600D03*
G01X533400Y-7467600D03*
G01X533400Y-7975600D03*
G01X533400Y-8483600D03*
G01X533400Y-3594100D03*
G01X533400Y-4102100D03*
G01X6819900Y-533400D03*
G01X6311900Y-533400D03*
G01X5803900Y-533400D03*
G01X5295900Y-533400D03*
G01X9766300Y-520700D03*
G01X9258300Y-520700D03*
G01X8750300Y-520700D03*
G01X8242300Y-520700D03*
G54D15*
G01X4400906Y-520700D03*
G01X3650894Y-520700D03*
G54D18*
G01X6564183Y-10527763D03*
G01X7429180Y-10527763D03*
G54D19*
G01X6564183Y-10947777D03*
G01X7429180Y-10947777D03*
G04 Pad End*

G04 Via Start*
G54D20*
G01X11201400Y-2603500D03*
G01X10949000Y-4254500D03*
G01X10949000Y-3530600D03*
G01X10553700Y-3917798D03*
G01X10566400Y-3193898D03*
G01X10379710Y-4445000D03*
G01X10553700Y-4057802D03*
G01X10566400Y-3333902D03*
G01X10382860Y-3720763D03*
G01X9841840Y-3720763D03*
G01X9838690Y-4191000D03*
G01X10070236Y-2616200D03*
G01X9571711Y-1346200D03*
G01X8860511Y-1346200D03*
G01X8162011Y-1333500D03*
G01X7463511Y-1333500D03*
G01X6701511Y-1333500D03*
G01X5964911Y-1333500D03*
G01X5241011Y-1333500D03*
G01X4529811Y-1333500D03*
G01X5070601Y-2603501D03*
G01X5756401Y-2603503D03*
G01X6480301Y-2603501D03*
G01X7225436Y-2603500D03*
G01X7978901Y-2603501D03*
G01X8677401Y-2603501D03*
G01X9401301Y-2616201D03*
G01X1308101Y-4606799D03*
G01X11736960Y-5453394D03*
G01X11721381Y-6145228D03*
G01X11721381Y-6497821D03*
G01X11721381Y-6850414D03*
G01X11721331Y-7203015D03*
G01X11721381Y-7545906D03*
G01X11721381Y-7898508D03*
G01X11723935Y-8255100D03*
G01X11711570Y-8603047D03*
G01X11257001Y-9655000D03*
G01X11045699Y-9397997D03*
G01X11419122Y-8282664D03*
G01X11734081Y-5797408D03*
G01X6676680Y-10472772D03*
G01X9321800Y-10621708D03*
G01X9702800Y-10621708D03*
G01X9194800Y-10621708D03*
G01X1803400Y-8629802D03*
G01X1308100Y-8327898D03*
G01X1803400Y-8121802D03*
G01X1308100Y-7824064D03*
G01X1308101Y-7362699D03*
G01X1803400Y-7664602D03*
G01X1803400Y-7105802D03*
G01X1310883Y-6809283D03*
G01X1803400Y-6420002D03*
G01X1308101Y-6130799D03*
G01X1308100Y-5626964D03*
G01X1803400Y-5924702D03*
G01X1803400Y-5416702D03*
G01X1308101Y-5114799D03*
G01X1790700Y-4908702D03*
G01X3206902Y-5041900D03*
G01X3066898Y-5041900D03*
G01X3206902Y-7239000D03*
G01X3066898Y-7239000D03*
G01X2362200Y-7785100D03*
G01X1777996Y-6203798D03*
G01X1879596Y-6102198D03*
G01X6908386Y-6087750D03*
G01X9511882Y-7941947D03*
G01X6948086Y-5608026D03*
G01X7417985Y-5176227D03*
G01X7085406Y-5709626D03*
G01X8482403Y-4312629D03*
G01X6921906Y-5760426D03*
G01X7582305Y-5100027D03*
G01X3195951Y-5478089D03*
G01X2662552Y-5478089D03*
G01X6096857Y-4356100D03*
G01X6566757Y-5600699D03*
G01X5944457Y-4445000D03*
G01X6288361Y-5652503D03*
G01X5804757Y-4584700D03*
G01X6566757Y-5702299D03*
G01X7189066Y-4673601D03*
G01X6571157Y-5799508D03*
G01X7328766Y-4229102D03*
G01X6582987Y-6092478D03*
G01X7506565Y-4673601D03*
G01X6287367Y-5753098D03*
G01X1858381Y-1442274D03*
G01X6978796Y-4749801D03*
G01X6838796Y-4749801D03*
G01X6528657Y-4140200D03*
G01X6515957Y-5168900D03*
G01X6633007Y-4912160D03*
G01X6633007Y-5420159D03*
G01X533400Y-3853627D03*
G01X7010400Y-10043751D03*
G01X7316684Y-10472770D03*
G01X7010400Y-10276249D03*
G01X7175500Y-10617200D03*
G01X1422400Y-1390498D03*
G01X1765300Y-2272800D03*
G01X1417688Y-1946806D03*
G01X1417695Y-1706807D03*
G01X6838796Y-4927600D03*
G01X6978796Y-4927600D03*
G01X3543301Y-1231899D03*
G01X3009900Y-3320186D03*
G01X4089400Y-3320186D03*
G01X4089400Y-2420214D03*
G01X3009900Y-2420214D03*
G01X2390107Y-2452746D03*
G01X9321810Y-10241704D03*
G01X9792388Y-8793201D03*
G01X3064215Y-1817601D03*
G01X3062972Y-1742941D03*
G01X3064215Y-1665201D03*
G01X3140415Y-1665201D03*
G01X3140415Y-1741401D03*
G01X3140415Y-1817601D03*
G01X3063593Y-1589001D03*
G01X3139793Y-1589001D03*
G01X2610471Y-1816100D03*
G01X2609229Y-1741441D03*
G01X2610471Y-1663700D03*
G01X2699371Y-1663700D03*
G01X2699371Y-1739900D03*
G01X2699371Y-1816100D03*
G01X2609850Y-1587500D03*
G01X2698750Y-1587500D03*
G01X5245100Y-1562100D03*
G01X5245100Y-1638300D03*
G01X5969000Y-1562100D03*
G01X5969000Y-1638300D03*
G01X6705600Y-1562100D03*
G01X6705600Y-1638300D03*
G01X7467600Y-1562100D03*
G01X7467600Y-1638300D03*
G01X8178800Y-1562100D03*
G01X8178800Y-1638300D03*
G01X8864600Y-1562100D03*
G01X8864600Y-1638300D03*
G01X9575800Y-1562100D03*
G01X9575800Y-1638300D03*
G01X5194300Y-2603500D03*
G01X5194300Y-2679700D03*
G01X5892800Y-2679700D03*
G01X5892800Y-2603500D03*
G01X6591300Y-2679700D03*
G01X6591300Y-2603500D03*
G01X7353300Y-2679700D03*
G01X7353300Y-2603500D03*
G01X8089900Y-2679700D03*
G01X8089900Y-2603500D03*
G01X8788400Y-2679700D03*
G01X8788400Y-2603500D03*
G01X9525000Y-2692400D03*
G01X9525000Y-2616200D03*
G01X10185400Y-2692400D03*
G01X10185400Y-2616200D03*
G01X3403600Y-3530600D03*
G01X3517900Y-3530600D03*
G01X3632200Y-3530600D03*
G01X3403600Y-3619500D03*
G01X3517900Y-3619500D03*
G01X3632200Y-3619500D03*
G01X5321300Y-5588000D03*
G01X2673435Y-7581170D03*
G01X2667000Y-7708900D03*
G01X5435600Y-5702300D03*
G01X2759199Y-7458569D03*
G01X5181600Y-5448300D03*
G04 Via End*

M02*

