G04 Layer: TopSolderMaskLayer*
G04 EasyEDA Pro v3.2.148, 2026-07-18 15:48:42*
G04 Gerber Generator version 0.3*
G04 Scale: 100 percent, Rotated: No, Reflected: No*
G04 Dimensions in millimeters*
G04 Leading zeros omitted, absolute positions, 4 integers and 5 decimals*
G04 Generated by one-click*
G04 Object Configs: Pad,Via,Track,Text,Image,Dimension,BoardOutline,BoardCutout,CopperFilled,SolidRegion,FPCStiffener,Line,PlaneZone,ComponentProperty,ComponentSilkscreen,TearDrop*
G04 Layer Configs: 1,15,16,2,3,4,5,6,7,8,9,10,11,13,14,56*
G04 Copper Areas: 0*
%FSLAX45Y45*%
%MOMM*%
%AMRoundRect*1,1,$1,$2,$3*1,1,$1,$4,$5*1,1,$1,0-$2,0-$3*1,1,$1,0-$4,0-$5*20,1,$1,$2,$3,$4,$5,0*20,1,$1,$4,$5,0-$2,0-$3,0*20,1,$1,0-$2,0-$3,0-$4,0-$5,0*20,1,$1,0-$4,0-$5,$2,$3,0*4,1,4,$2,$3,$4,$5,0-$2,0-$3,0-$4,0-$5,$2,$3,0*%
%ADD10C,4.1656*%
%ADD11RoundRect,0.1016X-0.4X0.45X0.4X0.45*%
%ADD12RoundRect,0.1016X-0.45X-0.4X-0.45X0.4*%
%ADD13RoundRect,0.1016X-0.825X-2.25X-0.825X2.25*%
%ADD14RoundRect,0.1016X-0.67945X-0.75X-0.67945X0.75*%
%ADD15RoundRect,0.1003X-0.266X0.536X0.266X0.536*%
%ADD16RoundRect,0.1016X-0.266X0.536X0.266X0.536*%
%ADD17RoundRect,0.1016X-1.0X1.0X1.0X1.0*%
%ADD18RoundRect,0.1016X-0.5X0.32501X0.5X0.32501*%
%ADD19RoundRect,0.1016X-1.7496X-0.70334X-1.7496X0.70334*%
%ADD20C,2.1016*%
%ADD21C,2.5016*%
%ADD22C,2.40002*%
%ADD23C,2.4016*%
%ADD24RoundRect,0.10003X-0.27501X0.55X0.27501X0.55*%
%ADD25RoundRect,0.10003X-0.15X0.55X0.15X0.55*%
%ADD26O,1.20002X2.10002*%
%ADD27O,1.30002X1.90002*%
%ADD28RoundRect,0.1016X-0.37X1.2X0.37X1.2*%
%ADD29RoundRect,0.1016X-2.11X-1.062X-2.11X1.062*%
%ADD30RoundRect,0.1016X-0.4X0.4X0.4X0.4*%
%ADD31RoundRect,0.1016X-0.3X-0.535X-0.3X0.535*%
%ADD32RoundRect,0.1016X-0.40324X0.432X0.40324X0.432*%
%ADD33RoundRect,0.1016X-0.432X-0.40324X-0.432X0.40324*%
%ADD34RoundRect,0.1016X-0.5X0.37501X0.5X0.37501*%
%ADD35RoundRect,0.1016X-0.37501X-0.5X-0.37501X0.5*%
%ADD36O,0.37003X1.60002*%
%ADD37O,1.60002X0.37003*%
%ADD38O,2.05181X0.67*%
%ADD39RoundRect,0.1016X-0.85X-0.2X-0.85X0.2*%
%ADD40RoundRect,0.1016X-0.5X-1.52999X-0.5X1.52999*%
%ADD41RoundRect,0.1016X-0.47501X0.57501X0.47501X0.57501*%
%ADD42RoundRect,0.1016X-5.304X-4.2X-5.304X4.2*%
%ADD43RoundRect,0.1016X-0.9X-1.85X-0.9X1.85*%
G75*


G04 Pad Start*
G54D10*
G01X7685010Y-7607300D03*
G01X6451600Y-7607300D03*
G01X363952Y-10795000D03*
G01X12077700Y-10795000D03*
G01X12077700Y-304800D03*
G01X1790700Y-2819400D03*
G54D11*
G01X6978802Y-4749800D03*
G01X6838798Y-4749800D03*
G54D12*
G01X11112500Y-10026802D03*
G01X11112500Y-9886798D03*
G01X10566400Y-3333902D03*
G01X10566400Y-3193898D03*
G01X10553700Y-4057802D03*
G01X10553700Y-3917798D03*
G54D11*
G01X6978802Y-4927600D03*
G01X6838798Y-4927600D03*
G54D13*
G01X3009900Y-3320186D03*
G01X3009900Y-2420214D03*
G54D14*
G01X1420235Y-1946789D03*
G01X1420235Y-1706809D03*
G54D12*
G01X2057400Y-1619098D03*
G01X2057400Y-1759102D03*
G01X1803400Y-6279998D03*
G01X1803400Y-6420002D03*
G01X1803400Y-5784698D03*
G01X1803400Y-5924702D03*
G01X1803400Y-5276698D03*
G01X1803400Y-5416702D03*
G01X1790700Y-4768698D03*
G01X1790700Y-4908702D03*
G01X1803400Y-8489798D03*
G01X1803400Y-8629802D03*
G01X1803400Y-7981798D03*
G01X1803400Y-8121802D03*
G01X1803400Y-7524598D03*
G01X1803400Y-7664602D03*
G01X1803400Y-6965798D03*
G01X1803400Y-7105802D03*
G01X1422400Y-1390498D03*
G01X1422400Y-1530502D03*
G54D14*
G01X1229899Y-1936004D03*
G01X1229899Y-1696025D03*
G54D11*
G01X3066898Y-5041900D03*
G01X3206902Y-5041900D03*
G01X3066898Y-7239000D03*
G01X3206902Y-7239000D03*
G54D16*
G01X7105396Y-10045090D03*
G01X7010400Y-10045090D03*
G01X6915404Y-10045090D03*
G01X6915404Y-10274910D03*
G01X7010400Y-10274910D03*
G01X7105396Y-10274910D03*
G54D17*
G01X7141489Y-1333500D03*
G01X6701511Y-1333500D03*
G54D18*
G01X11149000Y-4349496D03*
G01X11149000Y-4159504D03*
G01X10949000Y-4254500D03*
G01X11149000Y-3625596D03*
G01X11149000Y-3435604D03*
G01X10949000Y-3530600D03*
G54D17*
G01X6404889Y-1333500D03*
G01X5964911Y-1333500D03*
G01X5680989Y-1333500D03*
G01X5241011Y-1333500D03*
G01X4969789Y-1333500D03*
G01X4529811Y-1333500D03*
G01X10011689Y-1346200D03*
G01X9571711Y-1346200D03*
G01X9300489Y-1346200D03*
G01X8860511Y-1346200D03*
G01X8601989Y-1333500D03*
G01X8162011Y-1333500D03*
G01X7903489Y-1333500D03*
G01X7463511Y-1333500D03*
G54D19*
G01X7151004Y-1641200D03*
G01X7151004Y-2011888D03*
G01X6400800Y-1605356D03*
G01X6400800Y-1976044D03*
G01X5677804Y-1613949D03*
G01X5677804Y-1984636D03*
G01X4965700Y-1618056D03*
G01X4965700Y-1988744D03*
G01X10007600Y-1630756D03*
G01X10007600Y-2001444D03*
G01X9307590Y-1646665D03*
G01X9307590Y-2017353D03*
G01X8597900Y-1630756D03*
G01X8597900Y-2001444D03*
G01X7899400Y-1630756D03*
G01X7899400Y-2001444D03*
G54D20*
G01X1694104Y-671106D03*
G01X1344092Y-658406D03*
G01X764108Y-671106D03*
G01X414096Y-671106D03*
G01X414096Y-421094D03*
G01X764108Y-421094D03*
G01X1344092Y-421094D03*
G01X1694104Y-421094D03*
G54D21*
G01X546100Y-1618894D03*
G01X546100Y-2368906D03*
G54D22*
G01X11861800Y-4635500D03*
G01X11861800Y-4127500D03*
G01X11861800Y-3619500D03*
G01X11861800Y-3111500D03*
G01X11861800Y-2603500D03*
G01X11861800Y-2095500D03*
G01X520700Y-4762500D03*
G01X520700Y-5270500D03*
G01X520700Y-5778500D03*
G01X520700Y-6286500D03*
G01X533400Y-6959600D03*
G01X533400Y-7467600D03*
G01X533400Y-7975600D03*
G01X533400Y-8483600D03*
G54D23*
G01X533400Y-3594100D03*
G01X533400Y-4102100D03*
G54D22*
G01X6819900Y-533400D03*
G01X6311900Y-533400D03*
G01X5803900Y-533400D03*
G01X5295900Y-533400D03*
G01X9766300Y-520700D03*
G01X9258300Y-520700D03*
G01X8750300Y-520700D03*
G01X8242300Y-520700D03*
G54D21*
G01X4400906Y-520700D03*
G01X3650894Y-520700D03*
G54D24*
G01X6676680Y-10472772D03*
G01X6756690Y-10472772D03*
G54D25*
G01X6821689Y-10472772D03*
G01X6871701Y-10472772D03*
G01X6921688Y-10472772D03*
G01X6971676Y-10472772D03*
G01X7021688Y-10472772D03*
G01X7071675Y-10472772D03*
G01X7121688Y-10472772D03*
G01X7171701Y-10472772D03*
G54D24*
G01X7236699Y-10472772D03*
G01X7316684Y-10472772D03*
G54D26*
G01X6564183Y-10527763D03*
G01X7429180Y-10527763D03*
G54D27*
G01X6564183Y-10947777D03*
G01X7429180Y-10947777D03*
G54D28*
G01X9702800Y-10231691D03*
G01X9702800Y-10621708D03*
G01X9575800Y-10231691D03*
G01X9575800Y-10621708D03*
G01X9448800Y-10231691D03*
G01X9448800Y-10621708D03*
G01X9321800Y-10231691D03*
G01X9321800Y-10621708D03*
G01X9194800Y-10231691D03*
G01X9194800Y-10621708D03*
G54D29*
G01X1765300Y-1882800D03*
G01X1765300Y-2282800D03*
G54D30*
G01X11710885Y-8443154D03*
G01X11711570Y-8603047D03*
G01X11723935Y-8255100D03*
G01X11723910Y-8105301D03*
G01X11720696Y-7738606D03*
G01X11721381Y-7898499D03*
G01X11720696Y-7386013D03*
G01X11721381Y-7545906D03*
G01X11720696Y-7043113D03*
G01X11721381Y-7203006D03*
G01X11720696Y-6690521D03*
G01X11721381Y-6850414D03*
G01X11720696Y-6337928D03*
G01X11721381Y-6497821D03*
G01X11720696Y-5985335D03*
G01X11721381Y-6145228D03*
G01X11733396Y-5637515D03*
G01X11734081Y-5797408D03*
G01X11736280Y-5293554D03*
G01X11736965Y-5453447D03*
G54D31*
G01X7055104Y-2434907D03*
G01X7245096Y-2434907D03*
G01X7150100Y-2187892D03*
G01X6305804Y-2409507D03*
G01X6495796Y-2409507D03*
G01X6400800Y-2162492D03*
G01X5581904Y-2409507D03*
G01X5771896Y-2409507D03*
G01X5676900Y-2162492D03*
G01X4883404Y-2422207D03*
G01X5073396Y-2422207D03*
G01X4978400Y-2175192D03*
G01X9912604Y-2447607D03*
G01X10102596Y-2447607D03*
G01X10007600Y-2200592D03*
G01X9226804Y-2460307D03*
G01X9416796Y-2460307D03*
G01X9321800Y-2213292D03*
G01X8502904Y-2460307D03*
G01X8692896Y-2460307D03*
G01X8597900Y-2213292D03*
G01X7804404Y-2434907D03*
G01X7994396Y-2434907D03*
G01X7899400Y-2187892D03*
G54D32*
G01X7074764Y-2603500D03*
G01X7225436Y-2603500D03*
G01X6325464Y-2603500D03*
G01X6476136Y-2603500D03*
G01X5601564Y-2603500D03*
G01X5752236Y-2603500D03*
G01X4915764Y-2603500D03*
G01X5066436Y-2603500D03*
G01X9919564Y-2616200D03*
G01X10070236Y-2616200D03*
G01X9246464Y-2616200D03*
G01X9397136Y-2616200D03*
G01X8522564Y-2603500D03*
G01X8673236Y-2603500D03*
G01X7824064Y-2603500D03*
G01X7974736Y-2603500D03*
G54D33*
G01X1308100Y-6134964D03*
G01X1308100Y-6285636D03*
G01X1308100Y-5626964D03*
G01X1308100Y-5777636D03*
G01X1308100Y-5118964D03*
G01X1308100Y-5269636D03*
G01X1308100Y-4610964D03*
G01X1308100Y-4761636D03*
G01X1308100Y-8482736D03*
G01X1308100Y-8332064D03*
G01X1308100Y-7824064D03*
G01X1308100Y-7974736D03*
G01X1308100Y-7366864D03*
G01X1308100Y-7517536D03*
G01X1310882Y-6813447D03*
G01X1310882Y-6964120D03*
G54D32*
G01X1637436Y-6273800D03*
G01X1486764Y-6273800D03*
G01X1624736Y-5778500D03*
G01X1474064Y-5778500D03*
G01X1624736Y-5270500D03*
G01X1474064Y-5270500D03*
G01X1624736Y-4762500D03*
G01X1474064Y-4762500D03*
G01X1624736Y-8483600D03*
G01X1474064Y-8483600D03*
G01X1624736Y-7975600D03*
G01X1474064Y-7975600D03*
G01X1624736Y-7518400D03*
G01X1474064Y-7518400D03*
G01X1637436Y-6959600D03*
G01X1486764Y-6959600D03*
G54D33*
G01X11419122Y-8433337D03*
G01X11419122Y-8282664D03*
G01X11419122Y-7734837D03*
G01X11419122Y-7584164D03*
G01X11419122Y-7379237D03*
G01X11419122Y-7228564D03*
G01X11419122Y-7036337D03*
G01X11419122Y-6885664D03*
G01X11419122Y-6680737D03*
G01X11419122Y-6530064D03*
G01X11419122Y-6337837D03*
G01X11419122Y-6187164D03*
G01X11419122Y-5982237D03*
G01X11419122Y-5831564D03*
G01X11419122Y-5626637D03*
G01X11419122Y-5475964D03*
G01X11419122Y-5296437D03*
G01X11419122Y-5145764D03*
G01X11419122Y-8103137D03*
G01X11419122Y-7952464D03*
G01X7099300Y-9917836D03*
G01X7099300Y-9767164D03*
G01X6908800Y-9917836D03*
G01X6908800Y-9767164D03*
G01X7592619Y-10374353D03*
G01X7592619Y-10525026D03*
G01X6400800Y-10376764D03*
G01X6400800Y-10527436D03*
G54D32*
G01X11200536Y-9398000D03*
G01X11049864Y-9398000D03*
G54D33*
G01X10744200Y-3455264D03*
G01X10744200Y-3605936D03*
G54D34*
G01X11856999Y-10030000D03*
G01X11257001Y-10030000D03*
G01X11856999Y-9655000D03*
G01X11257001Y-9655000D03*
G54D35*
G01X11744500Y-8793201D03*
G01X11744500Y-9393199D03*
G01X11369500Y-8793201D03*
G01X11369500Y-9393199D03*
G54D36*
G01X7133006Y-5099507D03*
G01X7082993Y-5099507D03*
G01X7033006Y-5099507D03*
G01X6982993Y-5099507D03*
G01X6933006Y-5099507D03*
G01X6882994Y-5099507D03*
G01X6833006Y-5099507D03*
G01X6782994Y-5099507D03*
G01X6733007Y-5099507D03*
G01X6682994Y-5099507D03*
G01X6633007Y-5099507D03*
G01X6582994Y-5099507D03*
G54D37*
G01X6433007Y-5249494D03*
G01X6433007Y-5299507D03*
G01X6433007Y-5349494D03*
G01X6433007Y-5399507D03*
G01X6433007Y-5449494D03*
G01X6433007Y-5499506D03*
G01X6433007Y-5549494D03*
G01X6433007Y-5599506D03*
G01X6433007Y-5649493D03*
G01X6433007Y-5699506D03*
G01X6433007Y-5749493D03*
G01X6433007Y-5799506D03*
G54D36*
G01X6582994Y-5949493D03*
G01X6633007Y-5949493D03*
G01X6682994Y-5949493D03*
G01X6733007Y-5949493D03*
G01X6782994Y-5949493D03*
G01X6833006Y-5949493D03*
G01X6882994Y-5949493D03*
G01X6933006Y-5949493D03*
G01X6982993Y-5949493D03*
G01X7033006Y-5949493D03*
G01X7082993Y-5949493D03*
G01X7133006Y-5949493D03*
G54D37*
G01X7282993Y-5799506D03*
G01X7282993Y-5749493D03*
G01X7282993Y-5699506D03*
G01X7282993Y-5649493D03*
G01X7282993Y-5599506D03*
G01X7282993Y-5549494D03*
G01X7282993Y-5499506D03*
G01X7282993Y-5449494D03*
G01X7282993Y-5399507D03*
G01X7282993Y-5349494D03*
G01X7282993Y-5299507D03*
G01X7282993Y-5249494D03*
G54D38*
G01X9838690Y-4064000D03*
G01X9838690Y-4191000D03*
G01X9838690Y-4318000D03*
G01X9838690Y-4445000D03*
G01X10379710Y-4064000D03*
G01X10379710Y-4191000D03*
G01X10379710Y-4318000D03*
G01X10379710Y-4445000D03*
G01X9841840Y-3339763D03*
G01X9841840Y-3466763D03*
G01X9841840Y-3593763D03*
G01X9841840Y-3720763D03*
G01X10382860Y-3339763D03*
G01X10382860Y-3466763D03*
G01X10382860Y-3593763D03*
G01X10382860Y-3720763D03*
G54D24*
G01X1858381Y-1682253D03*
G01X1763385Y-1682253D03*
G01X1668389Y-1682253D03*
G01X1668389Y-1442274D03*
G01X1763385Y-1442274D03*
G01X1858381Y-1442274D03*
G54D39*
G01X2501290Y-5151704D03*
G01X2501290Y-5216703D03*
G01X2501290Y-5281701D03*
G01X2501290Y-5346700D03*
G01X2501290Y-5411699D03*
G01X2501290Y-5476697D03*
G01X2501290Y-5541696D03*
G01X3061310Y-5541696D03*
G01X3061310Y-5476697D03*
G01X3061310Y-5411699D03*
G01X3061310Y-5346700D03*
G01X3061310Y-5281701D03*
G01X3061310Y-5216703D03*
G01X3061310Y-5151704D03*
G01X2501290Y-7386904D03*
G01X2501290Y-7451903D03*
G01X2501290Y-7516901D03*
G01X2501290Y-7581900D03*
G01X2501290Y-7646899D03*
G01X2501290Y-7711897D03*
G01X2501290Y-7776896D03*
G01X3061310Y-7776896D03*
G01X3061310Y-7711897D03*
G01X3061310Y-7646899D03*
G01X3061310Y-7581900D03*
G01X3061310Y-7516901D03*
G01X3061310Y-7451903D03*
G01X3061310Y-7386904D03*
G54D40*
G01X3530601Y-1730196D03*
G01X3530601Y-1216202D03*
G54D13*
G01X4089400Y-2420214D03*
G01X4089400Y-3320186D03*
G54D41*
G01X2383460Y-2108200D03*
G01X2721940Y-2108200D03*
G54D33*
G01X2390109Y-2297909D03*
G01X2390109Y-2448582D03*
G54D42*
G01X2628900Y-572846D03*
G54D43*
G01X2882900Y-1636954D03*
G01X2374900Y-1636954D03*
G04 Pad End*

M02*

