G04 Layer: BottomSolderMaskLayer*
G04 EasyEDA Pro v3.2.148, 2026-07-18 15:48:42*
G04 Gerber Generator version 0.3*
G04 Scale: 100 percent, Rotated: No, Reflected: No*
G04 Dimensions in millimeters*
G04 Leading zeros omitted, absolute positions, 4 integers and 5 decimals*
G04 Generated by one-click*
G04 Object Configs: Pad,Via,Track,Text,Image,Dimension,BoardOutline,BoardCutout,CopperFilled,SolidRegion,FPCStiffener,Line,PlaneZone,ComponentProperty,ComponentSilkscreen,TearDrop*
G04 Layer Configs: 1,15,16,2,3,4,5,6,7,8,9,10,11,13,14,56*
G04 Copper Areas: 0*
%FSLAX45Y45*%
%MOMM*%
%ADD10C,4.1656*%
%ADD11C,2.1016*%
%ADD12C,2.5016*%
%ADD13C,2.40002*%
%ADD14C,2.4016*%
%ADD15O,1.20002X2.10002*%
%ADD16O,1.3019X1.90002*%
%ADD17O,1.30002X1.90002*%
G75*


G04 Pad Start*
G54D10*
G01X7685010Y-7607300D03*
G01X6451600Y-7607300D03*
G01X363952Y-10795000D03*
G01X12077700Y-10795000D03*
G01X12077700Y-304800D03*
G01X1790700Y-2819400D03*
G54D11*
G01X1694104Y-671106D03*
G01X1344092Y-658406D03*
G01X764108Y-671106D03*
G01X414096Y-671106D03*
G01X414096Y-421094D03*
G01X764108Y-421094D03*
G01X1344092Y-421094D03*
G01X1694104Y-421094D03*
G54D12*
G01X546100Y-1618894D03*
G01X546100Y-2368906D03*
G54D13*
G01X11861800Y-4635500D03*
G01X11861800Y-4127500D03*
G01X11861800Y-3619500D03*
G01X11861800Y-3111500D03*
G01X11861800Y-2603500D03*
G01X11861800Y-2095500D03*
G01X520700Y-4762500D03*
G01X520700Y-5270500D03*
G01X520700Y-5778500D03*
G01X520700Y-6286500D03*
G01X533400Y-6959600D03*
G01X533400Y-7467600D03*
G01X533400Y-7975600D03*
G01X533400Y-8483600D03*
G54D14*
G01X533400Y-3594100D03*
G01X533400Y-4102100D03*
G54D13*
G01X6819900Y-533400D03*
G01X6311900Y-533400D03*
G01X5803900Y-533400D03*
G01X5295900Y-533400D03*
G01X9766300Y-520700D03*
G01X9258300Y-520700D03*
G01X8750300Y-520700D03*
G01X8242300Y-520700D03*
G54D12*
G01X4400906Y-520700D03*
G01X3650894Y-520700D03*
G54D15*
G01X6564183Y-10527763D03*
G01X7429180Y-10527763D03*
G54D17*
G01X6564183Y-10947777D03*
G01X7429180Y-10947777D03*
G04 Pad End*

M02*

